<svg xmlns="http://www.w3.org/2000/svg" width="92.193" height="92.193" viewBox="0 0 92.193 92.193"><defs><style>.a{fill:none;stroke:#2dbdca;stroke-width:5px;}</style></defs><path class="a" d="M87.913,29.784A1.822,1.822,0,0,0,86.1,27.968H62.482a1.822,1.822,0,0,1-1.817-1.817V2.537A1.822,1.822,0,0,0,58.849.72H29.784a1.822,1.822,0,0,0-1.817,1.817V26.151a1.822,1.822,0,0,1-1.817,1.817H2.537A1.822,1.822,0,0,0,.72,29.784V58.849a1.822,1.822,0,0,0,1.817,1.817H26.151a1.822,1.822,0,0,1,1.817,1.817V86.1a1.822,1.822,0,0,0,1.817,1.817H58.849A1.822,1.822,0,0,0,60.665,86.1V62.482a1.822,1.822,0,0,1,1.817-1.817H86.1a1.822,1.822,0,0,0,1.817-1.817Z" transform="translate(1.78 1.78)"/></svg>