<svg xmlns="http://www.w3.org/2000/svg" width="230.558" height="206.161" viewBox="0 0 230.558 206.161"><defs><style>.a{fill:#e6e6e6;}.b{fill:#3f3d56;}.c{fill:#fff;}.d{fill:#2dbdca;}.e{fill:#ffb8b8;}.f{fill:#2f2e41;}.g{fill:#575a89;}.h{fill:#d0cde1;}</style></defs><g transform="translate(0 0)"><path class="a" d="M230.118,604.216l-2.575-10.156a131.868,131.868,0,0,0-13.992-5.02l-.325,4.72-1.318-5.2c-5.9-1.684-9.908-2.425-9.908-2.425s5.419,20.6,16.783,36.358l13.243,2.326L221.738,626.3a53.348,53.348,0,0,0,4.6,4.877c16.533,15.346,34.947,22.387,41.13,15.726s-2.208-24.5-18.741-39.847a70.246,70.246,0,0,0-18.009-11.58Z" transform="translate(-202 -443.623)"/><path class="a" d="M336.013,536.874l3.046-10.025a131.883,131.883,0,0,0-9.383-11.53l-2.718,3.873,1.559-5.133c-4.177-4.489-7.228-7.2-7.228-7.2s-6.012,20.44-4.426,39.8L327,555.5l-9.574-4.048A53.353,53.353,0,0,0,318.841,558c6.22,21.683,18.345,37.228,27.08,34.722s10.774-22.115,4.554-43.8a70.247,70.247,0,0,0-9.431-19.222Z" transform="translate(-283.404 -387.311)"/><path class="a" d="M866.928,729.987l1.916-2.069a35.509,35.509,0,0,0-.916-3.895l-1.114.618.981-1.06c-.484-1.578-.9-2.593-.9-2.593a34.021,34.021,0,0,0-5.751,9.117l1.415,3.331-1.842-2.106a14.36,14.36,0,0,0-.427,1.754c-1.043,5.982.065,11.171,2.475,11.591s5.209-4.088,6.252-10.07a18.909,18.909,0,0,0-.024-5.763Z" transform="translate(-669.338 -539.417)"/><path class="a" d="M952.87,747.247l2.71-.781a35.5,35.5,0,0,0,1.229-3.808l-1.273-.046,1.388-.4c.4-1.6.566-2.687.566-2.687a34.021,34.021,0,0,0-9.635,4.831l-.511,3.583-.489-2.755a14.359,14.359,0,0,0-1.272,1.281c-3.985,4.581-5.719,9.6-3.873,11.2s6.572-.807,10.557-5.388a18.909,18.909,0,0,0,2.959-4.946Z" transform="translate(-726.932 -552.585)"/><path class="b" d="M482.886,108.1V285.412A13.99,13.99,0,0,1,468.9,299.4H399.993A13.992,13.992,0,0,1,386,285.411V108.1a13.992,13.992,0,0,1,13.993-13.987h8.359a6.652,6.652,0,0,0,6.154,9.158h39.285a6.652,6.652,0,0,0,6.154-9.158H468.9A13.99,13.99,0,0,1,482.886,108.1Z" transform="translate(-332.705 -94.114)"/><path class="c" d="M502.755,330.68a6.916,6.916,0,0,1,3.462-5.993,6.92,6.92,0,1,0,0,11.985A6.916,6.916,0,0,1,502.755,330.68Z" transform="translate(-410.727 -257.243)"/><path class="c" d="M532.791,330.68a6.917,6.917,0,0,1,3.461-5.993,6.92,6.92,0,1,0,0,11.985A6.916,6.916,0,0,1,532.791,330.68Z" transform="translate(-432.063 -257.243)"/><circle class="d" cx="6.92" cy="6.92" r="6.92" transform="translate(102.31 66.517)"/><rect class="c" width="61.858" height="0.579" transform="translate(70.84 118.727)"/><circle class="d" cx="1.953" cy="1.953" r="1.953" transform="translate(70.84 111.203)"/><rect class="c" width="61.858" height="0.579" transform="translate(70.84 138.261)"/><circle class="d" cx="1.953" cy="1.953" r="1.953" transform="translate(70.84 130.737)"/><path class="c" d="M516.58,316.261H476.247a1.45,1.45,0,0,1-1.448-1.448V274.48a1.45,1.45,0,0,1,1.448-1.448H516.58a1.45,1.45,0,0,1,1.448,1.448v40.332A1.45,1.45,0,0,1,516.58,316.261Zm-40.332-42.649a.87.87,0,0,0-.869.869v40.332a.87.87,0,0,0,.869.869H516.58a.87.87,0,0,0,.869-.869V274.48a.87.87,0,0,0-.869-.869Z" transform="translate(-395.784 -221.209)"/><rect class="d" width="21.813" height="9.116" rx="4" transform="translate(110.885 151.248)"/><rect class="b" width="230.328" height="0.579" transform="translate(0.23 205.002)"/><path class="e" d="M822.267,419.2s-.8,5.078,0,5.88-5.078,7.484-5.078,7.484l-4.811-6.682s2.138-3.475,1.336-6.415Z" transform="translate(-635.585 -325.038)"/><path class="f" d="M575.1,456.084l-3.476,37.152,1.335,28.866,6.415-1.871.268-25.926,7.485-22.451,4.543,24.323-.536,24.59,8.019.268.536-27.263.939-38.077Z" transform="translate(-406.053 -323.705)"/><path class="f" d="M841.422,771.7v5.88s-1.336,4.277,2.94,4.009,4.009-2.138,4.009-2.138l-1.6-7.217Z" transform="translate(-656.076 -575.441)"/><path class="f" d="M782.408,771.7v5.88s1.336,4.276-2.94,4.009-4.009-2.138-4.009-2.138l1.6-7.217Z" transform="translate(-609.356 -575.441)"/><circle class="e" cx="6.147" cy="6.147" r="6.147" transform="translate(175.991 84.804)"/><path class="g" d="M812.212,439.513l.535-2.673h1.336l2.584-3.717,2.227,2.114.535,12.562H804.995l1.336-13.364,1.946-1.312s-.343,4.519,3.4,4.519Z" transform="translate(-630.34 -334.93)"/><path class="h" d="M804.633,444.379a7.192,7.192,0,0,0,5.517,2.6c3.3-.2,6.511-2.871,6.511-2.871l4.544,34.747s-5.078.535-6.682-2.138l-12.295-.267.267-32.341Z" transform="translate(-628.374 -342.736)"/><path class="f" d="M788.083,431.531l-11.694,5.782,2.94,16.571s1.069,6.147,0,8.553-2.138,18.442-2.138,18.442,12.028,1.336,10.424-17.641S788.083,431.531,788.083,431.531Z" transform="translate(-610.02 -333.8)"/><path class="e" d="M792.076,561.744l1.6,1.6s4.811,8.286,6.949,5.346-3.742-8.018-3.742-8.018l-2.673-2.138Z" transform="translate(-621.163 -424.019)"/><path class="f" d="M845.314,431.531l11.575,5.782-4.009,19.779s.267,6.415,1.6,9.889.8,13.631.8,13.631-1.6,6.147-5.078-9.088S845.314,431.531,845.314,431.531Z" transform="translate(-658.981 -333.8)"/><path class="e" d="M851.734,535.971h-2.406s-8.018-1.069-7.484,2.138,8.018,2.406,8.018,2.406l2.94-.267Z" transform="translate(-656.498 -407.867)"/><path class="f" d="M765.224,448.725l-1.871.8a43.217,43.217,0,0,0-2.138,5.346c-.267,1.336-3.475,17.373-2.673,19.244s8.82,11.76,8.82,11.76l4.544-4.811-6.682-9.087,1.871-11.493Z" transform="translate(-597.25 -346.014)"/><path class="f" d="M870.781,449.648l3.536.3.74.236s7.484,20.313,5.88,23.521-8.553,9.088-8.553,9.088l-1.871-8.286,3.475-3.207-3.475-10.691Z" transform="translate(-676.881 -346.669)"/><path class="f" d="M817.762,381.776s1.608-3.018-1.93-3.292c0,0-3.216-1.92-5.79.274,0,0-2.252-.549-2.895,1.1a1.126,1.126,0,0,1,.643-1.372s-2.252-.549-2.252,2.195a8.433,8.433,0,0,0,0,5.213,10.091,10.091,0,0,0,1.287,2.743s-1.586-5.177,2.274-5.451,8.18-2.642,8.5.376.965,3.841.965,3.841S821.461,383.01,817.762,381.776Z" transform="translate(-630.422 -295.565)"/></g></svg>