<svg xmlns="http://www.w3.org/2000/svg" width="21.25" height="21.25" viewBox="0 0 21.25 21.25"><defs><style>.a{fill:#ff6f00;}</style></defs><g transform="translate(-3.375 -3.375)"><path class="a" d="M20.575,15.135H16.769V11.329a.817.817,0,1,0-1.635,0v3.806H11.329a.783.783,0,0,0-.817.817.791.791,0,0,0,.817.817h3.806v3.806a.792.792,0,0,0,.817.817.813.813,0,0,0,.817-.817V16.769h3.806a.817.817,0,1,0,0-1.635Z" transform="translate(-1.952 -1.952)"/><path class="a" d="M14,4.805A9.191,9.191,0,1,1,7.5,7.5,9.134,9.134,0,0,1,14,4.805m0-1.43A10.625,10.625,0,1,0,24.625,14,10.623,10.623,0,0,0,14,3.375Z"/></g></svg>