<svg xmlns="http://www.w3.org/2000/svg" width="44.933" height="46.644" viewBox="0 0 44.933 46.644"><defs><style>.a{fill:#2dbdca;}</style></defs><path class="a" d="M28.247,23.653a7.31,7.31,0,0,0-4.857-6.863L20.574,0H7.673L4.857,16.791A7.276,7.276,0,0,0,7.275,30.929a7.225,7.225,0,0,0,2.107-.311,7.27,7.27,0,0,0,9.482,0,7.278,7.278,0,0,0,9.382-6.964ZM20.972,28.2A4.5,4.5,0,0,1,19.1,27.79l-.915-.416-.669.75a4.539,4.539,0,0,1-6.778,0l-.669-.75-.915.416a4.542,4.542,0,0,1-6.417-4.137,4.558,4.558,0,0,1,3.608-4.446l.914-.191L9.986,2.733h8.276l2.73,16.284.914.191a4.543,4.543,0,0,1-.934,8.988Z" transform="translate(8.735 0)"/><path class="a" d="M1.367,10.772,3.539,9.517a4.119,4.119,0,0,0,1.313.761v2.506H7.586V10.278A4.119,4.119,0,0,0,8.9,9.517l2.173,1.254L12.438,8.4,10.267,7.152a4.077,4.077,0,0,0,0-1.519L12.438,4.38,11.072,2.013,8.9,3.267a4.12,4.12,0,0,0-1.313-.761V0H4.853V2.506a4.121,4.121,0,0,0-1.313.761L1.367,2.013,0,4.379,2.171,5.633a4.078,4.078,0,0,0,0,1.519L0,8.4ZM6.219,5.006A1.387,1.387,0,1,1,4.832,6.392,1.388,1.388,0,0,1,6.219,5.006Z" transform="translate(0 0)"/><path class="a" d="M10.339,6.392a4.122,4.122,0,0,0-.071-.759l2.171-1.253L11.072,2.013,8.9,3.267a4.119,4.119,0,0,0-1.313-.761V0H4.852V2.506a4.12,4.12,0,0,0-1.313.761L1.367,2.013,0,4.379,2.171,5.633a4.077,4.077,0,0,0,0,1.519L0,8.4l1.367,2.367L3.539,9.517a4.119,4.119,0,0,0,1.313.761v2.506H7.586V10.278A4.121,4.121,0,0,0,8.9,9.517l2.173,1.254L12.438,8.4,10.267,7.152A4.124,4.124,0,0,0,10.339,6.392ZM6.219,7.779A1.387,1.387,0,1,1,7.606,6.392,1.388,1.388,0,0,1,6.219,7.779Z" transform="translate(32.495 33.86)"/><path class="a" d="M11.071,2.013,8.9,3.267a4.12,4.12,0,0,0-1.313-.761V0H4.852V2.506a4.121,4.121,0,0,0-1.313.761L1.367,2.013,0,4.379,2.171,5.633a4.078,4.078,0,0,0,0,1.519L0,8.4l1.367,2.367L3.539,9.517a4.119,4.119,0,0,0,1.313.761v2.506H7.586V10.278A4.119,4.119,0,0,0,8.9,9.517l2.173,1.254L12.438,8.4,10.267,7.151a4.077,4.077,0,0,0,0-1.519l2.171-1.253ZM6.219,7.779A1.387,1.387,0,1,1,7.606,6.392,1.388,1.388,0,0,1,6.219,7.779Z" transform="translate(0 31.107)"/><path class="a" d="M0,0H2.733V2.733H0Z" transform="translate(2.099 21.539)"/><path class="a" d="M0,0H2.733V2.733H0Z" transform="translate(18.198 35.53)"/><path class="a" d="M0,0H2.733V2.733H0Z" transform="translate(24.786 40.705)"/><path class="a" d="M0,0H2.733V2.733H0Z" transform="translate(42.189 13.957)"/><path class="a" d="M0,0H2.733V2.733H0Z" transform="translate(35.616 4.479)"/><path class="a" d="M0,0H2.733V2.733H0Z" transform="translate(39.456 25.004)"/></svg>