<svg xmlns="http://www.w3.org/2000/svg" width="52.182" height="45.645" viewBox="0 0 52.182 45.645"><defs><style>.a{fill:#2dbdca;}</style></defs><path class="a" d="M32.155,3.837a.764.764,0,0,0,.764-.764V.764a.764.764,0,1,0-1.529,0V3.073A.764.764,0,0,0,32.155,3.837Zm-3.761.142a.764.764,0,0,0,1.332-.751L28.756,1.51a.764.764,0,0,0-1.332.751Zm6.481.29a.766.766,0,0,0,1.041-.29l.969-1.718a.764.764,0,0,0-1.332-.751l-.969,1.718A.764.764,0,0,0,34.875,4.269Zm14.694,21-6.2-2.065a1.273,1.273,0,0,1-.775-.725l-3.453-8.4a3.808,3.808,0,0,0-3.535-2.369h-.04V10.33a3.414,3.414,0,0,0-6.829,0v1.376H3.822A3.826,3.826,0,0,0,0,15.528v5.045a.764.764,0,1,0,1.529,0V15.528a2.3,2.3,0,0,1,2.293-2.293H22.779V29.745H1.529V24.14A.764.764,0,1,0,0,24.14V36.166a3.826,3.826,0,0,0,3.822,3.822H5.78a6.419,6.419,0,0,0,12.748,0h13.93a6.419,6.419,0,0,0,12.748,0H48.36a3.826,3.826,0,0,0,3.822-3.822V28.892A3.816,3.816,0,0,0,49.569,25.266ZM12.154,44.116a4.892,4.892,0,1,1,4.892-4.892A4.9,4.9,0,0,1,12.154,44.116ZM22.779,38.46H18.527a6.419,6.419,0,0,0-12.748,0H3.822a2.3,2.3,0,0,1-2.293-2.293V31.274h21.25ZM30.27,10.33a1.885,1.885,0,0,1,3.771,0v1.376H30.27Zm8.561,33.786a4.892,4.892,0,1,1,4.892-4.892A4.9,4.9,0,0,1,38.831,44.116Zm11.823-14.37H38.994a.764.764,0,1,0,0,1.529H50.653v4.892A2.3,2.3,0,0,1,48.36,38.46H45.2a6.419,6.419,0,0,0-12.748,0h-8.15V31.274h11.12a.764.764,0,1,0,0-1.529H24.307V13.235h11.3a2.285,2.285,0,0,1,2.121,1.421l3.453,8.4a2.8,2.8,0,0,0,1.706,1.594l6.2,2.065a2.29,2.29,0,0,1,1.567,2.175ZM36.305,15.562a1.268,1.268,0,0,0-1.182-.8H27.11a1.275,1.275,0,0,0-1.274,1.274v7.083a1.275,1.275,0,0,0,1.274,1.274H37.974a1.288,1.288,0,0,0,1.182-1.75Zm-8.94,7.3V16.292h7.586L37.6,22.866ZM38.831,36.931a2.293,2.293,0,1,0,2.293,2.293A2.3,2.3,0,0,0,38.831,36.931Zm0,3.058a.764.764,0,1,1,.764-.764A.765.765,0,0,1,38.831,39.988ZM13.071,14.763H11.236a1.377,1.377,0,0,0-1.376,1.376V19.2H6.8a1.377,1.377,0,0,0-1.376,1.376v1.835A1.377,1.377,0,0,0,6.8,23.783H9.861v3.058a1.377,1.377,0,0,0,1.376,1.376h1.835a1.377,1.377,0,0,0,1.376-1.376V23.783H17.5a1.377,1.377,0,0,0,1.376-1.376V20.573A1.377,1.377,0,0,0,17.5,19.2H14.447V16.139A1.377,1.377,0,0,0,13.071,14.763Zm4.281,5.962v1.529H13.988a1.071,1.071,0,0,0-1.07,1.07v3.363H11.389V23.325a1.071,1.071,0,0,0-1.07-1.07H6.956V20.726h3.363a1.071,1.071,0,0,0,1.07-1.07V16.292h1.529v3.363a1.071,1.071,0,0,0,1.07,1.07Zm-5.2,16.2a2.293,2.293,0,1,0,2.293,2.293A2.3,2.3,0,0,0,12.154,36.931Zm0,3.058a.764.764,0,1,1,.764-.764A.765.765,0,0,1,12.154,39.988Z" transform="translate(0)"/></svg>