<svg xmlns="http://www.w3.org/2000/svg" width="30.973" height="21.361" viewBox="0 0 30.973 21.361"><defs><style>.a{fill:#306fc5;}.b{fill:#202121;opacity:0.15;}.c{fill:#fff;}</style></defs><g transform="translate(0 0)"><path class="a" d="M30.973,98.981a1.831,1.831,0,0,1-1.831,1.831H1.831A1.831,1.831,0,0,1,0,98.981v-17.7a1.831,1.831,0,0,1,1.831-1.831H29.143a1.831,1.831,0,0,1,1.831,1.831v17.7Z" transform="translate(0 -79.451)"/><path class="b" d="M1.3,98.981v-17.7a1.831,1.831,0,0,1,1.831-1.831h-1.3A1.831,1.831,0,0,0,0,81.282v17.7a1.831,1.831,0,0,0,1.831,1.831h1.3A1.831,1.831,0,0,1,1.3,98.981Z" transform="translate(0 -79.451)"/><g transform="translate(2.223 6.276)"><path class="c" d="M74.59,202.456h.925l-.463-1.178Z" transform="translate(-72.301 -200.184)"/><path class="c" d="M155.946,286.107v.547H157.5v.589h-1.556v.631h1.725l.8-.884-.757-.884Z" transform="translate(-148.735 -279.881)"/><path class="c" d="M349.058,201.278l-.5,1.178h.968Z" transform="translate(-329.69 -200.184)"/><path class="c" d="M213.362,283.639v-2.4l-1.094,1.178Z" transform="translate(-201.65 -275.31)"/><path class="c" d="M243.513,286.486a.425.425,0,0,0-.463-.379h-.883v.757h.926C243.345,286.864,243.513,286.738,243.513,286.486Z" transform="translate(-229.74 -279.882)"/><path class="c" d="M294.8,287.436a.328.328,0,0,0,.126-.294.234.234,0,0,0-.126-.295.818.818,0,0,0-.336-.042h-.841v.673h.841A.818.818,0,0,0,294.8,287.436Z" transform="translate(-278.082 -280.537)"/><path class="c" d="M59.522,183.2v.5l-.252-.5H57.293v.5l-.253-.5H54.349a2.561,2.561,0,0,0-1.178.252V183.2H51.278v.252a1.213,1.213,0,0,0-.8-.252H43.707l-.463,1.052-.463-1.052H40.636v.5l-.21-.5H38.575l-.841,1.977-.967,2.145-.018.042h2.19l.015-.042.253-.631h.547l.252.673h2.44v-.5l.21.5h1.22l.21-.5v.5h5.847v-1.094h.084c.084,0,.084,0,.084.126v.925h3.029v-.252a2.517,2.517,0,0,0,1.136.252h1.262l.252-.673h.589l.252.673h2.44v-.631l.379.631h1.977V183.2H59.522Zm-14.26,3.534H44.59v-2.314l-.042.1h0l-.979,2.218h-.62l-1.009-2.314v2.314H40.51l-.294-.631h-1.43l-.294.631h-.739L39,183.787h1.052l1.178,2.818v-2.818h1.114l.02.042h0l.531,1.155.381.865.013-.044.841-2.019h1.136v2.945Zm2.9-2.314H46.525v.547h1.6v.589h-1.6v.589h1.641v.631H45.81v-2.986h2.356v.631Zm3,1.085,0,0a.483.483,0,0,1,.041.05.809.809,0,0,1,.149.493v.012s0,0,0,.007,0,0,0,0c0,.023,0,.047,0,.072v.589h-.631V186.4a1,1,0,0,0-.126-.589.383.383,0,0,0-.124-.085.84.84,0,0,0-.381-.042h-.757v1.052h-.715v-2.945h1.6a1.613,1.613,0,0,1,.841.126.711.711,0,0,1,.335.654.836.836,0,0,1-.5.776A.563.563,0,0,1,51.166,185.5Zm1.416,1.229h-.715v-2.945h.715Zm8.2,0h-.926l-1.346-2.23v1.851l0,0v.385H57.8v0h-.715l-.252-.631H55.358l-.252.673h-.8a1.264,1.264,0,0,1-1.388-1.472,1.725,1.725,0,0,1,.378-1.178,1.325,1.325,0,0,1,1.052-.336h.673v.631h-.673a.775.775,0,0,0-.547.168.988.988,0,0,0-.21.673.916.916,0,0,0,.21.715.671.671,0,0,0,.5.168H54.6l.967-2.314H56.62l1.178,2.818v-2.818H58.85l1.22,2.061v-2.061h.715v2.9h0Z" transform="translate(-36.748 -183.198)"/><path class="c" d="M246.168,203.959a.226.226,0,0,0,.033-.045.455.455,0,0,0,.058-.317.23.23,0,0,0-.006-.038s0-.006,0-.01h0a.236.236,0,0,0-.128-.143.824.824,0,0,0-.337-.042h-.841v.673h.841a.819.819,0,0,0,.337-.042.158.158,0,0,0,.035-.025h0Z" transform="translate(-232.35 -202.144)"/><path class="c" d="M154.349,267.371a1.612,1.612,0,0,0-.21-.8v-1.893h0v-.126h-2.026a1.2,1.2,0,0,0-.581.252v-.252H149.6a1.336,1.336,0,0,0-.841.252v-.252H145.3v.252a1.627,1.627,0,0,0-.925-.252h-2.272v.252a1.6,1.6,0,0,0-.968-.252h-2.523l-.589.631-.547-.631H133.7V268.8h3.7l.608-.608.527.608h2.356v-.967h.21a2.556,2.556,0,0,0,.967-.126v1.136h1.893v-1.094h.084c.126,0,.126,0,.126.126v.968h5.721a1.649,1.649,0,0,0,.967-.253v.253h1.809a1.889,1.889,0,0,0,1.01-.21,1.413,1.413,0,0,0,.668-1.134c0-.015,0-.029.005-.044l0,0C154.347,267.425,154.349,267.4,154.349,267.371Zm-13.25-.252h-.841v1.094h-1.383l-.8-.926,0,0-.039-.045-.925.968H134.41v-2.944h2.734l.747.818.157.171.021-.022.883-.967h2.229a1.092,1.092,0,0,1,1.1.547,1.189,1.189,0,0,1,.035.294C142.318,266.95,141.729,267.118,141.1,267.118Zm4.206-.042a.955.955,0,0,1,.126.547v.589h-.715v-.378a.939.939,0,0,0-.126-.589c-.084-.126-.252-.126-.5-.126h-.757v1.094h-.715v-2.987h1.6a1.7,1.7,0,0,1,.841.126.745.745,0,0,1,.378.673.838.838,0,0,1-.5.8A.717.717,0,0,1,145.3,267.076Zm2.9-1.22h-1.641v.547h1.6v.589h-1.6v.589h1.641v.631h-2.356v-2.987h2.356Zm1.767,2.356h-1.346v-.631h1.346a.355.355,0,0,0,.295-.084.305.305,0,0,0,0-.421.357.357,0,0,0-.253-.084c-.673-.042-1.472,0-1.472-.925,0-.421.252-.883,1.01-.883h1.388v.715h-1.3a.624.624,0,0,0-.295.042c-.084.042-.084.126-.084.21,0,.126.084.168.168.21a.533.533,0,0,0,.252.042h.379a1.071,1.071,0,0,1,.8.252.871.871,0,0,1,.21.631C151.068,267.917,150.689,268.212,149.974,268.212Zm3.618-.295a1.226,1.226,0,0,1-.883.295h-1.346v-.631h1.346A.355.355,0,0,0,153,267.5a.3.3,0,0,0,0-.421.356.356,0,0,0-.252-.084c-.673-.042-1.472,0-1.472-.925a.86.86,0,0,1,.793-.868,1.569,1.569,0,0,1,.217-.015h1.388v.715h-1.3a.622.622,0,0,0-.294.042.321.321,0,0,0-.084.21c0,.126.042.168.168.21a.532.532,0,0,0,.252.042h.378a1.314,1.314,0,0,1,.45.067.906.906,0,0,1,.589.665.947.947,0,0,1,.013.151A.855.855,0,0,1,153.591,267.917Z" transform="translate(-127.83 -259.63)"/></g></g></svg>