<svg xmlns="http://www.w3.org/2000/svg" width="67.356" height="67.356" viewBox="0 0 67.356 67.356"><defs><style>.a{fill:none;}.b{fill:#2dbdca;}</style></defs><g transform="translate(24.654) rotate(30)"><path class="a" d="M0,0H49.308V49.308H0Z"/><path class="b" d="M26.518,11.273V34.9a8.218,8.218,0,1,1-16.436,0V9.218a5.136,5.136,0,1,1,10.273,0V30.79a2.055,2.055,0,1,1-4.109,0V11.273H13.164V30.79a5.136,5.136,0,1,0,10.273,0V9.218A8.218,8.218,0,1,0,7,9.218V34.9a11.3,11.3,0,1,0,22.6,0V11.273Z" transform="translate(7.382 1.055)"/></g></svg>