<svg xmlns="http://www.w3.org/2000/svg" width="47.637" height="47.638" viewBox="0 0 47.637 47.638"><defs><style>.a{fill:#2dbdca;}</style></defs><g transform="translate(-0.002)"><path class="a" d="M40.337,30.386c4.1-.357,7.3-3.166,7.3-6.567s-3.2-6.21-7.3-6.567a17.835,17.835,0,0,0-8.426-9.259,8.091,8.091,0,0,0-16.18,0A17.835,17.835,0,0,0,7.3,17.251C3.2,17.609,0,20.418,0,23.819s3.2,6.21,7.3,6.567a17.953,17.953,0,0,0,6.6,8.179,15.289,15.289,0,0,0-5.115,7.242,1.4,1.4,0,0,0,2.652.869,12.617,12.617,0,0,1,5.162-6.614,17.8,17.8,0,0,0,14.686-.117,12.613,12.613,0,0,1,5.345,6.731,1.4,1.4,0,0,0,2.653-.869,15.28,15.28,0,0,0-5.318-7.4,17.8,17.8,0,0,0,6.366-8.021Zm4.511-6.567c0,1.63-1.537,3.061-3.621,3.593a17.9,17.9,0,0,0,0-7.186C43.311,20.758,44.848,22.188,44.848,23.819ZM23.821,2.791a5.343,5.343,0,0,1,5.257,4.682,8.1,8.1,0,0,0-7.049,5.71,5.289,5.289,0,0,1-3.512-5,5.357,5.357,0,0,1,5.3-5.4ZM2.793,23.819c0-1.63,1.537-3.061,3.621-3.593a17.9,17.9,0,0,0,0,7.186C4.33,26.879,2.793,25.449,2.793,23.819Zm27.92,13.3A14.982,14.982,0,0,1,16.2,10.922a8.067,8.067,0,0,0,6.767,5.315A1.4,1.4,0,0,0,24.5,14.991a5.284,5.284,0,0,1,5.677-4.739,14.982,14.982,0,0,1,.536,26.871Z" transform="translate(0)"/><path class="a" d="M144.647,204.462a1.4,1.4,0,0,0,0-1.974,5.115,5.115,0,0,0-7.237,0,1.4,1.4,0,0,0,1.974,1.974,2.325,2.325,0,0,1,3.289,0A1.4,1.4,0,0,0,144.647,204.462Z" transform="translate(-124.253 -182.288)"/><path class="a" d="M296.647,202.487a5.115,5.115,0,0,0-7.237,0,1.4,1.4,0,0,0,1.974,1.974,2.325,2.325,0,0,1,3.289,0,1.4,1.4,0,0,0,1.974-1.974Z" transform="translate(-262.111 -182.287)"/><path class="a" d="M209.182,313.409a3.819,3.819,0,0,1-5.395,0,1.4,1.4,0,1,0-1.974,1.974,6.614,6.614,0,0,0,9.342,0,1.4,1.4,0,1,0-1.974-1.974Z" transform="translate(-182.664 -283.878)"/></g></svg>