<svg xmlns="http://www.w3.org/2000/svg" width="45.883" height="45.883" viewBox="0 0 45.883 45.883"><defs><style>.a{fill:#2dbdca;}</style></defs><path class="a" d="M33.5,22.5l-3.678-5.154V9.177c0-5.743-7-9.177-13.765-9.177C7.2,0,0,6.171,0,13.765c0,5.774,3.9,19.844,4.535,22.1L.084,44.774a.765.765,0,0,0,.681,1.109H19.883a.765.765,0,0,0,.765-.765V37.471h9.941a.765.765,0,0,0,.765-.765V33.647a.765.765,0,0,0-.344-.635L27.522,30.68l3.411-1.705a.747.747,0,0,0,.421-.681V24.884l1.95-1.308a.765.765,0,0,0,.2-1.078Zm-3.334,1.338a.765.765,0,0,0-.344.635V27.82l-4.168,2.088a.752.752,0,0,0-.421.635.765.765,0,0,0,.344.681l4.244,2.837v1.881H19.883a.765.765,0,0,0-.765.765v7.647H2l4.03-8.068a.729.729,0,0,0,.054-.551c-.046-.161-4.558-16.028-4.558-21.97,0-6.745,6.515-12.235,14.53-12.235,6.011,0,12.235,2.86,12.235,7.647v8.412a.718.718,0,0,0,.145.444L31.8,22.743Z"/><path class="a" d="M5.353,15.294V13.765c-2.072,0-3.824-2.8-3.824-6.118S3.281,1.529,5.353,1.529V0C2.352,0,0,3.359,0,7.647S2.352,15.294,5.353,15.294Z" transform="translate(9.177 19.118)"/><path class="a" d="M0,0V1.529c2.072,0,3.824,2.8,3.824,6.118S2.072,13.765,0,13.765v1.529c3,0,5.353-3.359,5.353-7.647S3,0,0,0Z" transform="translate(19.118 19.118)"/><path class="a" d="M9.177,4.588A4.588,4.588,0,1,0,4.588,9.177,4.588,4.588,0,0,0,9.177,4.588ZM4.588,7.647A3.059,3.059,0,1,1,7.647,4.588,3.059,3.059,0,0,1,4.588,7.647Z" transform="translate(12.235 22.177)"/><path class="a" d="M13,9.177h-.765V2.294A2.3,2.3,0,0,0,9.941,0H6.882A2.3,2.3,0,0,0,4.588,2.294V9.177H3.824a.765.765,0,0,0-.765.765v5.353H2.294A2.3,2.3,0,0,0,0,17.588v1.529a2.3,2.3,0,0,0,2.294,2.294h.765v.765a.765.765,0,0,0,.765.765H5.353a.765.765,0,0,1,.765.765v1.529A.765.765,0,0,0,6.882,26H13a.765.765,0,0,0,.765-.765V9.941A.765.765,0,0,0,13,9.177ZM3.059,19.883H2.294a.765.765,0,0,1-.765-.765V17.588a.765.765,0,0,1,.765-.765h.765ZM6.118,2.294a.765.765,0,0,1,.765-.765H9.941a.765.765,0,0,1,.765.765V9.177H6.118Zm6.118,22.177H7.647v-.765a2.3,2.3,0,0,0-2.294-2.294H4.588V19.118H7.234l1.308,1.95a.765.765,0,0,0,.635.344h3.059Zm0-4.588H9.59l-1.308-1.95a.765.765,0,0,0-.635-.344H4.588V14.53h7.647Zm0-6.882H4.588V10.706h7.647Z" transform="translate(32.118 12.235)"/><path class="a" d="M2.835,5.353a.765.765,0,0,0,.541-.224L5.67,2.835,4.588,1.753,3.6,2.742V0H2.07V2.742l-.989-.989L0,2.835,2.294,5.129A.765.765,0,0,0,2.835,5.353Z" transform="translate(37.695 5.353)"/><path class="a" d="M4.364,0H1.305V1.529H2.518L0,4.048,1.081,5.129,3.6,2.611V3.824H5.129V.765A.765.765,0,0,0,4.364,0Z" transform="translate(31.577 36.706)"/><path class="a" d="M7.647,2.24,6.528,1.12A3.824,3.824,0,0,0,0,3.824V6.38H1.529V3.824A2.294,2.294,0,0,1,5.446,2.2l1.12,1.12H5.353V4.851H8.412a.765.765,0,0,0,.765-.765V1.027H7.647Z" transform="translate(16.059 13.503)"/><path class="a" d="M7.647,2.556A2.294,2.294,0,0,1,3.73,4.178l-1.12-1.12H3.824V1.529H.765A.765.765,0,0,0,0,2.294V5.353H1.529V4.14l1.12,1.12A3.769,3.769,0,0,0,5.325,6.39a3.873,3.873,0,0,0,1.488-.3A3.764,3.764,0,0,0,9.177,2.556V0H7.647Z" transform="translate(8.412 33.647)"/></svg>