<svg xmlns="http://www.w3.org/2000/svg" width="87" height="88" viewBox="0 0 87 88"><defs><style>.a{opacity:0.33;}.b{fill:#fff;}</style></defs><g transform="translate(-1017.654 -781)"><rect class="a" width="87" height="88" rx="43.5" transform="translate(1017.654 781)"/><path class="b" d="M29.175,21.03H24.936a1.662,1.662,0,1,1,0-3.325h1.941A7.073,7.073,0,0,0,14.609,18a1.662,1.662,0,0,1-2.923-1.585,10.377,10.377,0,0,1,17.488-1.226V13.549a1.662,1.662,0,0,1,3.325,0V17.7a3.329,3.329,0,0,1-3.325,3.325ZM40.9,25.1a1.662,1.662,0,0,0,1.662-1.662V12.634a6.657,6.657,0,0,0-6.65-6.65H33.385A1.663,1.663,0,0,1,31.81,4.858l-.5-1.478A4.986,4.986,0,0,0,26.586,0H15.966a5,5,0,0,0-4.691,3.293L10.7,4.887a1.667,1.667,0,0,1-1.564,1.1H6.649A6.657,6.657,0,0,0,0,12.634V31.752a6.657,6.657,0,0,0,6.65,6.65H35.908a6.657,6.657,0,0,0,6.65-6.65,1.662,1.662,0,1,0-3.325,0,3.329,3.329,0,0,1-3.325,3.325H6.649a3.329,3.329,0,0,1-3.325-3.325V12.634A3.329,3.329,0,0,1,6.649,9.31H9.136a5,5,0,0,0,4.691-3.293L14.4,4.423a1.667,1.667,0,0,1,1.564-1.1h10.62A1.662,1.662,0,0,1,28.16,4.451l.5,1.478a4.986,4.986,0,0,0,4.721,3.38h2.524a3.329,3.329,0,0,1,3.325,3.325V23.44A1.662,1.662,0,0,0,40.9,25.1ZM19.034,23.69a1.662,1.662,0,0,0-1.662-1.662H13.133a3.329,3.329,0,0,0-3.325,3.325v4.156a1.662,1.662,0,0,0,3.325,0v-1.66A10.432,10.432,0,0,0,15.257,30a10.393,10.393,0,0,0,15.38-3.358,1.662,1.662,0,1,0-2.922-1.585,7.074,7.074,0,0,1-12.268.294h1.926a1.662,1.662,0,0,0,1.662-1.662Zm0,0" transform="translate(1040.264 805.26)"/></g></svg>