<svg xmlns="http://www.w3.org/2000/svg" width="20.145" height="16.664" viewBox="0 0 20.145 16.664">
  <g id="Icon_feather-camera" data-name="Icon feather-camera" transform="translate(0.5 0.5)">
    <path id="Path_2943" data-name="Path 2943" d="M20.645,18.424a1.74,1.74,0,0,1-1.74,1.74H3.24a1.74,1.74,0,0,1-1.74-1.74V8.851a1.74,1.74,0,0,1,1.74-1.74H6.721L8.462,4.5h5.221l1.74,2.611H18.9a1.74,1.74,0,0,1,1.74,1.74Z" transform="translate(-1.5 -4.5)" fill="none" stroke="#ff9500" stroke-linecap="round" stroke-linejoin="round" stroke-width="1"/>
    <path id="Path_2944" data-name="Path 2944" d="M18.962,16.981A3.481,3.481,0,1,1,15.481,13.5,3.481,3.481,0,0,1,18.962,16.981Z" transform="translate(-5.908 -8.279)" fill="none" stroke="#ff9500" stroke-linecap="round" stroke-linejoin="round" stroke-width="1"/>
  </g>
</svg>
