<svg xmlns="http://www.w3.org/2000/svg" width="126.316" height="18.572" viewBox="0 0 126.316 18.572">
  <g id="Group_11412" data-name="Group 11412" transform="translate(-224 -219.756)">
    <g id="Page-1" transform="translate(254 220)">
      <g id="Master" transform="translate(0 0)">
        <path id="Rectangle-1" d="M27.647,0H2.44A1.549,1.549,0,0,0,1,1.44v14.4A1.91,1.91,0,0,0,3.161,18H27.647a1.91,1.91,0,0,0,2.161-2.161V2.161A1.91,1.91,0,0,0,27.647,0Zm0,0" transform="translate(-1 0)" fill="#265697" fill-rule="evenodd"/>
        <path id="path2268" d="M82.282,15.991a7.495,7.495,0,1,1-14.989,0v0a7.495,7.495,0,1,1,14.989,0v0Zm0,0" transform="translate(-55.357 -6.899)" fill="#dfac16" fill-rule="evenodd"/>
        <path id="path1350" d="M18.9,8.425a7.576,7.576,0,0,0,.048,15.151A7.423,7.423,0,0,0,23.992,21.6h0a7.611,7.611,0,0,0,.761-.811H23.219a7.4,7.4,0,0,1-.559-.78h2.648a7.615,7.615,0,0,0,.436-.811H22.223a7.518,7.518,0,0,1-.313-.8h4.148a7.688,7.688,0,0,0,.213-4.025H21.689a7.621,7.621,0,0,1,.214-.8h4.15a7.625,7.625,0,0,0-.323-.811H22.222a7.293,7.293,0,0,1,.43-.8H25.3a7.592,7.592,0,0,0-.582-.811H23.241a7,7,0,0,1,.752-.765,7.424,7.424,0,0,0-5.044-1.974Zm0,0" transform="translate(-9.572 -6.908)" fill="#bf3126" fill-rule="evenodd"/>
        <path id="path4157" d="M62.43,45.043l.1-.686c-.055,0-.135.024-.206.024-.278,0-.308-.149-.291-.26l.224-1.4h.422l.1-.758h-.4l.081-.472h-.8c-.018.018-.471,2.652-.471,2.973a.6.6,0,0,0,.636.683,2.079,2.079,0,0,0,.6-.106Zm0,0" transform="translate(-50.358 -34.022)" fill="#fff" fill-rule="evenodd"/>
        <path id="path4155" d="M69.454,45.474a1.259,1.259,0,0,0,1.378,1.411,2.012,2.012,0,0,0,.843-.132l.141-.778a2.463,2.463,0,0,1-.847.2c-.857,0-.707-.646-.707-.646h1.622a5.86,5.86,0,0,0,.1-.736,1.077,1.077,0,0,0-1.138-1.179c-.8,0-1.4.874-1.4,1.862Zm1.4-1.139c.45,0,.367.512.367.553h-.886c0-.053.084-.553.519-.553Zm0,0" transform="translate(-57.129 -35.76)" fill="#fff" fill-rule="evenodd"/>
        <path id="path4151" d="M95.572,43.519l.143-.879a1.905,1.905,0,0,1-.66.2c-.566,0-.793-.437-.793-.906,0-.952.487-1.476,1.029-1.476a1.411,1.411,0,0,1,.733.231l.13-.854a2.841,2.841,0,0,0-.9-.2c-.921,0-1.817.808-1.817,2.325,0,1.006.484,1.67,1.436,1.67a3.644,3.644,0,0,0,.7-.11Zm0,0" transform="translate(-76.795 -32.498)" fill="#fff" fill-rule="evenodd"/>
        <path id="path4149" d="M36.919,43.682a2.731,2.731,0,0,0-.967.178l-.116.695a2.5,2.5,0,0,1,.87-.142c.3,0,.515.034.515.278a.52.52,0,0,1-.027.2s-.234-.02-.343-.02c-.69,0-1.415.3-1.415,1.2a.762.762,0,0,0,.77.869,1.035,1.035,0,0,0,.819-.37L37,46.876h.7l.313-2.221a.946.946,0,0,0-1.1-.973Zm.171,1.809c.015.136-.084.772-.565.772a.292.292,0,0,1-.312-.3c0-.221.119-.486.7-.486a.5.5,0,0,1,.173.019Zm0,0" transform="translate(-29.236 -35.818)" fill="#fff" fill-rule="evenodd"/>
        <path id="path4145" d="M49.829,46.945c.18,0,1.207.046,1.207-1.026,0-1-.951-.8-.951-1.207,0-.2.155-.263.438-.263.112,0,.545.036.545.036l.1-.712a3.685,3.685,0,0,0-.736-.063c-.59,0-1.19.238-1.19,1.053,0,.923,1,.831,1,1.22,0,.26-.279.281-.494.281a2.581,2.581,0,0,1-.709-.123l-.106.7a2.508,2.508,0,0,0,.9.1Zm0,0" transform="translate(-40.304 -35.84)" fill="#fff" fill-rule="evenodd"/>
        <path id="path4139" d="M131.606,40.127l-.172,1.08a1.053,1.053,0,0,0-.771-.419c-.731,0-1.34.891-1.34,1.915,0,.661.325,1.308.99,1.308a.994.994,0,0,0,.743-.337l-.035.288h.776l.61-3.836Zm-.371,2.1c0,.426-.209,1-.641,1-.287,0-.422-.244-.422-.626,0-.625.278-1.038.628-1.038.287,0,.435.2.435.669Zm0,0" transform="translate(-106.219 -32.901)" fill="#fff" fill-rule="evenodd"/>
        <path id="path4133" d="M16.171,43.957l.486-2.9.071,2.9h.55l1.026-2.9-.454,2.9h.817l.629-3.841H18.032l-.787,2.357L17.2,40.116H16.04L15.4,43.957Zm0,0" transform="translate(-12.809 -32.893)" fill="#fff" fill-rule="evenodd"/>
        <path id="path4131" d="M84.23,47.056c.232-1.335.275-2.419.83-2.221a3.126,3.126,0,0,1,.3-.935.833.833,0,0,0-.154-.011c-.357,0-.622.493-.622.493l.071-.453h-.743l-.5,3.126Zm0,0" transform="translate(-68.573 -35.987)" fill="#fff" fill-rule="evenodd"/>
        <path id="path4149_1_" d="M108.765,43.682a2.73,2.73,0,0,0-.967.178l-.116.695a2.5,2.5,0,0,1,.87-.142c.3,0,.514.034.514.278a.524.524,0,0,1-.026.2s-.234-.02-.343-.02c-.69,0-1.415.3-1.415,1.2a.762.762,0,0,0,.77.869,1.035,1.035,0,0,0,.819-.37l-.026.308h.7l.313-2.221a.946.946,0,0,0-1.1-.973Zm.171,1.809c.015.136-.084.772-.565.772a.292.292,0,0,1-.312-.3c0-.221.119-.486.7-.486a.505.505,0,0,1,.174.019Zm0,0" transform="translate(-88.147 -35.818)" fill="#fff" fill-rule="evenodd"/>
        <path id="path4131_1_" d="M121.44,47.056c.232-1.335.275-2.419.829-2.221a3.133,3.133,0,0,1,.3-.935.833.833,0,0,0-.154-.011c-.357,0-.622.493-.622.493l.071-.453h-.743l-.5,3.126Zm0,0" transform="translate(-99.084 -35.987)" fill="#fff" fill-rule="evenodd"/>
      </g>
    </g>
    <g id="american-express" transform="translate(324 140.305)">
      <path id="Path_3076" data-name="Path 3076" d="M26.316,96.044A1.556,1.556,0,0,1,24.76,97.6H1.556A1.556,1.556,0,0,1,0,96.044V81.007a1.556,1.556,0,0,1,1.556-1.556h23.2a1.556,1.556,0,0,1,1.556,1.556V96.044Z" fill="#306fc5"/>
      <path id="Path_3077" data-name="Path 3077" d="M1.106,96.044V81.007a1.556,1.556,0,0,1,1.556-1.556H1.556A1.556,1.556,0,0,0,0,81.007V96.044A1.556,1.556,0,0,0,1.556,97.6H2.662A1.556,1.556,0,0,1,1.106,96.044Z" fill="#202121" opacity="0.15"/>
      <g id="Group_11374" data-name="Group 11374" transform="translate(1.889 84.783)">
        <path id="Path_3078" data-name="Path 3078" d="M74.59,202.279h.786l-.393-1Z" transform="translate(-72.645 -200.349)" fill="#fff"/>
        <path id="Path_3079" data-name="Path 3079" d="M155.946,286.107v.465h1.322v.5h-1.322v.536h1.465l.679-.751-.643-.751Z" transform="translate(-149.819 -280.818)" fill="#fff"/>
        <path id="Path_3080" data-name="Path 3080" d="M348.982,201.278l-.429,1h.822Z" transform="translate(-332.527 -200.349)" fill="#fff"/>
        <path id="Path_3081" data-name="Path 3081" d="M213.2,283.278v-2.037l-.929,1Z" transform="translate(-203.247 -276.202)" fill="#fff"/>
        <path id="Path_3082" data-name="Path 3082" d="M243.311,286.429a.361.361,0,0,0-.393-.322h-.75v.643h.786C243.168,286.75,243.311,286.643,243.311,286.429Z" transform="translate(-231.609 -280.818)" fill="#fff"/>
        <path id="Path_3083" data-name="Path 3083" d="M294.622,287.341a.278.278,0,0,0,.107-.25.2.2,0,0,0-.107-.25.7.7,0,0,0-.286-.036h-.715v.572h.715A.7.7,0,0,0,294.622,287.341Z" transform="translate(-280.418 -281.48)" fill="#fff"/>
        <path id="Path_3084" data-name="Path 3084" d="M56.1,183.2v.429l-.214-.429H54.2v.429l-.215-.429H51.7a2.176,2.176,0,0,0-1,.214V183.2H49.093v.214a1.031,1.031,0,0,0-.679-.214H42.66l-.393.893-.393-.893H40.051v.429l-.179-.429H38.3l-.715,1.68-.822,1.823-.015.036h1.861l.013-.036.215-.536H39.3l.214.572h2.073v-.429l.179.429H42.8l.179-.429v.429h4.968v-.929h.072c.071,0,.071,0,.071.107v.786h2.573v-.214a2.138,2.138,0,0,0,.965.214H52.7l.214-.572h.5l.214.572H55.7v-.536l.322.536h1.68v-3.5H56.1Zm-12.115,3h-.572v-1.966l-.036.082h0l-.831,1.885h-.527l-.858-1.966V186.2H39.944l-.25-.536H38.479l-.25.536H37.6l1.057-2.5h.893l1,2.394V183.7H41.5l.017.036h0l.451.981.324.735.011-.037.715-1.715h.965v2.5Zm2.466-1.966H45.055v.465h1.358v.5H45.055v.5h1.394v.536h-2V183.7h2v.536Zm2.549.922,0,0a.411.411,0,0,1,.035.042.687.687,0,0,1,.127.419v.01s0,0,0,.006,0,0,0,0c0,.02,0,.04,0,.062v.5h-.536v-.286a.85.85,0,0,0-.107-.5.325.325,0,0,0-.105-.072.714.714,0,0,0-.324-.035h-.644v.893h-.607v-2.5H48.2a1.37,1.37,0,0,1,.715.107.6.6,0,0,1,.285.556.71.71,0,0,1-.428.659A.478.478,0,0,1,49,185.156Zm1.2,1.044h-.608v-2.5H50.2Zm6.969,0h-.786l-1.144-1.894v1.573l0,0v.327H54.025l-.214-.536H52.56l-.214.572h-.679a1.074,1.074,0,0,1-1.179-1.251,1.465,1.465,0,0,1,.322-1,1.126,1.126,0,0,1,.893-.286h.572v.536H51.7a.659.659,0,0,0-.465.143.84.84,0,0,0-.179.572.778.778,0,0,0,.179.608.57.57,0,0,0,.429.143h.25l.822-1.966h.894l1,2.394v-2.394h.893l1.036,1.751v-1.751h.608V186.2h0Z" transform="translate(-36.748 -183.198)" fill="#fff"/>
        <path id="Path_3085" data-name="Path 3085" d="M245.984,203.87a.191.191,0,0,0,.028-.038.386.386,0,0,0,.049-.27.2.2,0,0,0-.005-.033s0-.005,0-.008h0a.2.2,0,0,0-.108-.122.7.7,0,0,0-.286-.036h-.715v.572h.715a.7.7,0,0,0,.286-.036.135.135,0,0,0,.03-.021h0Z" transform="translate(-234.244 -202.328)" fill="#fff"/>
        <path id="Path_3086" data-name="Path 3086" d="M151.243,266.947a1.369,1.369,0,0,0-.179-.679v-1.608h0v-.107h-1.721a1.017,1.017,0,0,0-.493.214v-.214H147.2a1.135,1.135,0,0,0-.715.214v-.214h-2.931v.214a1.383,1.383,0,0,0-.786-.214h-1.93v.214a1.358,1.358,0,0,0-.822-.214h-2.144l-.5.536-.465-.536H133.7v3.61h3.145l.517-.517.448.517h2v-.822h.179a2.171,2.171,0,0,0,.822-.107v.965h1.608v-.929h.071c.107,0,.107,0,.107.107v.822h4.86a1.4,1.4,0,0,0,.822-.215v.215h1.537a1.6,1.6,0,0,0,.858-.179,1.2,1.2,0,0,0,.567-.964c0-.012,0-.025,0-.037l0,0C151.242,266.993,151.243,266.97,151.243,266.947Zm-11.258-.214h-.715v.929H138.1l-.684-.786,0,0-.033-.038-.786.822H134.3v-2.5h2.323l.635.7.133.146.018-.019.751-.822h1.894a.927.927,0,0,1,.935.465,1.011,1.011,0,0,1,.03.25C141.021,266.589,140.521,266.732,139.985,266.732Zm3.574-.036a.811.811,0,0,1,.107.465v.5h-.607v-.322a.8.8,0,0,0-.107-.5c-.071-.107-.214-.107-.429-.107h-.643v.929h-.608v-2.537h1.358a1.442,1.442,0,0,1,.715.107.633.633,0,0,1,.321.572.712.712,0,0,1-.429.679A.609.609,0,0,1,143.559,266.7Zm2.466-1.037h-1.394v.465h1.358v.5h-1.358v.5h1.394v.536h-2v-2.537h2Zm1.5,2h-1.144v-.536h1.144a.3.3,0,0,0,.25-.072.259.259,0,0,0,0-.357.3.3,0,0,0-.215-.072c-.572-.036-1.251,0-1.251-.786,0-.357.214-.751.858-.751h1.179v.607H147.24a.53.53,0,0,0-.25.036c-.071.036-.071.107-.071.179,0,.107.071.143.143.179a.453.453,0,0,0,.214.036h.322a.91.91,0,0,1,.679.214.74.74,0,0,1,.179.536C148.455,267.411,148.134,267.661,147.526,267.661Zm3.074-.25a1.041,1.041,0,0,1-.751.25h-1.143v-.536h1.143a.3.3,0,0,0,.25-.072.259.259,0,0,0,0-.357.3.3,0,0,0-.214-.072c-.572-.036-1.251,0-1.251-.786a.73.73,0,0,1,.674-.738,1.334,1.334,0,0,1,.184-.013h1.179v.607h-1.108a.529.529,0,0,0-.25.036.273.273,0,0,0-.072.179c0,.107.036.143.143.179a.452.452,0,0,0,.214.036h.322a1.116,1.116,0,0,1,.382.057.77.77,0,0,1,.5.565.8.8,0,0,1,.011.128A.727.727,0,0,1,150.6,267.411Z" transform="translate(-128.712 -260.371)" fill="#fff"/>
      </g>
    </g>
    <g id="iconfinder_Discover_380816" transform="translate(289 220)">
      <g id="Discover">
        <g id="Discover_x5F_flat_1_">
          <rect id="Rectangle_17527" data-name="Rectangle 17527" width="29" height="18" rx="2" fill="#f4efe4"/>
          <g id="Logo" transform="translate(3.601 6.295)">
            <path id="Path_3087" data-name="Path 3087" d="M9.914,8.393c-.4-.149-.522-.246-.522-.433,0-.216.212-.381.5-.381a.7.7,0,0,1,.544.278l.35-.459a1.5,1.5,0,0,0-1.013-.383A1.014,1.014,0,0,0,8.7,8c0,.474.217.717.846.947a2.663,2.663,0,0,1,.466.2.413.413,0,0,1,.2.356.491.491,0,0,1-.523.487.8.8,0,0,1-.734-.462l-.433.42a1.343,1.343,0,0,0,1.194.655,1.115,1.115,0,0,0,1.189-1.133c0-.547-.229-.8-.994-1.076" transform="translate(-4.452 -6.995)"/>
            <path id="Path_3088" data-name="Path 3088" d="M11.406,8.794a1.786,1.786,0,0,0,1.819,1.8,1.857,1.857,0,0,0,.842-.2V9.6a1.068,1.068,0,0,1-.811.378A1.125,1.125,0,0,1,12.1,8.791a1.145,1.145,0,0,1,1.127-1.183,1.121,1.121,0,0,1,.842.387V7.2a1.709,1.709,0,0,0-.827-.21,1.811,1.811,0,0,0-1.835,1.8" transform="translate(-4.739 -6.993)"/>
            <circle id="Ellipse_293" data-name="Ellipse 293" cx="1.8" cy="1.8" r="1.8" transform="translate(9.64 0.025)" fill="#f48221"/>
            <path id="Path_3089" data-name="Path 3089" d="M5.107,7H4v3.595H5.025a1.874,1.874,0,0,0,1.286-.417,1.807,1.807,0,0,0,.654-1.384A1.776,1.776,0,0,0,5.107,7Zm.746,2.7a1.337,1.337,0,0,1-.962.286H4.7V7.6h.188a1.312,1.312,0,0,1,.962.29,1.214,1.214,0,0,1,.387.9A1.234,1.234,0,0,1,5.854,9.7Z" transform="translate(-4 -6.994)"/>
            <rect id="Rectangle_17528" data-name="Rectangle 17528" width="0.699" height="3.595" transform="translate(3.205 0.006)"/>
            <path id="Path_3090" data-name="Path 3090" d="M21.174,7l-.949,2.357L19.29,7h-.748l1.489,3.6H20.4L21.917,7Z" transform="translate(-5.451 -6.994)"/>
            <path id="Path_3091" data-name="Path 3091" d="M24.54,7.6V7H22.549v3.591H24.54v-.61H23.25V9.008h1.241V8.4H23.25V7.6Z" transform="translate(-5.851 -6.994)"/>
            <path id="Path_3092" data-name="Path 3092" d="M26.576,9.085a.958.958,0,0,0,.82-1.022c0-.649-.438-1.024-1.194-1.051H25.08V10.6h.7V9.155h.093l.97,1.447h.863Zm-.588-.429h-.205V7.567H26c.438,0,.673.185.673.536S26.438,8.657,25.988,8.657Z" transform="translate(-6.103 -6.995)"/>
          </g>
          <path id="Path_3093" data-name="Path 3093" d="M9,19.1H29.705V11Z" transform="translate(-0.898 -1.098)" fill="#f48221"/>
        </g>
      </g>
    </g>
    <g id="_x33_63-visa_x2C__Credit_card" transform="translate(197.999 142.889)">
      <g id="Group_11376" data-name="Group 11376" transform="translate(26.001 77.111)">
        <path id="Path_3094" data-name="Path 3094" d="M49.566,79.075v14.4A1.964,1.964,0,0,1,47.6,95.439H27.965A1.964,1.964,0,0,1,26,93.475v-14.4a1.964,1.964,0,0,1,1.964-1.964H47.6A1.964,1.964,0,0,1,49.566,79.075Z" transform="translate(-26.001 -77.111)" fill="#0353a5"/>
        <g id="Group_11375" data-name="Group 11375" transform="translate(1.309 5.773)">
          <path id="Path_3095" data-name="Path 3095" d="M337.079,192.111h-1.272a.809.809,0,0,0-.859.528l-2.442,5.83h1.726s.282-.785.344-.953h2.111c.049.225.2.953.2.953H338.4Zm-2.029,4.1c.135-.364.655-1.78.655-1.78s.135-.372.217-.61l.114.548s.311,1.522.381,1.841H335.05Z" transform="translate(-318.113 -191.992)" fill="#fff"/>
          <path id="Path_3096" data-name="Path 3096" d="M57.333,192.111l-1.608,4.337-.176-.88-.573-2.921a.684.684,0,0,0-.745-.536H51.585l-.029.127a6.494,6.494,0,0,1,1.726.7l1.465,5.523h1.739l2.586-6.349H57.333Z" transform="translate(-51.556 -191.992)" fill="#fff"/>
          <path id="Path_3097" data-name="Path 3097" d="M192.179,192.111l-1.027,6.358h1.641l1.031-6.358Z" transform="translate(-184.001 -191.992)" fill="#fff"/>
          <path id="Path_3098" data-name="Path 3098" d="M246.54,192.462c-.577-.29-.929-.487-.929-.785.008-.27.3-.548.945-.548a2.82,2.82,0,0,1,1.223.241l.147.07.225-1.375a4.084,4.084,0,0,0-1.473-.27c-1.624,0-2.766.867-2.774,2.1-.012.912.818,1.42,1.44,1.726s.851.516.851.79c-.008.426-.516.622-.986.622a3.278,3.278,0,0,1-1.542-.339l-.217-.1-.229,1.428a5.019,5.019,0,0,0,1.833.34c1.726,0,2.852-.851,2.864-2.168C247.927,193.468,247.485,192.916,246.54,192.462Z" transform="translate(-233.403 -189.794)" fill="#fff"/>
        </g>
      </g>
    </g>
  </g>
</svg>
