<svg xmlns="http://www.w3.org/2000/svg" width="33.862" height="20.332" viewBox="0 0 33.862 20.332">
  <g id="card_x2C__credit_x2C__vector_x2C__Maestro_x2C_" transform="translate(-22.674 -110.42)">
    <g id="Group_352" data-name="Group 352" transform="translate(22.674 110.42)">
      <path id="Path_2978" data-name="Path 2978" d="M237.221,190.214l.522-.011.522-.043.5-.063.5-.085.5-.117.479-.139.479-.159.458-.181.458-.2.436-.223.426-.245.415-.266.394-.287.384-.3.372-.33.351-.33.34-.362.319-.362.308-.383.277-.4.266-.415.245-.426.223-.436.2-.447.182-.468.17-.468.127-.49.117-.489.1-.5.053-.511.043-.522.021-.522-.021-.522-.043-.511-.053-.511-.1-.5-.117-.49-.127-.479-.17-.468-.182-.458-.2-.447-.223-.447-.245-.425-.266-.4-.277-.4-.308-.383-.319-.362-.34-.362-.351-.329-.372-.319-.384-.308-.394-.277-.415-.266-.426-.244-.436-.224-.458-.2-.458-.181-.479-.159-.479-.138-.5-.117-.5-.086-.5-.063-.522-.043-.522-.011-.533.011-.51.043-.511.063-.5.086-.49.117-.489.138-.469.159-.468.181-.448.2-.436.224-.426.244-.415.266-.394.277-.383.308-.372.319-.351.329-.341.362-.319.362-.3.383-.288.4-.255.4-.246.425-.223.447-.2.447-.181.458-.17.468-.128.479-.116.49-.086.5-.064.511-.042.511-.01.522.01.522.042.522.064.511.086.5.116.489.128.49.17.468.181.468.2.447.223.436.246.426.255.415.288.4.3.383.319.362.341.362.351.33.372.33.383.3.394.287.415.266.426.245.436.223.448.2.468.181.469.159.489.139.49.117.5.085.511.063.51.043Z" transform="translate(-213.546 -169.882)" fill="#eb2230" fill-rule="evenodd"/>
      <path id="Path_2979" data-name="Path 2979" d="M122.809,190.214l.521-.011.522-.043.5-.063.5-.085.5-.117.479-.139.479-.159.458-.181.447-.2.436-.223.426-.245.414-.266.4-.287.384-.3.362-.33.361-.33.33-.362.319-.362.3-.383.288-.4.266-.415.244-.426.224-.436.2-.447.181-.468.159-.468.128-.49.117-.489.1-.5.064-.511.032-.522.022-.522-.022-.522-.032-.511-.064-.511-.1-.5-.117-.49-.128-.479-.159-.468-.181-.458-.2-.447-.224-.447-.244-.425-.266-.4-.288-.4-.3-.383-.319-.362-.33-.362-.361-.329-.362-.319-.384-.308-.4-.277-.414-.266-.426-.244-.436-.224-.447-.2-.458-.181-.479-.159-.479-.138-.5-.117-.5-.086-.5-.063-.522-.043-.521-.011-.533.011-.51.043-.511.063-.5.086-.49.117-.49.138-.468.159-.468.181-.447.2-.436.224-.436.244-.4.266-.4.277-.383.308-.373.319-.351.329-.33.362-.33.362-.3.383-.287.4-.266.4-.245.425-.223.447-.2.447-.181.458-.16.468-.138.479-.118.49-.085.5-.063.511-.043.511-.011.522.011.522.043.522.063.511.085.5.118.489.138.49.16.468.181.468.2.447.223.436.245.426.266.415.287.4.3.383.33.362.33.362.351.33.373.33.383.3.4.287.4.266.436.245.436.223.447.2.468.181.468.159.49.139.49.117.5.085.511.063.51.043Z" transform="translate(-112.621 -169.882)" fill="#0b84c4" fill-rule="evenodd"/>
      <path id="Path_2980" data-name="Path 2980" d="M245.453,198.4H250.6v-.564h-4.663Z" transform="translate(-229.772 -194.537)" fill="#eb2230" fill-rule="evenodd"/>
      <path id="Path_2981" data-name="Path 2981" d="M238.6,208.592h5.961v-.564h-5.61Z" transform="translate(-223.725 -203.525)" fill="#eb2230" fill-rule="evenodd"/>
      <path id="Path_2982" data-name="Path 2982" d="M233.451,218.962h6.568V218.4h-6.29Z" transform="translate(-219.187 -212.671)" fill="#eb2230" fill-rule="evenodd"/>
      <path id="Path_2983" data-name="Path 2983" d="M230.117,229.154h6.962v-.564h-6.792Z" transform="translate(-216.247 -221.66)" fill="#eb2230" fill-rule="evenodd"/>
      <path id="Path_2984" data-name="Path 2984" d="M227.863,239.35h7.228v-.575H227.97Z" transform="translate(-214.259 -230.642)" fill="#eb2230" fill-rule="evenodd"/>
      <path id="Path_2985" data-name="Path 2985" d="M227.1,259.179h7.281v-.564h-7.323Z" transform="translate(-213.546 -248.14)" fill="#eb2230" fill-rule="evenodd"/>
      <path id="Path_2986" data-name="Path 2986" d="M228.148,269.925h7.1v-.575h-7.207Z" transform="translate(-214.416 -257.608)" fill="#eb2230" fill-rule="evenodd"/>
      <path id="Path_2987" data-name="Path 2987" d="M230.56,278.668h6.759v-.575h-6.93Z" transform="translate(-216.487 -265.319)" fill="#eb2230" fill-rule="evenodd"/>
      <path id="Path_2988" data-name="Path 2988" d="M234.172,289.309h6.248v-.575h-6.515Z" transform="translate(-219.588 -274.704)" fill="#eb2230" fill-rule="evenodd"/>
      <path id="Path_2989" data-name="Path 2989" d="M239.522,300.118h5.514v-.564h-5.9Z" transform="translate(-224.204 -284.246)" fill="#eb2230" fill-rule="evenodd"/>
      <path id="Path_2990" data-name="Path 2990" d="M246.312,310.489h4.556v-.565h-5.056Z" transform="translate(-230.088 -293.392)" fill="#eb2230" fill-rule="evenodd"/>
      <path id="Path_2991" data-name="Path 2991" d="M385.213,305.808l.032-.1.054-.085.064-.074.074-.054.074-.053.1-.021.1-.011.1.011.1.021.084.053.075.054.063.074.043.085.033.1h-.108l-.02-.064-.032-.075-.054-.063-.052-.043-.064-.032-.075-.032h-.159l-.086.032-.063.032-.064.043-.043.063-.032.075-.021.064Z" transform="translate(-353.034 -289.415)" fill="#eb2230" fill-rule="evenodd"/>
      <path id="Path_2992" data-name="Path 2992" d="M387.924,307.8v-.128h.191l.043.011h.032l.032.01.032.011.021.021.011.022.01.021v.032h-.085v-.021l-.011-.011-.01-.011-.011-.01-.011-.011h-.021l-.011-.011h-.127v.075Z" transform="translate(-355.425 -291.403)" fill="#eb2230" fill-rule="evenodd"/>
      <path id="Path_2993" data-name="Path 2993" d="M385.213,308.838v-.085h.107l-.011.01v.075Z" transform="translate(-353.034 -292.359)" fill="#eb2230" fill-rule="evenodd"/>
      <path id="Path_2994" data-name="Path 2994" d="M387.924,308.838v-.085h.085v.064h.159l.022-.011h.01l.011-.021v-.032h.085v.053l-.01.021-.011.011Z" transform="translate(-355.425 -292.359)" fill="#eb2230" fill-rule="evenodd"/>
      <path id="Path_2995" data-name="Path 2995" d="M392.619,308.838l-.012-.075v-.01h.108l.01.085Z" transform="translate(-359.555 -292.359)" fill="#eb2230" fill-rule="evenodd"/>
      <path id="Path_2996" data-name="Path 2996" d="M385.137,309.475l-.01.01.01.107.032.1.054.075.064.074.074.054.074.042.1.032.1.011.1-.011.1-.032.084-.042.075-.054.063-.074.043-.075.033-.1.01-.107v-.01h-.106v.01l-.012.1-.02.075-.032.074-.054.053-.052.053-.064.032-.075.032h-.159l-.086-.032-.063-.032-.064-.053-.043-.053-.032-.074-.032-.075v-.106Z" transform="translate(-352.958 -292.996)" fill="#eb2230" fill-rule="evenodd"/>
      <path id="Path_2997" data-name="Path 2997" d="M387.924,309.475v.2h.085v-.17h.085l.106.17h.086l-.128-.17h.064l.021-.011.021-.021h-.341Z" transform="translate(-355.425 -292.996)" fill="#eb2230" fill-rule="evenodd"/>
      <path id="Path_2998" data-name="Path 2998" d="M264.362,239.7l-.064-.01h-.074l-.053-.011-.063-.01-.065-.011-.053-.011-.064-.01-.074-.011h-.064l-.074-.011-.086-.01h-.3l-.128.01-.127.011-.1.011-.1.021-.085.032-.075.032-.063.032-.064.042-.043.043-.042.042-.032.064-.022.053-.01.053v.064l.021.064.021.064.032.064.054.064.1.085.106.063.138.064.138.053.16.043.149.053.159.064.16.064.138.074.138.1.117.128.107.148.074.181.053.213.011.255-.011.3-.043.224-.052.2-.086.181-.1.16-.106.138-.127.117-.139.106-.148.1-.149.074-.16.053-.159.054-.17.031-.16.033-.16.01-.159.011-.149.01h-.2l-.192-.01h-.329l-.138-.011-.128-.01h-.117l-.106-.022-.107-.011-.1-.021-.086-.01-.084-.022-.075-.032-.085-.021-.085-.032-.085-.021.213-1.054.042.011.064.021.063.011.086.021.084.021.1.022.118.021.106.021.128.011.116.021.138.011.128.01.138.011h.426l.138-.032.106-.032.086-.053.064-.064.052-.064.032-.074.032-.075.022-.074.01-.074v-.075l-.021-.064-.021-.053-.043-.053-.042-.043-.053-.042-.064-.043-.075-.031-.075-.043-.084-.032-.085-.032-.085-.032-.1-.042-.1-.032-.1-.043-.1-.042-.1-.043-.085-.053-.1-.053-.084-.053-.086-.064-.074-.075-.064-.074-.064-.085-.064-.1-.042-.106-.042-.107-.022-.127-.021-.128v-.149l.011-.159.01-.1.01-.1.012-.085.02-.085.022-.085.021-.085.032-.074.032-.085.031-.064.043-.075.043-.063.042-.064.054-.054.053-.063.053-.054.064-.042.064-.053.074-.043.074-.042.086-.032.084-.043.086-.032.1-.021.1-.032.107-.021.116-.021.106-.011.128-.021.128-.011h.128l.138-.011h.479l.149.011h.128l.117.011.106.01.1.011h.085l.075.011.074.01.064.011.052.011h.043l.043.01.042.011h.032Z" transform="translate(-242.891 -230.403)" fill="#fff" fill-rule="evenodd"/>
      <path id="Path_2999" data-name="Path 2999" d="M296.87,229.668h1.341l-.2,1.161h.819l-.181,1.074-.852-.021-.437,2.662-.011.053v.053l.011.043.011.042.02.032.022.032.032.032.032.021.042.022.043.01.043.011.042.01.053.011h.053l.064.011h.16l.1-.011.084-.011.075-.021.053-.01.043-.022.031-.01h.012l-.139.9-.032.021-.043.021-.032.011-.042.021-.032.011-.042.01-.043.022-.042.01-.043.011-.054.01-.052.011-.064.011-.064.011-.064.01-.085.011-.075.01h-.362l-.191-.021-.17-.01-.15-.033-.127-.031-.117-.043-.085-.053-.085-.053-.064-.064-.042-.074-.043-.075-.021-.085-.01-.1-.012-.1.012-.107.01-.106.01-.117Z" transform="translate(-274.302 -222.61)" fill="#fff" fill-rule="evenodd"/>
      <path id="Path_3000" data-name="Path 3000" d="M186.317,243.009l-.192,1.064h-1.2l.012-.106.02-.1.011-.1.011-.075.01-.074.011-.064.021-.043.011-.021-.064.074-.085.075-.085.074-.106.064-.107.064-.116.064-.128.053-.138.042-.138.043-.138.043-.14.021-.138.021-.138.011-.138.01-.138-.01-.128-.021-.17-.043-.148-.053-.139-.064-.117-.074-.106-.075-.1-.085-.075-.1-.074-.1-.053-.1-.042-.106-.043-.107-.032-.106-.011-.117-.021-.106V242.8l-.011-.106.022-.181.021-.181.043-.17.063-.159.085-.149.086-.139.106-.138.106-.117.128-.106.128-.107.138-.085.148-.074.15-.075.159-.053.159-.031.16-.032h.032l.042-.011h.042l.064-.011.064-.01.075-.011h.075l.084-.011.074-.01h.086l.085-.011.075-.011h.628l.053.011h.17l.011-.032.031-.074.012-.1v-.149l-.012-.053-.02-.053-.022-.053-.032-.043-.032-.042-.032-.043-.042-.042-.042-.032-.043-.022-.053-.032-.043-.021-.053-.021L184.88,240l-.053-.01-.053-.011h-.288l-.148.011-.149.01-.159.011-.149.01-.16.022-.149.01-.138.022-.138.021-.128.021-.117.032-.1.021-.1.032-.064.022-.053.031.34-1.138.107-.043.106-.043L183.4,239l.117-.032.117-.032.117-.011.128-.021.127-.011.138-.01h.139l.138-.011h.447l.17.011h.16l.138.01.148.022.15.032.148.053.149.053.149.064.138.085.138.1.118.107.116.117.1.127.064.149.053.149.032.17.011.181-.032.2Z" transform="translate(-173.777 -230.724)" fill="#fff" fill-rule="evenodd"/>
      <path id="Path_3001" data-name="Path 3001" d="M196.3,262.658v-.021l-.022-.021-.032-.011-.042-.01-.064-.011h-.276l-.086.011-.074.01-.074.011-.075.021-.075.011-.052.01-.054.022-.032.01-.042.011-.043.021-.063.021-.054.022-.064.032-.063.032-.065.042-.063.043-.053.053-.064.053-.042.053-.054.064-.032.074-.02.075-.022.085-.011.159.033.128.031.1.064.074.074.053.075.032.084.021h.224l.138-.01.118-.032.106-.021.106-.043.085-.032.085-.053.064-.043.064-.053.064-.063.042-.054.042-.053.032-.053.022-.053.021-.053.021-.053.011-.075.021-.074.011-.085.021-.086.011-.074.011-.074.021-.075Z" transform="translate(-184.914 -251.641)" fill="#0b84c4" fill-rule="evenodd"/>
      <path id="Path_3002" data-name="Path 3002" d="M123.672,235.959h-1.309l1.1-6.291h2.278l.224,3.736,1.544-3.736h2.362l-1.107,6.291h-1.3l.82-4.716h-.054l-1.937,4.716h-1.469l-.011-.2-.032-.522-.043-.745-.053-.852-.043-.862-.043-.756-.032-.543-.01-.234H124.5Z" transform="translate(-121.213 -222.61)" fill="#fff" fill-rule="evenodd"/>
      <path id="Path_3003" data-name="Path 3003" d="M318.4,244.154h1.353l.468-2.725.021-.107.022-.1.032-.107.032-.1.031-.1.053-.1.054-.085.064-.085.074-.074.085-.064.106-.064.117-.053.128-.042.148-.033.171-.021.191-.01h.032l.032.01h.064l.021.011h0l.011-.021.01-.064.012-.085.031-.107.032-.127.032-.128.053-.138.042-.128.043-.1.043-.086.042-.085.042-.085.044-.074.032-.053.02-.043.011-.01h-.011l-.01-.011h-.022l-.042-.011h-.032l-.032-.01h-.074l-.149.01-.128.011-.127.032-.118.032-.106.032-.1.053-.1.053-.075.053-.084.064-.086.064-.064.074-.074.085-.074.085-.064.085-.074.1-.064.1.159-.862-1.362-.011Z" transform="translate(-294.104 -230.805)" fill="#fff" fill-rule="evenodd"/>
      <path id="Path_3004" data-name="Path 3004" d="M349.612,239.3l.084.085.075.085.074.1a3.02,3.02,0,0,1,.064,3.151,2.847,2.847,0,0,1-2.5,1.3c-1.821-.01-2.757-1.905-2.172-3.683l.054-.128a2.791,2.791,0,0,1,4.322-.9Z" transform="translate(-317.623 -230.517)" fill="#fff" fill-rule="evenodd"/>
      <path id="Path_3005" data-name="Path 3005" d="M385.127,280.8h.394v.043h-.149v.329h-.085v-.329h-.16Z" transform="translate(-352.958 -267.704)" fill="#fff" fill-rule="evenodd"/>
      <path id="Path_3006" data-name="Path 3006" d="M388.91,280.8h.118l.138.287h0l.138-.287h.128v.372h-.1v-.287h0l-.128.287h-.074l-.138-.287h0v.287h-.086Z" transform="translate(-356.294 -267.704)" fill="#fff" fill-rule="evenodd"/>
      <path id="Path_3007" data-name="Path 3007" d="M360.676,250.622a2.09,2.09,0,0,0,.063-1.8.8.8,0,0,0-1.107-.181,1.87,1.87,0,0,0-.713,1.735c.1,1.256,1.363,1.149,1.757.244Z" transform="translate(-329.837 -239.221)" fill="#eb2230" fill-rule="evenodd"/>
      <path id="Path_3008" data-name="Path 3008" d="M227.253,241.682c.159-.841.533-2.907-1.906-2.907a2.643,2.643,0,0,0-2.6,2.6,2.251,2.251,0,0,0,2.364,2.6,6.359,6.359,0,0,0,1.83-.223l.234-1.075a7.573,7.573,0,0,1-1.607.159c-.532,0-1.447,0-1.3-1.149h2.98Z" transform="translate(-209.731 -230.642)" fill="#fff" fill-rule="evenodd"/>
      <path id="Path_3009" data-name="Path 3009" d="M235.8,247.981h1.756c.2-1.384-1.48-1.118-1.756,0Z" transform="translate(-221.263 -237.932)" fill="#0b84c4" fill-rule="evenodd"/>
    </g>
  </g>
</svg>
