<svg xmlns="http://www.w3.org/2000/svg" width="20.4" height="20.4" viewBox="0 0 20.4 20.4"><defs><style>.a{fill:#34b872;}</style></defs><path class="a" d="M13.575,3.375a10.2,10.2,0,1,0,10.2,10.2A10.2,10.2,0,0,0,13.575,3.375Zm5.223,7.38-6.556,6.586h0a.886.886,0,0,1-.569.27.858.858,0,0,1-.574-.28L8.347,14.585a.2.2,0,0,1,0-.28l.873-.873a.19.19,0,0,1,.275,0l2.177,2.177,5.983-6.027a.194.194,0,0,1,.137-.059h0a.178.178,0,0,1,.137.059l.858.888A.193.193,0,0,1,18.8,10.755Z" transform="translate(-3.375 -3.375)"/></svg>