<svg xmlns="http://www.w3.org/2000/svg" width="20.116" height="20.116" viewBox="0 0 20.116 20.116">
  <g id="Icon_ionic-ios-close-circle-outline" data-name="Icon ionic-ios-close-circle-outline" transform="translate(-3.375 -3.375)">
    <path id="Path_2215" data-name="Path 2215" d="M19.88,18.785l-2.548-2.548,2.548-2.548A.773.773,0,0,0,18.787,12.6l-2.548,2.548L13.69,12.6A.773.773,0,0,0,12.6,13.689l2.548,2.548L12.6,18.785a.747.747,0,0,0,0,1.093.768.768,0,0,0,1.093,0l2.548-2.548,2.548,2.548a.776.776,0,0,0,1.093,0A.768.768,0,0,0,19.88,18.785Z" transform="translate(-2.806 -2.804)" fill="#c1c1c1"/>
    <path id="Path_2216" data-name="Path 2216" d="M13.433,4.729A8.7,8.7,0,1,1,7.277,7.277a8.646,8.646,0,0,1,6.156-2.548m0-1.354A10.058,10.058,0,1,0,23.491,13.433,10.056,10.056,0,0,0,13.433,3.375Z" fill="#c1c1c1"/>
  </g>
</svg>
