<svg xmlns="http://www.w3.org/2000/svg" width="21.65" height="19.028" viewBox="0 0 21.65 19.028"><defs><style>.a{fill:#c1c1c1;}</style></defs><g transform="translate(12 -31)"><g transform="translate(0 31)"><path class="a" d="M12.728,48.76H8.922a.634.634,0,0,0,0,1.269h3.806a.634.634,0,0,0,0-1.269ZM18.4,36.121A4.446,4.446,0,0,0,14,32.269a4.381,4.381,0,0,0-1.274.19A5.649,5.649,0,0,0,8.922,31a5.717,5.717,0,0,0-5.679,5.122,3.8,3.8,0,0,0,.6,7.564h4.44v3.171a.634.634,0,0,0,.634.634h3.806a.634.634,0,0,0,.634-.634V43.686H17.8a3.8,3.8,0,0,0,.6-7.565ZM12.728,39.88a.634.634,0,0,0-.634.634v5.708H9.556V40.514a.634.634,0,0,0-.634-.634H8.288L10.825,36.5l2.537,3.383ZM17.8,42.417h-4.44V41.148h1.269a.634.634,0,0,0,.507-1.015L11.332,35.06a.657.657,0,0,0-1.015,0L6.512,40.134a.634.634,0,0,0,.507,1.015H8.288v1.269H3.848a2.537,2.537,0,1,1,0-5.074.634.634,0,0,0,.634-.634,4.433,4.433,0,0,1,7.627-3.081.636.636,0,0,0,.695.146,3.163,3.163,0,0,1,4.364,2.935.634.634,0,0,0,.634.634,2.537,2.537,0,1,1,0,5.074Z" transform="translate(-12 -31)"/></g></g></svg>