<svg xmlns="http://www.w3.org/2000/svg" xmlns:xlink="http://www.w3.org/1999/xlink" width="131.551" height="86.482" viewBox="0 0 131.551 86.482"><defs><style>.a,.m{fill:#6c63ff;}.a,.d,.k{opacity:0.1;}.b{fill:url(#a);}.c{fill:#65617d;}.e{fill:#a5636d;}.f{fill:#e7effd;}.g{fill:#3f3d56;}.h{fill:#5f5d7e;}.i{fill:#2dbdca;}.j{fill:#4c3e42;}.l{fill:#e6e8ec;}.n{fill:#444053;}.o{opacity:0.7;}.p{fill:url(#b);}.q{fill:#fbbebe;}.r{opacity:0.05;}.s{fill:none;}.t{fill:#f7cddd;}.u{fill:#7c5c5c;}.v{fill:#3acc6c;}.w{opacity:0.5;}</style><linearGradient id="a" x1="0.5" y1="1" x2="0.5" gradientUnits="objectBoundingBox"><stop offset="0" stop-color="gray" stop-opacity="0.251"/><stop offset="0.54" stop-color="gray" stop-opacity="0.122"/><stop offset="1" stop-color="gray" stop-opacity="0.102"/></linearGradient><linearGradient id="b" x1="0.5" y1="1" x2="0.5" y2="0" xlink:href="#a"/></defs><g transform="translate(0.05 -0.017)"><path class="a" d="M147.381,143.221q-.616.541-1.259,1.052c-.072.058-.147.114-.22.174a44.217,44.217,0,0,1-4.808,3.248l-.313.182c-.076.046-.15.088-.229.131-1.747,1.008-3.559,1.937-5.393,2.816l-.019.01L135,150.9q-2.218,1.063-4.5,2.035l-.037.014q-1.03.434-2.061.845c-.28.114-.562.221-.844.33-.53.2-1.061.4-1.6.593l-.066.025-.114.04-.143.053q-2.1.749-4.248,1.383l-.025.007q-1.5.437-3.021.809l-.139.034c-1.488.359-3,.669-4.522.916l-.35.056q-1.669.262-3.361.428a82.944,82.944,0,0,1-19.059-.74,136.309,136.309,0,0,1-36.733-10.035q-3.3-1.46-6.465-3.125c-.017-.009-.032-.018-.049-.026q-1.9-1-3.742-2.078c-.361-.208-.719-.421-1.075-.635q-.657-.4-1.308-.8-.859-.536-1.717-1.1l-.268-.179-.1-.07c-.145-.1-.288-.195-.433-.293-5.38-3.663-10.178-8.1-12.444-13.658-2.619-6.411-.943-14.538,5.544-18.327a25.771,25.771,0,0,1,7.441-2.6l.268-.06c.443-.1.886-.191,1.327-.285,1.544-.327,3.1-.652,4.634-1.015h0c.8-.189,1.595-.387,2.383-.6l.323-.089a38.586,38.586,0,0,0,5.565-1.96h.011q.29-.129.572-.267c.121-.057.243-.114.364-.177A21.563,21.563,0,0,0,60.6,96.438c.127-.128.251-.259.371-.389.093-.1.184-.2.272-.308a7.822,7.822,0,0,0,2.027-4.262h0a5.494,5.494,0,0,0-.069-1.537c-.18-.96-.354-1.9-.482-2.817a14.437,14.437,0,0,1,.011-4.958h0a9.332,9.332,0,0,1,2.565-4.688q.331-.343.713-.687a15.028,15.028,0,0,1,3.964-2.5l.539-.229c4.016-1.626,8.841-1.964,13.349-1.74a72.822,72.822,0,0,1,12.507,1.74c.326.073.652.15.976.229a86.7,86.7,0,0,1,10.3,3.186,127.908,127.908,0,0,1,24.706,12.894l.229.149q.483.315.96.632.924.612,1.832,1.233l.409.278q.3.206.6.413L137,93.5h0a.674.674,0,0,1,.082.058l.522.362c.3.211.6.422.9.635h0l.646.458c.134.1.269.191.4.288l.687.5.153.114c.032.023.064.046.1.071l.019.013c1.861,1.366,3.678,2.782,5.38,4.282l.22.195.023.021c.185.165.371.332.553.5a37.269,37.269,0,0,1,5.843,6.6C160,118.7,157.783,134.078,147.381,143.221Z" transform="translate(-25.44 -72.24)"/><path class="b" d="M847.686,229.218c.073-.2-.474-1.3-.474-1.36s-.572-.67-.572-1.015-.748-1.087-.748-1.087a1.9,1.9,0,0,1-1.115-1.323c-.11-.906-1.163-.925-1.2-.926,0,0,0-.082.007-.208a3.029,3.029,0,0,0-.135-1.06,1.076,1.076,0,0,0-.62-.528,2.39,2.39,0,0,0-.33-.924,1.04,1.04,0,0,1-.254-.98,1.3,1.3,0,0,0-.143-.846.866.866,0,0,0-.533-.5h-.019c-.524-.127-1.112-.322-1.112-.322s-.06.011-.148.024l-.073-.024a3.278,3.278,0,0,1-.382.048.475.475,0,0,1-.31-.1,6.29,6.29,0,0,0-1.936-.58,4.6,4.6,0,0,1-1.06-.363l-.784-.6a5,5,0,0,1-.687-.948l-.009-.013h0a3.133,3.133,0,0,1-.144-.4c-.008-.025-.014-.05-.022-.078h0a4.362,4.362,0,0,0,.436-.536v-.006c.036-.049.069-.1.1-.155q.072-.114.137-.237c.018-.035.036-.072.054-.106a.459.459,0,0,0,.115-.019l.049-.018a.581.581,0,0,0,.126-.079l.037-.033a.893.893,0,0,0,.229-.351c.013-.039.024-.079.033-.114a.168.168,0,0,1,.01-.041c0-.013.013-.055.017-.084l.007-.046a.47.47,0,0,1,.014-.081.158.158,0,0,0,0-.047c0-.033.009-.069.013-.1.016-.129.03-.256.057-.382a.011.011,0,0,0,0-.006,2.926,2.926,0,0,1,.27-.7c.115-.221.24-.438.343-.666h0c.03-.065.058-.132.084-.2s.05-.147.073-.221a.31.31,0,0,1,.016-.068,1.6,1.6,0,0,0,.037-.164.6.6,0,0,0,.014-.072c.014-.076.023-.151.03-.229a2.807,2.807,0,0,0-.188-1.274c-.136-.343-.343-.647-.48-.987-.209-.516-.264-1.1-.521-1.592a1.9,1.9,0,0,0-2.275-.926c-.4.147-.741.434-1.145.563a3.785,3.785,0,0,1-1.675-.036,2.082,2.082,0,0,0-1.626.28c-.516.42-.658,1.21-1.145,1.67a2.631,2.631,0,0,1-.381.286c-.1.068-.2.134-.291.211a1.085,1.085,0,0,0-.338.458.366.366,0,0,0-.013.039.348.348,0,0,0-.013.047.464.464,0,0,1-.008.054.2.2,0,0,0,0,.038.663.663,0,0,0,0,.082h0v.014a.524.524,0,0,0,.015.092v.025a.466.466,0,0,0,.023.076.051.051,0,0,1,0,.015.834.834,0,0,0,.033.082.135.135,0,0,0,.016.041.15.15,0,0,1,.016.034,2.171,2.171,0,0,1,.169.42.477.477,0,0,1-.017.279.446.446,0,0,1-.073.122,1.518,1.518,0,0,1-.128.142,3.789,3.789,0,0,0-.825,1.32c-.021.056-.04.114-.058.171h0l.024.007.024.006a.8.8,0,0,0,.136.029.834.834,0,0,0,.092.01,1.419,1.419,0,0,0,.373-.03.559.559,0,0,0,.061-.014h0l.018-.006h.011a1.983,1.983,0,0,0,.3-.1c.023-.01.047-.019.07-.031v.426a4.308,4.308,0,0,0,2.193,3.5c.065.038.13.073.2.106.006.039.012.079.016.114s.009.065.013.1l-.05-.047a.333.333,0,0,0-.136-.027.437.437,0,0,0-.218.056.8.8,0,0,0-.285.278,2.029,2.029,0,0,1-.9.687s-3.32.525-3.45.96l-1.552.092s-.548.072-.6,1.215v.026c-.008.136-.018.258-.031.366v.016c-.1.761-.314.843-.314.843a4.333,4.333,0,0,0-.585,1.7.052.052,0,0,1,0,.014h0a.747.747,0,0,1-.015.235,1.03,1.03,0,0,1-.479.617l-.072,1.03a.7.7,0,0,0-.767.617,2.443,2.443,0,0,1-.458,1.03s-1,.835-1.059,1.541l-.622.381s-1.441-.326-1.771-.907c0,0-.039-.039-.1-.1l-.009-.014a.021.021,0,0,0,0,.007,5.049,5.049,0,0,0-.6-.532.447.447,0,0,1,.03.293l-.108-.114-.287-.321s-.411-.385-.989-.844h0q-.2-.158-.418-.323a5.929,5.929,0,0,0-2.29-1.188c-.014-.027-.069-.235-.2-.235a.218.218,0,0,0-.142.07,1.9,1.9,0,0,0-.013,2.793l.15.14.465.435,1.568,1.465c.02.014.038.029.057.041l.093.114.072.093.125.159.18.229c-.009.024-.02.047-.028.07-.068.165-.126.325-.174.472v.016c-.011.037-.023.071-.033.105a.143.143,0,0,1-.011.035c-.011.034-.021.069-.031.1a.48.48,0,0,0-.016.06.347.347,0,0,1-.011.035c-.052.182-.084.322-.1.4l-.121-.038.115.052a.129.129,0,0,1,0,.019l-.007.037c.036.017.073.033.115.049l.026.011.449.2h0c.09.04.189.082.294.131s.187.084.288.127h0a26.307,26.307,0,0,1,2.932,1.422,2.308,2.308,0,0,0,2.484.343,2.615,2.615,0,0,0,1.331-1.47,15.25,15.25,0,0,0,1.1-1.685c.027-.167.517-.356.744-.435l.022-.007.092-.03v.277a14.049,14.049,0,0,1-.167,2.428.016.016,0,0,0,0,.007,2.64,2.64,0,0,1-.182.607,41.969,41.969,0,0,0-1.2,4.824h.018a.531.531,0,0,1,.137-.007c-.016.073-.026.13-.034.169s-.011.058-.011.058h.014a.526.526,0,0,1,.133-.008.276.276,0,0,1,.045.006.71.71,0,0,1-.011.082v.029s-.007.035-.009.055c-.095.655-.37,2.359-.37,2.359a5.393,5.393,0,0,1-.293,1.268,3.143,3.143,0,0,0-.153.916c0,.057-.008.114-.013.174-.03.485-.034.94-.034.94l-.008.03-.269,1.22c0,.011.009.022.015.033h0c.019.037.05.1.1.177h0l.014.03a3.406,3.406,0,0,0,.634.893,1.639,1.639,0,0,0,.192.164h0a.2.2,0,0,1-.008.04c0,.011-.007.044-.01.064a1.855,1.855,0,0,1-.129.458,1.53,1.53,0,0,0-.132.5h0a2.3,2.3,0,0,0-.011.371l-.015.068h0c-.04.187-.155.734-.216,1.179-.015.1-.029.2-.037.292a1.393,1.393,0,0,0,0,.255,2.094,2.094,0,0,1-.023.428.965.965,0,0,1-.015.126c-.062.4-.164.825-.164.825l-.328,3.154v.187a.358.358,0,0,1-.007.082c0,.074-.011.163-.019.266a1.013,1.013,0,0,1-.007.114.6.6,0,0,1-.007.109v.06a.536.536,0,0,1-.006.09.441.441,0,0,0,0,.087v.081c-.01.168-.022.35-.03.535v.176a1.317,1.317,0,0,1-.008.176v1.165a3.363,3.363,0,0,0,.027.364c.013.089.022.183.026.279v.133q0,.033,0,.066v.513c-.029.394-.083.713-.09.764h0v.108c0,.029.007.065.01.105v.057h0a.223.223,0,0,0,.007.066c.007.023,0,.022,0,.034,0,.041.007.084.011.128s.01.093.014.141l.007.09c0,.043.009.089.013.134v.046c0,.031.007.061.009.093l.01.141c0,.031.007.063.009.094a.315.315,0,0,1,0,.048l.015.185a.491.491,0,0,0,.006.092,1.429,1.429,0,0,0,.011.143c0,.046,0,.105.008.153a.988.988,0,0,1,.007.14,1.945,1.945,0,0,1,0,.388c-.03.13-.126.5-.181.892,0,.036-.01.071-.014.108a.389.389,0,0,0,0,.064l-.007.086c0,.069-.008.139-.008.206a1.587,1.587,0,0,0,.052.458,2.173,2.173,0,0,1,.057.3.155.155,0,0,0,.006.05c0,.037.008.074.011.114s.006.078.008.114c0,.08.007.163.01.246v.166c.008.483-.015.956-.022,1.077v.03s.115,2.032.237,2.683c.016.086.027.173.036.262a.593.593,0,0,0,.006.1,5.108,5.108,0,0,1-.078,1.126,12.375,12.375,0,0,1-.182,1.4.893.893,0,0,0-.164.54v.009a1.763,1.763,0,0,0,.6,1.355l.055.054.066-.025c.536-.191,1.067-.39,1.6-.593.282-.109.563-.218.844-.33q1.039-.411,2.061-.845h0a.131.131,0,0,1-.065-.082,3.725,3.725,0,0,1,.084-1.277c.032-.133.328-2.957.328-2.957a3.657,3.657,0,0,1,.037-1.267,6.049,6.049,0,0,0-.183-1.851.327.327,0,0,1,.092-.4,8.059,8.059,0,0,0,.128-2.158s-.018-.98-.018-1.234a4.526,4.526,0,0,1,.419-1.488,2.917,2.917,0,0,0,.074-1.271h0l.011-.073a.736.736,0,0,1,.016-.1l.017-.1a13.477,13.477,0,0,1,.355-1.574c.238-.761.512-2.1.512-2.1l1.6-4.282h0l.053-.133.019-.053a6.958,6.958,0,0,1,.784,2.793,16.171,16.171,0,0,1,.148,2.049,24.689,24.689,0,0,0,.164,2.484s.236,2.939.236,3.064a17.851,17.851,0,0,0,.476,2.73,2.412,2.412,0,0,1-.292,1.505,23.3,23.3,0,0,0,.037,2.775s-.276,2.1-.33,2.538c-.01.079-.026.2-.043.343,1.832-.879,3.646-1.808,5.393-2.816l.229-.13.013-2.6a6.575,6.575,0,0,0-.018-1.706c-.146-.491-.292-1.431-.09-1.685s.018-1.432.018-1.432a14.487,14.487,0,0,1,.274-3.1,27.152,27.152,0,0,0,.183-4.515l.072-2.557s.583-.552.458-3.41v-.1a4.8,4.8,0,0,1,1.463.026,2.914,2.914,0,0,0,1.913.616h0a.93.93,0,0,0,.35-.145,10.293,10.293,0,0,0,.916-.707l-.291-4.891h0l-.031-.544c.055.084.1.158.144.229.115.174.177.28.177.28,0-.761,2.156-3.227,2.156-3.227a35.19,35.19,0,0,1,2.446-2.9,9.263,9.263,0,0,0,1.3-1.94,7.9,7.9,0,0,1,.438-.907C848.273,230.289,847.613,229.417,847.686,229.218Zm-6.428,3.481a1.136,1.136,0,0,1-.243.489c-.009-.114-.018-.221-.027-.335v-.03a37.158,37.158,0,0,1-.2-3.715,4.411,4.411,0,0,0,.076-.936h0c.008-.438,0-.856,0-.856h0l.021-.029a9.147,9.147,0,0,0,1.512,2.479s.2.58.438.6.145.761.145.761a.863.863,0,0,0-.311.114,2.732,2.732,0,0,0-.323.219h0A3.558,3.558,0,0,0,841.258,232.7Z" transform="translate(-720.844 -190.202)"/><path class="c" d="M837,398.85s.666-3.491,2.807-3.51l1.566,3.221-1.053.715A9.8,9.8,0,0,1,837,398.85Z" transform="translate(-744.142 -358.339)"/><path class="d" d="M841.368,398.583l-1.048.72a12.378,12.378,0,0,1-2.736-.229,3.128,3.128,0,0,1-.584-.2.212.212,0,0,1,.011-.056.086.086,0,0,1,0-.014,7.94,7.94,0,0,1,.405-1.282c.065-.157.141-.318.221-.48A3.277,3.277,0,0,1,839,395.557a1.858,1.858,0,0,1,.713-.187h.1l.036.071.529,1.089Z" transform="translate(-744.142 -358.365)"/><path class="c" d="M1017.817,472.879a12.04,12.04,0,0,1,2.447-.054c.2.161,1.475.99,2.232.468s.252-2.34.252-2.412-.072-2.646-.072-2.646l-1.35-1.818-1.692-3.185-3.455-.343.089,5.057-.017,2.592Z" transform="translate(-902.81 -418.156)"/><path class="d" d="M1017.817,472.879a12.04,12.04,0,0,1,2.447-.054c.2.161,1.475.99,2.232.468s.252-2.34.252-2.412-.072-2.646-.072-2.646l-1.35-1.818-1.692-3.185-3.455-.343.089,5.057-.017,2.592Z" transform="translate(-902.81 -418.156)"/><path class="e" d="M817.856,368.886s-.177,2.2-1.551,2.23a10.757,10.757,0,0,1-.909-.624c-1.2-.9-3.108-2.627-2.581-4.236.755-2.3,4.427,1.946,4.427,1.946l.283.316Z" transform="translate(-722.645 -331.979)"/><path class="d" d="M837.635,391.66s-.177,2.2-1.551,2.23a10.757,10.757,0,0,1-.909-.624l-.115-.15a1.789,1.789,0,0,0,.75.2,1,1,0,0,0,.979-.617,7.961,7.961,0,0,0,.379-.871,2.626,2.626,0,0,0,.137-.54Z" transform="translate(-742.424 -354.753)"/><path class="f" d="M837.873,394.229l-.308-.4-1.03-1.334-.535-.681a1.787,1.787,0,0,0,.749.2,1,1,0,0,0,.979-.617,7.743,7.743,0,0,0,.379-.871c.171-.485.167-.735.106-.82a5.514,5.514,0,0,1,.6.529l.008.007.1.094.038.073.521,1.043v.043C839.521,391.832,839.7,393.932,837.873,394.229Z" transform="translate(-743.256 -353.345)"/><path class="g" d="M902.9,518.107a.526.526,0,0,0-.108-.071h-.009c-.215-.09-.018-1.207.018-1.351s.324-2.928.324-2.928a3.792,3.792,0,0,1,.037-1.259,6.147,6.147,0,0,0-.181-1.832.336.336,0,0,1,.09-.4,8.274,8.274,0,0,0,.126-2.142s-.017-.971-.017-1.224a4.465,4.465,0,0,1,.413-1.476,2.875,2.875,0,0,0,.072-1.259h0l.01-.073c.006-.026.01-.061.016-.1l.017-.1a.478.478,0,0,1,.013-.073c.01-.057.022-.114.034-.188.007-.041.015-.085.024-.128.026-.137.057-.289.09-.443.01-.048.022-.1.033-.145s.027-.114.042-.174c.009-.035.017-.07.027-.105.026-.105.055-.207.086-.3.229-.757.5-2.088.5-2.088l1.672-4.393.019-.053.053.1h0a6.739,6.739,0,0,1,.72,2.668,15.859,15.859,0,0,1,.144,2.033,24.1,24.1,0,0,0,.162,2.466s.229,2.915.229,3.04a17.986,17.986,0,0,0,.468,2.718,2.373,2.373,0,0,1-.288,1.488,22.973,22.973,0,0,0,.037,2.754s-.27,2.087-.325,2.518c-.011.1-.034.276-.058.488l.138-.065.02-.01c1.832-.879,3.646-1.807,5.393-2.816l.015-2.76a6.614,6.614,0,0,0-.017-1.692c-.143-.485-.289-1.422-.092-1.675s.02-1.421.02-1.421a14.507,14.507,0,0,1,.269-3.077,27.2,27.2,0,0,0,.181-4.482l.071-2.537s.587-.56.449-3.481c-.015-.311-.038-.649-.07-1.018-.1-1.1-.2-2.1-.292-2.965-.008-.074-.016-.148-.024-.219-.009-.1-.021-.191-.03-.284-.022-.2-.042-.383-.063-.562-.007-.053-.013-.1-.018-.156q-.045-.385-.084-.71c-.009-.085-.021-.168-.03-.247-.015-.115-.029-.229-.041-.335a.594.594,0,0,0-.01-.076.96.96,0,0,0-.016-.132c-.059-.467-.095-.722-.095-.722h-.016l-1.81.016-3.95.038h-.116l-2.061.02H905l-.989.01h-.168l-2.061.019h-.125l-.846,3.487-1.727,3.96s-.026.434-.087.857v.025a.082.082,0,0,1-.007.041.3.3,0,0,0-.01.064,2.225,2.225,0,0,1-.145.56,1.4,1.4,0,0,0-.115.395,2.312,2.312,0,0,0-.026.438h0v.024s-.137.624-.218,1.155c-.015.1-.029.2-.037.292a1.846,1.846,0,0,0-.016.335,1.9,1.9,0,0,1-.013.343.967.967,0,0,1-.015.126c-.056.421-.169.893-.169.893l-.325,3.132s0,.007,0,.01v.13a.358.358,0,0,1-.007.082c0,.074-.011.163-.019.266a1.013,1.013,0,0,1-.007.114.6.6,0,0,1-.007.109v.06a.525.525,0,0,1-.006.09.441.441,0,0,0,0,.087v.081c-.009.168-.021.35-.029.535v.176a1.336,1.336,0,0,1-.008.176v1.174a3.08,3.08,0,0,0,.027.382c.011.085.021.172.026.261v.712c-.029.394-.082.713-.09.763h0v.108c0,.029.007.065.01.105v.057h0a.223.223,0,0,0,.007.066c.007.023,0,.022,0,.034,0,.041.007.084.011.128s.009.093.014.141l.007.09c0,.044.009.089.013.134v.046c0,.031.007.061.009.093l.01.141c0,.031.007.063.009.094v.048l.015.185a.492.492,0,0,0,.006.092c0,.048.007.1.011.143s0,.105.008.153a.969.969,0,0,1,.007.14,2.01,2.01,0,0,1,0,.375,8.763,8.763,0,0,0-.178.9c0,.035-.01.071-.014.108a.389.389,0,0,0,0,.064l-.007.086c0,.069-.008.138-.008.206a1.574,1.574,0,0,0,.052.432,2.44,2.44,0,0,1,.063.38c.009.073.015.151.02.229s.007.163.01.246v.166c.007.544-.023,1.064-.023,1.064a.085.085,0,0,0,0,.014v.009c.011.229.114,2.034.229,2.641a2.747,2.747,0,0,1,.04.325.58.58,0,0,0,.006.1,5.248,5.248,0,0,1-.081,1.052,12.567,12.567,0,0,1-.222,1.4.977.977,0,0,0-.161.626v.009a1.779,1.779,0,0,0,.594,1.259l.128.128c.536-.191,1.067-.39,1.6-.593.282-.109.563-.218.844-.33q1.039-.411,2.061-.845Z" transform="translate(-797.84 -437.416)"/><path class="e" d="M979.032,281.876l-2.664,2.845s-3.418-1.374-3.059-1.832a2.667,2.667,0,0,0,.037-1.383c-.126-1-.4-2.145-.4-2.145s5.974-.972,5.47.037a1.653,1.653,0,0,0-.038,1.2A4.535,4.535,0,0,0,979.032,281.876Z" transform="translate(-864.529 -255.263)"/><path class="d" d="M978.42,279.36c-.183.367-.271.4-.157.8a4.425,4.425,0,0,1-3.01,1.755,4.263,4.263,0,0,1-1.907-.446c-.126-1-.4-2.145-.4-2.145S978.924,278.352,978.42,279.36Z" transform="translate(-864.529 -255.23)"/><path class="e" d="M964.217,233.485a4.284,4.284,0,1,1-8.567,0v-.062a4.283,4.283,0,1,1,8.567.062Z" transform="translate(-849.21 -211.191)"/><path class="d" d="M942.708,495.343c-.572,0-2.457.021-4.568.054h-.026l-.7.011H937.4c-2.5.04-4.97-.449-5.961-.356-2.106.2.756-1.946.756-1.946a17.629,17.629,0,0,0,4.8.485l.606-.032a25.758,25.758,0,0,0,4.841-.589C942.5,493.529,942.605,494.338,942.708,495.343Z" transform="translate(-827.081 -444.793)"/><path class="h" d="M942.708,494.4c-.572,0-2.457.019-4.568.054h-.026l-.7.011H937.4c-2.5.04-4.97-.449-5.961-.356-2.106.2.756-1.946.756-1.946a17.6,17.6,0,0,0,4.8.484l.606-.031a25.849,25.849,0,0,0,4.841-.59C942.5,492.589,942.605,493.4,942.708,494.4Z" transform="translate(-827.081 -443.96)"/><path class="d" d="M937.626,309.97l-3.312,1.548-2.554,19.756s1.511-.687,2.375-.252,3.527.037,3.527.037a7.951,7.951,0,0,1,2.231.108c.285.222,3.672-.9,3.672-.9s.611-1.368.143-1.583.144-2.343.144-2.343l-.287-14.253-.572-1.832-1.548-.935-1.583,1.259-.755.109Z" transform="translate(-828.055 -282.166)"/><path class="f" d="M937.626,308.094l-3.311,1.548L931.76,329.4s1.511-.687,2.375-.252,3.527.035,3.527.035a8.221,8.221,0,0,1,2.231.108c.285.215,3.672-.9,3.672-.9s.611-1.367.143-1.583.144-2.34.144-2.34l-.287-14.253-.572-1.832-1.548-.936-1.583,1.259-.755.108Z" transform="translate(-828.055 -280.51)"/><path class="d" d="M962.668,318.869s.955,1.133.936,1.368-.054.791-.054.791l-.714,1.458s-.4,1.818-.4,2.2-.63,3.653-.63,3.653l-.755,5.037-.955,6.605.972,1.674,1.152-.972,1.528-11.768.324-2.322s.343-4.175.343-4.606a14.719,14.719,0,0,0-.2-1.566,1.844,1.844,0,0,1,1.207-1.331c.972-.252-.072-.055-.072-.055l-.557-.45-.486.2S962.956,318.365,962.668,318.869Z" transform="translate(-853.15 -290.366)"/><path class="i" d="M961.674,317.928s.954,1.133.937,1.367-.055.792-.055.792l-.72,1.458s-.4,1.817-.4,2.194-.63,3.654-.63,3.654l-.757,5.037-.953,6.6.972,1.674,1.151-.972,1.528-11.767.324-2.322s.343-4.175.343-4.608a14.645,14.645,0,0,0-.2-1.565,1.83,1.83,0,0,1,1.205-1.332c.976-.252-.071-.054-.071-.054l-.559-.45-.485.2S961.963,317.424,961.674,317.928Z" transform="translate(-852.265 -289.533)"/><path class="d" d="M970.52,303.65s-.144.108-.18.828a14.37,14.37,0,0,1-.54,2.34s1.872-1.3,2.808-1.152Z" transform="translate(-861.74 -277.145)"/><path class="f" d="M970.52,301.76s-.144.109-.18.828a14.4,14.4,0,0,1-.54,2.34s1.872-1.3,2.808-1.152Z" transform="translate(-861.74 -275.471)"/><path class="d" d="M997.947,298.62,995,301.212a30.612,30.612,0,0,1,2.808,1.832c.324.356.648-3.527.648-3.527Z" transform="translate(-884.055 -272.691)"/><path class="f" d="M998.851,296.73l-2.951,2.592a30.6,30.6,0,0,1,2.807,1.832c.324.356.648-3.528.648-3.528Z" transform="translate(-884.852 -271.017)"/><path class="d" d="M910.586,303.439s-.324-.163-.63.306a2.049,2.049,0,0,1-.881.687s-3.276.522-3.4.954l-1.529.089s-.54.065-.591,1.21-.343,1.241-.343,1.241a4.266,4.266,0,0,0-.572,1.692.938.938,0,0,1-.487.864l2.254,5.843a10.929,10.929,0,0,1-.344,3.293,41.613,41.613,0,0,0-1.188,4.787s.324-.072.306.144-.4,2.573-.4,2.573a5.18,5.18,0,0,1-.287,1.259,9.174,9.174,0,0,0-.2,2.016l-.3,1.224s.687,1.529,1.729,1.313,2.933-4.3,2.933-4.3l1.205-4.408.936-4.356.27-2.951.432-6.533.63-4.319S910.841,303.744,910.586,303.439Z" transform="translate(-801.701 -276.934)"/><path class="c" d="M909.684,301.552s-.324-.161-.63.307a2.049,2.049,0,0,1-.883.687s-3.275.522-3.4.954l-1.529.09s-.54.072-.594,1.205-.344,1.242-.344,1.242a4.285,4.285,0,0,0-.572,1.692.937.937,0,0,1-.485.863l2.246,5.845a10.924,10.924,0,0,1-.343,3.293,41.56,41.56,0,0,0-1.187,4.787s.324-.072.306.144-.4,2.573-.4,2.573a5.18,5.18,0,0,1-.287,1.259,9.173,9.173,0,0,0-.2,2.016l-.286,1.229s.687,1.529,1.727,1.314,2.934-4.3,2.934-4.3l1.205-4.408.936-4.35.269-2.951.433-6.532.63-4.319S909.936,301.859,909.684,301.552Z" transform="translate(-800.904 -275.263)"/><path class="d" d="M840.5,397.7l-1.049.72a12.376,12.376,0,0,1-2.736-.229l-.581-.258-.115-.052.12.038a2.375,2.375,0,0,0,1.44.051c1.478-.5,1.314-2.936,1.259-3.488a.493.493,0,0,0-.011-.1.032.032,0,0,1,0-.007l.009.014a.657.657,0,0,0,.068.1.789.789,0,0,0,.066.07h0l.521,1.043v.043Z" transform="translate(-743.274 -357.48)"/><path class="c" d="M844.95,362l-.5.144-.072,1.03a.692.692,0,0,0-.756.612,2.5,2.5,0,0,1-.45,1.03s-.99.828-1.044,1.529l-.612.378s-1.422-.324-1.746-.9c0,0,.648,4.643-2.807,3.51,0,0,3.869,1.692,4.049,1.925a2.274,2.274,0,0,0,2.448.343,2.6,2.6,0,0,0,1.314-1.476,15.035,15.035,0,0,0,1.079-1.674c.035-.216.846-.468.846-.468l1.548-3.742Z" transform="translate(-744.107 -328.815)"/><path class="d" d="M1014.357,299.105l.522-2.375a2.7,2.7,0,0,0,.468.954c.239.18.774.594.774.594a4.5,4.5,0,0,0,1.043.361,6.279,6.279,0,0,1,1.908.572c.18.195.9.054.9.054s.594.2,1.116.324.774.99.665,1.331a1.041,1.041,0,0,0,.252.972,2.3,2.3,0,0,1,.324.916,1.056,1.056,0,0,1,.612.522,3.63,3.63,0,0,1,.126,1.259l-2.681,3.778a11.032,11.032,0,0,1-.072,1.781c-.108.324.378,5.831.378,5.831l.557,9.466a9.961,9.961,0,0,1-.9.7,22.5,22.5,0,0,1-.324-3.473c0-.126-4.157-6.227-4.157-6.227a5.582,5.582,0,0,1-.559-1.1c0-.2-.522-2.015-.522-2.015l-.789-3.5Z" transform="translate(-900.88 -271.017)"/><path class="c" d="M1024.947,304.353c0,.124-.007.206-.007.206l-2.68,3.778h0a11.005,11.005,0,0,1-.071,1.782c-.063.188.074,2.125.2,3.715.09,1.145.176,2.115.176,2.115l.236,4.016.321,5.451a10.08,10.08,0,0,1-.9.7,22.651,22.651,0,0,1-.324-3.474c0-.127-4.16-6.229-4.16-6.229a5.6,5.6,0,0,1-.557-1.1c0-.2-.522-2.016-.522-2.016l-.791-3.509.359-10.726.306-2.375a5.082,5.082,0,0,0,.687.954c.237.179.773.594.773.594a4.489,4.489,0,0,0,1.044.361,6.278,6.278,0,0,1,1.908.572c.181.195.9.054.9.054s.593.2,1.115.324.774.99.666,1.331a1.036,1.036,0,0,0,.252.972,2.32,2.32,0,0,1,.324.916,1.059,1.059,0,0,1,.612.522A3.1,3.1,0,0,1,1024.947,304.353Z" transform="translate(-902.536 -270.982)"/><path class="d" d="M905.54,782.741c-.28.115-.562.221-.844.33-.883-.258-1.707-.561-1.707-.561A23.451,23.451,0,0,1,905.54,782.741Z" transform="translate(-802.578 -701.188)"/><path class="d" d="M999.67,700.6s2.142.5,2.268.846Z" transform="translate(-888.191 -628.655)"/><path class="d" d="M923.59,714.12s-1.116.324-.036.972S923.59,714.12,923.59,714.12Z" transform="translate(-820.371 -640.627)"/><path class="d" d="M970.74,559.647c.126,0,2.088-.648,2.771-.359a4.548,4.548,0,0,0,1.531.287Z" transform="translate(-862.572 -503.453)"/><path class="d" d="M953.253,573.314l-.02.179-1.678,4.389s-.27,1.331-.5,2.087a13.65,13.65,0,0,0-.35,1.563l1.488-9.211Z" transform="translate(-844.826 -515.059)"/><path class="g" d="M987.048,499.035l-.7.011h-.022l-.409-1.814c.2-.009.4-.019.605-.032Z" transform="translate(-876.015 -448.539)"/><path class="e" d="M1013.932,480.646l-.448.37-1.491,1.233s-4.049,2.16-5.164.108c-.983-1.808,3.607-3.1,4.713-3.379.15-.038.236-.057.236-.057Z" transform="translate(-894.409 -432.351)"/><path class="d" d="M918.87,339.49s.791.361.971.864S918.87,339.49,918.87,339.49Z" transform="translate(-816.64 -308.882)"/><path class="d" d="M891.312,386.66s-1.152,1.4-.687,1.946S891.312,386.66,891.312,386.66Z" transform="translate(-791.531 -350.652)"/><path class="d" d="M1068.7,346.41s-1.08.108-1.116,1.044Z" transform="translate(-948.326 -315.01)"/><path class="d" d="M989.92,448.439c.115-.108,2.592-3.778,3.167-3.455Z" transform="translate(-879.557 -402.283)"/><path class="d" d="M964.217,233.52a4.267,4.267,0,0,1-.507,2.022h-.032c-.271-.057-.412-.373-.619-.572a.844.844,0,0,0-.972-.136.986.986,0,0,0-.477.924c-.137-.572-.094-1.189-.229-1.766s-.537-1.162-1.089-1.172c-.238,0-.515.088-.687-.09-.1-.108-.125-.277-.2-.408-.4-.638-1.595-.315-2.085.013a12.8,12.8,0,0,1-1.668,1.13,4.283,4.283,0,1,1,8.567.062Z" transform="translate(-849.21 -211.226)"/><path class="j" d="M950.929,214.319c.078.13.1.3.2.408.172.177.449.086.687.09.552.009.955.594,1.089,1.171s.09,1.191.229,1.766a.985.985,0,0,1,.477-.923.841.841,0,0,1,.971.136c.207.2.343.513.62.572s.533-.2.632-.49a7.737,7.737,0,0,0,.155-.9,11.965,11.965,0,0,1,.687-1.556,2.817,2.817,0,0,0-.018-2.01c-.135-.343-.335-.642-.473-.98-.206-.513-.261-1.091-.513-1.58a1.858,1.858,0,0,0-2.241-.916c-.391.148-.731.433-1.129.56a3.728,3.728,0,0,1-1.651-.034,2.042,2.042,0,0,0-1.6.278c-.509.417-.649,1.2-1.128,1.658-.2.192-.451.315-.663.492a.908.908,0,0,0-.371.73c.032.373.4.712.262,1.057a.836.836,0,0,1-.2.263,3.778,3.778,0,0,0-.871,1.482c.964.3,2.005-.761,2.76-1.259C949.336,214,950.535,213.68,950.929,214.319Z" transform="translate(-840.735 -193.337)"/><path class="d" d="M1050.875,480.637l-.448.37a13.144,13.144,0,0,0-2.017-1.972l.07-.068c.15-.038.236-.057.236-.057Z" transform="translate(-931.351 -432.342)"/><path class="f" d="M1052.14,475.538s-.161.4-.328.747-.343.661-.357.405c-.018-.5-2.105-2.2-2.105-2.2l.283-.275.329-.319Z" transform="translate(-932.183 -427.906)"/><path class="d" d="M1052.345,448.62l.236,4.016c-.559-.869-2.094-3.1-3.081-3.026l2.394-2.747a3.051,3.051,0,0,0,.275-.353C1052.259,447.652,1052.345,448.62,1052.345,448.62Z" transform="translate(-932.316 -403.651)"/><path class="d" d="M1054.362,475.538s-.161.4-.327.747a5.727,5.727,0,0,0-2.175-2.066l.328-.319Z" transform="translate(-934.406 -427.906)"/><path class="c" d="M1054.913,361l.648.5s1.08.018,1.187.916a1.879,1.879,0,0,0,1.1,1.314s.738.737.738,1.079.557.954.557,1.007.54,1.152.468,1.35.573,1.062.378,1.386a7.964,7.964,0,0,0-.431.9,9.1,9.1,0,0,1-1.279,1.925,34.344,34.344,0,0,0-2.411,2.879s-2.123,2.447-2.123,3.205c0,0-2.07-3.456-3.293-3.366l2.394-2.753s.413-.45.432-.72a3.527,3.527,0,0,1,1.692-1.566s.089-.738-.144-.756-.432-.594-.432-.594-1.584-1.872-1.6-3.06S1054.913,361,1054.913,361Z" transform="translate(-933.157 -327.93)"/><path class="d" d="M1088.226,376s-1.512,1.115-1.188,1.476S1088.226,376,1088.226,376Z" transform="translate(-965.517 -341.213)"/><path class="d" d="M1098.4,413.117s2.807-.9,3.091,0Z" transform="translate(-975.618 -373.726)"/><path class="d" d="M921.91,374.08s0,4.1-.351,4.508S921.91,374.08,921.91,374.08Z" transform="translate(-818.934 -339.513)"/><path class="d" d="M1067.11,385.63l.522,1.466S1067.839,385.657,1067.11,385.63Z" transform="translate(-947.91 -349.74)"/><g class="k" transform="translate(105.349 19.13)"><path d="M953.544,240.25c.132-.338-.213-.669-.259-1.03a.688.688,0,0,0-.057.325c.023.274.229.528.278.781a.45.45,0,0,0,.038-.076Z" transform="translate(-952.413 -239.22)"/><path d="M953.219,252.9c-.129-.572-.092-1.169-.222-1.735s-.537-1.163-1.089-1.172c-.238,0-.515.087-.687-.09-.1-.108-.125-.277-.2-.408-.394-.638-1.594-.315-2.085.013-.736.489-1.747,1.512-2.691,1.281-.045.109-.087.219-.122.332.964.3,2.006-.761,2.76-1.259.491-.326,1.69-.65,2.084-.011.078.131.1.3.2.408.172.177.449.086.687.09.552.009.955.594,1.089,1.171s.09,1.191.229,1.766A.976.976,0,0,1,953.219,252.9Z" transform="translate(-946.12 -247.998)"/><path d="M1010.877,273.754c-.1.286-.355.548-.632.49s-.412-.373-.619-.572a.845.845,0,0,0-.972-.135.979.979,0,0,0-.477.871.94.94,0,0,1,.424-.521.841.841,0,0,1,.971.136c.207.2.344.513.62.572s.533-.2.632-.49a2.521,2.521,0,0,0,.1-.517A1.619,1.619,0,0,1,1010.877,273.754Z" transform="translate(-1001.072 -269.523)"/><path d="M1033.44,251.688a10.515,10.515,0,0,0-.687,1.555c-.025.114-.039.229-.053.343a11.879,11.879,0,0,1,.687-1.55,2.714,2.714,0,0,0,.166-.746A2.593,2.593,0,0,1,1033.44,251.688Z" transform="translate(-1022.789 -249.908)"/></g><circle class="l" cx="0.045" cy="0.045" r="0.045" transform="translate(89.948 33.851)"/><path class="m" d="M497.7,583.558a2.86,2.86,0,0,1,2.568-.343s-.366.776-1.992.766Z" transform="translate(-443.683 -524.545)"/><path class="m" d="M495.92,588.09a2.867,2.867,0,0,0,.687,2.5s.572-.641-.077-2.133Z" transform="translate(-442.06 -529.024)"/><path class="m" d="M481.75,568.2s.047-1.279,2.942-.966a1.374,1.374,0,0,1-.95,1.251A1.662,1.662,0,0,1,481.75,568.2Z" transform="translate(-429.559 -510.508)"/><path class="m" d="M476.036,576s-1.2.437-.014,3.1a1.37,1.37,0,0,0,.9-1.29A1.671,1.671,0,0,0,476.036,576Z" transform="translate(-424.022 -518.318)"/><path class="m" d="M465.322,545.362s-.245-2.091,2.706-1.99c0,0,.282,1.891-2.167,2.474Z" transform="translate(-415.007 -489.422)"/><path class="m" d="M447.58,526.1s.313-2.394,3.281-1.8c0,0,.089,2.061-2.779,2.346Z" transform="translate(-399.3 -472.453)"/><path class="m" d="M434.35,505.48s.586-2.347,3.527-1.759a3.363,3.363,0,0,1-3.32,2.175Z" transform="translate(-387.585 -454.229)"/><path class="m" d="M421.76,484.573a2.645,2.645,0,0,1,3.408-1.814,3.434,3.434,0,0,1-3.205,2.217Z" transform="translate(-376.436 -435.662)"/><path class="m" d="M413.39,460.667s.395-2.957,3.046-2.41c0,0-.659,2.7-2.834,2.83Z" transform="translate(-369.024 -413.994)"/><path class="m" d="M405.35,437.938s.5-2.987,3.18-2.227c0,0-.933,2.84-2.976,2.633Z" transform="translate(-361.904 -393.979)"/><path class="m" d="M400.08,410.8s.854-3,2.91-3c0,0-.87,3.167-2.715,3.586Z" transform="translate(-357.238 -369.372)"/><path class="m" d="M396.45,385.968s.916-3.607,2.6-3.4a7.073,7.073,0,0,1-2.518,3.949Z" transform="translate(-354.023 -347.024)"/><path class="m" d="M393.86,361.672s.872-3.011,2.518-3.192c0,0-.56,2.95-2.451,3.962Z" transform="translate(-351.73 -325.698)"/><path class="m" d="M391.19,337.991s1.116-3.022,2.2-3.131c0,0-.422,2.95-2.077,3.615Z" transform="translate(-349.365 -304.782)"/><path class="m" d="M389.13,312.09s.633-3.261,1.71-3.57c0,0-.047,2.649-1.591,3.807Z" transform="translate(-347.541 -281.457)"/><path class="m" d="M384.42,286.882s.7-2.607,1.564-3.032c0,0-.058,3.043-1.335,3.654Z" transform="translate(-343.37 -259.611)"/><path class="m" d="M378.124,255.977l-.334-4.537s1.776,3.366.482,5.33Z" transform="translate(-337.499 -230.912)"/><path class="m" d="M355.683,225.415a25.248,25.248,0,0,0-1.6-3.444,6.819,6.819,0,0,1,2.289,4.839Z" transform="translate(-316.504 -204.815)"/><path class="m" d="M449.7,560.65s-2.1-.192-1.922,2.754c0,0,1.9.229,2.42-2.228Z" transform="translate(-399.468 -504.723)"/><path class="m" d="M430.233,540.08s-2.412.085-2.1,3.091c0,0,2.038.284,2.6-2.544Z" transform="translate(-382.055 -486.51)"/><path class="m" d="M406.918,520.307s-2.229-.943-3.528,1.759a3.37,3.37,0,0,0,3.738-1.339Z" transform="translate(-360.169 -468.859)"/><path class="m" d="M394.261,498.133a2.644,2.644,0,0,0-3.5,1.632,3.435,3.435,0,0,0,3.7-1.229Z" transform="translate(-348.985 -449.198)"/><path class="m" d="M383.667,473.956s-2.236-1.978-3.877.172c0,0,2.269,1.611,3.994.283Z" transform="translate(-339.27 -427.22)"/><path class="m" d="M376.425,449.037s-2.252-2.025-3.875.245c0,0,2.5,1.636,3.969.193Z" transform="translate(-332.859 -405.153)"/><path class="m" d="M373.238,417.592s-1.773-2.567-3.718-1.9c0,0,1.841,2.72,3.723,2.518Z" transform="translate(-330.176 -376.26)"/><path class="m" d="M370.7,391.286s-1.812-3.251-3.383-2.615a7.082,7.082,0,0,0,3.448,3.17Z" transform="translate(-328.228 -352.36)"/><path class="m" d="M368.191,367.82s-1.832-2.542-3.441-2.161c0,0,1.516,2.591,3.638,2.91Z" transform="translate(-325.952 -332.021)"/><path class="m" d="M373.067,339.5s-1.454-2.876-2.547-2.862c0,0,.757,2.882,2.475,3.355Z" transform="translate(-331.062 -306.358)"/><path class="m" d="M368.487,316.927s-1.6-2.908-2.727-2.87c0,0,.861,2.506,2.687,3.133Z" transform="translate(-326.846 -286.36)"/><path class="m" d="M369.984,291.322s-1.21-2.411-2.144-2.652c0,0,.672,2.968,2.047,3.308Z" transform="translate(-328.688 -263.88)"/><path class="m" d="M359.1,261.7l-2.64-3.7s.783,3.723,3.031,4.413Z" transform="translate(-318.611 -236.721)"/><path class="m" d="M339.281,237.838a24.957,24.957,0,0,1-3.091-2.208s1.587,2.747,4.339,3.135Z" transform="translate(-300.661 -216.911)"/><path class="m" d="M328.11,223.633s-3.45-3.071-4.3-3.036a5.439,5.439,0,0,1,4.373,2.862Z" transform="translate(-289.699 -203.6)"/><path class="n" d="M363.24,253.021l-.121.021c-.813-4.871-1.832-7.729-2.879-8.047l.036-.114C361.382,245.214,362.407,248.031,363.24,253.021Z" transform="translate(-321.958 -225.103)"/><path class="n" d="M386.559,324.871l-.182.023c-.056-.458-.1-.923-.142-1.387-.33-4.045-.743-7.756-1.205-10.532l.1-.135c.458,2.781.958,6.6,1.289,10.646C386.456,323.954,386.5,324.42,386.559,324.871Z" transform="translate(-343.911 -285.283)"/><path class="n" d="M411.53,436.917a23.872,23.872,0,0,1-6.792-4.636,26.6,26.6,0,0,1-5.088-6.653,31.031,31.031,0,0,1-3.22-10.678l.195.082A28.146,28.146,0,0,0,404.9,432.1a23.686,23.686,0,0,0,6.72,4.594Z" transform="translate(-354.006 -375.704)"/><g class="o" transform="translate(50.519 11.444)"><path class="m" d="M548.25,573.236a2.866,2.866,0,0,1,2.553.434s-.58.633-2.129.139Z" transform="translate(-538.965 -527.201)"/><path class="m" d="M543.942,574.25a2.866,2.866,0,0,0-.085,2.589s.736-.443.561-2.06Z" transform="translate(-534.823 -528.212)"/><path class="m" d="M536.46,554.168s.426-1.208,3.091-.047a1.379,1.379,0,0,1-1.28.916A1.654,1.654,0,0,1,536.46,554.168Z" transform="translate(-528.525 -509.941)"/><path class="m" d="M527.318,558s-1.279.061-.934,2.952a1.374,1.374,0,0,0,1.24-.964A1.662,1.662,0,0,0,527.318,558Z" transform="translate(-519.55 -513.822)"/><path class="m" d="M525.35,528.513s.389-2.07,3.175-1.094c0,0-.294,1.889-2.8,1.717Z" transform="translate(-518.686 -486.511)"/><path class="m" d="M514.34,504.983s1.011-2.192,3.663-.739c0,0-.525,1.988-3.351,1.411Z" transform="translate(-508.937 -465.779)"/><path class="m" d="M507.93,481.835s1.259-2.066,3.892-.631a3.369,3.369,0,0,1-3.817,1.094Z" transform="translate(-503.261 -445.369)"/><path class="m" d="M502,458.018a2.644,2.644,0,0,1,3.795-.719,3.436,3.436,0,0,1-3.723,1.163Z" transform="translate(-498.009 -424.214)"/><path class="m" d="M499.83,432.654s1.259-2.707,3.622-1.394c0,0-1.434,2.385-3.549,1.858Z" transform="translate(-496.088 -401.272)"/><path class="m" d="M499.2,408.473s1.362-2.7,3.7-1.179c0,0-1.737,2.434-3.627,1.622Z" transform="translate(-495.53 -379.955)"/><path class="m" d="M500.76,382.317s1.708-2.61,3.67-2c0,0-1.773,2.766-3.663,2.617Z" transform="translate(-496.911 -356.4)"/><path class="m" d="M503.058,356.833s1.946-3.172,3.489-2.469a7.083,7.083,0,0,1-3.577,3.021Z" transform="translate(-498.868 -333.407)"/><path class="m" d="M507.707,333.193s1.729-2.613,3.352-2.3c0,0-1.411,2.65-3.519,3.054Z" transform="translate(-502.915 -312.691)"/><path class="m" d="M513.452,309.17s1.965-2.554,3.036-2.334c0,0-1.281,2.69-3.058,2.834Z" transform="translate(-508.131 -291.398)"/><path class="m" d="M518.35,282.8s1.574-2.925,2.7-2.9c0,0-.833,2.518-2.654,3.162Z" transform="translate(-512.488 -267.556)"/><path class="m" d="M522.6,256.99s1.44-2.28,2.395-2.43c0,0-.962,2.888-2.362,3.091Z" transform="translate(-516.251 -245.118)"/><path class="m" d="M524.072,222.019l1.03-4.429s.695,3.74-1.122,5.235Z" transform="translate(-517.473 -212.38)"/><path class="m" d="M520.407,186.156a25.033,25.033,0,0,0-.507-3.766s1.686,2.686.744,5.3Z" transform="translate(-513.86 -181.21)"/><path class="m" d="M504.184,537.846s-1.946-.809-2.654,2.061c0,0,1.741.789,2.976-1.407Z" transform="translate(-497.593 -495.882)"/><path class="m" d="M491.065,513.206s-2.327-.637-2.925,2.331c0,0,1.86.878,3.237-1.655Z" transform="translate(-485.736 -474.106)"/><path class="m" d="M477.182,488.063s-1.846-1.564-3.892.631a3.369,3.369,0,0,0,3.967-.167Z" transform="translate(-472.586 -451.413)"/><path class="m" d="M471.927,462.846a2.642,2.642,0,0,0-3.827.52,3.434,3.434,0,0,0,3.9-.074Z" transform="translate(-467.99 -429.033)"/><path class="m" d="M470.892,435.25s-1.547-2.554-3.752-.99c0,0,1.686,2.214,3.728,1.458Z" transform="translate(-467.14 -403.798)"/><path class="m" d="M471.178,409.4s-1.548-2.6-3.778-.916c0,0,1.9,2.307,3.732,1.366Z" transform="translate(-467.37 -380.917)"/><path class="m" d="M479.743,375.65s-.928-2.976-2.983-2.925c0,0,.949,3.146,2.8,3.518Z" transform="translate(-475.659 -349.756)"/><path class="m" d="M485.222,349.571s-.763-3.643-2.452-3.5a7.077,7.077,0,0,0,2.349,4.051Z" transform="translate(-480.981 -326.149)"/><path class="m" d="M489.9,326.091s-.993-2.976-2.643-3.091c0,0,.678,2.926,2.608,3.861Z" transform="translate(-484.957 -305.724)"/><path class="m" d="M503.047,300.268s-.532-3.178-1.581-3.488c0,0-.135,2.976,1.366,3.94Z" transform="translate(-497.533 -282.505)"/><path class="m" d="M505.469,277.359s-.667-3.253-1.749-3.549c0,0,.076,2.648,1.633,3.79Z" transform="translate(-499.533 -262.165)"/><path class="m" d="M514.307,253.332s-.438-2.661-1.259-3.172c0,0-.242,3.035.97,3.768Z" transform="translate(-507.775 -241.222)"/><path class="m" d="M512.684,221.831l-1.418-4.321s-.361,3.788,1.581,5.116Z" transform="translate(-506.191 -212.309)"/><path class="m" d="M501.1,193.139a24.477,24.477,0,0,1-2.289-3.029s.7,3.091,3.205,4.284Z" transform="translate(-495.185 -188.046)"/><path class="m" d="M494.6,176.258s-2.38-3.96-3.205-4.178a5.429,5.429,0,0,1,3.32,4.034Z" transform="translate(-488.614 -172.08)"/><path class="n" d="M519.156,214.828l-.121-.017c.673-4.891.547-7.925-.355-8.54l.07-.1C519.706,206.821,519.847,209.814,519.156,214.828Z" transform="translate(-512.78 -202.268)"/><path class="n" d="M502.521,290.506l-.181-.033c.082-.452.175-.916.278-1.367.888-3.96,1.6-7.625,1.982-10.417l.136-.1c-.385,2.792-1.049,6.587-1.939,10.551C502.7,289.6,502.6,290.056,502.521,290.506Z" transform="translate(-498.311 -266.397)"/><path class="n" d="M506.451,404.7a23.846,23.846,0,0,1-5.1-6.446,26.566,26.566,0,0,1-2.884-7.867,31.069,31.069,0,0,1,.1-11.152l.161.136a28.147,28.147,0,0,0,2.824,18.753,23.609,23.609,0,0,0,5.049,6.384Z" transform="translate(-494.473 -355.526)"/></g><path class="p" d="M117.174,332.821a4.346,4.346,0,0,1-.835.25,8.383,8.383,0,0,1-1.514.143c.015.134.026.259.038.372.027.311.044.525.044.525l-.537-.037-4.428-.3-2.589-.383a4.823,4.823,0,0,0,.406.477,2.142,2.142,0,0,0,.517.4,17.083,17.083,0,0,0,2.74,1.909c.057,0,.076.057.066.148.983,0,4.041.143,3.193,1.845a1.356,1.356,0,0,1-.695.677c-.981.416-2.461-.332-3.224-.791-.074.145-.145.28-.208.4-.129.244-.22.405-.22.405l-.077-.055-3.929-2.8-.861-.73a3,3,0,0,1-.745-.129h0l-.114-.037a.219.219,0,0,0-.013.031,1.6,1.6,0,0,0-.07.275v.041a3.216,3.216,0,0,0-.032.322c0,.073-.006.151-.006.229a21.573,21.573,0,0,0,.618,4.065s1.62,4.131,1.045,5.085h0a.429.429,0,0,1-.114.124,1.137,1.137,0,0,0-.387.718,7.273,7.273,0,0,0,.161,2.556s-.034.057-.093.146a4.427,4.427,0,0,1-.426.572c-.024.027-.049.056-.076.082a2,2,0,0,1-.229.206c.015.045.031.09.047.14s.037.126.053.195a2.791,2.791,0,0,1-.143,1.684,4.639,4.639,0,0,0-.288,1.21h0a9.257,9.257,0,0,0,.058,2.278c-.017-.009-.032-.018-.049-.026q-1.9-.993-3.744-2.073c-.361-.208-.719-.421-1.075-.635q-.657-.4-1.308-.8-.859-.536-1.717-1.1l-.268-.179-.1-.07c-.145-.1-.288-.195-.433-.293a21.983,21.983,0,0,1-1.619-2.4c-.081-.145-.155-.284-.215-.411v-.007l-.039-.084-.161-.057h0c-.3-.107-.5-.181-.5-.181h0a5.616,5.616,0,0,0,.2-1.568,4.749,4.749,0,0,0-1.469-3.505,5.757,5.757,0,0,1-2-3.882v-.114a1.435,1.435,0,0,1,.007-.157l.133-.127c-.337-.068-.652-.1-.652-.1s1.152-4.167,3.091-5.558a9.1,9.1,0,0,0,2.327-2.814,42.641,42.641,0,0,1,3.466-5.081l.349-.441.1-.129.022-.026.027-.037q-.071-.108-.144-.213l-.032-.047a1.165,1.165,0,0,1-.262-.732v-.066a.881.881,0,0,1,.025-.135.129.129,0,0,0,.014.021c.164-.476.794-.687,1.259-.95a4.456,4.456,0,0,0,1.8-3.217,4.371,4.371,0,0,1,1.089-2.695c.488-.4,1.145-.536,1.638-.935a3.07,3.07,0,0,0,.7-.894c.114-.195.213-.4.319-.591a5.959,5.959,0,0,1,1.977-2.229,3.285,3.285,0,0,1,2.854-.378c.358.136.687.343,1.03.5a4.014,4.014,0,0,0,.655.2,11.492,11.492,0,0,1,2.093.5,6.1,6.1,0,0,1,2.4,2.518,12,12,0,0,1,1.138,2.026v-.079a2.907,2.907,0,0,1,.229,1.053,1.6,1.6,0,0,1-.049.458,1.312,1.312,0,0,1-.712.816l-.054.026a2.291,2.291,0,0,1-.222.1c-.011.063-.024.127-.038.189-.006.026-.013.054-.019.08-.015.064-.032.127-.05.19a4.4,4.4,0,0,1-1.374,2.1,4.616,4.616,0,0,1-1.536.87c-.04.014-.082.024-.122.037a.988.988,0,0,1-.144.267.773.773,0,0,1-.156.15.942.942,0,0,1-.114.066.153.153,0,0,1-.031.015,1.5,1.5,0,0,1-1.374-.237c-.021-.014-.04-.03-.06-.045a1.314,1.314,0,0,1-.022.2c-.011.071-.019.115-.032.174s-.017.088-.025.131-.014.071-.021.1l-.014.058a8.993,8.993,0,0,1-1.275,3.1,4.431,4.431,0,0,1-.29.39l-.284.433v.058a4.927,4.927,0,0,1-.736,2.723,7.935,7.935,0,0,1-.509.766l.064.038a6.2,6.2,0,0,0,2.7.959,17.583,17.583,0,0,0,3.372.195c.048-.028.1.01.139.092a6.992,6.992,0,0,1,2.5-1.012.975.975,0,0,1,1.219.916A1.446,1.446,0,0,1,117.174,332.821Z" transform="translate(-82.034 -282.744)"/><path class="q" d="M137.32,626a2.509,2.509,0,0,1,.165,2.2,5.591,5.591,0,0,0-.28,2.2c-.361-.208-.719-.421-1.075-.635q-.657-.4-1.308-.8-.859-.536-1.717-1.1l-.268-.179-.1-.07a.215.215,0,0,0-.033-.046,20.777,20.777,0,0,1-1.579-2.418c-.1-.178-.18-.343-.246-.495v-.008a.963.963,0,0,1-.134-.551,1.129,1.129,0,0,1,.555-.687c.659-.344,1.717-.026,2.763.479a19.107,19.107,0,0,1,2.58,1.572l.093.068.009.007c.343.244.543.405.543.405A.561.561,0,0,1,137.32,626Z" transform="translate(-118.722 -560.181)"/><path class="r" d="M135.844,624.679a2.509,2.509,0,0,1,.165,2.2,5.6,5.6,0,0,0-.28,2.2q-.54-.315-1.075-.636-.658-.4-1.308-.8c-.572-.358-1.145-.725-1.711-1.1l-.268-.179-.1-.07a.246.246,0,0,0-.033-.046,20.582,20.582,0,0,1-1.579-2.418c-.1-.179-.18-.344-.246-.495v-.007a.967.967,0,0,1-.134-.552,1.132,1.132,0,0,1,.555-.687c.659-.343,1.717-.026,2.763.479a19.1,19.1,0,0,1,2.58,1.572l.093.068.009.007c.343.244.543.405.543.405S135.823,624.646,135.844,624.679Z" transform="translate(-117.42 -559.013)"/><path class="q" d="M163.434,631.451a2.794,2.794,0,0,1-.161.572,4.526,4.526,0,0,0-.26,1.03h0a9.1,9.1,0,0,0,.009,2.252q-1.9-.992-3.744-2.073c-.361-.208-.719-.421-1.075-.635a3.305,3.305,0,0,0-.324-1.276,22.794,22.794,0,0,1-1.738-2.652c-.078-.137-.145-.27-.208-.4v-.006c-.024-.05-.047-.1-.069-.146a.928.928,0,0,1,.276-1.4c1.015-.742,3.126.262,4.747,1.259l.04.024c.307.191.6.38.859.556l.152.1c.671.458,1.116.814,1.116.814a2.435,2.435,0,0,1,.264.547,2.894,2.894,0,0,1,.1.332A2.767,2.767,0,0,1,163.434,631.451Z" transform="translate(-140.795 -563.009)"/><path class="d" d="M131.118,625.124a11.377,11.377,0,0,0,2.729.687,1.278,1.278,0,0,0,.207-.01h0a23.916,23.916,0,0,1,3.252.159c.533.047,1.047.1,1.472.14l1.067.114V625.8c-.3-.2-.641-.43-1.01-.659-1.627-1.005-3.764-2.032-4.787-1.284-1.441-.7-2.9-1.03-3.32.208A2.229,2.229,0,0,0,131.118,625.124Z" transform="translate(-118.713 -560.147)"/><path class="i" d="M99.243,545.736a5.76,5.76,0,0,0,1.911,3.836,5.3,5.3,0,0,1,1.212,5.023,16.652,16.652,0,0,0,3.6,1.015,1.292,1.292,0,0,0,.207-.01,39.285,39.285,0,0,1,4.729.3l1.067.115v-8.76L100.3,544.42l-1.057,1.053A2.066,2.066,0,0,0,99.243,545.736Z" transform="translate(-90.836 -490.353)"/><path class="s" d="M135.46,630.91" transform="translate(-122.91 -566.942)"/><g class="k" transform="translate(8.404 54.073)"><path d="M172.8,642.285l.191.019v.094l-1.067-.115c-1.068-.108-2.7-.261-3.778-.306A43.253,43.253,0,0,1,172.8,642.285Z" transform="translate(-160.262 -630.806)"/><path d="M99.247,545.523l1.057-1.053.705.171-.88.883a2.06,2.06,0,0,0,0,.263,5.763,5.763,0,0,0,1.911,3.836,5.3,5.3,0,0,1,1.212,5.022,19.909,19.909,0,0,0,3.277.987,2.832,2.832,0,0,0-.343.02,1.292,1.292,0,0,1-.207.01,16.7,16.7,0,0,1-3.6-1.016,5.3,5.3,0,0,0-1.212-5.022,5.747,5.747,0,0,1-1.919-3.833A2.062,2.062,0,0,1,99.247,545.523Z" transform="translate(-99.24 -544.47)"/></g><path class="q" d="M303,492.875s3.529-2.447,3.787-.245S303,494.523,303,494.523Z" transform="translate(-271.271 -443.677)"/><path class="t" d="M229.925,487.7s1.908,1.259,2.965,1.185a16.22,16.22,0,0,0,3.22.193c.335-.193.541,2.8.541,2.8l-4.74-.335-3.04-.464s-1.52-.927-1.52-1.726S229.925,487.7,229.925,487.7Z" transform="translate(-204.281 -440.126)"/><path class="i" d="M229.925,487.7s1.908,1.259,2.965,1.185a16.22,16.22,0,0,0,3.22.193c.335-.193.541,2.8.541,2.8l-4.74-.335-3.04-.464s-1.52-.927-1.52-1.726S229.925,487.7,229.925,487.7Z" transform="translate(-204.281 -440.126)"/><path class="q" d="M267.453,543.309s4.292-.177,3.33,1.821-4.213-.428-4.213-.428Z" transform="translate(-239.011 -489.366)"/><path class="i" d="M236.58,453.99s3.478-2.6,2.989-5.771-2.989,2.422-2.989,2.422Z" transform="translate(-212.454 -404.304)"/><path class="q" d="M245,346.624a4.4,4.4,0,0,0,2.747,4.074,3.948,3.948,0,0,0,.566.188,4.453,4.453,0,0,0,.624.114c.151.015.3.023.458.023a4.333,4.333,0,0,0,1.444-.251A4.4,4.4,0,1,0,245,346.624Z" transform="translate(-219.91 -311.303)"/><path class="d" d="M99.243,545.736c.394.072.88.2.88.409,0,.343,5.495,2.2,5.495,2.2s-.206.48.343,1.305,5.017,5.565,5.017,5.565l-.015.14-.057.546-.272,2.611a9.027,9.027,0,0,1,2.267-.549.748.748,0,0,0,.548-.256,2.633,2.633,0,0,0-.358-.878s-.445-.35-1.117-.814v-8.758L100.3,544.42l-1.057,1.053A2.066,2.066,0,0,0,99.243,545.736Z" transform="translate(-90.836 -490.353)"/><path class="i" d="M94.94,413.077s1.374.136,1.374.481,5.495,2.2,5.495,2.2-.206.48.343,1.305,5.017,5.565,5.017,5.565l-.343,3.3a9.024,9.024,0,0,1,2.267-.549c.246.031.517-.2.742-.458a4.8,4.8,0,0,0,.5-.706s-.619-2.612.206-3.23-.893-5.151-.893-5.151a17.567,17.567,0,0,1-.548-4.606,1.684,1.684,0,0,1,.066-.271.083.083,0,0,1,.01-.031c.49-1.321,5.76-12.4,5.76-12.4a7.891,7.891,0,0,0-.066-.94c-.01-.087-.024-.177-.041-.268a4.608,4.608,0,0,0-.106-.489c-.03-.105-.062-.206-.1-.3-.163-.419-.412-.741-.785-.749a2.282,2.282,0,0,0-1.374-.579,6.023,6.023,0,0,0-3.091.579,19.2,19.2,0,0,1-3.984,1.442l-1.623,2.126-.334.437a42.048,42.048,0,0,0-3.309,5.024,8.975,8.975,0,0,1-2.222,2.783C96.04,408.956,94.94,413.077,94.94,413.077Z" transform="translate(-87.028 -358.178)"/><path class="d" d="M150.894,482.3s-4.586,1.133-6.364,3.993Z" transform="translate(-130.941 -435.344)"/><path class="d" d="M182.57,526.18s-.867,5.822-.626,6.261S182.57,526.18,182.57,526.18Z" transform="translate(-164.035 -474.201)"/><path class="d" d="M189.6,540.955c.334.437,1.688,3.813,1.688,3.813l-.392,5.668-.343,3.3a9.025,9.025,0,0,1,2.268-.549c.245.031.517-.2.742-.458-.357-1.931-1.12-5.971-1.259-6.049a18.9,18.9,0,0,1-1.158-4.252,10.183,10.183,0,0,0-1.34-2.935S189.266,540.518,189.6,540.955Z" transform="translate(-170.756 -485.987)"/><path class="d" d="M201.61,419.508c.084.258.216,1.751.216,1.751a2.014,2.014,0,0,0,1.708,1.885,1.682,1.682,0,0,1,.066-.271c.412-1.166,5.771-12.434,5.771-12.434a7.4,7.4,0,0,0-.214-1.7,6.834,6.834,0,0,0-3.014.185c-.533-.07-2.275,3.393-2.275,3.393s-1.161,2.652-1.288,3.013a6.506,6.506,0,0,0-.052,1.161c-.051.206-.594.385-.671.67s-.026.848-.078.951A4.142,4.142,0,0,0,201.61,419.508Z" transform="translate(-181.468 -370.105)"/><path class="i" d="M205.216,417.717c.085.258.216,1.751.216,1.751a1.945,1.945,0,0,0,1.374,1.789,2.9,2.9,0,0,0,.824.165l.829.719,3.825,2.822s1.426-2.633,1.039-2.65a16.3,16.3,0,0,1-2.618-1.889,5.765,5.765,0,0,1-1.684-2.207,1.783,1.783,0,0,0,.041-.229c.139-1.166,3.023-5.632,3.023-5.632a8.448,8.448,0,0,0,1.55-3.746c.013-.055.021-.114.031-.171a1.858,1.858,0,0,0,.023-.229c.052-.935-.628-1.275-1.437-1.357h0a5.82,5.82,0,0,0-1.259.039,9.08,9.08,0,0,0-1.236.243c-.343-.045-1.2,1.392-1.756,2.41h0c-.3.552-.517.983-.517.983s-1.167,2.654-1.3,3.014a6.194,6.194,0,0,0-.052,1.161c-.051.207-.594.385-.67.67s-.027.848-.079.951A4.2,4.2,0,0,0,205.216,417.717Z" transform="translate(-184.662 -368.52)"/><path class="d" d="M166.61,354.578a2.628,2.628,0,0,0,2.855.37,19.021,19.021,0,0,0,2.626-1.6c.572-.344,1.172-.633,1.733-.991h0c.082-.054.163-.108.24-.163.648-.458,1.208-1.045,1.877-1.465a2.921,2.921,0,0,1,1.509-.483,1.709,1.709,0,0,1,.72.151.929.929,0,0,1,.114.06,3.132,3.132,0,0,1,.607.458c.189.171.371.353.572.511.013-.055.021-.115.031-.171a1.87,1.87,0,0,0,.023-.229c.151.015.3.023.458.023a4.333,4.333,0,0,0,1.446-.256.32.32,0,0,1,.01-.056,3.45,3.45,0,0,1,1.158-2.269,8.364,8.364,0,0,1,1.608-.612,4.4,4.4,0,1,0-8.283.476,6.023,6.023,0,0,0-3.091.579,19.2,19.2,0,0,1-3.984,1.442l-1.614,2.129a1.823,1.823,0,0,1,.392.845C167.655,353.9,167.1,354.3,166.61,354.578Z" transform="translate(-150.494 -311.32)"/><path class="u" d="M182.605,324.561a3.468,3.468,0,0,0-1.158,2.268,1.782,1.782,0,0,1-.266.769c-.37.48-1.114.343-1.6,0a9.456,9.456,0,0,0-1.4-1.109,2.418,2.418,0,0,0-2.228.333c-.67.42-1.231,1.007-1.878,1.464-.626.442-1.324.757-1.977,1.154a18.553,18.553,0,0,1-2.625,1.6,2.628,2.628,0,0,1-2.854-.369c.487-.27,1.045-.67,1.007-1.248s-.712-1.012-.666-1.6.743-.826,1.243-1.117a4.467,4.467,0,0,0,1.717-3.182,4.4,4.4,0,0,1,1.039-2.664c.465-.4,1.1-.53,1.564-.925a4.837,4.837,0,0,0,.971-1.468,5.83,5.83,0,0,1,1.887-2.206,3.046,3.046,0,0,1,2.727-.372c.343.134.65.343.987.489.836.362,1.794.314,2.623.694a5.965,5.965,0,0,1,2.289,2.491c.519.841,1.533,2.331,1.249,3.418C184.967,324.091,183.362,324.031,182.605,324.561Z" transform="translate(-150.503 -287.828)"/><g class="k" transform="translate(16.113 33.654)"><path d="M169.583,419.834a.714.714,0,0,1,.024-.134,2.056,2.056,0,0,1,.436.916.791.791,0,0,1-.019.235A1.792,1.792,0,0,1,169.583,419.834Z" transform="translate(-169.238 -413.564)"/><path d="M169.232,374.767a18.986,18.986,0,0,0,2.625-1.6c.653-.4,1.351-.712,1.977-1.154.648-.458,1.209-1.045,1.879-1.464a2.422,2.422,0,0,1,2.228-.333,9.268,9.268,0,0,1,1.4,1.109c.487.349,1.227.485,1.6.006a1.764,1.764,0,0,0,.266-.768,3.453,3.453,0,0,1,1.158-2.269c.758-.529,2.362-.469,2.652-1.585a1.717,1.717,0,0,0,.038-.606,2.435,2.435,0,0,1,.169,1.43c-.292,1.116-1.9,1.057-2.654,1.585a3.473,3.473,0,0,0-1.158,2.269,1.772,1.772,0,0,1-.264.768c-.371.48-1.115.343-1.6-.006a9.328,9.328,0,0,0-1.4-1.109,2.422,2.422,0,0,0-2.228.333c-.67.419-1.231,1.007-1.879,1.464-.626.443-1.324.757-1.977,1.154a18.453,18.453,0,0,1-2.625,1.6,2.628,2.628,0,0,1-2.854-.37,3.568,3.568,0,0,0,.531-.353A3.052,3.052,0,0,0,169.232,374.767Z" transform="translate(-166.58 -366.1)"/></g><path class="v" d="M383.33,301.331l-4.693-4.72a2.492,2.492,0,0,0-3.539-.024L345.625,325.81l-12.462-12.559a2.485,2.485,0,0,0-3.514-.025l-4.744,4.693a2.518,2.518,0,0,0-.024,3.539l18.925,19.074a2.518,2.518,0,0,0,3.54.025L383.3,304.869a2.492,2.492,0,0,0,.026-3.538Z" transform="translate(-290.014 -270.248)"/><g class="w" transform="translate(83.12 68.924)"><path class="m" d="M755.053,674.215s-3.5-.211-3.091,2.242a.6.6,0,0,0,.311.63s0-.182.358-.12a1.576,1.576,0,0,0,.381.018.786.786,0,0,0,.465-.191h0a2.78,2.78,0,0,0,1.367-2.016s.283-.35.271-.441l-.591.253a1.055,1.055,0,0,1,.043.78s-.02-.765-.133-.746c-.023,0-.307.148-.307.148a1.765,1.765,0,0,1,.085,1.282s.1-.916-.193-1.228l-.416.243a1.838,1.838,0,0,1,.131,1.392,2.6,2.6,0,0,0-.219-1.332l-.377.293a1.8,1.8,0,0,1,.149,1.275s-.03-1.117-.229-1.2a2.287,2.287,0,0,0-.38.411s.261.548.1.838c0,0-.1-.745-.181-.747a2.469,2.469,0,0,0-.363.83,1.789,1.789,0,0,1,.283-.878.99.99,0,0,0-.5.261s.05-.343.584-.38a2.312,2.312,0,0,1,.343-.4,2.149,2.149,0,0,0-.852.1.953.953,0,0,1,.948-.18l.372-.3a3.067,3.067,0,0,0-.994.009,1.214,1.214,0,0,1,1.094-.079l.405-.242a3.691,3.691,0,0,0-.95-.082,1.459,1.459,0,0,1,1.069.017l.29-.13s-.436-.086-.564-.1-.134-.049-.134-.049a1.514,1.514,0,0,1,.818.092A3.707,3.707,0,0,0,755.053,674.215Z" transform="translate(-751.928 -674.211)"/></g><g class="w" transform="translate(79.323 51.793)"><path class="m" d="M719.406,524.563s-1.778,3.023.6,3.77a.6.6,0,0,0,.7.009s-.159-.088.055-.374a1.63,1.63,0,0,0,.19-.331.8.8,0,0,0,.04-.5h0A2.781,2.781,0,0,0,719.814,525s-.184-.412-.269-.443l-.044.641a1.06,1.06,0,0,1,.714.316s-.687-.33-.726-.221c-.007.023-.008.343-.008.343a1.747,1.747,0,0,1,1.181.506s-.769-.5-1.183-.385l.027.481a1.837,1.837,0,0,1,1.3.515,2.606,2.606,0,0,0-1.287-.411l.09.469a1.778,1.778,0,0,1,1.2.445s-1.009-.48-1.175-.343a2.625,2.625,0,0,0,.192.525s.608.016.792.292c0,0-.709-.25-.749-.179a2.52,2.52,0,0,0,.572.7,1.79,1.79,0,0,1-.654-.651.987.987,0,0,0,0,.572s-.287-.2-.072-.687a2.279,2.279,0,0,1-.2-.487,2.171,2.171,0,0,0-.3.8.957.957,0,0,1,.27-.927l-.1-.469a3.1,3.1,0,0,0-.443.891,1.21,1.21,0,0,1,.427-1.011l-.032-.47a3.645,3.645,0,0,0-.5.808,1.456,1.456,0,0,1,.5-.944l.016-.317s-.275.35-.343.458-.1.1-.1.1a1.506,1.506,0,0,1,.452-.687A3.832,3.832,0,0,0,719.406,524.563Z" transform="translate(-718.766 -524.56)"/></g><g class="w" transform="translate(68.205 27.674)"><path class="m" d="M622.279,313.862s-1.777,3.024.6,3.77a.6.6,0,0,0,.7.009s-.159-.088.056-.374a1.63,1.63,0,0,0,.189-.331.792.792,0,0,0,.04-.5h0a2.776,2.776,0,0,0-1.176-2.133s-.184-.411-.269-.442l-.043.64a1.058,1.058,0,0,1,.714.316s-.687-.33-.725-.221c-.008.023-.008.343-.008.343a1.745,1.745,0,0,1,1.18.506s-.769-.5-1.182-.385l.029.481a1.835,1.835,0,0,1,1.3.515,2.618,2.618,0,0,0-1.287-.411l.09.469a1.78,1.78,0,0,1,1.2.446s-1.01-.481-1.176-.343a2.564,2.564,0,0,0,.193.524s.607.016.791.292c0,0-.709-.25-.747-.179a2.481,2.481,0,0,0,.572.7,1.793,1.793,0,0,1-.655-.65.994.994,0,0,0,0,.565s-.287-.2-.072-.693a2.28,2.28,0,0,1-.2-.487,2.172,2.172,0,0,0-.3.8.956.956,0,0,1,.271-.927l-.1-.469a3.074,3.074,0,0,0-.442.891,1.206,1.206,0,0,1,.426-1.011l-.032-.47a3.65,3.65,0,0,0-.5.808,1.452,1.452,0,0,1,.5-.943l.016-.318s-.275.35-.343.458-.1.1-.1.1a1.514,1.514,0,0,1,.458-.687A3.673,3.673,0,0,0,622.279,313.862Z" transform="translate(-621.641 -313.86)"/></g><g class="w" transform="translate(26.833 4.771)"><path class="m" d="M263.967,113.79s-6.617,4.808-2.237,8.616a1.4,1.4,0,0,0,1.495.674s-.259-.337.468-.749a3.729,3.729,0,0,0,.712-.531,1.843,1.843,0,0,0,.553-1.03h0s1.17-2.191-.525-5.655c0,0-.01-1.052-.165-1.2l-.687,1.33a2.471,2.471,0,0,1,1.234,1.342s-1.169-1.35-1.346-1.145c-.035.04-.334.721-.334.721s1.727.822,2.055,2.182c0,0-1.177-1.795-2.175-1.925l-.388,1.054a4.287,4.287,0,0,1,2.3,2.314s-1.3-1.832-2.37-2.078l-.243,1.089s1.806.8,2.158,2.074c0,0-1.717-1.967-2.2-1.821a5.389,5.389,0,0,0-.077,1.3s1.284.6,1.422,1.362c0,0-1.283-1.193-1.434-1.078a5.775,5.775,0,0,0,.579,2.034,4.185,4.185,0,0,1-.793-2,2.317,2.317,0,0,0-.519,1.215s-.426-.7.489-1.549a5.33,5.33,0,0,1,.032-1.225,5.04,5.04,0,0,0-1.389,1.439s.022-1.012,1.442-1.73l.22-1.1a7.192,7.192,0,0,0-1.774,1.488s.182-1.03,1.852-1.765l.371-1.036a8.654,8.654,0,0,0-1.832,1.259,3.4,3.4,0,0,1,1.946-1.553l.329-.664s-.916.492-1.162.657-.315.114-.315.114a3.521,3.521,0,0,1,1.609-1.05A8.667,8.667,0,0,0,263.967,113.79Z" transform="translate(-260.232 -113.79)"/></g><g class="w" transform="translate(14.256 19.641)"><path class="m" d="M160.247,244.68s-8.559-3.6-9.681,2.89a1.58,1.58,0,0,0,.229,1.848s.175-.449,1,.015a4.255,4.255,0,0,0,.934.38,2.1,2.1,0,0,0,1.33-.071h0s2.814-.152,5.182-3.835c0,0,1.014-.627,1.066-.863l-1.7.115a2.816,2.816,0,0,1-.572,1.987s.624-1.928.324-1.982c-.061-.011-.9.1-.9.1s.216,2.16-.916,3.277c0,0,1.051-2.2.593-3.238l-1.251.242a4.85,4.85,0,0,1-.9,3.593s1.018-2.335.625-3.521l-1.2.4s.29,2.222-.746,3.32c0,0,.9-2.817.479-3.205a6.271,6.271,0,0,0-1.31.687s.172,1.6-.488,2.181c0,0,.405-1.946.2-2.026a6.552,6.552,0,0,0-1.636,1.757,4.76,4.76,0,0,1,1.478-1.946,2.624,2.624,0,0,0-1.488.209s.434-.825,1.792-.434a5.9,5.9,0,0,1,1.208-.687,5.774,5.774,0,0,0-2.213-.5,2.534,2.534,0,0,1,2.526.383l1.194-.433a8.137,8.137,0,0,0-2.491-.847s1.106-.428,2.8.762l1.225-.253a9.7,9.7,0,0,0-2.3-1.036,3.851,3.851,0,0,1,2.653.979l.838-.07s-1.014-.6-1.321-.743-.293-.239-.293-.239a4,4,0,0,1,1.966.946A9.7,9.7,0,0,0,160.247,244.68Z" transform="translate(-150.363 -243.685)"/></g><g class="w" transform="translate(10.703 6.908)"><path class="m" d="M127.633,137.1s-3.035-7.014-7.4-3.8a1.3,1.3,0,0,0-.916,1.225s.359-.167.586.58a3.555,3.555,0,0,0,.343.757,1.724,1.724,0,0,0,.831.715h0s1.758,1.513,5.266.674a3.433,3.433,0,0,0,1.125.1l-1.073-.9a2.3,2.3,0,0,1-1.474.852s1.469-.79,1.321-.992c-.03-.041-.588-.451-.588-.451a3.808,3.808,0,0,1-2.4,1.427s1.876-.707,2.2-1.585l-.881-.572a4.056,4.056,0,0,1-2.594,1.63s1.935-.807,2.378-1.737l-.942-.438s-1.094,1.488-2.332,1.544c0,0,2.142-1.158,2.109-1.631a4.975,4.975,0,0,0-1.171-.334s-.809,1.047-1.532,1.018c0,0,1.35-.926,1.275-1.087a5.361,5.361,0,0,0-1.972.114,3.907,3.907,0,0,1,1.986-.314,2.145,2.145,0,0,0-1-.721s.729-.244,1.312.761a4.982,4.982,0,0,1,1.11.279,4.682,4.682,0,0,0-1.03-1.559s.916.229,1.283,1.668l.956.425a6.663,6.663,0,0,0-1-1.922s.9.375,1.231,2.049l.869.548a8.03,8.03,0,0,0-.775-1.927,3.175,3.175,0,0,1,1.019,2.094l.538.435s-.263-.932-.363-1.193-.037-.309-.037-.309a3.291,3.291,0,0,1,.628,1.68A7.859,7.859,0,0,0,127.633,137.1Z" transform="translate(-119.32 -132.456)"/></g><g class="w" transform="translate(74.659 12.61)"><path class="m" d="M681.523,184.856s-.715-3.434-2.976-2.391a.6.6,0,0,0-.527.466s.177-.042.211.315a1.638,1.638,0,0,0,.081.372.8.8,0,0,0,.308.4h0a2.777,2.777,0,0,0,2.3.79s.413.181.5.146l-.4-.5a1.057,1.057,0,0,1-.741.246s.733-.219.687-.324c-.01-.022-.223-.258-.223-.258a1.746,1.746,0,0,1-1.214.419s.908-.144,1.134-.509l-.343-.338a1.837,1.837,0,0,1-1.31.491,2.611,2.611,0,0,0,1.23-.56l-.382-.286a1.8,1.8,0,0,1-1.192.477s1.07-.323,1.1-.538a2.279,2.279,0,0,0-.5-.259s-.458.4-.782.316c0,0,.687-.291.674-.371a2.468,2.468,0,0,0-.9-.132,1.8,1.8,0,0,1,.921.042.982.982,0,0,0-.383-.417s.35-.042.52.458a2.246,2.246,0,0,1,.473.229,2.2,2.2,0,0,0-.318-.8.958.958,0,0,1,.422.869l.39.279a3.07,3.07,0,0,0-.27-.957,1.205,1.205,0,0,1,.363,1.03l.344.327a3.675,3.675,0,0,0-.17-.938,1.451,1.451,0,0,1,.263,1.03l.2.246s-.031-.443-.052-.572.011-.143.011-.143a1.514,1.514,0,0,1,.127.815A3.835,3.835,0,0,0,681.523,184.856Z" transform="translate(-678.02 -182.268)"/></g><g class="w" transform="translate(62.338 76.271)"><path class="m" d="M573.894,740.976s-.714-3.434-2.976-2.391a.6.6,0,0,0-.528.466s.177-.042.211.315a1.58,1.58,0,0,0,.082.372.8.8,0,0,0,.307.4h0a2.778,2.778,0,0,0,2.3.79s.413.181.5.146l-.4-.5a1.058,1.058,0,0,1-.742.246s.733-.219.687-.324c-.009-.022-.223-.258-.223-.258a1.747,1.747,0,0,1-1.215.419s.909-.144,1.134-.509l-.343-.344a1.8,1.8,0,0,1-1.305.49,2.611,2.611,0,0,0,1.229-.56l-.382-.286a1.794,1.794,0,0,1-1.191.477s1.07-.322,1.1-.538a2.31,2.31,0,0,0-.5-.259s-.458.4-.783.316c0,0,.687-.291.674-.371a2.465,2.465,0,0,0-.9-.132,1.8,1.8,0,0,1,.923.042.991.991,0,0,0-.384-.417s.349-.042.519.458a2.246,2.246,0,0,1,.474.229,2.2,2.2,0,0,0-.318-.8.956.956,0,0,1,.421.869l.392.279a3.082,3.082,0,0,0-.271-.957,1.2,1.2,0,0,1,.364,1.03l.343.327a3.637,3.637,0,0,0-.171-.938,1.448,1.448,0,0,1,.265,1.03l.2.246s-.032-.443-.053-.572.012-.142.012-.142a1.508,1.508,0,0,1,.127.814A4.3,4.3,0,0,0,573.894,740.976Z" transform="translate(-570.39 -738.388)"/></g></g></svg>