<svg xmlns="http://www.w3.org/2000/svg" width="1925.901" height="984.378" viewBox="0 0 1925.901 984.378">
  <g id="Group_12035" data-name="Group 12035" transform="translate(2.98 -53.179)">
    <path id="Path_2251" data-name="Path 2251" d="M71.089-7168.442H71a172.1,172.1,0,0,1-34.446-3.473,170.027,170.027,0,0,1-32.081-9.959,170.9,170.9,0,0,1-29.03-15.758A171.989,171.989,0,0,1-49.852-7218.5,172.164,172.164,0,0,1-70.722-7243.8a171.09,171.09,0,0,1-15.758-29.032,170.022,170.022,0,0,1-9.959-32.082,172.235,172.235,0,0,1-3.471-34.444,172.234,172.234,0,0,1,3.471-34.444,170.033,170.033,0,0,1,9.959-32.083,171.086,171.086,0,0,1,15.758-29.03,172.161,172.161,0,0,1,20.871-25.294,172.006,172.006,0,0,1,25.295-20.871,171.009,171.009,0,0,1,29.03-15.758,170.018,170.018,0,0,1,32.081-9.959A172.261,172.261,0,0,1,71-7510.264h.088v53.141H71A117.9,117.9,0,0,0-46.77-7339.354,117.9,117.9,0,0,0,71-7221.583h.088Z" transform="translate(1849 8206)" fill="#ff8927"/>
    <path id="Path_2252" data-name="Path 2252" d="M624.09-7811h0v-53.141a117.924,117.924,0,0,0,117.68-117.77A117.925,117.925,0,0,0,624.09-8099.68v-53.141a172.18,172.18,0,0,1,34.354,3.471,170.042,170.042,0,0,1,32.083,9.959,171.091,171.091,0,0,1,29.032,15.758,172.229,172.229,0,0,1,25.293,20.871,172.017,172.017,0,0,1,20.871,25.294,170.928,170.928,0,0,1,15.758,29.03,170.026,170.026,0,0,1,9.959,32.083,172.219,172.219,0,0,1,3.471,34.444,172.243,172.243,0,0,1-3.471,34.444,170.025,170.025,0,0,1-9.959,32.082,171.1,171.1,0,0,1-15.758,29.032,172.149,172.149,0,0,1-20.871,25.294,172.21,172.21,0,0,1-25.293,20.869,170.815,170.815,0,0,1-29.032,15.758,170.034,170.034,0,0,1-32.083,9.959A172.039,172.039,0,0,1,624.09-7811Z" transform="translate(-624 8206)" fill="#2dbdca"/>
    <g id="Group_15803" data-name="Group 15803" transform="translate(-4.656)">
      <g id="Group_12030" data-name="Group 12030" transform="translate(4518.203 -5552.604)">
        <path id="Path_2243" data-name="Path 2243" d="M461.516,62.105c0,2-1.921,3.617-4.288,3.617s-4.285-1.619-4.285-3.617,1.918-3.617,4.285-3.617S461.516,60.107,461.516,62.105Z" transform="translate(-4969.47 6376.658)" fill="#34394d"/>
        <path id="Path_2244" data-name="Path 2244" d="M476.821,62.105c0,2-1.918,3.617-4.285,3.617s-4.288-1.619-4.288-3.617,1.921-3.617,4.288-3.617S476.821,60.107,476.821,62.105Z" transform="translate(-4947.846 6376.658)" fill="#34394d"/>
        <path id="Path_2246" data-name="Path 2246" d="M461.516,77.41c0,2-1.921,3.617-4.288,3.617s-4.285-1.619-4.285-3.617,1.918-3.617,4.285-3.617S461.516,75.412,461.516,77.41Z" transform="translate(-4969.47 6392.524)" fill="#34394d"/>
        <path id="Path_2247" data-name="Path 2247" d="M476.821,77.41c0,2-1.918,3.617-4.285,3.617s-4.288-1.619-4.288-3.617,1.921-3.617,4.288-3.617S476.821,75.412,476.821,77.41Z" transform="translate(-4947.846 6392.524)" fill="#34394d"/>
        <path id="Path_2249" data-name="Path 2249" d="M461.516,92.715c0,2-1.921,3.619-4.288,3.619s-4.285-1.621-4.285-3.619,1.918-3.617,4.285-3.617S461.516,90.717,461.516,92.715Z" transform="translate(-4969.47 6408.391)" fill="#34394d"/>
        <path id="Path_2250" data-name="Path 2250" d="M476.821,92.715c0,2-1.918,3.619-4.285,3.619s-4.288-1.621-4.288-3.619,1.921-3.617,4.288-3.617S476.821,90.717,476.821,92.715Z" transform="translate(-4947.846 6408.391)" fill="#34394d"/>
        <path id="Path_2243-2" data-name="Path 2243" d="M461.516,62.105c0,2-1.921,3.617-4.288,3.617s-4.285-1.619-4.285-3.617,1.918-3.617,4.285-3.617S461.516,60.107,461.516,62.105Z" transform="translate(-4969.47 6467.357)" fill="#34394d"/>
        <path id="Path_2244-2" data-name="Path 2244" d="M476.821,62.105c0,2-1.918,3.617-4.285,3.617s-4.288-1.619-4.288-3.617,1.921-3.617,4.288-3.617S476.821,60.107,476.821,62.105Z" transform="translate(-4947.846 6467.357)" fill="#34394d"/>
        <path id="Path_2246-2" data-name="Path 2246" d="M461.516,77.41c0,2-1.921,3.617-4.288,3.617s-4.285-1.619-4.285-3.617,1.918-3.617,4.285-3.617S461.516,75.412,461.516,77.41Z" transform="translate(-4969.47 6483.224)" fill="#34394d"/>
        <path id="Path_2247-2" data-name="Path 2247" d="M476.821,77.41c0,2-1.918,3.617-4.285,3.617s-4.288-1.619-4.288-3.617,1.921-3.617,4.288-3.617S476.821,75.412,476.821,77.41Z" transform="translate(-4947.846 6483.224)" fill="#34394d"/>
        <path id="Path_2242" data-name="Path 2242" d="M446.209,62.105c0,2-1.918,3.617-4.285,3.617s-4.285-1.619-4.285-3.617,1.918-3.617,4.285-3.617S446.209,60.107,446.209,62.105Z" transform="translate(-4882.089 6376.658)" fill="#34394d"/>
        <path id="Path_2243-3" data-name="Path 2243" d="M461.516,62.105c0,2-1.921,3.617-4.288,3.617s-4.285-1.619-4.285-3.617,1.918-3.617,4.285-3.617S461.516,60.107,461.516,62.105Z" transform="translate(-4860.464 6376.658)" fill="#34394d"/>
        <path id="Path_2245" data-name="Path 2245" d="M446.209,77.41c0,2-1.918,3.617-4.285,3.617s-4.285-1.619-4.285-3.617,1.918-3.617,4.285-3.617S446.209,75.412,446.209,77.41Z" transform="translate(-4882.089 6392.524)" fill="#34394d"/>
        <path id="Path_2246-3" data-name="Path 2246" d="M461.516,77.41c0,2-1.921,3.617-4.288,3.617s-4.285-1.619-4.285-3.617,1.918-3.617,4.285-3.617S461.516,75.412,461.516,77.41Z" transform="translate(-4860.464 6392.524)" fill="#34394d"/>
        <path id="Path_2248" data-name="Path 2248" d="M446.209,92.715c0,2-1.918,3.619-4.285,3.619s-4.285-1.621-4.285-3.619,1.918-3.617,4.285-3.617S446.209,90.717,446.209,92.715Z" transform="translate(-4882.089 6408.391)" fill="#34394d"/>
        <path id="Path_2249-2" data-name="Path 2249" d="M461.516,92.715c0,2-1.921,3.619-4.288,3.619s-4.285-1.621-4.285-3.619,1.918-3.617,4.285-3.617S461.516,90.717,461.516,92.715Z" transform="translate(-4860.464 6408.391)" fill="#34394d"/>
        <path id="Path_2242-2" data-name="Path 2242" d="M446.209,62.105c0,2-1.918,3.617-4.285,3.617s-4.285-1.619-4.285-3.617,1.918-3.617,4.285-3.617S446.209,60.107,446.209,62.105Z" transform="translate(-4882.089 6467.357)" fill="#34394d"/>
        <path id="Path_2243-4" data-name="Path 2243" d="M461.516,62.105c0,2-1.921,3.617-4.288,3.617s-4.285-1.619-4.285-3.617,1.918-3.617,4.285-3.617S461.516,60.107,461.516,62.105Z" transform="translate(-4860.464 6467.357)" fill="#34394d"/>
        <path id="Path_2245-2" data-name="Path 2245" d="M446.209,77.41c0,2-1.918,3.617-4.285,3.617s-4.285-1.619-4.285-3.617,1.918-3.617,4.285-3.617S446.209,75.412,446.209,77.41Z" transform="translate(-4882.089 6483.224)" fill="#34394d"/>
        <path id="Path_2246-4" data-name="Path 2246" d="M461.516,77.41c0,2-1.921,3.617-4.288,3.617s-4.285-1.619-4.285-3.617,1.918-3.617,4.285-3.617S461.516,75.412,461.516,77.41Z" transform="translate(-4860.464 6483.224)" fill="#34394d"/>
      </g>
      <g id="Group_12031" data-name="Group 12031" transform="translate(6363.458 -6349.601)">
        <path id="Path_2242-3" data-name="Path 2242" d="M446.209,62.105c0,2-1.918,3.617-4.285,3.617s-4.285-1.619-4.285-3.617,1.918-3.617,4.285-3.617S446.209,60.107,446.209,62.105Z" transform="translate(-4991.096 6376.658)" fill="#34394d"/>
        <path id="Path_2243-5" data-name="Path 2243" d="M461.516,62.105c0,2-1.921,3.617-4.288,3.617s-4.285-1.619-4.285-3.617,1.918-3.617,4.285-3.617S461.516,60.107,461.516,62.105Z" transform="translate(-4969.47 6376.658)" fill="#34394d"/>
        <path id="Path_2244-3" data-name="Path 2244" d="M476.821,62.105c0,2-1.918,3.617-4.285,3.617s-4.288-1.619-4.288-3.617,1.921-3.617,4.288-3.617S476.821,60.107,476.821,62.105Z" transform="translate(-4947.846 6376.658)" fill="#34394d"/>
        <path id="Path_2245-3" data-name="Path 2245" d="M446.209,77.41c0,2-1.918,3.617-4.285,3.617s-4.285-1.619-4.285-3.617,1.918-3.617,4.285-3.617S446.209,75.412,446.209,77.41Z" transform="translate(-4991.096 6392.524)" fill="#34394d"/>
        <path id="Path_2246-5" data-name="Path 2246" d="M461.516,77.41c0,2-1.921,3.617-4.288,3.617s-4.285-1.619-4.285-3.617,1.918-3.617,4.285-3.617S461.516,75.412,461.516,77.41Z" transform="translate(-4969.47 6392.524)" fill="#34394d"/>
        <path id="Path_2247-3" data-name="Path 2247" d="M476.821,77.41c0,2-1.918,3.617-4.285,3.617s-4.288-1.619-4.288-3.617,1.921-3.617,4.288-3.617S476.821,75.412,476.821,77.41Z" transform="translate(-4947.846 6392.524)" fill="#34394d"/>
        <path id="Path_2248-2" data-name="Path 2248" d="M446.209,92.715c0,2-1.918,3.619-4.285,3.619s-4.285-1.621-4.285-3.619,1.918-3.617,4.285-3.617S446.209,90.717,446.209,92.715Z" transform="translate(-4991.096 6408.391)" fill="#34394d"/>
        <path id="Path_2249-3" data-name="Path 2249" d="M461.516,92.715c0,2-1.921,3.619-4.288,3.619s-4.285-1.621-4.285-3.619,1.918-3.617,4.285-3.617S461.516,90.717,461.516,92.715Z" transform="translate(-4969.47 6408.391)" fill="#34394d"/>
        <path id="Path_2250-2" data-name="Path 2250" d="M476.821,92.715c0,2-1.918,3.619-4.285,3.619s-4.288-1.621-4.288-3.619,1.921-3.617,4.288-3.617S476.821,90.717,476.821,92.715Z" transform="translate(-4947.846 6408.391)" fill="#34394d"/>
        <path id="Path_2242-4" data-name="Path 2242" d="M446.209,62.105c0,2-1.918,3.617-4.285,3.617s-4.285-1.619-4.285-3.617,1.918-3.617,4.285-3.617S446.209,60.107,446.209,62.105Z" transform="translate(-4991.096 6467.357)" fill="#34394d"/>
        <path id="Path_2243-6" data-name="Path 2243" d="M461.516,62.105c0,2-1.921,3.617-4.288,3.617s-4.285-1.619-4.285-3.617,1.918-3.617,4.285-3.617S461.516,60.107,461.516,62.105Z" transform="translate(-4969.47 6467.357)" fill="#34394d"/>
        <path id="Path_2244-4" data-name="Path 2244" d="M476.821,62.105c0,2-1.918,3.617-4.285,3.617s-4.288-1.619-4.288-3.617,1.921-3.617,4.288-3.617S476.821,60.107,476.821,62.105Z" transform="translate(-4947.846 6467.357)" fill="#34394d"/>
        <path id="Path_2245-4" data-name="Path 2245" d="M446.209,77.41c0,2-1.918,3.617-4.285,3.617s-4.285-1.619-4.285-3.617,1.918-3.617,4.285-3.617S446.209,75.412,446.209,77.41Z" transform="translate(-4991.096 6483.224)" fill="#34394d"/>
        <path id="Path_2246-6" data-name="Path 2246" d="M461.516,77.41c0,2-1.921,3.617-4.288,3.617s-4.285-1.619-4.285-3.617,1.918-3.617,4.285-3.617S461.516,75.412,461.516,77.41Z" transform="translate(-4969.47 6483.224)" fill="#34394d"/>
        <path id="Path_2247-4" data-name="Path 2247" d="M476.821,77.41c0,2-1.918,3.617-4.285,3.617s-4.288-1.619-4.288-3.617,1.921-3.617,4.288-3.617S476.821,75.412,476.821,77.41Z" transform="translate(-4947.846 6483.224)" fill="#34394d"/>
        <path id="Path_2242-5" data-name="Path 2242" d="M446.209,62.105c0,2-1.918,3.617-4.285,3.617s-4.285-1.619-4.285-3.617,1.918-3.617,4.285-3.617S446.209,60.107,446.209,62.105Z" transform="translate(-4882.089 6376.658)" fill="#34394d"/>
        <path id="Path_2245-5" data-name="Path 2245" d="M446.209,77.41c0,2-1.918,3.617-4.285,3.617s-4.285-1.619-4.285-3.617,1.918-3.617,4.285-3.617S446.209,75.412,446.209,77.41Z" transform="translate(-4882.089 6392.524)" fill="#34394d"/>
        <path id="Path_2248-3" data-name="Path 2248" d="M446.209,92.715c0,2-1.918,3.619-4.285,3.619s-4.285-1.621-4.285-3.619,1.918-3.617,4.285-3.617S446.209,90.717,446.209,92.715Z" transform="translate(-4882.089 6408.391)" fill="#34394d"/>
        <path id="Path_2242-6" data-name="Path 2242" d="M446.209,62.105c0,2-1.918,3.617-4.285,3.617s-4.285-1.619-4.285-3.617,1.918-3.617,4.285-3.617S446.209,60.107,446.209,62.105Z" transform="translate(-4882.089 6467.357)" fill="#34394d"/>
        <path id="Path_2245-6" data-name="Path 2245" d="M446.209,77.41c0,2-1.918,3.617-4.285,3.617s-4.285-1.619-4.285-3.617,1.918-3.617,4.285-3.617S446.209,75.412,446.209,77.41Z" transform="translate(-4882.089 6483.224)" fill="#34394d"/>
      </g>
    </g>
  </g>
</svg>
