<svg id="Layer_1" data-name="Layer 1" xmlns="http://www.w3.org/2000/svg" viewBox="0 0 170.82 944.1"><defs><style>.cls-1{fill:#ff8927;}.cls-2{fill:#34394d;}</style></defs><path id="Path_2252" data-name="Path 2252" class="cls-1" d="M170.82,607.4h0v52.35c-65,.13-117.59,52-117.68,116,.09,64,52.71,115.88,117.68,116V944.1a174.44,174.44,0,0,1-34.35-3.42,171,171,0,0,1-107.28-70.8,166.2,166.2,0,0,1,0-188.25,170,170,0,0,1,20.87-24.92,171.36,171.36,0,0,1,86.41-45.88A174.45,174.45,0,0,1,170.82,607.4Z"/><g id="Group_15803" data-name="Group 15803"><g id="Group_12030" data-name="Group 12030"><path id="Path_2243" data-name="Path 2243" class="cls-2" d="M162.25,123.61c0-2,1.92-3.57,4.29-3.57s4.28,1.6,4.28,3.57-1.92,3.56-4.28,3.56S162.25,125.58,162.25,123.61Z"/><path id="Path_2244" data-name="Path 2244" class="cls-2" d="M125.32,123.61c0-2,1.92-3.57,4.28-3.57s4.29,1.6,4.29,3.57-1.92,3.56-4.29,3.56S125.32,125.58,125.32,123.61Z"/><path id="Path_2246" data-name="Path 2246" class="cls-2" d="M162.25,92.9c0-2,1.92-3.56,4.29-3.56s4.28,1.6,4.28,3.56-1.92,3.57-4.28,3.57S162.25,94.87,162.25,92.9Z"/><path id="Path_2247" data-name="Path 2247" class="cls-2" d="M125.32,92.9c0-2,1.92-3.56,4.28-3.56s4.29,1.6,4.29,3.56-1.92,3.57-4.29,3.57S125.32,94.87,125.32,92.9Z"/><path id="Path_2249" data-name="Path 2249" class="cls-2" d="M162.25,62.2c0-2,1.92-3.57,4.29-3.57s4.28,1.6,4.28,3.57-1.92,3.56-4.28,3.56S162.25,64.17,162.25,62.2Z"/><path id="Path_2250" data-name="Path 2250" class="cls-2" d="M125.32,62.2c0-2,1.92-3.57,4.28-3.57s4.29,1.6,4.29,3.57-1.92,3.56-4.29,3.56S125.32,64.17,125.32,62.2Z"/><path id="Path_2243-2" data-name="Path 2243-2" class="cls-2" d="M162.25,34.27c0-2,1.92-3.57,4.29-3.57s4.28,1.6,4.28,3.57-1.92,3.56-4.28,3.56S162.25,36.24,162.25,34.27Z"/><path id="Path_2244-2" data-name="Path 2244-2" class="cls-2" d="M125.32,34.27c0-2,1.92-3.57,4.28-3.57s4.29,1.6,4.29,3.57-1.92,3.56-4.29,3.56S125.32,36.24,125.32,34.27Z"/><path id="Path_2246-2" data-name="Path 2246-2" class="cls-2" d="M162.25,3.56c0-2,1.92-3.56,4.29-3.56s4.28,1.59,4.28,3.56-1.92,3.57-4.28,3.57S162.25,5.53,162.25,3.56Z"/><path id="Path_2247-2" data-name="Path 2247-2" class="cls-2" d="M125.32,3.56c0-2,1.92-3.56,4.28-3.56s4.29,1.59,4.29,3.56S132,7.13,129.6,7.13,125.32,5.53,125.32,3.56Z"/><path id="Path_2242" data-name="Path 2242" class="cls-2" d="M90.17,123.61c0-2,1.92-3.57,4.29-3.57s4.28,1.6,4.28,3.57-1.91,3.56-4.28,3.56S90.17,125.58,90.17,123.61Z"/><path id="Path_2243-3" data-name="Path 2243-3" class="cls-2" d="M53.24,123.61c0-2,1.92-3.57,4.29-3.57s4.28,1.6,4.28,3.57-1.91,3.56-4.28,3.56S53.24,125.58,53.24,123.61Z"/><path id="Path_2245" data-name="Path 2245" class="cls-2" d="M90.17,92.9c0-2,1.92-3.56,4.29-3.56s4.28,1.6,4.28,3.56-1.91,3.57-4.28,3.57S90.17,94.87,90.17,92.9Z"/><path id="Path_2246-3" data-name="Path 2246-3" class="cls-2" d="M53.24,92.9c0-2,1.92-3.56,4.29-3.56s4.28,1.6,4.28,3.56-1.91,3.57-4.28,3.57S53.24,94.87,53.24,92.9Z"/><path id="Path_2248" data-name="Path 2248" class="cls-2" d="M90.17,62.2c0-2,1.92-3.57,4.29-3.57s4.28,1.6,4.28,3.57-1.91,3.56-4.28,3.56S90.17,64.17,90.17,62.2Z"/><path id="Path_2249-2" data-name="Path 2249-2" class="cls-2" d="M53.24,62.2c0-2,1.92-3.57,4.29-3.57s4.28,1.6,4.28,3.57-1.91,3.56-4.28,3.56S53.24,64.17,53.24,62.2Z"/><path id="Path_2242-2" data-name="Path 2242-2" class="cls-2" d="M90.17,34.27c0-2,1.92-3.57,4.29-3.57s4.28,1.6,4.28,3.57-1.91,3.56-4.28,3.56S90.17,36.24,90.17,34.27Z"/><path id="Path_2243-4" data-name="Path 2243-4" class="cls-2" d="M53.24,34.27c0-2,1.92-3.57,4.29-3.57s4.28,1.6,4.28,3.57-1.91,3.56-4.28,3.56S53.24,36.24,53.24,34.27Z"/><path id="Path_2245-2" data-name="Path 2245-2" class="cls-2" d="M90.17,3.56c0-2,1.92-3.56,4.29-3.56s4.28,1.59,4.28,3.56-1.91,3.57-4.28,3.57S90.17,5.53,90.17,3.56Z"/><path id="Path_2246-4" data-name="Path 2246-4" class="cls-2" d="M53.24,3.56c0-2,1.92-3.56,4.29-3.56s4.28,1.59,4.28,3.56S59.9,7.13,57.53,7.13,53.24,5.53,53.24,3.56Z"/></g></g></svg>