<svg id="Layer_1" data-name="Layer 1" xmlns="http://www.w3.org/2000/svg" viewBox="0 0 173.89 958.47"><defs><style>.cls-1{fill:#2dbdca;}.cls-2{fill:#34394d;}</style></defs><g id="Group_12035" data-name="Group 12035"><path id="Path_2252" data-name="Path 2252" class="cls-1" d="M3.07,341.82h0V288.68a117.77,117.77,0,0,0,0-235.54V0A172.25,172.25,0,0,1,37.42,3.47a169.9,169.9,0,0,1,32.09,10,170.83,170.83,0,0,1,29,15.76A172,172,0,0,1,144.7,75.35a170.83,170.83,0,0,1,15.76,29,169.9,169.9,0,0,1,10,32.09,172.64,172.64,0,0,1,0,68.88,169.9,169.9,0,0,1-10,32.09,170.83,170.83,0,0,1-15.76,29,171.89,171.89,0,0,1-20.87,25.29,172.53,172.53,0,0,1-25.29,20.87,170.83,170.83,0,0,1-29,15.76,170.63,170.63,0,0,1-32.09,10A172.25,172.25,0,0,1,3.07,341.82Z" transform="translate(0 0)"/><g id="Group_15803" data-name="Group 15803"><g id="Group_12030" data-name="Group 12030"><path id="Path_2243" data-name="Path 2243" class="cls-2" d="M8.57,833c0,2-1.92,3.62-4.29,3.62S0,835,0,833s1.92-3.62,4.28-3.62S8.57,831,8.57,833Z" transform="translate(0 0)"/><path id="Path_2244" data-name="Path 2244" class="cls-2" d="M45.5,833c0,2-1.92,3.62-4.28,3.62S36.93,835,36.93,833s1.92-3.62,4.29-3.62S45.5,831,45.5,833Z" transform="translate(0 0)"/><path id="Path_2246" data-name="Path 2246" class="cls-2" d="M8.57,864.15c0,2-1.92,3.62-4.29,3.62S0,866.15,0,864.15s1.92-3.62,4.28-3.62S8.57,862.15,8.57,864.15Z" transform="translate(0 0)"/><path id="Path_2247" data-name="Path 2247" class="cls-2" d="M45.5,864.15c0,2-1.92,3.62-4.28,3.62s-4.29-1.62-4.29-3.62,1.92-3.62,4.29-3.62S45.5,862.15,45.5,864.15Z" transform="translate(0 0)"/><path id="Path_2249" data-name="Path 2249" class="cls-2" d="M8.57,895.32c0,2-1.92,3.62-4.29,3.62S0,897.32,0,895.32s1.92-3.61,4.28-3.61S8.57,893.33,8.57,895.32Z" transform="translate(0 0)"/><path id="Path_2250" data-name="Path 2250" class="cls-2" d="M45.5,895.32c0,2-1.92,3.62-4.28,3.62s-4.29-1.62-4.29-3.62,1.92-3.61,4.29-3.61S45.5,893.33,45.5,895.32Z" transform="translate(0 0)"/><path id="Path_2243-2" data-name="Path 2243-2" class="cls-2" d="M8.57,923.68c0,2-1.92,3.62-4.29,3.62S0,925.68,0,923.68s1.92-3.62,4.28-3.62S8.57,921.68,8.57,923.68Z" transform="translate(0 0)"/><path id="Path_2244-2" data-name="Path 2244-2" class="cls-2" d="M45.5,923.68c0,2-1.92,3.62-4.28,3.62s-4.29-1.62-4.29-3.62,1.92-3.62,4.29-3.62S45.5,921.68,45.5,923.68Z" transform="translate(0 0)"/><path id="Path_2246-2" data-name="Path 2246-2" class="cls-2" d="M8.57,954.85c0,2-1.92,3.62-4.29,3.62S0,956.85,0,954.85s1.92-3.62,4.28-3.62S8.57,952.85,8.57,954.85Z" transform="translate(0 0)"/><path id="Path_2247-2" data-name="Path 2247-2" class="cls-2" d="M45.5,954.85c0,2-1.92,3.62-4.28,3.62s-4.29-1.62-4.29-3.62,1.92-3.62,4.29-3.62S45.5,952.85,45.5,954.85Z" transform="translate(0 0)"/><path id="Path_2242" data-name="Path 2242" class="cls-2" d="M80.65,833c0,2-1.92,3.62-4.29,3.62S72.08,835,72.08,833s1.92-3.62,4.28-3.62S80.65,831,80.65,833Z" transform="translate(0 0)"/><path id="Path_2243-3" data-name="Path 2243-3" class="cls-2" d="M117.58,833c0,2-1.92,3.62-4.29,3.62S109,835,109,833s1.91-3.62,4.28-3.62S117.58,831,117.58,833Z" transform="translate(0 0)"/><path id="Path_2245" data-name="Path 2245" class="cls-2" d="M80.65,864.15c0,2-1.92,3.62-4.29,3.62s-4.28-1.62-4.28-3.62,1.92-3.62,4.28-3.62S80.65,862.15,80.65,864.15Z" transform="translate(0 0)"/><path id="Path_2246-3" data-name="Path 2246-3" class="cls-2" d="M117.58,864.15c0,2-1.92,3.62-4.29,3.62s-4.28-1.62-4.28-3.62,1.91-3.62,4.28-3.62S117.58,862.15,117.58,864.15Z" transform="translate(0 0)"/><path id="Path_2248" data-name="Path 2248" class="cls-2" d="M80.65,895.32c0,2-1.92,3.62-4.29,3.62s-4.28-1.62-4.28-3.62,1.92-3.61,4.28-3.61S80.65,893.33,80.65,895.32Z" transform="translate(0 0)"/><path id="Path_2249-2" data-name="Path 2249-2" class="cls-2" d="M117.58,895.32c0,2-1.92,3.62-4.29,3.62s-4.28-1.62-4.28-3.62,1.91-3.61,4.28-3.61S117.58,893.33,117.58,895.32Z" transform="translate(0 0)"/><path id="Path_2242-2" data-name="Path 2242-2" class="cls-2" d="M80.65,923.68c0,2-1.92,3.62-4.29,3.62s-4.28-1.62-4.28-3.62,1.92-3.62,4.28-3.62S80.65,921.68,80.65,923.68Z" transform="translate(0 0)"/><path id="Path_2243-4" data-name="Path 2243-4" class="cls-2" d="M117.58,923.68c0,2-1.92,3.62-4.29,3.62s-4.28-1.62-4.28-3.62,1.91-3.62,4.28-3.62S117.58,921.68,117.58,923.68Z" transform="translate(0 0)"/><path id="Path_2245-2" data-name="Path 2245-2" class="cls-2" d="M80.65,954.85c0,2-1.92,3.62-4.29,3.62s-4.28-1.62-4.28-3.62,1.92-3.62,4.28-3.62S80.65,952.85,80.65,954.85Z" transform="translate(0 0)"/><path id="Path_2246-4" data-name="Path 2246-4" class="cls-2" d="M117.58,954.85c0,2-1.92,3.62-4.29,3.62s-4.28-1.62-4.28-3.62,1.91-3.62,4.28-3.62S117.58,952.85,117.58,954.85Z" transform="translate(0 0)"/></g></g></g></svg>