<svg xmlns="http://www.w3.org/2000/svg" width="37.122" height="45.683" viewBox="0 0 37.122 45.683"><defs><style>.a{fill:#2dbdca;}</style></defs><g transform="translate(0 0)"><path class="a" d="M1.428,6.34a.714.714,0,0,0,0,1.428C3.787,7.767,5,5.89,5,3.484,5-1.04,0-1.03,0,2.771a.714.714,0,0,0,1.428,0c0-1.954,2.141-1.843,2.141.714C3.569,4.343,3.36,6.34,1.428,6.34Z" transform="translate(23.554 13.518)"/><path class="a" d="M5,0A5,5,0,0,0,0,5v5.711a.714.714,0,0,0,1.428,0V5A3.569,3.569,0,1,1,8.566,5v5.711a.714.714,0,0,0,1.428,0V5A5,5,0,0,0,5,0Z" transform="translate(21.413 34.262)"/><path class="a" d="M.714,1.428H2.14A.714.714,0,0,0,2.14,0H.714a.714.714,0,1,0,0,1.428Z" transform="translate(7.137 22.841)"/><path class="a" d="M0,.708V2.136a.714.714,0,0,0,1.428,0V.708A.714.714,0,0,0,0,.708Z" transform="translate(11.419 27.843)"/><path class="a" d="M.208,1.647a.715.715,0,0,0,.5,1.219c.506,0,.626-.414,1.933-1.637A.714.714,0,0,0,1.636.219Z" transform="translate(7.851 25.686)"/><path class="a" d="M8.565,5.711A2.144,2.144,0,0,0,6.423,7.852V9.463a.531.531,0,0,1-1.034.168L4.311,6.4l.858-3.431A2.386,2.386,0,0,0,2.854,0c-.881,0-.63.818-2.81,6.174-.143.38-.061.079,2.1,9.612v4.2a.714.714,0,0,0,1.428,0V15.7c0-.154.106.408-2.111-9.231L3.307,1.54a.958.958,0,0,1,.477,1.078C2.883,6.377,2.776,6.3,2.891,6.65l1.144,3.432a1.96,1.96,0,0,0,3.816-.619V7.852a.714.714,0,0,1,1.428,0,11.144,11.144,0,0,1-2,7.424c-.284.378-.088.394.189,4.766a.714.714,0,0,0,1.423-.11l-.31-4.02a12.551,12.551,0,0,0,2.124-8.06A2.144,2.144,0,0,0,8.565,5.711Z" transform="translate(0 24.982)"/><path class="a" d="M28.738,14.768c.835-3.549.71-6.764-.353-9.053A4.862,4.862,0,0,0,24.651,2.68C23.077-.279,19.564-.288,16.274.314a.714.714,0,0,0,.257,1.4c7.3-1.336,6.36,2.3,7.628,2.351A3.441,3.441,0,0,1,27.09,6.316c.915,1.971,1.009,4.932.258,8.124a29.748,29.748,0,0,1-5.439,10.976,7.1,7.1,0,0,1-2.931-2.288.714.714,0,0,0-1.146.851,8.642,8.642,0,0,0,3.6,2.782v2.787a30.936,30.936,0,0,1-9.962,3.209c2.105-3.015,1.143-.371,1.4-5.634a.714.714,0,0,0-.275-.563c-.477-.372-.758-.006-3.808.669A2,2,0,0,1,6.627,26.4c.836-.541,2.243-.724,1.911-1.656-.515-1.448-1.029-2.465-3.2-2.337-.357-1.037-.293-1.369-.669-1.6L3.028,19.8C4.814,17.421,5.009,17.43,5.009,17v-3.92c2.23.851,4.158.293,9.28.479a.714.714,0,0,0,0-1.428H7.674c-.134-.094-5.7.587-6.2-7.806,2.18,1.133,5.8-.108,9.63-1.222a.714.714,0,0,0-.4-1.37c-4.177,1.309-8.276,2.5-9.317.668a.71.71,0,0,0-1.349.272C-.2,5.92.76,10.318,3.582,12.32v4.438l-2.17,2.79A.714.714,0,0,0,1.6,20.594L3.69,21.879c.345.8.289,2.141,1.237,2,1.567-.226,1.8.162,2.047.747-.936.594-2.238.736-1.965,1.643a3.425,3.425,0,0,0,4.117,2.342l2.309-.577V30.43c-3.112,3.736-5.711,9.31-5.711,14.54a.714.714,0,0,0,1.428,0,21.333,21.333,0,0,1,3.341-10.716c4.77-.154,9.785-2.511,11.439-3.357,6.778,9.352,3.109,14.786,5.206,14.786a.714.714,0,0,0,.714-.714,22.951,22.951,0,0,0-5-15.227V26.528A31.347,31.347,0,0,0,28.738,14.768Z" transform="translate(7.838)"/><path class="a" d="M1.428.708A.714.714,0,0,0,0,.708.714.714,0,0,0,1.428.708Z" transform="translate(20.7 0.717)"/></g></svg>