<svg xmlns="http://www.w3.org/2000/svg" width="47.272" height="47.265" viewBox="0 0 47.272 47.265"><defs><style>.a{fill:#2dbdca;}</style></defs><g transform="translate(0 0)"><path class="a" d="M13.5,15.279c.864-3.672.734-7-.365-9.366A5.031,5.031,0,0,0,9.268,2.772C7.641-.287,4.006-.3.6.325A.739.739,0,0,0,.867,1.778C8.408.4,7.461,4.163,8.759,4.21a3.56,3.56,0,0,1,3.033,2.325c.946,2.039,1.044,5.1.267,8.406A30.778,30.778,0,0,1,6.432,26.3,7.348,7.348,0,0,1,3.4,23.93a.739.739,0,0,0-1.186.881,8.94,8.94,0,0,0,3.72,2.879c.048,3.353-.111,3.426.148,3.771,7.508,10.011,3.56,15.8,5.761,15.8a.739.739,0,0,0,.739-.739,23.746,23.746,0,0,0-5.17-15.754V27.445A32.433,32.433,0,0,0,13.5,15.279Z" transform="translate(33.209 0)"/><path class="a" d="M1.494,6.562a.739.739,0,0,0,0,1.477C6.365,8.039,6.176,0,2.448,0,.036,0-.723,3.608.756,3.608a.739.739,0,0,0,.739-.739c0-2.025,2.216-1.9,2.216.739C3.71,4.5,3.494,6.562,1.494,6.562Z" transform="translate(33.219 13.983)"/><path class="a" d="M5.17,0A5.176,5.176,0,0,0,0,5.17v5.908a.739.739,0,0,0,1.477,0V5.17a3.693,3.693,0,1,1,7.385,0v5.908a.739.739,0,0,0,1.477,0V5.17A5.176,5.176,0,0,0,5.17,0Z" transform="translate(31.02 35.448)"/><path class="a" d="M19.669,29.976a28.327,28.327,0,0,1-7.805,2.156c1.934-2.77,1.359-.618,1.444-5.83a.739.739,0,0,0-.739-.739H7.031a1.848,1.848,0,0,1-1.846-1.846V20.394c0-.681-.686-.731-2.05-1.674,1.848-2.457,2.05-2.446,2.05-2.89V11.774a7.319,7.319,0,0,0,1.35.369.739.739,0,0,0,.254-1.455c-3.669-.642-5.043-4.253-5.266-7.971,2.084,1.083,5.137.154,9.964-1.265A.739.739,0,0,0,11.071.035C7,1.231,2.561,2.714,1.43.725a.735.735,0,0,0-1.4.282c-.241,3.357.751,7.908,3.672,9.98v4.591L1.462,18.464a.739.739,0,0,0,.2,1.082l2.049,1.261v2.911a3.327,3.327,0,0,0,3.323,3.323h4.8v2.682a26.206,26.206,0,0,0-1.886,2.611.738.738,0,0,0-.322.517,23.42,23.42,0,0,0-3.7,11.915.739.739,0,1,0,1.477,0,22.072,22.072,0,0,1,3.457-11.087,27.965,27.965,0,0,0,9.384-2.341.739.739,0,0,0-.573-1.362Z" transform="translate(16.973 1.761)"/><path class="a" d="M2.31.377C1.924,1.064,0,4.56,0,5.908a2.954,2.954,0,0,0,5.908,0C5.908,4.56,3.984,1.064,3.6.377a.739.739,0,0,0-1.288,0Zm.644,7.009A1.479,1.479,0,0,1,1.477,5.908,14.083,14.083,0,0,1,2.954,2.3a14.073,14.073,0,0,1,1.477,3.61A1.479,1.479,0,0,1,2.954,7.386Z" transform="translate(25.112 9.599)"/><path class="a" d="M13.295,22.536V2.216A2.218,2.218,0,0,0,11.079,0H5.171A2.218,2.218,0,0,0,2.955,2.216V22.537a8.124,8.124,0,1,0,10.34,0ZM7.965,35.448A6.658,6.658,0,0,1,4.137,23.486c.56-.421.188-.405.3-13.146H6.648a.739.739,0,0,0,0-1.477H4.432V7.385H8.125a.739.739,0,0,0,0-1.477H4.432V4.431H6.648a.739.739,0,0,0,0-1.477H4.432c.045-.2-.249-1.477.739-1.477h5.908a.739.739,0,0,1,.739.739c.111,21.467-.267,20.848.295,21.27A6.655,6.655,0,0,1,7.965,35.448Z" transform="translate(0 4.429)"/><path class="a" d="M7.378,12.317V.739A.739.739,0,0,0,6.639,0H3.685a.739.739,0,0,0-.739.739V12.317a5.169,5.169,0,1,0,4.431,0ZM5.162,20.679a3.7,3.7,0,0,1-1.23-7.174c.933-.331.309-.949.492-12.028H5.9c.187,11.335-.411,11.708.492,12.028A3.7,3.7,0,0,1,5.162,20.679Z" transform="translate(2.963 16.246)"/><path class="a" d="M0,.733a.739.739,0,0,0,1.477,0A.739.739,0,0,0,0,.733Z" transform="translate(0.74 40.623)"/><path class="a" d="M.733,0a.739.739,0,0,0,0,1.477A.739.739,0,0,0,.733,0Z" transform="translate(3.7 42.095)"/><path class="a" d="M0,.733a.739.739,0,0,0,1.477,0A.739.739,0,0,0,0,.733Z" transform="translate(11.079 42.1)"/><path class="a" d="M0,.733a.739.739,0,0,0,1.477,0A.739.739,0,0,0,0,.733Z" transform="translate(7.387 42.839)"/><path class="a" d="M.733,0a.739.739,0,0,0,0,1.477A.739.739,0,0,0,.733,0Z" transform="translate(14.039 40.618)"/><path class="a" d="M.733,1.477A.739.739,0,0,0,.733,0,.739.739,0,0,0,.733,1.477Z" transform="translate(30.287 0.737)"/></g></svg>