<svg xmlns="http://www.w3.org/2000/svg" width="38.928" height="47.906" viewBox="0 0 38.928 47.906"><defs><style>.a{fill:#2dbdca;}</style></defs><g transform="translate(0 0)"><path class="a" d="M1.5,6.648a.749.749,0,0,0,0,1.5c2.474,0,3.743-1.969,3.743-4.491C5.24-1.091,0-1.08,0,2.905a.749.749,0,0,0,1.5,0C1.5.856,3.743.972,3.743,3.654,3.743,4.554,3.524,6.648,1.5,6.648Z" transform="translate(24.7 14.175)"/><path class="a" d="M5.24,0A5.246,5.246,0,0,0,0,5.24v5.988a.749.749,0,0,0,1.5,0V5.24a3.743,3.743,0,0,1,7.486,0v5.988a.749.749,0,0,0,1.5,0V5.24A5.246,5.246,0,0,0,5.24,0Z" transform="translate(22.454 35.929)"/><path class="a" d="M.749,1.5h1.5a.749.749,0,0,0,0-1.5H.749a.749.749,0,1,0,0,1.5Z" transform="translate(7.484 23.952)"/><path class="a" d="M0,.743v1.5a.749.749,0,0,0,1.5,0V.743A.749.749,0,0,0,0,.743Z" transform="translate(11.975 29.197)"/><path class="a" d="M.218,1.727A.749.749,0,0,0,.747,3C1.278,3,1.4,2.57,2.774,1.288A.749.749,0,0,0,1.715.23Z" transform="translate(8.233 26.935)"/><path class="a" d="M8.982,5.988A2.248,2.248,0,0,0,6.736,8.234V9.923a.557.557,0,0,1-1.084.176L4.521,6.707l.9-3.6A2.5,2.5,0,0,0,2.993,0C2.069,0,2.332.858.047,6.474c-.15.4-.064.083,2.2,10.079V20.96a.749.749,0,0,0,1.5,0V16.468c0-.161.112.428-2.214-9.68l1.94-5.173a1,1,0,0,1,.5,1.13C3.023,6.688,2.911,6.61,3.032,6.974l1.2,3.6a2.055,2.055,0,0,0,4-.649V8.234a.749.749,0,0,1,1.5,0,11.687,11.687,0,0,1-2.1,7.785c-.3.4-.092.413.2,5A.749.749,0,0,0,9.325,20.9L9,16.687a13.162,13.162,0,0,0,2.227-8.452A2.248,2.248,0,0,0,8.982,5.988Z" transform="translate(0 26.197)"/><path class="a" d="M30.136,15.486c.876-3.722.744-7.093-.37-9.493A5.1,5.1,0,0,0,25.85,2.81C24.2-.292,20.515-.3,17.065.329a.749.749,0,0,0,.27,1.473c7.65-1.4,6.67,2.417,8,2.465a3.609,3.609,0,0,1,3.074,2.357c.959,2.067,1.058,5.172.27,8.52a31.2,31.2,0,0,1-5.7,11.51,7.447,7.447,0,0,1-3.073-2.4.749.749,0,0,0-1.2.892,9.062,9.062,0,0,0,3.77,2.918v2.922a32.441,32.441,0,0,1-10.447,3.365c2.207-3.161,1.2-.389,1.464-5.909a.749.749,0,0,0-.288-.59c-.5-.391-.8-.006-3.993.7a2.1,2.1,0,0,1-2.257-.872c.876-.568,2.352-.759,2-1.737C8.414,24.428,7.875,23.362,5.6,23.5c-.374-1.087-.307-1.436-.7-1.678L3.175,20.758c1.873-2.489,2.078-2.48,2.078-2.929V13.718c2.338.892,4.36.308,9.731.5a.749.749,0,0,0,0-1.5H8.048c-.14-.1-5.976.615-6.505-8.185,2.286,1.188,6.079-.113,10.1-1.282A.749.749,0,0,0,11.22,1.82c-4.38,1.373-8.678,2.623-9.771.7a.745.745,0,0,0-1.414.285C-.209,6.208.8,10.82,3.756,12.919v4.654L1.481,20.5a.749.749,0,0,0,.2,1.1l2.19,1.347c.362.838.3,2.245,1.3,2.1,1.643-.237,1.892.169,2.147.783-.982.623-2.347.772-2.061,1.723a3.592,3.592,0,0,0,4.317,2.456L11.99,29.4V31.91C8.727,35.828,6,41.674,6,47.157a.749.749,0,0,0,1.5,0A22.371,22.371,0,0,1,11,35.92c5-.162,10.261-2.633,12-3.52,7.108,9.807,3.261,15.505,5.46,15.505a.749.749,0,0,0,.749-.749,24.068,24.068,0,0,0-5.24-15.968V27.818A32.872,32.872,0,0,0,30.136,15.486Z" transform="translate(8.219 0)"/><path class="a" d="M1.5.743a.749.749,0,0,0-1.5,0A.749.749,0,0,0,1.5.743Z" transform="translate(21.707 0.752)"/></g></svg>