<svg xmlns="http://www.w3.org/2000/svg" width="37.328" height="45.964" viewBox="0 0 37.328 45.964"><defs><style>.a{fill:#2dbdca;}</style></defs><path class="a" d="M0,.673v.72a.673.673,0,0,0,1.347,0V.673A.673.673,0,1,0,0,.673Z" transform="translate(13.673 18.711)"/><path class="a" d="M0,.673v.72a.673.673,0,0,0,1.347,0V.673A.673.673,0,0,0,0,.673Z" transform="translate(22.309 18.711)"/><path class="a" d="M4.205.51A.673.673,0,0,0,3.389.02L.51.74A.673.673,0,1,0,.837,2.046l2.878-.72A.673.673,0,0,0,4.205.51Z" transform="translate(11.514 15.832)"/><path class="a" d="M3.553,2.067A.673.673,0,0,0,3.715.74L.837.02A.673.673,0,0,0,.51,1.327l2.878.72A.673.673,0,0,0,3.553,2.067Z" transform="translate(21.589 15.832)"/><path class="a" d="M34.836,40.419l-7.474-2.336a2.2,2.2,0,0,1-1.547-2.1V34.5a.673.673,0,1,0-1.347,0v1.482a3.536,3.536,0,0,0,1.355,2.794,10.119,10.119,0,0,1-14.317,0,3.536,3.536,0,0,0,1.355-2.794V32.152a11.458,11.458,0,0,0,17.175-8.5H30.9a2.844,2.844,0,0,0,2.055-.883,2.8,2.8,0,0,0-.662-4.383V7.87A7.879,7.879,0,0,0,24.421,0H15.066a3.544,3.544,0,0,0-3.257,2.159H10.748A5.717,5.717,0,0,0,5.037,7.87v8.211a.673.673,0,1,0,1.347,0V7.87a4.369,4.369,0,0,1,4.364-4.364h1.541a.673.673,0,0,0,.652-.5,2.2,2.2,0,0,1,2.125-1.654h9.355A6.53,6.53,0,0,1,30.944,7.87V18c-.056,0-.112,0-.169,0h-.6a1.487,1.487,0,0,1-1.486-1.486v-3.6a3.556,3.556,0,0,0-3.552-3.552.673.673,0,0,0,0,1.347,2.208,2.208,0,0,1,2.205,2.205v3.6a2.833,2.833,0,0,0,1.439,2.464v1.853A1.487,1.487,0,0,1,27.3,22.309H10.029a1.487,1.487,0,0,1-1.486-1.486V18.97a2.834,2.834,0,0,0,1.439-2.464v-3.6A2.208,2.208,0,0,1,12.188,10.7H22.262a.673.673,0,1,0,0-1.347H12.188a3.556,3.556,0,0,0-3.552,3.552v3.6A1.487,1.487,0,0,1,7.15,17.991h-.6A2.9,2.9,0,0,0,3.6,20.672a2.81,2.81,0,0,0,.774,2.1,2.844,2.844,0,0,0,2.055.883h.863a11.432,11.432,0,0,0,3.525,6.964q.337.317.7.6v4.755a2.2,2.2,0,0,1-1.547,2.1L2.492,40.419A3.537,3.537,0,0,0,0,43.809v1.482a.673.673,0,1,0,1.347,0V43.809a2.2,2.2,0,0,1,1.548-2.1l4.377-1.368a14.338,14.338,0,0,0,22.785,0L34.434,41.7a2.2,2.2,0,0,1,1.547,2.1v1.482a.673.673,0,0,0,1.347,0V43.809a3.536,3.536,0,0,0-2.492-3.39Zm-4.7-21.082Zm0,1.487V19.338h.644a1.571,1.571,0,0,1,1.606,1.4A1.486,1.486,0,0,1,30.9,22.309H29.71A2.815,2.815,0,0,0,30.132,20.823ZM6.43,22.309a1.486,1.486,0,0,1-1.484-1.567,1.571,1.571,0,0,1,1.606-1.4H7.2v1.486a2.815,2.815,0,0,0,.422,1.486H6.43Zm2.221,1.347H28.677a10.025,10.025,0,0,1-.335,1.532H15.786a.673.673,0,1,0,0,1.347H26.63a13.817,13.817,0,0,1-7.966,2.252A13.816,13.816,0,0,1,10.7,26.534h2.209a.673.673,0,1,0,0-1.347H8.987a10.047,10.047,0,0,1-.335-1.532Zm1.6,4.215a15.3,15.3,0,0,0,8.41,2.262,15.3,15.3,0,0,0,8.41-2.262,10.091,10.091,0,0,1-16.82,0Zm14.369,15.3a12.855,12.855,0,0,1-5.959,1.443A13.055,13.055,0,0,1,8.649,39.906l1.6-.5a11.466,11.466,0,0,0,16.833,0l1.6.5a13.126,13.126,0,0,1-4.057,3.269Z" transform="translate(0 0)"/></svg>