<svg id="credit-card_1_" data-name="credit-card (1)" xmlns="http://www.w3.org/2000/svg" width="48.591" height="41.125" viewBox="0 0 48.591 41.125">
  <path id="Path_1694" data-name="Path 1694" d="M102.4,42.373V65.513A3.026,3.026,0,0,1,99.36,68.55H62.493a3.026,3.026,0,0,1-3.037-3.037V42.373a3.036,3.036,0,0,1,3.037-3.037H99.36A3.036,3.036,0,0,1,102.4,42.373Z" transform="translate(-53.814 -39.336)" fill="#6f7070"/>
  <rect id="Rectangle_227" data-name="Rectangle 227" width="42.956" height="4.932" transform="translate(5.635 5.524)" fill="#464646"/>
  <g id="Group_144" data-name="Group 144" transform="translate(26.07 1.244)">
    <path id="Path_1695" data-name="Path 1695" d="M286.022,52.44h-9.8a1.518,1.518,0,0,0,0,3.037h9.8a1.518,1.518,0,1,0,0-3.037Z" transform="translate(-274.704 -52.44)" fill="#787878"/>
    <path id="Path_1696" data-name="Path 1696" d="M428.766,52.44H426.11a1.518,1.518,0,0,0,0,3.037h2.656a1.518,1.518,0,0,0,0-3.037Z" transform="translate(-410.367 -52.44)" fill="#787878"/>
  </g>
  <g id="Group_145" data-name="Group 145" transform="translate(8.14 6.471)">
    <path id="Path_1697" data-name="Path 1697" d="M94.7,107.528h-7.4a1.518,1.518,0,0,0,0,3.037h7.4a1.518,1.518,0,0,0,0-3.037Z" transform="translate(-85.776 -107.528)" fill="#3e3e3e"/>
    <path id="Path_1698" data-name="Path 1698" d="M214.621,107.528h-2.654a1.518,1.518,0,0,0,0,3.037h2.654a1.518,1.518,0,0,0,0-3.037Z" transform="translate(-198.617 -107.528)" fill="#3e3e3e"/>
  </g>
  <g id="Group_146" data-name="Group 146" transform="translate(41.872 14.637)" opacity="0.07">
    <path id="Path_1699" data-name="Path 1699" d="M447.927,199.24v5.876a3.026,3.026,0,0,1-3.037,3.037h-3.675l1.048-14.577Z" transform="translate(-441.216 -193.576)" fill="#010101"/>
  </g>
  <path id="Path_1700" data-name="Path 1700" d="M39.916,194.011H3.037A3.036,3.036,0,0,1,0,190.974V167.829a3.037,3.037,0,0,1,3.037-3.037H39.916a3.037,3.037,0,0,1,3.037,3.037v23.144A3.037,3.037,0,0,1,39.916,194.011Z" transform="translate(0 -152.886)" fill="#4b9fd8"/>
  <g id="Group_147" data-name="Group 147" transform="translate(0 11.906)">
    <path id="Path_1701" data-name="Path 1701" d="M19.618,164.792A56.152,56.152,0,0,0,.03,191.273a2.958,2.958,0,0,1-.03-.38V167.753a3.031,3.031,0,0,1,2.354-2.961Z" transform="translate(0 -164.792)" fill="#3a9bd6"/>
    <path id="Path_1702" data-name="Path 1702" d="M245.9,220.121a56.151,56.151,0,0,0,19.587-26.481,2.956,2.956,0,0,1,.03.38V217.16a3.03,3.03,0,0,1-2.354,2.961Z" transform="translate(-222.568 -190.902)" fill="#3a9bd6"/>
  </g>
  <circle id="Ellipse_69" data-name="Ellipse 69" cx="3.699" cy="3.699" r="3.699" transform="translate(25.69 16.461)" fill="#fee218"/>
  <circle id="Ellipse_70" data-name="Ellipse 70" cx="3.699" cy="3.699" r="3.699" transform="translate(31.001 16.461)" fill="#cd494c"/>
  <g id="Group_148" data-name="Group 148" transform="translate(4.007 18.642)">
    <path id="Path_1703" data-name="Path 1703" d="M50.926,320.917H43.742a1.518,1.518,0,0,1,0-3.037h7.184a1.518,1.518,0,0,1,0,3.037Z" transform="translate(-42.224 -310.088)" fill="#fff"/>
    <path id="Path_1704" data-name="Path 1704" d="M57.343,238.8h-13.6a1.518,1.518,0,1,1,0-3.037h13.6a1.518,1.518,0,1,1,0,3.037Z" transform="translate(-42.224 -235.768)" fill="#fff"/>
  </g>
  <path id="Path_1705" data-name="Path 1705" d="M48.175,403.029H43.726a1.518,1.518,0,1,1,0-3.037h4.449a1.518,1.518,0,1,1,0,3.037Z" transform="translate(-38.202 -365.765)" fill="#8bd5ec"/>
  <path id="Path_1706" data-name="Path 1706" d="M144.623,403.029h-4.449a1.518,1.518,0,0,1,0-3.037h4.449a1.518,1.518,0,1,1,0,3.037Z" transform="translate(-125.497 -365.765)" fill="#daeff6"/>
  <path id="Path_1707" data-name="Path 1707" d="M241.055,403.029h-4.449a1.518,1.518,0,0,1,0-3.037h4.449a1.518,1.518,0,1,1,0,3.037Z" transform="translate(-212.778 -365.765)" fill="#8bd5ec"/>
  <path id="Path_1708" data-name="Path 1708" d="M337.487,403.029h-4.449a1.518,1.518,0,1,1,0-3.037h4.449a1.518,1.518,0,0,1,0,3.037Z" transform="translate(-300.058 -365.765)" fill="#daeff6"/>
</svg>
