<svg xmlns="http://www.w3.org/2000/svg" width="47" height="47" viewBox="0 0 47 47"><defs><style>.a{fill:#2dbdca;}</style></defs><g transform="translate(0 0)"><path class="a" d="M40.117,6.883A23.5,23.5,0,0,0,6.883,40.117,23.5,23.5,0,0,0,40.117,6.883ZM38.17,38.17A20.746,20.746,0,1,1,8.83,8.83,20.746,20.746,0,1,1,38.17,38.17Z" transform="translate(0 0)"/></g><g transform="translate(9.586 9.586)"><path class="a" d="M124.144,112.53v-8.107H112.53v8.107h-8.107v11.614h8.107v8.107h11.614v-8.107h8.107V112.53Zm5.353,8.861h-8.107V129.5h-6.107v-8.107h-8.107v-6.107h8.107v-8.107h6.107v8.107H129.5Z" transform="translate(-104.423 -104.423)"/></g></svg>