<svg xmlns="http://www.w3.org/2000/svg" width="28.182" height="28.182" viewBox="0 0 28.182 28.182"><defs><style>.a{fill:#2dbdca;}</style></defs><g transform="translate(0 0)"><path class="a" d="M24.055,4.127A14.091,14.091,0,0,0,4.127,24.055,14.091,14.091,0,0,0,24.055,4.127Zm-1.168,18.76A12.44,12.44,0,1,1,5.295,5.295,12.44,12.44,0,1,1,22.887,22.887Z" transform="translate(0 0)"/></g><g transform="translate(5.748 5.748)"><path class="a" d="M116.248,109.284v-4.861h-6.964v4.861h-4.861v6.964h4.861v4.861h6.964v-4.861h4.861v-6.964Zm3.21,5.313H114.6v4.861h-3.662V114.6h-4.861v-3.662h4.861v-4.861H114.6v4.861h4.861Z" transform="translate(-104.423 -104.423)"/></g></svg>