<svg xmlns="http://www.w3.org/2000/svg" width="34.054" height="21" viewBox="0 0 34.054 21"><defs><style>.a{fill:#f4efe4;}.b{fill:#f48221;}</style></defs><g transform="translate(0.22 -0.443)"><g transform="translate(0 0)"><rect class="a" width="34" height="21" rx="2" transform="translate(-0.22 0.443)"/><g transform="translate(4.166 7.609)"><path d="M10.16,8.637c-.475-.175-.615-.289-.615-.51,0-.254.249-.448.591-.448a.819.819,0,0,1,.64.327l.412-.54A1.77,1.77,0,0,0,10,7.015,1.193,1.193,0,0,0,8.732,8.176c0,.558.255.844,1,1.115a3.134,3.134,0,0,1,.549.231.486.486,0,0,1,.237.42.578.578,0,0,1-.616.573.937.937,0,0,1-.864-.544l-.51.495a1.581,1.581,0,0,0,1.4.771A1.312,1.312,0,0,0,11.33,9.9c0-.644-.269-.937-1.17-1.266" transform="translate(-3.731 -6.992)"/><path d="M11.406,9.113a2.1,2.1,0,0,0,2.141,2.119,2.186,2.186,0,0,0,.991-.237v-.932a1.257,1.257,0,0,1-.955.445,1.325,1.325,0,0,1-1.362-1.4,1.348,1.348,0,0,1,1.327-1.392,1.32,1.32,0,0,1,.991.456V7.24a2.011,2.011,0,0,0-.974-.247,2.131,2.131,0,0,0-2.159,2.12" transform="translate(-3.559 -6.993)"/><ellipse class="b" cx="2.119" cy="2.119" rx="2.119" ry="2.119" transform="translate(11.347 0.03)"/><path d="M5.3,7H4v4.231H5.207A2.206,2.206,0,0,0,6.72,10.74a2.127,2.127,0,0,0,.77-1.629A2.091,2.091,0,0,0,5.3,7Zm.878,3.177a1.574,1.574,0,0,1-1.133.337H4.828v-2.8h.221a1.544,1.544,0,0,1,1.133.341,1.429,1.429,0,0,1,.456,1.055A1.453,1.453,0,0,1,6.182,10.177Z" transform="translate(-4 -6.993)"/><rect width="0.823" height="4.231" transform="translate(3.772 0.007)"/><path d="M21.64,7,20.523,9.774,19.422,7h-.88l1.752,4.238h.432L22.514,7Z" transform="translate(-3.134 -6.993)"/><path d="M24.893,7.707V7H22.549v4.227h2.344v-.718H23.374V9.364h1.46V8.647h-1.46v-.94Z" transform="translate(-2.896 -6.993)"/><path d="M26.841,9.452a1.127,1.127,0,0,0,.965-1.2c0-.764-.515-1.2-1.4-1.238H25.08v4.226h.828v-1.7h.109l1.141,1.7h1.016Zm-.692-.5h-.242V7.666h.254c.515,0,.793.217.793.63S26.678,8.948,26.149,8.948Z" transform="translate(-2.745 -6.992)"/></g><path class="b" d="M9,20.536H33.37V11Z" transform="translate(0.464 0.854)"/></g></g></svg>