<svg xmlns="http://www.w3.org/2000/svg" width="23.246" height="24.226" viewBox="0 0 23.246 24.226"><defs><style>.a{fill:#2dbdca;}</style></defs><g transform="translate(0 0)"><path class="a" d="M32.484,12.425a.71.71,0,0,1,0-.628l.9-1.848a2.1,2.1,0,0,0-.907-2.793l-1.817-.964a.71.71,0,0,1-.369-.508l-.355-2.027a2.1,2.1,0,0,0-2.376-1.726l-2.037.288a.71.71,0,0,1-.6-.194L23.45.6a2.1,2.1,0,0,0-2.936,0L19.035,2.026a.71.71,0,0,1-.6.194L16.4,1.932a2.1,2.1,0,0,0-2.376,1.726L13.67,5.684a.71.71,0,0,1-.369.508l-1.817.964a2.1,2.1,0,0,0-.907,2.793l.9,1.848a.71.71,0,0,1,0,.628l-.9,1.848a2.1,2.1,0,0,0,.907,2.793l1.817.964a.71.71,0,0,1,.369.508l.355,2.027A2.1,2.1,0,0,0,16.1,22.312a2.161,2.161,0,0,0,.3-.021L18.438,22a.71.71,0,0,1,.6.194l1.479,1.43a2.1,2.1,0,0,0,2.936,0l1.479-1.43a.711.711,0,0,1,.6-.194l2.037.288a2.1,2.1,0,0,0,2.376-1.726l.355-2.026a.71.71,0,0,1,.369-.508l1.817-.964a2.1,2.1,0,0,0,.907-2.793Zm-.659,3.407-1.817.964a2.1,2.1,0,0,0-1.09,1.5l-.355,2.026a.712.712,0,0,1-.8.584l-2.037-.288a2.1,2.1,0,0,0-1.764.573l-1.479,1.43a.712.712,0,0,1-.993,0l-1.479-1.43a2.1,2.1,0,0,0-1.463-.594,2.144,2.144,0,0,0-.3.021l-2.037.288a.712.712,0,0,1-.8-.584L15.046,18.3a2.1,2.1,0,0,0-1.09-1.5l-1.817-.964a.712.712,0,0,1-.307-.945l.9-1.848a2.1,2.1,0,0,0,0-1.855l-.9-1.848a.712.712,0,0,1,.307-.945l1.817-.964a2.1,2.1,0,0,0,1.09-1.5L15.4,3.9a.712.712,0,0,1,.8-.584l2.037.288a2.1,2.1,0,0,0,1.764-.573L21.485,1.6a.712.712,0,0,1,.993,0l1.479,1.43a2.1,2.1,0,0,0,1.764.573l2.037-.288a.712.712,0,0,1,.8.584l.355,2.027a2.1,2.1,0,0,0,1.09,1.5l1.817.964a.711.711,0,0,1,.307.945l-.9,1.848a2.1,2.1,0,0,0,0,1.855l.9,1.848A.712.712,0,0,1,31.825,15.832Z" transform="translate(-10.359 0.002)"/></g><g transform="translate(6.632 7.122)"><g transform="translate(0)"><path class="a" d="M153.581,143.984a.657.657,0,0,0-.929,0l-8.669,8.669a.657.657,0,0,0,.929.929l8.669-8.669A.657.657,0,0,0,153.581,143.984Z" transform="translate(-143.791 -143.791)"/></g></g><g transform="translate(6.373 5.919)"><g transform="translate(0)"><path class="a" d="M145.21,123.116a2.408,2.408,0,1,0,2.408,2.408A2.411,2.411,0,0,0,145.21,123.116Zm0,3.5a1.095,1.095,0,1,1,1.095-1.095A1.1,1.1,0,0,1,145.21,126.619Z" transform="translate(-142.802 -123.116)"/></g></g><g transform="translate(12.057 13.491)"><g transform="translate(0)"><path class="a" d="M263.33,280.61a2.408,2.408,0,1,0,2.408,2.408A2.411,2.411,0,0,0,263.33,280.61Zm0,3.5a1.095,1.095,0,1,1,1.095-1.094A1.1,1.1,0,0,1,263.33,284.113Z" transform="translate(-260.922 -280.61)"/></g></g></svg>