<svg xmlns="http://www.w3.org/2000/svg" width="47.849" height="47.849" viewBox="0 0 47.849 47.849"><defs><style>.a{fill:#2dbdca;}</style></defs><g transform="translate(48 -1)"><path class="a" d="M44.344,9.923H35.338a.7.7,0,1,0,0,1.4h9.006a2.105,2.105,0,0,1,2.1,2.1v23.8a2.105,2.105,0,0,1-2.1,2.1H3.5a2.105,2.105,0,0,1-2.1-2.1v-23.8a2.105,2.105,0,0,1,2.1-2.1H15.08v.705c0,.234.01.467.028.7H3.785a.982.982,0,0,0-.981.981V31.092a.7.7,0,1,0,1.4,0V14.129H15.329A8.96,8.96,0,0,0,19.756,19.9v1.57a.855.855,0,0,1-.584.811l-6.765,2.275a5.366,5.366,0,0,0-3.662,5.09v6.88H4.205V34.363a.7.7,0,1,0-1.4,0v2.582a.982.982,0,0,0,.981.981H44.064a.982.982,0,0,0,.981-.981V13.708a.982.982,0,0,0-.981-.981H32.748q.02-.3.021-.608V4.236A4.241,4.241,0,0,0,28.532,0H19.317A4.241,4.241,0,0,0,15.08,4.236V9.923H3.5a3.508,3.508,0,0,0-3.5,3.5v23.8a3.508,3.508,0,0,0,3.5,3.5H20.492v2.914h-.885a3.228,3.228,0,0,0-3.224,3.224.982.982,0,0,0,.981.981H30.485a.982.982,0,0,0,.981-.981,3.228,3.228,0,0,0-3.224-3.224h-.885V40.729H44.344a3.508,3.508,0,0,0,3.5-3.5v-23.8a3.508,3.508,0,0,0-3.5-3.5ZM37.7,36.524H10.147v-6.88a3.965,3.965,0,0,1,2.707-3.762l1.583-.532a7.253,7.253,0,0,0,.085,2.967,3.579,3.579,0,0,0-2.666,3.456V34.08a1.185,1.185,0,0,0,1.183,1.183h.655a.7.7,0,1,0,0-1.4h-.437V31.773a2.174,2.174,0,0,1,2.17-2.171h0A2.174,2.174,0,0,1,17.6,31.773v2.088h-.437a.7.7,0,1,0,0,1.4h.655A1.185,1.185,0,0,0,19,34.079V31.773a3.579,3.579,0,0,0-3.052-3.535,5.883,5.883,0,0,1,.058-3.416l3.146-1.058,3.956,3.952a1.264,1.264,0,0,0,1.783,0L28.81,23.8l3.441,1.157a5.58,5.58,0,0,1,.035,3.912,3.217,3.217,0,1,0,1.44.106,6.915,6.915,0,0,0,.142-3.474L35,25.882A3.966,3.966,0,0,1,37.7,29.644ZM27.463,23.168,24,26.624l-3.536-3.532a2.253,2.253,0,0,0,.692-1.625v-.962a8.719,8.719,0,0,0,2.735.448h.032a8.87,8.87,0,0,0,2.766-.439v.952a2.255,2.255,0,0,0,.772,1.7Zm5.312,7.068h0a1.813,1.813,0,1,1-1.816,1.813A1.816,1.816,0,0,1,32.777,30.236ZM32.54,14.129h11.1v22.4H39.1v-6.88a5.366,5.366,0,0,0-3.662-5.09l-6.765-2.275a.855.855,0,0,1-.584-.811V19.916a8.874,8.874,0,0,0,2.078-1.542,8.773,8.773,0,0,0,2.369-4.246ZM16.482,4.236A2.838,2.838,0,0,1,19.317,1.4h9.215a2.838,2.838,0,0,1,2.835,2.835v4.2a6.689,6.689,0,0,1-2.491-.794,6.651,6.651,0,0,1-2.039-1.749,1.13,1.13,0,0,0-1.511-.251,17.037,17.037,0,0,1-3.046,1.6,17.119,17.119,0,0,1-5.8,1.222Zm0,5.636A18.517,18.517,0,0,0,22.8,8.546a18.439,18.439,0,0,0,3.084-1.6A8.036,8.036,0,0,0,28.2,8.869a8.109,8.109,0,0,0,3.17.978v2.272a7.453,7.453,0,0,1-4.23,6.709.685.685,0,0,0-.089.042,7.413,7.413,0,0,1-3.15.682h0a7.5,7.5,0,0,1-7.416-7.522c0-.009,0-2.151,0-2.158Zm5.412,30.857h4.061v2.914H21.894Zm6.348,4.316a1.826,1.826,0,0,1,1.773,1.4H17.833a1.825,1.825,0,0,1,1.773-1.4Z" transform="translate(-48 1)"/></g></svg>