<svg xmlns="http://www.w3.org/2000/svg" width="40.753" height="45.95" viewBox="0 0 40.753 45.95"><defs><style>.a{fill:#2dbdca;}</style></defs><g transform="translate(-28.952)"><g transform="translate(28.952)"><path class="a" d="M69.676,43.6,67.643,31.7a3.387,3.387,0,0,0-2.374-2.688l-5.483-1.654a6.115,6.115,0,0,0-4.243-5.311c.174-.193.334-.385.482-.572a10.642,10.642,0,0,0,2.18-4.732h.423a2,2,0,0,0,2-2V13.722a2.009,2.009,0,0,0-1.034-1.745V9.518a.673.673,0,1,0-1.346,0v2.761a4.148,4.148,0,0,0-.895.259.676.676,0,0,0-.095.042c-.072.033-.145.068-.217.107V7.264A2.72,2.72,0,0,0,54.32,4.547H52.463a2.792,2.792,0,0,0-1.762.629l-.182.149a1.88,1.88,0,0,1-2.38,0l-.182-.149a2.792,2.792,0,0,0-1.762-.629H44.337A2.72,2.72,0,0,0,41.62,7.264v5.423c-.072-.039-.144-.074-.217-.107a.675.675,0,0,0-.095-.042,4.149,4.149,0,0,0-.895-.259V5.3a3.956,3.956,0,0,1,3.951-3.951h9.926A3.956,3.956,0,0,1,58.243,5.3V6.355a.673.673,0,1,0,1.346,0V5.3a5.3,5.3,0,0,0-5.3-5.3H44.366a5.3,5.3,0,0,0-5.3,5.3v6.68a2.009,2.009,0,0,0-1.034,1.745v1.023a2,2,0,0,0,2,2h.423a10.641,10.641,0,0,0,2.18,4.732c.147.188.308.379.482.572a6.137,6.137,0,0,0-4.243,5.311l-5.483,1.654A3.387,3.387,0,0,0,31.014,31.7l-.825,4.833a.673.673,0,0,0,1.327.227l.825-4.833A2.049,2.049,0,0,1,33.776,30.3l5.071-1.53V30.1a3.367,3.367,0,0,0-2.559,2.119,3.412,3.412,0,0,0-.2.914l-.49,6.291A1.71,1.71,0,0,0,37.3,41.264h.839a.673.673,0,1,0,0-1.346H37.3a.364.364,0,0,1-.363-.393l.49-6.291a2.066,2.066,0,0,1,.121-.553,2.035,2.035,0,0,1,1.9-1.3h.126a2.016,2.016,0,0,1,1.879,1.205,2.064,2.064,0,0,1,.158.646l.49,6.291a.364.364,0,0,1-.363.393h-.839a.673.673,0,1,0,0,1.346h.839a1.71,1.71,0,0,0,1.705-1.843l-.49-6.291a3.408,3.408,0,0,0-.26-1.067,3.331,3.331,0,0,0-2.507-1.97V28.361l2.313-.7c.21.443.628,1.4,1.454,3.466.833,2.083,1.867,4.754,2.86,7.35a.684.684,0,0,0,.024.064c.662,1.733,1.3,3.431,1.854,4.895a.673.673,0,0,0,1.26,0c.549-1.464,1.192-3.162,1.854-4.895a.67.67,0,0,0,.024-.064c.992-2.594,2.026-5.263,2.858-7.346.827-2.067,1.245-3.026,1.455-3.47l2.313.7v3.974a3.481,3.481,0,1,0,1.346,0V28.767l5.071,1.53a2.049,2.049,0,0,1,1.436,1.626l2.033,11.9a.668.668,0,0,1-.659.781H30.966a.668.668,0,0,1-.659-.781l.671-3.927a.673.673,0,0,0-1.327-.227L28.981,43.6a2.014,2.014,0,0,0,1.985,2.353H67.691A2.014,2.014,0,0,0,69.676,43.6ZM58.251,13.649a2.888,2.888,0,0,1,.65-.088.688.688,0,0,0,.329-.078.637.637,0,0,1,.048.238v1.023a.65.65,0,0,1-.649.649h-.377ZM40.406,15.394h-.377a.65.65,0,0,1-.649-.649V13.722a.638.638,0,0,1,.048-.238.686.686,0,0,0,.329.078,3,3,0,0,1,.65.088Zm1.346.754V14.381a.944.944,0,0,0,1.214-.905V7.264a1.373,1.373,0,0,1,1.371-1.371h1.857a1.442,1.442,0,0,1,.911.325l.182.149a3.226,3.226,0,0,0,4.083,0l.182-.149a1.442,1.442,0,0,1,.911-.325H54.32a1.373,1.373,0,0,1,1.371,1.371v6.212a.944.944,0,0,0,1.214.906v1.767a8.7,8.7,0,0,1-1.938,4.491,8.872,8.872,0,0,1-1.613,1.6.673.673,0,0,0-.06.045,6.559,6.559,0,0,1-7.932,0,.682.682,0,0,0-.06-.045,8.878,8.878,0,0,1-1.613-1.6A8.7,8.7,0,0,1,41.752,16.148ZM53.737,27.02l-4.408,3.295L44.92,27.02a3.191,3.191,0,0,0,.682-1.905V24.03a7.9,7.9,0,0,0,7.452,0v1.085A3.191,3.191,0,0,0,53.737,27.02Zm-9.94-.751a1.84,1.84,0,0,0-1.135-.057l-.048.013-2.325.7a4.78,4.78,0,0,1,3.967-3.77v1.959A1.779,1.779,0,0,1,43.8,26.269Zm1.826,5.4,0-.009-.1-.255L45.5,31.36l-.1-.244L45.4,31.1q-.15-.376-.288-.721l-.02-.05-.079-.2-.028-.07-.075-.185-.022-.054-.131-.322-.035-.085-.049-.12-.052-.128-.02-.048-.015-.037q-.117-.283-.222-.534l0,0-.109-.259-.054-.127,3.791,2.834-1.584.673-.008,0-.661.281Zm1.606,4.12-.4-1.038q-.315-.813-.6-1.548l.251-.107L47.5,34.29Zm2.113,5.469a.67.67,0,0,0-.069-.113c-.3-.8-.69-1.821-1.117-2.939l.628-3.439h1.089l.628,3.439C50.054,39.379,49.652,40.439,49.342,41.259Zm.784-7.838H48.532l-.754-.877,1.551-.659,1.551.659Zm1.7,1.33-.4,1.038-.274-1.5L52.18,33.1l.251.107Q52.143,33.94,51.829,34.752Zm2.577-6.466-.1.245-.014.033-.107.257-.007.018-.1.236-.018.044-.023.055-.045.109-.056.136-.018.045-.144.355-.023.057-.074.183-.029.073-.078.193-.022.055q-.137.341-.284.711l-.01.024-.1.243-.018.046-.1.257,0,0-.112.284-.662-.281-.007,0-1.585-.673,3.791-2.834Zm1.636-2.061h0a1.839,1.839,0,0,0-1.181.045,1.779,1.779,0,0,1-.459-1.154v-1.96a4.743,4.743,0,0,1,3.97,3.772Zm5.222,9.528a2.136,2.136,0,1,1-2.136-2.136A2.138,2.138,0,0,1,61.265,35.752Z" transform="translate(-28.952)"/></g></g></svg>