<svg xmlns="http://www.w3.org/2000/svg" width="37.979" height="37.979" viewBox="0 0 37.979 37.979"><defs><style>.a{fill:#ff9500;}</style></defs><g transform="translate(14.242 15.825)"><path class="a" d="M194.374,213.333h-1.582a.791.791,0,0,0,0,1.583h1.582a.791.791,0,0,0,0-1.583Z" transform="translate(-192 -213.333)"/></g><g transform="translate(20.572 15.825)"><path class="a" d="M279.707,213.333h-1.582a.791.791,0,1,0,0,1.583h1.582a.791.791,0,1,0,0-1.583Z" transform="translate(-277.333 -213.333)"/></g><g transform="translate(25.666 9.683)"><path class="a" d="M350.4,133.512a11.13,11.13,0,0,0-.255-2.352.792.792,0,0,0-1.548.335,9.528,9.528,0,0,1,.22,2.016,9.3,9.3,0,0,1-.248,2.03.776.776,0,0,0,.022.421,4.8,4.8,0,0,1,.226,1.5c0,1.53-.573,2.361-.842,2.337a.79.79,0,0,0-1.185.481,13.414,13.414,0,0,1-.725,2.143.792.792,0,0,0,1.451.635,14.98,14.98,0,0,0,.6-1.641c1.307-.076,2.282-1.75,2.282-3.955a6.541,6.541,0,0,0-.241-1.791A10.52,10.52,0,0,0,350.4,133.512Z" transform="translate(-346.002 -130.535)"/></g><g transform="translate(7.912 9.683)"><path class="a" d="M110.936,142.281a13.524,13.524,0,0,1-.658-1.991.8.8,0,0,0-.5-.524.856.856,0,0,0-.741.081c-.2,0-.791-.842-.791-2.374a4.78,4.78,0,0,1,.226-1.5.778.778,0,0,0,.022-.421,9.324,9.324,0,0,1-.248-2.032,9.435,9.435,0,0,1,.222-2.016.792.792,0,1,0-1.548-.335,11.031,11.031,0,0,0-.256,2.352,10.514,10.514,0,0,0,.241,2.165,6.543,6.543,0,0,0-.241,1.791c0,2.2.975,3.879,2.282,3.955a15.03,15.03,0,0,0,.527,1.467.793.793,0,0,0,.73.484.805.805,0,0,0,.307-.062A.792.792,0,0,0,110.936,142.281Z" transform="translate(-106.668 -130.54)"/></g><g transform="translate(10.66 18.199)"><path class="a" d="M159.932,248.375a.789.789,0,0,0-.53-.617l-7.121-2.374a.8.8,0,0,0-.5,0l-7.121,2.374a.793.793,0,0,0-.272.157l-.418.367a.791.791,0,0,0-.207.9c1.676,3.977,4.844,6.447,8.268,6.447,3.364,0,6.5-2.4,8.194-6.275A.793.793,0,0,0,159.932,248.375Z" transform="translate(-143.701 -245.344)"/></g><g transform="translate(18.99 26.433)"><path class="a" d="M268.082,357.8l-4.07-1.416a.8.8,0,0,0-.843.212A9.755,9.755,0,0,1,256,359.974v7.912h18.2a.792.792,0,0,0,.791-.791A9.762,9.762,0,0,0,268.082,357.8Zm-1.8,5.339h-.791v.791a.791.791,0,0,1-1.583,0v-.791h-.791a.791.791,0,0,1,0-1.583h.791v-.791a.791.791,0,0,1,1.583,0v.791h.791a.791.791,0,1,1,0,1.582Z" transform="translate(-256 -356.34)"/></g><g transform="translate(0 26.435)"><path class="a" d="M11.821,356.629a.791.791,0,0,0-.843-.212l-4.07,1.416A9.755,9.755,0,0,0,0,367.125a.792.792,0,0,0,.791.791H17.407v-8.071A10.107,10.107,0,0,1,11.821,356.629Z" transform="translate(0 -356.372)"/></g><g transform="translate(14.242 4.747)"><path class="a" d="M196.747,64a4.747,4.747,0,1,0,4.747,4.747A4.753,4.753,0,0,0,196.747,64Zm0,7.912a3.165,3.165,0,1,1,3.165-3.165A3.168,3.168,0,0,1,196.747,71.912Z" transform="translate(-192 -64)"/></g><g transform="translate(17.407 7.912)"><circle class="a" cx="1.582" cy="1.582" r="1.582"/></g><g transform="translate(14.242 4.747)"><path class="a" d="M196.747,64a4.725,4.725,0,0,0-3.54,7.879c.122,0,.236.009.359.011a.749.749,0,0,0,.807-.775s0-.009,0-.016h.279a3.166,3.166,0,1,1,4.2,0h.279s0,.01,0,.016a.79.79,0,0,0,.791.775h.016l.359-.011a4.7,4.7,0,0,0,1.209-3.132A4.753,4.753,0,0,0,196.747,64Z" transform="translate(-192 -64)"/></g><g transform="translate(7.912)"><path class="a" d="M128.81,10.155l-.921-5.526A5.522,5.522,0,0,0,122.425,0h-9.362A5.523,5.523,0,0,0,107.6,4.629l-.921,5.528a.792.792,0,0,0,.22.69c1.068,1.068,2.905,1.51,5.328,1.69a6.26,6.26,0,0,1-.812-3.042,6.33,6.33,0,1,1,12.66,0,6.234,6.234,0,0,1-.813,3.04c2.423-.18,4.26-.62,5.328-1.69A.794.794,0,0,0,128.81,10.155Z" transform="translate(-106.666)"/></g><g transform="translate(17.407 7.912)"><circle class="a" cx="1.582" cy="1.582" r="1.582"/></g></svg>