<svg xmlns="http://www.w3.org/2000/svg" width="34.49" height="38.842" viewBox="0 0 34.49 38.842"><defs><style>.a{fill:#5d6174;stroke:#5d6174;stroke-width:0.3px;}</style></defs><g transform="translate(0.153 0.15)"><g transform="translate(0 0)"><path class="a" d="M63.111,36.568l-1.705-9.982a2.841,2.841,0,0,0-1.991-2.255l-4.6-1.388a5.129,5.129,0,0,0-3.559-4.454c.146-.162.281-.323.4-.48a8.926,8.926,0,0,0,1.828-3.969h.355a1.675,1.675,0,0,0,1.673-1.673v-.858a1.685,1.685,0,0,0-.867-1.463V7.983a.564.564,0,1,0-1.129,0V10.3a3.479,3.479,0,0,0-.75.217.566.566,0,0,0-.079.036c-.061.028-.121.057-.182.09V6.093a2.281,2.281,0,0,0-2.279-2.279H48.673a2.341,2.341,0,0,0-1.478.527l-.153.125a1.577,1.577,0,0,1-2,0l-.153-.125a2.342,2.342,0,0,0-1.478-.527H41.857a2.281,2.281,0,0,0-2.279,2.279v4.548c-.06-.033-.121-.062-.182-.09a.566.566,0,0,0-.079-.036,3.48,3.48,0,0,0-.75-.217V4.443a3.318,3.318,0,0,1,3.314-3.314h8.326a3.318,3.318,0,0,1,3.314,3.314V5.33a.564.564,0,1,0,1.129,0V4.443A4.448,4.448,0,0,0,50.206,0H41.881a4.448,4.448,0,0,0-4.443,4.443v5.6a1.685,1.685,0,0,0-.867,1.463v.858a1.675,1.675,0,0,0,1.673,1.673H38.6a8.925,8.925,0,0,0,1.828,3.969c.124.157.259.318.4.48a5.148,5.148,0,0,0-3.559,4.455l-4.6,1.388a2.841,2.841,0,0,0-1.991,2.255l-.692,4.054a.564.564,0,0,0,1.113.19l.692-4.054A1.719,1.719,0,0,1,33,25.412l4.253-1.283v1.116a2.824,2.824,0,0,0-2.146,1.777,2.863,2.863,0,0,0-.168.766l-.411,5.277a1.435,1.435,0,0,0,1.43,1.546h.7a.564.564,0,1,0,0-1.129h-.7a.306.306,0,0,1-.3-.329l.411-5.277a1.733,1.733,0,0,1,.1-.464,1.707,1.707,0,0,1,1.6-1.088h.106a1.691,1.691,0,0,1,1.576,1.011,1.731,1.731,0,0,1,.132.542l.411,5.277a.306.306,0,0,1-.3.329h-.7a.564.564,0,1,0,0,1.129h.7a1.435,1.435,0,0,0,1.43-1.546L40.7,27.789a2.858,2.858,0,0,0-.218-.895,2.794,2.794,0,0,0-2.1-1.653V23.788l1.94-.585c.177.372.526,1.175,1.219,2.907.7,1.747,1.566,3.987,2.4,6.165q.009.027.02.054c.556,1.454,1.094,2.877,1.555,4.106a.564.564,0,0,0,1.057,0c.461-1.228,1-2.652,1.555-4.106a.56.56,0,0,0,.02-.054c.832-2.176,1.7-4.415,2.4-6.162s1.044-2.538,1.221-2.91l1.94.585v3.334a2.92,2.92,0,1,0,1.129,0v-3l4.254,1.283a1.719,1.719,0,0,1,1.2,1.364L62,36.758a.56.56,0,0,1-.552.655h-30.8a.56.56,0,0,1-.552-.655l.563-3.294a.564.564,0,0,0-1.113-.19l-.563,3.294a1.689,1.689,0,0,0,1.665,1.973h30.8a1.689,1.689,0,0,0,1.665-1.974ZM53.528,11.449a2.422,2.422,0,0,1,.545-.074.577.577,0,0,0,.276-.065.535.535,0,0,1,.04.2v.858a.545.545,0,0,1-.545.545h-.316ZM38.559,12.912h-.316a.545.545,0,0,1-.545-.545V11.51a.536.536,0,0,1,.04-.2.576.576,0,0,0,.276.065,2.517,2.517,0,0,1,.545.074Zm1.129.633V12.062a.792.792,0,0,0,1.018-.759V6.093a1.151,1.151,0,0,1,1.15-1.15h1.558a1.21,1.21,0,0,1,.764.272l.153.125a2.706,2.706,0,0,0,3.425,0l.153-.125a1.21,1.21,0,0,1,.764-.272H50.23a1.151,1.151,0,0,1,1.15,1.15V11.3a.792.792,0,0,0,1.018.76v1.482a7.3,7.3,0,0,1-1.626,3.767,7.441,7.441,0,0,1-1.353,1.34.564.564,0,0,0-.05.038,5.5,5.5,0,0,1-6.653,0,.574.574,0,0,0-.05-.038,7.446,7.446,0,0,1-1.353-1.34A7.3,7.3,0,0,1,39.688,13.545Zm10.053,9.119-3.7,2.764-3.7-2.764a2.677,2.677,0,0,0,.572-1.6v-.91a6.628,6.628,0,0,0,6.251,0v.91A2.677,2.677,0,0,0,49.741,22.664Zm-8.337-.63a1.543,1.543,0,0,0-.952-.048L40.412,22l-1.95.588a4.01,4.01,0,0,1,3.327-3.162v1.643A1.492,1.492,0,0,1,41.4,22.034Zm1.532,4.531,0-.008-.085-.214-.015-.038-.081-.2-.006-.014L42.5,25.48l-.017-.042-.066-.164-.024-.059-.063-.155-.018-.045-.11-.27-.029-.071-.041-.1-.044-.107-.016-.04-.013-.031q-.1-.238-.186-.448v0l-.091-.217-.045-.106L44.919,26l-1.329.565-.007,0-.555.236Zm1.347,3.456-.336-.871q-.264-.682-.5-1.3l.211-.09.861,1Zm1.772,4.587A.562.562,0,0,0,46,34.513c-.255-.674-.579-1.527-.937-2.466l.527-2.885H46.5l.527,2.885C46.652,33.03,46.315,33.919,46.054,34.607Zm.658-6.574H45.375l-.633-.735,1.3-.553,1.3.553Zm1.429,1.116-.336.871-.23-1.259.861-1,.211.09Q48.4,28.468,48.141,29.149ZM50.3,23.726l-.087.206-.012.028-.09.216-.006.015-.082.2-.015.037-.019.046-.038.092-.047.114-.015.038-.121.3-.019.048-.062.153-.025.061-.065.162-.019.046-.238.6-.008.02-.081.2-.015.038-.085.215,0,0-.094.238-.555-.236-.006,0L47.168,26l3.18-2.377ZM51.675,22h0a1.543,1.543,0,0,0-.99.037,1.492,1.492,0,0,1-.385-.968V19.422a3.978,3.978,0,0,1,3.33,3.164Zm4.38,7.992A1.792,1.792,0,1,1,54.264,28.2,1.794,1.794,0,0,1,56.055,29.988Z" transform="translate(-28.952)"/></g></g></svg>