<svg xmlns="http://www.w3.org/2000/svg" xmlns:xlink="http://www.w3.org/1999/xlink" width="175.258" height="123.853" viewBox="0 0 175.258 123.853"><defs><style>.a,.f{fill:#0db2b9;}.a,.d,.i,.u{opacity:0.1;}.b{fill:url(#a);}.c,.u{fill:#fff;}.e{fill:#cf6f80;}.g{fill:#3f3d56;}.h{fill:#512e4e;}.j{fill:#535461;}.k{fill:#9d9cb5;}.l{fill:none;stroke:#535461;stroke-miterlimit:10;stroke-width:2px;}.m{fill:url(#b);}.n{fill:#1d2366;}.o{fill:#ffb0b1;}.p{fill:#c7daf5;}.q{opacity:0.03;}.r{fill:#dce7ff;}.s{fill:#591d4b;}.t{fill:#be8b87;}.v{fill:#efc8c4;}.w{fill:#727a9c;}</style><linearGradient id="a" x1="0.5" y1="1" x2="0.5" gradientUnits="objectBoundingBox"><stop offset="0" stop-color="gray" stop-opacity="0.251"/><stop offset="0.54" stop-color="gray" stop-opacity="0.122"/><stop offset="1" stop-color="gray" stop-opacity="0.102"/></linearGradient><linearGradient id="b" x1="0.5" y1="1" x2="0.5" y2="0" xlink:href="#a"/></defs><g transform="translate(0.005 0.006)"><ellipse class="a" cx="15.418" cy="2.476" rx="15.418" ry="2.476" transform="translate(43.116 118.825)"/><ellipse class="a" cx="19.239" cy="2.476" rx="19.239" ry="2.476" transform="translate(123.104 118.894)"/><path class="a" d="M59.329,396.83H75.388v21.888H60.5c-.04.225-.078.451-.119.677h15v17.652c-.027-.008-.051-.017-.076-.027-.424-.168-.845-.345-1.266-.535l-.269-.122q-.633-.3-1.266-.633c-.147-.078-.294-.158-.44-.241a26.333,26.333,0,0,1-6.31-4.93c-.054-.052-.1-.108-.158-.158-.256-.279-.508-.56-.752-.848l-.269-.316c-.288-.353-.566-.715-.837-1.082-.04-.054-.078-.108-.119-.158a23.561,23.561,0,0,1-2.722-4.921c-.022-.052-.041-.109-.062-.158q-.326-.839-.578-1.693c-.073-.239-.142-.475-.2-.723-.022-.073-.041-.144-.059-.215a43.262,43.262,0,0,1-1-10.771v-1.266c0-1.464.017-2.937.043-4.408,0-.381.016-.761.024-1.144q.033-1.457.095-2.914c.009-.271.022-.54.036-.809a4.582,4.582,0,0,1,.024-.465C59.26,397.946,59.291,397.387,59.329,396.83Z" transform="translate(-56.735 -343.322)"/><path class="a" d="M115.709,183.583H106.9a66.768,66.768,0,0,1,4.685-6.449c1.309-1.608,2.69-3.174,4.123-4.684Z" transform="translate(-97.056 -154.446)"/><path class="a" d="M77.408,247.09v23.016H61.4c0-.066.011-.134.016-.2.014-.182.028-.364.044-.544.017-.212.036-.426.057-.633s.043-.461.066-.69.046-.462.073-.691.051-.459.079-.687.054-.459.084-.687c.024-.19.049-.378.074-.568.036-.267.074-.536.116-.8a.739.739,0,0,1,.017-.119,54.73,54.73,0,0,1,1.179-5.779,42.73,42.73,0,0,1,1.986-5.854,43.952,43.952,0,0,1,2.987-5.753Z" transform="translate(-58.755 -217.275)"/><path class="a" d="M186.8,112.136v21.889h34.3V112.136Zm0,22.565v18.8c.2.041.391.081.584.114.263.051.524.1.791.136.051.008.1.016.158.021.1.017.212.032.316.046.264.036.527.066.791.09.125.013.252.024.378.033l.305.024h0c.166.013.331.022.494.027.1,0,.2.01.307.013h1.128c.136,0,.272,0,.407-.013h.01a2.132,2.132,0,0,0,.283-.013.664.664,0,0,0,.079,0,1.636,1.636,0,0,0,.234-.011h.055l.53-.041c.174-.016.35-.036.527-.055l.361-.043a31.559,31.559,0,0,0,4.343-.924c3.2-.892,6.329-2.141,9.527-3.055,4.135-1.179,8.7-1.758,12.7-.316V134.7Zm34.3-46.934V58.626a44.094,44.094,0,0,0-11.144,1.307c-8.685,2.182-16.478,6.915-23.155,12.959V87.766h1.722v.676H186.8v23.019h34.3V88.443H195.59v-.676Zm44.056-9.843a14.207,14.207,0,0,1-6.217-1.807c-3.695-2.01-6.646-5.112-9.943-7.731a45.652,45.652,0,0,0-24.065-9.562V87.767h48.964l.122-.128Zm4.46-.791,4.729,5.19V75.772a18.766,18.766,0,0,0-4.723,1.354Zm4.729,81.034V134.7H264.267c-.027-.1-.054-.2-.085-.3.03.1.055.2.084.3H224.936v16.97c.373.277.742.568,1.108.864h0c.394.316.783.65,1.174.978l.394.326c.188.158.378.316.57.465q.57.462,1.15.911c.191.158.388.3.582.449a79.316,79.316,0,0,0,9.752,6.378q1.144.633,2.309,1.236c.517.264,1.038.527,1.56.782q1.177.574,2.373,1.108h0a87.161,87.161,0,0,0,23.1,6.729q2.657.392,5.334.617v-14.35h.158ZM224.936,88.443v23.018h49.415V88.443Zm0,23.693v21.889h49.415V112.136Zm53.25-36.393V83.05l6.036-6.623q-3-.484-6.036-.691Zm0,36.4v21.881h48.062V112.136Zm47.887,47.76.169-25.2H278.187v38.065a86.181,86.181,0,0,0,9.288-.111h.054q2.215-.139,4.41-.405h.033A81.21,81.21,0,0,0,314.63,166.2m20.886-50.464c-.18-.426-.369-.848-.56-1.266-.358-.791-.736-1.56-1.125-2.329h-3.75v21.88h9.481a47.3,47.3,0,0,0-4.041-18.293Zm-5.435,18.969v21.677a31.053,31.053,0,0,0,6.552-8.837,30.379,30.379,0,0,0,2.921-12.843Zm0-28.943v5.7h3.4a61.718,61.718,0,0,0-3.394-5.7Zm-32.6-25.728c-.25-.095-.5-.191-.752-.285a68.607,68.607,0,0,0-8.119-2.44l-9.237,10.138h0l-.177.188.119.13H312.2a70.319,70.319,0,0,0-14.706-7.739Zm15.674,8.413h-34.3l-.674.617v22.393h48.069V100.614a68.483,68.483,0,0,0-13.09-12.171Z" transform="translate(-164.313 -58.63)"/><path class="a" d="M77.408,320.46v11.407H61.4c0-.066.011-.134.016-.2.014-.182.028-.364.044-.544.017-.212.036-.426.057-.633s.043-.46.066-.69.046-.462.073-.691.051-.459.079-.687.054-.459.084-.687c.024-.19.049-.378.074-.568.036-.267.074-.536.116-.8a.74.74,0,0,1,.017-.119,54.729,54.729,0,0,1,1.179-5.779Z" transform="translate(-58.755 -279.036)"/><path class="a" d="M59.329,396.83H75.388v21.888H60.5c-.04.225-.078.451-.119.677h15v17.652c-.027-.008-.051-.017-.076-.027-.424-.168-.845-.345-1.266-.535l-.269-.122q-.633-.3-1.266-.633c-.147-.078-.294-.158-.44-.241a26.333,26.333,0,0,1-6.31-4.93c-.054-.052-.1-.108-.158-.158-.256-.279-.508-.56-.752-.848l-.269-.316c-.288-.353-.566-.715-.837-1.082-.04-.054-.078-.108-.119-.158a23.561,23.561,0,0,1-2.722-4.921c-.022-.052-.041-.109-.062-.158q-.326-.839-.578-1.693c-.073-.239-.142-.475-.2-.723-.022-.073-.041-.144-.059-.215a43.262,43.262,0,0,1-1-10.771v-1.266c0-1.464.017-2.937.043-4.408,0-.381.016-.761.024-1.144q.033-1.457.095-2.914c.009-.271.022-.54.036-.809a4.582,4.582,0,0,1,.024-.465C59.26,397.946,59.291,397.387,59.329,396.83Z" transform="translate(-56.735 -343.322)"/><path class="a" d="M151.634,173.757v19.722H139.56V173.757h1.721V167.08h7.067v6.677Z" transform="translate(-117.074 -140.648)"/><rect class="a" width="12.073" height="21.888" transform="translate(22.488 53.506)"/><path class="a" d="M186.8,539.44h12.074v18.2a31.516,31.516,0,0,1-4.343.922l-.361.044c-.177.021-.353.038-.527.055s-.354.03-.53.041h-.055c-.076,0-.158.01-.233.011h-.081c-.095,0-.19.01-.285.013h0c-.135.008-.269.01-.407.011h-1.12l-.305-.011c-.158,0-.329-.017-.494-.028h0l-.3-.022-.378-.035c-.266-.024-.53-.054-.791-.09l-.316-.044-.158-.022c-.264-.041-.525-.085-.791-.136-.195-.033-.388-.074-.584-.114Z" transform="translate(-164.313 -463.367)"/><rect class="a" width="9.956" height="22.049" transform="translate(100.082 30.78)"/><path class="a" d="M430,338.19v21.889H380.58v-9.442H406.9v5.57h13.138V338.19Z" transform="translate(-319.957 -284.684)"/><path class="a" d="M477.393,561.3h-.158V575.66q-2.674-.226-5.332-.615a87.167,87.167,0,0,1-23.111-6.744q-3.185-1.434-6.241-3.13a79.656,79.656,0,0,1-9.753-6.378q-1.164-.892-2.3-1.826c-.524-.432-1.044-.875-1.571-1.305-.365-.3-.734-.587-1.108-.866V537.832h39.328c-.027-.1-.054-.2-.082-.3.03.1.059.2.086.3h10.084v23.459C477.289,561.293,477.341,561.3,477.393,561.3Z" transform="translate(-367.197 -461.759)"/><path class="a" d="M869.708,200.141H863.22v-2.016h2.908v-6q.378.138.753.283v5.722h2.826Z" transform="translate(-733.704 -171.003)"/><path class="a" d="M802.12,270.106H770.272l.011.008-.014-.008H764.36V248.057h1.674v16.3h7.65V254.7H780V247.09h6.487v7.619h6.32v9.652h9.309Z" transform="translate(-650.487 -217.275)"/><path class="a" d="M764.36,396.82v21.889h37.76V396.82Zm48.01,47.655.052-17.326h-10.3V419.4H764.36V457.45a86.182,86.182,0,0,0,9.288-.111h.054q2.215-.139,4.41-.4h.033a81.209,81.209,0,0,0,22.658-6.046" transform="translate(-650.487 -343.314)"/><path class="a" d="M1093.035,539.44h8.809a30.479,30.479,0,0,1-2.922,12.842,31.064,31.064,0,0,1-6.551,8.837V547.195h.664Z" transform="translate(-926.596 -463.367)"/><path class="a" d="M1105.384,437.843h-8.813V419.55h4.769A47.366,47.366,0,0,1,1105.384,437.843Z" transform="translate(-930.131 -362.447)"/><rect class="a" width="5.334" height="6.913" transform="translate(104.706 36.91)"/><rect class="a" width="5.334" height="1.592" transform="translate(104.706 51.239)"/><rect class="a" width="5.334" height="4.644" transform="translate(104.706 53.506)"/><rect class="a" width="5.334" height="6.913" transform="translate(104.706 65.568)"/><rect class="a" width="5.334" height="6.913" transform="translate(104.706 79.897)"/><path class="a" d="M711.752,659.475a.875.875,0,0,1,.158.01h-.158v1.606H706.42V654.17h5.332Z" transform="translate(-601.714 -559.944)"/><path class="a" d="M711.752,744.71v5.34q-2.674-.226-5.332-.615V744.71Z" transform="translate(-601.714 -636.158)"/><rect class="a" width="22.859" height="0.508" transform="translate(60.623 74.888)"/><rect class="a" width="22.859" height="1.946" transform="translate(60.623 76.071)"/><rect class="a" width="22.859" height="3.13" transform="translate(60.623 84.397)"/><path class="a" d="M456.562,652.15v3.13h-17.88q-1.165-.889-2.3-1.826c-.524-.432-1.043-.875-1.571-1.3Z" transform="translate(-373.081 -558.243)"/><path class="a" d="M529.047,712.215v3.127h-1.888q-3.182-1.435-6.239-3.131Z" transform="translate(-445.566 -608.8)"/><rect class="a" width="4.5" height="4.5" transform="translate(123.163 55.628)"/><rect class="a" width="4.5" height="4.5" transform="translate(25.729 34.661)"/><rect class="a" width="4.5" height="4.5" transform="translate(25.729 45.114)"/><rect class="a" width="4.5" height="4.5" transform="translate(25.729 55.566)"/><rect class="a" width="4.5" height="4.5" transform="translate(25.729 66.017)"/><rect class="a" width="4.5" height="4.5" transform="translate(25.729 76.47)"/><rect class="a" width="4.5" height="4.5" transform="translate(25.729 86.923)"/><rect class="a" width="4.5" height="4.5" transform="translate(140.342 55.628)"/><rect class="a" width="4.5" height="4.5" transform="translate(123.163 66.728)"/><rect class="a" width="4.5" height="4.5" transform="translate(140.342 66.728)"/><rect class="a" width="4.5" height="4.5" transform="translate(123.163 77.826)"/><rect class="a" width="4.5" height="4.5" transform="translate(140.342 77.826)"/><rect class="a" width="4.5" height="4.5" transform="translate(123.163 88.926)"/><rect class="a" width="4.5" height="4.5" transform="translate(140.342 88.926)"/><rect class="a" width="4.5" height="4.5" transform="translate(123.163 100.026)"/><rect class="a" width="4.5" height="4.5" transform="translate(140.342 100.026)"/><path class="a" d="M775.83,705.232v-2.9h4.5v2.489Z" transform="translate(-652.667 -591.206)"/><path class="a" d="M65.24,357v2.574h15.4V357Zm1.535,2.413H65.518v-2.255h1.266Zm1.533,0H67.042v-2.255h1.266Zm1.53,0H68.572v-2.255h1.266Zm1.533,0H70.107v-2.255h1.266Zm1.532,0H71.637v-2.255H72.9Zm1.533,0H73.17v-2.255h1.266Zm1.533,0H74.7v-2.255H75.97Zm1.532,0H76.235v-2.255H77.5Zm1.532,0H77.767v-2.255h1.266Zm1.532,0H79.3v-2.255h1.266Z" transform="translate(-61.988 -309.795)"/><path class="a" d="M65.24,404.34v2.574h15.4V404.34Zm1.535,2.411H65.518V404.5h1.266Zm1.533,0H67.042V404.5h1.266Zm1.53,0H68.572V404.5h1.266Zm1.533,0H70.107V404.5h1.266Zm1.532,0H71.637V404.5H72.9Zm1.533,0H73.17V404.5h1.266Zm1.533,0H74.7V404.5H75.97Zm1.532,0H76.235V404.5H77.5Zm1.532,0H77.767V404.5h1.266Zm1.532,0H79.3V404.5h1.266Z" transform="translate(-61.988 -349.644)"/><path class="a" d="M65.24,451.7v2.579h15.4V451.7Zm1.535,2.411H65.518v-2.25h1.266Zm1.533,0H67.042v-2.25h1.266Zm1.53,0H68.572v-2.25h1.266Zm1.533,0H70.107v-2.25h1.266Zm1.532,0H71.637v-2.25H72.9Zm1.533,0H73.17v-2.25h1.266Zm1.533,0H74.7v-2.25H75.97Zm1.532,0H76.235v-2.25H77.5Zm1.532,0H77.767v-2.25h1.266Zm1.532,0H79.3v-2.25h1.266Z" transform="translate(-61.988 -389.51)"/><path class="a" d="M65.24,499.06v2.571h15.4V499.06Zm1.535,2.411H65.518V499.22h1.266Zm1.533,0H67.042V499.22h1.266Zm1.53,0H68.572V499.22h1.266Zm1.533,0H70.107V499.22h1.266Zm1.532,0H71.637V499.22H72.9Zm1.533,0H73.17V499.22h1.266Zm1.533,0H74.7V499.22H75.97Zm1.532,0H76.235V499.22H77.5Zm1.532,0H77.767V499.22h1.266Zm1.532,0H79.3V499.22h1.266Z" transform="translate(-61.988 -429.377)"/><path class="a" d="M65.66,546.41c.062.242.131.484.2.723v-.562H67.13v2.25h-.677c.021.052.041.109.062.158h14.48v-2.57Zm3.006,2.411H67.4v-2.25h1.266Zm1.53,0H68.931v-2.25H70.2Zm1.533,0H70.461v-2.25h1.266Zm1.532,0H72v-2.25h1.266Zm1.533,0H73.529v-2.25h1.266Zm1.533,0H75.062v-2.25h1.266Zm1.532,0H76.594v-2.25h1.266Zm1.532,0H78.125v-2.25h1.266Zm1.532,0H79.657v-2.25h1.266Z" transform="translate(-62.341 -469.234)"/><path class="a" d="M88.26,593.77c.04.051.078.108.119.158h.837v1.081c.09.108.179.215.271.316v-1.4h1.266v2.258h-.513c.051.052.1.108.158.158h9.625V593.77Zm4.021,2.41H91.015v-2.249h1.266Zm1.533,0H92.548v-2.249h1.266Zm1.533,0H94.081v-2.249h1.266Zm1.532,0H95.613v-2.249h1.266Zm1.532,0H97.145v-2.249H98.41Zm1.532,0H98.676v-2.249h1.266Z" transform="translate(-81.365 -509.101)"/><path class="a" d="M141.65,641.12c.144.082.291.158.44.241v-.079h1.266v.712l.269.125v-.837h1.266v1.369a.388.388,0,0,0,.076.028V641.12Z" transform="translate(-126.308 -548.958)"/><path class="a" d="M293.29,266.478Zm-9.747,46.7Zm-10.169-23.761c.03.1.055.2.084.3h0C273.433,289.619,273.406,289.518,273.374,289.417Zm19.916-22.943ZM197.72,242.78v.676h7.068v-.676Zm85.824,70.4Zm-10.169-23.761c.03.1.055.2.084.3h0C273.433,289.619,273.406,289.518,273.374,289.417Zm19.916-22.943Zm-9.747,46.7Zm-10.169-23.757c.03.1.055.2.084.3h0C273.433,289.619,273.406,289.518,273.374,289.417Z" transform="translate(-173.506 -213.648)"/><path class="b" d="M329.358,252.992s-.623-.087-.623-1a14.227,14.227,0,0,0-.446-2.6h0c0-.008-.386-2.954-.919-3.423s-1.218-3.218-1.218-3.218a6.488,6.488,0,0,0-.356-1.813,15.415,15.415,0,0,1-1.038-2.229c-.476-1.122-2.462-1.9-2.462-1.9s-3.59-2.082-4.608-2.761h0a1.553,1.553,0,0,1-.258-.195c-.177-.233-.949-.237-.949-.237a15.587,15.587,0,0,1-.184-1.625,1.246,1.246,0,0,0-.008-.171,5.475,5.475,0,0,0,2.407-2.978c.019-.06.035-.123.052-.184a.514.514,0,0,0,.309-.278,5.813,5.813,0,0,1,.207-.633,2.385,2.385,0,0,1,.585-.514,2.215,2.215,0,0,0,.609-1.8c-.016-.53-.1-1.065-.068-1.592l.01-.133c.009-.079.021-.158.035-.234.078-.392.247-.763.342-1.152a1.482,1.482,0,0,0-.117-1.163,2.021,2.021,0,0,0-1.593-.641c-.672-.057-1.274.017-1.7-.541a6.072,6.072,0,0,0-.677-.818c-.089-.082-.949-.608-.949-.642a3.847,3.847,0,0,0-2.682-.206c-.446.13-.867.342-1.32.448-.976.231-2.1-.019-2.929.54a3.442,3.442,0,0,0-1,1.31q-.316.606-.642,1.21a7.842,7.842,0,0,0-.853,2.071,3.275,3.275,0,0,0-.057.484h0v.258a.851.851,0,0,0,.009.158c.009.049.008.065.013.1s.013.108.022.158.029.139.047.209c.008.03.019.059.028.087.016.054.035.106.055.158.011.027.022.055.035.082a1.487,1.487,0,0,0,.081.158c.013.022.022.043.035.063a2.091,2.091,0,0,0,.146.212c.339.422.837.691,1.206,1.087v.177A5.416,5.416,0,0,0,310.4,231.7c0,.06.008.122.011.182a9.057,9.057,0,0,1-.017,1.41.665.665,0,0,0-.525-.234.757.757,0,0,0-.2.017l-.014-.011h0v.014c-.348.085-.777.448-1.187,1.478,0,0-1.247,1.405-2.2,1.347s-3.353,1.462-3.353,1.462-2.345,1.522-2.848,3.073a21.646,21.646,0,0,1-1.009,2.576l-2.9,5.973h0l-.535,4.739a21.991,21.991,0,0,1,.237,2.429,23.378,23.378,0,0,0,1.217,3.218s4.214,7.4,5.935,7.783l.123-.087a1.009,1.009,0,0,0,.233.087l.354-.25a3.862,3.862,0,0,1-.027.836,22.012,22.012,0,0,0,.5,6.437c.415.935.267,13.2.267,13.2l-.059,1.082a.457.457,0,0,0,.014.095l-.014.256.043.022a3.049,3.049,0,0,1-.043,1.03,11.46,11.46,0,0,0-.209,1.816s-1.185,7.576-.623,9.1,1.04,3.19,1.04,3.19.593,1.9.028,2.223-2.171.869-1.84,1.66c.3.731,1.441,2.69,1.611,2.976l-.014.15-.233,2.521a3.163,3.163,0,0,0,.267.962,1.658,1.658,0,0,0,1.691,1.057c.158-.011.342-.03.519-.054a22.422,22.422,0,0,0,3.845-1,1.57,1.57,0,0,1-.3-.248h0a.869.869,0,0,1-.264-.633,18.531,18.531,0,0,0-1.047-3.184c-.033-.078-.051-.122-.051-.122s1.959-2.047,1.633-3.862c0,0-2.168-1.266-1.454-1.961a22.108,22.108,0,0,0,1.989-2.69s.059-7.461,0-8.574a9.228,9.228,0,0,1,.109-2.315c.024-.116.052-.228.082-.339a20.655,20.655,0,0,0,2.981.226c.364,0,.734,0,1.108-.022q0,.158.014.342c.082,1.848.236,5.089.361,6.293.177,1.726,1.157,6.378,1.157,6.378s-1.869,1.2.326,4.155a4.006,4.006,0,0,1-.146,1.226h0a13.436,13.436,0,0,0-.375,1.544,2.722,2.722,0,0,0,.019,1.413c.356.7,2.492.642,2.492.642h0l.052-.009a3.062,3.062,0,0,1,2.261.682c.812.652,3.892.366,5.56.158.653-.082,1.09-.158,1.09-.158a.634.634,0,0,0,.022-.228h0c-.017-.41-.339-1.309-2.516-2.111,0,0-2.048-1.377-2.019-2.576h-.28a2.233,2.233,0,0,1,.283,0s-.8-2.927-.475-3.165-.653-3.481-.653-3.481-.562-5.443-.592-5.824a3.323,3.323,0,0,1,.147-.965l-.147-2.984s-.028-.992,0-1.315a6.553,6.553,0,0,0-.068-.837c-.014-.111-.029-.226-.044-.34.767-.195,1.266-.375,1.266-.375l-.089-10.388c.652-1.266.772-4.043.769-6.013,0-1.266-.057-2.2-.057-2.2l.891-1.454s.206-1.741-.12-2.122a.365.365,0,0,1,.04-.5,1.657,1.657,0,0,1,.195-.133s-.01-.014-.021-.035a1.571,1.571,0,0,1,.2-.141s-.316-.491-.033-.7c.266.18.5.316.684.427-.013.116-.025.182-.025.182l.076-.158.28.158a21.148,21.148,0,0,0,1.365-3.19,9.3,9.3,0,0,1,.949-2.136,2.137,2.137,0,0,1,.653-1.286c.535-.38.415-3.131.415-3.131a6.748,6.748,0,0,1,.5-2.019C330.038,253.781,329.358,252.992,329.358,252.992Zm-26.7-1.22.027.663L302.41,252Z" transform="translate(-255.915 -192.922)"/><path class="c" d="M467.2,491.576l-.342,1.456s-2.737-1.4-3.231-3.172a2.008,2.008,0,0,1,.826-2.449l2.551,1.081Z" transform="translate(-397.249 -419.57)"/><path class="d" d="M467.2,491.576l-.342,1.456s-2.737-1.4-3.231-3.172a2.008,2.008,0,0,1,.826-2.449l2.551,1.081Z" transform="translate(-397.249 -419.57)"/><path class="c" d="M356.763,796.184a19.678,19.678,0,0,1-4.272,1.048,1.626,1.626,0,0,1-1.66-1.051,3.18,3.18,0,0,1-.261-.957l.226-2.508.12-1.336,3.7-.96.524,1.6.049.122a18.537,18.537,0,0,1,1.028,3.165.864.864,0,0,0,.26.625A1.5,1.5,0,0,0,356.763,796.184Z" transform="translate(-302.17 -674.635)"/><path class="c" d="M438.54,794.025a.632.632,0,0,1-.022.226s-5.415.9-6.522,0a2.933,2.933,0,0,0-2.278-.668s-2.1.057-2.445-.633a2.747,2.747,0,0,1-.017-1.405,13.382,13.382,0,0,1,.367-1.536l.084-.066.5-.4,5.835-.172h.044c-.028,1.193,1.981,2.562,1.981,2.562C438.2,792.723,438.515,793.617,438.54,794.025Z" transform="translate(-366.654 -673.751)"/><path class="d" d="M438.544,805.6a.645.645,0,0,1-.024.226s-5.413.9-6.521,0a2.933,2.933,0,0,0-2.277-.668s-2.1.057-2.445-.633a2.744,2.744,0,0,1-.019-1.4,5.216,5.216,0,0,1,2.581.761,5.731,5.731,0,0,0,2.824,1.514C433.28,805.435,436.962,805.552,438.544,805.6Z" transform="translate(-366.659 -685.325)"/><path class="d" d="M358.16,825.554a19.675,19.675,0,0,1-4.272,1.048,1.621,1.621,0,0,1-1.658-1.052,3.439,3.439,0,0,0,2.008.236,17.9,17.9,0,0,1,3.639-.475A1.557,1.557,0,0,0,358.16,825.554Z" transform="translate(-303.568 -704.004)"/><path class="e" d="M391.056,302.494c-2.089-.812-4.775-3.494-4.1-4.747a2.8,2.8,0,0,0,.261-1.006,9.2,9.2,0,0,0,.019-1.424,19.5,19.5,0,0,0-.28-2.317s6.521.147,6.141,1.108a3.592,3.592,0,0,0-.1,1.318c.03.548.109,1.166.192,1.69.114.718.228,1.266.228,1.266s-.4.559-.633.589S394.053,303.65,391.056,302.494Z" transform="translate(-332.707 -255.921)"/><path class="d" d="M356.361,792.143l-.049.054c-1.949-2.358-4.307.581-4.307.581l-.035-.062.12-1.336,3.7-.96.524,1.6Z" transform="translate(-303.349 -674.635)"/><path class="d" d="M436.479,789.5a3.745,3.745,0,0,0-2.184.641c-.759.671-4.43.146-4.272,0a.52.52,0,0,0,.082-.241l.5-.4,5.835-.173C436.462,789.436,436.479,789.5,436.479,789.5Z" transform="translate(-369.048 -673.717)"/><path class="f" d="M350.219,656.785a4.392,4.392,0,0,0-.24.812,9.284,9.284,0,0,0-.109,2.3c.059,1.108,0,8.53,0,8.53a22.711,22.711,0,0,1-1.949,2.677c-.7.7,1.424,1.951,1.424,1.951.316,1.8-1.6,3.842-1.6,3.842-1.949-2.358-4.307.582-4.307.582s-1.282-2.215-1.6-3.006,1.251-1.339,1.8-1.66-.027-2.215-.027-2.215-.467-1.66-1.021-3.174.611-9.052.611-9.052a11.685,11.685,0,0,1,.2-1.805,3.019,3.019,0,0,0,.043-1.025c-.01-.115-.021-.212-.029-.277s-.014-.095-.014-.095l.022-.038.791-1.475S350.6,655.856,350.219,656.785Z" transform="translate(-294.781 -559.514)"/><path class="f" d="M427.381,683.358a3.778,3.778,0,0,0-2.184.633c-.76.663-4.43.146-4.272,0s.146-1.223.146-1.223c-2.154-2.94-.316-4.133-.316-4.133s-.962-4.628-1.136-6.345c-.122-1.2-.272-4.422-.353-6.263-.035-.791-.055-1.335-.055-1.335l1.76-.354.226-.046,4.244-.851s.117.791.2,1.438a6.706,6.706,0,0,1,.066.834c-.028.317,0,1.307,0,1.307l.144,2.97a3.379,3.379,0,0,0-.144.961c.028.378.581,5.793.581,5.793s.96,3.231.633,3.464S427.381,683.358,427.381,683.358Z" transform="translate(-359.95 -567.747)"/><path class="d" d="M393.651,294.108a3.592,3.592,0,0,0-.1,1.318,5.42,5.42,0,0,1-5.763-.108,19.491,19.491,0,0,0-.28-2.318S394.031,293.144,393.651,294.108Z" transform="translate(-333.265 -255.921)"/><path class="e" d="M384.656,249.095a5.358,5.358,0,0,1-.266,1.679,5.415,5.415,0,0,1-10.56-1.549v-.13a5.414,5.414,0,1,1,10.828,0Z" transform="translate(-321.75 -214.405)"/><path class="d" d="M391.056,322.393c-2.089-.812-4.775-3.494-4.1-4.747a2.8,2.8,0,0,0,.261-1.006l2.859,2.35,1.769,1.451,1.345-3.424c.114.718.228,1.266.228,1.266s-.4.559-.633.589S394.053,323.55,391.056,322.393Z" transform="translate(-332.707 -275.821)"/><path class="f" d="M340.775,272.809l-2.388,40.111-3.114.2-8.063-23.258,1.323-27.613.279-5.834,3.585,2.945,1.771,1.451,1.385-3.524,2.574,2.244Z" transform="translate(-275.032 -215.852)"/><path class="d" d="M358.812,656.852a4.411,4.411,0,0,0-.24.812,22.947,22.947,0,0,1-6.529-2.039L352,655.6l.014-.255.008-.133.791-1.475S359.192,655.924,358.812,656.852Z" transform="translate(-303.374 -559.582)"/><path class="d" d="M420.955,670.651a15.993,15.993,0,0,1-1.75.2c-.035-.791-.055-1.335-.055-1.335l1.759-.354Z" transform="translate(-359.899 -572.562)"/><path class="d" d="M436.14,664.928a12.282,12.282,0,0,1-4.418.416l-.022-1,4.244-.851S436.061,664.273,436.14,664.928Z" transform="translate(-370.463 -567.789)"/><path class="d" d="M322.516,372.182a21.7,21.7,0,0,1-12.429-2.068l.057-1.076s.147-12.2-.261-13.133a22.238,22.238,0,0,1-.5-6.405c.231-.728-.843-11.643-.843-11.643l-.174-4.43L302,330.847l2.848-5.937a21.432,21.432,0,0,0,.991-2.563c.5-1.541,2.794-3.055,2.794-3.055s2.358-1.513,3.29-1.456,2.154-1.339,2.154-1.339c.9-2.3,1.718-1.258,1.718-1.258a2.049,2.049,0,0,1-.044.34c-.316,2.524,5.117,10.5,5.195,10.639h0l.517,12.6.524,15.951Z" transform="translate(-261.286 -274.443)"/><path class="c" d="M321.391,372.132c-6.487,1.108-12.431-2.068-12.431-2.068l.059-1.076s.147-12.2-.263-13.133a22.123,22.123,0,0,1-.494-6.405c.233-.728-.843-11.643-.843-11.643l-.176-4.43-6.374-2.59,2.848-5.937a21.75,21.75,0,0,0,.99-2.563c.494-1.541,2.794-3.055,2.794-3.055s2.358-1.513,3.288-1.456,2.154-1.339,2.154-1.339c.9-2.3,1.9-1.258,1.9-1.258,0,.109-.1.158-.044.34.7,2.448,4.943,10.5,5.021,10.639h0l.524,12.6.524,15.951Z" transform="translate(-260.334 -274.393)"/><path class="d" d="M387.716,328.467c-.7-.291-4.394-4.511-4.394-4.511V323c-.134-.316-.934-.123-1.582.1l.279-5.834.316.263C383.028,319.969,387.636,328.326,387.716,328.467Z" transform="translate(-328.408 -276.342)"/><path class="c" d="M388.818,326.257c-.7-.291-4.4-4.511-4.4-4.511v-.96c-.134-.316-.934-.123-1.582.1l.28-5.834.316.263C384.131,317.759,388.74,326.118,388.818,326.257Z" transform="translate(-329.334 -274.482)"/><path class="d" d="M351.216,516.415c.087,0,4.511-.465,4.511-.465s2.679,5.267,2.5,6.549-.494,2.416-1.571,2.215a47.843,47.843,0,0,0-5.8.158Z" transform="translate(-302.414 -443.594)"/><path class="c" d="M350.106,514.205c.087,0,4.511-.465,4.511-.465s2.677,5.269,2.5,6.549-.5,2.416-1.571,2.215a47.842,47.842,0,0,0-5.8.158Z" transform="translate(-301.48 -441.734)"/><path class="e" d="M360.2,501.05s4.06,2.182,4.147,2.848-2.067-.291-2.532-.407a5.813,5.813,0,0,0-.932-.146l-3.1.084Z" transform="translate(-308.24 -431.052)"/><circle class="d" cx="0.427" cy="0.427" r="0.427" transform="translate(57.748 51.543)"/><circle class="g" cx="0.427" cy="0.427" r="0.427" transform="translate(57.748 51.369)"/><circle class="d" cx="0.427" cy="0.427" r="0.427" transform="translate(58.534 70.036)"/><circle class="g" cx="0.427" cy="0.427" r="0.427" transform="translate(58.534 69.861)"/><circle class="d" cx="0.427" cy="0.427" r="0.427" transform="translate(58.174 60.789)"/><circle class="g" cx="0.427" cy="0.427" r="0.427" transform="translate(58.174 60.615)"/><path class="c" d="M434.872,349.894s.291.437,0,.641.028.7.028.7-.726.426-.407.809.117,2.112.117,2.112l-.873,1.446s.052.932.055,2.191c0,1.965-.116,4.728-.755,5.987l.089,10.334a14.066,14.066,0,0,1-5.619.777l-.38-16.582s.554-9.4.758-11.207a18.781,18.781,0,0,0,.146-2.824,31.56,31.56,0,0,0-.38-4.133s-.316-5.676-.348-7.247c-.014-.752.025-2.945.07-5.03.049-2.28.1-4.43.1-4.43l-.578-4.57s.578-.059.752.174a1.665,1.665,0,0,0,.253.195h0c1,.674,4.519,2.747,4.519,2.747s1.949.775,2.416,1.886a16.436,16.436,0,0,0,1.017,2.215,6.837,6.837,0,0,1,.35,1.8s.671,2.737,1.195,3.2.907,3.413.907,3.413l-4.628,3.639s-.407,6.054-.494,6.288S434.872,349.894,434.872,349.894Z" transform="translate(-366.423 -277.688)"/><path class="c" d="M434.988,349.626s.29.437,0,.641.027.7.027.7-.722.43-.405.813.117,2.112.117,2.112l-.873,1.446s.052.932.057,2.192c0,1.965-.115,4.728-.755,5.987l.087,10.334a14.09,14.09,0,0,1-5.62.777l-.378-16.582s.554-9.4.758-11.207a18.6,18.6,0,0,0,.144-2.824,31.752,31.752,0,0,0-.378-4.133s-.316-5.676-.35-7.247c-.014-.752.027-2.945.07-5.03.049-2.28.1-4.43.1-4.43l-.763-4.631s.763,0,.938.236a1.5,1.5,0,0,0,.253.195h0c1,.674,4.521,2.747,4.521,2.747s1.948.775,2.415,1.886a16.182,16.182,0,0,0,1.019,2.215,6.757,6.757,0,0,1,.348,1.8s.671,2.737,1.195,3.2.9,3.407.9,3.407l-4.628,3.639s-.407,6.054-.5,6.288S434.988,349.626,434.988,349.626Z" transform="translate(-366.364 -277.42)"/><path class="d" d="M430.38,326.358l.418,1.218-2.2,2.215c.049-2.278.1-4.43.1-4.43l-.763-4.631s.763,0,.938.236a1.437,1.437,0,0,0,.253.193h0l1.87,5.4Z" transform="translate(-367.298 -279.263)"/><path class="c" d="M429.27,324.148l.419,1.218-2.2,2.215c.049-2.28.1-4.43.1-4.43l-.764-4.631s.764,0,.938.236a1.583,1.583,0,0,0,.253.195h0l1.872,5.394Z" transform="translate(-366.364 -277.403)"/><path class="d" d="M384.656,249.095a5.362,5.362,0,0,1-.266,1.679.226.226,0,0,1-.171-.043,6.986,6.986,0,0,0-1.6-3.9,4.1,4.1,0,0,0-.87-.9,1.7,1.7,0,0,0-1.18-.334c-.475.065-.894.388-1.373.429-.633.052-1.2-.386-1.828-.408a1.8,1.8,0,0,0-1.343.623,3.685,3.685,0,0,0-.72,1.335,7.812,7.812,0,0,0-.4,2.3c-.008.443-.051,1-.462,1.16a2.364,2.364,0,0,0-.6-1.805l-.009-.009v-.13a5.414,5.414,0,1,1,10.828,0Z" transform="translate(-321.75 -214.405)"/><path class="h" d="M372.687,221.684a3.728,3.728,0,0,0-2.63-.206c-.438.13-.851.34-1.3.446-.949.229-2.057-.019-2.872.536a3.435,3.435,0,0,0-.978,1.3l-.633,1.206a7.825,7.825,0,0,0-.837,2.057,2.627,2.627,0,0,0,.4,2.123c.335.426.831.693,1.195,1.093a2.373,2.373,0,0,1,.595,1.8c.413-.158.453-.715.462-1.158a7.813,7.813,0,0,1,.4-2.3,3.673,3.673,0,0,1,.72-1.335,1.8,1.8,0,0,1,1.343-.623c.633.022,1.2.459,1.828.407.475-.04.9-.364,1.373-.427a1.7,1.7,0,0,1,1.18.334,4.056,4.056,0,0,1,.869.9,6.967,6.967,0,0,1,1.606,3.9c.179.131.437-.04.525-.242a5.773,5.773,0,0,1,.2-.633,2.332,2.332,0,0,1,.573-.51,2.24,2.24,0,0,0,.6-1.793,8.926,8.926,0,0,1-.022-1.949c.074-.392.242-.76.334-1.147a1.5,1.5,0,0,0-.114-1.157,1.949,1.949,0,0,0-1.563-.633c-.66-.057-1.25.016-1.671-.54a6.056,6.056,0,0,0-.665-.813C373.534,222.241,372.687,221.718,372.687,221.684Z" transform="translate(-312.952 -195.591)"/><path class="d" d="M301.937,418.187l-1.654-3.057-.524,4.717a21.864,21.864,0,0,1,.233,2.416,23.229,23.229,0,0,0,1.193,3.2s4.135,7.364,5.823,7.744l5.7-4.076-1.513-1.921s-.524-.2-.655,0c0,0-2.809-4.832-3.1-5.182a1.745,1.745,0,0,1-.234-1.047s-.437-.465-.291-.9-.843-1.951-.843-1.951l.9-.843Z" transform="translate(-259.4 -358.727)"/><path class="c" d="M298.51,412.93l-.437.348-.524,4.717a21.865,21.865,0,0,1,.233,2.416,23.212,23.212,0,0,0,1.195,3.2s4.133,7.364,5.821,7.744l5.706-4.076-1.514-1.921s-.524-.2-.655,0c0,0-2.809-4.832-3.1-5.182a1.74,1.74,0,0,1-.233-1.048s-.437-.465-.291-.9-.845-1.951-.845-1.951l.9-.843Z" transform="translate(-257.54 -356.875)"/><path class="d" d="M457.329,514.718c.316.385.117,2.111.117,2.111l-.873,1.446s.052.934.055,2.192l-1.468.459a.872.872,0,0,1-1.131-.859l.253-8.166,3.426,1.31c-.291.2.028.7.028.7S457.009,514.334,457.329,514.718Z" transform="translate(-389.258 -440.185)"/><path class="c" d="M458.43,513.617c.316.384.117,2.112.117,2.112l-.873,1.446s.052.932.057,2.192l-1.5.467a.854.854,0,0,1-1.108-.842l.255-8.192,3.427,1.31c-.293.2.027.7.027.7S458.114,513.234,458.43,513.617Z" transform="translate(-390.184 -439.259)"/><path class="e" d="M468.591,497.222s-.233,1.486-.815,1.573-.843,2.4-1.424,2.321-.2-2.153-.176-2.555-.633-2.066-.144-2.445,2.036,0,2.036,0Z" transform="translate(-399.21 -426.757)"/><path class="d" d="M466.651,419.905l1.1-2.215a14.382,14.382,0,0,1,.437,2.59c0,.9.611.991.611.991s.669.791.316,1.367a6.638,6.638,0,0,0-.5,2.009s.115,2.736-.408,3.114a2.119,2.119,0,0,0-.633,1.282,9.283,9.283,0,0,0-.932,2.125,21.1,21.1,0,0,1-1.339,3.173s.669-3.435-3.231-4.919c0,0-.03-1.166.261-1.486s.745-.465.461-2.081a18.87,18.87,0,0,1-.082-3.934,24.77,24.77,0,0,1,.873-2.805Z" transform="translate(-396.031 -360.882)"/><path class="c" d="M468.886,415.69l.959.316a14.336,14.336,0,0,1,.438,2.59c0,.9.611.991.611.991s.669.791.316,1.367a6.619,6.619,0,0,0-.494,2.009s.116,2.736-.408,3.114a2.148,2.148,0,0,0-.641,1.282,9.287,9.287,0,0,0-.93,2.125,21.1,21.1,0,0,1-1.34,3.173s.671-3.435-3.231-4.919c0,0-.029-1.166.263-1.486s.745-.465.46-2.081a18.869,18.869,0,0,1-.082-3.934,24.773,24.773,0,0,1,.873-2.805Z" transform="translate(-397.791 -359.198)"/><path class="d" d="M360.15,775.811s1.528-.961,2.532-.263S360.15,775.811,360.15,775.811Z" transform="translate(-310.235 -661.902)"/><path class="d" d="M435.21,759.745a3.1,3.1,0,0,1,2.489,1.049C438.835,762.017,435.21,759.745,435.21,759.745Z" transform="translate(-373.418 -648.806)"/><g class="i" transform="translate(50.427 29.215)"><path d="M388.762,256.2a2.346,2.346,0,0,0-.574.511,5.774,5.774,0,0,0-.2.633c-.089.206-.347.373-.525.244a7,7,0,0,0-1.606-3.9,4.052,4.052,0,0,0-.869-.9,1.7,1.7,0,0,0-1.182-.334c-.475.065-.892.388-1.372.427-.633.054-1.2-.384-1.829-.407a1.791,1.791,0,0,0-1.342.625,3.663,3.663,0,0,0-.72,1.334,7.822,7.822,0,0,0-.4,2.3c-.009.441-.051.992-.459,1.157a2.163,2.163,0,0,1,0,.351c.411-.158.453-.715.462-1.158a7.815,7.815,0,0,1,.4-2.3,3.672,3.672,0,0,1,.72-1.335,1.8,1.8,0,0,1,1.342-.623c.633.022,1.2.459,1.829.407.475-.04.9-.364,1.372-.427a1.7,1.7,0,0,1,1.182.334,4.053,4.053,0,0,1,.869.9,6.978,6.978,0,0,1,1.606,3.9c.179.131.437-.04.525-.242a6.122,6.122,0,0,1,.2-.633,2.343,2.343,0,0,1,.574-.51,2.239,2.239,0,0,0,.6-1.793v-.06A2.077,2.077,0,0,1,388.762,256.2Z" transform="translate(-375.418 -250.996)"/><path d="M365.048,262.768c-.364-.4-.861-.668-1.195-1.092a2.317,2.317,0,0,1-.46-1.3,2.437,2.437,0,0,0,.46,1.644c.334.426.831.693,1.195,1.093a2.374,2.374,0,0,1,.6,1.411A2.374,2.374,0,0,0,365.048,262.768Z" transform="translate(-363.385 -257.677)"/><path d="M451.4,243.613c-.093.388-.26.756-.336,1.147a3.656,3.656,0,0,0-.049.791,3.077,3.077,0,0,1,.049-.449c.076-.392.242-.76.336-1.147a1.948,1.948,0,0,0,.052-.655A2.216,2.216,0,0,1,451.4,243.613Z" transform="translate(-437.149 -243.3)"/></g><ellipse class="a" cx="15.418" cy="2.476" rx="15.418" ry="2.476" transform="translate(5.988 115.39)"/><rect class="j" width="0.992" height="22.337" transform="translate(20.911 70.429)"/><path class="g" d="M150.905,636.446l-.062,1.006-.089,1.424-.036.592-.087,1.424-.038.592-.089,1.424-1,16.15a2.737,2.737,0,0,1-2.731,2.567h-5.2a2.736,2.736,0,0,1-2.729-2.567l-1-16.161-.089-1.424-.036-.592-.089-1.424-.036-.592-.089-1.424-.063-1.006a1.424,1.424,0,0,1,1.424-1.5h10.635a1.415,1.415,0,0,1,1.4,1.516Z" transform="translate(-122.768 -543.748)"/><path class="k" d="M103.919,592.24l-.089,1.419H90.669l-.089-1.419Z" transform="translate(-75.844 -498.536)"/><path class="k" d="M104.459,604.95l-.087,1.421H91.459l-.089-1.421Z" transform="translate(-76.509 -509.235)"/><path class="k" d="M105,617.68l-.087,1.419H92.249l-.089-1.419Z" transform="translate(-77.174 -519.95)"/><path class="f" d="M60.487,533.178A25.8,25.8,0,0,1,68.676,543.9a25.745,25.745,0,0,1-12.741-4.419A25.756,25.756,0,0,1,47.75,528.76,25.728,25.728,0,0,1,60.487,533.178Z" transform="translate(-47.265 -454.377)"/><path class="l" d="M47.72,528.76s7.228,4.011,9.546,7.332,11.385,7.8,11.385,7.8" transform="translate(-47.24 -454.377)"/><path class="f" d="M114.934,490.665a14.048,14.048,0,0,1,4.459,5.832A12.734,12.734,0,0,1,108,488.26,14.011,14.011,0,0,1,114.934,490.665Z" transform="translate(-97.982 -420.285)"/><path class="l" d="M108,488.26s3.934,2.184,5.195,3.991,6.2,4.247,6.2,4.247" transform="translate(-97.982 -420.285)"/><path class="f" d="M185.567,511.4a19.378,19.378,0,0,0-4.377,9.158,17.612,17.612,0,0,0,13.079-14.38A19.393,19.393,0,0,0,185.567,511.4Z" transform="translate(-159.591 -435.37)"/><path class="l" d="M194.272,506.19s-4.706,4.07-5.9,6.873-7.18,7.5-7.18,7.5" transform="translate(-159.591 -435.378)"/><path class="m" d="M857.983,305.885s-2.612-13-1.612-14.614c0,0,.036-1.5-.024-3.419v-.22a4.863,4.863,0,0,0,.549.316,4.443,4.443,0,0,0,2.99.386l-.791-.881a1.461,1.461,0,0,1-.429-.717,1.5,1.5,0,0,1,.171-.775c.752-1.9.791-4.286-.657-5.736-1.223-1.218-1.521-2.791-2.848-3.9a8.229,8.229,0,0,1-2.006-3.165,17.805,17.805,0,0,1-1.1-3c-.19-.809-.266-1.646-.527-2.435a3.1,3.1,0,0,0-1.514-1.91,5.714,5.714,0,0,1-.823-.362,3.558,3.558,0,0,1-.758-.891c-1.2-1.582-5.209-.65-7.108-.008a4,4,0,0,0-1.405.779l.017-.029c.014-.024.032-.048.048-.071a2.5,2.5,0,0,0-.532.593,14.267,14.267,0,0,0-.623,1.424c-.278.562-1.828,2.13-1.161,2.761a.559.559,0,0,0,.158.1,1.369,1.369,0,0,0,.791.079l-.028.068a4.626,4.626,0,0,0-.343,1.755,4.749,4.749,0,0,0,4.791,4.707,4.837,4.837,0,0,0,1.467-.226c.011.06.021.12.032.18a.553.553,0,0,0,.011.071h0l-.084.117a.173.173,0,0,0-.014-.021l-2.484,3.472c-.38.267-2.566,1.85-2.69,3.036-.13,1.3-.259,2.82-.259,2.82l-.017.326a.978.978,0,0,1-.791.214c-.775-.127-.775,2.848-.775,2.848s-.516.475-.87.063-1.291.983-1.291.983l-5.87.253h0l-.134.008-.317-.979a.413.413,0,0,0-.517-.264.479.479,0,0,0-.071.03l-.022.013-.041.029-.021.019a.329.329,0,0,0-.032.033l-.019.022-.01.009h0a.4.4,0,0,0-.057.354l.272.84c-1.133.228-2.291.87-1.346,2.639l-4.788-.885,1.549,1.3,8,1.65c-.106.19-.036.465.294.853,1.424,1.673,4.019,2.127,5.063,2.244a9,9,0,0,0,1.027,1.74l-.09,1.666s-2.644,12.7-3.128,13.343a7.515,7.515,0,0,0,.669-.881c-.767,2.609-1.84,6.18-2.122,6.715-.453.854-.872,4.312-.356,4.533a4.341,4.341,0,0,0,1.256-.014v.286l-.028,10.853s.13,6.657-.226,7.291a6.211,6.211,0,0,0-.451,1.965,19.293,19.293,0,0,1-2.552,3.68.173.173,0,0,1-.025.022l-.035-.247a5.384,5.384,0,0,1-4.356,1.616s-1.805,1.174.872,1.237,6.1-.095,6.1-.095,2.388-3.639,4.388-3.165v2.758h.612v-2.8a2.511,2.511,0,0,0,1.09-1.65,2.006,2.006,0,0,0-.715-1.856,1.187,1.187,0,0,1-.391-.867l-.022.019a1.681,1.681,0,0,0-.021-.171,15.788,15.788,0,0,1,.381-6.536c1.065-2.981,1.388-7.133.612-9.6a22.1,22.1,0,0,1-.615-2.407c-.019-.1-.036-.2-.052-.293a12.474,12.474,0,0,1,1.571.316c1.8.5,5.725.587,9.079.56.008.092.017.188.028.285a10.357,10.357,0,0,0,.374,1.981,50.473,50.473,0,0,1,.614,6.847,36.218,36.218,0,0,1,.247,6.456c-.158,1.038-.316,2.081-.406,3.128v.021s-.889,2.532-1.54,3.907c-.016.035-.033.07-.049.1a2.059,2.059,0,0,0-.508.112s-.872,1.741-1.74,2.029-.581,1.236,1.386.888,4.937-.633,4.937-.633l.128-1.775.6-.756-.158,1.771.644-.127-.085-2.154.989-1.237s1.195-1.063-.581-3.155v.046c-.019-.03-.036-.062-.057-.092v-.009a3.381,3.381,0,0,1-.1-2.813c.775-2.725,1.226-5.2,1.226-5.2s1.731-6.625-.35-9.76h.092a5.269,5.269,0,0,1-.448-1.392q-.016-.085-.028-.176a11.417,11.417,0,0,0,4.283-.968C859.339,324.11,858.6,308.388,857.983,305.885ZM838.437,294.92v.032l-.316.016Zm-1.085.15a.349.349,0,0,0-.142.068,1.406,1.406,0,0,0-.248.65l-.494-.111s-.347-.074-.845-.158l-.236-.237C836.035,295.228,836.709,295.149,837.352,295.07Z" transform="translate(-699.402 -231.25)"/><path class="n" d="M971.508,741.847l-.188,2.242.631-.127-.095-2.432Z" transform="translate(-817.225 -624.204)"/><path class="o" d="M882.922,663.473a16.03,16.03,0,0,0-.375,6.514c.063.525.122.845.122.845s-1.138,2.592-1.233,2.69-3.348,2.084-3.348,2.084l-2.274,1.328s-2.307-1.011-1.2-1.359a1.678,1.678,0,0,0,.6-.406,19.1,19.1,0,0,0,2.5-3.668,6.309,6.309,0,0,1,.443-1.959c.348-.631.222-7.266.222-7.266l.027-10.815v-1.41l4.328.032a9.794,9.794,0,0,0,.187,1.424,21.717,21.717,0,0,0,.6,2.4C884.28,656.371,883.963,660.5,882.922,663.473Z" transform="translate(-743.042 -556.476)"/><path class="d" d="M882.669,776.912s-1.138,2.592-1.233,2.69-3.348,2.084-3.348,2.084l-2.274,1.328s-2.307-1.011-1.2-1.359a1.678,1.678,0,0,0,.6-.407l.1.692.758-.032,6.487-5.837C882.61,776.592,882.669,776.912,882.669,776.912Z" transform="translate(-743.042 -662.555)"/><path class="n" d="M861.208,777l-6.524,5.877-.758.032-.158-1.107a5.238,5.238,0,0,1-4.272,1.611s-1.769,1.169.853,1.233,5.97-.095,5.97-.095,2.339-3.639,4.3-3.164v2.748h.6v-2.774a2.5,2.5,0,0,0,1.066-1.646,2.016,2.016,0,0,0-.7-1.848A1.19,1.19,0,0,1,861.208,777Z" transform="translate(-721.66 -663.338)"/><path class="o" d="M992.291,666.225a3.421,3.421,0,0,0,.1,2.8v.01a5.183,5.183,0,0,1,.756,1.846l.025.142-2.968,4.328-1.611.633s-2.59-.884-2.117-1.138a2.424,2.424,0,0,0,.516-.845c.633-1.369,1.506-3.894,1.506-3.894v-.021c.092-1.043.238-2.082.4-3.117a36.73,36.73,0,0,0-.242-6.434,51.345,51.345,0,0,0-.6-6.823,10.445,10.445,0,0,1-.369-1.968c-.085-.791-.1-1.443-.1-1.443s1.706-2.373,4.832.19a3.439,3.439,0,0,1,.653.709c2.16,3.073.421,9.842.421,9.842S993.049,663.509,992.291,666.225Z" transform="translate(-837.406 -555.848)"/><path class="d" d="M993.2,775.757l-2.968,4.327-1.611.633s-2.59-.885-2.117-1.138a2.428,2.428,0,0,0,.516-.845,2.048,2.048,0,0,1,1.665,1.035l1.389-.221a26.8,26.8,0,0,1,2.244-3.821c.411-.22.063-1.644.063-1.644v-.363c.011.013.021.027.033.04v.009a5.181,5.181,0,0,1,.756,1.847Z" transform="translate(-837.432 -660.577)"/><path class="n" d="M977.418,780.351a1.934,1.934,0,0,0-2.307-.916s-.853,1.741-1.706,2.022-.568,1.231,1.359.885,4.833-.633,4.833-.633l.127-1.771,1.959-2.5s1.168-1.059-.57-3.142v.362s.348,1.424-.063,1.644a26.741,26.741,0,0,0-2.237,3.823Z" transform="translate(-826.071 -661.066)"/><path class="d" d="M904.472,650.062a9.806,9.806,0,0,0,.187,1.424,19.841,19.841,0,0,0-4.519-.046v-1.41Z" transform="translate(-764.782 -556.459)"/><path class="d" d="M999.455,651.59s-2.532.123-5.551.149c-.086-.791-.1-1.443-.1-1.443s1.706-2.374,4.832.19a3.435,3.435,0,0,1,.653.709A3.879,3.879,0,0,0,999.455,651.59Z" transform="translate(-843.623 -555.84)"/><path class="n" d="M912.845,503.857s-11.089.536-14.469-.411-6.729-.127-7.234-.346-.095-3.665.348-4.518,2.873-9.478,2.873-9.478L896.7,476.91l2.464-.679.174-.049L903.633,475l3.146-.869s6.255,24.42,5.718,26.22a4.614,4.614,0,0,0-.092,2.119A5.288,5.288,0,0,0,912.845,503.857Z" transform="translate(-757.013 -408.391)"/><path class="p" d="M869.8,439s-2.215,2.374-.538,3.7,2.78.127,2.78.127Z" transform="translate(-738.261 -378.82)"/><path class="d" d="M869.8,439s-2.215,2.374-.538,3.7,2.78.127,2.78.127Z" transform="translate(-738.261 -378.82)"/><path class="o" d="M963.9,317.364s-.259.247-.65.611c-.557.521-1.381,1.282-2.112,1.919-1.013.881-1.848,1.529-1.549.976a4.266,4.266,0,0,0,.093-2.415c-.011-.06-.021-.12-.032-.179a16.63,16.63,0,0,0-.489-1.956,33.826,33.826,0,0,1,2.541-2.948c.337-.316.573-.446.587-.226a7.351,7.351,0,0,0,.513,1.643c.008.022.016.043.025.065.184.475.391.962.573,1.383C963.677,316.883,963.9,317.364,963.9,317.364Z" transform="translate(-814.464 -272.789)"/><path class="d" d="M962.826,314.865a4.7,4.7,0,0,1-3.146,3.6,16.459,16.459,0,0,0-.52-2.134s3.081-3.979,3.128-3.174A7.534,7.534,0,0,0,962.826,314.865Z" transform="translate(-814.464 -272.799)"/><path class="d" d="M928.994,351.012l.4-.562s.264,1.611,1.236.9,1.019,5.347,1.019,5.347l-1.043,15.59-7.535-.451.214-7.533.853-3.8,2.109-5.521,1.255-1.824Z" transform="translate(-784.084 -304.281)"/><path class="n" d="M931.673,357.265l-.949,14.1-.1,1.494-4.2-.252-.158-.009-3.165-.19.214-7.535.853-3.8,2.109-5.521,1.255-1.824,1.494-2.157.4-.56s.264,1.611,1.236.9l.021-.014h0C931.629,351.295,931.673,357.265,931.673,357.265Z" transform="translate(-784.109 -304.752)"/><path class="c" d="M878.564,406.26a1.153,1.153,0,0,1-1.138.663c-.759-.128-.758,2.848-.758,2.848s-.5.475-.853.063-1.266.979-1.266.979l-5.75.253s2.559,1.169,2.057,4.707c0,0,8.687-.538,8.972-1.359S878.564,406.26,878.564,406.26Z" transform="translate(-738.401 -351.26)"/><path class="q" d="M878.564,406.26a1.153,1.153,0,0,1-1.138.663c-.759-.128-.758,2.848-.758,2.848s-.5.475-.853.063-1.266.979-1.266.979l-5.75.253s2.559,1.169,2.057,4.707c0,0,8.687-.538,8.972-1.359S878.564,406.26,878.564,406.26Z" transform="translate(-738.401 -351.26)"/><path class="c" d="M777.66,389.76l1.516,1.294,12.478,2.622-1.547-1.579Z" transform="translate(-654.207 -328.094)"/><path class="c" d="M912.6,349.279a31.893,31.893,0,0,0-1.3,3.351c-.413,1.179-.758,2.215-.758,2.215a59.239,59.239,0,0,1-1.217,6.192c-.411.948-.188,4.644-.188,4.644l-1.533,9.128a45.524,45.524,0,0,1-1.768,7.519,13.694,13.694,0,0,1-2.274,4.106c.475-.642,3.062-13.291,3.062-13.291l.854-15.953s.125-1.516.252-2.812,2.69-3.065,2.69-3.065L912.9,347.8C913.148,348.132,912.982,348.711,912.6,349.279Z" transform="translate(-767.67 -302.05)"/><path class="o" d="M889.427,468.1s-3.639-.158-5.4-2.275,4.074-.845,4.074-.845l1.518.348Z" transform="translate(-750.938 -400.373)"/><path class="d" d="M956.421,401.279a4.611,4.611,0,0,0-.092,2.119,30.162,30.162,0,0,1-8.217-.791,18.451,18.451,0,0,1-2.875,1.8L944.1,390.325c-.726-1.9-1.011-11.847-1.011-11.847s.065-.521.158-1.3a.15.15,0,0,1,.008-.059,60.454,60.454,0,0,1,1.121-6.821c.38-.759-1.168-2.78-1.168-2.78l.7-6,.085-.725a7.253,7.253,0,0,0,2.622-2.78l.874-1.53h0c.949-.609,1,5.361,1,5.361l-.949,14.1,3.146-.869S956.957,399.478,956.421,401.279Z" transform="translate(-800.936 -309.318)"/><path class="c" d="M961.505,382.189c-4.327,2.149-12.193.158-12.193.158a18.456,18.456,0,0,1-2.875,1.8L945.3,370.066c-.725-1.9-1.01-11.847-1.01-11.847s.915-7.422,1.294-8.18a1.219,1.219,0,0,0-.074-.905,11.45,11.45,0,0,1-.693-5.3l.3-2.581.084-.723a7.262,7.262,0,0,0,2.623-2.782l.791-1.386,1.456-2.554.69-1.209.117.106.894.81.949.791c1.239,1.044,3.38,2.883,4.484,4.008.971.99,1.278,4.843,1.367,7.744.059,1.91.024,3.407.024,3.407-.979,1.612,1.582,14.557,1.582,14.557C960.779,366.524,961.505,382.189,961.505,382.189Z" transform="translate(-801.947 -289.255)"/><path class="q" d="M929.749,363.753s-2.97,5.654-2.625,7.8,1.326,4.581.853,5.149a1.748,1.748,0,0,1-1.391.695,4.571,4.571,0,0,0-1.741,1.011,16.48,16.48,0,0,0-2.215.538,13.794,13.794,0,0,1-2.59.695s-3.006-.095-3.286.19a4.227,4.227,0,0,0,.032,3.348,5.273,5.273,0,0,0,1.769,2.559c.5.185,3.7-.884,6.287-1.138a13.376,13.376,0,0,0,5.4-2.305s3.1-1.108,3.639-2.97-.663-12.1-.663-12.1S932.307,362.457,929.749,363.753Z" transform="translate(-778.497 -315.291)"/><path class="q" d="M927.373,360.755s-2.97,5.655-2.622,7.8,1.326,4.581.851,5.15a1.741,1.741,0,0,1-1.389.695,4.573,4.573,0,0,0-1.74,1.011,16.627,16.627,0,0,0-2.215.536,13.926,13.926,0,0,1-2.59.695s-3.007-.095-3.285.19a4.228,4.228,0,0,0,.031,3.348,5.3,5.3,0,0,0,1.769,2.559c.5.185,3.7-.885,6.286-1.136a13.344,13.344,0,0,0,5.4-2.307s3.095-1.108,3.631-2.968-.663-12.1-.663-12.1S929.932,359.461,927.373,360.755Z" transform="translate(-776.501 -312.768)"/><path class="c" d="M929.176,361.964s-2.97,5.655-2.622,7.8,1.326,4.581.853,5.149a1.74,1.74,0,0,1-1.391.7,4.594,4.594,0,0,0-1.74,1.009,16.285,16.285,0,0,0-2.215.538,13.822,13.822,0,0,1-2.59.695s-3.006-.095-3.287.19a4.227,4.227,0,0,0,.032,3.348,5.283,5.283,0,0,0,1.769,2.559c.5.185,3.7-.884,6.286-1.138a13.377,13.377,0,0,0,5.4-2.305s3.1-1.108,3.639-2.97-.655-12.1-.655-12.1S931.733,360.676,929.176,361.964Z" transform="translate(-778.017 -313.787)"/><path class="d" d="M990.429,458.249s-2.373-.475-1.547.317.821,1.484,1.832,1.453S990.429,458.249,990.429,458.249Z" transform="translate(-839.335 -394.904)"/><path class="d" d="M1023.449,566.58s-1.073.726.979,2.4S1023.449,566.58,1023.449,566.58Z" transform="translate(-868.344 -486.213)"/><path class="d" d="M1011.755,604.31c0,.095-.38,3.481,1.041,4.327S1011.755,604.31,1011.755,604.31Z" transform="translate(-858.698 -517.973)"/><path class="o" d="M855.073,436.59c-1.146.04-3.62.389-2.337,2.783,1.135,2.119,3.041.7,4.114-.372A4.043,4.043,0,0,0,855.073,436.59Z" transform="translate(-724.576 -376.791)"/><path class="o" d="M881.39,451Z" transform="translate(-748.999 -388.921)"/><path class="o" d="M880.74,451.449l.048-.049Z" transform="translate(-748.452 -389.258)"/><path class="d" d="M957.145,334.9c-1.215.831-2.234,1.532-2.434,1.677-.544.4-1.582,2.772-2.251,3.981-.533.973-2.266,1.223-2.919,1.285l.084-.723a7.261,7.261,0,0,0,2.624-2.782l2.937-5.149,1.011.919Z" transform="translate(-806.366 -289.752)"/><path class="r" d="M957.145,334.3c-1.215.831-2.234,1.532-2.434,1.679-.544.4-1.582,2.771-2.251,3.979-.533.973-2.266,1.223-2.919,1.285l.084-.723a7.26,7.26,0,0,0,2.624-2.782l2.937-5.149,1.011.916S956.575,333.82,957.145,334.3Z" transform="translate(-806.366 -289.247)"/><path class="o" d="M932.883,292.955a4.693,4.693,0,1,1-3.99-4.639A4.683,4.683,0,0,1,932.883,292.955Z" transform="translate(-784.443 -251.934)"/><path class="d" d="M942.886,308.738a4.172,4.172,0,0,1-1.514-1.627,4.282,4.282,0,0,0-.891-1.5,3.955,3.955,0,0,0-1.456-.562,4.267,4.267,0,0,1-3.112-3.745,22.161,22.161,0,0,0,.114-2.44,2.7,2.7,0,0,0-.528-1.258,4.342,4.342,0,0,0-.457-.492c-.221-.209-.454-.411-.656-.633a2.439,2.439,0,0,1-.332-.451,2.166,2.166,0,0,1-.182-.419c-.316-.968-.028-2.117-.377-3.1l-.019-.054a1.008,1.008,0,0,0-.771-.723c-.372-.027-.69.282-1.044.419a2.331,2.331,0,0,1-2.161-.7,2.963,2.963,0,0,0-2.1-.96,6.789,6.789,0,0,0-1.411.612,1.979,1.979,0,0,1-.334.1,4.692,4.692,0,0,1,8.943,2.728c.008.022.016.043.025.065.183.475.391.962.573,1.383l.894.81.949.791c1.239,1.044,3.38,2.883,4.484,4.008C942.491,301.987,942.794,305.838,942.886,308.738Z" transform="translate(-786.256 -251.933)"/><path class="s" d="M920.5,269.063c.226-.46.339-.976.609-1.413a3.366,3.366,0,0,1,1.8-1.283c1.859-.641,5.788-1.571,6.962,0a3.428,3.428,0,0,0,.742.886,5.522,5.522,0,0,0,.805.362,3.077,3.077,0,0,1,1.481,1.9c.255.782.331,1.62.518,2.426a17.826,17.826,0,0,0,1.076,2.986,8.222,8.222,0,0,0,1.964,3.152c1.3,1.108,1.582,2.676,2.785,3.891,1.424,1.443,1.378,3.824.644,5.715a1.571,1.571,0,0,0-.168.772,1.515,1.515,0,0,0,.419.715l.779.878a4.377,4.377,0,0,1-4.783-2.206,4.277,4.277,0,0,0-.892-1.5,3.945,3.945,0,0,0-1.454-.56,4.273,4.273,0,0,1-3.112-3.748,22.15,22.15,0,0,0,.114-2.437,2.688,2.688,0,0,0-.53-1.266c-.435-.568-1.092-.949-1.446-1.582-.6-1.059-.144-2.434-.576-3.57a1.009,1.009,0,0,0-.771-.723c-.372-.027-.69.282-1.046.419a2.325,2.325,0,0,1-2.16-.7,2.95,2.95,0,0,0-2.1-.959,6.62,6.62,0,0,0-1.41.612c-.355.136-1.073.258-1.383-.041C918.71,271.188,920.227,269.626,920.5,269.063Z" transform="translate(-780.828 -232.775)"/><path class="d" d="M936.394,295.509a4.284,4.284,0,0,0-.893-1.494,3.946,3.946,0,0,0-1.456-.562,4.274,4.274,0,0,1-3.112-3.747,22.533,22.533,0,0,0,.116-2.438,2.707,2.707,0,0,0-.53-1.258c-.437-.568-1.093-.949-1.446-1.582-.6-1.057-.144-2.432-.578-3.57a1.012,1.012,0,0,0-.769-.723c-.37-.028-.692.283-1.046.421a2.327,2.327,0,0,1-2.16-.7,2.964,2.964,0,0,0-2.1-.96,6.74,6.74,0,0,0-1.41.612c-.354.136-1.074.26-1.384-.04-.652-.633.865-2.191,1.138-2.752a15.175,15.175,0,0,1,.611-1.413c.014-.024.03-.047.046-.071a2.512,2.512,0,0,0-.52.592c-.271.437-.383.949-.609,1.413-.274.56-1.791,2.123-1.138,2.752.316.3,1.028.177,1.383.041a6.51,6.51,0,0,1,1.41-.612,2.947,2.947,0,0,1,2.1.959,2.333,2.333,0,0,0,2.161.7c.354-.138.665-.448,1.044-.419a1.008,1.008,0,0,1,.771.723c.432,1.136-.024,2.511.576,3.57.354.622,1.011,1.011,1.446,1.582a2.691,2.691,0,0,1,.53,1.266,22.2,22.2,0,0,1-.114,2.437,4.266,4.266,0,0,0,3.112,3.748,3.969,3.969,0,0,1,1.454.56,4.185,4.185,0,0,1,.892,1.5,4.378,4.378,0,0,0,4.783,2.206l-.367-.415A4.424,4.424,0,0,1,936.394,295.509Z" transform="translate(-780.647 -240.963)"/><path class="d" d="M948.46,349.8a31.9,31.9,0,0,0-1.3,3.351c-.464-.18-.885-1.331-.885-1.331l2.471-3.516C949,348.648,948.839,349.226,948.46,349.8Z" transform="translate(-803.622 -302.471)"/><path class="r" d="M949.06,349.2a31.942,31.942,0,0,0-1.3,3.351c-.464-.179-.884-1.331-.884-1.331l2.471-3.514C949.6,348.057,949.439,348.636,949.06,349.2Z" transform="translate(-804.127 -301.975)"/><path class="t" d="M862.448,433.521l-1.37-4.321a.4.4,0,0,1,.263-.508h0a.4.4,0,0,1,.506.263l1.37,4.316-.136.9Z" transform="translate(-731.885 -370.127)"/><path class="u" d="M861.554,428.853h0a.405.405,0,0,1,.508.263l1.37,4.316-.1.677.1.1.136-.9-1.378-4.316a.4.4,0,0,0-.506-.263h0a.405.405,0,0,0-.21.158A.55.55,0,0,1,861.554,428.853Z" transform="translate(-732.231 -370.16)"/><path class="v" d="M822.6,399.384l.769-.244-.112.741-.024.163-.225-.234Z" transform="translate(-692.037 -335.99)"/><path class="w" d="M872.42,461.724a.157.157,0,0,1,.049-.041.07.07,0,0,1,.074,0,.206.206,0,0,1,.027.043.136.136,0,0,0,.1.065l-.024.158Z" transform="translate(-741.448 -397.904)"/><path class="o" d="M861.13,441.7s2.748-.016,2.1,1.154a2.472,2.472,0,0,1-1.658,1.31Z" transform="translate(-731.945 -381.093)"/><path class="f" d="M560.747,110.05h-.119a13.534,13.534,0,0,0-11.3,6.185,13.534,13.534,0,0,0-11.3-6.185h-.119a13.449,13.449,0,0,0-13.321,13.442c0,4.4,1.927,10.644,5.685,15.782,7.16,9.79,19.054,18.355,19.054,18.355s11.894-8.563,19.052-18.355c3.76-5.138,5.685-11.381,5.685-15.782A13.449,13.449,0,0,0,560.747,110.05Zm-1.7,29.977a2.666,2.666,0,0,1-2.479-1.712h-2.823a.892.892,0,0,1-.84-.608l-.867-2.612-2.744,9.587a.888.888,0,0,1-.851.641h-.055a.877.877,0,0,1-.823-.734l-2.828-17.006-2.066,10.063a.881.881,0,0,1-.856.669H537.84a.885.885,0,1,1,0-1.767h3.28l2.927-13.53a.888.888,0,0,1,1.741.073l2.888,17.348,2.459-8.578a.87.87,0,0,1,.828-.633h.017a.883.883,0,0,1,.839.608l1.568,4.717h2.149a2.652,2.652,0,1,1,2.519,3.481Z" transform="translate(-448.655 -101.919)"/></g></svg>