<svg xmlns="http://www.w3.org/2000/svg" width="73.686" height="99.282" viewBox="0 0 73.686 99.282">
  <g id="doctor_5_" data-name="doctor (5)" transform="translate(-65.999)">
    <g id="Group_328" data-name="Group 328" transform="translate(72.943 6.944)" opacity="0.2">
      <path id="Path_2953" data-name="Path 2953" d="M165.163,35.811a3.388,3.388,0,0,1,3.388,3.388v85.562a3.388,3.388,0,0,1-3.388,3.388H105.2a3.388,3.388,0,0,1-3.388-3.388V35.811Z" transform="translate(-101.809 -35.811)" fill="#2dbdca"/>
    </g>
    <path id="Path_2954" data-name="Path 2954" d="M76.777,0h52.576a3.388,3.388,0,0,1,3.388,3.388V88.95a3.388,3.388,0,0,1-3.388,3.388H69.387A3.388,3.388,0,0,1,66,88.95V10.466Z" transform="translate(0)" fill="#2dbdca" opacity="0.2"/>
    <path id="Path_2955" data-name="Path 2955" d="M379.473,3.39V88.953a3.387,3.387,0,0,1-3.389,3.387h-4a3.387,3.387,0,0,0,3.389-3.387V3.39A3.387,3.387,0,0,0,372.083,0h4a3.387,3.387,0,0,1,3.389,3.387Z" transform="translate(-246.731 -0.002)" fill="#c2c2c2"/>
    <path id="Path_2956" data-name="Path 2956" d="M76.777,0l-.025,9.185a1.31,1.31,0,0,1-1.313,1.306L66,10.466Z" fill="#c2c2c2"/>
    <g id="Group_329" data-name="Group 329" transform="translate(114.197)">
      <path id="Path_2957" data-name="Path 2957" d="M317.553,0V17.035a1.535,1.535,0,0,0,3.071,0V9.318a1.5,1.5,0,0,1,3,0v7.716a4.53,4.53,0,0,1-9.061,0V0Z" transform="translate(-314.558)" fill="#c2c2c2"/>
    </g>
    <g id="Group_333" data-name="Group 333" transform="translate(75.886 21.01)">
      <g id="Group_331" data-name="Group 331" transform="translate(12.179)">
        <path id="Path_2958" data-name="Path 2958" d="M200.8,116.05h-4.492a1.6,1.6,0,0,1-1.6-1.6v-4.492a1.6,1.6,0,0,0-1.6-1.6H189.09a1.6,1.6,0,0,0-1.6,1.6v4.492a1.6,1.6,0,0,1-1.6,1.6H181.4a1.6,1.6,0,0,0-1.6,1.6v4.019a1.6,1.6,0,0,0,1.6,1.6h4.492a1.6,1.6,0,0,1,1.6,1.6v4.492a1.6,1.6,0,0,0,1.6,1.6h4.019a1.6,1.6,0,0,0,1.6-1.6v-4.492a1.6,1.6,0,0,1,1.6-1.6H200.8a1.6,1.6,0,0,0,1.6-1.6v-4.019A1.6,1.6,0,0,0,200.8,116.05Z" transform="translate(-179.795 -108.354)" fill="#ee6161"/>
        <g id="Group_330" data-name="Group 330" transform="translate(9.294)">
          <path id="Path_2959" data-name="Path 2959" d="M230.922,185.272h4.027a1.6,1.6,0,0,0-1.6,1.6v4.491a1.6,1.6,0,0,1-1.6,1.6h-4.021a1.6,1.6,0,0,0,1.592-1.6v-4.491A1.6,1.6,0,0,1,230.922,185.272Z" transform="translate(-227.727 -170.356)" fill="#e94444"/>
          <path id="Path_2960" data-name="Path 2960" d="M234.949,116.047h-4.027a1.6,1.6,0,0,1-1.6-1.6v-4.491a1.6,1.6,0,0,0-1.592-1.6h4.021a1.6,1.6,0,0,1,1.6,1.6v4.491a1.6,1.6,0,0,0,1.6,1.6Z" transform="translate(-227.727 -108.351)" fill="#e94444"/>
          <path id="Path_2961" data-name="Path 2961" d="M272.992,149.64v4.019a1.6,1.6,0,0,1-1.6,1.6h-4.029a1.6,1.6,0,0,0,1.6-1.6V149.64a1.6,1.6,0,0,0-1.6-1.6h4.029A1.6,1.6,0,0,1,272.992,149.64Z" transform="translate(-259.677 -140.344)" fill="#e94444"/>
        </g>
      </g>
      <g id="Group_332" data-name="Group 332" transform="translate(0 30.675)">
        <path id="Path_2962" data-name="Path 2962" d="M135.277,266.543H118.441a1.454,1.454,0,0,0,0,2.909h16.836a1.454,1.454,0,1,0,0-2.909Z" transform="translate(-116.987 -266.543)" fill="#cdbfba"/>
        <path id="Path_2963" data-name="Path 2963" d="M249.954,269.452h18.758a1.454,1.454,0,0,0,0-2.909H249.954a1.454,1.454,0,1,0,0,2.909Z" transform="translate(-222.998 -266.543)" fill="#cdbfba"/>
        <path id="Path_2964" data-name="Path 2964" d="M135.277,307.031H118.441a1.454,1.454,0,0,0,0,2.909h16.836a1.454,1.454,0,1,0,0-2.909Z" transform="translate(-116.987 -299.18)" fill="#cdbfba"/>
        <path id="Path_2965" data-name="Path 2965" d="M268.712,307.031H249.954a1.454,1.454,0,1,0,0,2.909h18.758a1.454,1.454,0,0,0,0-2.909Z" transform="translate(-222.998 -299.18)" fill="#cdbfba"/>
        <path id="Path_2966" data-name="Path 2966" d="M135.277,347.521H118.441a1.454,1.454,0,1,0,0,2.909h16.836a1.454,1.454,0,1,0,0-2.909Z" transform="translate(-116.987 -331.819)" fill="#cdbfba"/>
        <path id="Path_2967" data-name="Path 2967" d="M268.712,347.521H249.954a1.454,1.454,0,1,0,0,2.909h18.758a1.454,1.454,0,0,0,0-2.909Z" transform="translate(-222.998 -331.819)" fill="#cdbfba"/>
        <path id="Path_2968" data-name="Path 2968" d="M135.277,388.009H118.441a1.454,1.454,0,1,0,0,2.909h16.836a1.454,1.454,0,1,0,0-2.909Z" transform="translate(-116.987 -364.456)" fill="#cdbfba"/>
        <path id="Path_2969" data-name="Path 2969" d="M268.712,388.009H249.954a1.454,1.454,0,1,0,0,2.909h18.758a1.454,1.454,0,0,0,0-2.909Z" transform="translate(-222.998 -364.456)" fill="#cdbfba"/>
      </g>
    </g>
  </g>
</svg>
