<svg xmlns="http://www.w3.org/2000/svg" xmlns:xlink="http://www.w3.org/1999/xlink" width="455" height="575" viewBox="0 0 455 575">
  <defs>
    <clipPath id="clip-path">
      <rect id="Rectangle_19023" data-name="Rectangle 19023" width="455" height="575" transform="translate(339.9 353.914)" fill="#fff" stroke="#707070" stroke-width="1"/>
    </clipPath>
  </defs>
  <g id="Mask_Group_4" data-name="Mask Group 4" transform="translate(-339.9 -353.914)" clip-path="url(#clip-path)">
    <g id="Group_17743" data-name="Group 17743" transform="translate(194.67 354.622)">
      <g id="Group_17717" data-name="Group 17717" transform="translate(0 81.397)">
        <rect id="Rectangle_18973" data-name="Rectangle 18973" width="1088.741" height="0.544" transform="translate(0 713.007)" fill="#ebebeb"/>
        <rect id="Rectangle_18974" data-name="Rectangle 18974" width="72.123" height="0.544" transform="translate(907.529 748.055)" fill="#ebebeb"/>
        <rect id="Rectangle_18975" data-name="Rectangle 18975" width="18.93" height="0.544" transform="translate(702.297 753.964)" fill="#ebebeb"/>
        <rect id="Rectangle_18976" data-name="Rectangle 18976" width="103.794" height="0.544" transform="translate(801.556 727.835)" fill="#ebebeb"/>
        <rect id="Rectangle_18977" data-name="Rectangle 18977" width="51.561" height="0.544" transform="translate(114.229 731.494)" fill="#ebebeb"/>
        <rect id="Rectangle_18978" data-name="Rectangle 18978" width="56.282" height="0.544" transform="translate(185.176 731.494)" fill="#ebebeb"/>
        <rect id="Rectangle_18979" data-name="Rectangle 18979" width="140.752" height="0.544" transform="translate(286.276 740.687)" fill="#ebebeb"/>
        <path id="Path_8966" data-name="Path 8966" d="M471.106,670.847H50.636a12.444,12.444,0,0,1-12.429-12.429V67.38A12.442,12.442,0,0,1,50.636,54.953h420.47A12.442,12.442,0,0,1,483.533,67.38V658.418A12.444,12.444,0,0,1,471.106,670.847ZM50.636,55.5A11.9,11.9,0,0,0,38.751,67.38V658.418A11.9,11.9,0,0,0,50.636,670.3h420.47a11.9,11.9,0,0,0,11.883-11.885V67.38A11.9,11.9,0,0,0,471.106,55.5Z" transform="translate(44.988 -54.953)" fill="#ebebeb"/>
      </g>
      <g id="Group_17726" data-name="Group 17726" transform="translate(153.139 0)">
        <path id="Path_8975" data-name="Path 8975" d="M126.921,85.466l-1.494-1.585a66.917,66.917,0,0,1,36.6-17.64l.3,2.156A64.733,64.733,0,0,0,126.921,85.466Z" transform="translate(-108.782 -66.241)" fill="#407bff"/>
        <path id="Path_8976" data-name="Path 8976" d="M119.812,94.834l-2.029-.79A67.4,67.4,0,0,1,126.378,78.5l1.751,1.3A65.231,65.231,0,0,0,119.812,94.834Z" transform="translate(-117.783 -51.805)" fill="#407bff"/>
        <circle id="Ellipse_513" data-name="Ellipse 513" cx="59.744" cy="59.744" r="59.744" transform="translate(3.028 6.949)" fill="#407bff"/>
        <path id="Path_8977" data-name="Path 8977" d="M182.22,86.395a17.619,17.619,0,0,0-25.146-.235,17.619,17.619,0,0,0-25.146.235c-6.732,6.984-6.214,18.234.644,25.092l19.94,19.94a6.45,6.45,0,0,0,9.123,0l19.939-19.94C188.434,104.628,188.952,93.379,182.22,86.395Z" transform="translate(-94.299 -37.971)" fill="#fff"/>
        <path id="Path_8978" data-name="Path 8978" d="M157.788,120.521c-.018,0-.037,0-.055,0a1.534,1.534,0,0,1-1.4-1.039l-8.9-26.025-3.724,10.886a1.539,1.539,0,0,1-1.456,1.041h-14.9a1.537,1.537,0,1,1,0-3.075h13.8l4.823-14.1a1.537,1.537,0,0,1,2.909,0l9.059,26.477,8.789-20.7a1.538,1.538,0,0,1,1.331-.935,1.52,1.52,0,0,1,1.427.784l4.738,8.477h14a1.537,1.537,0,1,1,0,3.075h-14.9a1.542,1.542,0,0,1-1.342-.787l-3.647-6.525L159.2,119.585A1.537,1.537,0,0,1,157.788,120.521Z" transform="translate(-95.015 -34.657)" fill="#407bff"/>
      </g>
      <g id="Group_18704" data-name="Group 18704" transform="translate(224.346 32.784)">
        <g id="Group_18716" data-name="Group 18716" transform="translate(0 0)">
          <path id="Path_9218" data-name="Path 9218" d="M263.756,437.21l-22.683,2.179-8.177-52.32,22.683-2.179Z" transform="translate(7.084 401.969)" fill="#ffb573"/>
          <path id="Path_9219" data-name="Path 9219" d="M256.775,406.348l23.731-7.389a1.684,1.684,0,0,1,2.115.974l7.752,18.863a3.868,3.868,0,0,1-2.431,5.017c-8.587,2.514-16.745,3.182-27.1,7.623-12.108,5.192-17.187,12.024-30.2,12.024-9.343,0-11.438-8.551-7.5-9.749,17.93-5.441,15.635-9.916,28.7-23.962A11.749,11.749,0,0,1,256.775,406.348Z" transform="translate(-11.2 423.925)" fill="#263238"/>
          <path id="Path_9220" data-name="Path 9220" d="M232.9,387.074l4.211,26.969,22.692-2.18-4.211-26.969Z" transform="translate(7.088 401.977)" opacity="0.2"/>
          <path id="Path_9221" data-name="Path 9221" d="M307.091,129.6c-29.74-3.5-59.321-1.144-89.007,4.614a23.72,23.72,0,0,0-19.05,20.469c-3.218,28.422-6.888,92.138,7.449,187.177,0,.01,121.518-10.23,121.518-10.23.254-17.254-12.018-95.816-1.879-177.377A21.81,21.81,0,0,0,307.091,129.6Z" transform="translate(-50.702 -1.474)" fill="#fff"/>
          <path id="Path_9224" data-name="Path 9224" d="M259.037,105.795c-2.776,16.758-5.13,47.392,6.873,58.213-8.8,9.242-20.343,19.958-40.134,21.168s-16.735-12.5-11.718-19.822c18.472-4.922,17.58-18.7,13.954-31.575Z" transform="translate(-28.374 -36.274)" fill="#a16747"/>
          <path id="Path_9225" data-name="Path 9225" d="M261.528,128.766a24.166,24.166,0,0,0-4.364-1.416,1.71,1.71,0,0,0-1.91.792c-1.92,3.249-7.734,17.711-38.926,23.273,5.122,3.028,11.951,12.45,14.9,16.951,9.353-4.853,33.693-19.38,31.367-38.163A1.872,1.872,0,0,0,261.528,128.766Z" transform="translate(-18.932 -2.51)" fill="#f5f5f5"/>
          <path id="Path_9226" data-name="Path 9226" d="M220.581,130.6a1.813,1.813,0,0,0-2.105-2.159,26.143,26.143,0,0,0-3.187.864,2.175,2.175,0,0,0-.658.38c-2.388,2.21-15.419,21.012-3.223,36.235,2.712-4.128,11.435-13.525,20.713-16.262C223.347,145.692,219.016,138.331,220.581,130.6Z" transform="translate(-34.725 -0.758)" fill="#f5f5f5"/>
          <path id="Path_9227" data-name="Path 9227" d="M235.568,110.238,217.206,126.79a53.675,53.675,0,0,1,1.874,9.155c7.076-1.211,16.606-9.261,17.141-16.717C236.485,115.51,236.223,111.95,235.568,110.238Z" transform="translate(-17.553 -29.298)" opacity="0.2"/>
          <path id="Path_9228" data-name="Path 9228" d="M285.437,435.006c.894-67.111,9.466-226.931,9.466-226.931l-94.736,7.983s18.842,164.726,30.218,233.187c11.818,71.185,48.092,237.9,48.092,237.9l38.458-3.274S302.943,486.9,285.437,435.006Z" transform="translate(-44.308 124.329)" fill="#263238"/>
          <path id="Path_9229" data-name="Path 9229" d="M231.993,406.262l45.718-3.871-1.795-14.762-47.631,3.191Z" transform="translate(-0.156 406.271)" fill="#407bff"/>
          <path id="Path_9230" data-name="Path 9230" d="M346.225,425.559C326.561,324.51,322.158,245.468,303.483,207.2l-91.773,10.23s54.679,150.6,81.36,214.866c27.738,66.826,82.492,180.991,82.492,180.991H421.4S378.61,471.589,346.225,425.559Z" transform="translate(-26.183 122.955)" fill="#263238"/>
          <path id="Path_9231" data-name="Path 9231" d="M168.663,147.941l-9.857-6.276a8.3,8.3,0,0,0-10.435,1.211l-6.729,7.1a7.7,7.7,0,0,0,.673,11.232l4.814,4.107a39.1,39.1,0,0,0,14.306,7.752l14.522,4.282,9.525-10.227C188.305,156.335,168.663,147.941,168.663,147.941Z" transform="translate(-139.527 17.997)" fill="#a16747"/>
          <g id="Group_18707" data-name="Group 18707" transform="translate(20.524 148.301)">
            <g id="Group_18705" data-name="Group 18705">
              <path id="Path_9232" data-name="Path 9232" d="M302.962,149.289c-3.6,8.79-7.122,16.956-10.959,25.319-3.83,8.294-7.731,16.583-12.011,24.79-4.264,8.222-8.867,16.352-14.054,24.515-2.624,4.076-5.428,8.142-8.646,12.216a77.468,77.468,0,0,1-11.831,12.257,41.729,41.729,0,0,1-9.5,5.852,34.472,34.472,0,0,1-3.262,1.2l-1.791.5a27.612,27.612,0,0,1-2.737.488,25.46,25.46,0,0,1-9.368-.689,37.829,37.829,0,0,1-10.754-4.889,66.185,66.185,0,0,1-7.063-5.223c-8.207-6.981-14.365-14.067-20.426-21.274-5.994-7.186-11.643-14.414-17.059-21.775-5.467-7.384-10.659-14.619-15.992-22.371l28.422-18.344a385.525,385.525,0,0,0,29.7,41.507c5.346,6.312,11.026,12.5,16.38,16.935a33.9,33.9,0,0,0,3.619,2.652c.961.635,1.907.9,1.252.658a7.056,7.056,0,0,0-2.791-.149,8.223,8.223,0,0,0-1.108.193.631.631,0,0,0-.2.039c-.123.049-.123.01-.152.041a16.08,16.08,0,0,0,1.673-1.254,46.228,46.228,0,0,0,6.325-7.05c2.205-2.922,4.372-6.2,6.462-9.615a236.436,236.436,0,0,0,11.623-21.96c3.6-7.652,7.055-15.478,10.219-23.448,3.138-7.911,6.279-16.154,8.862-23.957Z" transform="translate(-147.512 -136.446)" fill="#fff"/>
            </g>
            <g id="Group_18706" data-name="Group 18706" opacity="0.6">
              <path id="Path_9233" data-name="Path 9233" d="M302.962,149.289c-3.6,8.79-7.122,16.956-10.959,25.319-3.83,8.294-7.731,16.583-12.011,24.79-4.264,8.222-8.867,16.352-14.054,24.515-2.624,4.076-5.428,8.142-8.646,12.216a77.468,77.468,0,0,1-11.831,12.257,41.729,41.729,0,0,1-9.5,5.852,34.472,34.472,0,0,1-3.262,1.2l-1.791.5a27.612,27.612,0,0,1-2.737.488,25.46,25.46,0,0,1-9.368-.689,37.829,37.829,0,0,1-10.754-4.889,66.185,66.185,0,0,1-7.063-5.223c-8.207-6.981-14.365-14.067-20.426-21.274-5.994-7.186-11.643-14.414-17.059-21.775-5.467-7.384-10.659-14.619-15.992-22.371l28.422-18.344a385.525,385.525,0,0,0,29.7,41.507c5.346,6.312,11.026,12.5,16.38,16.935a33.9,33.9,0,0,0,3.619,2.652c.961.635,1.907.9,1.252.658a7.056,7.056,0,0,0-2.791-.149,8.223,8.223,0,0,0-1.108.193.631.631,0,0,0-.2.039c-.123.049-.123.01-.152.041a16.08,16.08,0,0,0,1.673-1.254,46.228,46.228,0,0,0,6.325-7.05c2.205-2.922,4.372-6.2,6.462-9.615a236.436,236.436,0,0,0,11.623-21.96c3.6-7.652,7.055-15.478,10.219-23.448,3.138-7.911,6.279-16.154,8.862-23.957Z" transform="translate(-147.512 -136.446)" fill="#fff"/>
            </g>
          </g>
          <g id="Group_18708" data-name="Group 18708" transform="translate(138.356 121.363)">
            <path id="Path_9234" data-name="Path 9234" d="M298.284,126.3c-9.638,17.876-43.954,86.54-48.107,128.84-15.2-38.451-11.872-123.831-11.872-123.831-7.472.2-21.171,3.513-31.55,7.585A19,19,0,0,0,194.878,155.1c-1.576,20.852-3.763,70.5,4.169,132.3,10.656,83.013,20.644,212.1,20.644,212.1s84.944-3.537,150.474-17.362c-8-63.449-35.348-169.807-35.593-198.3-.316-36.651.532-108.315,1.694-138.224a17.694,17.694,0,0,0-14.188-18.171A88.761,88.761,0,0,0,298.284,126.3Z" transform="translate(-193.357 -125.965)" fill="#fff"/>
            <path id="Path_9235" data-name="Path 9235" d="M298.284,126.3c-9.638,17.876-43.954,86.54-48.107,128.84-15.2-38.451-11.872-123.831-11.872-123.831-7.472.2-21.171,3.514-31.55,7.585A19,19,0,0,0,194.878,155.1c-1.576,20.852-3.763,70.5,4.169,132.3,10.656,83.013,20.644,212.1,20.644,212.1s84.944-3.536,150.474-17.362c-8-63.449-35.348-169.807-35.593-198.3-.316-36.659.535-108.345,1.694-138.242a17.422,17.422,0,0,0-13.381-17.981A88.1,88.1,0,0,0,298.284,126.3Z" transform="translate(-193.357 -125.965)" fill="#fff" opacity="0.7"/>
          </g>
          <path id="Path_9236" data-name="Path 9236" d="M243.134,397.469c-14.748-81.392-26.455-200.825-27.409-215.2l1.334-.09c.954,14.368,12.653,133.716,27.391,215.056Z" transform="translate(-19.878 83.662)" fill="#071a23"/>
          <path id="Path_9294" data-name="Path 9294" d="M22.03,153.625C7.282,72.234.954,14.468,0,.09L1.334,0c.954,14.368,7.274,72.049,22.012,153.389Z" transform="translate(198.388 161.272) rotate(8)" fill="#071a23"/>
          <g id="Group_18709" data-name="Group 18709" transform="translate(100.15 202.291)">
            <path id="Path_9237" data-name="Path 9237" d="M291.612,290.813H213.289a7.33,7.33,0,0,1-6.791-5.588L180.293,163.474a4.386,4.386,0,0,1,4.385-5.588H263a7.333,7.333,0,0,1,6.791,5.588L296,285.225A4.385,4.385,0,0,1,291.612,290.813Z" transform="translate(-175.865 -156.77)" fill="#fff"/>
            <path id="Path_9238" data-name="Path 9238" d="M291.808,292.61H212.172a7.458,7.458,0,0,1-6.906-5.683L178.623,163.135a4.458,4.458,0,0,1,4.459-5.683h79.636a7.458,7.458,0,0,1,6.9,5.683l26.646,123.793A4.459,4.459,0,0,1,291.808,292.61Z" transform="translate(-178.492 -157.452)" fill="#407bff"/>
          </g>
          <path id="Path_9239" data-name="Path 9239" d="M251.772,183.282l-19.822-.74a17.012,17.012,0,0,0-6.978,1.213l-10.23,4.11a7.708,7.708,0,0,0-4.215,10.435l4.118,8.87a8.3,8.3,0,0,0,9.5,4.47l11.342-2.807s21.292-1.7,22.053-12.818Z" transform="translate(-29.175 84.216)" fill="#a16747"/>
          <g id="Group_18712" data-name="Group 18712" transform="translate(213.633 132.702)">
            <g id="Group_18710" data-name="Group 18710">
              <path id="Path_9240" data-name="Path 9240" d="M286.32,130.377c4.922,7.6,9.4,14.761,13.841,22.31,4.426,7.477,8.764,15.044,12.854,22.862,4.066,7.847,7.975,15.871,11.491,24.51a126.584,126.584,0,0,1,4.688,13.859,58.18,58.18,0,0,1,2.264,17.663l-.028.673-.015.334c0,.08-.01.231-.041.506-.1.928-.244,1.861-.424,2.773-.2.817-.422,1.632-.676,2.434s-.527,1.421-.82,2.131a28.563,28.563,0,0,1-3.75,6.223,44.668,44.668,0,0,1-7.132,7.1,92.4,92.4,0,0,1-12.81,8.5,239.636,239.636,0,0,1-24.481,11.661c-8.083,3.449-16.169,6.582-24.286,9.543-8.148,3.025-16.118,5.8-24.561,8.636l-9.787-32.38c7.61-2.115,15.565-4.7,23.24-7.315,7.7-2.7,15.313-5.554,22.721-8.61a200.454,200.454,0,0,0,20.932-10.116,60.9,60.9,0,0,0,8.15-5.426,9.071,9.071,0,0,0,1.781-1.763,2.909,2.909,0,0,0-.5.853c-.105.218-.141.37-.252.663a4.952,4.952,0,0,0-.249.918,6.225,6.225,0,0,0-.2,1.213c-.008.147-.01.167-.013.116l-.008-.059-.013-.116a29.673,29.673,0,0,0-1.4-7.161,93.7,93.7,0,0,0-3.665-9.9,197.191,197.191,0,0,0-10.638-20.742c-4.012-6.9-8.263-13.774-12.769-20.521-4.49-6.68-9.255-13.55-13.969-19.714Z" transform="translate(-222.645 -130.377)" fill="#fff"/>
            </g>
            <g id="Group_18711" data-name="Group 18711" opacity="0.7">
              <path id="Path_9241" data-name="Path 9241" d="M286.32,130.377c4.922,7.6,9.4,14.761,13.841,22.31,4.426,7.477,8.764,15.044,12.854,22.862,4.066,7.847,7.975,15.871,11.491,24.51a126.584,126.584,0,0,1,4.688,13.859,58.18,58.18,0,0,1,2.264,17.663l-.028.673-.015.334c0,.08-.01.231-.041.506-.1.928-.244,1.861-.424,2.773-.2.817-.422,1.632-.676,2.434s-.527,1.421-.82,2.131a28.563,28.563,0,0,1-3.75,6.223,44.668,44.668,0,0,1-7.132,7.1,92.4,92.4,0,0,1-12.81,8.5,239.636,239.636,0,0,1-24.481,11.661c-8.083,3.449-16.169,6.582-24.286,9.543-8.148,3.025-16.118,5.8-24.561,8.636l-9.787-32.38c7.61-2.115,15.565-4.7,23.24-7.315,7.7-2.7,15.313-5.554,22.721-8.61a200.454,200.454,0,0,0,20.932-10.116,60.9,60.9,0,0,0,8.15-5.426,9.071,9.071,0,0,0,1.781-1.763,2.909,2.909,0,0,0-.5.853c-.105.218-.141.37-.252.663a4.952,4.952,0,0,0-.249.918,6.225,6.225,0,0,0-.2,1.213c-.008.147-.01.167-.013.116l-.008-.059-.013-.116a29.673,29.673,0,0,0-1.4-7.161,93.7,93.7,0,0,0-3.665-9.9,197.191,197.191,0,0,0-10.638-20.742c-4.012-6.9-8.263-13.774-12.769-20.521-4.49-6.68-9.255-13.55-13.969-19.714Z" transform="translate(-222.645 -130.377)" fill="#fff"/>
            </g>
          </g>
          <path id="Path_9242" data-name="Path 9242" d="M259.335,214.731a1.018,1.018,0,0,1-.55-1.879L262.8,210.3a21.818,21.818,0,0,0,9.759-22.772L264.5,146.648a13.835,13.835,0,0,0-26.877-1.126L226.171,185.59a21.809,21.809,0,0,0,7.824,23.5l3.791,2.879a1.022,1.022,0,0,1-1.236,1.627l-3.788-2.879a23.84,23.84,0,0,1-8.551-25.692l11.448-40.067a15.874,15.874,0,0,1,30.838,1.29l8.068,40.88A23.843,23.843,0,0,1,263.9,212.019l-4.017,2.555A1.013,1.013,0,0,1,259.335,214.731Z" transform="translate(-8.033 7.153)" fill="#263238"/>
          <path id="Path_9243" data-name="Path 9243" d="M257.951,140.887h-.044l-28.856-1.208a1.018,1.018,0,0,1-.977-1.061,1.079,1.079,0,0,1,1.061-.974l28.856,1.205a1.019,1.019,0,0,1-.041,2.038Z" transform="translate(-0.488 13.735)" fill="#263238"/>
          <path id="Path_9244" data-name="Path 9244" d="M239.173,145.847a1.017,1.017,0,0,1-1.018-.995c-.121-5.025-1.609-14.054-6.42-16.028a1.019,1.019,0,1,1,.774-1.887c7.125,2.92,7.646,16.344,7.685,17.866a1.019,1.019,0,0,1-.995,1.044Z" transform="translate(4.264 -3.195)" fill="#263238"/>
          <path id="Path_9245" data-name="Path 9245" d="M200.515,180.053a.907.907,0,0,1-.2-.021,1.019,1.019,0,0,1-.8-1.2c3.382-16.886,17.421-43.56,29.781-51.356a1.021,1.021,0,0,1,1.09,1.727c-11.952,7.536-25.566,33.534-28.871,50.032A1.019,1.019,0,0,1,200.515,180.053Z" transform="translate(-45.368 -2.472)" fill="#263238"/>
          <path id="Path_9246" data-name="Path 9246" d="M209.628,154.719c-1.6,4.087-5.092,6.544-7.788,5.485s-3.583-5.23-1.977-9.32,5.092-6.546,7.788-5.487S211.234,150.629,209.628,154.719Z" transform="translate(-46.042 25.523)" fill="#cacaca"/>
          <path id="Path_9247" data-name="Path 9247" d="M232.375,166.54c-.082,1.92-1.172,3.434-2.439,3.38s-2.228-1.653-2.149-3.573,1.172-3.434,2.439-3.38S232.454,164.62,232.375,166.54Z" transform="translate(-0.946 53.497)" fill="#cacaca"/>
          <path id="Path_9248" data-name="Path 9248" d="M241,166.9c-.08,1.92-1.172,3.434-2.439,3.382s-2.228-1.653-2.149-3.575,1.172-3.434,2.439-3.38S241.078,164.979,241,166.9Z" transform="translate(12.596 54.062)" fill="#cacaca"/>
          <g id="Group_18715" data-name="Group 18715" transform="translate(151.872)">
            <g id="Group_18713" data-name="Group 18713" transform="translate(15.891 8.354)">
              <path id="Path_9249" data-name="Path 9249" d="M279.529,144.156c-5.613,11.723-14.55,22.127-24.332,28.645-8.119,5.4-19.845,10.594-29.5,6.084a9.656,9.656,0,0,1-2.92-1.961,13.748,13.748,0,0,1-2.169-3.431c-3.593-7.055-8.587-13.041-12.517-19.816-3.277-5.649-1.37-12.982-.555-18.963a21.971,21.971,0,0,0-1.6-12.64c-1.483-3.408-1.329-7.395-.594-10.957a1.381,1.381,0,0,1,.057-.226c1.5-7.071,5.5-13.985,10.209-19.356,2.928-3.336,6.559-6.816,10.929-7.919a61.867,61.867,0,0,1,16.614-1.6A70.861,70.861,0,0,1,257.43,83.6a43.209,43.209,0,0,1,9.148,3.1,31.041,31.041,0,0,1,12.059,9.867C288.633,110.7,287.008,128.59,279.529,144.156Z" transform="translate(-204.799 -81.997)" fill="#a16747"/>
              <path id="Path_9250" data-name="Path 9250" d="M279.163,144.156c-5.613,11.723-14.55,22.127-24.332,28.645a72.645,72.645,0,0,1-13.052,6.886c-.239.1-.465.185-.707.27,3.472-3.472,6.032-8.083,8.883-12.083,2.19-3.074,3.424-6.711,4.6-10.3,2.133-6.5,4-13.09,6.107-19.6,1.84-5.7,2.555-10.993.558-16.822-2.018-5.888-6-10.206-10.638-14.154a34.538,34.538,0,0,0-7.574-4.889c-.81-.383-7.323-3.346-7.878-2.609-4.768,6.343-11.571,6.868-18.616,8.8-3.069.848-8.1,3.352-11.481,2.588,1.5-7.071,5.5-13.985,10.209-19.356,2.928-3.336,6.559-6.816,10.929-7.919a61.867,61.867,0,0,1,16.614-1.6,70.86,70.86,0,0,1,14.28,1.583,35.326,35.326,0,0,1,3.9,2.771c9.021,7.395,13.6,18.917,16.174,30.285A83.9,83.9,0,0,1,279.163,144.156Z" transform="translate(-204.432 -81.997)" fill="#e6d8d1" style="mix-blend-mode: multiply;isolation: isolate"/>
              <path id="Path_9251" data-name="Path 9251" d="M213.824,95.667a29.588,29.588,0,0,1,4.544,11.756c.013,3.156-4.274,9.415-8.055,13.239-1.3,1.316.5,3.418,1.779,4.74a13.625,13.625,0,0,0,4.778,2.9,14.321,14.321,0,0,0,7.657-6.156,12.99,12.99,0,0,1-7.266,1.737c-1.619-.062-6.127-.4-5.655-2.745,3.568-4.007,6.883-8.757,7.914-13.375C220.119,105.087,217.109,99.255,213.824,95.667Z" transform="translate(-196.85 -60.532)" fill="#834724"/>
              <path id="Path_9252" data-name="Path 9252" d="M230.352,114.028a2.058,2.058,0,0,0-1.27-.041h-.039c-.907.19-1.946.586-2.586.627-1.74.123-3.457.45-5.21.5a42.565,42.565,0,0,1-10.242-.871.633.633,0,0,1-.167-.028,12.34,12.34,0,0,1,2.318-2.246c1.65-1.211,2.727-.681,4.454-.409,1.383.218,2.6-.789,4.1-.529A29.591,29.591,0,0,1,230.352,114.028Z" transform="translate(-195.314 -36.471)" fill="#7b3e1d"/>
              <path id="Path_9253" data-name="Path 9253" d="M229.544,112.225a70.17,70.17,0,0,1-7.325,4.477,8.861,8.861,0,0,1-4.966,1.362,6.5,6.5,0,0,1-3.778-1.987,16.758,16.758,0,0,1-2.586-3.65.047.047,0,0,0,.039-.013,42.565,42.565,0,0,0,10.242.871c1.753-.054,3.47-.38,5.21-.5.64-.041,1.678-.437,2.586-.627H229C229.184,112.169,229.364,112.2,229.544,112.225Z" transform="translate(-195.235 -34.64)" fill="#93532e"/>
              <path id="Path_9254" data-name="Path 9254" d="M223.017,114.122c.208.069.468.134.622-.031a.56.56,0,0,0,.111-.393,2.248,2.248,0,0,0-.586-1.385,6.1,6.1,0,0,0-1.141-.961.5.5,0,0,0-.316-.129c-.149.013-.257.162-.3.314s-.049.311-.1.46c-.175.558-.817.74-1.362.835a23.259,23.259,0,0,0-2.455.442c.193,1.044,1.552.468,2.2.427A9,9,0,0,1,223.017,114.122Z" transform="translate(-184.869 -36.107)" fill="#7b3e1d"/>
              <path id="Path_9255" data-name="Path 9255" d="M210.3,114.158a.921.921,0,0,1-.288-.121c-1.547-.964.9-2.6,1.665-2.974l-.193,1.755a.649.649,0,0,0,0,.244c.077.278.432.3.7.288a3.275,3.275,0,0,1,2,.532c-.419.522-1.316.383-1.876.311a6.191,6.191,0,0,0-1.092-.147C210.88,114.07,210.618,114.224,210.3,114.158Z" transform="translate(-197.393 -36.356)" fill="#7b3e1d"/>
              <path id="Path_9256" data-name="Path 9256" d="M223.622,96.5a12.847,12.847,0,0,1,7.952,2.444c2.336,1.516,6,4.488,3.9,7.341a14.983,14.983,0,0,1-8.006,5.377c-2.951.856-7.464.635-9.065-2.439a9.232,9.232,0,0,1-.876-3.21c-.445-3.853.5-7.734,4.066-9.068A7.718,7.718,0,0,1,223.622,96.5Z" transform="translate(-184.967 -59.281)" fill="#fcf6e5"/>
              <path id="Path_9257" data-name="Path 9257" d="M207.458,107.481a11.4,11.4,0,0,0,8.77,3.213,5.775,5.775,0,0,0,3.963-1.6c.982-1.141.936-2.7.786-4.128a12.418,12.418,0,0,0-1.331-4.948,6.255,6.255,0,0,0-4.367-3.123c-2.7-.406-5.3,1.275-6.79,3.285C206.98,102.217,205.4,105.412,207.458,107.481Z" transform="translate(-202.17 -58.693)" fill="#fcf6e5"/>
              <path id="Path_9258" data-name="Path 9258" d="M209.725,101.253a7.786,7.786,0,0,1,5.585-2.331c2.033.152,3.8,1.406,5.38,2.7a18.232,18.232,0,0,0-1.961-3.38,4.476,4.476,0,0,0-2.187-1.822,3.988,3.988,0,0,0-1.673-.057,9.576,9.576,0,0,0-6.382,3.843c-1.08,1.5-1.509,3.634-2.228,5.351a1.094,1.094,0,0,0-.116.437,1.018,1.018,0,0,0,.2.514,7.039,7.039,0,0,0,1.432,1.64c-.4-.334-.11-2.383-.049-2.856a6.964,6.964,0,0,1,.807-2.493A6.75,6.75,0,0,1,209.725,101.253Z" transform="translate(-202.689 -59.536)" fill="#4b2f26"/>
              <path id="Path_9259" data-name="Path 9259" d="M220,96.664c2.046-1.249,5.588-.288,7.739.262,4.2,1.074,7.266,4.4,9.659,7.947a.424.424,0,0,1,.1.28.435.435,0,0,1-.141.224q-1.511,1.531-3.025,3.066c-.049.051-.175.057-.146-.01a5.2,5.2,0,0,0,.83-3.606c-.537-3.755-5.444-5.58-8.536-6.462a7.027,7.027,0,0,0-7.071,1.547l-1.876,1.776c.421-.4.6-2.3.853-2.917A4.089,4.089,0,0,1,220,96.664Z" transform="translate(-184.796 -59.927)" fill="#4b2f26"/>
              <path id="Path_9260" data-name="Path 9260" d="M211.55,108.617a2.775,2.775,0,0,0,1.673.35c1.064-.2,1.658-1.331,1.984-2.362a15.668,15.668,0,0,0,.625-6.5,4.065,4.065,0,0,0-1.118-2.694,2.991,2.991,0,0,0-2.241-.619c-2.5.242-5.523,2.118-5.269,4.873A8.375,8.375,0,0,0,211.55,108.617Z" transform="translate(-201.045 -58.79)" fill="#4b2f26"/>
              <path id="Path_9261" data-name="Path 9261" d="M218.561,106.379a5.753,5.753,0,0,0,1.352,2.431,4.782,4.782,0,0,0,4.575.874,4.676,4.676,0,0,0,1.953-.923A6.187,6.187,0,0,0,228,106.237a10.7,10.7,0,0,0,.838-4.781,5,5,0,0,0-.555-1.966,6.165,6.165,0,0,0-3.452-2.47c-1.879-.73-4.516-1.324-5.68.979A11.632,11.632,0,0,0,218.561,106.379Z" transform="translate(-183.995 -59.431)" fill="#4b2f26"/>
              <path id="Path_9262" data-name="Path 9262" d="M239.286,98.567a16.726,16.726,0,0,0-10.4-2.079,40.482,40.482,0,0,0-10.677,2.838,4.515,4.515,0,0,1-2.187-2.712,17.973,17.973,0,0,1,23.261,1.953Z" transform="translate(-187.171 -64.328)" fill="#4b2f26"/>
              <path id="Path_9263" data-name="Path 9263" d="M205,97.872A6.768,6.768,0,0,1,208.97,96.7a20.111,20.111,0,0,1,4.171.547l8.009,1.63a7.208,7.208,0,0,0-.486-2.706q-3.586-.921-7.168-1.845a6.331,6.331,0,0,0-2.036-.3,5.9,5.9,0,0,0-2.146.707A41.249,41.249,0,0,0,205.274,97Z" transform="translate(-204.489 -63.125)" fill="#4b2f26"/>
            </g>
            <g id="Group_18714" data-name="Group 18714">
              <path id="Path_9264" data-name="Path 9264" d="M247.531,86.991c3.038-.136,6.356,1.229,7.59,4.01a41.717,41.717,0,0,1,1.082,4.033c2.146,6.526,11.45,7.806,14.815,13.8,1.74,3.095,1.568,8-.766,10.813-2.475,2.984-6.371,2.519-5.084,7.947.578,2.437,1.982,4.642,2.367,7.114.576,3.7-1.264,7.443-3.927,10.073-3.76,3.714-9.618,4.426-8.132,11.234a8.436,8.436,0,0,0,4.418,5.667,26.981,26.981,0,0,1-11.926,1.385c-1.627-.18-3.465-.673-4.171-2.149-.55-1.154-.221-2.555-.661-3.753a9.189,9.189,0,0,0-2.272-2.8c-2.714-2.925-.131-6.8,2.622-8.549,2.095-1.326,4.565-2.406,5.721-4.6,1.452-2.763.2-6.225-1.75-8.664s-4.539-4.336-6.3-6.909c-2.768-4.038-3.161-9.191-3.465-14.075-.368-5.9-.75-11.867-.069-17.763C238.2,88.772,242.6,87.214,247.531,86.991Z" transform="translate(-137.96 -65.816)" fill="#3d251e"/>
              <path id="Path_9265" data-name="Path 9265" d="M237.566,79.471c6.94,1.151,12.54,3.938,18.7,6.934,3.747,1.825,7.433,3.46,11.134,5.269a20.99,20.99,0,0,1,8.911,8.446,25.551,25.551,0,0,1,2.539,17.431c-.8,4.071-2.475,8.268-1.236,12.227.954,3.048,3.529,5.451,4.177,8.579.758,3.675-1.334,7.323-3.717,10.224s-5.212,5.618-6.374,9.189c-.6,1.84-.74,3.878-1.812,5.49s-3.655,2.467-4.912.992a22.481,22.481,0,0,1-5.734,11.877c.995-1.067-3.783-6.916-4.721-7.464-2.519-1.468-4.922-1.015-6.241-4.454-.946-2.467-.7-5.21-.386-7.834.9-7.495,2.259-14.948,2.542-22.489s-.568-15.29-3.876-22.076-9.34-12.5-16.709-14.129c-5.878-1.3-17.891-1.7-14.876-11.247C217.52,78.382,230.981,78.376,237.566,79.471Z" transform="translate(-173.677 -78.409)" fill="#4c2f26"/>
              <path id="Path_9266" data-name="Path 9266" d="M254.932,92.527a5.6,5.6,0,0,0-4.511,1.933,14.984,14.984,0,0,0-1.645,2.043c-.45.671-.889,1.37-1.37,2.041-.123.177-.26.342-.383.522-5.59,7.263-15.144,9.181-23.461,11.756-4.236,1.3-8.551,3.359-10.9,7.127A11.617,11.617,0,0,0,212.6,129.9c1.92,3.151,5.387,5.426,6.248,9,.974,4.015-1.683,7.921-4.11,11.265s-4.837,7.523-3.385,11.386c.823,2.167,2.7,3.717,4.138,5.523a13.475,13.475,0,0,1,1.822,3.043,16.022,16.022,0,0,1-2.467,16.9c2.318-2.987,2.606-6.878,1.743-10.551a12.933,12.933,0,0,0-6.852-8.567c-1.907-.918-4.03-1.37-5.852-2.426-1.838-1.067-3.385-3.056-3-5.138.247-1.4,1.329-2.55,1.493-3.948.247-1.93-1.218-3.591-2.041-5.356a8.78,8.78,0,0,1,1.424-9.43c1.892-2.069,4.894-3.344,5.744-6.017,1.095-3.426-1.92-6.605-4.084-9.469a24.361,24.361,0,0,1-3.92-20.981c1.028-3.591,3.4-7.3,7.084-7.88,2.933-.465,6.4,1.095,8.69-.822,1.522-1.262,1.7-3.48,2.11-5.413a15.785,15.785,0,0,1,8.744-11.006c2.426-1.069,6.084-1.781,8.662-.807,2.329.876,3.521,3.1,6.289,3.508,2.467.368,5.056-.411,7.428.329a7.965,7.965,0,0,1,4.385,3.863A23.777,23.777,0,0,1,254.932,92.527Z" transform="translate(-198.616 -78.747)" fill="#60392d"/>
              <path id="Path_9267" data-name="Path 9267" d="M244.548,85.655c-.45.671-.889,1.37-1.37,2.041-.123.177-.26.342-.383.522-5.59,7.263-15.144,9.181-23.461,11.756-4.236,1.3-8.551,3.359-10.9,7.127a11.617,11.617,0,0,0-.069,11.952c1.92,3.151,5.387,5.426,6.248,9,.974,4.015-1.684,7.921-4.11,11.265s-4.837,7.523-3.385,11.386c.823,2.167,2.7,3.717,4.138,5.523a13.478,13.478,0,0,1,1.822,3.043c-2.588-2.48-5.194-4.961-7.783-7.441a13.822,13.822,0,0,1-3.043-3.647c-1-2-.974-4.344-.933-6.59.041-1.987.234-4.261,1.838-5.428,1.3-.93,3.192-.822,4.4-1.876,1.29-1.123,1.331-3.1,1.11-4.8a30.293,30.293,0,0,0-2.575-8.854c-1.3-2.781-3.043-5.4-3.92-8.346-.864-2.961-.7-6.495,1.468-8.69,2.259-2.3,6.03-2.521,8.371-4.74,1.537-1.439,2.275-3.549,3.619-5.169,2.287-2.727,6.043-3.727,9.592-3.917s7.127.272,10.636-.206a15.858,15.858,0,0,0,7.045-3.1A6.1,6.1,0,0,1,244.548,85.655Z" transform="translate(-194.387 -67.899)" fill="#4c2f26"/>
              <path id="Path_9268" data-name="Path 9268" d="M242.239,87.061c-2.316-6.934-12.53-8.06-18.344-5.194-5.868,2.892-10.1,12.586-4.817,17.935,2.6,2.637,6.616,3.136,9.975,4.7,4.634,2.159,7.96,6.328,11.083,10.376,2.221,2.876,4.467,5.84,5.583,9.3,2.028,6.3-.028,13.232-3.221,19.027-1.755,3.187-3.922,6.418-3.886,10.057.021,2.411,1.023,4.7,1.462,7.068.568,3.074.183,6.248.519,9.358s1.65,6.423,4.454,7.806c-3.311-7.024-2.228-15.313,1.82-21.942,1.73-2.835,4.1-5.405,4.814-8.649.7-3.21-.347-6.557-.036-9.829.427-4.454,3.282-8.23,5.4-12.175s3.47-9,.982-12.725c-3.159-4.727-10.774-4.721-13.856-9.5C241.293,98.206,243.922,92.1,242.239,87.061Z" transform="translate(-170.264 -76.152)" fill="#60392d"/>
            </g>
          </g>
        </g>
      </g>
    </g>
  </g>
</svg>
