<svg xmlns="http://www.w3.org/2000/svg" xmlns:xlink="http://www.w3.org/1999/xlink" width="130" height="130" viewBox="0 0 130 130"><defs><style>.a{fill:url(#a);}.b{fill:#fff;stroke:#fff;stroke-width:0.3px;}</style><linearGradient id="a" x1="0.5" x2="0.5" y2="1" gradientUnits="objectBoundingBox"><stop offset="0" stop-color="#2dbdca"/><stop offset="1" stop-color="#8debf3"/></linearGradient></defs><g transform="translate(-921.884 -339.305)"><rect class="a" width="130" height="130" rx="19" transform="translate(921.884 339.305)"/><g transform="translate(956.042 368.569)"><path class="b" d="M83.759,49.442a20.776,20.776,0,0,0-12.781-6.574c-.022-.014-7.11-4.041-7.226-4.072v-1.2a14.211,14.211,0,0,0,7.081-12.284V18.4A1.406,1.406,0,0,0,72.23,17V14.408A14.425,14.425,0,0,0,57.821,0a8.116,8.116,0,0,0-6.668,3.494,1.4,1.4,0,0,0-.55-.041,10.926,10.926,0,0,0-9.571,10.836v1.893a1.406,1.406,0,0,0,1.4,1.406V25.31a14.21,14.21,0,0,0,7.081,12.284v1.212c-.1.03-7.162,4.043-7.182,4.055A20.841,20.841,0,0,0,24,63.551V70.6A1.406,1.406,0,0,0,25.406,72H50.3a1.407,1.407,0,0,0,0-2.813H35.551V61.477a1.407,1.407,0,1,0-2.813,0v7.714H26.813v-5.64A17.919,17.919,0,0,1,42.543,45.67L49.795,55.3a1.406,1.406,0,0,0,1.025.557q.049,0,.1,0a1.407,1.407,0,0,0,.995-.412l4.736-4.736,4.736,4.736a1.406,1.406,0,0,0,.995.412c.033,0,.066,0,.1,0A1.407,1.407,0,0,0,63.5,55.3l7.248-9.628a18.148,18.148,0,0,1,15.7,17.876v5.64H80.56V61.477a1.407,1.407,0,0,0-2.813,0v7.714H62.96a1.407,1.407,0,0,0,0,2.813h24.9A1.406,1.406,0,0,0,89.262,70.6V63.551A20.779,20.779,0,0,0,83.759,49.442ZM45.241,25.311V17.588H50.37a7.9,7.9,0,0,0,3.815-.982,10.223,10.223,0,0,0,5.8,1.8h8.038v6.908q0,.3-.016.6a1.4,1.4,0,0,0-.495-.094,6.271,6.271,0,0,1-4.429-1.847,9.133,9.133,0,0,0-12.9,0,6.27,6.27,0,0,1-4.429,1.847,1.4,1.4,0,0,0-.495.094q-.015-.3-.016-.6Zm11.39,11.374a9.48,9.48,0,0,1-9.38-8.187,9.06,9.06,0,0,0,4.918-2.544,6.317,6.317,0,0,1,8.923,0A9.06,9.06,0,0,0,66.011,28.5,9.48,9.48,0,0,1,56.631,36.685Zm1.19-33.872a11.608,11.608,0,0,1,11.6,11.6v1.181H59.982a7.477,7.477,0,0,1-7.469-7.469,5.314,5.314,0,0,1,5.308-5.308ZM43.845,14.289a8.115,8.115,0,0,1,6.029-7.837A8.123,8.123,0,0,0,49.7,8.121a10.229,10.229,0,0,0,2.246,6.4,5.1,5.1,0,0,1-1.577.251H43.845ZM56.631,39.513a14.149,14.149,0,0,0,4.309-.669V41l-4.291,5.451-4.327-5.5v-2.11a14.15,14.15,0,0,0,4.309.669Zm-5.563,12.8-5.9-7.839,4.381-2.5,5.224,6.636Zm11.161,0-3.7-3.7,5.224-6.636,4.381,2.5Z" transform="translate(-24 0)"/><path class="b" d="M247.406,492a1.407,1.407,0,1,0,.995.412A1.417,1.417,0,0,0,247.406,492Z" transform="translate(-214.775 -422.8)"/></g></g></svg>