<svg id="dollar" xmlns="http://www.w3.org/2000/svg" width="18.051" height="18.051" viewBox="0 0 18.051 18.051">
  <g id="Group_11402" data-name="Group 11402" transform="translate(0)">
    <g id="Group_11401" data-name="Group 11401">
      <path id="Path_3106" data-name="Path 3106" d="M9.026,0a9.026,9.026,0,1,0,9.026,9.026A9.036,9.036,0,0,0,9.026,0Zm0,16.923a7.9,7.9,0,1,1,7.9-7.9A7.906,7.906,0,0,1,9.026,16.923Z" transform="translate(0)" fill="#6e6e6e"/>
    </g>
  </g>
  <g id="Group_11404" data-name="Group 11404" transform="translate(6.205 3.949)">
    <g id="Group_11403" data-name="Group 11403">
      <path id="Path_3107" data-name="Path 3107" d="M178.82,116.513c-.917,0-1.692-.517-1.692-1.128s.775-1.128,1.692-1.128a2,2,0,0,1,1.318.444.564.564,0,1,0,.749-.844,2.986,2.986,0,0,0-1.5-.681v-.612a.564.564,0,0,0-1.128,0v.609A2.454,2.454,0,0,0,176,115.385a2.589,2.589,0,0,0,2.82,2.256c.917,0,1.692.517,1.692,1.128s-.775,1.128-1.692,1.128a2,2,0,0,1-1.318-.445.564.564,0,0,0-.749.844,2.987,2.987,0,0,0,1.5.683v.61a.564.564,0,1,0,1.128,0v-.609a2.454,2.454,0,0,0,2.256-2.211A2.589,2.589,0,0,0,178.82,116.513Z" transform="translate(-176 -112)" fill="#6e6e6e"/>
    </g>
  </g>
</svg>
