<svg id="done" xmlns="http://www.w3.org/2000/svg" width="26.658" height="26.658" viewBox="0 0 26.658 26.658">
  <circle id="Ellipse_3" data-name="Ellipse 3" cx="13.329" cy="13.329" r="13.329" transform="translate(0 0)" fill="#2dbdca"/>
  <path id="Path_18" data-name="Path 18" d="M252.034,114.609l-11.788,12.2.021,1.312h.541l12.766-10.288a13.557,13.557,0,0,0-1.54-3.224Z" transform="translate(-227.542 -108.549)" fill="#37a18e"/>
  <path id="Path_19" data-name="Path 19" d="M115.838,57.607l-2.353-2.333a.843.843,0,0,0-1.166,0L102.26,65.667l-4.353-4.29a.843.843,0,0,0-1.166,0l-2.083,2.062a.817.817,0,0,0,0,1.145l6.956,6.893a1.146,1.146,0,0,0,1.375,0l12.85-12.7a.843.843,0,0,0,0-1.17Z" transform="translate(-89.431 -52.13)" fill="#fff"/>
  <path id="Path_20" data-name="Path 20" d="M103.362,111.483l12.85-12.7a.817.817,0,0,0,0-1.145l-.375-.354-13.183,12.954-7.289-7.1-.312.312a.817.817,0,0,0,0,1.145l6.956,6.893a.846.846,0,0,0,.687.229.826.826,0,0,0,.666-.234Z" transform="translate(-89.804 -92.136)" fill="#e6e5e3"/>
</svg>
