<svg xmlns="http://www.w3.org/2000/svg" width="11.469" height="11.469" viewBox="0 0 11.469 11.469">
  <g id="done_1_" data-name="done (1)" transform="translate(0)">
    <circle id="Ellipse_290" data-name="Ellipse 290" cx="5.734" cy="5.734" r="5.734" transform="translate(0 0)" fill="#2dbdca"/>
    <path id="Path_2926" data-name="Path 2926" d="M245.317,114.609l-5.071,5.25.009.564h.233L245.98,116A5.831,5.831,0,0,0,245.317,114.609Z" transform="translate(-234.78 -112.002)" fill="#37a18e"/>
    <path id="Path_2927" data-name="Path 2927" d="M103.637,56.144l-1.012-1a.363.363,0,0,0-.5,0L97.8,59.612l-1.873-1.846a.363.363,0,0,0-.5,0l-.9.887a.352.352,0,0,0,0,.493l2.993,2.966a.493.493,0,0,0,.591,0l5.528-5.466A.363.363,0,0,0,103.637,56.144Z" transform="translate(-92.276 -53.788)" fill="#f2f1ef"/>
    <path id="Path_2928" data-name="Path 2928" d="M98.494,103.391l5.528-5.466a.352.352,0,0,0,0-.493l-.161-.152-5.672,5.573L95.053,99.8l-.134.134a.352.352,0,0,0,0,.493l2.993,2.966a.364.364,0,0,0,.3.1A.355.355,0,0,0,98.494,103.391Z" transform="translate(-92.661 -95.067)" fill="#e6e5e3"/>
  </g>
</svg>
