<svg xmlns="http://www.w3.org/2000/svg" width="43.042" height="45.854" viewBox="0 0 43.042 45.854"><defs><style>.a{fill:#2dbdca;}</style></defs><g transform="translate(8.955 11.284)"><g transform="translate(0 0)"><path class="a" d="M.9,0a.9.9,0,1,0,.9.9A.9.9,0,0,0,.9,0Z" transform="translate(0)"/></g></g><g transform="translate(9.851 24.448)"><g transform="translate(0 0)"><path class="a" d="M8.06,3.582H5.373V.9A.9.9,0,1,0,3.582.9V3.582H.9a.9.9,0,1,0,0,1.791H3.582V8.06a.9.9,0,1,0,1.791,0V5.373H8.06a.9.9,0,1,0,0-1.791Z" transform="translate(0 0)"/></g></g><g transform="translate(0 0)"><g transform="translate(0)"><path class="a" d="M42.082,28.837A7.16,7.16,0,0,0,32.3,26.214l-3.638,2.1V20.538a4.51,4.51,0,0,0-.9-2.687l-4.478-5.97V9.339a2.691,2.691,0,0,0,1.791-2.533V2.687A2.69,2.69,0,0,0,22.389,0H6.269A2.69,2.69,0,0,0,3.582,2.687v4.12A2.691,2.691,0,0,0,5.373,9.339v2.542L.9,17.851A4.509,4.509,0,0,0,0,20.538V37.882a4.483,4.483,0,0,0,4.478,4.478H18.87A7.157,7.157,0,0,0,28.6,44.892L39.46,38.623A7.17,7.17,0,0,0,42.082,28.837ZM5.373,2.687a.9.9,0,0,1,.9-.9h16.12a.9.9,0,0,1,.9.9v4.12a.9.9,0,0,1-.9.9H6.269a.9.9,0,0,1-.9-.9V2.687ZM2.329,18.926l4.657-6.209a.9.9,0,0,0,.179-.537V9.493H21.493v1.791h-8.06a.9.9,0,1,0,0,1.791h8.508l4.388,5.85a2.71,2.71,0,0,1,.519,1.314H1.81A2.709,2.709,0,0,1,2.329,18.926ZM4.478,40.568a2.69,2.69,0,0,1-2.687-2.687v-.9H18.062a7.176,7.176,0,0,0,.043,3.591H4.478Zm14.286-5.373H1.791V22.03H26.866v7.318l-5.429,3.135A7.111,7.111,0,0,0,18.764,35.195Zm8.942,8.146a5.373,5.373,0,1,1-5.373-9.307l4.861-2.807,5.373,9.307Zm10.858-6.269-4.445,2.567-5.373-9.307,4.446-2.566a5.373,5.373,0,1,1,5.373,9.306Z"/></g></g></svg>