<svg xmlns="http://www.w3.org/2000/svg" width="46.273" height="46.129" viewBox="0 0 46.273 46.129"><defs><style>.a{fill:#2dbdca;}</style></defs><g transform="translate(0 0)"><g transform="translate(0 0)"><path class="a" d="M29.731,14.866A14.866,14.866,0,0,0,0,14.866a60.758,60.758,0,0,0,1.374,11.1A58.739,58.739,0,0,1,2.7,36.578a9.46,9.46,0,1,0,18.92,0,10.416,10.416,0,0,0-.192-2c-.659-3.222,1.714-6.973,3.947-9.206A14.768,14.768,0,0,0,29.731,14.866ZM18.783,35.125a7.721,7.721,0,0,1,.137,1.453,6.758,6.758,0,1,1-13.514,0,60.758,60.758,0,0,0-1.374-11.1A58.739,58.739,0,0,1,2.7,14.866a12.163,12.163,0,1,1,20.763,8.6C20.629,26.3,17.909,30.856,18.783,35.125Z" transform="translate(0 0)"/></g></g><g transform="translate(5.406 5.406)"><g transform="translate(0 0)"><path class="a" d="M11.227.162A9.473,9.473,0,0,0,0,9.46,55.218,55.218,0,0,0,1.282,19.526c.212,1.126.431,2.291.628,3.451a4.789,4.789,0,0,0,9.429.2,9.826,9.826,0,0,0-1.751-8.9,9.423,9.423,0,0,0-6.846-3.451Q2.7,10.135,2.7,9.46a6.759,6.759,0,1,1,11.535,4.779l1.912,1.91A9.465,9.465,0,0,0,11.227.162ZM7.5,15.987a7.268,7.268,0,0,1,1.19,6.658,2.1,2.1,0,0,1-2.049,1.68,2.117,2.117,0,0,1-2.064-1.8c-.2-1.184-.422-2.361-.638-3.507-.354-1.88-.7-3.7-.931-5.465A6.73,6.73,0,0,1,7.5,15.987Z" transform="translate(0 0)"/></g></g><g transform="translate(32.506 21.798)"><g transform="translate(0 0)"><rect class="a" width="13.767" height="2.295"/></g></g><g transform="translate(33.27 32.576)"><g transform="translate(0 0)"><rect class="a" width="2.703" height="12.087" transform="translate(0 2.417) rotate(-63.435)"/></g></g><g transform="translate(33.272 5.549)"><g transform="translate(0 0)"><rect class="a" width="12.087" height="2.703" transform="translate(0 5.405) rotate(-26.565)"/></g></g></svg>