<svg xmlns="http://www.w3.org/2000/svg" width="72.516" height="72.962" viewBox="0 0 72.516 72.962">
  <g id="iconfinder_18_email_353463" transform="translate(-0.525 -0.013)">
    <g id="Group_11389" data-name="Group 11389" transform="translate(0.298 0.013)">
      <circle id="Ellipse_294" data-name="Ellipse 294" cx="36" cy="36" r="36" transform="translate(0.228 0.481)" fill="#60c3ad" opacity="0.15"/>
      <path id="Path_3101" data-name="Path 3101" d="M75.009.013V72.975a36.481,36.481,0,0,0,0-72.962Z" transform="translate(-38.746 -0.013)" fill="#2dbdca" opacity="0.15"/>
      <circle id="Ellipse_295" data-name="Ellipse 295" cx="31.854" cy="31.854" r="31.854" transform="translate(4.409 4.626)" fill="#1cd3e3"/>
      <path id="Path_3102" data-name="Path 3102" d="M75.009,9.524V73.233a31.854,31.854,0,0,0,0-63.709Z" transform="translate(-38.746 -4.898)" fill="#2dbdca"/>
    </g>
    <path id="Path_3105" data-name="Path 3105" d="M53.965,58.19c-3.237,0-19.918-10.525-19.918-10.525v-.99a3.319,3.319,0,0,1,3.319-3.315h33.2a3.319,3.319,0,0,1,3.32,3.315l-.026,1.171S57.359,58.19,53.965,58.19Zm0,2.613c3.549,0,19.893-9.929,19.893-9.929l.026,20.379a3.319,3.319,0,0,1-3.32,3.315h-33.2a3.32,3.32,0,0,1-3.319-3.315l.027-20.379S50.728,60.8,53.965,60.8Z" transform="translate(-17.411 -22.262)" fill="#fff"/>
  </g>
</svg>
