<svg xmlns="http://www.w3.org/2000/svg" width="50.305" height="50.305" viewBox="0 0 50.305 50.305"><defs><style>.a{opacity:0.2;}.b{fill:#171e43;}</style></defs><g class="a"><path class="b" d="M20.445,19.607V16.253a5.873,5.873,0,0,0-5.5-5.85,5.031,5.031,0,1,0-7.443,0A5.873,5.873,0,0,0,2,16.253v3.354a.838.838,0,0,0,.838.838H19.607A.838.838,0,0,0,20.445,19.607ZM11.223,3.677A3.354,3.354,0,1,1,7.869,7.031,3.357,3.357,0,0,1,11.223,3.677Zm7.546,15.092H3.677V16.253a4.2,4.2,0,0,1,4.192-4.192h6.707a4.2,4.2,0,0,1,4.192,4.192Z" transform="translate(-2 -2)"/><path class="b" d="M52.944,48.4a5.031,5.031,0,1,0-7.443,0,5.872,5.872,0,0,0-5.5,5.85v3.354a.838.838,0,0,0,.838.838H57.607a.838.838,0,0,0,.838-.838V54.253A5.873,5.873,0,0,0,52.944,48.4Zm-3.722-6.726a3.354,3.354,0,1,1-3.354,3.354A3.357,3.357,0,0,1,49.223,41.677Zm7.546,15.092H41.677V54.253a4.2,4.2,0,0,1,4.192-4.192h6.707a4.2,4.2,0,0,1,4.192,4.192Z" transform="translate(-8.14 -8.14)"/><path class="b" d="M33.882,28a3.455,3.455,0,0,0-2.509,1.077l-.666.692-.666-.692a3.46,3.46,0,0,0-5.018,0,3.728,3.728,0,0,0,0,5.123l5.08,5.28a.838.838,0,0,0,1.208,0l5.08-5.28a3.728,3.728,0,0,0,0-5.123A3.459,3.459,0,0,0,33.882,28Zm1.3,5.038L30.708,37.69l-4.475-4.652a2.036,2.036,0,0,1,0-2.8,1.783,1.783,0,0,1,2.6,0l1.27,1.32a.862.862,0,0,0,1.208,0l1.27-1.32a1.823,1.823,0,0,1,2.6,0,2.037,2.037,0,0,1,0,2.8Z" transform="translate(-5.556 -6.201)"/><path class="b" d="M31.6,11.293l-3.354,3.354a.837.837,0,0,0,0,1.186L31.6,19.186,32.785,18l-1.922-1.922H46.445v15.93h1.677V15.239a.838.838,0,0,0-.838-.838H30.862l1.923-1.922Z" transform="translate(-6.201 -3.502)"/><path class="b" d="M28.523,45.852l-1.186,1.186L29.26,48.96H13.677V28H12V49.8a.838.838,0,0,0,.838.838H29.26L27.337,52.56l1.186,1.186,3.354-3.354a.838.838,0,0,0,0-1.186Z" transform="translate(-3.616 -6.201)"/></g></svg>