<svg xmlns="http://www.w3.org/2000/svg" width="18.376" height="18.376" viewBox="0 0 18.376 18.376"><defs><style>.a{fill:#c1c1c1;}</style></defs><g transform="translate(-2 -2)"><path class="a" d="M8.738,8.432V7.206A2.145,2.145,0,0,0,6.728,5.069a1.838,1.838,0,1,0-2.719,0A2.145,2.145,0,0,0,2,7.206V8.432a.306.306,0,0,0,.306.306H8.432A.306.306,0,0,0,8.738,8.432ZM5.369,2.613A1.225,1.225,0,1,1,4.144,3.838,1.226,1.226,0,0,1,5.369,2.613ZM8.125,8.125H2.613V7.206A1.533,1.533,0,0,1,4.144,5.675h2.45A1.533,1.533,0,0,1,8.125,7.206Z" transform="translate(0 0)"/><path class="a" d="M44.728,43.069a1.838,1.838,0,1,0-2.719,0A2.145,2.145,0,0,0,40,45.206v1.225a.306.306,0,0,0,.306.306h6.125a.306.306,0,0,0,.306-.306V45.206A2.145,2.145,0,0,0,44.728,43.069Zm-1.36-2.457a1.225,1.225,0,1,1-1.225,1.225A1.226,1.226,0,0,1,43.369,40.613Zm2.756,5.513H40.613v-.919a1.533,1.533,0,0,1,1.531-1.531h2.45a1.533,1.533,0,0,1,1.531,1.531Z" transform="translate(-26.362 -26.362)"/><path class="a" d="M27.613,28a1.262,1.262,0,0,0-.916.394l-.243.253-.243-.253a1.264,1.264,0,0,0-1.833,0,1.362,1.362,0,0,0,0,1.871l1.856,1.929a.306.306,0,0,0,.441,0l1.856-1.929a1.362,1.362,0,0,0,0-1.871A1.264,1.264,0,0,0,27.613,28Zm.475,1.84-1.635,1.7-1.635-1.7a.744.744,0,0,1,0-1.022.651.651,0,0,1,.95,0l.464.482a.315.315,0,0,0,.441,0l.464-.482a.666.666,0,0,1,.95,0,.744.744,0,0,1,0,1.022Z" transform="translate(-15.266 -18.037)"/><path class="a" d="M29.315,11.293,28.09,12.518a.306.306,0,0,0,0,.433l1.225,1.225.433-.433-.7-.7h5.692V18.86h.613V12.735a.306.306,0,0,0-.306-.306h-6l.7-.7Z" transform="translate(-18.037 -6.447)"/><path class="a" d="M18.036,34.521l-.433.433.7.7H12.613V28H12v7.963a.306.306,0,0,0,.306.306h6l-.7.7.433.433,1.225-1.225a.306.306,0,0,0,0-.433Z" transform="translate(-6.937 -18.037)"/></g></svg>