<svg xmlns="http://www.w3.org/2000/svg" width="24" height="24" viewBox="0 0 24 24">
  <g id="error_emoji" transform="translate(-1462 -1285)">
    <circle id="Ellipse_5" data-name="Ellipse 5" cx="12" cy="12" r="12" transform="translate(1462 1285)" fill="#f2f4f9"/>
    <g id="Icon_ionic-md-sad" data-name="Icon ionic-md-sad" transform="translate(1465.625 1288.625)">
      <path id="Path_24" data-name="Path 24" d="M13.271,20.25a2.719,2.719,0,0,0-2.457,1.538h4.914A2.719,2.719,0,0,0,13.271,20.25Z" transform="translate(-4.896 -11.106)" fill="#5d6174"/>
      <path id="Path_25" data-name="Path 25" d="M8.375,3.375a5,5,0,1,0,5,5A5,5,0,0,0,8.375,3.375Zm0,9a4,4,0,1,1,4-4A4.012,4.012,0,0,1,8.375,12.375Z" fill="#5d6174"/>
      <path id="Path_26" data-name="Path 26" d="M21.675,13.65a.75.75,0,1,0-.75-.75A.737.737,0,0,0,21.675,13.65Z" transform="translate(-11.55 -5.775)" fill="#5d6174"/>
      <path id="Path_27" data-name="Path 27" d="M11.437,13.65a.75.75,0,1,0-.75-.75A.737.737,0,0,0,11.437,13.65Z" transform="translate(-4.812 -5.775)" fill="#5d6174"/>
    </g>
  </g>
</svg>
