<svg xmlns="http://www.w3.org/2000/svg" width="80.943" height="80.942" viewBox="0 0 80.943 80.942"><defs><style>.a{fill:#2dbdca;}.b{fill:#fff;}</style></defs><g transform="translate(-920 -434)"><path class="a" d="M39.841,0A40.5,40.5,0,0,1,79.993,49.224a73.4,73.4,0,0,0-1.827,15.8V75.312a2.853,2.853,0,0,1-2.853,2.853H65.028a73.4,73.4,0,0,0-15.8,1.827A40.475,40.475,0,1,1,39.841,0Z" transform="translate(920 434)"/><path class="b" d="M18,3.375A14.625,14.625,0,1,0,32.625,18,14.623,14.623,0,0,0,18,3.375Zm.984,15.891A.987.987,0,0,1,18,20.25H11.25a.984.984,0,0,1,0-1.969h5.766V9a.984.984,0,0,1,1.969,0Z" transform="translate(942.471 456.471)"/></g></svg>