<svg xmlns="http://www.w3.org/2000/svg" width="100.485" height="100.485" viewBox="0 0 100.485 100.485">
  <g id="eye-img" transform="translate(2.743 2.743)">
    <path id="Path_1" data-name="Path 1" d="M72.34,64.295A42.111,42.111,0,0,1,47.5,72.909c-29.273,0-46-33.455-46-33.455a77.154,77.154,0,0,1,21.16-24.84M38.718,7A38.138,38.138,0,0,1,47.5,6c29.273,0,46,33.455,46,33.455a77.363,77.363,0,0,1-9.033,13.34m-28.1-4.475A12.545,12.545,0,1,1,38.635,30.589" transform="translate(0 8.045)" fill="none" stroke="#ff9500" stroke-linecap="round" stroke-linejoin="round" stroke-width="6"/>
    <path id="Path_2" data-name="Path 2" d="M1.5,1.5l92,92" transform="translate(0 0)" fill="none" stroke="#ff9500" stroke-linecap="round" stroke-linejoin="round" stroke-width="6"/>
  </g>
</svg>
