<svg xmlns="http://www.w3.org/2000/svg" width="19.187" height="19.187" viewBox="0 0 19.187 19.187"><defs><style>.a{opacity:0.4;}.b{fill:#7e818b;}</style></defs><g class="a"><path class="b" d="M19.07,17.939,1.248.117a.4.4,0,0,0-.565,0L.117.682a.4.4,0,0,0,0,.565L3.423,4.553a10.273,10.273,0,0,0-3.4,4.918.4.4,0,0,0,0,.244,10.074,10.074,0,0,0,9.574,7.073,9.879,9.879,0,0,0,4.817-1.247l3.529,3.529a.4.4,0,0,0,.565,0l.565-.565A.4.4,0,0,0,19.07,17.939ZM6.4,9.594a3.2,3.2,0,0,0,3.2,3.2,3.132,3.132,0,0,0,1.609-.458l1.738,1.738A5.588,5.588,0,0,1,5.116,6.247L6.854,7.985A3.132,3.132,0,0,0,6.4,9.594Z" transform="translate(0 0)"/><path class="b" d="M246.2,170.994a.4.4,0,0,0,.086.438l2.764,2.764a.4.4,0,0,0,.682-.287,3.176,3.176,0,0,0-3.159-3.159A.436.436,0,0,0,246.2,170.994Z" transform="translate(-236.942 -164.35)"/><path class="b" d="M156.55,66.071a.4.4,0,0,0,.455.078,5.537,5.537,0,0,1,2.407-.551,5.6,5.6,0,0,1,5.6,5.6,5.537,5.537,0,0,1-.551,2.407.4.4,0,0,0,.078.455l1.385,1.385a.4.4,0,0,0,.283.117h0a.4.4,0,0,0,.283-.118,10.418,10.418,0,0,0,2.5-4.125.4.4,0,0,0,0-.244A10.074,10.074,0,0,0,159.412,64a9.956,9.956,0,0,0-3.5.634.4.4,0,0,0-.143.657Z" transform="translate(-149.819 -61.601)"/></g></svg>