<svg xmlns="http://www.w3.org/2000/svg" width="123.567" height="23.925" viewBox="0 0 123.567 23.925"><defs><style>.a{fill:#003f8d;}</style></defs><path class="a" d="M52.467,218.471c-1.454,0-1.876.647-1.876,2.069v2.36h3.881l-.388,3.816H50.591v11.575H45.936V226.716H42.8V222.9h3.136v-2.3c0-3.846,1.552-5.883,5.885-5.883a22.009,22.009,0,0,1,2.716.161v3.589" transform="translate(-42.8 -214.721)"/><path class="a" d="M84.193,249.363c0-4.3,2.037-7.534,6.305-7.534a4.574,4.574,0,0,1,4.429,2.683v-2.36H99.39v15.39H94.927v-2.326a4.519,4.519,0,0,1-4.429,2.65c-4.268,0-6.305-3.232-6.305-7.533m4.656.064c0,2.3.842,3.815,3.007,3.815,1.908,0,2.879-1.39,2.879-3.587v-1.553c0-2.2-.97-3.589-2.879-3.589-2.165,0-3.007,1.52-3.007,3.816Z" transform="translate(-72.198 -233.973)"/><path class="a" d="M150.6,241.829a8.495,8.495,0,0,1,4.461,1.035l-1.034,3.3a7.328,7.328,0,0,0-3.1-.711c-2.523,0-3.622,1.454-3.622,3.945v.9c0,2.491,1.1,3.945,3.622,3.945a7.324,7.324,0,0,0,3.1-.711l1.034,3.3a8.495,8.495,0,0,1-4.461,1.035c-5.463,0-7.954-2.943-7.954-7.663v-.711c0-4.72,2.49-7.663,7.954-7.663" transform="translate(-113.715 -233.973)"/><path class="a" d="M187.613,250.43v-1.358c0-4.365,2.489-7.243,7.566-7.243,4.784,0,6.885,2.91,6.885,7.179v2.457h-9.8c.1,2.1,1.034,3.039,3.621,3.039a13.253,13.253,0,0,0,4.947-.936l.84,3.2A15.012,15.012,0,0,1,195.7,257.9c-5.883,0-8.083-2.941-8.083-7.468m4.656-2H197.9v-.388c0-1.681-.679-3.007-2.716-3.007-2.1,0-2.91,1.326-2.91,3.395" transform="translate(-145.647 -233.973)"/><path class="a" d="M259.5,231.154c0,4.3-2.069,7.534-6.337,7.534a4.766,4.766,0,0,1-4.592-2.651v2.328h-4.4V215.246l4.656-.42v10.282a4.644,4.644,0,0,1,4.333-2.457c4.268,0,6.337,3.232,6.337,7.532m-4.656-.1c0-2.167-.842-3.782-3.071-3.782-1.908,0-2.943,1.358-2.943,3.555v1.617c0,2.2,1.035,3.557,2.943,3.557,2.23,0,3.071-1.617,3.071-3.784Z" transform="translate(-185.821 -214.796)"/><path class="a" d="M302.414,250.235v-.775c0-4.429,2.521-7.631,7.663-7.631s7.663,3.2,7.663,7.631v.775c0,4.431-2.523,7.631-7.663,7.631s-7.663-3.2-7.663-7.631m10.67-1.1c0-2.037-.842-3.653-3.007-3.653s-3.007,1.617-3.007,3.653v1.422c0,2.037.84,3.654,3.007,3.654s3.007-1.617,3.007-3.654Z" transform="translate(-227.18 -233.973)"/><path class="a" d="M360.65,250.235v-.775c0-4.429,2.521-7.631,7.663-7.631s7.663,3.2,7.663,7.631v.775c0,4.431-2.523,7.631-7.663,7.631s-7.663-3.2-7.663-7.631m10.67-1.1c0-2.037-.842-3.653-3.007-3.653s-3.007,1.617-3.007,3.653v1.422c0,2.037.84,3.654,3.007,3.654s3.007-1.617,3.007-3.654Z" transform="translate(-268.54 -233.973)"/><path class="a" d="M424.208,230.314l4.592-7.339h4.947l-4.819,7.6,5.012,7.791h-4.945l-4.786-7.532v7.532h-4.656V215.247l4.656-.422" transform="translate(-310.372 -214.795)"/></svg>