<svg xmlns="http://www.w3.org/2000/svg" width="46.579" height="46.579" viewBox="0 0 46.579 46.579"><defs><style>.a{fill:#2dbdca;}</style></defs><path class="a" d="M33.071,32.45a.775.775,0,0,0,.311-.621v-.153a14.788,14.788,0,0,0,3.158-4.3A9.329,9.329,0,0,0,45.8,35.711a.777.777,0,0,0,.776-.776V16.3a9.326,9.326,0,0,0-9.316-9.316H35.808A14.722,14.722,0,0,0,8.579,13.974H7.763a3.882,3.882,0,0,0,0,7.763h.817A14.752,14.752,0,0,0,13.2,31.676v.153a.776.776,0,0,0,.311.621A16.053,16.053,0,0,0,16.3,34.119v1.4A2.34,2.34,0,0,1,14.454,37.8l-7.48,1.575A9.368,9.368,0,0,0,.04,45.559.768.768,0,0,0,0,45.8v.776H1.553v-.647a7.812,7.812,0,0,1,5.741-5.039l1.3-.274c3.334,3.25,8.783,5.184,14.7,5.184s11.362-1.933,14.7-5.184l1.3.274a7.812,7.812,0,0,1,5.741,5.039v.647h1.553V45.8a.777.777,0,0,0-.04-.245,9.368,9.368,0,0,0-6.934-6.183L32.126,37.8a2.339,2.339,0,0,1-1.849-2.279v-1.4a16.049,16.049,0,0,0,2.795-1.668ZM14.278,21.676l-4.186-4.884v-.522c4.424-.27,8.118-2.813,9.5-6.277,2.353,3.562,8.81,6.107,16.709,6.3L32.267,21.67,23.417,20.2a.743.743,0,0,0-.255,0Zm24.538-6.149a2.329,2.329,0,0,1,0,4.658H38.04V15.526ZM33.382,29.416V22.772l3.105-4.14v2.329A13.181,13.181,0,0,1,33.382,29.416ZM37.264,8.54A7.772,7.772,0,0,1,45.027,16.3V34.119A7.774,7.774,0,0,1,38.04,26.4V21.737h.776a3.882,3.882,0,0,0,0-7.763H38A14.625,14.625,0,0,0,36.649,8.54ZM23.29,1.553a13.212,13.212,0,0,1,13.2,13.188c-8.914-.192-16.3-3.664-16.3-7.754H18.632c0,4.062-3.764,7.4-8.538,7.731A13.211,13.211,0,0,1,23.29,1.553ZM5.434,17.855a2.332,2.332,0,0,1,2.329-2.329H8.54v4.658H7.763A2.332,2.332,0,0,1,5.434,17.855Zm4.658,3.105V19.178L13.2,22.8v6.615a13.181,13.181,0,0,1-3.105-8.455Zm4.658,8.71,2.953.591.305-1.522-3.258-.652V26.255l3.257-.651L17.7,24.082l-2.952.59v-1.5l8.54-1.423,8.54,1.423v1.5l-2.953-.591L28.571,25.6l3.258.652v1.833l-3.257.651.305,1.522,2.952-.591v1.764a14.832,14.832,0,0,1-17.079,0Zm17.056,9.647,4.3.905c-3.091,2.539-7.756,4.027-12.816,4.027s-9.725-1.487-12.816-4.027l4.3-.905a3.9,3.9,0,0,0,3.082-3.8v-.762a16.3,16.3,0,0,0,10.869,0v.762a3.9,3.9,0,0,0,3.082,3.8Z" transform="translate(0 0)"/><ellipse class="a" cx="1.525" cy="1.716" rx="1.525" ry="1.716" transform="translate(16.396 16.812)"/><ellipse class="a" cx="1.525" cy="1.716" rx="1.525" ry="1.716" transform="translate(27.072 16.812)"/></svg>