<svg xmlns="http://www.w3.org/2000/svg" width="184.54" height="199.314" viewBox="0 0 184.54 199.314"><defs><style>.a{fill:#2dbdca;opacity:0.1;}</style></defs><path class="a" d="M143.872,39.322a147.966,147.966,0,0,0-14.231-16.275A148.049,148.049,0,0,0,113.366,8.816c-8.419-6.174-12.5-6.888-14.842-6.888H17.558A13.074,13.074,0,0,0,4.5,14.987V156.024a13.073,13.073,0,0,0,13.059,13.059H137.7a13.074,13.074,0,0,0,13.059-13.059V54.164c0-2.34-.714-6.423-6.888-14.842Zm-21.618-8.888A142.479,142.479,0,0,1,134.1,43.717H108.971V18.587a142.417,142.417,0,0,1,13.283,11.846Zm18.058,125.591a2.647,2.647,0,0,1-2.612,2.612H17.558a2.647,2.647,0,0,1-2.612-2.612V14.987a2.647,2.647,0,0,1,2.612-2.612H98.523V48.94a5.223,5.223,0,0,0,5.224,5.224h36.565ZM35.84,85.506H88.076v52.236H35.84V85.506ZM88.076,106.4l31.342-20.894v52.236L88.076,116.847Z" transform="matrix(0.966, -0.259, 0.259, 0.966, -4.844, 37.157)"/></svg>