<svg xmlns="http://www.w3.org/2000/svg" width="87" height="88" viewBox="0 0 87 88"><defs><style>.a{opacity:0.33;}.b{fill:#fff;}</style></defs><g transform="translate(-1018.131 -781.487)"><rect class="a" width="87" height="88" rx="43.5" transform="translate(1018.131 781.487)"/><g transform="translate(1047.08 798.531)"><path class="b" d="M39.573,50.86,12.191,4.217A1.733,1.733,0,0,0,9.845,3.6a1.684,1.684,0,0,0-.614,2.322L36.614,52.581a1.7,1.7,0,0,0,1.48.842,1.762,1.762,0,0,0,.866-.229A1.719,1.719,0,0,0,39.573,50.86Z" transform="translate(-8.995 -1.443)"/><path class="b" d="M25.443,26.488l6.966-9.119a1.015,1.015,0,0,0-.758-1.612H19.139Z" transform="translate(-1.783 7.362)"/><path class="b" d="M27.2,2.867a.486.486,0,0,0-.866-.409L15.961,16.076l5.1,8.7Z" transform="translate(-4.043 -2.246)"/><path class="b" d="M16.149,13.971,9.183,23.09A1.015,1.015,0,0,0,9.941,24.7h12.5Z" transform="translate(-8.994 6.092)"/><path class="b" d="M13.477,42.5a.486.486,0,0,0,.866.409l10.37-13.619-5.1-8.7Z" transform="translate(-5.817 10.796)"/></g></g></svg>