<svg xmlns="http://www.w3.org/2000/svg" width="116.87" height="38.148" viewBox="0 0 116.87 38.148"><defs><style>.a{fill:#3780ff;}.b{fill:#38b137;}.c{fill:#fa3913;}.d{fill:#fcbd06;}</style></defs><path class="a" d="M14.391,0H15.43a14.182,14.182,0,0,1,9.706,4.1c-.941.961-1.9,1.882-2.824,2.843a10.606,10.606,0,0,0-17.8,6.393A10.916,10.916,0,0,0,6.88,21.766a10.5,10.5,0,0,0,7.648,3.765,10.18,10.18,0,0,0,7.608-2.608,8.305,8.305,0,0,0,2.53-5.412c-3.255,0-6.51.02-9.765,0V13.471H28.607c.706,4.334-.314,9.216-3.608,12.314a13.4,13.4,0,0,1-8.334,3.745A15.306,15.306,0,0,1,7.9,27.806a15.091,15.091,0,0,1-7-7.981A14.458,14.458,0,0,1,.8,10.04,14.929,14.929,0,0,1,6.194,2.883,15.394,15.394,0,0,1,14.391,0Z" transform="translate(0.003)"/><path class="b" d="M474.4,5.2h4.2v28c-1.392,0-2.8.02-4.2-.02.02-9.314,0-18.648,0-27.982Z" transform="translate(-381.374 -4.18)"/><path class="c" d="M161.973,53.987a9.853,9.853,0,0,1,7.53,1.608,9.21,9.21,0,0,1,3.706,5.883,9.482,9.482,0,0,1-9.961,11.373,9.543,9.543,0,0,1-7.138-3.824,9.8,9.8,0,0,1-1.294-8.9,9.306,9.306,0,0,1,7.157-6.138m.588,3.726a5.272,5.272,0,0,0-2.745,1.745,6.22,6.22,0,0,0,.314,8.1,5.221,5.221,0,0,0,4.667,1.451,5.281,5.281,0,0,0,3.647-2.686,6.2,6.2,0,0,0-1.059-7.373A5.291,5.291,0,0,0,162.562,57.713Z" transform="translate(-124.029 -43.261)"/><path class="d" d="M268,53.981a9.534,9.534,0,0,1,9.334,15.354,9.7,9.7,0,0,1-15.2-.314,9.9,9.9,0,0,1-1.235-9.1,9.313,9.313,0,0,1,7.1-5.942m.588,3.726a5.362,5.362,0,0,0-2.745,1.726,6.229,6.229,0,0,0,.216,8.02A5.247,5.247,0,0,0,270.842,69a5.379,5.379,0,0,0,3.647-2.686,6.235,6.235,0,0,0-1.1-7.393,5.257,5.257,0,0,0-4.8-1.216Z" transform="translate(-209.269 -43.255)"/><path class="a" d="M370.557,55.116a8.017,8.017,0,0,1,7.687-.588,7.325,7.325,0,0,1,2,1.471c.02-.529,0-1.078.02-1.628,1.314.02,2.628,0,3.961.02v17.3a10.336,10.336,0,0,1-2.569,7.275,9.347,9.347,0,0,1-8.059,2.314,9.119,9.119,0,0,1-6.863-5.471c1.177-.569,2.412-1.02,3.628-1.549a5.393,5.393,0,0,0,3.824,3.294,5.082,5.082,0,0,0,4.9-1.569c1.216-1.49,1.216-3.53,1.157-5.353a6.961,6.961,0,0,1-3.2,1.961,8.618,8.618,0,0,1-7.824-2.02,9.653,9.653,0,0,1,1.333-15.452m4.059,2.51a5.159,5.159,0,0,0-3.079,1.784,6.256,6.256,0,0,0,.02,7.863,5.131,5.131,0,0,0,4.412,1.8,4.983,4.983,0,0,0,3.745-2.49,6.619,6.619,0,0,0-.667-7.412,4.825,4.825,0,0,0-4.432-1.549Z" transform="translate(-294.199 -43.252)"/><path class="c" d="M509.311,56.066a8.85,8.85,0,0,1,9-1.784c2.863,1.078,4.687,3.8,5.608,6.608-4.255,1.765-8.491,3.51-12.746,5.275a5.057,5.057,0,0,0,2.706,2.549,5.493,5.493,0,0,0,5.177-.745,8.349,8.349,0,0,0,1.451-1.549c1.078.726,2.157,1.431,3.235,2.157a9.6,9.6,0,0,1-15.158.961,10.052,10.052,0,0,1,.726-13.471m2.1,3.628a5.6,5.6,0,0,0-.922,3.294q4.265-1.765,8.53-3.549a3.527,3.527,0,0,0-2.765-1.941A5.011,5.011,0,0,0,511.409,59.693Z" transform="translate(-407.05 -43.202)"/></svg>