<svg xmlns="http://www.w3.org/2000/svg" width="18.967" height="20.231" viewBox="0 0 18.967 20.231"><defs><style>.a{fill:#afafaf;}</style></defs><g transform="translate(-16)"><path class="a" d="M200.742,272.371a2.371,2.371,0,1,0-2.371,2.371A2.374,2.374,0,0,0,200.742,272.371Zm-2.371,1.185a1.185,1.185,0,1,1,1.185-1.185A1.187,1.187,0,0,1,198.371,273.556Z" transform="translate(-172.887 -259.331)"/><path class="a" d="M171.334,390h-3.556A1.78,1.78,0,0,0,166,391.778v2.45a.593.593,0,0,0,.593.593h5.927a.593.593,0,0,0,.593-.593v-2.449A1.78,1.78,0,0,0,171.334,390Zm.593,3.635h-4.742v-1.857a.593.593,0,0,1,.593-.593h3.556a.593.593,0,0,1,.593.593Z" transform="translate(-144.073 -374.59)"/><path class="a" d="M200.742,2.371a2.371,2.371,0,1,0-2.371,2.371A2.374,2.374,0,0,0,200.742,2.371Zm-2.371,1.185a1.185,1.185,0,1,1,1.185-1.185A1.187,1.187,0,0,1,198.371,3.556Z" transform="translate(-172.887)"/><path class="a" d="M350.742,62.371a2.371,2.371,0,1,0-2.371,2.371A2.374,2.374,0,0,0,350.742,62.371Zm-2.371,1.185a1.185,1.185,0,1,1,1.185-1.185A1.187,1.187,0,0,1,348.371,63.556Z" transform="translate(-316.96 -57.629)"/><path class="a" d="M33.189,122.371H29.632a1.77,1.77,0,0,0-.593.1v-.695A1.78,1.78,0,0,0,27.262,120H23.705a1.78,1.78,0,0,0-1.778,1.778v.695a1.77,1.77,0,0,0-.593-.1H17.778A1.78,1.78,0,0,0,16,124.149v2.371a.593.593,0,0,0,.593.593h5.927a.593.593,0,0,0,.593-.593v-1.778h4.742v1.778a.593.593,0,0,0,.593.593h5.927a.593.593,0,0,0,.593-.593v-2.37a1.78,1.78,0,0,0-1.778-1.778Zm-11.262,3.556H17.185v-1.778a.593.593,0,0,1,.593-.593h3.556a.593.593,0,0,1,.593.593Zm5.927-2.371H23.113v-1.778a.593.593,0,0,1,.593-.593h3.556a.593.593,0,0,1,.593.593Zm5.927,2.371H29.04v-1.778a.593.593,0,0,1,.593-.593h3.556a.593.593,0,0,1,.593.593Z" transform="translate(0 -115.258)"/><path class="a" d="M50.742,62.371a2.371,2.371,0,1,0-2.371,2.371A2.374,2.374,0,0,0,50.742,62.371Zm-2.371,1.185a1.185,1.185,0,1,1,1.185-1.185A1.187,1.187,0,0,1,48.371,63.556Z" transform="translate(-28.815 -57.629)"/></g></svg>