<svg xmlns="http://www.w3.org/2000/svg" width="36.192" height="45.236" viewBox="0 0 36.192 45.236"><defs><style>.a{fill:#2dbdca;}</style></defs><path class="a" d="M36.039.3a.761.761,0,0,0-.92-.234l-9.8,4.524a.734.734,0,0,0-.422.55.754.754,0,0,0,.2.671l2.533,2.526L26.291,9.952a6.724,6.724,0,0,0-5.18-2.413H15.08A6.724,6.724,0,0,0,9.9,9.952L8.558,8.338l2.533-2.526a.754.754,0,0,0,.2-.671.734.734,0,0,0-.422-.55L1.072.067A.761.761,0,0,0,.152.3a.749.749,0,0,0,.03.942l4.071,4.75L1.728,8.512a.758.758,0,0,0-.2.679.746.746,0,0,0,.452.55l6.574,2.744a6.861,6.861,0,0,0-.256,1.84v1.508a.779.779,0,0,0,.219.535l1.161,1.154A2.262,2.262,0,0,0,8.295,19.6v.754a2.269,2.269,0,0,0,2.262,2.262h.038A7.557,7.557,0,0,0,15.08,28.77v2.518l-2.511,1.885H9.8a6.8,6.8,0,0,0-6.785,6.785v4.524a.754.754,0,0,0,.754.754h28.65a.754.754,0,0,0,.754-.754V39.958a6.8,6.8,0,0,0-6.785-6.785H23.622l-2.511-1.885V28.77A7.557,7.557,0,0,0,25.6,22.618h.038A2.269,2.269,0,0,0,27.9,20.356V19.6a2.262,2.262,0,0,0-1.38-2.081l1.161-1.154a.779.779,0,0,0,.219-.535V14.324a6.861,6.861,0,0,0-.256-1.84L34.215,9.74a.746.746,0,0,0,.452-.55.758.758,0,0,0-.2-.679L31.938,5.993l4.071-4.75A.749.749,0,0,0,36.039.3ZM3.59,8.783,5.814,6.566a.754.754,0,0,0,.038-1.025L3.575,2.887,9.26,5.511,7.005,7.758A.762.762,0,0,0,6.96,8.775l1.8,2.164ZM10.556,21.11a.754.754,0,0,1-.754-.754V19.6a.754.754,0,0,1,.754-.754ZM22.6,41.617l1.387-6.936h2.4a5.284,5.284,0,0,1,5.278,5.278v3.77H4.525v-3.77A5.284,5.284,0,0,1,9.8,34.681h2.4l1.387,6.936a.754.754,0,0,0,.739.6h7.539a.754.754,0,0,0,.739-.6Zm-1.357-.9h-6.3L13.881,35.4,17.719,37.6a.787.787,0,0,0,.754,0L22.31,35.4ZM22,33.844,18.1,36.075,14.19,33.844l2.1-1.576a.764.764,0,0,0,.3-.6V29.252a7.615,7.615,0,0,0,3.016,0v2.413a.765.765,0,0,0,.3.6Zm2.126-11.98a6.031,6.031,0,0,1-12.063,0V16.33l4.576-1.96,7.487,2.036Zm2.262-1.508a.754.754,0,0,1-.754.754V18.848a.754.754,0,0,1,.754.754Zm0-4.833-.754.754v-.445a.743.743,0,0,0-.558-.724l-8.293-2.262a.731.731,0,0,0-.49.03l-5.278,2.262a.754.754,0,0,0-.46.694v.445L9.8,15.523v-1.2a5.319,5.319,0,0,1,.158-1.252l1.063.437a.754.754,0,0,0,.286.06.73.73,0,0,0,.6-.309.748.748,0,0,0-.023-.927l-1-1.206A5.232,5.232,0,0,1,15.08,9.047h6.031A5.232,5.232,0,0,1,25.3,11.128l-1,1.206a.748.748,0,0,0-.023.927.73.73,0,0,0,.6.309.754.754,0,0,0,.286-.06l1.063-.437a5.319,5.319,0,0,1,.158,1.252ZM30.34,5.541a.754.754,0,0,0,.038,1.025L32.6,8.783l-5.172,2.156,1.8-2.164a.762.762,0,0,0-.045-1.018L26.932,5.511l5.685-2.624Z" transform="translate(0)"/><path class="a" d="M.338,2.762,2.6,4.27l.837-1.255L2.113,2.135l1.321-.881L2.6,0,.336,1.508a.754.754,0,0,0,0,1.255Z" transform="translate(18.847 16.713)"/><path class="a" d="M3.434,2.135A.754.754,0,0,0,3.1,1.508L.837,0,0,1.255l1.323.881L0,3.016.839,4.27,3.1,2.762A.754.754,0,0,0,3.434,2.135Z" transform="translate(13.908 16.713)"/><path class="a" d="M4.524,2.067,5.36.813A4.825,4.825,0,0,0,0,.813L.837,2.067A3.317,3.317,0,0,1,4.524,2.067Z" transform="translate(15.416 23.37)"/><path class="a" d="M3.016,0H1.508A1.7,1.7,0,0,1,.936,1.267a3.172,3.172,0,0,0,0,4.5,1.7,1.7,0,0,1,.572,1.27,1.7,1.7,0,0,1-.572,1.27A3.139,3.139,0,0,0,0,10.555H1.508a1.709,1.709,0,0,1,.572-1.27,3.173,3.173,0,0,0,.936-2.25,3.173,3.173,0,0,0-.936-2.25,1.692,1.692,0,0,1,0-2.537A3.138,3.138,0,0,0,3.016,0Z" transform="translate(29.405 15.832)"/><path class="a" d="M1.508,3.516A1.7,1.7,0,0,1,2.08,2.249,3.138,3.138,0,0,0,3.016,0H1.508A1.7,1.7,0,0,1,.936,1.267a3.172,3.172,0,0,0,0,4.5,1.7,1.7,0,0,1,.572,1.27,1.7,1.7,0,0,1-.572,1.27A3.139,3.139,0,0,0,0,10.555H1.508a1.709,1.709,0,0,1,.572-1.27,3.173,3.173,0,0,0,.936-2.25,3.173,3.173,0,0,0-.936-2.25,1.709,1.709,0,0,1-.572-1.27Z" transform="translate(33.174 15.832)"/><path class="a" d="M2.08,4.786a1.692,1.692,0,0,1,0-2.537A3.138,3.138,0,0,0,3.016,0H1.508A1.7,1.7,0,0,1,.936,1.267a3.172,3.172,0,0,0,0,4.5,1.7,1.7,0,0,1,.572,1.27,1.7,1.7,0,0,1-.572,1.27A3.139,3.139,0,0,0,0,10.555H1.508a1.709,1.709,0,0,1,.572-1.27,3.173,3.173,0,0,0,.936-2.25A3.173,3.173,0,0,0,2.08,4.786Z" transform="translate(0.001 15.832)"/><path class="a" d="M0,10.555H1.508a1.709,1.709,0,0,1,.572-1.27,3.173,3.173,0,0,0,.936-2.25,3.173,3.173,0,0,0-.936-2.25,1.692,1.692,0,0,1,0-2.537A3.138,3.138,0,0,0,3.016,0H1.508A1.7,1.7,0,0,1,.936,1.267a3.172,3.172,0,0,0,0,4.5,1.7,1.7,0,0,1,.572,1.27,1.7,1.7,0,0,1-.572,1.27A3.139,3.139,0,0,0,0,10.555Z" transform="translate(3.771 15.832)"/></svg>