<svg xmlns="http://www.w3.org/2000/svg" width="55.018" height="46.04" viewBox="0 0 55.018 46.04"><defs><style>.a{fill:none;stroke:#2dbdca;stroke-width:2px;}</style></defs><path class="a" d="M25.749,13.627,8.817,28.49V44.53A1.52,1.52,0,0,0,10.286,46.1l10.291-.028A1.521,1.521,0,0,0,22.039,44.5V35.134a1.52,1.52,0,0,1,1.469-1.566h5.878a1.52,1.52,0,0,1,1.469,1.566v9.361a1.62,1.62,0,0,0,.429,1.11,1.425,1.425,0,0,0,1.041.46l10.288.03a1.52,1.52,0,0,0,1.469-1.566V28.479L27.154,13.627A1.066,1.066,0,0,0,25.749,13.627Zm26.746,10.1-7.678-6.744V3.428a1.14,1.14,0,0,0-1.1-1.174H38.572a1.14,1.14,0,0,0-1.1,1.174v7.107L29.248,3.325a4.2,4.2,0,0,0-5.6,0L.4,23.729a1.228,1.228,0,0,0-.147,1.654l2.342,3.034a1.084,1.084,0,0,0,.745.423,1.057,1.057,0,0,0,.808-.264l21.6-18.962a1.066,1.066,0,0,1,1.405,0l21.6,18.962a1.056,1.056,0,0,0,1.552-.157l2.342-3.034a1.228,1.228,0,0,0,.245-.863,1.2,1.2,0,0,0-.4-.794Z" transform="translate(1.115 -1.056)"/></svg>