<svg xmlns="http://www.w3.org/2000/svg" width="48.99" height="40.187" viewBox="0 0 48.99 40.187"><defs><style>.a{fill:#2dbdca;}</style></defs><path class="a" d="M46.119,7.655H36.934V2.87A2.874,2.874,0,0,0,34.063,0H14.927a2.874,2.874,0,0,0-2.87,2.87V7.655H2.87A2.874,2.874,0,0,0,0,10.525V37.317a2.874,2.874,0,0,0,2.87,2.87H46.119a2.874,2.874,0,0,0,2.87-2.87V10.525A2.874,2.874,0,0,0,46.119,7.655ZM36.934,9.568H39.8v2.87a.958.958,0,0,1-.957.957H37.89a.958.958,0,0,1-.957-.957ZM14.927,1.914H34.063a.958.958,0,0,1,.957.957V7.655H33.106V4.784a.957.957,0,0,0-.957-.957H16.84a.957.957,0,0,0-.957.957V7.655H13.97V2.87A.958.958,0,0,1,14.927,1.914Zm16.266,6.7a.958.958,0,0,1-.957.957H18.754a.958.958,0,0,1-.957-.957V5.741h13.4Zm-19.137.957v2.87a.958.958,0,0,1-.957.957h-.957a.958.958,0,0,1-.957-.957V9.568Zm-9.186,0h4.4v2.87a2.874,2.874,0,0,0,2.87,2.87H11.1a2.874,2.874,0,0,0,2.87-2.87V9.568h2.078a2.875,2.875,0,0,0,2.706,1.914H30.236a2.875,2.875,0,0,0,2.706-1.914H35.02v2.87a2.874,2.874,0,0,0,2.87,2.87h.957a2.874,2.874,0,0,0,2.87-2.87V9.568h4.4a.958.958,0,0,1,.957.957V34.446H1.914V10.525a.958.958,0,0,1,.957-.957ZM47.076,37.317a.958.958,0,0,1-.957.957H2.87a.958.958,0,0,1-.957-.957V36.36H47.076Z" transform="translate(0)"/><path class="a" d="M3.588,11.482H7.894V7.894h3.588V3.588H7.894V0H3.588V3.588H0V7.894H3.588Z" transform="translate(18.754 17.223)"/></svg>