<svg xmlns="http://www.w3.org/2000/svg" width="40.833" height="12.38" viewBox="0 0 40.833 12.38">
  <g id="iconfinder__Visa_1156753" transform="translate(-0.5 -22.4)">
    <g id="Group_3583" data-name="Group 3583" transform="translate(0.5 22.4)">
      <g id="Group_3562" data-name="Group 3562" transform="translate(14.972 0.389)">
        <g id="Group_3561" data-name="Group 3561">
          <path id="Path_3061" data-name="Path 3061" d="M23.6,34.667,25.674,23h3.241L26.906,34.667Z" transform="translate(-23.6 -23)" fill="#3c58bf"/>
        </g>
      </g>
      <g id="Group_3564" data-name="Group 3564" transform="translate(14.972 0.389)">
        <g id="Group_3563" data-name="Group 3563">
          <path id="Path_3062" data-name="Path 3062" d="M23.6,34.667,26.257,23h2.657L26.906,34.667Z" transform="translate(-23.6 -23)" fill="#293688"/>
        </g>
      </g>
      <g id="Group_3566" data-name="Group 3566" transform="translate(20.092)">
        <g id="Group_3565" data-name="Group 3565">
          <path id="Path_3063" data-name="Path 3063" d="M41.417,22.919a8.221,8.221,0,0,0-2.981-.519c-3.241,0-5.574,1.62-5.574,3.954,0,1.75,1.62,2.657,2.917,3.241s1.685.972,1.685,1.491c0,.778-1.037,1.167-1.944,1.167a7.045,7.045,0,0,1-3.111-.648l-.454-.194L31.5,34.067a10.509,10.509,0,0,0,3.694.648c3.435,0,5.7-1.62,5.7-4.083,0-1.361-.843-2.4-2.787-3.241-1.167-.583-1.88-.907-1.88-1.491,0-.519.583-1.037,1.88-1.037a5.945,5.945,0,0,1,2.463.454l.324.13.519-2.528Z" transform="translate(-31.5 -22.4)" fill="#3c58bf"/>
        </g>
      </g>
      <g id="Group_3568" data-name="Group 3568" transform="translate(20.092)">
        <g id="Group_3567" data-name="Group 3567">
          <path id="Path_3064" data-name="Path 3064" d="M41.417,22.919a8.221,8.221,0,0,0-2.981-.519c-3.241,0-4.991,1.62-4.991,3.954a3.388,3.388,0,0,0,2.333,3.241c1.3.583,1.685.972,1.685,1.491,0,.778-1.037,1.167-1.944,1.167a7.045,7.045,0,0,1-3.111-.648l-.454-.194L31.5,34.067a10.509,10.509,0,0,0,3.694.648c3.435,0,5.7-1.62,5.7-4.083,0-1.361-.843-2.4-2.787-3.241-1.167-.583-1.88-.907-1.88-1.491,0-.519.583-1.037,1.88-1.037a5.945,5.945,0,0,1,2.463.454l.324.13.519-2.528Z" transform="translate(-31.5 -22.4)" fill="#293688"/>
        </g>
      </g>
      <g id="Group_3570" data-name="Group 3570" transform="translate(29.037 0.389)">
        <g id="Group_3569" data-name="Group 3569">
          <path id="Path_3065" data-name="Path 3065" d="M51.846,23c-.778,0-1.361.065-1.685.843L45.3,34.667h3.5l.648-1.944H53.6l.389,1.944H57.1L54.374,23Zm-1.491,7.778c.194-.583,1.3-3.435,1.3-3.435s.259-.713.454-1.167l.194,1.1s.648,2.917.778,3.565H50.356Z" transform="translate(-45.3 -23)" fill="#3c58bf"/>
        </g>
      </g>
      <g id="Group_3572" data-name="Group 3572" transform="translate(29.037 0.389)">
        <g id="Group_3571" data-name="Group 3571">
          <path id="Path_3066" data-name="Path 3066" d="M52.624,23c-.778,0-1.361.065-1.685.843L45.3,34.667h3.5l.648-1.944H53.6l.389,1.944H57.1L54.374,23Zm-2.269,7.778c.259-.648,1.3-3.435,1.3-3.435s.259-.713.454-1.167l.194,1.1s.648,2.917.778,3.565H50.356Z" transform="translate(-45.3 -23)" fill="#293688"/>
        </g>
      </g>
      <g id="Group_3574" data-name="Group 3574" transform="translate(4.148 0.454)">
        <g id="Group_3573" data-name="Group 3573">
          <path id="Path_3067" data-name="Path 3067" d="M11.761,31.2l-.324-1.685A9.4,9.4,0,0,0,6.9,24.4l2.917,10.37h3.5L18.567,23.1h-3.5Z" transform="translate(-6.9 -23.1)" fill="#3c58bf"/>
        </g>
      </g>
      <g id="Group_3576" data-name="Group 3576" transform="translate(4.148 0.454)">
        <g id="Group_3575" data-name="Group 3575">
          <path id="Path_3068" data-name="Path 3068" d="M11.761,31.2l-.324-1.685A9.4,9.4,0,0,0,6.9,24.4l2.917,10.37h3.5L18.567,23.1H15.715Z" transform="translate(-6.9 -23.1)" fill="#293688"/>
        </g>
      </g>
      <g id="Group_3578" data-name="Group 3578" transform="translate(0 0.389)">
        <g id="Group_3577" data-name="Group 3577">
          <path id="Path_3069" data-name="Path 3069" d="M.5,23l.583.13c4.148.972,7,3.435,8.1,6.352L8.018,23.972C7.824,23.194,7.241,23,6.528,23Z" transform="translate(-0.5 -23)" fill="#ffbc00"/>
        </g>
      </g>
      <g id="Group_3580" data-name="Group 3580" transform="translate(0 0.389)">
        <g id="Group_3579" data-name="Group 3579">
          <path id="Path_3070" data-name="Path 3070" d="M.5,23h0c4.148.972,7.583,3.5,8.685,6.417l-1.1-4.6a1.582,1.582,0,0,0-1.556-1.231Z" transform="translate(-0.5 -23)" fill="#f7981d"/>
        </g>
      </g>
      <g id="Group_3582" data-name="Group 3582" transform="translate(0 0.389)">
        <g id="Group_3581" data-name="Group 3581">
          <path id="Path_3071" data-name="Path 3071" d="M.5,23h0c4.148.972,7.583,3.5,8.685,6.417l-.778-2.528a2.286,2.286,0,0,0-1.361-1.88Z" transform="translate(-0.5 -23)" fill="#ed7c00"/>
        </g>
      </g>
    </g>
    <g id="Group_3584" data-name="Group 3584" transform="translate(4.713 24.085)">
      <path id="Path_3072" data-name="Path 3072" d="M15.037,31.481l-2.2-2.2L11.8,31.741l-.259-1.62A9.4,9.4,0,0,0,7,25L9.917,35.37h3.5Z" transform="translate(-7 -25)" fill="#051244"/>
    </g>
    <g id="Group_3585" data-name="Group 3585" transform="translate(15.472 31.604)">
      <path id="Path_3073" data-name="Path 3073" d="M26.906,39.452,24.119,36.6,23.6,39.452Z" transform="translate(-23.6 -36.6)" fill="#051244"/>
    </g>
    <g id="Group_3586" data-name="Group 3586" transform="translate(20.592 30.437)">
      <path id="Path_3074" data-name="Path 3074" d="M37.139,34.8h0c.259.259.389.454.324.713,0,.778-1.037,1.167-1.944,1.167a7.045,7.045,0,0,1-3.111-.648l-.454-.194L31.5,38.494a10.509,10.509,0,0,0,3.694.648,6.417,6.417,0,0,0,4.731-1.62Z" transform="translate(-31.5 -34.8)" fill="#051244"/>
    </g>
    <g id="Group_3587" data-name="Group 3587" transform="translate(29.991 25.965)">
      <path id="Path_3075" data-name="Path 3075" d="M46,36.391h3.046l.648-1.944h4.148l.389,1.944h3.111l-1.1-4.731L52.352,27.9l.194,1.037s.648,2.917.778,3.565H50.6c.259-.648,1.3-3.435,1.3-3.435s.259-.713.454-1.167" transform="translate(-46 -27.9)" fill="#051244"/>
    </g>
  </g>
</svg>
