<svg xmlns="http://www.w3.org/2000/svg" width="90.925" height="70.722" viewBox="0 0 90.925 70.722">
  <path id="Icon_awesome-pills" data-name="Icon awesome-pills" d="M17.68,2.25A17.671,17.671,0,0,0,0,19.93V55.291a17.68,17.68,0,0,0,35.361,0V19.93A17.671,17.671,0,0,0,17.68,2.25Zm7.577,35.361H10.1V19.93a7.577,7.577,0,0,1,15.155,0Zm22.053-4.688a1.3,1.3,0,0,0-1.942.126A25.11,25.11,0,0,0,80.462,68.141a1.285,1.285,0,0,0,.126-1.942Zm36.276-3A25.168,25.168,0,0,0,51,27.413a1.285,1.285,0,0,0-.126,1.942L84.156,62.632a1.3,1.3,0,0,0,1.942-.126,25.148,25.148,0,0,0-2.51-32.582Z" transform="translate(0 -2.25)" fill="#2dbdca"/>
</svg>
