<svg xmlns="http://www.w3.org/2000/svg" width="20.794" height="18.48" viewBox="0 0 20.794 18.48">
  <path id="Icon_awesome-edit" data-name="Icon awesome-edit" d="M14.534,3.007,17.79,6.263a.353.353,0,0,1,0,.5L9.906,14.646l-3.35.372a.7.7,0,0,1-.776-.776l.372-3.35,7.884-7.884A.353.353,0,0,1,14.534,3.007Zm5.848-.827L18.621.419a1.412,1.412,0,0,0-1.993,0L15.35,1.7a.353.353,0,0,0,0,.5l3.256,3.256a.353.353,0,0,0,.5,0l1.278-1.278a1.412,1.412,0,0,0,0-1.993ZM13.863,12.5v3.675H2.31V4.624h8.3a.444.444,0,0,0,.307-.126l1.444-1.444a.433.433,0,0,0-.307-.74H1.733A1.733,1.733,0,0,0,0,4.047V16.754a1.733,1.733,0,0,0,1.733,1.733H14.44a1.733,1.733,0,0,0,1.733-1.733v-5.7a.434.434,0,0,0-.74-.307l-1.444,1.444A.444.444,0,0,0,13.863,12.5Z" transform="translate(0 -0.007)" fill="#2dbdca"/>
</svg>
