<svg xmlns="http://www.w3.org/2000/svg" width="88.732" height="83.187" viewBox="0 0 88.732 83.187">
  <path id="Icon_awesome-briefcase-medical" data-name="Icon awesome-briefcase-medical" d="M80.414,18.887H66.549V10.569A8.321,8.321,0,0,0,58.231,2.25H30.5a8.321,8.321,0,0,0-8.319,8.319v8.319H8.319A8.321,8.321,0,0,0,0,27.206V77.118a8.321,8.321,0,0,0,8.319,8.319H80.414a8.321,8.321,0,0,0,8.319-8.319V27.206A8.321,8.321,0,0,0,80.414,18.887ZM33.275,13.342H55.458v5.546H33.275ZM61,56.321a1.391,1.391,0,0,1-1.386,1.386H49.912v9.705A1.391,1.391,0,0,1,48.525,68.8H40.207a1.391,1.391,0,0,1-1.386-1.386V57.708H29.115a1.391,1.391,0,0,1-1.386-1.386V48a1.391,1.391,0,0,1,1.386-1.386H38.82V36.911a1.391,1.391,0,0,1,1.386-1.386h8.319a1.391,1.391,0,0,1,1.386,1.386v9.705h9.705A1.391,1.391,0,0,1,61,48Z" transform="translate(0 -2.25)" fill="#2dbdca"/>
</svg>
