<svg xmlns="http://www.w3.org/2000/svg" width="81.951" height="81.951" viewBox="0 0 81.951 81.951"><defs><style>.a{fill:#e1e6e8;}.b{fill:#2dbdca;}.c{fill:#fff;}.d{fill:red;}.e{fill:#ff9500;}</style></defs><circle class="a" cx="40.975" cy="40.975" r="40.975" transform="translate(0 0)"/><path class="b" d="M105.458,105.458,103.409,89.2a34.587,34.587,0,0,0,3.969-15.75,34,34,0,1,0-34.061,33.8,32.309,32.309,0,0,0,15.75-3.969Z" transform="translate(-32.983 -32.983)"/><path class="b" d="M66.721,101.934a35.213,35.213,0,1,1,35.213-35.213,34.71,34.71,0,0,1-3.841,16.006l1.921,15.878a1.322,1.322,0,0,1-1.409,1.409L82.727,98.093A34.33,34.33,0,0,1,66.721,101.934Zm0-67.865a32.652,32.652,0,0,0,0,65.3A33.46,33.46,0,0,0,81.959,95.66a1.624,1.624,0,0,1,.768-.128l14.6,1.793-1.793-14.6a1.623,1.623,0,0,1,.128-.768,32.744,32.744,0,0,0-28.939-47.89Z" transform="translate(-26.386 -26.386)"/><path class="c" d="M99.7,128.514a28.75,28.75,0,1,1,24.713-13.957l1.409,11.268-11.268-1.409A28.606,28.606,0,0,1,99.7,128.514Z" transform="translate(-59.368 -59.368)"/><g transform="translate(36.622 19.591)"><path class="d" d="M225.28,120.517v22.408l1.921,7.555h3.457l2.049-7.555V120.517Z" transform="translate(-225.28 -120.517)"/><rect class="d" width="7.427" height="7.427" transform="translate(0 34.061)"/></g><g transform="translate(22.408 29.835)"><rect class="e" width="2.561" height="2.561"/><rect class="e" width="2.561" height="2.561" transform="translate(0 9.219)"/><rect class="e" width="2.561" height="2.561" transform="translate(0 18.439)"/><rect class="e" width="2.561" height="2.561" transform="translate(33.292)"/><rect class="e" width="2.561" height="2.561" transform="translate(33.292 9.219)"/><rect class="e" width="2.561" height="2.561" transform="translate(33.292 18.439)"/></g></svg>