<svg xmlns="http://www.w3.org/2000/svg" width="80.943" height="80.942" viewBox="0 0 80.943 80.942"><g transform="translate(0 0)"><path d="M39.841,0A40.5,40.5,0,0,1,79.993,49.224a73.4,73.4,0,0,0-1.827,15.8V75.312a2.853,2.853,0,0,1-2.853,2.853H65.028a73.4,73.4,0,0,0-15.8,1.827A40.475,40.475,0,1,1,39.841,0Z" transform="translate(0 0)" fill="#2dbdca"/><g transform="translate(22.471 22.471)"><path d="M15,19.5a7.5,7.5,0,0,0,11.31.81l4.5-4.5A7.5,7.5,0,1,0,20.2,5.2L17.625,7.77" fill="none" stroke="#fff" stroke-linecap="round" stroke-linejoin="round" stroke-width="3"/><path d="M21,16.5a7.5,7.5,0,0,0-11.31-.81l-4.5,4.5A7.5,7.5,0,1,0,15.8,30.8L18.36,28.23" fill="none" stroke="#fff" stroke-linecap="round" stroke-linejoin="round" stroke-width="3"/></g></g></svg>