<svg xmlns="http://www.w3.org/2000/svg" xmlns:xlink="http://www.w3.org/1999/xlink" width="131" height="131" viewBox="0 0 131 131"><defs><style>.a{fill:#fff;}.b{fill:#2dbdca;}.c{fill:#f60;}.d{filter:url(#a);}</style><filter id="a" x="0" y="0" width="131" height="131" filterUnits="userSpaceOnUse"><feOffset dy="3" input="SourceAlpha"/><feGaussianBlur stdDeviation="7.5" result="b"/><feFlood flood-color="#8598c4" flood-opacity="0.161"/><feComposite operator="in" in2="b"/><feComposite in="SourceGraphic"/></filter></defs><g transform="translate(-921.384 -340.805)"><g class="d" transform="matrix(1, 0, 0, 1, 921.38, 340.8)"><rect class="a" width="86" height="86" rx="43" transform="translate(22.5 19.5)"/></g><g transform="translate(965.248 381.415)"><g transform="translate(0 0.277)"><path class="b" d="M38.623,28.289a4.656,4.656,0,0,0-4.471,3.381H29.665V26.721h4.582A9.026,9.026,0,0,0,36.869,9.059,10.317,10.317,0,0,0,26.874,1.25a10.206,10.206,0,0,0-5.166,1.383A9.029,9.029,0,0,0,6.6,9,9.025,9.025,0,0,0,9.025,26.721h4.582V31.67H9.12a4.648,4.648,0,1,0,0,2.535h5.755a1.268,1.268,0,0,0,1.268-1.268V26.721h4.226v7.661a4.648,4.648,0,1,0,2.535,0V26.721h4.226v6.217A1.268,1.268,0,0,0,28.4,34.205h5.755a4.648,4.648,0,1,0,4.471-5.916ZM4.648,35.05a2.113,2.113,0,1,1,2.113-2.113A2.115,2.115,0,0,1,4.648,35.05Zm19.1,3.8a2.113,2.113,0,1,1-2.113-2.113A2.115,2.115,0,0,1,23.749,38.854ZM9.025,24.186A6.49,6.49,0,0,1,8.08,11.275,1.268,1.268,0,0,0,9.159,9.9c-.018-.2-.028-.4-.028-.6A6.492,6.492,0,0,1,20.561,5.09a1.268,1.268,0,0,0,1.719.2,7.671,7.671,0,0,1,4.594-1.5,7.779,7.779,0,0,1,7.663,6.51,1.268,1.268,0,0,0,1,1.039,6.49,6.49,0,0,1-1.29,12.851H9.025Zm29.6,10.865a2.113,2.113,0,1,1,2.113-2.113A2.115,2.115,0,0,1,38.623,35.05Z" transform="translate(0 -0.277)"/></g></g><path class="c" d="M4.816,0A1.605,1.605,0,1,0,6.422,1.605,1.61,1.61,0,0,0,4.816,0ZM2.408,4.014A2.4,2.4,0,0,0,0,6.422H1.605a.8.8,0,0,1,1.605,0c0,.45-1.605,2.633-1.605,4.014a2.375,2.375,0,0,0,2.408,2.408,2.4,2.4,0,0,0,2.408-2.408H4.816a.8.8,0,0,1-1.605,0c0-.578,1.605-2.954,1.605-4.014A2.426,2.426,0,0,0,2.408,4.014Z" transform="translate(983.672 389.16)"/></g></svg>