<svg xmlns="http://www.w3.org/2000/svg" width="51.157" height="51.21" viewBox="0 0 51.157 51.21"><defs><style>.a{fill:#2dbdca;stroke:#fff;}</style></defs><g transform="translate(0.498 0.5)"><path class="a" d="M42.47,31.993c4.317-.376,7.688-3.334,7.688-6.914s-3.372-6.538-7.688-6.915A18.779,18.779,0,0,0,33.6,8.416a8.518,8.518,0,0,0-17.036,0A18.778,18.778,0,0,0,7.69,18.164C3.374,18.54,0,21.5,0,25.078s3.372,6.539,7.689,6.915a18.9,18.9,0,0,0,6.951,8.612A16.1,16.1,0,0,0,9.256,48.23a1.469,1.469,0,1,0,2.793.915,13.284,13.284,0,0,1,5.435-6.964,18.737,18.737,0,0,0,15.463-.123,13.28,13.28,0,0,1,5.628,7.087,1.469,1.469,0,1,0,2.793-.915,16.088,16.088,0,0,0-5.6-7.791A18.745,18.745,0,0,0,42.47,31.993Zm4.75-6.914c0,1.717-1.618,3.222-3.812,3.783a18.851,18.851,0,0,0,0-7.566C45.6,21.856,47.22,23.362,47.22,25.078ZM25.08,2.939a5.626,5.626,0,0,1,5.535,4.93,8.528,8.528,0,0,0-7.421,6.012,5.569,5.569,0,0,1-3.7-5.259A5.64,5.64,0,0,1,25.08,2.939ZM2.941,25.078c0-1.717,1.618-3.222,3.812-3.783a18.851,18.851,0,0,0,0,7.566C4.559,28.3,2.941,26.795,2.941,25.078Zm29.4,14.007A15.774,15.774,0,0,1,17.055,11.5a8.493,8.493,0,0,0,7.124,5.6A1.47,1.47,0,0,0,25.8,15.784a5.563,5.563,0,0,1,5.977-4.99,15.775,15.775,0,0,1,.565,28.292Z"/><path class="a" d="M145.052,204.646a1.469,1.469,0,0,0,0-2.078,5.385,5.385,0,0,0-7.62,0,1.469,1.469,0,1,0,2.078,2.078,2.448,2.448,0,0,1,3.463,0A1.47,1.47,0,0,0,145.052,204.646Z" transform="translate(-123.579 -181.299)"/><path class="a" d="M297.052,202.567a5.385,5.385,0,0,0-7.62,0,1.469,1.469,0,0,0,2.078,2.078,2.448,2.448,0,0,1,3.463,0,1.469,1.469,0,0,0,2.078-2.078Z" transform="translate(-260.688 -181.298)"/><path class="a" d="M209.594,313.43a4.021,4.021,0,0,1-5.68,0,1.469,1.469,0,1,0-2.078,2.078,6.963,6.963,0,0,0,9.836,0,1.469,1.469,0,1,0-2.078-2.078Z" transform="translate(-181.673 -282.338)"/></g></svg> 