<svg xmlns="http://www.w3.org/2000/svg" width="52.802" height="49.236" viewBox="0 0 52.802 49.236"><defs><style>.a{fill:#2dbdca;}</style></defs><path class="a" d="M3.834.825A.825.825,0,0,0,3.009,0H.825a.825.825,0,1,0,0,1.65H3.009A.825.825,0,0,0,3.834.825Z" transform="translate(7.789 23.491)"/><path class="a" d="M20.075,12.826C11.981,4.7,3.822,9.406,7.5,17.139,8.48,19.188,9.23,20.8,9.721,22.155H6.627a1.939,1.939,0,0,1-1.9-1.975V2.465A2.42,2.42,0,0,0,2.366,0,2.42,2.42,0,0,0,0,2.465V20.311a6.91,6.91,0,0,0,1.489,4.307A6.971,6.971,0,0,0,0,28.925V46.77a2.42,2.42,0,0,0,2.366,2.465A2.42,2.42,0,0,0,4.731,46.77V29.055a1.939,1.939,0,0,1,1.9-1.975h3.456A9.561,9.561,0,0,1,8.432,29.8c-4.339,5.373-.565,15.994,8.885,12.109,9.628-3.959,10.75-21.062,2.759-29.081ZM1.65,2.465a.732.732,0,0,1,.715-.745.732.732,0,0,1,.715.745V20.18a3.627,3.627,0,0,0,3.546,3.7h3.6a6.857,6.857,0,0,1,.167,1.482c-4.265-.019-4.484.105-5.571-.31a5.049,5.049,0,0,1-3.17-4.736V2.465Zm1.431,26.59V46.77a.732.732,0,0,1-.715.745.732.732,0,0,1-.715-.745V28.925A5.125,5.125,0,0,1,2.691,25.8a6.391,6.391,0,0,0,1.319.768,3.769,3.769,0,0,0-.929,2.491Zm13.63,11.251C8.9,43.518,6.43,34.946,9.694,30.9a10.574,10.574,0,0,0,2.089-3.692c.651.245,1.6.942,1.792,2.929a.835.835,0,0,0,.905.767.852.852,0,0,0,.736-.944c-.287-2.9-1.9-4.1-3.176-4.469a9.45,9.45,0,0,0-.173-1.834c2.481-.828,3.046-3.479,2.973-4.9a.836.836,0,0,0-.864-.811.849.849,0,0,0-.784.9,4.568,4.568,0,0,1-.284,1.632,2.444,2.444,0,0,1-1.492,1.524,53.429,53.429,0,0,0-2.433-5.632c-2.958-6.212,3.5-8.777,9.948-2.309,7.215,7.24,6.158,22.8-2.22,26.241Z" transform="translate(27.419 0)"/><path class="a" d="M3.009,0H.825a.825.825,0,0,0,0,1.65H3.009a.825.825,0,1,0,0-1.65Z" transform="translate(41.178 23.491)"/><path class="a" d="M23.016,0A2.42,2.42,0,0,0,20.65,2.465V20.18a1.939,1.939,0,0,1-1.9,1.975c-.3,0,1.074,0-3.1,0,.491-1.356,1.241-2.969,2.218-5.02C21.56,9.4,13.4,4.7,5.306,12.826-2.7,20.863-1.537,37.958,8.066,41.906,17.513,45.791,21.29,35.171,16.95,29.8A9.56,9.56,0,0,1,15.3,27.08h3.456a1.939,1.939,0,0,1,1.9,1.975V46.77a2.368,2.368,0,1,0,4.731,0V28.925a6.91,6.91,0,0,0-1.489-4.307,6.971,6.971,0,0,0,1.489-4.307V2.465A2.42,2.42,0,0,0,23.016,0ZM22.3,20.18V2.465a.716.716,0,1,1,1.431,0V20.311a5.125,5.125,0,0,1-1.041,3.128,6.393,6.393,0,0,0-1.319-.768A3.768,3.768,0,0,0,22.3,20.18ZM8.671,40.306C.286,36.859-.759,21.3,6.451,14.065,12.894,7.6,19.359,10.158,16.4,16.374a53.453,53.453,0,0,0-2.434,5.632,2.444,2.444,0,0,1-1.492-1.524,4.569,4.569,0,0,1-.284-1.631.848.848,0,0,0-.78-.9.837.837,0,0,0-.868.813,6.234,6.234,0,0,0,.376,2.3,4.141,4.141,0,0,0,2.6,2.607A8.448,8.448,0,0,0,13.34,25.5c-1.277.37-2.889,1.57-3.176,4.469a.847.847,0,0,0,.822.948.839.839,0,0,0,.82-.772c.2-1.977,1.136-2.677,1.793-2.925A10.579,10.579,0,0,0,15.688,30.9c3.245,4.018.836,12.63-7.017,9.4Zm15.06,6.464a.716.716,0,1,1-1.431,0V29.055a3.627,3.627,0,0,0-3.546-3.7H14.99a6.846,6.846,0,0,1,.166-1.482h3.732a4.953,4.953,0,0,1,4.843,5.047V46.77Z" transform="translate(0 0)"/></svg>