<svg id="left-curve" xmlns="http://www.w3.org/2000/svg" width="43.153" height="158.919" viewBox="0 0 43.153 158.919">
  <path id="Path_544" data-name="Path 544" d="M79.751,43.15H0A48.4,48.4,0,0,0,10.769,40.9,52.777,52.777,0,0,0,32.017,28.08c2.209-2.228,4.248-4.454,6.222-6.606C48.17,10.633,56.761,1.261,79.168.03V0l.291.015L79.751,0V.03c22.408,1.231,31,10.6,40.93,21.441,1.972,2.152,4.013,4.378,6.222,6.606A52.764,52.764,0,0,0,148.15,40.9a48.4,48.4,0,0,0,10.769,2.253Zm-.583,0Z" transform="translate(0 158.919) rotate(-90)" fill="#fff"/>
</svg>
