<svg xmlns="http://www.w3.org/2000/svg" width="43.151" height="158.919" viewBox="0 0 43.151 158.919"><defs><style>.a{fill:#fff;}.b{fill:#2dbdca;}</style></defs><path class="a" d="M79.751,43.15H0A48.4,48.4,0,0,0,10.769,40.9a52.777,52.777,0,0,0,21.248-12.82c2.209-2.228,4.248-4.454,6.222-6.606C48.17,10.633,56.761,1.261,79.168.03V0l.291.015L79.751,0V.03c22.408,1.231,31,10.6,40.93,21.441,1.972,2.152,4.013,4.378,6.222,6.606A52.764,52.764,0,0,0,148.15,40.9a48.4,48.4,0,0,0,10.769,2.253Zm-.583,0h0Z" transform="translate(0 158.919) rotate(-90)"/><path class="b" d="M14.338,15.149l6.779-6.773A1.28,1.28,0,1,0,19.3,6.568l-7.68,7.675a1.278,1.278,0,0,0-.037,1.765L19.3,23.735a1.28,1.28,0,0,0,1.813-1.808Z" transform="translate(7.595 64.007)"/></svg>