<svg xmlns="http://www.w3.org/2000/svg" width="20" height="20" viewBox="0 0 20 20">
  <g id="iconfinder_lock_172497" transform="translate(-0.275)">
    <rect id="Rectangle_319" data-name="Rectangle 319" width="20" height="20" transform="translate(0.275)" fill="none"/>
    <path id="Path_3029" data-name="Path 3029" d="M16.811,31.543A.811.811,0,0,1,16,30.732V21.811A.811.811,0,0,1,16.811,21H28.165a.811.811,0,0,1,.811.811v8.921a.811.811,0,0,1-.811.811Z" transform="translate(-9.512 -12.484)" fill="none" stroke="#c1c1c1" stroke-linecap="round" stroke-miterlimit="10" stroke-width="1"/>
    <path id="Path_3030" data-name="Path 3030" d="M30.11,10.894V8.055a4.055,4.055,0,1,0-8.11,0v2.839" transform="translate(-13.079 -2.378)" fill="none" stroke="#c1c1c1" stroke-linecap="round" stroke-miterlimit="10" stroke-width="1"/>
    <path id="Path_3031" data-name="Path 3031" d="M31.433,30.217a1.217,1.217,0,1,0-2.028.9v1.126a.811.811,0,1,0,1.622,0V31.118A1.21,1.21,0,0,0,31.433,30.217Z" transform="translate(-17.24 -17.24)" fill="#c1c1c1"/>
  </g>
</svg>
