<svg id="mail" xmlns="http://www.w3.org/2000/svg" width="52.637" height="45.976" viewBox="0 0 52.637 45.976">
  <g id="Group_902" data-name="Group 902">
    <path id="Path_377" data-name="Path 377" d="M52.389,14.761,44.767,9.377V1.512A1.694,1.694,0,0,0,43.315,0H9.921A1.694,1.694,0,0,0,8.469,1.512v7.8L.544,14.761A1.331,1.331,0,0,0,0,15.729V44.464a1.754,1.754,0,0,0,1.512,1.512H51.724c.665,0,.907-.786.907-1.512V15.729C52.631,15.366,52.691,15,52.389,14.761Zm-7.622-2.48,5.2,3.569-5.2,3.932ZM10.889,2.42H42.347V21.657L26.618,33.514,10.889,21.657Zm-2.42,9.8v7.622l-5.2-3.993ZM2.42,18.33,19.359,31.155,2.42,42.589Zm2.9,25.227,16.1-10.829,4.3,3.267a1.451,1.451,0,0,0,.847.3c.242,0,.363-.121.6-.3l4.477-3.448,16.273,11.01Zm44.888-1.391L33.635,31.034l16.576-12.7Z" fill="#2dbdca"/>
    <path id="Path_378" data-name="Path 378" d="M1.21,2.42H6.654a1.21,1.21,0,1,0,0-2.42H1.21a1.21,1.21,0,0,0,0,2.42Z" transform="translate(15.729 7.864)" fill="#2dbdca"/>
    <path id="Path_379" data-name="Path 379" d="M1.21,2.42H20.568a1.21,1.21,0,0,0,0-2.42H1.21a1.21,1.21,0,0,0,0,2.42Z" transform="translate(15.729 13.309)" fill="#2dbdca"/>
    <path id="Path_380" data-name="Path 380" d="M21.778,1.21A1.21,1.21,0,0,0,20.568,0H1.21a1.21,1.21,0,0,0,0,2.42H20.568A1.21,1.21,0,0,0,21.778,1.21Z" transform="translate(15.729 18.754)" fill="#2dbdca"/>
  </g>
</svg>
