<svg xmlns="http://www.w3.org/2000/svg" width="23.488" height="23.489" viewBox="0 0 23.488 23.489">
  <g id="man-icon" transform="translate(-5.823 -10)">
    <g id="Group_14" data-name="Group 14" transform="translate(5.823 10)">
      <g id="Group_1" data-name="Group 1" transform="translate(8.808 9.787)">
        <path id="Path_1" data-name="Path 1" d="M193.468,213.333h-.979a.489.489,0,1,0,0,.979h.979a.49.49,0,0,0,0-.979Z" transform="translate(-192 -213.333)" fill="#2dbdca"/>
      </g>
      <g id="Group_2" data-name="Group 2" transform="translate(12.723 9.787)">
        <path id="Path_2" data-name="Path 2" d="M278.8,213.333h-.979a.489.489,0,1,0,0,.979h.979a.49.49,0,0,0,0-.979Z" transform="translate(-277.333 -213.333)" fill="#2dbdca"/>
      </g>
      <g id="Group_3" data-name="Group 3" transform="translate(15.873 5.988)">
        <path id="Path_3" data-name="Path 3" d="M348.724,132.376a6.882,6.882,0,0,0-.158-1.454.49.49,0,1,0-.957.207,5.89,5.89,0,0,1,.136,1.247,5.754,5.754,0,0,1-.154,1.256.48.48,0,0,0,.014.26,2.966,2.966,0,0,1,.14.931c0,.946-.354,1.46-.521,1.445a.489.489,0,0,0-.733.3,8.3,8.3,0,0,1-.448,1.325.491.491,0,1,0,.9.392,9.263,9.263,0,0,0,.372-1.015c.808-.047,1.411-1.082,1.411-2.446a4.045,4.045,0,0,0-.149-1.108,6.51,6.51,0,0,0,.147-1.34Z" transform="translate(-346.002 -130.535)" fill="#2dbdca"/>
      </g>
      <g id="Group_4" data-name="Group 4" transform="translate(4.893 5.989)">
        <path id="Path_4" data-name="Path 4" d="M109.307,137.8a8.363,8.363,0,0,1-.407-1.231.5.5,0,0,0-.306-.324.53.53,0,0,0-.458.05c-.122,0-.489-.521-.489-1.468a2.956,2.956,0,0,1,.14-.93.481.481,0,0,0,.014-.26,5.766,5.766,0,0,1-.154-1.257,5.836,5.836,0,0,1,.137-1.247.49.49,0,1,0-.957-.207,6.822,6.822,0,0,0-.159,1.454,6.5,6.5,0,0,0,.149,1.339,4.047,4.047,0,0,0-.149,1.108c0,1.363.6,2.4,1.411,2.446a9.29,9.29,0,0,0,.326.907.49.49,0,0,0,.451.3.5.5,0,0,0,.19-.038.49.49,0,0,0,.261-.642Z" transform="translate(-106.668 -130.54)" fill="#2dbdca"/>
      </g>
      <g id="Group_5" data-name="Group 5" transform="translate(6.592 11.255)">
        <path id="Path_5" data-name="Path 5" d="M153.739,247.219a.488.488,0,0,0-.328-.382l-4.4-1.468a.492.492,0,0,0-.309,0l-4.4,1.468a.491.491,0,0,0-.168.1l-.258.227a.489.489,0,0,0-.128.557c1.036,2.459,3,3.987,5.114,3.987,2.081,0,4.022-1.487,5.068-3.88A.49.49,0,0,0,153.739,247.219Z" transform="translate(-143.701 -245.344)" fill="#2dbdca"/>
      </g>
      <g id="Group_6" data-name="Group 6" transform="translate(11.744 16.347)">
        <path id="Path_6" data-name="Path 6" d="M263.472,357.243l-2.517-.876a.491.491,0,0,0-.522.131,6.033,6.033,0,0,1-4.433,2.09v4.893h11.255a.49.49,0,0,0,.489-.489,6.037,6.037,0,0,0-4.272-5.749Zm-1.111,3.3h-.489v.489a.49.49,0,0,1-.979,0v-.489H260.4a.49.49,0,0,1,0-.979h.489v-.489a.49.49,0,1,1,.979,0v.489h.489a.49.49,0,0,1,0,.979Z" transform="translate(-256 -356.34)" fill="#2dbdca"/>
      </g>
      <g id="Group_7" data-name="Group 7" transform="translate(0 16.349)">
        <path id="Path_7" data-name="Path 7" d="M7.311,356.531a.489.489,0,0,0-.522-.131l-2.517.876A6.033,6.033,0,0,0,0,363.023a.49.49,0,0,0,.489.489H10.765v-4.991a6.25,6.25,0,0,1-3.454-1.99Z" transform="translate(0 -356.372)" fill="#2dbdca"/>
      </g>
      <g id="Group_8" data-name="Group 8" transform="translate(8.808 2.936)">
        <path id="Path_8" data-name="Path 8" d="M194.936,64a2.936,2.936,0,1,0,2.936,2.936A2.936,2.936,0,0,0,194.936,64Zm0,4.893a1.957,1.957,0,1,1,1.957-1.957,1.957,1.957,0,0,1-1.957,1.957Z" transform="translate(-192 -64)" fill="#2dbdca"/>
      </g>
      <g id="Group_9" data-name="Group 9" transform="translate(10.765 4.893)">
        <circle id="Ellipse_1" data-name="Ellipse 1" cx="0.979" cy="0.979" r="0.979" transform="translate(0 0)" fill="#2dbdca"/>
      </g>
      <g id="Group_10" data-name="Group 10" transform="translate(8.808 2.936)">
        <path id="Path_9" data-name="Path 9" d="M194.936,64a2.922,2.922,0,0,0-2.189,4.873c.075,0,.146.006.222.007a.463.463,0,0,0,.5-.48s0-.006,0-.01h.172a1.958,1.958,0,1,1,2.594,0h.172v.01a.489.489,0,0,0,.489.48h.01l.222-.007a2.908,2.908,0,0,0,.748-1.937A2.94,2.94,0,0,0,194.936,64Z" transform="translate(-192 -64)" fill="#2dbdca"/>
      </g>
      <g id="Group_12" data-name="Group 12" transform="translate(4.893)">
        <g id="Group_11" data-name="Group 11">
          <path id="Path_10" data-name="Path 10" d="M120.361,6.28l-.57-3.418A3.415,3.415,0,0,0,116.412,0h-5.79a3.416,3.416,0,0,0-3.379,2.863l-.57,3.418a.49.49,0,0,0,.136.427,5.184,5.184,0,0,0,3.3,1.045,3.872,3.872,0,0,1-.5-1.881,3.915,3.915,0,1,1,7.829,0,3.855,3.855,0,0,1-.5,1.88,5.178,5.178,0,0,0,3.3-1.045.491.491,0,0,0,.123-.427Z" transform="translate(-106.666)" fill="#2dbdca"/>
        </g>
      </g>
      <g id="Group_13" data-name="Group 13" transform="translate(10.765 4.893)">
        <circle id="Ellipse_2" data-name="Ellipse 2" cx="0.979" cy="0.979" r="0.979" transform="translate(0 0)" fill="#2dbdca"/>
      </g>
    </g>
  </g>
</svg>
