<svg xmlns="http://www.w3.org/2000/svg" width="43" height="43" viewBox="0 0 43 43"><defs><style>.a,.b{fill:#2dbdca;}.a{opacity:0.13;}</style></defs><g transform="translate(4.177)"><rect class="a" width="43" height="43" rx="11" transform="translate(-4.177)"/><g transform="translate(5.823 10)"><g transform="translate(8.808 9.787)"><path class="b" d="M193.468,213.333h-.979a.489.489,0,0,0,0,.979h.979a.489.489,0,0,0,0-.979Z" transform="translate(-192 -213.333)"/></g><g transform="translate(12.723 9.787)"><path class="b" d="M278.8,213.333h-.979a.489.489,0,1,0,0,.979h.979a.489.489,0,1,0,0-.979Z" transform="translate(-277.333 -213.333)"/></g><g transform="translate(15.873 5.988)"><path class="b" d="M348.724,132.376a6.883,6.883,0,0,0-.158-1.454.49.49,0,1,0-.957.207,5.894,5.894,0,0,1,.136,1.247,5.753,5.753,0,0,1-.154,1.256.48.48,0,0,0,.014.26,2.966,2.966,0,0,1,.14.931c0,.946-.354,1.46-.521,1.445a.489.489,0,0,0-.733.3,8.3,8.3,0,0,1-.448,1.325.49.49,0,0,0,.9.392,9.259,9.259,0,0,0,.372-1.015c.808-.047,1.411-1.082,1.411-2.446a4.046,4.046,0,0,0-.149-1.108A6.507,6.507,0,0,0,348.724,132.376Z" transform="translate(-346.002 -130.535)"/></g><g transform="translate(4.893 5.989)"><path class="b" d="M109.307,137.8a8.365,8.365,0,0,1-.407-1.231.5.5,0,0,0-.306-.324.53.53,0,0,0-.458.05c-.122,0-.489-.521-.489-1.468a2.956,2.956,0,0,1,.14-.93.481.481,0,0,0,.014-.26,5.766,5.766,0,0,1-.154-1.257,5.835,5.835,0,0,1,.137-1.247.49.49,0,1,0-.957-.207,6.822,6.822,0,0,0-.159,1.454,6.5,6.5,0,0,0,.149,1.339,4.047,4.047,0,0,0-.149,1.108c0,1.363.6,2.4,1.411,2.446a9.293,9.293,0,0,0,.326.907.49.49,0,0,0,.451.3.5.5,0,0,0,.19-.038A.49.49,0,0,0,109.307,137.8Z" transform="translate(-106.668 -130.54)"/></g><g transform="translate(6.592 11.255)"><path class="b" d="M153.739,247.219a.488.488,0,0,0-.328-.382l-4.4-1.468a.492.492,0,0,0-.309,0l-4.4,1.468a.491.491,0,0,0-.168.1l-.258.227a.489.489,0,0,0-.128.557c1.036,2.459,3,3.987,5.114,3.987,2.081,0,4.022-1.487,5.068-3.88A.49.49,0,0,0,153.739,247.219Z" transform="translate(-143.701 -245.344)"/></g><g transform="translate(11.744 16.347)"><path class="b" d="M263.472,357.243l-2.517-.876a.491.491,0,0,0-.522.131,6.033,6.033,0,0,1-4.433,2.09v4.893h11.255a.49.49,0,0,0,.489-.489A6.037,6.037,0,0,0,263.472,357.243Zm-1.111,3.3h-.489v.489a.489.489,0,0,1-.979,0v-.489H260.4a.489.489,0,0,1,0-.979h.489v-.489a.489.489,0,1,1,.979,0v.489h.489a.489.489,0,1,1,0,.979Z" transform="translate(-256 -356.34)"/></g><g transform="translate(0 16.349)"><path class="b" d="M7.311,356.531a.489.489,0,0,0-.522-.131l-2.517.876A6.033,6.033,0,0,0,0,363.023a.49.49,0,0,0,.489.489H10.765v-4.991A6.25,6.25,0,0,1,7.311,356.531Z" transform="translate(0 -356.372)"/></g><g transform="translate(8.808 2.936)"><path class="b" d="M194.936,64a2.936,2.936,0,1,0,2.936,2.936A2.94,2.94,0,0,0,194.936,64Zm0,4.893a1.957,1.957,0,1,1,1.957-1.957A1.959,1.959,0,0,1,194.936,68.893Z" transform="translate(-192 -64)"/></g><g transform="translate(10.765 4.893)"><circle class="b" cx="0.979" cy="0.979" r="0.979"/></g><g transform="translate(8.808 2.936)"><path class="b" d="M194.936,64a2.922,2.922,0,0,0-2.189,4.873c.075,0,.146.006.222.007a.463.463,0,0,0,.5-.48s0-.006,0-.01h.172a1.958,1.958,0,1,1,2.594,0h.172s0,.006,0,.01a.489.489,0,0,0,.489.48h.01l.222-.007a2.908,2.908,0,0,0,.748-1.937A2.94,2.94,0,0,0,194.936,64Z" transform="translate(-192 -64)"/></g><g transform="translate(4.893)"><g transform="translate(0)"><path class="b" d="M120.361,6.28l-.57-3.418A3.415,3.415,0,0,0,116.412,0h-5.79a3.416,3.416,0,0,0-3.379,2.863l-.57,3.418a.49.49,0,0,0,.136.427,5.184,5.184,0,0,0,3.3,1.045,3.872,3.872,0,0,1-.5-1.881,3.915,3.915,0,1,1,7.829,0,3.855,3.855,0,0,1-.5,1.88,5.178,5.178,0,0,0,3.3-1.045A.491.491,0,0,0,120.361,6.28Z" transform="translate(-106.666)"/></g></g><g transform="translate(10.765 4.893)"><circle class="b" cx="0.979" cy="0.979" r="0.979"/></g></g></g></svg>