<svg id="Page-1" xmlns="http://www.w3.org/2000/svg" width="28.807" height="18.004" viewBox="0 0 28.807 18.004">
  <g id="Master" transform="translate(0 0)">
    <path id="Rectangle-1" d="M27.647,0H2.44A1.549,1.549,0,0,0,1,1.44v14.4A1.91,1.91,0,0,0,3.161,18H27.647a1.91,1.91,0,0,0,2.161-2.161V2.161A1.91,1.91,0,0,0,27.647,0Zm0,0" transform="translate(-1 0)" fill="#265697" fill-rule="evenodd"/>
    <path id="path2268" d="M82.282,15.991a7.495,7.495,0,1,1-14.989,0v0a7.495,7.495,0,1,1,14.989,0v0Zm0,0" transform="translate(-55.357 -6.899)" fill="#dfac16" fill-rule="evenodd"/>
    <path id="path1350" d="M18.9,8.425a7.576,7.576,0,0,0,.048,15.151A7.423,7.423,0,0,0,23.992,21.6h0a7.611,7.611,0,0,0,.761-.811H23.219a7.4,7.4,0,0,1-.559-.78h2.648a7.615,7.615,0,0,0,.436-.811H22.223a7.518,7.518,0,0,1-.313-.8h4.148a7.688,7.688,0,0,0,.213-4.025H21.689a7.621,7.621,0,0,1,.214-.8h4.15a7.625,7.625,0,0,0-.323-.811H22.222a7.293,7.293,0,0,1,.43-.8H25.3a7.592,7.592,0,0,0-.582-.811H23.241a7,7,0,0,1,.752-.765,7.424,7.424,0,0,0-5.044-1.974Zm0,0" transform="translate(-9.572 -6.908)" fill="#bf3126" fill-rule="evenodd"/>
    <path id="path4157" d="M62.43,45.043l.1-.686c-.055,0-.135.024-.206.024-.278,0-.308-.149-.291-.26l.224-1.4h.422l.1-.758h-.4l.081-.472h-.8c-.018.018-.471,2.652-.471,2.973a.6.6,0,0,0,.636.683,2.079,2.079,0,0,0,.6-.106Zm0,0" transform="translate(-50.358 -34.022)" fill="#fff" fill-rule="evenodd"/>
    <path id="path4155" d="M69.454,45.474a1.259,1.259,0,0,0,1.378,1.411,2.012,2.012,0,0,0,.843-.132l.141-.778a2.463,2.463,0,0,1-.847.2c-.857,0-.707-.646-.707-.646h1.622a5.86,5.86,0,0,0,.1-.736,1.077,1.077,0,0,0-1.138-1.179c-.8,0-1.4.874-1.4,1.862Zm1.4-1.139c.45,0,.367.512.367.553h-.886c0-.053.084-.553.519-.553Zm0,0" transform="translate(-57.129 -35.76)" fill="#fff" fill-rule="evenodd"/>
    <path id="path4151" d="M95.572,43.519l.143-.879a1.905,1.905,0,0,1-.66.2c-.566,0-.793-.437-.793-.906,0-.952.487-1.476,1.029-1.476a1.411,1.411,0,0,1,.733.231l.13-.854a2.841,2.841,0,0,0-.9-.2c-.921,0-1.817.808-1.817,2.325,0,1.006.484,1.67,1.436,1.67a3.644,3.644,0,0,0,.7-.11Zm0,0" transform="translate(-76.795 -32.498)" fill="#fff" fill-rule="evenodd"/>
    <path id="path4149" d="M36.919,43.682a2.731,2.731,0,0,0-.967.178l-.116.695a2.5,2.5,0,0,1,.87-.142c.3,0,.515.034.515.278a.52.52,0,0,1-.027.2s-.234-.02-.343-.02c-.69,0-1.415.3-1.415,1.2a.762.762,0,0,0,.77.869,1.035,1.035,0,0,0,.819-.37L37,46.876h.7l.313-2.221a.946.946,0,0,0-1.1-.973Zm.171,1.809c.015.136-.084.772-.565.772a.292.292,0,0,1-.312-.3c0-.221.119-.486.7-.486a.5.5,0,0,1,.173.019Zm0,0" transform="translate(-29.236 -35.818)" fill="#fff" fill-rule="evenodd"/>
    <path id="path4145" d="M49.829,46.945c.18,0,1.207.046,1.207-1.026,0-1-.951-.8-.951-1.207,0-.2.155-.263.438-.263.112,0,.545.036.545.036l.1-.712a3.685,3.685,0,0,0-.736-.063c-.59,0-1.19.238-1.19,1.053,0,.923,1,.831,1,1.22,0,.26-.279.281-.494.281a2.581,2.581,0,0,1-.709-.123l-.106.7a2.508,2.508,0,0,0,.9.1Zm0,0" transform="translate(-40.304 -35.84)" fill="#fff" fill-rule="evenodd"/>
    <path id="path4139" d="M131.606,40.127l-.172,1.08a1.053,1.053,0,0,0-.771-.419c-.731,0-1.34.891-1.34,1.915,0,.661.325,1.308.99,1.308a.994.994,0,0,0,.743-.337l-.035.288h.776l.61-3.836Zm-.371,2.1c0,.426-.209,1-.641,1-.287,0-.422-.244-.422-.626,0-.625.278-1.038.628-1.038.287,0,.435.2.435.669Zm0,0" transform="translate(-106.219 -32.901)" fill="#fff" fill-rule="evenodd"/>
    <path id="path4133" d="M16.171,43.957l.486-2.9.071,2.9h.55l1.026-2.9-.454,2.9h.817l.629-3.841H18.032l-.787,2.357L17.2,40.116H16.04L15.4,43.957Zm0,0" transform="translate(-12.809 -32.893)" fill="#fff" fill-rule="evenodd"/>
    <path id="path4131" d="M84.23,47.056c.232-1.335.275-2.419.83-2.221a3.126,3.126,0,0,1,.3-.935.833.833,0,0,0-.154-.011c-.357,0-.622.493-.622.493l.071-.453h-.743l-.5,3.126Zm0,0" transform="translate(-68.573 -35.987)" fill="#fff" fill-rule="evenodd"/>
    <path id="path4149_1_" d="M108.765,43.682a2.73,2.73,0,0,0-.967.178l-.116.695a2.5,2.5,0,0,1,.87-.142c.3,0,.514.034.514.278a.524.524,0,0,1-.026.2s-.234-.02-.343-.02c-.69,0-1.415.3-1.415,1.2a.762.762,0,0,0,.77.869,1.035,1.035,0,0,0,.819-.37l-.026.308h.7l.313-2.221a.946.946,0,0,0-1.1-.973Zm.171,1.809c.015.136-.084.772-.565.772a.292.292,0,0,1-.312-.3c0-.221.119-.486.7-.486a.505.505,0,0,1,.174.019Zm0,0" transform="translate(-88.147 -35.818)" fill="#fff" fill-rule="evenodd"/>
    <path id="path4131_1_" d="M121.44,47.056c.232-1.335.275-2.419.829-2.221a3.133,3.133,0,0,1,.3-.935.833.833,0,0,0-.154-.011c-.357,0-.622.493-.622.493l.071-.453h-.743l-.5,3.126Zm0,0" transform="translate(-99.084 -35.987)" fill="#fff" fill-rule="evenodd"/>
  </g>
</svg>
