<svg xmlns="http://www.w3.org/2000/svg" width="33.905" height="21.191" viewBox="0 0 33.905 21.191"><defs><style>.a{fill:#265697;}.a,.b,.c,.d{fill-rule:evenodd;}.b{fill:#dfac16;}.c{fill:#bf3126;}.d{fill:#fff;}</style></defs><g transform="translate(0 0)"><g transform="translate(0 0)"><path class="a" d="M32.363,0H2.7A1.823,1.823,0,0,0,1,1.7V18.648a2.248,2.248,0,0,0,2.543,2.543h28.82a2.248,2.248,0,0,0,2.543-2.543V2.543A2.248,2.248,0,0,0,32.363,0Zm0,0" transform="translate(-1 0)"/><path class="b" d="M84.935,17.333a8.821,8.821,0,1,1-17.642,0v0a8.821,8.821,0,1,1,17.642,0v0Zm0,0" transform="translate(-53.245 -6.631)"/><path class="c" d="M20.218,8.425a8.917,8.917,0,0,0,.057,17.832,8.736,8.736,0,0,0,5.936-2.323h0a8.959,8.959,0,0,0,.9-.955H25.3a8.705,8.705,0,0,1-.658-.918H27.76a8.962,8.962,0,0,0,.513-.955H24.128a8.849,8.849,0,0,1-.369-.937h4.883a9.048,9.048,0,0,0,.251-4.737H23.5a8.97,8.97,0,0,1,.252-.937h4.884a8.975,8.975,0,0,0-.38-.955H24.128a8.584,8.584,0,0,1,.506-.937h3.115a8.936,8.936,0,0,0-.685-.955H25.327a8.234,8.234,0,0,1,.885-.9,8.738,8.738,0,0,0-5.937-2.323Zm0,0" transform="translate(-9.239 -6.639)"/><path class="d" d="M62.648,45.671l.118-.807c-.064,0-.159.028-.242.028-.327,0-.363-.176-.342-.306l.264-1.646h.5l.12-.893h-.468l.1-.555H61.75c-.021.021-.554,3.122-.554,3.5a.7.7,0,0,0,.748.8,2.447,2.447,0,0,0,.7-.124Zm0,0" transform="translate(-48.44 -32.7)"/><path class="d" d="M69.454,45.8a1.481,1.481,0,0,0,1.622,1.66,2.368,2.368,0,0,0,.992-.156l.165-.916a2.9,2.9,0,0,1-1,.233c-1.008,0-.832-.76-.832-.76h1.909A6.9,6.9,0,0,0,72.436,45,1.267,1.267,0,0,0,71.1,43.613c-.944,0-1.643,1.029-1.643,2.191ZM71.1,44.463c.53,0,.432.6.432.651H70.49c0-.062.1-.651.61-.651Zm0,0" transform="translate(-54.948 -34.371)"/><path class="d" d="M95.95,44.206l.168-1.035a2.242,2.242,0,0,1-.777.234c-.666,0-.934-.514-.934-1.067,0-1.121.573-1.737,1.211-1.737a1.661,1.661,0,0,1,.863.272l.153-1.006a3.343,3.343,0,0,0-1.058-.233c-1.084,0-2.139.951-2.139,2.736,0,1.184.57,1.966,1.69,1.966a4.289,4.289,0,0,0,.822-.13Zm0,0" transform="translate(-73.849 -31.235)"/><path class="d" d="M37.182,43.682a3.214,3.214,0,0,0-1.138.209l-.136.818a2.937,2.937,0,0,1,1.023-.167c.35,0,.606.04.606.327a.613.613,0,0,1-.031.239s-.276-.023-.4-.023c-.812,0-1.666.35-1.666,1.407a.9.9,0,0,0,.907,1.023,1.218,1.218,0,0,0,.963-.436l-.031.363H38.1l.369-2.614a1.114,1.114,0,0,0-1.29-1.145Zm.2,2.129c.018.16-.1.908-.665.908a.344.344,0,0,1-.368-.358c0-.26.14-.572.828-.572a.592.592,0,0,1,.2.022Zm0,0" transform="translate(-28.139 -34.426)"/><path class="d" d="M49.988,47.517c.212,0,1.421.054,1.421-1.207,0-1.179-1.119-.946-1.119-1.42,0-.236.182-.31.516-.31.132,0,.642.043.642.043l.118-.838a4.337,4.337,0,0,0-.867-.075c-.695,0-1.4.28-1.4,1.24,0,1.087,1.176.978,1.176,1.436,0,.306-.329.33-.582.33a3.038,3.038,0,0,1-.834-.145l-.125.83a2.951,2.951,0,0,0,1.054.117Zm0,0" transform="translate(-38.776 -34.447)"/><path class="d" d="M132.01,40.127l-.2,1.271a1.239,1.239,0,0,0-.907-.494c-.861,0-1.578,1.049-1.578,2.254,0,.778.382,1.54,1.165,1.54a1.17,1.17,0,0,0,.874-.4l-.041.339h.914l.718-4.514-.942,0Zm-.436,2.477c0,.5-.246,1.171-.755,1.171-.338,0-.5-.287-.5-.737,0-.736.327-1.222.74-1.222.338,0,.512.235.512.787Zm0,0" transform="translate(-102.13 -31.623)"/><path class="d" d="M16.308,44.636l.572-3.408.084,3.408h.647l1.207-3.408-.535,3.408h.961l.74-4.521H18.5l-.926,2.774-.048-2.774H16.153L15.4,44.636Zm0,0" transform="translate(-12.35 -31.615)"/><path class="d" d="M84.375,47.617c.273-1.571.324-2.847.976-2.614a3.679,3.679,0,0,1,.349-1.1.98.98,0,0,0-.181-.012c-.421,0-.732.581-.732.581l.084-.533H84l-.586,3.68Zm0,0" transform="translate(-65.947 -34.589)"/><path class="d" d="M109.027,43.682a3.213,3.213,0,0,0-1.138.209l-.136.818a2.937,2.937,0,0,1,1.024-.167c.35,0,.605.04.605.327a.616.616,0,0,1-.031.239s-.276-.023-.4-.023c-.812,0-1.665.35-1.665,1.407a.9.9,0,0,0,.907,1.023,1.218,1.218,0,0,0,.964-.436l-.031.363h.827l.369-2.614a1.114,1.114,0,0,0-1.29-1.145Zm.2,2.129c.018.16-.1.908-.665.908a.344.344,0,0,1-.367-.358c0-.26.14-.572.828-.572a.594.594,0,0,1,.2.022Zm0,0" transform="translate(-84.76 -34.426)"/><path class="d" d="M121.585,47.617c.273-1.571.324-2.847.976-2.614a3.686,3.686,0,0,1,.349-1.1.98.98,0,0,0-.181-.012c-.421,0-.732.581-.732.581l.084-.533h-.874l-.586,3.68Zm0,0" transform="translate(-95.272 -34.589)"/></g></g></svg>