<svg xmlns="http://www.w3.org/2000/svg" width="19.023" height="14.761" viewBox="0 0 19.023 14.761"><defs><style>.a{fill:#ff5f00;}.b{fill:#eb001b;}.c{fill:#f79e1b;}</style></defs><g transform="translate(0 0)"><path d="M15.45,170.783v-.98a.575.575,0,0,0-.62-.62.644.644,0,0,0-.555.278.571.571,0,0,0-.523-.278.527.527,0,0,0-.457.229v-.2h-.343v1.568h.343v-.865c0-.278.147-.408.376-.408s.343.147.343.408v.865h.343v-.865a.361.361,0,0,1,.376-.408c.229,0,.343.147.343.408v.865Zm5.078-1.568h-.555v-.474h-.343v.474h-.31v.31h.31v.718c0,.359.147.571.539.571a.914.914,0,0,0,.425-.114l-.1-.294a.537.537,0,0,1-.294.082c-.163,0-.229-.1-.229-.261v-.7h.555v-.31Zm2.907-.033a.46.46,0,0,0-.408.229v-.2h-.343v1.568h.343V169.9c0-.261.114-.408.327-.408a.953.953,0,0,1,.212.033l.1-.327a1.081,1.081,0,0,0-.229-.016Zm-4.392.163a1.121,1.121,0,0,0-.637-.163c-.392,0-.653.2-.653.506,0,.261.2.408.539.457l.163.016c.18.033.278.082.278.163,0,.114-.131.2-.359.2a.9.9,0,0,1-.523-.163l-.163.261a1.155,1.155,0,0,0,.669.2c.457,0,.718-.212.718-.506,0-.278-.212-.425-.539-.474l-.163-.016c-.147-.016-.261-.049-.261-.147,0-.114.114-.18.294-.18a1.177,1.177,0,0,1,.49.131l.147-.278Zm9.112-.163a.46.46,0,0,0-.408.229v-.2H27.4v1.568h.343V169.9c0-.261.114-.408.327-.408a.953.953,0,0,1,.212.033l.1-.327a1.081,1.081,0,0,0-.229-.016ZM23.778,170a.784.784,0,0,0,.833.816.812.812,0,0,0,.555-.18L25,170.359a.66.66,0,0,1-.408.147.464.464,0,0,1-.474-.506.482.482,0,0,1,.474-.506.659.659,0,0,1,.408.147l.163-.278a.812.812,0,0,0-.555-.18.784.784,0,0,0-.833.816Zm3.168,0v-.784H26.6v.2a.59.59,0,0,0-.49-.229.817.817,0,0,0,0,1.633.55.55,0,0,0,.49-.229v.2h.343Zm-1.257,0a.475.475,0,1,1,.947,0,.475.475,0,1,1-.947,0Zm-4.1-.816a.817.817,0,0,0,.016,1.633,1,1,0,0,0,.637-.212l-.163-.245a.78.78,0,0,1-.457.163.441.441,0,0,1-.474-.376h1.159v-.131a.721.721,0,0,0-.718-.833Zm0,.294a.382.382,0,0,1,.392.376h-.816a.414.414,0,0,1,.425-.376ZM30.1,170v-1.4h-.343v.816a.59.59,0,0,0-.49-.229.817.817,0,0,0,0,1.633.55.55,0,0,0,.49-.229v.2H30.1Zm-1.257,0a.475.475,0,1,1,.947,0,.475.475,0,1,1-.947,0Zm-11.463,0v-.784h-.343v.2a.59.59,0,0,0-.49-.229.817.817,0,0,0,0,1.633.55.55,0,0,0,.49-.229v.2h.343ZM16.1,170a.475.475,0,1,1,.947,0,.475.475,0,1,1-.947,0Z" transform="translate(-11.989 -156.054)"/><rect class="a" width="5.144" height="9.242" transform="translate(6.94 1.257)"/><path class="b" d="M7.266,5.878A5.894,5.894,0,0,1,9.5,1.257a5.876,5.876,0,1,0-3.625,10.5A5.842,5.842,0,0,0,9.5,10.5,5.87,5.87,0,0,1,7.266,5.878Z" transform="translate(0 0)"/><path class="c" d="M137.486,5.878a5.872,5.872,0,0,1-9.5,4.621,5.891,5.891,0,0,0,0-9.242,5.872,5.872,0,0,1,9.5,4.621Z" transform="translate(-118.463 0)"/></g></svg>