<svg xmlns="http://www.w3.org/2000/svg" width="32.328" height="49.407" viewBox="0 0 32.328 49.407"><defs><style>.a{fill:#2dbdca;}</style></defs><path class="a" d="M28.736,10.36H26.042V6.375h.9a.852.852,0,0,0,.9-.8V2.391A2.559,2.559,0,0,0,25.144,0H7.184A2.559,2.559,0,0,0,4.49,2.391V5.578a.852.852,0,0,0,.9.8h.9V10.36H3.592A3.412,3.412,0,0,0,0,13.547V46.22a3.412,3.412,0,0,0,3.592,3.188H28.736a3.412,3.412,0,0,0,3.592-3.188V13.547a3.412,3.412,0,0,0-3.592-3.188ZM6.286,2.391a.853.853,0,0,1,.9-.8h.9v.8a.852.852,0,0,0,.9.8.852.852,0,0,0,.9-.8v-.8h1.8v.8a.9.9,0,0,0,1.8,0v-.8h1.8v.8a.9.9,0,0,0,1.8,0v-.8h1.8v.8a.9.9,0,0,0,1.8,0v-.8h1.8v.8a.9.9,0,0,0,1.8,0v-.8h.9a.853.853,0,0,1,.9.8V4.781H6.286ZM30.532,46.22a1.706,1.706,0,0,1-1.8,1.594H3.592A1.706,1.706,0,0,1,1.8,46.22V38.251H30.532Zm0-9.563H1.8V20.719H30.532Zm0-17.532H1.8V13.547a1.706,1.706,0,0,1,1.8-1.594H7.184a.852.852,0,0,0,.9-.8V6.375H24.246v4.781a.852.852,0,0,0,.9.8h3.592a1.706,1.706,0,0,1,1.8,1.594Z" transform="translate(0 0)"/><path class="a" d="M4.49,14.731a4.763,4.763,0,0,0,3.175-1.167L15.285,6.8a3.676,3.676,0,0,0,0-5.635,4.9,4.9,0,0,0-6.35,0L1.315,7.929a3.664,3.664,0,0,0-.973,4.342,4.529,4.529,0,0,0,4.148,2.46ZM10.2,2.294a2.941,2.941,0,0,1,3.81,0,2.205,2.205,0,0,1,0,3.381L10.84,8.492,7.03,5.111ZM2.585,9.056,5.76,6.238,9.57,9.619,6.395,12.437a2.941,2.941,0,0,1-3.81,0,2.205,2.205,0,0,1,0-3.381Z" transform="translate(7.864 21.323)"/><path class="a" d="M8.98,0H.9A.852.852,0,0,0,0,.8a.852.852,0,0,0,.9.8H8.98a.852.852,0,0,0,.9-.8A.852.852,0,0,0,8.98,0Z" transform="translate(15.266 44.626)"/><path class="a" d="M1.8,0H.9A.852.852,0,0,0,0,.8a.852.852,0,0,0,.9.8h.9a.852.852,0,0,0,.9-.8A.852.852,0,0,0,1.8,0Z" transform="translate(26.042 44.626)"/></svg>