<svg xmlns="http://www.w3.org/2000/svg" width="17.951" height="17.951" viewBox="0 0 17.951 17.951">
  <path id="Icon_feather-message-circle" data-name="Icon feather-message-circle" d="M21.451,12.5a7.892,7.892,0,0,1-.848,3.579,8,8,0,0,1-7.157,4.426,7.892,7.892,0,0,1-3.579-.848L4.5,21.451l1.789-5.368A7.892,7.892,0,0,1,5.442,12.5,8,8,0,0,1,9.868,5.348,7.892,7.892,0,0,1,13.446,4.5h.471a7.986,7.986,0,0,1,7.534,7.534Z" transform="translate(-4 -4)" fill="none" stroke="#2dbdca" stroke-linecap="round" stroke-linejoin="round" stroke-width="1"/>
</svg>
