<svg xmlns="http://www.w3.org/2000/svg" width="43" height="43" viewBox="0 0 43 43"><defs><style>.a,.b{fill:#2dbdca;}.a{opacity:0.13;}</style></defs><g transform="translate(3.882)"><rect class="a" width="43" height="43" rx="11" transform="translate(-3.882)"/><path class="b" d="M21.946,6.989H19.952v8.975H6.989v1.994a1,1,0,0,0,1,1H18.955l3.989,3.989V7.986A1,1,0,0,0,21.946,6.989Zm-3.989,5.983V4a1,1,0,0,0-1-1H4A1,1,0,0,0,3,4v13.96l3.989-3.989H16.96A1,1,0,0,0,17.958,12.972Z" transform="translate(4.646 8.528)"/></g></svg>