<svg xmlns="http://www.w3.org/2000/svg" width="9.769" height="14.98" viewBox="0 0 9.769 14.98"><defs><style>.a{fill:#444;}</style></defs><g transform="translate(0 0)"><g transform="translate(1.954 0)"><g transform="translate(0)"><path class="a" d="M114.931,0A2.994,2.994,0,0,0,112,3.047V7.49a2.933,2.933,0,1,0,5.862,0V3.047A2.994,2.994,0,0,0,114.931,0Zm0,9.886a2.323,2.323,0,0,1-2.256-2.07h4.512A2.322,2.322,0,0,1,114.931,9.886Zm2.28-2.721h-4.559V3.047a2.282,2.282,0,1,1,4.559,0Z" transform="translate(-112)"/></g></g><g transform="translate(0 5.862)"><g transform="translate(0)"><path class="a" d="M73.444,144a.326.326,0,0,0-.326.326v1.3a4.233,4.233,0,0,1-8.467,0v-1.3a.326.326,0,0,0-.651,0v1.3a4.887,4.887,0,0,0,4.559,4.868v1.97H66.931a.326.326,0,1,0,0,.651h3.908a.326.326,0,1,0,0-.651H69.21V150.5a4.887,4.887,0,0,0,4.559-4.868v-1.3A.326.326,0,0,0,73.444,144Z" transform="translate(-64 -144)"/></g></g></g></svg>