<svg xmlns="http://www.w3.org/2000/svg" width="428" height="67.747" viewBox="0 0 428 67.747">
  <g id="Group_15806" data-name="Group 15806" transform="translate(0 67.747) rotate(-90)">
    <rect id="Rectangle_17602" data-name="Rectangle 17602" width="67.747" height="428" transform="translate(0)" fill="#dceef0"/>
    <path id="Path_2253" data-name="Path 2253" d="M0,0H0V22.78A46.567,46.567,0,0,1,25.555,64.417,46.566,46.566,0,0,1,0,106.05v22.783c1.779-.584,3.539-1.244,5.235-1.962a67.866,67.866,0,0,0,11.513-6.25,68.337,68.337,0,0,0,10.032-8.277,67.992,67.992,0,0,0,8.277-10.032A67.833,67.833,0,0,0,41.3,90.8a67.269,67.269,0,0,0,3.95-12.722,68.3,68.3,0,0,0,1.378-13.66,68.311,68.311,0,0,0-1.378-13.662A67.39,67.39,0,0,0,41.3,38.029a67.92,67.92,0,0,0-6.248-11.512,68.415,68.415,0,0,0-8.277-10.032A68.638,68.638,0,0,0,16.747,8.208,67.982,67.982,0,0,0,5.235,1.96C3.53,1.238,1.77.579,0,0Z" transform="translate(0 274.713)" fill="#ff8927"/>
    <g id="Group_12030" data-name="Group 12030" transform="translate(0.001 26.789)">
      <path id="Path_2243" data-name="Path 2243" d="M3.4,1.435A1.585,1.585,0,0,0,1.7,0,1.584,1.584,0,0,0,0,1.435,1.584,1.584,0,0,0,1.7,2.869,1.585,1.585,0,0,0,3.4,1.435Z" transform="translate(0 48.333)" fill="#34394d"/>
      <path id="Path_2244" data-name="Path 2244" d="M3.4,1.435A1.584,1.584,0,0,0,1.7,0,1.585,1.585,0,0,0,0,1.435,1.585,1.585,0,0,0,1.7,2.869,1.584,1.584,0,0,0,3.4,1.435Z" transform="translate(14.646 48.333)" fill="#34394d"/>
      <path id="Path_2246" data-name="Path 2246" d="M3.4,1.435A1.585,1.585,0,0,0,1.7,0,1.584,1.584,0,0,0,0,1.435,1.584,1.584,0,0,0,1.7,2.869,1.585,1.585,0,0,0,3.4,1.435Z" transform="translate(0 35.971)" fill="#34394d"/>
      <path id="Path_2247" data-name="Path 2247" d="M3.4,1.435A1.584,1.584,0,0,0,1.7,0,1.585,1.585,0,0,0,0,1.435,1.585,1.585,0,0,0,1.7,2.869,1.584,1.584,0,0,0,3.4,1.435Z" transform="translate(14.646 35.971)" fill="#34394d"/>
      <path id="Path_2249" data-name="Path 2249" d="M3.4,1.435A1.585,1.585,0,0,0,1.7,0,1.584,1.584,0,0,0,0,1.435,1.584,1.584,0,0,0,1.7,2.87,1.585,1.585,0,0,0,3.4,1.435Z" transform="translate(0 23.608)" fill="#34394d"/>
      <path id="Path_2250" data-name="Path 2250" d="M3.4,1.435A1.584,1.584,0,0,0,1.7,0,1.585,1.585,0,0,0,0,1.435,1.585,1.585,0,0,0,1.7,2.87,1.584,1.584,0,0,0,3.4,1.435Z" transform="translate(14.646 23.608)" fill="#34394d"/>
      <path id="Path_2243-2" data-name="Path 2243" d="M3.4,1.435A1.585,1.585,0,0,0,1.7,0,1.584,1.584,0,0,0,0,1.435,1.584,1.584,0,0,0,1.7,2.869,1.585,1.585,0,0,0,3.4,1.435Z" transform="translate(0 12.362)" fill="#34394d"/>
      <path id="Path_2244-2" data-name="Path 2244" d="M3.4,1.435A1.584,1.584,0,0,0,1.7,0,1.585,1.585,0,0,0,0,1.435,1.585,1.585,0,0,0,1.7,2.869,1.584,1.584,0,0,0,3.4,1.435Z" transform="translate(14.646 12.362)" fill="#34394d"/>
      <path id="Path_2246-2" data-name="Path 2246" d="M3.4,1.435A1.585,1.585,0,0,0,1.7,0,1.584,1.584,0,0,0,0,1.435,1.584,1.584,0,0,0,1.7,2.869,1.585,1.585,0,0,0,3.4,1.435Z" transform="translate(0 0)" fill="#34394d"/>
      <path id="Path_2247-2" data-name="Path 2247" d="M3.4,1.435A1.584,1.584,0,0,0,1.7,0,1.585,1.585,0,0,0,0,1.435,1.585,1.585,0,0,0,1.7,2.869,1.584,1.584,0,0,0,3.4,1.435Z" transform="translate(14.646 0)" fill="#34394d"/>
      <path id="Path_2242" data-name="Path 2242" d="M3.4,1.435A1.584,1.584,0,0,0,1.7,0,1.584,1.584,0,0,0,0,1.435,1.584,1.584,0,0,0,1.7,2.869,1.584,1.584,0,0,0,3.4,1.435Z" transform="translate(28.585 48.333)" fill="#34394d"/>
      <path id="Path_2243-3" data-name="Path 2243" d="M3.4,1.435A1.585,1.585,0,0,0,1.7,0,1.584,1.584,0,0,0,0,1.435,1.584,1.584,0,0,0,1.7,2.869,1.585,1.585,0,0,0,3.4,1.435Z" transform="translate(43.231 48.333)" fill="#34394d"/>
      <path id="Path_2245" data-name="Path 2245" d="M3.4,1.435A1.584,1.584,0,0,0,1.7,0,1.584,1.584,0,0,0,0,1.435,1.584,1.584,0,0,0,1.7,2.869,1.584,1.584,0,0,0,3.4,1.435Z" transform="translate(28.585 35.971)" fill="#34394d"/>
      <path id="Path_2246-3" data-name="Path 2246" d="M3.4,1.435A1.585,1.585,0,0,0,1.7,0,1.584,1.584,0,0,0,0,1.435,1.584,1.584,0,0,0,1.7,2.869,1.585,1.585,0,0,0,3.4,1.435Z" transform="translate(43.231 35.971)" fill="#34394d"/>
      <path id="Path_2248" data-name="Path 2248" d="M3.4,1.435A1.584,1.584,0,0,0,1.7,0,1.584,1.584,0,0,0,0,1.435,1.584,1.584,0,0,0,1.7,2.87,1.584,1.584,0,0,0,3.4,1.435Z" transform="translate(28.585 23.608)" fill="#34394d"/>
      <path id="Path_2249-2" data-name="Path 2249" d="M3.4,1.435A1.585,1.585,0,0,0,1.7,0,1.584,1.584,0,0,0,0,1.435,1.584,1.584,0,0,0,1.7,2.87,1.585,1.585,0,0,0,3.4,1.435Z" transform="translate(43.231 23.608)" fill="#34394d"/>
      <path id="Path_2242-2" data-name="Path 2242" d="M3.4,1.435A1.584,1.584,0,0,0,1.7,0,1.584,1.584,0,0,0,0,1.435,1.584,1.584,0,0,0,1.7,2.869,1.584,1.584,0,0,0,3.4,1.435Z" transform="translate(28.585 12.362)" fill="#34394d"/>
      <path id="Path_2243-4" data-name="Path 2243" d="M3.4,1.435A1.585,1.585,0,0,0,1.7,0,1.584,1.584,0,0,0,0,1.435,1.584,1.584,0,0,0,1.7,2.869,1.585,1.585,0,0,0,3.4,1.435Z" transform="translate(43.231 12.362)" fill="#34394d"/>
      <path id="Path_2245-2" data-name="Path 2245" d="M3.4,1.435A1.584,1.584,0,0,0,1.7,0,1.584,1.584,0,0,0,0,1.435,1.584,1.584,0,0,0,1.7,2.869,1.584,1.584,0,0,0,3.4,1.435Z" transform="translate(28.585 0)" fill="#34394d"/>
      <path id="Path_2246-4" data-name="Path 2246" d="M3.4,1.435A1.585,1.585,0,0,0,1.7,0,1.584,1.584,0,0,0,0,1.435,1.584,1.584,0,0,0,1.7,2.869,1.585,1.585,0,0,0,3.4,1.435Z" transform="translate(43.231 0)" fill="#34394d"/>
    </g>
  </g>
</svg>
