<svg xmlns="http://www.w3.org/2000/svg" width="84.203" height="84.203" viewBox="0 0 84.203 84.203">
  <g id="Group_12057" data-name="Group 12057" transform="translate(-917.809 -418.579)">
    <path id="Icon_material-question-answer" data-name="Icon material-question-answer" d="M82.993,19.841h-8.42V57.732H19.841v8.42a4.223,4.223,0,0,0,4.21,4.21H70.362L87.2,87.2V24.051A4.223,4.223,0,0,0,82.993,19.841ZM66.152,45.1V7.21A4.223,4.223,0,0,0,61.942,3H7.21A4.223,4.223,0,0,0,3,7.21V66.152L19.841,49.312h42.1A4.223,4.223,0,0,0,66.152,45.1Z" transform="translate(914.809 415.579)" fill="#2dbdca"/>
    <path id="Icon_material-question-answer-2" data-name="Icon material-question-answer" d="M82.993,19.841h-8.42V57.732H19.841v8.42a4.223,4.223,0,0,0,4.21,4.21H70.362L87.2,87.2V24.051A4.223,4.223,0,0,0,82.993,19.841Z" transform="translate(914.809 415.579)" fill="#ff8927"/>
  </g>
</svg>
