<svg xmlns="http://www.w3.org/2000/svg" width="37.248" height="45.844" viewBox="0 0 37.248 45.844"><defs><style>.a{fill:#2dbdca;}</style></defs><g transform="translate(0)"><path class="a" d="M6.16.3A1.433,1.433,0,0,0,4.394.3C3.944.656,0,3.852,0,7.617a5.277,5.277,0,0,0,10.554,0C10.554,3.852,6.609.656,6.16.3Zm-.883,9.724A2.414,2.414,0,0,1,2.865,7.617c0-1.521,1.352-3.213,2.41-4.262C6.321,4.4,7.688,6.1,7.688,7.617A2.414,2.414,0,0,1,5.277,10.028Z" transform="translate(20.51 32.951)"/><path class="a" d="M33.755,16.939A65.23,65.23,0,0,1,27.169,1.1a1.433,1.433,0,1,0-2.785.675A67.624,67.624,0,0,0,31.3,18.422c1.223,2.022,3.071,5.077,3.08,7.371a4.093,4.093,0,0,1-2.17,3.064,5.63,5.63,0,0,1-5.285.123,3.545,3.545,0,0,1,3.157-1.76,1.433,1.433,0,1,0,0-2.865c-3.455,0-4.956,2.161-6.162,3.9-1.267,1.824-2.267,3.265-5.3,3.265s-4.032-1.441-5.3-3.265c-1.206-1.737-2.707-3.9-6.162-3.9a1.433,1.433,0,1,0,0,2.865,3.545,3.545,0,0,1,3.157,1.76,5.637,5.637,0,0,1-5.286-.123,4.093,4.093,0,0,1-2.17-3.064c.009-2.294,1.857-5.349,3.08-7.371A67.573,67.573,0,0,0,12.864,1.771,1.433,1.433,0,1,0,10.079,1.1,65.231,65.231,0,0,1,3.493,16.939C2.107,19.231.012,22.695,0,25.782c-.013,3.287,3.47,6.672,7.651,6.672a9.43,9.43,0,0,0,4.375-1.131,7.784,7.784,0,0,0,6.6,3.06,7.785,7.785,0,0,0,6.6-3.06A9.426,9.426,0,0,0,29.6,32.454c4.174,0,7.664-3.374,7.651-6.672-.012-3.087-2.107-6.551-3.493-8.842Z" transform="translate(0 0)"/></g></svg>