<svg xmlns="http://www.w3.org/2000/svg" width="58.178" height="77.571" viewBox="0 0 58.178 77.571">
  <path id="Icon_awesome-notes-medical" data-name="Icon awesome-notes-medical" d="M50.906,9.7H38.786a9.7,9.7,0,0,0-19.393,0H7.272A7.274,7.274,0,0,0,0,16.969V70.3a7.274,7.274,0,0,0,7.272,7.272H50.906A7.274,7.274,0,0,0,58.178,70.3V16.969A7.274,7.274,0,0,0,50.906,9.7ZM29.089,6.06A3.636,3.636,0,1,1,25.453,9.7,3.627,3.627,0,0,1,29.089,6.06ZM43.634,52.118a1.216,1.216,0,0,1-1.212,1.212H33.937v8.484a1.216,1.216,0,0,1-1.212,1.212H25.453a1.216,1.216,0,0,1-1.212-1.212V53.33H15.757a1.216,1.216,0,0,1-1.212-1.212V44.846a1.216,1.216,0,0,1,1.212-1.212h8.484V35.149a1.216,1.216,0,0,1,1.212-1.212h7.272a1.216,1.216,0,0,1,1.212,1.212v8.484h8.484a1.216,1.216,0,0,1,1.212,1.212Zm0-29.089a1.216,1.216,0,0,1-1.212,1.212H15.757a1.216,1.216,0,0,1-1.212-1.212V20.6a1.216,1.216,0,0,1,1.212-1.212H42.422A1.216,1.216,0,0,1,43.634,20.6Z" fill="#fff"/>
</svg>
