<svg xmlns="http://www.w3.org/2000/svg" width="22.79" height="25.576" viewBox="0 0 22.79 25.576">
  <path id="Icon_open-timer" data-name="Icon open-timer" d="M6.277,0V3.138H9.415v.094a10.993,10.993,0,1,0,12.553,10.89,10.66,10.66,0,0,0-.785-3.923l-2.856,1.193a7.551,7.551,0,0,1,.5,2.762,7.846,7.846,0,1,1-7.846-7.846,7.671,7.671,0,0,1,2.762.5l1.067-2.95a13.141,13.141,0,0,0-2.26-.5V3.17h3.138V.031H6.277ZM21.969,3.641S10.514,12.459,9.917,13.056a1.534,1.534,0,0,0,0,2.165,1.48,1.48,0,0,0,2.165,0C12.71,14.593,22,3.641,22,3.641Z" transform="translate(0.25 0.219)" fill="#5d6174" stroke="#fff" stroke-width="0.5"/>
</svg>
