<svg xmlns="http://www.w3.org/2000/svg" width="118.517" height="65.455" viewBox="0 0 118.517 65.455">
  <g id="Group_18785" data-name="Group 18785" transform="translate(6320.566 3238.819)">
    <path id="Icon_simple-minutemailer" data-name="Icon simple-minutemailer" d="M3.836,4.054l3.918,4.24L4.99,13.743,10.826,12.7l2.657,6.411,11.287-14.8ZM8.069,11,9.884,7.8,20.556,5.3Z" transform="translate(-6226.82 -3242.874)" fill="#2dbdca"/>
    <path id="Path_9292" data-name="Path 9292" d="M-6253.292-3204.611c56.217-12.093,4.412-27.9,36.279-42.815" transform="translate(-6.972 19.565)" fill="none" stroke="#2dbdca" stroke-linecap="round" stroke-width="2" stroke-dasharray="3 3"/>
    <path id="Subtraction_1" data-name="Subtraction 1" d="M51.83,41.707H5.758A5.513,5.513,0,0,1,0,36.493L.029,5.213A5.5,5.5,0,0,1,5.758,0H51.83a5.512,5.512,0,0,1,5.758,5.213v31.28A5.513,5.513,0,0,1,51.83,41.707ZM23.676,36.788a.555.555,0,0,0-.6.439.394.394,0,0,0,.169.328.668.668,0,0,0,.423.12h2.331c.424,0,.7-.2.7-.519V28.069c0-.307-.274-.505-.7-.505H23.676a.671.671,0,0,0-.528.222.349.349,0,0,0-.047.357.341.341,0,0,0,.033.059.619.619,0,0,0,.53.247h1.679c.092,0,.164.056.164.127v8.086c0,.071-.072.127-.164.127ZM6.424,27.564c-.436,0-.741.208-.741.505v9.1c0,.308.275.507.7.507H8.7c.336,0,.6-.174.6-.405a.387.387,0,0,0-.169-.325.689.689,0,0,0-.423-.155H7.032a.149.149,0,0,1-.164-.127V28.576a.149.149,0,0,1,.164-.127H8.7a.563.563,0,0,0,.6-.443.37.37,0,0,0-.169-.316.876.876,0,0,0-.489-.127ZM19.8,29.352c-.317,0-.575.189-.575.421v5.691c0,.232.258.421.575.421s.577-.189.577-.421V29.772C20.373,29.54,20.114,29.352,19.8,29.352Zm-7.217,0c-.317,0-.575.189-.575.421v5.691c0,.232.258.421.575.421s.577-.189.577-.421V29.772C13.156,29.54,12.9,29.352,12.579,29.352Zm3.609.985c-.318,0-.577.152-.577.338v3.887c0,.186.259.338.577.338s.575-.152.575-.338V30.675C16.764,30.488,16.506,30.337,16.188,30.337Zm7.439.6c-.318,0-.577.132-.577.294v2.784c0,.163.259.3.577.3s.575-.131.575-.292V31.227C24.2,31.065,23.945,30.933,23.628,30.933Zm-14.879,0c-.318,0-.577.132-.577.294v2.782c0,.162.259.294.577.294s.575-.132.575-.294V31.227C9.324,31.065,9.066,30.933,8.749,30.933ZM5.758,5.213v5.214L28.8,23.46,51.83,10.427V5.213L28.8,18.247Z" transform="translate(-6300.502 -3215.071)" fill="#ff7500"/>
    <path id="Path_9300" data-name="Path 9300" d="M-9.579-5.933V-7.807a2.354,2.354,0,0,1,.024-.342,1.224,1.224,0,0,1,.09-.314,1.89,1.89,0,0,1-.5.428l-1.636.941-.418-.713,1.636-.951a1.632,1.632,0,0,1,.694-.228,1.777,1.777,0,0,1-.357-.071,1.332,1.332,0,0,1-.338-.166l-1.645-.96.418-.713,1.645.951a1.627,1.627,0,0,1,.542.495A1.325,1.325,0,0,1-9.545-9.8a1.966,1.966,0,0,1-.033-.366v-1.883h.837v1.873a1.649,1.649,0,0,1-.133.685,1.335,1.335,0,0,1,.233-.247,3.282,3.282,0,0,1,.29-.209l1.636-.941.418.713-1.636.951a1.588,1.588,0,0,1-.319.162,1.413,1.413,0,0,1-.328.076,1.59,1.59,0,0,1,.328.071,1.41,1.41,0,0,1,.319.157l1.645.96-.418.713-1.645-.951a3.161,3.161,0,0,1-.3-.209A1.156,1.156,0,0,1-8.894-8.5a1.548,1.548,0,0,1,.152.685v1.883Zm7.608,0V-7.807a2.354,2.354,0,0,1,.024-.342,1.224,1.224,0,0,1,.09-.314,1.89,1.89,0,0,1-.5.428L-4-7.093l-.418-.713,1.636-.951a1.632,1.632,0,0,1,.694-.228,1.777,1.777,0,0,1-.357-.071,1.332,1.332,0,0,1-.338-.166l-1.645-.96.418-.713,1.645.951a1.627,1.627,0,0,1,.542.495A1.325,1.325,0,0,1-1.938-9.8a1.966,1.966,0,0,1-.033-.366v-1.883h.837v1.873a1.649,1.649,0,0,1-.133.685,1.335,1.335,0,0,1,.233-.247,3.282,3.282,0,0,1,.29-.209l1.636-.941.418.713-1.636.951a1.588,1.588,0,0,1-.319.162,1.413,1.413,0,0,1-.328.076,1.59,1.59,0,0,1,.328.071,1.41,1.41,0,0,1,.319.157L1.32-7.8.9-7.084-.744-8.035a3.161,3.161,0,0,1-.3-.209A1.156,1.156,0,0,1-1.286-8.5a1.548,1.548,0,0,1,.152.685v1.883Zm7.608,0V-7.807a2.354,2.354,0,0,1,.024-.342,1.224,1.224,0,0,1,.09-.314,1.89,1.89,0,0,1-.5.428l-1.636.941-.418-.713,1.636-.951a1.632,1.632,0,0,1,.694-.228,1.777,1.777,0,0,1-.357-.071,1.332,1.332,0,0,1-.338-.166l-1.645-.96L3.6-10.9l1.645.951a1.627,1.627,0,0,1,.542.495A1.325,1.325,0,0,1,5.67-9.8a1.966,1.966,0,0,1-.033-.366v-1.883h.837v1.873a1.649,1.649,0,0,1-.133.685,1.335,1.335,0,0,1,.233-.247,3.282,3.282,0,0,1,.29-.209L8.5-10.888l.418.713-1.636.951a1.588,1.588,0,0,1-.319.162,1.413,1.413,0,0,1-.328.076,1.59,1.59,0,0,1,.328.071,1.41,1.41,0,0,1,.319.157l1.645.96-.418.713L6.864-8.035a3.161,3.161,0,0,1-.3-.209A1.156,1.156,0,0,1,6.322-8.5a1.548,1.548,0,0,1,.152.685v1.883Zm7.608,0V-7.807a2.354,2.354,0,0,1,.024-.342,1.224,1.224,0,0,1,.09-.314,1.89,1.89,0,0,1-.5.428l-1.636.941L10.8-7.807l1.636-.951a1.632,1.632,0,0,1,.694-.228,1.777,1.777,0,0,1-.357-.071,1.332,1.332,0,0,1-.338-.166l-1.645-.96.418-.713,1.645.951a1.627,1.627,0,0,1,.542.495,1.325,1.325,0,0,1-.119-.347,1.966,1.966,0,0,1-.033-.366v-1.883h.837v1.873a1.649,1.649,0,0,1-.133.685,1.335,1.335,0,0,1,.233-.247,3.282,3.282,0,0,1,.29-.209l1.636-.941.418.713-1.636.951a1.588,1.588,0,0,1-.319.162,1.413,1.413,0,0,1-.328.076,1.59,1.59,0,0,1,.328.071,1.41,1.41,0,0,1,.319.157l1.645.96-.418.713-1.645-.951a3.161,3.161,0,0,1-.3-.209,1.156,1.156,0,0,1-.238-.257,1.548,1.548,0,0,1,.152.685v1.883Z" transform="translate(-6308.535 -3215.971)" fill="#2dbdca"/>
  </g>
</svg>
