<svg xmlns="http://www.w3.org/2000/svg" width="44.699" height="45.459" viewBox="0 0 44.699 45.459"><defs><style>.a{fill:#2dbdca;}</style></defs><path class="a" d="M1.385.308,1,.087A.667.667,0,1,0,.337,1.247l.389.221A5.581,5.581,0,0,1,3.543,6.31V8.858a.667.667,0,1,0,1.334,0V6.31a6.917,6.917,0,0,0-3.491-6Z" transform="translate(29.844 35.934)"/><path class="a" d="M25.42,11.655a4.931,4.931,0,0,0-3.246-6.712,4.128,4.128,0,0,0-5.763-3.764,3.353,3.353,0,0,0-5.571.713,4.208,4.208,0,0,0-1.927.439A5.225,5.225,0,0,0,5.37,2.5a.667.667,0,1,0,.511,1.232,3.864,3.864,0,0,1,1.49-.3c.05,0,.1,0,.149,0a4.236,4.236,0,0,0-.565,4.5l-.533.437a7.073,7.073,0,0,0-2.6,5.49v3.307H3.788a2.925,2.925,0,0,0-.767.1l-.01-.005a2.6,2.6,0,0,1-1.466-2.328,2.565,2.565,0,0,1,.732-1.8.667.667,0,0,0-.07-.993A2.242,2.242,0,0,1,2.995,8.21a.667.667,0,0,0,.494-.68c0-.075-.006-.143-.006-.21A3.88,3.88,0,0,1,4.042,5.31.667.667,0,1,0,2.9,4.62a5.209,5.209,0,0,0-.747,2.474A3.577,3.577,0,0,0,.891,12.738a3.889,3.889,0,0,0-.68,2.2A3.938,3.938,0,0,0,1.72,18.028a2.933,2.933,0,0,0,2.068,5.014h.139a10.614,10.614,0,0,0,.427,1.847.667.667,0,1,0,1.267-.417,9.27,9.27,0,0,1-.465-2.9v-7.7A5.744,5.744,0,0,1,7.267,9.407l.444-.364a4.229,4.229,0,0,0,2.926,1.327A4.241,4.241,0,0,0,16.9,12.61a4.925,4.925,0,0,0,4.829,1.956v6.509a10.123,10.123,0,0,1-5.746,9.1l-1.31.623a2.85,2.85,0,0,1-2.46,0l-1.758-.837a9.306,9.306,0,0,1-3.61-3.051.667.667,0,1,0-1.092.766,10.642,10.642,0,0,0,4.128,3.489l.242.115v1.44c0,.094,0,.186.013.278L4.429,36.242a6.917,6.917,0,0,0-3.491,6v2.548a.667.667,0,1,0,1.334,0V42.244A5.581,5.581,0,0,1,5.089,37.4l5.451-3.1a3.227,3.227,0,0,0,5.628,0l2.585,1.47a.667.667,0,0,0,.659-1.159L16.571,33c.008-.092.013-.184.013-.278V31.363a11.407,11.407,0,0,0,6.308-8.321H23.1a2.932,2.932,0,0,0,2.1-4.977l.614-1.139a4.914,4.914,0,0,0-.4-5.27ZM3.788,21.708a1.6,1.6,0,1,1,0-3.2h.035s0,3.155,0,3.2Zm9.566,12.907a1.9,1.9,0,0,1-1.9-1.9v-.805L11.64,32a4.178,4.178,0,0,0,3.606,0l0,0v.72a1.9,1.9,0,0,1-1.9,1.9Zm4.324-23.283a.667.667,0,0,0-1.048-.187A2.906,2.906,0,0,1,11.8,9.563a.667.667,0,0,0-.721-.538c-.1.01-.195.014-.289.014a2.907,2.907,0,0,1,0-5.813,2.952,2.952,0,0,1,.4.028.668.668,0,0,0,.73-.472,2.021,2.021,0,0,1,3.7-.415.667.667,0,0,0,.937.237,2.794,2.794,0,0,1,4.251,2.778.667.667,0,0,0,.57.758,3.6,3.6,0,1,1-3.7,5.191ZM24.64,12.9a3.577,3.577,0,0,1,0,3.388l-.566,1.049a2.92,2.92,0,0,0-.978-.168h-.035V14.133A4.96,4.96,0,0,0,24.64,12.9Zm-1.542,8.8h-.054c.012-.211.019-3.2.019-3.2H23.1a1.6,1.6,0,1,1,0,3.2Z" transform="translate(8.951 0)"/><path class="a" d="M6.883,0H6.874L3.824.04A.667.667,0,0,0,3.194.9l.142.468L.663,1.382a.667.667,0,0,0,0,1.334h0L4.237,2.7a.667.667,0,0,0,.635-.86l-.144-.475,2.164-.028A.667.667,0,0,0,6.883,0Z" transform="translate(36.533 10.391)"/><path class="a" d="M6.887,1.382,4.214,1.368,4.356.9A.667.667,0,0,0,3.726.04L.676,0H.667A.667.667,0,0,0,.658,1.334l2.164.028-.144.475a.667.667,0,0,0,.635.86l3.567.019h0a.667.667,0,0,0,0-1.334Z" transform="translate(0.705 10.391)"/><path class="a" d="M1.092,1.838l.522-.432.794.557a1.052,1.052,0,0,0,1.315-.091l.421-.392.421.392a1.052,1.052,0,0,0,1.315.091l.794-.557.522.432A.667.667,0,1,0,8.045.811L7.355.24A1.049,1.049,0,0,0,6.086.189L5.3.738,4.857.322a1.051,1.051,0,0,0-1.427,0L2.983.738,2.2.189A1.05,1.05,0,0,0,.932.24L.242.811a.667.667,0,1,0,.85,1.027Z" transform="translate(18.162 24.57)"/><path class="a" d="M8.151.272A.847.847,0,0,0,7.137.1L2.308,2.622A.846.846,0,0,0,2.2,4.053l.479.351L.246,6.875A.836.836,0,0,0,.154,7.951a.836.836,0,0,0,.689.365.858.858,0,0,0,.351-.076l6-2.69A.846.846,0,0,0,7.363,4.1l-.607-.459L8.244,1.3A.847.847,0,0,0,8.151.272ZM5.593,4.438,5.9,4.67,3.015,5.963l1.01-1.026a.846.846,0,0,0-.1-1.275l-.3-.221,2.523-1.32-.754,1.19a.851.851,0,0,0,.2,1.127Z" transform="translate(36.325 0.533)"/><path class="a" d="M5.7,4.4l.479-.351a.846.846,0,0,0-.108-1.431L1.237.1A.846.846,0,0,0,.131,1.3L1.618,3.645,1.011,4.1A.846.846,0,0,0,1.176,5.55l6,2.69a.857.857,0,0,0,.351.076.848.848,0,0,0,.6-1.441ZM2.473,4.67l.307-.233a.851.851,0,0,0,.2-1.127l-.754-1.19L4.754,3.44l-.3.222a.846.846,0,0,0-.1,1.275L5.36,5.963Z" transform="translate(0 0.533)"/></svg>