<svg xmlns="http://www.w3.org/2000/svg" width="33.649" height="22.433" viewBox="0 0 33.649 22.433">
  <g id="pay" transform="translate(0 -85.333)">
    <path id="Path_2212" data-name="Path 2212" d="M3.505,85.333H30.144a3.505,3.505,0,0,1,3.505,3.505v15.422a3.505,3.505,0,0,1-3.505,3.505H3.505A3.5,3.5,0,0,1,0,104.261V88.838A3.505,3.505,0,0,1,3.505,85.333Z" transform="translate(0)" fill="#fff"/>
    <rect id="Rectangle_283" data-name="Rectangle 283" width="31.649" height="5.608" transform="translate(1 89.539)" fill="#ef762a"/>
    <g id="Group_233" data-name="Group 233" transform="translate(4.206 99.353)">
      <path id="Path_2213" data-name="Path 2213" d="M70.309,300.068H64.7a.7.7,0,0,1,0-1.4h5.608a.7.7,0,0,1,0,1.4Z" transform="translate(-64 -298.666)" fill="#ef762a"/>
      <path id="Path_2214" data-name="Path 2214" d="M74.515,342.735H64.7a.7.7,0,1,1,0-1.4h9.814a.7.7,0,1,1,0,1.4Z" transform="translate(-64 -338.529)" fill="#ef762a"/>
    </g>
  </g>
</svg>
