<svg xmlns="http://www.w3.org/2000/svg" width="44.561" height="44.56" viewBox="0 0 44.561 44.56"><defs><style>.a{fill:#2dbdca;}.b{fill:#aaa;}</style></defs><g transform="translate(-1 -1)"><path class="a" d="M39.053,35.057A15.093,15.093,0,0,0,21,49.857a5.2,5.2,0,0,0,6.218,5.1,45.016,45.016,0,0,1,17.752,0,5.2,5.2,0,0,0,6.215-5.1,15.135,15.135,0,0,0-12.133-14.8Z" transform="translate(-5.626 -9.496)"/><circle class="a" cx="6.468" cy="6.468" r="6.468" transform="translate(23.999 10.608)"/><g transform="translate(1 1)"><path class="b" d="M33.342,5.312H31.186V3.156A2.156,2.156,0,0,0,29.03,1H3.156A2.156,2.156,0,0,0,1,3.156V20.405a2.156,2.156,0,0,0,2.156,2.156H5.312v2.156a2.156,2.156,0,0,0,2.156,2.156H33.342A2.156,2.156,0,0,0,35.5,24.718V7.468A2.156,2.156,0,0,0,33.342,5.312ZM2.437,20.405V3.156a.719.719,0,0,1,.719-.719H29.03a.719.719,0,0,1,.719.719V20.405a.719.719,0,0,1-.719.719H3.156A.719.719,0,0,1,2.437,20.405Zm31.624,4.312a.719.719,0,0,1-.719.719H7.468a.719.719,0,0,1-.719-.719V22.562H29.03a2.156,2.156,0,0,0,2.156-2.156V6.75h2.156a.719.719,0,0,1,.719.719Z" transform="translate(-1 -1)"/><path class="b" d="M11.031,17.437a3.6,3.6,0,0,1,3.594,3.594.719.719,0,0,0,1.437,0A5.031,5.031,0,0,0,6,21.031a.719.719,0,1,0,1.437,0A3.6,3.6,0,0,1,11.031,17.437Z" transform="translate(-2.406 -5.219)"/><path class="b" d="M11.875,11.75A2.875,2.875,0,1,0,9,8.875,2.875,2.875,0,0,0,11.875,11.75Zm0-4.312a1.437,1.437,0,1,1-1.437,1.437A1.437,1.437,0,0,1,11.875,7.437Z" transform="translate(-3.25 -2.406)"/><path class="b" d="M23.719,9.437h9.343a.719.719,0,0,0,0-1.437H23.719a.719.719,0,1,0,0,1.437Z" transform="translate(-7.188 -2.969)"/><path class="b" d="M23.719,15.437h9.343a.719.719,0,0,0,0-1.437H23.719a.719.719,0,1,0,0,1.437Z" transform="translate(-7.188 -4.657)"/><path class="b" d="M23.719,21.437h9.343a.719.719,0,0,0,0-1.437H23.719a.719.719,0,1,0,0,1.437Z" transform="translate(-7.188 -6.344)"/></g></g></svg>