<svg xmlns="http://www.w3.org/2000/svg" width="42.664" height="45.708" viewBox="0 0 42.664 45.708"><defs><style>.a{fill:#2dbdca;}</style></defs><path class="a" d="M4.795,2.323A.762.762,0,1,0,5.871,1.244l-.13-.129a3.809,3.809,0,0,0-5.385,0l-.131.13A.762.762,0,1,0,1.3,2.324l.132-.131a2.338,2.338,0,0,1,3.232,0Z" transform="translate(16.762 21.07)"/><path class="a" d="M.161,4.278a.762.762,0,0,0,.6.293H2.285a.762.762,0,1,0,0-1.524H1.738l.525-2.1A.762.762,0,1,0,.785.577L.023,3.624A.762.762,0,0,0,.161,4.278Z" transform="translate(18.286 15.236)"/><path class="a" d="M42.663,33.519a6.043,6.043,0,0,0-3.047-5.279V3.047a3.047,3.047,0,1,0-6.094,0V28.24a5.986,5.986,0,0,0-1.333,1.044,9.05,9.05,0,0,0-2.438-.335H25.142a.762.762,0,0,1-.762-.762v-2a9.218,9.218,0,0,0,4.274-5.622h1.059A2.292,2.292,0,0,0,32,18.283V16a2.275,2.275,0,0,0-.762-1.691V6.856A6.867,6.867,0,0,0,24.38,0H18.286a3.8,3.8,0,0,0-3.3,1.912,2.281,2.281,0,0,0-1.272-.389H12.191A3.809,3.809,0,0,0,8.382,5.333v8.974A2.275,2.275,0,0,0,7.62,16v2.285a2.292,2.292,0,0,0,2.285,2.285h1.059a9.218,9.218,0,0,0,4.274,5.622v2a.762.762,0,0,1-.762.762H9.868a9.119,9.119,0,0,0-9.1,8.235L0,44.87a.789.789,0,0,0,.2.587.762.762,0,0,0,.564.251h38.09a.762.762,0,0,0,.762-.83l-.51-5.828A6.094,6.094,0,0,0,42.663,33.519ZM30.475,16v2.285a.762.762,0,0,1-.762.762h-.8c.023-.251.038-.5.038-.762V15.236h.762A.762.762,0,0,1,30.475,16ZM9.906,19.045a.762.762,0,0,1-.762-.762V16a.762.762,0,0,1,.762-.762h.762v3.047c0,.259.015.51.038.762Zm.762-7.618v2.285H9.906V5.333a2.292,2.292,0,0,1,2.285-2.285h1.524a.762.762,0,0,1,.762.762.762.762,0,1,0,1.524,0,2.292,2.292,0,0,1,2.285-2.285H24.38a5.339,5.339,0,0,1,5.333,5.333v6.856h-.762V11.427a3.809,3.809,0,0,0-3.809-3.809H23.893A15.859,15.859,0,0,0,22.719,5.66a.787.787,0,0,0-1.249,0A15.859,15.859,0,0,0,20.3,7.618h-5.82A3.809,3.809,0,0,0,10.668,11.427ZM22.857,9.142a.762.762,0,1,1-1.524,0A5.7,5.7,0,0,1,22.095,7.5,5.6,5.6,0,0,1,22.857,9.142ZM12.191,18.283V11.427a2.292,2.292,0,0,1,2.285-2.285h5.333a2.285,2.285,0,1,0,4.571,0h.762a2.292,2.292,0,0,1,2.285,2.285v6.856a7.618,7.618,0,1,1-15.236,0ZM24.174,30.251a4.55,4.55,0,0,1-8.73,0,2.285,2.285,0,0,0,1.318-2.064v-1.3a8.973,8.973,0,0,0,6.094,0v1.3a2.285,2.285,0,0,0,1.318,2.064Zm6.3,13.933V39.614a.762.762,0,1,0-1.524,0v4.571H10.668V39.614a.762.762,0,1,0-1.524,0v4.571H1.61l.678-6.849a7.6,7.6,0,0,1,7.58-6.864h4.053a6.078,6.078,0,0,0,11.778,0h4.053a7.662,7.662,0,0,1,1.455.145,6.1,6.1,0,0,0,5.363,9,6,6,0,0,0,1.051-.1l.4,4.67Zm6.094-6.094A4.571,4.571,0,0,1,32,33.519a4.524,4.524,0,0,1,2.613-4.129.748.748,0,0,0,.434-.686V3.047a1.524,1.524,0,0,1,3.047,0V4.571H36.569V6.094h1.524V7.618H36.569V9.142h1.524v1.524H35.807V31.371a2.285,2.285,0,1,0,1.524,0V27.425h.762V28.7a.748.748,0,0,0,.434.686,4.524,4.524,0,0,1,2.613,4.129A4.571,4.571,0,0,1,36.569,38.09Zm.762-15.236V21.331h.762v1.524Zm.762,1.524V25.9h-.762V24.378Zm-.762-4.571V18.283h.762v1.524Zm0-3.047V15.236h.762V16.76Zm0-3.047V12.189h.762v1.524Zm0,19.807a.762.762,0,1,1-.762-.762A.762.762,0,0,1,37.331,33.519Z" transform="translate(0 0)"/><path class="a" d="M5.112,1.306l-.183.183a5.731,5.731,0,0,1-1.12.853V3.05a.762.762,0,0,1-1.524,0V2.928A5.571,5.571,0,0,1,1.15,3.05H.762a.762.762,0,0,1,0-1.524H1.15A3.791,3.791,0,0,0,3.847.414L4.03.224A.765.765,0,1,1,5.112,1.306Z" transform="translate(13.715 12.186)"/><path class="a" d="M5.336,2.289a.762.762,0,0,1-.762.762H4.185A5.57,5.57,0,0,1,3.05,2.928V3.05a.762.762,0,0,1-1.524,0V2.342A5.467,5.467,0,0,1,.414,1.489l-.19-.183A.765.765,0,0,1,1.306.224l.183.19a3.791,3.791,0,0,0,2.7,1.112h.389A.762.762,0,0,1,5.336,2.289Z" transform="translate(20.568 12.186)"/><path class="a" d="M2.285,6.074A2.285,2.285,0,0,0,4.571,3.789c0-.974-1.159-2.758-1.658-3.48a.791.791,0,0,0-1.254,0C1.159,1.03,0,2.815,0,3.789A2.285,2.285,0,0,0,2.285,6.074Zm0-3.92a5.685,5.685,0,0,1,.762,1.635.762.762,0,1,1-1.524,0,5.681,5.681,0,0,1,.762-1.635Z" transform="translate(3.05 9.162)"/><path class="a" d="M3.047,7.607A3.047,3.047,0,0,0,6.094,4.56C6.094,3.081,4.028.7,3.614.242a.785.785,0,0,0-1.134,0C2.066.7,0,3.081,0,4.56A3.047,3.047,0,0,0,3.047,7.607Zm0-5.676A6.943,6.943,0,0,1,4.571,4.56a1.524,1.524,0,0,1-3.047,0A6.829,6.829,0,0,1,3.047,1.931Z" transform="translate(3.05 20.58)"/></svg>