<svg xmlns="http://www.w3.org/2000/svg" width="43.194" height="43.189" viewBox="0 0 43.194 43.189"><defs><style>.a{fill:none;stroke:#2dbdca;}</style></defs><path class="a" d="M46.666,45.623c-.791-3.494-5.307-5.2-6.867-5.746a51.2,51.2,0,0,0-5.724-1.1,5.816,5.816,0,0,1-2.648-1.22c-.439-.527-.176-5.416-.176-5.416A16.3,16.3,0,0,0,32.5,29.758a30.752,30.752,0,0,0,.923-4.164s.9,0,1.22-1.582c.341-1.725.879-2.4.813-3.681C35.394,19.068,34.7,19.1,34.7,19.1a19.262,19.262,0,0,0,.747-5.636C35.548,8.95,32.01,4.5,25.605,4.5c-6.493,0-9.954,4.45-9.855,8.965a20.092,20.092,0,0,0,.736,5.636s-.692-.033-.758,1.231c-.066,1.285.472,1.956.813,3.681.308,1.582,1.22,1.582,1.22,1.582a30.751,30.751,0,0,0,.923,4.164,16.3,16.3,0,0,0,1.252,2.384s.264,4.889-.176,5.416a5.816,5.816,0,0,1-2.648,1.22,51.2,51.2,0,0,0-5.724,1.1c-1.56.549-6.076,2.252-6.867,5.746a.878.878,0,0,0,.868,1.066h40.42A.876.876,0,0,0,46.666,45.623Z" transform="translate(-3.997 -4)"/></svg>