<svg xmlns="http://www.w3.org/2000/svg" width="36.893" height="36.891" viewBox="0 0 36.893 36.891"><defs><style>.a{fill:#2dbdca;}</style></defs><g transform="translate(0 -0.009)"><g transform="translate(0 3.898)"><path class="a" d="M36.893,56.152a2.164,2.164,0,0,0-2.162-2.162H28.714a.721.721,0,0,0,0,1.441h6.017a.721.721,0,0,1,.721.721V60.48H1.441V56.152a.721.721,0,0,1,.721-.721h8.977a.721.721,0,1,0,0-1.441H2.162A2.164,2.164,0,0,0,0,56.152V61.2c0,.01,0,.019,0,.028s0,.019,0,.028v2.517a3.493,3.493,0,0,0,1.6,2.934.721.721,0,0,0-.015.149V85.551H.721a.721.721,0,0,0,0,1.441H36.172a.721.721,0,0,0,0-1.441h-.865V66.856a.726.726,0,0,0-.015-.149,3.493,3.493,0,0,0,1.6-2.934V61.256c0-.01,0-.019,0-.028s0-.019,0-.028ZM25.075,61.921h4.468v1.853a2.055,2.055,0,0,1-2.053,2.053h-.362a2.055,2.055,0,0,1-2.053-2.053Zm-5.909,0h4.468v1.853a2.055,2.055,0,0,1-2.053,2.053H21.22a2.055,2.055,0,0,1-2.053-2.053Zm-5.909,0h4.468v1.853a2.055,2.055,0,0,1-2.053,2.053h-.362a2.055,2.055,0,0,1-2.053-2.053V61.921Zm-5.909,0h4.468v1.853a2.055,2.055,0,0,1-2.053,2.053H9.4A2.055,2.055,0,0,1,7.35,63.774ZM1.441,63.774V61.921H5.909v1.853a2.055,2.055,0,0,1-2.053,2.053H3.494A2.055,2.055,0,0,1,1.441,63.774ZM16.717,85.55h-9.8V71.428h9.8Zm17.149-5.188H22.481V71.428H33.866Zm0-10.376H21.761a.721.721,0,0,0-.721.721V81.083a.721.721,0,0,0,.721.721H33.866V85.55H18.158V70.707a.721.721,0,0,0-.721-.721H6.2a.721.721,0,0,0-.721.721V85.55H3.026V67.235a3.5,3.5,0,0,0,.468.032h.362A3.49,3.49,0,0,0,6.629,65.9,3.49,3.49,0,0,0,9.4,67.268h.362A3.49,3.49,0,0,0,12.538,65.9a3.49,3.49,0,0,0,2.774,1.372h.362A3.49,3.49,0,0,0,18.447,65.9a3.49,3.49,0,0,0,2.774,1.372h.362A3.49,3.49,0,0,0,24.355,65.9a3.49,3.49,0,0,0,2.774,1.372h.362A3.49,3.49,0,0,0,30.264,65.9a3.49,3.49,0,0,0,2.774,1.372H33.4a3.5,3.5,0,0,0,.468-.032Zm1.585-6.213A2.055,2.055,0,0,1,33.4,65.827h-.362a2.055,2.055,0,0,1-2.053-2.053V61.921h4.467Z" transform="translate(0 -53.99)"/></g><g transform="translate(13.691 27.677)"><path class="a" d="M191.23,384.2a.72.72,0,1,0,.211.509A.726.726,0,0,0,191.23,384.2Z" transform="translate(-190 -383.99)"/></g><g transform="translate(13.979 0.009)"><path class="a" d="M202.1.841a2.851,2.851,0,0,0-4.027,0l-3.24,3.24a2.848,2.848,0,0,0,4.027,4.027l1.619-1.619h0L202.1,4.868a2.848,2.848,0,0,0,0-4.027Zm-4.259,6.248A1.407,1.407,0,1,1,195.853,5.1l1.11-1.11,1.989,1.989Zm3.24-3.24-1.11,1.11-1.989-1.989,1.11-1.11a1.407,1.407,0,1,1,1.989,1.989Z" transform="translate(-194 -0.009)"/></g><g transform="translate(24.81 22.442)"><path class="a" d="M350.31,313.976H348.4v-1.915a.721.721,0,1,0-1.441,0v1.915H345.04a.721.721,0,0,0,0,1.441h1.915v1.915a.721.721,0,1,0,1.441,0v-1.915h1.915a.721.721,0,0,0,0-1.441Z" transform="translate(-344.319 -311.341)"/></g><g transform="translate(8.935 23.305)"><path class="a" d="M124.721,323.323a.721.721,0,0,0-.721.721v6a.721.721,0,0,0,1.441,0v-6A.721.721,0,0,0,124.721,323.323Z" transform="translate(-124 -323.323)"/></g><g transform="translate(8.935 32.048)"><path class="a" d="M125.23,444.87a.721.721,0,1,0,.211.51A.725.725,0,0,0,125.23,444.87Z" transform="translate(-124 -444.66)"/></g></g></svg>