<svg xmlns="http://www.w3.org/2000/svg" width="46.243" height="46.24" viewBox="0 0 46.243 46.24"><defs><style>.a{fill:#2dbdca;}</style></defs><g transform="translate(-1 -1.018)"><g transform="translate(1 1.018)"><g transform="translate(0 0)"><path class="a" d="M46.03,36.691l-9.36-6.242a2.732,2.732,0,0,0-3.658.594l-2.726,3.505a1.165,1.165,0,0,1-1.494.314l-.519-.286c-1.719-.937-3.858-2.1-8.168-6.415s-5.479-6.452-6.416-8.168l-.284-.519a1.167,1.167,0,0,1,.308-1.5l3.5-2.726a2.733,2.733,0,0,0,.595-3.658l-6.242-9.36a2.718,2.718,0,0,0-3.663-.825L3.991,3.758A5.521,5.521,0,0,0,1.474,7.025c-1.409,5.135-.349,14,12.707,27.055C24.566,44.465,32.3,47.258,37.611,47.258a13.653,13.653,0,0,0,3.622-.473A5.516,5.516,0,0,0,44.5,44.267l2.353-3.912A2.718,2.718,0,0,0,46.03,36.691Zm-.5,2.874-2.348,3.914a3.983,3.983,0,0,1-2.35,1.822c-4.741,1.3-13.023.224-25.557-12.31S1.659,12.174,2.96,7.433A3.989,3.989,0,0,1,4.784,5.079L8.7,2.731a1.179,1.179,0,0,1,1.59.358L13.679,8.18l2.846,4.268a1.186,1.186,0,0,1-.257,1.587l-3.5,2.726a2.7,2.7,0,0,0-.714,3.462l.278.506c.985,1.806,2.209,4.053,6.68,8.523s6.717,5.694,8.522,6.679l.506.279a2.7,2.7,0,0,0,3.462-.714l2.726-3.5a1.187,1.187,0,0,1,1.587-.257l9.359,6.242A1.178,1.178,0,0,1,45.526,39.565Z" transform="translate(-1 -1.018)"/><path class="a" d="M283.4,70.865a13.115,13.115,0,0,1,13.1,13.1.771.771,0,1,0,1.541,0A14.658,14.658,0,0,0,283.4,69.324a.771.771,0,1,0,0,1.541Z" transform="translate(-257.195 -63.156)"/><path class="a" d="M283.4,122.065a8.487,8.487,0,0,1,8.477,8.477.771.771,0,0,0,1.541,0A10.029,10.029,0,0,0,283.4,120.524a.771.771,0,1,0,0,1.541Z" transform="translate(-257.195 -109.732)"/><path class="a" d="M283.4,173.265a3.858,3.858,0,0,1,3.853,3.853.771.771,0,1,0,1.541,0,5.4,5.4,0,0,0-5.394-5.394.771.771,0,1,0,0,1.541Z" transform="translate(-257.195 -156.308)"/></g></g></g></svg>