<svg xmlns="http://www.w3.org/2000/svg" width="20.985" height="21.023" viewBox="0 0 20.985 21.023">
  <path id="phone_call_blue" d="M15.513,5.317a4.771,4.771,0,0,1,3.769,3.769M15.513,1.5A8.588,8.588,0,0,1,23.1,9.076m-.954,7.614v2.863a1.908,1.908,0,0,1-2.08,1.908,18.883,18.883,0,0,1-8.235-2.929A18.607,18.607,0,0,1,6.1,12.807,18.883,18.883,0,0,1,3.176,4.534a1.908,1.908,0,0,1,1.9-2.08H7.937A1.908,1.908,0,0,1,9.845,4.1a12.252,12.252,0,0,0,.668,2.681,1.908,1.908,0,0,1-.429,2.013L8.872,10A15.267,15.267,0,0,0,14.6,15.727l1.212-1.212a1.908,1.908,0,0,1,2.013-.429,12.252,12.252,0,0,0,2.681.668A1.908,1.908,0,0,1,22.145,16.691Z" transform="translate(-2.667 -0.948)" fill="none" stroke="#2dbdca" stroke-linecap="round" stroke-linejoin="round" stroke-width="1"/>
</svg>
