<svg xmlns="http://www.w3.org/2000/svg" width="45.841" height="45.842" viewBox="0 0 45.841 45.842"><defs><style>.a{fill:#2dbdca;}</style></defs><g transform="translate(-0.006)"><g transform="translate(10.663)"><path class="a" d="M119.932,0a.9.9,0,0,0,0,1.791,9.3,9.3,0,0,1,9.173,9.411.9.9,0,1,0,1.791,0A11.1,11.1,0,0,0,119.932,0Z" transform="translate(-119.037)"/></g><g transform="translate(10.66 4.248)"><path class="a" d="M119.9,47.447a.9.9,0,0,0,0,1.791,5.1,5.1,0,0,1,5.023,5.163.9.9,0,0,0,1.791,0A6.893,6.893,0,0,0,119.9,47.447Z" transform="translate(-119.004 -47.447)"/></g><g transform="translate(10.678 8.161)"><path class="a" d="M120.093,91.155a.9.9,0,1,0,0,1.791,1.2,1.2,0,0,1,1.173,1.222.9.9,0,1,0,1.791,0A2.992,2.992,0,0,0,120.093,91.155Z" transform="translate(-119.198 -91.155)"/></g><g transform="translate(24.535 7.097)"><path class="a" d="M290.49,79.265H288.5a.9.9,0,1,0,0,1.791h1.985a3,3,0,0,1,3,3V96.211a3,3,0,0,1-1.141,2.352V96.221a3.8,3.8,0,0,0-3.1-3.731l-.579-.108a4.04,4.04,0,0,0,.2-1.256V89.069a4.058,4.058,0,1,0-8.115,0v2.058a4.043,4.043,0,0,0,.2,1.256l-.579.108a3.8,3.8,0,0,0-3.1,3.731v2.6a3,3,0,0,1-1.517-2.606V84.056a3,3,0,0,1,3-3h2.134a.9.9,0,0,0,0-1.791H278.76a4.8,4.8,0,0,0-4.791,4.791V96.211A4.8,4.8,0,0,0,278.76,101h4.506v2.575a.9.9,0,0,0,1.527.635l3.23-3.21h2.468a4.8,4.8,0,0,0,4.791-4.791V84.056A4.8,4.8,0,0,0,290.49,79.265Zm-7.944,9.8a2.267,2.267,0,1,1,4.533,0v2.058a2.267,2.267,0,1,1-4.533,0Zm8.012,10.14-.068,0h-2.837a.9.9,0,0,0-.631.26l-1.965,1.953v-1.318a.9.9,0,0,0-.9-.9h-5.093v-2.99a2.005,2.005,0,0,1,1.637-1.97l1.262-.235a4.049,4.049,0,0,0,5.692,0l1.262.235a2.005,2.005,0,0,1,1.637,1.97v2.988Z" transform="translate(-273.969 -79.265)"/></g><g transform="translate(33.937 7.097)"><path class="a" d="M380.508,79.531a.895.895,0,1,0,.262.633A.9.9,0,0,0,380.508,79.531Z" transform="translate(-378.98 -79.269)"/></g><g transform="translate(15.119 29.86)"><path class="a" d="M170.335,333.769a.9.9,0,1,0,.262.633A.9.9,0,0,0,170.335,333.769Z" transform="translate(-168.806 -333.507)"/></g><g transform="translate(0.006 8.814)"><g transform="translate(0)"><path class="a" d="M36.247,127.853l-6.86-6.86a2.688,2.688,0,0,0-3.416-.318l-4.378,2.994a.9.9,0,0,1-1.139-.106l-1.448-1.448a.9.9,0,1,0-1.266,1.266l1.448,1.448a2.688,2.688,0,0,0,3.416.318l4.378-2.994a.9.9,0,0,1,1.139.106l6.86,6.86a.9.9,0,0,1,0,1.266,11.3,11.3,0,0,1-15.956,0L5.1,116.455a11.283,11.283,0,0,1,0-15.956.9.9,0,0,1,1.266,0l6.86,6.86a.9.9,0,0,1,.106,1.139l-2.994,4.378a2.688,2.688,0,0,0,.318,3.416l2.176,2.176a.9.9,0,0,0,1.266-1.266l-2.176-2.176a.9.9,0,0,1-.106-1.138l2.994-4.378a2.688,2.688,0,0,0-.318-3.416l-6.86-6.86a2.69,2.69,0,0,0-3.8,0,13.088,13.088,0,0,0,0,18.489l13.93,13.93a13.088,13.088,0,0,0,18.489,0A2.69,2.69,0,0,0,36.247,127.853Z" transform="translate(-0.006 -98.447)"/></g></g><g transform="translate(5.111 16.328)"><path class="a" d="M63.984,188.055l-5.428-5.428a.9.9,0,0,0-1.266,1.266l5.428,5.428a.9.9,0,0,0,1.266-1.266Z" transform="translate(-57.027 -182.365)"/></g><g transform="translate(25.603 36.82)"><path class="a" d="M293.138,417.208l-5.711-5.711a.9.9,0,1,0-1.266,1.266l5.711,5.711a.9.9,0,0,0,1.266-1.266Z" transform="translate(-285.898 -411.235)"/></g></g></svg>