<svg xmlns="http://www.w3.org/2000/svg" width="46" height="46" viewBox="0 0 46 46">
  <path id="phone_8_" data-name="phone (8)" d="M26.751,12.8a5.368,5.368,0,0,1,0-7.635L31.439.521a1.8,1.8,0,1,1,2.53,2.552L29.908,7.1h6.206A9.9,9.9,0,0,1,46,16.972l0,4.948a1.8,1.8,0,0,1-1.8,1.8h0a1.8,1.8,0,0,1-1.8-1.8l0-4.948a6.3,6.3,0,0,0-6.289-6.284H29.726l4.242,4.2a1.8,1.8,0,1,1-2.53,2.552ZM43.909,32.39c-2.51-2.42-4.612-3.817-6.617-4.4a7.406,7.406,0,0,0-7.6,2.158l-.01.01-2.432,2.413a36.168,36.168,0,0,1-7.658-5.927l-.237-.236a36.407,36.407,0,0,1-5.924-7.66l2.411-2.429.01-.011a7.406,7.406,0,0,0,2.158-7.6c-.579-2-1.976-4.107-4.4-6.616a6.838,6.838,0,0,0-9.49-.342L4.069,1.8,4,1.862A14.579,14.579,0,0,0,0,12.541c.037,7.387,4.1,15.835,10.86,22.6a43.793,43.793,0,0,0,4.308,3.751,1.8,1.8,0,1,0,2.187-2.852A40.205,40.205,0,0,1,13.4,32.6C7.293,26.489,3.627,18.985,3.594,12.523A11.1,11.1,0,0,1,6.508,4.436l.014-.012a3.232,3.232,0,0,1,4.5.162c4.653,4.825,4.315,7.1,2.259,9.21L9.952,17.152a1.8,1.8,0,0,0-.366,2,36.313,36.313,0,0,0,7.225,9.8l.236.236a36.3,36.3,0,0,0,9.8,7.224,1.8,1.8,0,0,0,2-.366L32.2,32.717c2.108-2.056,4.385-2.392,9.21,2.259a3.233,3.233,0,0,1,.163,4.5l-.013.014a11.067,11.067,0,0,1-8.005,2.914h-.082a23.292,23.292,0,0,1-8.866-2.1,1.8,1.8,0,0,0-1.423,3.3A26.506,26.506,0,0,0,33.459,46h.1a14.548,14.548,0,0,0,10.578-4l.066-.07.046-.052a6.837,6.837,0,0,0-.342-9.489Zm0,0" transform="translate(0 0)" fill="#2dbdca"/>
</svg>
