<svg xmlns="http://www.w3.org/2000/svg" width="43" height="43" viewBox="0 0 43 43"><defs><style>.a,.b{fill:#2dbdca;}.a{opacity:0.13;}</style></defs><g transform="translate(3.882)"><rect class="a" width="43" height="43" rx="11" transform="translate(-3.882)"/><g transform="translate(7.3 11.435)"><g transform="translate(6.933 -0.001)"><g transform="translate(0 0)"><path class="b" d="M181.8,1.551a5.317,5.317,0,0,0-7.508,0l-4.377,4.377,4.97,4.97a5.808,5.808,0,0,1,6.065-.91l.85-.929A5.316,5.316,0,0,0,181.8,1.551Z" transform="translate(-169.915 0.001)"/></g></g><g transform="translate(0.263 6.762)"><g transform="translate(0)"><path class="b" d="M11.076,176.985,6.1,172.008,1.815,176.3a5.337,5.337,0,0,0,7.547,7.547l.868-.873a5.806,5.806,0,0,1,.845-5.986Z" transform="translate(-0.263 -172.008)"/></g></g><g transform="translate(10.935 10.752)"><path class="b" d="M271.7,278.137a4.7,4.7,0,0,0,4.129,4.659v-9.319A4.7,4.7,0,0,0,271.7,278.137Z" transform="translate(-271.703 -273.478)"/></g><g transform="translate(16.244 10.752)"><path class="b" d="M406.722,273.478V282.8a4.694,4.694,0,0,0,0-9.319Z" transform="translate(-406.722 -273.478)"/></g></g></g></svg>