<svg xmlns="http://www.w3.org/2000/svg" width="30.408" height="30.439" viewBox="0 0 30.408 30.439"><defs><style>.a{fill:#c9c9c9;}</style></defs><g transform="translate(-0.263 0.001)"><g transform="translate(10.349 -0.001)"><g transform="translate(0 0)"><path class="a" d="M187.886,2.346a8.039,8.039,0,0,0-11.353,0l-6.619,6.619,7.514,7.514A8.782,8.782,0,0,1,186.6,15.1l1.286-1.4A8.038,8.038,0,0,0,187.886,2.346Z" transform="translate(-169.915 0.001)"/></g></g><g transform="translate(0.263 10.226)"><g transform="translate(0)"><path class="a" d="M16.612,179.533l-7.525-7.525L2.61,178.492A8.07,8.07,0,0,0,14.022,189.9l1.313-1.319a8.779,8.779,0,0,1,1.277-9.052Z" transform="translate(-0.263 -172.008)"/></g></g><g transform="translate(16.4 16.258)"><path class="a" d="M271.7,280.523a7.112,7.112,0,0,0,6.243,7.045V273.478A7.112,7.112,0,0,0,271.7,280.523Z" transform="translate(-271.703 -273.478)"/></g><g transform="translate(24.428 16.258)"><path class="a" d="M406.722,273.478v14.091a7.1,7.1,0,0,0,0-14.091Z" transform="translate(-406.722 -273.478)"/></g></g></svg>