<svg xmlns="http://www.w3.org/2000/svg" width="87.387" height="87.392" viewBox="0 0 87.387 87.392"><defs><style>.a{fill:#ff9500;}</style></defs><g transform="translate(0 0)"><path class="a" d="M68.14,5.922a19.9,19.9,0,0,0-28.162-.163l-.164.163L23.26,22.476a2.025,2.025,0,0,0-.777.777L5.827,39.889A19.957,19.957,0,0,0,34.112,68.051l.02-.02,16.636-16.7a2.047,2.047,0,0,0,.593-.593L67.977,34.085A19.915,19.915,0,0,0,68.14,5.922ZM31.231,65.149A15.868,15.868,0,0,1,8.729,42.77L24.343,27.156l22.4,22.44ZM65.095,31.162,49.624,46.674l-22.4-22.4L42.716,8.783A15.824,15.824,0,0,1,65.095,31.162Z" transform="translate(-0.013 0)"/></g><g transform="translate(38.652 14.454)"><path class="a" d="M199.709,71.35a2,2,0,0,0-2.882-.02l-7.071,6.949A2.038,2.038,0,0,0,192.6,81.2l.02-.02,7.051-6.949A2.036,2.036,0,0,0,199.709,71.35Z" transform="translate(-189.137 -70.727)"/></g><g transform="translate(47.744 47.677)"><path class="a" d="M267.477,239.171l-.02-.02a19.668,19.668,0,0,0-27.835-.184l-.184.184a19.827,19.827,0,1,0,28.04.02Zm-29.756,14a15.728,15.728,0,0,1,25.3-12.487L240.97,262.756A15.819,15.819,0,0,1,237.721,253.171Zm26.854,11.118a15.741,15.741,0,0,1-20.7,1.349l22.052-22.052A15.7,15.7,0,0,1,264.575,264.288Z" transform="translate(-233.626 -233.287)"/></g></svg>