<svg xmlns="http://www.w3.org/2000/svg" width="20.118" height="20.165" viewBox="0 0 20.118 20.165">
  <g id="pills-icon" transform="translate(-7.552 -11.434)">
    <g id="Group_21" data-name="Group 21" transform="translate(7.3 11.435)">
      <g id="Group_16" data-name="Group 16" transform="translate(6.933 -0.001)">
        <g id="Group_15" data-name="Group 15">
          <path id="Path_11" data-name="Path 11" d="M181.8,1.551a5.317,5.317,0,0,0-7.508,0l-4.377,4.377,4.97,4.97a5.808,5.808,0,0,1,6.065-.91l.85-.929a5.316,5.316,0,0,0,0-7.508Z" transform="translate(-169.915 0.001)" fill="#2dbdca"/>
        </g>
      </g>
      <g id="Group_18" data-name="Group 18" transform="translate(0.263 6.762)">
        <g id="Group_17" data-name="Group 17">
          <path id="Path_12" data-name="Path 12" d="M11.076,176.985,6.1,172.008,1.815,176.3a5.337,5.337,0,1,0,7.547,7.547l.868-.873a5.806,5.806,0,0,1,.845-5.986Z" transform="translate(-0.263 -172.008)" fill="#2dbdca"/>
        </g>
      </g>
      <g id="Group_19" data-name="Group 19" transform="translate(10.935 10.752)">
        <path id="Path_13" data-name="Path 13" d="M271.7,278.137a4.7,4.7,0,0,0,4.129,4.659v-9.319A4.7,4.7,0,0,0,271.7,278.137Z" transform="translate(-271.703 -273.478)" fill="#2dbdca"/>
      </g>
      <g id="Group_20" data-name="Group 20" transform="translate(16.244 10.752)">
        <path id="Path_14" data-name="Path 14" d="M406.722,273.478V282.8a4.694,4.694,0,0,0,0-9.319Z" transform="translate(-406.722 -273.478)" fill="#2dbdca"/>
      </g>
    </g>
  </g>
</svg>
