<svg xmlns="http://www.w3.org/2000/svg" width="48.29" height="48.293" viewBox="0 0 48.29 48.293"><defs><style>.a{fill:#2dbdca;}</style></defs><g transform="translate(0 0)"><path class="a" d="M37.66,3.273A11,11,0,0,0,22.1,3.182l-.09.09-9.148,9.148a1.119,1.119,0,0,0-.429.429l-9.2,9.193a11.028,11.028,0,0,0,15.63,15.563l.011-.011,9.193-9.227a1.131,1.131,0,0,0,.328-.328l9.182-9.2A11.005,11.005,0,0,0,37.66,3.273ZM17.264,36A8.768,8.768,0,0,1,4.83,23.635l8.628-8.628,12.378,12.4ZM35.978,17.22l-8.549,8.572L15.05,13.414l8.561-8.561A8.744,8.744,0,0,1,35.978,17.22Z" transform="translate(-0.013 0)"/></g><g transform="translate(21.359 7.988)"><path class="a" d="M194.979,71.071a1.1,1.1,0,0,0-1.592-.011l-3.908,3.84a1.126,1.126,0,1,0,1.57,1.615l.011-.011,3.9-3.84A1.125,1.125,0,0,0,194.979,71.071Z" transform="translate(-189.138 -70.727)"/></g><g transform="translate(26.383 26.347)"><path class="a" d="M252.332,236.539l-.011-.011a10.869,10.869,0,0,0-15.382-.1l-.1.1a10.957,10.957,0,1,0,15.495.011Zm-16.444,7.736a8.691,8.691,0,0,1,13.982-6.9l-12.186,12.2A8.742,8.742,0,0,1,235.888,244.275Zm14.84,6.144a8.7,8.7,0,0,1-11.44.745l12.186-12.186A8.673,8.673,0,0,1,250.728,250.419Z" transform="translate(-233.626 -233.287)"/></g></svg>