<svg xmlns="http://www.w3.org/2000/svg" width="27.203" height="26.465" viewBox="0 0 27.203 26.465">
  <g id="Polygon_3" data-name="Polygon 3" fill="none">
    <path d="M11.994,2.169a2,2,0,0,1,3.214,0l3.335,4.5a2,2,0,0,0,.938.694l5.28,1.876a2,2,0,0,1,.984,3.01l-3.226,4.74a2,2,0,0,0-.346,1.086l-.113,5.731a2,2,0,0,1-2.591,1.871l-5.275-1.634a2,2,0,0,0-1.184,0L7.734,25.678a2,2,0,0,1-2.591-1.871L5.03,18.076a2,2,0,0,0-.346-1.086l-3.226-4.74a2,2,0,0,1,.984-3.01l5.28-1.876a2,2,0,0,0,.938-.694Z" stroke="none"/>
    <path d="M 13.60140991210938 3.359949111938477 L 13.60141372680664 3.359943389892578 L 10.26691436767578 7.861293792724609 C 9.792043685913086 8.502363204956055 9.14366340637207 8.982402801513672 8.391874313354492 9.249513626098633 L 3.111484527587891 11.12557411193848 L 6.337314605712891 15.86515331268311 C 6.775012969970703 16.50824356079102 7.014463424682617 17.25927352905273 7.029783248901367 18.03706359863281 L 7.142574310302734 23.7676830291748 L 12.41787338256836 22.13367462158203 C 12.80152416229248 22.01483345031738 13.1997241973877 21.95457458496094 13.60141372680664 21.95457458496094 C 14.00309371948242 21.95457458496094 14.40129375457764 22.01483345031738 14.7849235534668 22.13366317749023 L 20.06020355224609 23.76766586303711 C 20.06021881103516 23.76765632629395 20.06023025512695 23.76764678955078 20.06024360656738 23.7676830291748 L 20.17304420471191 18.03704452514648 C 20.18836402893066 17.25927352905273 20.42781448364258 16.50824356079102 20.86551284790039 15.86514377593994 L 24.09135437011719 11.12558364868164 L 18.81093406677246 9.249504089355469 C 18.05918502807617 8.982414245605469 17.41081237792969 8.502384185791016 16.9359245300293 7.861312866210938 L 13.60141372680664 3.359952926635742 C 13.60141277313232 3.359952926635742 13.60141086578369 3.359951019287109 13.60140991210938 3.359949111938477 M 13.60140895843506 1.359949111938477 C 14.20506381988525 1.359949111938477 14.80871868133545 1.629783630371094 15.20849418640137 2.169454574584961 L 18.54301452636719 6.67082405090332 C 18.77960395812988 6.990203857421875 19.10599327087402 7.231853485107422 19.48052406311035 7.364923477172852 L 24.76092338562012 9.240993499755859 C 25.9957332611084 9.679702758789063 26.48205375671387 11.16757392883301 25.74472427368164 12.25089359283447 L 22.51889419555664 16.99046325683594 C 22.30059432983398 17.31120300292969 22.18029403686523 17.68851470947266 22.17265319824219 18.07642364501953 L 22.05985260009766 23.80704307556152 C 22.03778076171875 24.92875099182129 21.1143627166748 25.76898384094238 20.06342124938965 25.76898384094238 C 19.86781120300293 25.76898384094238 19.66796493530273 25.73991966247559 19.4684944152832 25.67813301086426 L 14.19316387176514 24.04411315917969 C 14.00043392181396 23.98441886901855 13.80092334747314 23.95457077026367 13.60141277313232 23.95457077026367 C 13.40190124511719 23.95457077026367 13.20238876342773 23.98441886901855 13.00965404510498 24.04411315917969 L 7.734333038330078 25.67813301086426 C 7.534938812255859 25.73989486694336 7.334943771362305 25.76898384094238 7.139406204223633 25.76898384094238 C 6.088369369506836 25.76898384094238 5.165046691894531 24.9288330078125 5.142972946166992 23.80704307556152 L 5.030174255371094 18.07642364501953 C 5.022533416748047 17.68851470947266 4.902233123779297 17.31120300292969 4.683933258056641 16.99046325683594 L 1.458103179931641 12.25089359283447 C 0.7207736968994141 11.16758346557617 1.207094192504883 9.679714202880859 2.441904067993164 9.240993499755859 L 7.72230339050293 7.364923477172852 C 8.096834182739258 7.231853485107422 8.423223495483398 6.990213394165039 8.659812927246094 6.67082405090332 L 11.99432373046875 2.169454574584961 C 12.39409828186035 1.629783630371094 12.99775409698486 1.359949111938477 13.60140895843506 1.359949111938477 Z" stroke="none" fill="#6e6e6e"/>
  </g>
</svg>
