<svg xmlns="http://www.w3.org/2000/svg" width="18.103" height="18.103" viewBox="0 0 18.103 18.103"><defs><style>.a{fill:#afafaf;}</style></defs><path class="a" d="M18.1,12.251a5.865,5.865,0,0,0-4.285-5.639A6.912,6.912,0,1,0,.959,10.426L.025,13.8,3.4,12.866a6.887,6.887,0,0,0,3.213.951,5.853,5.853,0,0,0,8.616,3.472l2.849.788-.788-2.849a5.831,5.831,0,0,0,.813-2.977ZM3.566,11.719l-2.019.559.559-2.019-.127-.2a5.85,5.85,0,1,1,1.787,1.787Zm12.99,4.837-1.5-.415-.2.13a4.793,4.793,0,0,1-7.148-2.493,6.925,6.925,0,0,0,6.069-6.069,4.793,4.793,0,0,1,2.493,7.148l-.13.2Zm0,0"/><path class="a" d="M180.5,271h1.061v1.061H180.5Zm0,0" transform="translate(-174.118 -261.418)"/><path class="a" d="M138.682,92.122a1.05,1.05,0,0,1-.345.783l-1.246,1.14v1.294h1.061v-.827l.9-.825a2.121,2.121,0,1,0-3.553-1.566h1.061a1.061,1.061,0,1,1,2.121,0Zm0,0" transform="translate(-130.709 -86.818)"/></svg>