<svg id="Group_140" data-name="Group 140" xmlns="http://www.w3.org/2000/svg" width="30.64" height="30.64" viewBox="0 0 30.64 30.64">
  <circle id="Ellipse_68" data-name="Ellipse 68" cx="15.32" cy="15.32" r="15.32" transform="translate(0 0)" fill="#f62323"/>
  <g id="Group_136" data-name="Group 136" transform="translate(2.062 1.751)">
    <path id="Path_1688" data-name="Path 1688" d="M237.457,228a13.457,13.457,0,1,0,13.457,13.457A13.472,13.472,0,0,0,237.457,228Zm0,25.33a11.874,11.874,0,1,1,11.874-11.874A11.887,11.887,0,0,1,237.457,253.33Z" transform="translate(-224 -228)" fill="#f62323"/>
    <path id="Path_1689" data-name="Path 1689" d="M301.172,292.232a.792.792,0,0,0-1.119,0l-5.351,5.351-5.351-5.351a.792.792,0,0,0-1.119,1.119l5.351,5.351-5.351,5.351a.792.792,0,1,0,1.119,1.119l5.351-5.351,5.351,5.351a.792.792,0,0,0,1.119-1.119l-5.351-5.351,5.351-5.351A.792.792,0,0,0,301.172,292.232Z" transform="translate(-281.246 -285.245)" fill="#fff"/>
  </g>
</svg>
