<svg xmlns="http://www.w3.org/2000/svg" width="23.021" height="22.066" viewBox="0 0 23.021 22.066">
  <g id="Icon_feather-shopping-cart" data-name="Icon feather-shopping-cart" transform="translate(-0.5 -0.5)">
    <path id="Path_14" data-name="Path 14" d="M13.911,30.956A.956.956,0,1,1,12.956,30,.956.956,0,0,1,13.911,30.956Z" transform="translate(-3.811 -10.345)" fill="none" stroke="#ff7500" stroke-linecap="round" stroke-linejoin="round" stroke-width="2"/>
    <path id="Path_15" data-name="Path 15" d="M30.411,30.956A.956.956,0,1,1,29.456,30,.956.956,0,0,1,30.411,30.956Z" transform="translate(-9.801 -10.345)" fill="none" stroke="#ff7500" stroke-linecap="round" stroke-linejoin="round" stroke-width="2"/>
    <path id="Path_16" data-name="Path 16" d="M1.5,1.5H5.322L7.883,14.294a1.911,1.911,0,0,0,1.911,1.538h9.288a1.911,1.911,0,0,0,1.911-1.538l1.529-8.017H6.278" fill="none" stroke="#ff7500" stroke-linecap="round" stroke-linejoin="round" stroke-width="2"/>
  </g>
</svg>
