<svg xmlns="http://www.w3.org/2000/svg" width="29.555" height="30.717" viewBox="0 0 29.555 30.717"><defs><style>.a{fill:none;stroke:#2dbdca;stroke-linecap:round;stroke-linejoin:round;stroke-width:1.5px;}</style></defs><g transform="translate(-0.641 -0.641)"><path class="a" d="M15.913,13.13H18.7V8.956h4.174V6.174H18.7V2H15.913V6.174H11.739V8.956h4.174ZM10.348,25.652a2.783,2.783,0,1,0,2.783,2.783A2.77,2.77,0,0,0,10.348,25.652Zm13.913,0a2.783,2.783,0,1,0,2.783,2.783A2.77,2.77,0,0,0,24.26,25.652ZM10.591,21.13a.33.33,0,0,1,.042-.167L11.885,18.7H22.25a2.792,2.792,0,0,0,2.435-1.433l5.37-9.753L27.62,6.174h-.007L26.076,8.956l-3.833,6.956h-9.76l-.181-.376L9.179,8.956,7.857,6.174,6.543,3.391H2V6.174H4.783L9.791,16.727,7.906,20.135a2.829,2.829,0,0,0-.341,1.343,2.782,2.782,0,0,0,2.783,2.783h16.7V21.478h-16.1a.344.344,0,0,1-.348-.348Z" transform="translate(-0.609 -0.609)"/></g></svg>