<svg xmlns="http://www.w3.org/2000/svg" width="45.506" height="45.506" viewBox="0 0 45.506 45.506"><defs><style>.a{fill:#2dbdca;}</style></defs><path class="a" d="M45.2,10.919C41.066,5.88,32.31,0,22.753,0,13.162,0,4.4,5.92.3,10.919a1.338,1.338,0,0,0,0,1.7c4.234,5.161,13.011,10.92,22.449,10.92,9.774,0,18.493-6.1,22.449-10.919A1.338,1.338,0,0,0,45.2,10.919Zm-13.358.849a9.092,9.092,0,1,1-9.092-9.092,9.1,9.1,0,0,1,9.092,9.092Zm-28.7,0A32.326,32.326,0,0,1,13.384,4.655a11.738,11.738,0,0,0,0,14.224A31.737,31.737,0,0,1,3.146,11.769Zm28.975,7.113a11.738,11.738,0,0,0,0-14.224,31.742,31.742,0,0,1,10.236,7.11A32.325,32.325,0,0,1,32.122,18.881Z" transform="translate(0 10.984)"/><path class="a" d="M0,4.551A4.551,4.551,0,1,0,4.551,0,4.556,4.556,0,0,0,0,4.551Zm6.424,0A1.874,1.874,0,1,1,4.551,2.677,1.876,1.876,0,0,1,6.424,4.551Z" transform="translate(18.202 18.202)"/><path class="a" d="M1.338,5.8A1.338,1.338,0,0,0,2.677,4.461V1.338A1.338,1.338,0,0,0,0,1.338V4.461A1.338,1.338,0,0,0,1.338,5.8Z" transform="translate(21.414 0)"/><path class="a" d="M.676,5.624a1.338,1.338,0,0,0,1.826-.5L4.282,2A1.338,1.338,0,1,0,1.957.676L.176,3.8A1.338,1.338,0,0,0,.676,5.624Z" transform="translate(30.063 1.966)"/><path class="a" d="M1.957,5.125A1.338,1.338,0,0,0,4.282,3.8L2.5.676A1.338,1.338,0,1,0,.176,2Z" transform="translate(10.984 1.966)"/><path class="a" d="M1.338,0A1.338,1.338,0,0,0,0,1.338V4.461a1.338,1.338,0,0,0,2.677,0V1.338A1.338,1.338,0,0,0,1.338,0Z" transform="translate(21.414 39.706)"/><path class="a" d="M3.783.176a1.339,1.339,0,0,0-1.826.5L.176,3.8A1.338,1.338,0,0,0,2.5,5.125L4.282,2A1.338,1.338,0,0,0,3.783.176Z" transform="translate(10.984 37.74)"/><path class="a" d="M2.5.676A1.338,1.338,0,1,0,.176,2L1.957,5.125A1.338,1.338,0,1,0,4.282,3.8Z" transform="translate(30.063 37.74)"/></svg>