<svg xmlns="http://www.w3.org/2000/svg" width="47.049" height="41.168" viewBox="0 0 47.049 41.168">
  <path id="Icon_awesome-camera-retro" data-name="Icon awesome-camera-retro" d="M4.411,2.25A4.412,4.412,0,0,0,0,6.661V39.007a4.412,4.412,0,0,0,4.411,4.411H42.639a4.412,4.412,0,0,0,4.411-4.411V6.661A4.412,4.412,0,0,0,42.639,2.25Zm0,2.941h9.741a.553.553,0,0,1,.551.551V7.58a.553.553,0,0,1-.551.551H3.492a.553.553,0,0,1-.551-.551V6.661A1.475,1.475,0,0,1,4.411,5.191Zm39.147,8.822H3.492a.553.553,0,0,1-.551-.551V10.153A.553.553,0,0,1,3.492,9.6H16.173l2.775-4.163a.547.547,0,0,1,.459-.248H42.639a1.475,1.475,0,0,1,1.47,1.47v6.8A.553.553,0,0,1,43.557,14.012ZM23.525,38.272A11.027,11.027,0,1,1,34.552,27.245,11.036,11.036,0,0,1,23.525,38.272Zm0-19.114a8.087,8.087,0,1,0,8.087,8.087A8.1,8.1,0,0,0,23.525,19.158Zm-4.411,9.557a1.475,1.475,0,0,1-1.47-1.47,5.887,5.887,0,0,1,5.881-5.881,1.47,1.47,0,1,1,0,2.941,2.949,2.949,0,0,0-2.941,2.941A1.475,1.475,0,0,1,19.114,28.715Z" transform="translate(0 -2.25)" fill="#2dbdca"/>
</svg>
