<svg xmlns="http://www.w3.org/2000/svg" width="107.573" height="107.572" viewBox="0 0 107.573 107.572"><defs><style>.a{fill:#ff5e95;}.b{fill:#ff193d;}.c{fill:#deecf1;}.d{fill:#fff;}.e{fill:#a2d8f4;}</style></defs><g transform="translate(0 -0.001)"><path class="a" d="M44.662,116.27,15,86.609V44.662L44.662,15H86.608l29.661,29.661V86.609L86.608,116.27Z" transform="translate(-11.848 -11.848)"/><path class="b" d="M276.973,15H256V116.27h20.973l29.661-29.661V44.662Z" transform="translate(-202.214 -11.848)"/><path class="c" d="M74.759,107.573H32.814a3.15,3.15,0,0,1-2.228-.923L.923,76.989A3.152,3.152,0,0,1,0,74.761V32.814a3.151,3.151,0,0,1,.923-2.228L30.585.924A3.151,3.151,0,0,1,32.814,0H74.759a3.151,3.151,0,0,1,2.229.923l29.661,29.661a3.151,3.151,0,0,1,.923,2.228V74.761a3.151,3.151,0,0,1-.923,2.228L76.988,106.65A3.151,3.151,0,0,1,74.759,107.573Zm-40.64-6.3H73.454l27.815-27.815V34.119L73.454,6.3H34.119L6.3,34.119V73.456Z" transform="translate(0 0)"/><g transform="translate(50.635 23.631)"><path class="d" d="M244.155,375.841a3.156,3.156,0,1,1,2.227-.924A3.177,3.177,0,0,1,244.155,375.841Z" transform="translate(-241.002 -315.527)"/><path class="d" d="M244.152,152.527A3.152,3.152,0,0,1,241,149.376V115.62a3.152,3.152,0,1,1,6.3,0v33.756A3.152,3.152,0,0,1,244.152,152.527Z" transform="translate(-241 -112.468)"/></g><path class="e" d="M308.863,30.585,279.2.924A3.151,3.151,0,0,0,276.973,0H256V6.3h19.668l27.815,27.815V73.456L275.668,101.27H256v6.3h20.973a3.151,3.151,0,0,0,2.229-.923l29.661-29.661a3.151,3.151,0,0,0,.923-2.228V32.814A3.153,3.153,0,0,0,308.863,30.585Z" transform="translate(-202.214 0)"/></g></svg>