<svg xmlns="http://www.w3.org/2000/svg" width="21.183" height="25.824" viewBox="0 0 21.183 25.824">
  <g id="stethoscope" transform="translate(-46 0)">
    <path id="Path_2653" data-name="Path 2653" d="M64.914,23.176a.378.378,0,1,0,.378.378A.379.379,0,0,0,64.914,23.176Zm1.135-1.586V19.406a3.871,3.871,0,0,0-.635-2.129.378.378,0,0,0-.633.415,3.116,3.116,0,0,1,.511,1.714v1.91a2.243,2.243,0,0,0-.757,0v-1.91a2.377,2.377,0,1,0-4.754,0v2.183a3.133,3.133,0,0,1-6.267,0V20.464a1.142,1.142,0,0,0,.379.065,1.13,1.13,0,0,0,.377-.065v1.126a2.377,2.377,0,0,0,4.754,0V19.406A3.133,3.133,0,0,1,63.63,16.64a.378.378,0,1,0,.357-.667,3.889,3.889,0,0,0-5.718,3.433v2.183a1.62,1.62,0,0,1-3.241,0V16.422a7.894,7.894,0,0,0,6.759-7.812A1.148,1.148,0,0,0,61.03,7.54V3.909a2.867,2.867,0,0,0-2.094-2.767A1.414,1.414,0,0,0,57.55,0h-.757a1.412,1.412,0,0,0,0,2.824h.757a1.414,1.414,0,0,0,1.32-.911,2.113,2.113,0,0,1,1.4,2V7.542a1.158,1.158,0,0,0-.757,1.088,5.621,5.621,0,0,1-9.192,4.324.378.378,0,1,0-.481.584,6.377,6.377,0,0,0,10.43-4.905.4.4,0,0,1,.356-.4.382.382,0,0,1,.4.378A7.137,7.137,0,0,1,54.74,15.7a.53.53,0,0,0-.468.526v3.171a.383.383,0,0,1-.4.378.394.394,0,0,1-.359-.4V16.223a.53.53,0,0,0-.468-.526,7.137,7.137,0,0,1-6.29-7.087.382.382,0,0,1,.4-.378.4.4,0,0,1,.356.4A6.343,6.343,0,0,0,48.6,12.171a.378.378,0,0,0,.627-.423A5.588,5.588,0,0,1,48.27,8.63a1.158,1.158,0,0,0-.757-1.088V3.909a2.113,2.113,0,0,1,1.4-2,1.414,1.414,0,0,0,1.32.911h.757a1.412,1.412,0,0,0,0-2.824h-.757a1.414,1.414,0,0,0-1.386,1.142,2.867,2.867,0,0,0-2.094,2.767V7.54A1.149,1.149,0,0,0,46,8.611a7.894,7.894,0,0,0,6.759,7.812v5.166a3.89,3.89,0,0,0,7.78,0V19.406a1.62,1.62,0,1,1,3.241,0V21.59a2.27,2.27,0,1,0,2.27,0ZM57.55,2.068h-.757a.656.656,0,0,1,0-1.311h.757a.656.656,0,1,1,0,1.311ZM50.237.757h.757a.656.656,0,0,1,0,1.311h-.757a.656.656,0,1,1,0-1.311Zm14.677,24.31a1.513,1.513,0,1,1,1.513-1.513A1.515,1.515,0,0,1,64.914,25.067Z" transform="translate(0)" fill="#6e6e6e"/>
  </g>
</svg>
