<svg xmlns="http://www.w3.org/2000/svg" width="44.707" height="44.707" viewBox="0 0 44.707 44.707"><defs><style>.a{fill:#2dbdca;}</style></defs><path class="a" d="M28.99,36.5a13.186,13.186,0,0,0,10.478-12.92v-.132a6.549,6.549,0,1,0-2.62,0v.132A10.569,10.569,0,0,1,28.99,33.807V0H0V44.707H28.99Zm5.239-19.469a3.929,3.929,0,1,1,3.929,3.929A3.934,3.934,0,0,1,34.229,17.027ZM15.8,23.576v-.092a9.211,9.211,0,0,0,7.946-9.076V10.478H18.424V13.1h2.707v1.31a6.637,6.637,0,0,1-13.272,0V13.1h2.62v-2.62H5.239v3.929a9.211,9.211,0,0,0,7.946,9.076v.092a13.172,13.172,0,0,0,5.333,10.565H2.62V7.859H26.37V34.141A10.578,10.578,0,0,1,15.8,23.576ZM26.37,2.62v2.62H2.62V2.62Zm0,39.468H2.62V36.761H13.185v2.62H15.8v-2.62H26.37Zm0,0"/><path class="a" d="M422,180h2.62v2.62H422Zm0,0" transform="translate(-385.152 -164.283)"/><path class="a" d="M375.743,2.688a9.157,9.157,0,0,0-12.961,0l1.852,1.852a6.537,6.537,0,0,1,9.256,0Zm0,0" transform="translate(-331.104)"/><path class="a" d="M405.168,61.155,407.025,63a1.3,1.3,0,0,1,1.845,0l1.857-1.847a3.923,3.923,0,0,0-5.559,0Zm0,0" transform="translate(-369.79 -54.761)"/></svg>