<svg xmlns="http://www.w3.org/2000/svg" width="161" height="162.487" viewBox="0 0 161 162.487">
  <g id="Objects" transform="translate(-64.77 -46.78)">
    <g id="Group_5" data-name="Group 5" transform="translate(64.77 48.181)">
      <path id="Path_1" data-name="Path 1" d="M311.182,106.174l4.3-2.676.458-2.064-3.106,1.869Z" transform="translate(-205.799 -78.659)" fill="#68c8bf"/>
      <path id="Path_2" data-name="Path 2" d="M312.2,110.757l-1.62,1.2.259-3.277,1.655-2.871Z" transform="translate(-205.453 -81.16)" fill="#ed534f"/>
      <path id="Path_3" data-name="Path 3" d="M130.864,101.26l-.492-4.861-1.593-1.272.3,3.482Z" transform="translate(-101.404 -75.05)" fill="#68c8bf"/>
      <path id="Path_4" data-name="Path 4" d="M133.647,105.624l.348,1.91-2.728-1.614-1.785-2.651Z" transform="translate(-101.807 -79.71)" fill="#ed534f"/>
      <path id="Path_5" data-name="Path 5" d="M240.675,72.769l-.713,3.029,3.731,3.795.682-2.9Z" transform="translate(-165.038 -62.253)" fill="#ced7db"/>
      <path id="Path_6" data-name="Path 6" d="M240.72,87.018l-.713,3.029,2.555,2.616.682-2.9Z" transform="translate(-165.064 -70.409)" fill="#ced7db"/>
      <path id="Path_7" data-name="Path 7" d="M243.718,84.848l-3.712,2.3.713-3.029,3.681-2.167Z" transform="translate(-165.064 -67.509)" fill="#788f9b"/>
      <path id="Path_8" data-name="Path 8" d="M220.508,136.959l.51,2.844,4.58,1.859-.487-2.72Z" transform="translate(-153.904 -98.991)" fill="#fec928"/>
      <path id="Path_9" data-name="Path 9" d="M225.8,149.088l.509,2.844,3.143,1.287-.487-2.72Z" transform="translate(-156.934 -105.933)" fill="#fec928"/>
      <path id="Path_10" data-name="Path 10" d="M228.627,144.316l-2.316,3.329L225.8,144.8l2.338-3.2Z" transform="translate(-156.934 -101.645)" fill="#feb200"/>
      <path id="Path_11" data-name="Path 11" d="M230.991,155.11l-2.047,3.113-.456-2.545,2.016-3.288Z" transform="translate(-158.471 -107.823)" fill="#feb200"/>
      <path id="Path_12" data-name="Path 12" d="M191.4,97.256l.594,1.421,1.891.5-.568-1.359Z" transform="translate(-137.244 -76.268)" fill="#ff98aa"/>
      <path id="Path_13" data-name="Path 13" d="M197.806,105.322l-.705,1.857-.531-1.271.669-1.944Z" transform="translate(-140.203 -80.107)" fill="#ee293d"/>
      <path id="Path_14" data-name="Path 14" d="M193.9,103.1l.594,1.421,1.784.307-.568-1.359Z" transform="translate(-138.676 -79.614)" fill="#ff98aa"/>
      <path id="Path_15" data-name="Path 15" d="M195.316,99.93l-.82,2-.594-1.421.846-1.937Z" transform="translate(-138.676 -77.021)" fill="#ee293d"/>
      <path id="Path_16" data-name="Path 16" d="M314.206,145.139l-1.8,2.308-3.718-.032,1.723-2.207Z" transform="translate(-204.371 -103.673)" fill="#ff98aa"/>
      <path id="Path_17" data-name="Path 17" d="M301.847,156.265l.362,3.758,1.613-2.065-.251-3.9Z" transform="translate(-200.457 -108.778)" fill="#ee293d"/>
      <path id="Path_18" data-name="Path 18" d="M307.074,154.291l-1.8,2.308-3.425-.333,1.724-2.207Z" transform="translate(-200.457 -108.778)" fill="#ff98aa"/>
      <path id="Path_19" data-name="Path 19" d="M308.686,147.508l.5,4.078,1.8-2.308-.579-3.978Z" transform="translate(-204.371 -103.766)" fill="#ee293d"/>
      <path id="Path_20" data-name="Path 20" d="M156.78,164.988l4.444-.967,2.379,3.7-1.732.762-2.853-.7Z" transform="translate(-117.43 -114.48)" fill="#ee293d"/>
      <path id="Path_21" data-name="Path 21" d="M162.013,171.854l1.931-.715.922,1.414Z" transform="translate(-120.426 -118.554)" fill="#ffda1a"/>
      <path id="Path_22" data-name="Path 22" d="M271.684,164.646l3.079.419L277.224,163l-2.1-.149-2.11.87Z" transform="translate(-183.194 -113.809)" fill="#c4c524"/>
      <path id="Path_23" data-name="Path 23" d="M274.8,162.944l.565-1.449,1.546.579Z" transform="translate(-184.975 -113.034)" fill="#d2e09f"/>
      <path id="Path_24" data-name="Path 24" d="M401.231,99.4l3-.793,1.481-2.852-2,.667-1.616,1.612Z" transform="translate(-257.337 -75.408)" fill="#ffda1a"/>
      <path id="Path_25" data-name="Path 25" d="M403.23,98.924l-.034-1.554,1.65-.057Z" transform="translate(-258.462 -76.3)" fill="#c4c524"/>
      <path id="Path_26" data-name="Path 26" d="M338.219,177.927l3.092-.311,1.911-2.583-2.075.344-1.849,1.337Z" transform="translate(-221.274 -120.783)" fill="#c4c524"/>
      <path id="Path_27" data-name="Path 27" d="M340.741,176.9l.211-1.54,1.638.2Z" transform="translate(-222.717 -120.972)" fill="#d2e09f"/>
      <path id="Path_28" data-name="Path 28" d="M302.066,74.687a1.017,1.017,0,1,1-1.017-1.017A1.017,1.017,0,0,1,302.066,74.687Z" transform="translate(-199.418 -62.769)" fill="#ee293d"/>
      <rect id="Rectangle_2" data-name="Rectangle 2" width="2.661" height="2.505" transform="translate(151.305 50.847) rotate(17.716)" fill="#fe293d"/>
      <rect id="Rectangle_3" data-name="Rectangle 3" width="1.861" height="1.751" transform="translate(155.671 39.023) rotate(17.716)" fill="#ccc"/>
      <rect id="Rectangle_4" data-name="Rectangle 4" width="1.154" height="1.154" transform="translate(134.415 58.683)" fill="#68c8bf"/>
      <path id="Path_29" data-name="Path 29" d="M264.409,118.035a.8.8,0,1,1-.795-.8A.8.8,0,0,1,264.409,118.035Z" transform="translate(-178.12 -87.706)" fill="#68c8bf"/>
      <path id="Path_30" data-name="Path 30" d="M212.832,59.268a1.162,1.162,0,1,1-1.162-1.162A1.162,1.162,0,0,1,212.832,59.268Z" transform="translate(-148.181 -53.861)" fill="#c4c524"/>
      <path id="Path_31" data-name="Path 31" d="M199.328,82.411a.913.913,0,1,1-.913-.913A.913.913,0,0,1,199.328,82.411Z" transform="translate(-140.737 -67.249)" fill="#ffda1a"/>
      <circle id="Ellipse_1" data-name="Ellipse 1" cx="0.751" cy="0.751" r="0.751" transform="translate(49.983 39.048)" fill="#ffda1a"/>
      <path id="Path_32" data-name="Path 32" d="M149.113,122.447a.639.639,0,1,1-.639-.639A.639.639,0,0,1,149.113,122.447Z" transform="translate(-112.311 -90.32)" fill="#c4c524"/>
      <path id="Path_33" data-name="Path 33" d="M81.126,175.669a1.027,1.027,0,1,1-1.027-1.027A1.028,1.028,0,0,1,81.126,175.669Z" transform="translate(-72.955 -120.559)" fill="none" stroke="#c4c524" stroke-miterlimit="10" stroke-width="1"/>
      <circle id="Ellipse_2" data-name="Ellipse 2" cx="0.614" cy="0.614" r="0.614" transform="translate(24.866 50.289)" fill="#ee293d"/>
      <rect id="Rectangle_5" data-name="Rectangle 5" width="1.527" height="1.201" transform="translate(46.83 63.201)" fill="#ee293d"/>
      <path id="Path_34" data-name="Path 34" d="M333.207,121.307c.869.543,2.5-.8,1.759-2.041s.326-2.28,1.585-1.78,2.3-.716,1.5-1.975" transform="translate(-218.405 -86.715)" fill="none" stroke="#c4c524" stroke-linecap="round" stroke-miterlimit="10" stroke-width="2"/>
      <path id="Path_35" data-name="Path 35" d="M154.864,82.04a1.144,1.144,0,0,1,.928,1.694c-.353.692.162,1.369.987,1.546a1.081,1.081,0,0,1,.884,1.546" transform="translate(-116.334 -67.56)" fill="none" stroke="#8fa3ad" stroke-linecap="round" stroke-miterlimit="10" stroke-width="1"/>
      <path id="Path_36" data-name="Path 36" d="M361.194,162.085a1.327,1.327,0,0,1,2.135-1.22,1.133,1.133,0,0,0,1.786-1.2c-.153-1.177,1.227-1.652,2.135-1.2,1.177.588,2.44.13,2.309-1.307" transform="translate(-234.416 -110.554)" fill="none" stroke="#ced7db" stroke-linecap="round" stroke-miterlimit="10" stroke-width="1"/>
      <rect id="Rectangle_6" data-name="Rectangle 6" width="1.615" height="1.615" transform="translate(20.901 41.02) rotate(-9.486)" fill="none" stroke="#ced7db" stroke-linecap="round" stroke-miterlimit="10" stroke-width="1"/>
      <rect id="Rectangle_7" data-name="Rectangle 7" width="1.868" height="1.868" transform="translate(29.606 58.632) rotate(-22.202)" fill="none" stroke="#ced7db" stroke-linecap="round" stroke-miterlimit="10" stroke-width="1"/>
      <path id="Path_37" data-name="Path 37" d="M76.4,151.016a1.816,1.816,0,0,1,2.918,1.109,1.506,1.506,0,0,0,2.422.9,1.814,1.814,0,0,1,2.626,1.2,1.312,1.312,0,0,0,1.955.875" transform="translate(-71.427 -106.808)" fill="none" stroke="#fe5722" stroke-linecap="round" stroke-miterlimit="10" stroke-width="1"/>
      <rect id="Rectangle_8" data-name="Rectangle 8" width="1.615" height="1.615" transform="translate(93.686 14.058) rotate(61.13)" fill="none" stroke="#ced7db" stroke-linecap="round" stroke-miterlimit="10" stroke-width="1"/>
      <rect id="Rectangle_9" data-name="Rectangle 9" width="1.868" height="1.868" transform="translate(79.962 28.115) rotate(48.414)" fill="none" stroke="#ced7db" stroke-linecap="round" stroke-miterlimit="10" stroke-width="1"/>
      <path id="Path_38" data-name="Path 38" d="M269.056,48.181a2.1,2.1,0,0,1-.343,3.589,1.739,1.739,0,0,0-.267,2.974,2.1,2.1,0,0,1-.529,3.29,1.516,1.516,0,0,0-.377,2.445" transform="translate(-180.56 -48.181)" fill="none" stroke="#8fa3ad" stroke-linecap="round" stroke-miterlimit="10" stroke-width="2"/>
      <rect id="Rectangle_10" data-name="Rectangle 10" width="1.615" height="1.615" transform="matrix(-0.183, 0.983, -0.983, -0.183, 131.702, 40.004)" fill="none" stroke="#ced7db" stroke-linecap="round" stroke-miterlimit="10" stroke-width="1"/>
      <rect id="Rectangle_11" data-name="Rectangle 11" width="1.869" height="1.868" transform="translate(103.635 61.482) rotate(96.837)" fill="none" stroke="#ced7db" stroke-linecap="round" stroke-miterlimit="10" stroke-width="1"/>
      <path id="Path_39" data-name="Path 39" d="M183.853,358.07l-3.133,1.948-.333,1.5,2.262-1.361Z" transform="translate(-130.941 -225.54)" fill="#68c8bf"/>
      <path id="Path_40" data-name="Path 40" d="M185.888,353.361l1.18-.87-.188,2.386-1.2,2.091Z" transform="translate(-133.967 -222.347)" fill="#ed534f"/>
      <path id="Path_41" data-name="Path 41" d="M367.229,361.706l.372,3.671,1.2.961-.227-2.63Z" transform="translate(-237.877 -227.621)" fill="#68c8bf"/>
      <path id="Path_42" data-name="Path 42" d="M362.675,360.3l-.263-1.442,2.06,1.219,1.348,2Z" transform="translate(-235.12 -225.99)" fill="#ed534f"/>
      <path id="Path_43" data-name="Path 43" d="M254.927,387.079l.554-2.355-2.9-2.951-.53,2.252Z" transform="translate(-171.956 -239.106)" fill="#ced7db"/>
      <path id="Path_44" data-name="Path 44" d="M256.116,377.224l.554-2.355-1.987-2.035-.53,2.252Z" transform="translate(-173.16 -233.99)" fill="#ced7db"/>
      <path id="Path_45" data-name="Path 45" d="M252.58,379.379l2.887-1.788-.554,2.355-2.862,1.685Z" transform="translate(-171.956 -236.713)" fill="#788f9b"/>
      <path id="Path_46" data-name="Path 46" d="M273.445,325.283l-.413-2.3-3.71-1.506.395,2.2Z" transform="translate(-181.842 -204.594)" fill="#fec928"/>
      <path id="Path_47" data-name="Path 47" d="M270.715,316.076l-.413-2.3-2.546-1.043.395,2.2Z" transform="translate(-180.945 -199.589)" fill="#fec928"/>
      <path id="Path_48" data-name="Path 48" d="M269.322,317.864l1.876-2.7.413,2.3-1.894,2.6Z" transform="translate(-181.842 -200.985)" fill="#feb200"/>
      <path id="Path_49" data-name="Path 49" d="M267.756,309.352l1.659-2.522.369,2.062-1.633,2.664Z" transform="translate(-180.945 -196.214)" fill="#feb200"/>
      <g id="Group_1" data-name="Group 1" transform="translate(100.998 131.549)">
        <path id="Path_50" data-name="Path 50" d="M308.357,374.048l-.931-2.228-2.964-.784.89,2.13Z" transform="translate(-302.951 -364.51)" fill="#ff98aa"/>
        <path id="Path_51" data-name="Path 51" d="M300.929,358.688l1.106-2.91.833,1.993-1.049,3.047Z" transform="translate(-300.929 -355.777)" fill="#ee293d"/>
        <path id="Path_52" data-name="Path 52" d="M304.657,365.291l-.931-2.228-2.8-.481.89,2.13Z" transform="translate(-300.929 -359.672)" fill="#ff98aa"/>
        <path id="Path_53" data-name="Path 53" d="M304.462,366.841l1.286-3.135.931,2.228-1.326,3.037Z" transform="translate(-302.951 -360.315)" fill="#ee293d"/>
      </g>
      <g id="Group_2" data-name="Group 2" transform="translate(48.546 108.933)">
        <path id="Path_54" data-name="Path 54" d="M178.283,321.865l1.728-2.213,3.566.03-1.653,2.117Z" transform="translate(-178.283 -312.486)" fill="#ff98aa"/>
        <path id="Path_55" data-name="Path 55" d="M194.687,306.5l-.347-3.6-1.547,1.98.241,3.741Z" transform="translate(-186.587 -302.895)" fill="#ee293d"/>
        <path id="Path_56" data-name="Path 56" d="M185.5,312.79l1.728-2.213,3.285.32-1.653,2.116Z" transform="translate(-182.412 -307.292)" fill="#ff98aa"/>
        <path id="Path_57" data-name="Path 57" d="M187.706,314.488l-.48-3.911L185.5,312.79l.555,3.815Z" transform="translate(-182.412 -307.292)" fill="#ee293d"/>
      </g>
      <g id="Group_3" data-name="Group 3" transform="translate(111.825 105.171)">
        <path id="Path_58" data-name="Path 58" d="M334.776,298.463l-5.556,1.208-2.974-4.621,2.166-.953,3.567.875Z" transform="translate(-326.245 -294.097)" fill="#ee293d"/>
        <path id="Path_59" data-name="Path 59" d="M334.876,294.972l-2.414.893L331.31,294.1Z" transform="translate(-329.144 -294.097)" fill="#ffda1a"/>
      </g>
      <path id="Path_60" data-name="Path 60" d="M221.792,302.39l-3.079-.418-2.461,2.066,2.1.149,2.11-.87Z" transform="translate(-151.468 -193.433)" fill="#c4c524"/>
      <path id="Path_61" data-name="Path 61" d="M223.269,305.118l-.564,1.449-1.546-.579Z" transform="translate(-154.276 -195.234)" fill="#d2e09f"/>
      <path id="Path_62" data-name="Path 62" d="M101.609,347.228l-4.569,1.206-2.253,4.337,3.035-1.014,2.457-2.451Z" transform="translate(-81.95 -219.335)" fill="#ffda1a"/>
      <path id="Path_63" data-name="Path 63" d="M104.341,352.088l.051,2.364-2.509.087Z" transform="translate(-86.011 -222.116)" fill="#c4c524"/>
      <path id="Path_64" data-name="Path 64" d="M155.975,288.2l-3.092.311-1.911,2.583,2.075-.344,1.849-1.337Z" transform="translate(-114.106 -185.551)" fill="#c4c524"/>
      <path id="Path_65" data-name="Path 65" d="M157.674,291.034l-.211,1.54-1.638-.2Z" transform="translate(-116.884 -187.173)" fill="#d2e09f"/>
      <circle id="Ellipse_3" data-name="Ellipse 3" cx="1.017" cy="1.017" r="1.017" transform="translate(56.166 146.858)" fill="#ee293d"/>
      <rect id="Rectangle_12" data-name="Rectangle 12" width="2.661" height="2.505" transform="translate(7.509 108.946) rotate(-162.284)" fill="#fe293d"/>
      <rect id="Rectangle_13" data-name="Rectangle 13" width="1.891" height="1.891" transform="translate(24.767 101.479) rotate(180)" fill="#68c8bf"/>
      <circle id="Ellipse_4" data-name="Ellipse 4" cx="0.795" cy="0.795" r="0.795" transform="translate(72.525 128.669)" fill="#68c8bf"/>
      <path id="Path_66" data-name="Path 66" d="M284.947,407.62a1.162,1.162,0,1,1,1.162,1.162A1.162,1.162,0,0,1,284.947,407.62Z" transform="translate(-190.784 -253.234)" fill="#c4c524"/>
      <path id="Path_67" data-name="Path 67" d="M299.117,385.145a.913.913,0,1,1,.914.913A.913.913,0,0,1,299.117,385.145Z" transform="translate(-198.894 -240.513)" fill="#ffda1a"/>
      <circle id="Ellipse_5" data-name="Ellipse 5" cx="0.751" cy="0.751" r="0.751" transform="translate(107.33 119.244)" fill="#ffda1a"/>
      <path id="Path_68" data-name="Path 68" d="M350.067,345.843a.639.639,0,1,1,.639.639A.639.639,0,0,1,350.067,345.843Z" transform="translate(-228.054 -218.177)" fill="#c4c524"/>
      <path id="Path_69" data-name="Path 69" d="M417.015,291.581a1.027,1.027,0,1,1,1.027,1.027A1.028,1.028,0,0,1,417.015,291.581Z" transform="translate(-266.371 -186.899)" fill="none" stroke="#c4c524" stroke-miterlimit="10" stroke-width="1"/>
      <circle id="Ellipse_6" data-name="Ellipse 6" cx="0.614" cy="0.614" r="0.614" transform="translate(132.721 108.276)" fill="#ee293d"/>
      <rect id="Rectangle_14" data-name="Rectangle 14" width="1.527" height="1.201" transform="translate(111.985 96.592) rotate(180)" fill="#ee293d"/>
      <path id="Path_70" data-name="Path 70" d="M160.826,340.771c-.869-.543-2.5.8-1.759,2.041s-.326,2.28-1.585,1.78-2.3.716-1.5,1.975" transform="translate(-116.814 -215.568)" fill="none" stroke="#e5ed9a" stroke-linecap="round" stroke-miterlimit="10" stroke-width="2"/>
      <path id="Path_71" data-name="Path 71" d="M342.136,381.555a1.144,1.144,0,0,1-.928-1.694c.353-.692-.162-1.369-.987-1.546a1.081,1.081,0,0,1-.884-1.546" transform="translate(-221.852 -236.242)" fill="none" stroke="#8fa3ad" stroke-linecap="round" stroke-miterlimit="10" stroke-width="1"/>
      <path id="Path_72" data-name="Path 72" d="M128.472,301.326a1.327,1.327,0,0,1-2.135,1.22,1.133,1.133,0,0,0-1.786,1.2c.153,1.177-1.227,1.652-2.135,1.2-1.177-.588-2.44-.13-2.309,1.307" transform="translate(-96.436 -193.064)" fill="none" stroke="#ced7db" stroke-linecap="round" stroke-miterlimit="10" stroke-width="1"/>
      <rect id="Rectangle_15" data-name="Rectangle 15" width="1.615" height="1.615" transform="translate(137.913 118.773) rotate(170.514)" fill="none" stroke="#ced7db" stroke-linecap="round" stroke-miterlimit="10" stroke-width="1"/>
      <rect id="Rectangle_16" data-name="Rectangle 16" width="1.868" height="1.868" transform="translate(129.209 101.161) rotate(157.798)" fill="none" stroke="#ced7db" stroke-linecap="round" stroke-miterlimit="10" stroke-width="1"/>
      <path id="Path_73" data-name="Path 73" d="M411.212,312.754a1.816,1.816,0,0,1-2.918-1.109,1.506,1.506,0,0,0-2.422-.9,1.814,1.814,0,0,1-2.626-1.2,1.312,1.312,0,0,0-1.955-.875" transform="translate(-257.372 -197.169)" fill="none" stroke="#e44747" stroke-linecap="round" stroke-miterlimit="10" stroke-width="2"/>
      <rect id="Rectangle_17" data-name="Rectangle 17" width="1.615" height="1.615" transform="translate(65.128 145.735) rotate(-118.87)" fill="none" stroke="#ced7db" stroke-linecap="round" stroke-miterlimit="10" stroke-width="1"/>
      <rect id="Rectangle_18" data-name="Rectangle 18" width="2.568" height="2.568" transform="matrix(-0.664, -0.748, 0.748, -0.664, 80.846, 128.678)" fill="none" stroke="#ced7db" stroke-linecap="round" stroke-miterlimit="10" stroke-width="1"/>
      <path id="Path_74" data-name="Path 74" d="M234.242,403.246a2.326,2.326,0,0,1,.1-4,1.928,1.928,0,0,0,.063-3.31,2.323,2.323,0,0,1,.329-3.681,1.68,1.68,0,0,0,.227-2.733" transform="translate(-161.141 -243.543)" fill="none" stroke="#fec928" stroke-linecap="round" stroke-miterlimit="10" stroke-width="2"/>
      <rect id="Rectangle_19" data-name="Rectangle 19" width="3.091" height="3.091" transform="translate(26.249 121.16) rotate(-79.476)" fill="none" stroke="#ced7db" stroke-linecap="round" stroke-miterlimit="10" stroke-width="1"/>
      <rect id="Rectangle_20" data-name="Rectangle 20" width="1.868" height="1.868" transform="translate(55.18 98.312) rotate(-83.163)" fill="none" stroke="#ced7db" stroke-linecap="round" stroke-miterlimit="10" stroke-width="1"/>
      <path id="Path_75" data-name="Path 75" d="M122.3,355.22a1.816,1.816,0,0,1,2.04-2.362,1.506,1.506,0,0,0,1.679-1.966,1.814,1.814,0,0,1,2.022-2.058,1.312,1.312,0,0,0,1.492-1.538" transform="translate(-97.642 -219.374)" fill="none" stroke="#ced7db" stroke-linecap="round" stroke-miterlimit="10" stroke-width="1"/>
      <text id="Thank" transform="translate(0 88.515)" fill="#ebeef0" font-size="27" font-family="Montserrat-Bold, Montserrat" font-weight="700"><tspan x="0" y="0">Thank</tspan></text>
      <text id="You" transform="translate(100.288 88.515)" fill="#ebeef0" font-size="27" font-family="Montserrat-Bold, Montserrat" font-weight="700"><tspan x="0" y="0">You</tspan></text>
      <path id="Path_76" data-name="Path 76" d="M337.022,65.658h-.681v-.681a.521.521,0,0,0-1.042,0v.681h-.681a.521.521,0,0,0,0,1.042h.681v.681a.521.521,0,0,0,1.042,0V66.7h.681a.521.521,0,0,0,0-1.042Z" transform="translate(-218.914 -57.496)" fill="#b1eaf1"/>
      <path id="Path_77" data-name="Path 77" d="M158.409,386.493h-.681v-.681a.521.521,0,0,0-1.042,0v.681H156a.521.521,0,0,0,0,1.042h.681v.681a.521.521,0,1,0,1.042,0v-.681h.681a.521.521,0,0,0,0-1.042Z" transform="translate(-116.689 -241.12)" fill="#b1eaf1"/>
      <path id="Path_78" data-name="Path 78" d="M263.21,281.083h-.681V280.4a.521.521,0,0,0-1.042,0v.681h-.681a.521.521,0,1,0,0,1.042h.681v.681a.521.521,0,0,0,1.042,0v-.681h.681a.521.521,0,0,0,0-1.042Z" transform="translate(-176.669 -180.79)" fill="#afbdc4"/>
      <path id="Path_79" data-name="Path 79" d="M205.858,178.215h-.681v-.681a.521.521,0,0,0-1.042,0v.681h-.681a.521.521,0,1,0,0,1.042h.681v.681a.521.521,0,0,0,1.042,0v-.681h.681a.521.521,0,0,0,0-1.042Z" transform="translate(-143.845 -121.916)" fill="#fecb80"/>
      <g id="Group_4" data-name="Group 4" transform="translate(0.857 0.681)">
        <path id="Path_80" data-name="Path 80" d="M262.177,142.686a1.188,1.188,0,1,1-1.188-1.188A1.188,1.188,0,0,1,262.177,142.686Z" transform="translate(-177.249 -102.27)" fill="#c4c524"/>
        <path id="Path_81" data-name="Path 81" d="M200.766,157.49a1.163,1.163,0,1,1-1.163-1.163A1.163,1.163,0,0,1,200.766,157.49Z" transform="translate(-142.13 -110.757)" fill="#ffda1a"/>
        <path id="Path_82" data-name="Path 82" d="M218.65,333.024a1.032,1.032,0,1,1-1.032-1.032A1.032,1.032,0,0,1,218.65,333.024Z" transform="translate(-152.516 -211.296)" fill="#c4c524"/>
        <path id="Path_83" data-name="Path 83" d="M290.593,345.13a.8.8,0,1,1-.8-.8A.8.8,0,0,1,290.593,345.13Z" transform="translate(-193.954 -218.355)" fill="#c4c524"/>
        <path id="Path_84" data-name="Path 84" d="M438.52,276.765a1.012,1.012,0,1,1-1.012-1.012A1.012,1.012,0,0,1,438.52,276.765Z" transform="translate(-278.377 -179.108)" fill="#c4c524"/>
        <path id="Path_85" data-name="Path 85" d="M394.113,280.282a.742.742,0,1,1-.742-.742A.742.742,0,0,1,394.113,280.282Z" transform="translate(-253.27 -181.276)" fill="#c4c524"/>
        <path id="Path_86" data-name="Path 86" d="M97.984,116.6a.9.9,0,1,1-.9-.9A.9.9,0,0,1,97.984,116.6Z" transform="translate(-83.612 -87.506)" fill="#c4c524"/>
        <path id="Path_87" data-name="Path 87" d="M106.47,183.633a.57.57,0,1,1-.57-.57A.569.569,0,0,1,106.47,183.633Z" transform="translate(-88.841 -126.059)" fill="#c4c524"/>
        <path id="Path_88" data-name="Path 88" d="M239.267,50.953a1.181,1.181,0,1,1-1.18-1.18A1.181,1.181,0,0,1,239.267,50.953Z" transform="translate(-164.146 -49.773)" fill="#ffda1a"/>
        <path id="Path_89" data-name="Path 89" d="M177.249,60.33a.57.57,0,1,1-.57-.57A.57.57,0,0,1,177.249,60.33Z" transform="translate(-129.35 -55.489)" fill="#c4c524"/>
        <circle id="Ellipse_7" data-name="Ellipse 7" cx="1.058" cy="1.058" r="1.058" transform="translate(65.478 28.279)" fill="#68c8bf"/>
        <path id="Path_90" data-name="Path 90" d="M354.464,89.522a1.047,1.047,0,1,1-1.047-1.047A1.047,1.047,0,0,1,354.464,89.522Z" transform="translate(-230.23 -71.923)" fill="#68c8bf"/>
        <path id="Path_91" data-name="Path 91" d="M387.792,122.286a1.611,1.611,0,1,1-1.611-1.611A1.611,1.611,0,0,1,387.792,122.286Z" transform="translate(-248.659 -90.352)" fill="#c4c524"/>
        <circle id="Ellipse_8" data-name="Ellipse 8" cx="1.963" cy="1.963" r="1.963" transform="translate(96.736 102.345)" fill="#c4c524"/>
        <circle id="Ellipse_9" data-name="Ellipse 9" cx="1.076" cy="1.076" r="1.076" transform="translate(10.908 118.078)" fill="#ffda1a"/>
        <circle id="Ellipse_10" data-name="Ellipse 10" cx="1.522" cy="1.522" r="1.522" transform="translate(0 94.958)" fill="#c4c524"/>
        <path id="Path_92" data-name="Path 92" d="M97.9,277.738a1.154,1.154,0,1,1-1.154-1.154A1.154,1.154,0,0,1,97.9,277.738Z" transform="translate(-83.266 -179.584)" fill="#c4c524"/>
        <circle id="Ellipse_11" data-name="Ellipse 11" cx="1.208" cy="1.208" r="1.208" transform="translate(37.459 112.997)" fill="#68c8bf"/>
        <path id="Path_93" data-name="Path 93" d="M231.1,278.828a1.369,1.369,0,1,1-1.369-1.369A1.369,1.369,0,0,1,231.1,278.828Z" transform="translate(-159.258 -180.085)" fill="#c4c524"/>
        <path id="Path_94" data-name="Path 94" d="M274.74,355.819a.966.966,0,1,1-.966-.966A.967.967,0,0,1,274.74,355.819Z" transform="translate(-184.693 -224.38)" fill="#c4c524"/>
        <path id="Path_95" data-name="Path 95" d="M222.84,367.982a1.305,1.305,0,1,1-1.305-1.305A1.305,1.305,0,0,1,222.84,367.982Z" transform="translate(-154.602 -231.147)" fill="#ffda1a"/>
        <path id="Path_96" data-name="Path 96" d="M329.725,353.936a.966.966,0,1,1-.966-.967A.966.966,0,0,1,329.725,353.936Z" transform="translate(-216.163 -223.302)" fill="#c4c524"/>
        <path id="Path_97" data-name="Path 97" d="M354.527,315.117a1.127,1.127,0,1,1-1.127-1.127A1.128,1.128,0,0,1,354.527,315.117Z" transform="translate(-230.174 -200.993)" fill="#c4c524"/>
        <circle id="Ellipse_12" data-name="Ellipse 12" cx="1.289" cy="1.289" r="1.289" transform="translate(140.782 124.675)" fill="#68c8bf"/>
      </g>
      <text id="Thank-2" data-name="Thank" transform="translate(0 87.233)" fill="#ff9500" font-size="27" font-family="Montserrat-Bold, Montserrat" font-weight="700"><tspan x="0" y="0">Thank</tspan></text>
      <text id="You-2" data-name="You" transform="translate(100.288 87.233)" fill="#2dbdca" font-size="27" font-family="Montserrat-Bold, Montserrat" font-weight="700"><tspan x="0" y="0">You</tspan></text>
    </g>
  </g>
</svg>
