<svg xmlns="http://www.w3.org/2000/svg" width="59.032" height="59.103" viewBox="0 0 59.032 59.103"><defs><style>.a{fill:#2dbdca;}.b{fill:#c1c1c1;}</style></defs><g transform="translate(-0.45 -0.426)"><g transform="translate(0.45 0.426)"><path class="a" d="M31.061,35.928a2.086,2.086,0,1,0-2.951,2.951l9.615,9.615a2.037,2.037,0,0,0,1.475.61h.1a2.325,2.325,0,0,0,1.526-.763L64.893,19.5a2.094,2.094,0,1,0-3.205-2.7L39.049,43.915Z" transform="translate(-13.738 -8.112)"/><path class="b" d="M45.55,4.941A29.57,29.57,0,1,0,54.911,14.3a2.068,2.068,0,0,0-3.51,2.188,25.326,25.326,0,1,1-8.038-8.038,2.068,2.068,0,0,0,2.188-3.51Z" transform="translate(-0.45 -0.426)"/></g></g></svg>