<svg xmlns="http://www.w3.org/2000/svg" width="18.693" height="15.574" viewBox="0 0 18.693 15.574"><defs><style>.a{fill:#2dbdca;}</style></defs><g transform="translate(0 -2.005)"><path class="a" d="M16.746,18.9H1.947A1.95,1.95,0,0,1,0,16.957V15.4a.39.39,0,0,1,.389-.389H.779a1.558,1.558,0,0,0,0-3.115H.389A.39.39,0,0,1,0,11.5V9.947A1.95,1.95,0,0,1,1.947,8h14.8a1.95,1.95,0,0,1,1.947,1.947V11.5a.39.39,0,0,1-.389.389h-.389a1.558,1.558,0,0,0,0,3.115H18.3a.39.39,0,0,1,.389.389v1.558A1.949,1.949,0,0,1,16.746,18.9ZM.779,15.789v1.168a1.17,1.17,0,0,0,1.168,1.168h14.8a1.17,1.17,0,0,0,1.168-1.168V15.789h0a2.337,2.337,0,0,1,0-4.673V9.947a1.17,1.17,0,0,0-1.168-1.168H1.947A1.17,1.17,0,0,0,.779,9.947v1.168a2.337,2.337,0,1,1,0,4.673Z" transform="translate(0 -1.326)"/><path class="a" d="M8.389,9.558A.39.39,0,0,1,8,9.168V8.389a.389.389,0,0,1,.779,0v.779A.39.39,0,0,1,8.389,9.558Z" transform="translate(-1.769 -1.326)"/><path class="a" d="M8.389,16.93A.39.39,0,0,1,8,16.541V15.224a.389.389,0,0,1,.779,0v1.318A.389.389,0,0,1,8.389,16.93Zm0-3.295A.39.39,0,0,1,8,13.246V11.928a.389.389,0,1,1,.779,0v1.318A.39.39,0,0,1,8.389,13.636Z" transform="translate(-1.769 -2.108)"/><path class="a" d="M8.389,21.558A.39.39,0,0,1,8,21.168v-.779a.389.389,0,0,1,.779,0v.779A.39.39,0,0,1,8.389,21.558Z" transform="translate(-1.769 -3.979)"/><path class="a" d="M2.389,7.453A.389.389,0,0,1,2.253,6.7L14.637,2.075a1.189,1.189,0,0,1,1.515.719l1.4,4.144a.389.389,0,1,1-.738.25l-1.4-4.144a.4.4,0,0,0-.505-.24L2.525,7.428a.376.376,0,0,1-.136.025Z" transform="translate(-0.442)"/></g></svg>