<svg xmlns="http://www.w3.org/2000/svg" xmlns:xlink="http://www.w3.org/1999/xlink" width="110" height="110" viewBox="0 0 110 110"><defs><style>.a{fill:url(#a);}.b,.c{fill:#fff;}.b{stroke:#fff;}</style><linearGradient id="a" x1="0.5" x2="0.5" y2="1" gradientUnits="objectBoundingBox"><stop offset="0" stop-color="#2dbdca"/><stop offset="1" stop-color="#72d6df"/></linearGradient></defs><g transform="translate(-931.884 -348.305)"><rect class="a" width="110" height="110" rx="55" transform="translate(931.884 348.305)"/><g transform="translate(961.903 380.649)"><path class="b" d="M44.393,36.907H5.162A5.169,5.169,0,0,1,0,31.745v-4.13a1.033,1.033,0,0,1,1.032-1.032H2.065a4.13,4.13,0,0,0,0-8.259H1.032A1.033,1.033,0,0,1,0,17.291v-4.13A5.169,5.169,0,0,1,5.162,8H44.393a5.169,5.169,0,0,1,5.162,5.162v4.13a1.033,1.033,0,0,1-1.032,1.032H47.49a4.13,4.13,0,0,0,0,8.259H48.52a1.033,1.033,0,0,1,1.032,1.032v4.13A5.166,5.166,0,0,1,44.393,36.907ZM2.065,28.648v3.1a3.1,3.1,0,0,0,3.1,3.1H44.393a3.1,3.1,0,0,0,3.1-3.1v-3.1h0a6.194,6.194,0,0,1,0-12.389v-3.1a3.1,3.1,0,0,0-3.1-3.1H5.162a3.1,3.1,0,0,0-3.1,3.1v3.1a6.194,6.194,0,0,1,0,12.389Z" transform="translate(0 6.384)"/><path class="b" d="M9.032,12.13A1.033,1.033,0,0,1,8,11.1V9.032a1.032,1.032,0,1,1,2.065,0V11.1A1.033,1.033,0,0,1,9.032,12.13Z" transform="translate(8.518 6.384)"/><path class="b" d="M9.032,25.831A1.033,1.033,0,0,1,8,24.8V21.307a1.032,1.032,0,1,1,2.065,0V24.8A1.031,1.031,0,0,1,9.032,25.831Zm0-8.734A1.033,1.033,0,0,1,8,16.065V12.571a1.032,1.032,0,0,1,2.065,0v3.494A1.033,1.033,0,0,1,9.032,17.1Z" transform="translate(8.518 10.152)"/><path class="b" d="M9.032,24.13A1.033,1.033,0,0,1,8,23.1V21.032a1.032,1.032,0,0,1,2.065,0V23.1A1.033,1.033,0,0,1,9.032,24.13Z" transform="translate(8.518 19.161)"/><path class="b" d="M3.032,16.449a1.032,1.032,0,0,1-.361-2L35.5,2.191A3.153,3.153,0,0,1,39.517,4.1L43.24,15.084a1.032,1.032,0,0,1-1.955.663L37.562,4.76a1.056,1.056,0,0,0-1.34-.636L3.392,16.382a1,1,0,0,1-.359.066Z" transform="translate(2.13 0)"/></g><path class="c" d="M7.488.563a6.925,6.925,0,1,0,6.925,6.925A6.924,6.924,0,0,0,7.488.563Zm1.594,9.776L6.619,8.549a.337.337,0,0,1-.137-.271v-4.7a.336.336,0,0,1,.335-.335h1.34a.336.336,0,0,1,.335.335V7.424l1.773,1.29a.335.335,0,0,1,.073.469l-.787,1.083A.337.337,0,0,1,9.082,10.339Z" transform="translate(985.321 401.817)"/></g></svg>