<svg xmlns="http://www.w3.org/2000/svg" width="58.321" height="87.756" viewBox="0 0 58.321 87.756"><defs><style>.a{fill:#ff9500;}</style></defs><g transform="translate(-85.867)"><g transform="translate(108.366)"><path class="a" d="M218.847,0a1.714,1.714,0,0,0-1.714,1.714v10.57a1.714,1.714,0,1,0,3.428,0V1.714A1.714,1.714,0,0,0,218.847,0Z" transform="translate(-217.133)"/></g><g transform="translate(120.29 22.499)"><g transform="translate(0)"><path class="a" d="M298.989,131.266h-10.57a1.714,1.714,0,1,0,0,3.428h10.57a1.714,1.714,0,1,0,0-3.428Z" transform="translate(-286.705 -131.266)"/></g></g><g transform="translate(85.867 22.494)"><path class="a" d="M98.15,131.239H87.581a1.714,1.714,0,1,0,0,3.428h10.57a1.714,1.714,0,0,0,0-3.428Z" transform="translate(-85.867 -131.239)"/></g><g transform="translate(93.684 7.814)"><g transform="translate(0)"><path class="a" d="M139.392,51.082l-4.99-4.99a1.714,1.714,0,0,0-2.424,2.424l4.99,4.99a1.714,1.714,0,1,0,2.424-2.424Z" transform="translate(-131.475 -45.589)"/></g></g><g transform="translate(118.056 7.817)"><path class="a" d="M281.583,46.11a1.714,1.714,0,0,0-2.424,0l-4.99,4.99a1.714,1.714,0,0,0,2.424,2.424l4.99-4.99A1.714,1.714,0,0,0,281.583,46.11Z" transform="translate(-273.666 -45.608)"/></g><g transform="translate(103.738 17.869)"><g transform="translate(0)"><path class="a" d="M224.241,125.412a6.3,6.3,0,0,0-3.177.856,6.336,6.336,0,0,0-10.707-2.525,6.325,6.325,0,0,0-7.542-1.3V110.594a6.342,6.342,0,1,0-12.684,0v9.037a1.714,1.714,0,0,0,3.428,0v-9.037a2.914,2.914,0,1,1,5.828,0v28.694a1.714,1.714,0,1,0,3.428,0V128.073a2.914,2.914,0,0,1,5.828,0v11.215a1.714,1.714,0,1,0,3.428,0V128.073a2.914,2.914,0,0,1,5.828,0v11.215a1.714,1.714,0,1,0,3.428,0v-7.534a2.914,2.914,0,0,1,5.828,0v17.924a21.216,21.216,0,0,1-.342,3.8,1.714,1.714,0,0,0,1.379,1.994,1.734,1.734,0,0,0,.31.028,1.715,1.715,0,0,0,1.684-1.407,24.674,24.674,0,0,0,.4-4.415V131.753A6.349,6.349,0,0,0,224.241,125.412Z" transform="translate(-190.133 -104.252)"/></g></g><g transform="translate(89.154 42.85)"><g transform="translate(0)"><path class="a" d="M152.386,285.912a1.714,1.714,0,0,0-2.422-.084,21.034,21.034,0,0,1-33.286-6.236l-7.9-16.348a3.144,3.144,0,0,1,5.515-3l5.584,9.162a1.714,1.714,0,0,0,3.178-.892v-16.8a1.714,1.714,0,0,0-3.428,0v10.691l-2.406-3.948a6.571,6.571,0,0,0-11.529,6.278l7.9,16.348a24.462,24.462,0,0,0,38.711,7.252A1.714,1.714,0,0,0,152.386,285.912Z" transform="translate(-105.047 -250)"/></g></g><g transform="translate(138.002 72.445)"><g transform="translate(0)"><path class="a" d="M392.968,423.172a1.713,1.713,0,1,0,.5,1.212A1.727,1.727,0,0,0,392.968,423.172Z" transform="translate(-390.042 -422.67)"/></g></g><g transform="translate(103.738 37.365)"><g transform="translate(0)"><path class="a" d="M193.058,218.5a1.713,1.713,0,1,0,.5,1.212A1.727,1.727,0,0,0,193.058,218.5Z" transform="translate(-190.132 -218)"/></g></g></g></svg>