<svg xmlns="http://www.w3.org/2000/svg" width="136.576" height="25.6" viewBox="0 0 136.576 25.6"><defs><style>.a{fill:#00b67a;}.b{fill:#005128;}</style></defs><path d="M178.125,300.7h15.166v2.823h-5.971v15.915h-3.273V303.523H178.1Zm14.516,5.172h2.8V308.5h.05a3.3,3.3,0,0,1,.525-1.074,4.152,4.152,0,0,1,.924-.949,4.088,4.088,0,0,1,1.2-.7,3.489,3.489,0,0,1,1.324-.275c.35,0,.6.025.725.025a2.189,2.189,0,0,0,.4.05v2.873a5.06,5.06,0,0,0-.65-.1,5.676,5.676,0,0,0-.65-.05,3.468,3.468,0,0,0-1.424.3,3.61,3.61,0,0,0-1.174.874,4.739,4.739,0,0,0-.8,1.449,6.114,6.114,0,0,0-.3,2v6.446h-3Zm21.687,13.567H211.38v-1.9h-.05a4.186,4.186,0,0,1-1.649,1.649,4.352,4.352,0,0,1-2.224.625,4.948,4.948,0,0,1-3.873-1.324,5.792,5.792,0,0,1-1.2-4v-8.62h3v8.32a3.545,3.545,0,0,0,.7,2.523,2.467,2.467,0,0,0,1.924.75,3.685,3.685,0,0,0,1.574-.3,2.716,2.716,0,0,0,1.024-.775,3.039,3.039,0,0,0,.575-1.174,5.547,5.547,0,0,0,.175-1.474v-7.87h3v13.567Zm5.1-4.347a2.358,2.358,0,0,0,1,1.849,3.935,3.935,0,0,0,2.074.525,6.869,6.869,0,0,0,.949-.075,4.182,4.182,0,0,0,1-.25,1.758,1.758,0,0,0,.775-.55,1.279,1.279,0,0,0,.275-.924,1.344,1.344,0,0,0-.425-.949,3.538,3.538,0,0,0-1-.6,8.664,8.664,0,0,0-1.4-.375c-.525-.1-1.049-.225-1.6-.35s-1.1-.275-1.624-.45a4.656,4.656,0,0,1-1.4-.725,3.116,3.116,0,0,1-.974-1.149,3.592,3.592,0,0,1-.375-1.724,2.955,2.955,0,0,1,.55-1.849,3.984,3.984,0,0,1,1.374-1.2,6.239,6.239,0,0,1,1.849-.65,10.584,10.584,0,0,1,1.924-.175,8.593,8.593,0,0,1,2,.225,5.051,5.051,0,0,1,1.724.725,3.958,3.958,0,0,1,1.274,1.3,4.5,4.5,0,0,1,.65,1.924h-3.123a1.923,1.923,0,0,0-.974-1.449,4.024,4.024,0,0,0-1.774-.375c-.2,0-.475.025-.75.05a4.416,4.416,0,0,0-.824.2,1.954,1.954,0,0,0-.65.425,1,1,0,0,0-.275.725,1.1,1.1,0,0,0,.375.874,3.4,3.4,0,0,0,1,.575,8.661,8.661,0,0,0,1.4.375c.525.1,1.074.225,1.624.35s1.074.275,1.6.45a4.377,4.377,0,0,1,1.4.725,3.6,3.6,0,0,1,1,1.124,3.454,3.454,0,0,1,.375,1.674,3.642,3.642,0,0,1-.55,2.049,4.672,4.672,0,0,1-1.424,1.374,7.062,7.062,0,0,1-1.949.775,10.468,10.468,0,0,1-2.124.25,8.95,8.95,0,0,1-2.374-.3,6.046,6.046,0,0,1-1.9-.874,4.194,4.194,0,0,1-1.249-1.474,4.813,4.813,0,0,1-.5-2.1H219.4v.025Zm9.869-9.219h2.274v-4.1h3v4.073h2.7v2.224h-2.7v7.246a7.685,7.685,0,0,0,.05.824,1.731,1.731,0,0,0,.175.575.976.976,0,0,0,.425.35,2.229,2.229,0,0,0,.8.125,5.233,5.233,0,0,0,.625-.025,5.418,5.418,0,0,0,.625-.1v2.324c-.325.05-.65.075-.974.1a6.208,6.208,0,0,1-.974.05,6.457,6.457,0,0,1-1.9-.225,2.729,2.729,0,0,1-1.124-.65,2.323,2.323,0,0,1-.55-1.074,8.528,8.528,0,0,1-.175-1.5v-8h-2.274v-2.224Zm10.069,0h2.823v1.849h.05a3.711,3.711,0,0,1,1.749-1.7,5.665,5.665,0,0,1,2.449-.525,6.157,6.157,0,0,1,2.8.575,5.25,5.25,0,0,1,1.974,1.549,6.462,6.462,0,0,1,1.174,2.3,10.094,10.094,0,0,1,.05,5.447,7.351,7.351,0,0,1-1.074,2.274,5.314,5.314,0,0,1-1.824,1.574,5.393,5.393,0,0,1-2.6.6,7.632,7.632,0,0,1-1.3-.125,5.531,5.531,0,0,1-1.249-.375,4.481,4.481,0,0,1-1.1-.675,3.808,3.808,0,0,1-.849-.949h-.05v6.771h-3V305.872Zm10.469,6.8a6.089,6.089,0,0,0-.25-1.774,4.525,4.525,0,0,0-.725-1.524,4,4,0,0,0-1.174-1.074,3.2,3.2,0,0,0-1.624-.4,3.319,3.319,0,0,0-2.848,1.3,5.918,5.918,0,0,0-.949,3.5,6.471,6.471,0,0,0,.25,1.9,4.229,4.229,0,0,0,.75,1.5,3.571,3.571,0,0,0,1.2,1,3.387,3.387,0,0,0,1.624.375,3.324,3.324,0,0,0,1.724-.425,4.027,4.027,0,0,0,1.174-1.074,4.4,4.4,0,0,0,.65-1.524A8.579,8.579,0,0,0,249.831,312.668ZM255.1,300.7h3v2.823h-3Zm0,5.172h3v13.567h-3Zm5.672-5.172h3v18.739h-3Zm12.143,19.113a7.14,7.14,0,0,1-2.9-.55,6.577,6.577,0,0,1-2.149-1.474,6.418,6.418,0,0,1-1.324-2.274,8.882,8.882,0,0,1-.475-2.873,8.114,8.114,0,0,1,.475-2.848,6.645,6.645,0,0,1,1.324-2.274,5.991,5.991,0,0,1,2.149-1.474,7.584,7.584,0,0,1,2.9-.55,7.138,7.138,0,0,1,2.9.55,6.217,6.217,0,0,1,2.149,1.474,6.418,6.418,0,0,1,1.324,2.274,8.729,8.729,0,0,1,.475,2.848,8.157,8.157,0,0,1-.475,2.873,7.072,7.072,0,0,1-1.324,2.274,5.992,5.992,0,0,1-2.149,1.474A7.491,7.491,0,0,1,272.917,319.813Zm0-2.374a3.456,3.456,0,0,0,1.724-.425,3.617,3.617,0,0,0,1.2-1.1,4.709,4.709,0,0,0,.7-1.524,6.815,6.815,0,0,0,0-3.473,4.48,4.48,0,0,0-.7-1.524,3.8,3.8,0,0,0-1.2-1.074,3.524,3.524,0,0,0-1.724-.425,3.456,3.456,0,0,0-1.724.425,3.827,3.827,0,0,0-1.2,1.074,4.48,4.48,0,0,0-.7,1.524,6.816,6.816,0,0,0,0,3.473,4.48,4.48,0,0,0,.7,1.524,3.877,3.877,0,0,0,1.2,1.1A3.272,3.272,0,0,0,272.917,317.44Zm7.745-11.568h2.274v-4.1h3v4.073h2.7v2.224h-2.7v7.246a7.685,7.685,0,0,0,.05.824,1.731,1.731,0,0,0,.175.575.976.976,0,0,0,.425.35,2.229,2.229,0,0,0,.8.125,5.228,5.228,0,0,0,.625-.025,5.4,5.4,0,0,0,.625-.1v2.324c-.325.05-.65.075-.974.1a6.21,6.21,0,0,1-.974.05,6.457,6.457,0,0,1-1.9-.225,2.729,2.729,0,0,1-1.124-.65,2.323,2.323,0,0,1-.55-1.074,8.528,8.528,0,0,1-.175-1.5v-8h-2.274v-2.224Z" transform="translate(-152.057 -298.86)"/><path class="a" d="M44.329,257.156h-9.1l-2.8-8.656L29.6,257.156l-9.1-.017,7.363,5.356-2.819,8.656,7.363-5.356,7.363,5.356-2.8-8.656Z" transform="translate(-20.5 -248.5)"/><path class="b" d="M97.574,334.857l-.63-1.957L92.4,336.2Z" transform="translate(-80.477 -318.904)"/></svg>