<svg xmlns="http://www.w3.org/2000/svg" width="106" height="106" viewBox="0 0 106 106"><defs><style>.a{fill:#f5f5f5;}.b{opacity:0.38;}.c{fill:#242424;}.d{fill:#fff;}.e{fill:#ee8025;}.f{fill:#e6e6e6;}.g{fill:#3f3d56;}</style></defs><g transform="translate(-132 -114)"><circle class="a" cx="53" cy="53" r="53" transform="translate(132 114)"/><g class="b" transform="translate(161.576 131.879)"><path class="c" d="M209.146,143.094a4.412,4.412,0,0,0-4.407,4.407v50.773a4.412,4.412,0,0,0,4.407,4.407h37.246a4.412,4.412,0,0,0,4.407-4.407V147.5a4.412,4.412,0,0,0-4.407-4.407Z" transform="translate(-204.739 -137.728)"/><rect class="d" width="41.476" height="53.327" transform="translate(2.292 8.496)"/><rect class="e" width="30.632" height="2.012" transform="translate(7.714 18.055)"/><rect class="e" width="30.632" height="2.012" transform="translate(7.714 23.421)"/><rect class="e" width="30.632" height="2.012" transform="translate(7.714 28.787)"/><rect class="e" width="30.632" height="2.012" transform="translate(7.714 34.153)"/><rect class="e" width="30.632" height="2.012" transform="translate(7.714 39.519)"/><rect class="e" width="30.632" height="2.012" transform="translate(7.714 44.886)"/><rect class="e" width="30.632" height="2.012" transform="translate(7.714 50.252)"/><rect class="f" width="30.879" height="39.702" transform="translate(8.403 10.673) rotate(-10.37)"/><rect class="e" width="22.806" height="1.498" transform="translate(13.654 16.947) rotate(-10.37)"/><rect class="e" width="22.806" height="1.498" transform="translate(14.374 20.877) rotate(-10.37)"/><rect class="e" width="22.806" height="1.498" transform="translate(15.093 24.806) rotate(-10.37)"/><rect class="e" width="22.806" height="1.498" transform="translate(15.812 28.736) rotate(-10.37)"/><rect class="e" width="22.806" height="1.498" transform="translate(16.531 32.666) rotate(-10.37)"/><rect class="e" width="22.806" height="1.498" transform="translate(17.25 36.596) rotate(-10.37)"/><rect class="e" width="22.806" height="1.498" transform="translate(17.969 40.526) rotate(-10.37)"/><path class="c" d="M366.779,87.549h-3.655V86.8a2.047,2.047,0,0,0-2.047-2.047h-3.956a2.047,2.047,0,0,0-2.047,2.047v.748H351.42a2.047,2.047,0,0,0-2.047,2.047v5.667h19.452V89.6A2.047,2.047,0,0,0,366.779,87.549Z" transform="translate(-336.069 -84.754)"/><path class="g" d="M438.436,692.656a6.439,6.439,0,0,1,1.943-1.032,2.044,2.044,0,0,1,1.924.353,1.179,1.179,0,0,1,.285,1.491.947.947,0,0,1-.628.457.756.756,0,0,1-.68-.266.693.693,0,0,1-.173-.681.892.892,0,0,1,.572-.486,4.235,4.235,0,0,1,.853-.176l1.186-.162,4.854-.664,5.405-.74a.169.169,0,0,0,.117-.206.172.172,0,0,0-.206-.117L443.132,691.9c-.389.053-.784.091-1.169.17a1.964,1.964,0,0,0-.839.348,1,1,0,0,0,0,1.556,1.109,1.109,0,0,0,1.6-.12,1.448,1.448,0,0,0,.11-1.774,2.151,2.151,0,0,0-2.1-.861,5.715,5.715,0,0,0-2.463,1.149C438.089,692.488,438.257,692.779,438.436,692.656Z" transform="translate(-416.718 -634.712)"/></g></g></svg>