<svg xmlns="http://www.w3.org/2000/svg" width="131.551" height="86.482" viewBox="0 0 131.551 86.482">
  <g id="undraw_confirmation_2uy0" transform="translate(0.05 -0.017)">
    <path id="Path_1682" data-name="Path 1682" d="M147.381,143.221q-.616.541-1.259,1.052c-.072.058-.147.114-.22.174a44.217,44.217,0,0,1-4.808,3.248l-.313.182c-.076.046-.15.088-.229.131-1.747,1.008-3.559,1.937-5.393,2.816l-.019.01L135,150.9q-2.218,1.063-4.5,2.035l-.037.014q-1.03.434-2.061.845c-.28.114-.562.221-.844.33-.53.2-1.061.4-1.6.593l-.066.025-.114.04-.143.053q-2.1.749-4.248,1.383l-.025.007q-1.5.437-3.021.809l-.139.034c-1.488.359-3,.669-4.522.916l-.35.056q-1.669.262-3.361.428a82.944,82.944,0,0,1-19.059-.74,136.309,136.309,0,0,1-36.733-10.035q-3.3-1.46-6.465-3.125c-.017-.009-.032-.018-.049-.026q-1.9-1-3.742-2.078c-.361-.208-.719-.421-1.075-.635q-.657-.4-1.308-.8-.859-.536-1.717-1.1l-.268-.179-.1-.07c-.145-.1-.288-.195-.433-.293-5.38-3.663-10.178-8.1-12.444-13.658-2.619-6.411-.943-14.538,5.544-18.327a25.771,25.771,0,0,1,7.441-2.6l.268-.06c.443-.1.886-.191,1.327-.285,1.544-.327,3.1-.652,4.634-1.015h0c.8-.189,1.595-.387,2.383-.6l.323-.089a38.586,38.586,0,0,0,5.565-1.96h.011q.29-.129.572-.267c.121-.057.243-.114.364-.177A21.563,21.563,0,0,0,60.6,96.438c.127-.128.251-.259.371-.389.093-.1.184-.2.272-.308a7.822,7.822,0,0,0,2.027-4.262h0a5.494,5.494,0,0,0-.069-1.537c-.18-.96-.354-1.9-.482-2.817a14.437,14.437,0,0,1,.011-4.958h0a9.332,9.332,0,0,1,2.565-4.688q.331-.343.713-.687a15.028,15.028,0,0,1,3.964-2.5l.539-.229c4.016-1.626,8.841-1.964,13.349-1.74a72.822,72.822,0,0,1,12.507,1.74c.326.073.652.15.976.229a86.7,86.7,0,0,1,10.3,3.186,127.908,127.908,0,0,1,24.706,12.894l.229.149q.483.315.96.632.924.612,1.832,1.233l.409.278q.3.206.6.413L137,93.5h0a.674.674,0,0,1,.082.058l.522.362c.3.211.6.422.9.635h0l.646.458c.134.1.269.191.4.288l.687.5.153.114c.032.023.064.046.1.071l.019.013c1.861,1.366,3.678,2.782,5.38,4.282l.22.195.023.021c.185.165.371.332.553.5a37.269,37.269,0,0,1,5.843,6.6C160,118.7,157.783,134.078,147.381,143.221Z" transform="translate(-25.44 -72.24)" fill="#6c63ff" opacity="0.1"/>
    <path id="Path_1711" data-name="Path 1711" d="M905.54,782.741c-.28.115-.562.221-.844.33-.883-.258-1.707-.561-1.707-.561A23.451,23.451,0,0,1,905.54,782.741Z" transform="translate(-802.578 -701.188)" opacity="0.1"/>
    <path id="Path_1712" data-name="Path 1712" d="M999.67,700.6s2.142.5,2.268.846Z" transform="translate(-888.191 -628.655)" opacity="0.1"/>
    <path id="Path_1713" data-name="Path 1713" d="M923.59,714.12s-1.116.324-.036.972S923.59,714.12,923.59,714.12Z" transform="translate(-820.371 -640.627)" opacity="0.1"/>
    <circle id="Ellipse_77" data-name="Ellipse 77" cx="0.045" cy="0.045" r="0.045" transform="translate(89.948 33.851)" fill="#e6e8ec"/>
    <path id="Path_1737" data-name="Path 1737" d="M497.7,583.558a2.86,2.86,0,0,1,2.568-.343s-.366.776-1.992.766Z" transform="translate(-443.683 -524.545)" fill="#6c63ff"/>
    <path id="Path_1738" data-name="Path 1738" d="M495.92,588.09a2.867,2.867,0,0,0,.687,2.5s.572-.641-.077-2.133Z" transform="translate(-442.06 -529.024)" fill="#6c63ff"/>
    <path id="Path_1739" data-name="Path 1739" d="M481.75,568.2s.047-1.279,2.942-.966a1.374,1.374,0,0,1-.95,1.251A1.662,1.662,0,0,1,481.75,568.2Z" transform="translate(-429.559 -510.508)" fill="#6c63ff"/>
    <path id="Path_1740" data-name="Path 1740" d="M476.036,576s-1.2.437-.014,3.1a1.37,1.37,0,0,0,.9-1.29A1.671,1.671,0,0,0,476.036,576Z" transform="translate(-424.022 -518.318)" fill="#6c63ff"/>
    <path id="Path_1741" data-name="Path 1741" d="M465.322,545.362s-.245-2.091,2.706-1.99c0,0,.282,1.891-2.167,2.474Z" transform="translate(-415.007 -489.422)" fill="#6c63ff"/>
    <path id="Path_1742" data-name="Path 1742" d="M447.58,526.1s.313-2.394,3.281-1.8c0,0,.089,2.061-2.779,2.346Z" transform="translate(-399.3 -472.453)" fill="#6c63ff"/>
    <path id="Path_1743" data-name="Path 1743" d="M434.35,505.48s.586-2.347,3.527-1.759a3.363,3.363,0,0,1-3.32,2.175Z" transform="translate(-387.585 -454.229)" fill="#6c63ff"/>
    <path id="Path_1744" data-name="Path 1744" d="M421.76,484.573a2.645,2.645,0,0,1,3.408-1.814,3.434,3.434,0,0,1-3.205,2.217Z" transform="translate(-376.436 -435.662)" fill="#6c63ff"/>
    <path id="Path_1745" data-name="Path 1745" d="M413.39,460.667s.395-2.957,3.046-2.41c0,0-.659,2.7-2.834,2.83Z" transform="translate(-369.024 -413.994)" fill="#6c63ff"/>
    <path id="Path_1746" data-name="Path 1746" d="M405.35,437.938s.5-2.987,3.18-2.227c0,0-.933,2.84-2.976,2.633Z" transform="translate(-361.904 -393.979)" fill="#6c63ff"/>
    <path id="Path_1747" data-name="Path 1747" d="M400.08,410.8s.854-3,2.91-3c0,0-.87,3.167-2.715,3.586Z" transform="translate(-357.238 -369.372)" fill="#6c63ff"/>
    <path id="Path_1748" data-name="Path 1748" d="M396.45,385.968s.916-3.607,2.6-3.4a7.073,7.073,0,0,1-2.518,3.949Z" transform="translate(-354.023 -347.024)" fill="#6c63ff"/>
    <path id="Path_1749" data-name="Path 1749" d="M393.86,361.672s.872-3.011,2.518-3.192c0,0-.56,2.95-2.451,3.962Z" transform="translate(-351.73 -325.698)" fill="#6c63ff"/>
    <path id="Path_1750" data-name="Path 1750" d="M391.19,337.991s1.116-3.022,2.2-3.131c0,0-.422,2.95-2.077,3.615Z" transform="translate(-349.365 -304.782)" fill="#6c63ff"/>
    <path id="Path_1751" data-name="Path 1751" d="M389.13,312.09s.633-3.261,1.71-3.57c0,0-.047,2.649-1.591,3.807Z" transform="translate(-347.541 -281.457)" fill="#6c63ff"/>
    <path id="Path_1752" data-name="Path 1752" d="M384.42,286.882s.7-2.607,1.564-3.032c0,0-.058,3.043-1.335,3.654Z" transform="translate(-343.37 -259.611)" fill="#6c63ff"/>
    <path id="Path_1753" data-name="Path 1753" d="M378.124,255.977l-.334-4.537s1.776,3.366.482,5.33Z" transform="translate(-337.499 -230.912)" fill="#6c63ff"/>
    <path id="Path_1754" data-name="Path 1754" d="M355.683,225.415a25.248,25.248,0,0,0-1.6-3.444,6.819,6.819,0,0,1,2.289,4.839Z" transform="translate(-316.504 -204.815)" fill="#6c63ff"/>
    <path id="Path_1755" data-name="Path 1755" d="M449.7,560.65s-2.1-.192-1.922,2.754c0,0,1.9.229,2.42-2.228Z" transform="translate(-399.468 -504.723)" fill="#6c63ff"/>
    <path id="Path_1756" data-name="Path 1756" d="M430.233,540.08s-2.412.085-2.1,3.091c0,0,2.038.284,2.6-2.544Z" transform="translate(-382.055 -486.51)" fill="#6c63ff"/>
    <path id="Path_1757" data-name="Path 1757" d="M406.918,520.307s-2.229-.943-3.528,1.759a3.37,3.37,0,0,0,3.738-1.339Z" transform="translate(-360.169 -468.859)" fill="#6c63ff"/>
    <path id="Path_1758" data-name="Path 1758" d="M394.261,498.133a2.644,2.644,0,0,0-3.5,1.632,3.435,3.435,0,0,0,3.7-1.229Z" transform="translate(-348.985 -449.198)" fill="#6c63ff"/>
    <path id="Path_1759" data-name="Path 1759" d="M383.667,473.956s-2.236-1.978-3.877.172c0,0,2.269,1.611,3.994.283Z" transform="translate(-339.27 -427.22)" fill="#6c63ff"/>
    <path id="Path_1760" data-name="Path 1760" d="M376.425,449.037s-2.252-2.025-3.875.245c0,0,2.5,1.636,3.969.193Z" transform="translate(-332.859 -405.153)" fill="#6c63ff"/>
    <path id="Path_1761" data-name="Path 1761" d="M373.238,417.592s-1.773-2.567-3.718-1.9c0,0,1.841,2.72,3.723,2.518Z" transform="translate(-330.176 -376.26)" fill="#6c63ff"/>
    <path id="Path_1762" data-name="Path 1762" d="M370.7,391.286s-1.812-3.251-3.383-2.615a7.082,7.082,0,0,0,3.448,3.17Z" transform="translate(-328.228 -352.36)" fill="#6c63ff"/>
    <path id="Path_1763" data-name="Path 1763" d="M368.191,367.82s-1.832-2.542-3.441-2.161c0,0,1.516,2.591,3.638,2.91Z" transform="translate(-325.952 -332.021)" fill="#6c63ff"/>
    <path id="Path_1764" data-name="Path 1764" d="M373.067,339.5s-1.454-2.876-2.547-2.862c0,0,.757,2.882,2.475,3.355Z" transform="translate(-331.062 -306.358)" fill="#6c63ff"/>
    <path id="Path_1765" data-name="Path 1765" d="M368.487,316.927s-1.6-2.908-2.727-2.87c0,0,.861,2.506,2.687,3.133Z" transform="translate(-326.846 -286.36)" fill="#6c63ff"/>
    <path id="Path_1766" data-name="Path 1766" d="M369.984,291.322s-1.21-2.411-2.144-2.652c0,0,.672,2.968,2.047,3.308Z" transform="translate(-328.688 -263.88)" fill="#6c63ff"/>
    <path id="Path_1767" data-name="Path 1767" d="M359.1,261.7l-2.64-3.7s.783,3.723,3.031,4.413Z" transform="translate(-318.611 -236.721)" fill="#6c63ff"/>
    <path id="Path_1768" data-name="Path 1768" d="M339.281,237.838a24.957,24.957,0,0,1-3.091-2.208s1.587,2.747,4.339,3.135Z" transform="translate(-300.661 -216.911)" fill="#6c63ff"/>
    <path id="Path_1769" data-name="Path 1769" d="M328.11,223.633s-3.45-3.071-4.3-3.036a5.439,5.439,0,0,1,4.373,2.862Z" transform="translate(-289.699 -203.6)" fill="#6c63ff"/>
    <path id="Path_1770" data-name="Path 1770" d="M363.24,253.021l-.121.021c-.813-4.871-1.832-7.729-2.879-8.047l.036-.114C361.382,245.214,362.407,248.031,363.24,253.021Z" transform="translate(-321.958 -225.103)" fill="#444053"/>
    <path id="Path_1771" data-name="Path 1771" d="M386.559,324.871l-.182.023c-.056-.458-.1-.923-.142-1.387-.33-4.045-.743-7.756-1.205-10.532l.1-.135c.458,2.781.958,6.6,1.289,10.646C386.456,323.954,386.5,324.42,386.559,324.871Z" transform="translate(-343.911 -285.283)" fill="#444053"/>
    <path id="Path_1772" data-name="Path 1772" d="M411.53,436.917a23.872,23.872,0,0,1-6.792-4.636,26.6,26.6,0,0,1-5.088-6.653,31.031,31.031,0,0,1-3.22-10.678l.195.082A28.146,28.146,0,0,0,404.9,432.1a23.686,23.686,0,0,0,6.72,4.594Z" transform="translate(-354.006 -375.704)" fill="#444053"/>
    <g id="Group_129" data-name="Group 129" transform="translate(50.519 11.444)" opacity="0.7">
      <path id="Path_1773" data-name="Path 1773" d="M548.25,573.236a2.866,2.866,0,0,1,2.553.434s-.58.633-2.129.139Z" transform="translate(-538.965 -527.201)" fill="#6c63ff"/>
      <path id="Path_1774" data-name="Path 1774" d="M543.942,574.25a2.866,2.866,0,0,0-.085,2.589s.736-.443.561-2.06Z" transform="translate(-534.823 -528.212)" fill="#6c63ff"/>
      <path id="Path_1775" data-name="Path 1775" d="M536.46,554.168s.426-1.208,3.091-.047a1.379,1.379,0,0,1-1.28.916A1.654,1.654,0,0,1,536.46,554.168Z" transform="translate(-528.525 -509.941)" fill="#6c63ff"/>
      <path id="Path_1776" data-name="Path 1776" d="M527.318,558s-1.279.061-.934,2.952a1.374,1.374,0,0,0,1.24-.964A1.662,1.662,0,0,0,527.318,558Z" transform="translate(-519.55 -513.822)" fill="#6c63ff"/>
      <path id="Path_1777" data-name="Path 1777" d="M525.35,528.513s.389-2.07,3.175-1.094c0,0-.294,1.889-2.8,1.717Z" transform="translate(-518.686 -486.511)" fill="#6c63ff"/>
      <path id="Path_1778" data-name="Path 1778" d="M514.34,504.983s1.011-2.192,3.663-.739c0,0-.525,1.988-3.351,1.411Z" transform="translate(-508.937 -465.779)" fill="#6c63ff"/>
      <path id="Path_1779" data-name="Path 1779" d="M507.93,481.835s1.259-2.066,3.892-.631a3.369,3.369,0,0,1-3.817,1.094Z" transform="translate(-503.261 -445.369)" fill="#6c63ff"/>
      <path id="Path_1780" data-name="Path 1780" d="M502,458.018a2.644,2.644,0,0,1,3.795-.719,3.436,3.436,0,0,1-3.723,1.163Z" transform="translate(-498.009 -424.214)" fill="#6c63ff"/>
      <path id="Path_1781" data-name="Path 1781" d="M499.83,432.654s1.259-2.707,3.622-1.394c0,0-1.434,2.385-3.549,1.858Z" transform="translate(-496.088 -401.272)" fill="#6c63ff"/>
      <path id="Path_1782" data-name="Path 1782" d="M499.2,408.473s1.362-2.7,3.7-1.179c0,0-1.737,2.434-3.627,1.622Z" transform="translate(-495.53 -379.955)" fill="#6c63ff"/>
      <path id="Path_1783" data-name="Path 1783" d="M500.76,382.317s1.708-2.61,3.67-2c0,0-1.773,2.766-3.663,2.617Z" transform="translate(-496.911 -356.4)" fill="#6c63ff"/>
      <path id="Path_1784" data-name="Path 1784" d="M503.058,356.833s1.946-3.172,3.489-2.469a7.083,7.083,0,0,1-3.577,3.021Z" transform="translate(-498.868 -333.407)" fill="#6c63ff"/>
      <path id="Path_1785" data-name="Path 1785" d="M507.707,333.193s1.729-2.613,3.352-2.3c0,0-1.411,2.65-3.519,3.054Z" transform="translate(-502.915 -312.691)" fill="#6c63ff"/>
      <path id="Path_1786" data-name="Path 1786" d="M513.452,309.17s1.965-2.554,3.036-2.334c0,0-1.281,2.69-3.058,2.834Z" transform="translate(-508.131 -291.398)" fill="#6c63ff"/>
      <path id="Path_1787" data-name="Path 1787" d="M518.35,282.8s1.574-2.925,2.7-2.9c0,0-.833,2.518-2.654,3.162Z" transform="translate(-512.488 -267.556)" fill="#6c63ff"/>
      <path id="Path_1788" data-name="Path 1788" d="M522.6,256.99s1.44-2.28,2.395-2.43c0,0-.962,2.888-2.362,3.091Z" transform="translate(-516.251 -245.118)" fill="#6c63ff"/>
      <path id="Path_1789" data-name="Path 1789" d="M524.072,222.019l1.03-4.429s.695,3.74-1.122,5.235Z" transform="translate(-517.473 -212.38)" fill="#6c63ff"/>
      <path id="Path_1790" data-name="Path 1790" d="M520.407,186.156a25.033,25.033,0,0,0-.507-3.766s1.686,2.686.744,5.3Z" transform="translate(-513.86 -181.21)" fill="#6c63ff"/>
      <path id="Path_1791" data-name="Path 1791" d="M504.184,537.846s-1.946-.809-2.654,2.061c0,0,1.741.789,2.976-1.407Z" transform="translate(-497.593 -495.882)" fill="#6c63ff"/>
      <path id="Path_1792" data-name="Path 1792" d="M491.065,513.206s-2.327-.637-2.925,2.331c0,0,1.86.878,3.237-1.655Z" transform="translate(-485.736 -474.106)" fill="#6c63ff"/>
      <path id="Path_1793" data-name="Path 1793" d="M477.182,488.063s-1.846-1.564-3.892.631a3.369,3.369,0,0,0,3.967-.167Z" transform="translate(-472.586 -451.413)" fill="#6c63ff"/>
      <path id="Path_1794" data-name="Path 1794" d="M471.927,462.846a2.642,2.642,0,0,0-3.827.52,3.434,3.434,0,0,0,3.9-.074Z" transform="translate(-467.99 -429.033)" fill="#6c63ff"/>
      <path id="Path_1795" data-name="Path 1795" d="M470.892,435.25s-1.547-2.554-3.752-.99c0,0,1.686,2.214,3.728,1.458Z" transform="translate(-467.14 -403.798)" fill="#6c63ff"/>
      <path id="Path_1796" data-name="Path 1796" d="M471.178,409.4s-1.548-2.6-3.778-.916c0,0,1.9,2.307,3.732,1.366Z" transform="translate(-467.37 -380.917)" fill="#6c63ff"/>
      <path id="Path_1797" data-name="Path 1797" d="M479.743,375.65s-.928-2.976-2.983-2.925c0,0,.949,3.146,2.8,3.518Z" transform="translate(-475.659 -349.756)" fill="#6c63ff"/>
      <path id="Path_1798" data-name="Path 1798" d="M485.222,349.571s-.763-3.643-2.452-3.5a7.077,7.077,0,0,0,2.349,4.051Z" transform="translate(-480.981 -326.149)" fill="#6c63ff"/>
      <path id="Path_1799" data-name="Path 1799" d="M489.9,326.091s-.993-2.976-2.643-3.091c0,0,.678,2.926,2.608,3.861Z" transform="translate(-484.957 -305.724)" fill="#6c63ff"/>
      <path id="Path_1800" data-name="Path 1800" d="M503.047,300.268s-.532-3.178-1.581-3.488c0,0-.135,2.976,1.366,3.94Z" transform="translate(-497.533 -282.505)" fill="#6c63ff"/>
      <path id="Path_1801" data-name="Path 1801" d="M505.469,277.359s-.667-3.253-1.749-3.549c0,0,.076,2.648,1.633,3.79Z" transform="translate(-499.533 -262.165)" fill="#6c63ff"/>
      <path id="Path_1802" data-name="Path 1802" d="M514.307,253.332s-.438-2.661-1.259-3.172c0,0-.242,3.035.97,3.768Z" transform="translate(-507.775 -241.222)" fill="#6c63ff"/>
      <path id="Path_1803" data-name="Path 1803" d="M512.684,221.831l-1.418-4.321s-.361,3.788,1.581,5.116Z" transform="translate(-506.191 -212.309)" fill="#6c63ff"/>
      <path id="Path_1804" data-name="Path 1804" d="M501.1,193.139a24.477,24.477,0,0,1-2.289-3.029s.7,3.091,3.205,4.284Z" transform="translate(-495.185 -188.046)" fill="#6c63ff"/>
      <path id="Path_1805" data-name="Path 1805" d="M494.6,176.258s-2.38-3.96-3.205-4.178a5.429,5.429,0,0,1,3.32,4.034Z" transform="translate(-488.614 -172.08)" fill="#6c63ff"/>
      <path id="Path_1806" data-name="Path 1806" d="M519.156,214.828l-.121-.017c.673-4.891.547-7.925-.355-8.54l.07-.1C519.706,206.821,519.847,209.814,519.156,214.828Z" transform="translate(-512.78 -202.268)" fill="#444053"/>
      <path id="Path_1807" data-name="Path 1807" d="M502.521,290.506l-.181-.033c.082-.452.175-.916.278-1.367.888-3.96,1.6-7.625,1.982-10.417l.136-.1c-.385,2.792-1.049,6.587-1.939,10.551C502.7,289.6,502.6,290.056,502.521,290.506Z" transform="translate(-498.311 -266.397)" fill="#444053"/>
      <path id="Path_1808" data-name="Path 1808" d="M506.451,404.7a23.846,23.846,0,0,1-5.1-6.446,26.566,26.566,0,0,1-2.884-7.867,31.069,31.069,0,0,1,.1-11.152l.161.136a28.147,28.147,0,0,0,2.824,18.753,23.609,23.609,0,0,0,5.049,6.384Z" transform="translate(-494.473 -355.526)" fill="#444053"/>
    </g>
    <path id="Path_1815" data-name="Path 1815" d="M135.46,630.91" transform="translate(-122.91 -566.942)" fill="none"/>
    <path id="Path_1835" data-name="Path 1835" d="M383.33,301.331l-4.693-4.72a2.492,2.492,0,0,0-3.539-.024L345.625,325.81l-12.462-12.559a2.485,2.485,0,0,0-3.514-.025l-4.744,4.693a2.518,2.518,0,0,0-.024,3.539l18.925,19.074a2.518,2.518,0,0,0,3.54.025L383.3,304.869a2.492,2.492,0,0,0,.026-3.538Z" transform="translate(-290.014 -270.248)" fill="#3acc6c"/>
    <g id="Group_132" data-name="Group 132" transform="translate(83.12 68.924)" opacity="0.5">
      <path id="Path_1836" data-name="Path 1836" d="M755.053,674.215s-3.5-.211-3.091,2.242a.6.6,0,0,0,.311.63s0-.182.358-.12a1.576,1.576,0,0,0,.381.018.786.786,0,0,0,.465-.191h0a2.78,2.78,0,0,0,1.367-2.016s.283-.35.271-.441l-.591.253a1.055,1.055,0,0,1,.043.78s-.02-.765-.133-.746c-.023,0-.307.148-.307.148a1.765,1.765,0,0,1,.085,1.282s.1-.916-.193-1.228l-.416.243a1.838,1.838,0,0,1,.131,1.392,2.6,2.6,0,0,0-.219-1.332l-.377.293a1.8,1.8,0,0,1,.149,1.275s-.03-1.117-.229-1.2a2.287,2.287,0,0,0-.38.411s.261.548.1.838c0,0-.1-.745-.181-.747a2.469,2.469,0,0,0-.363.83,1.789,1.789,0,0,1,.283-.878.99.99,0,0,0-.5.261s.05-.343.584-.38a2.312,2.312,0,0,1,.343-.4,2.149,2.149,0,0,0-.852.1.953.953,0,0,1,.948-.18l.372-.3a3.067,3.067,0,0,0-.994.009,1.214,1.214,0,0,1,1.094-.079l.405-.242a3.691,3.691,0,0,0-.95-.082,1.459,1.459,0,0,1,1.069.017l.29-.13s-.436-.086-.564-.1-.134-.049-.134-.049a1.514,1.514,0,0,1,.818.092A3.707,3.707,0,0,0,755.053,674.215Z" transform="translate(-751.928 -674.211)" fill="#6c63ff"/>
    </g>
    <g id="Group_133" data-name="Group 133" transform="translate(79.323 51.793)" opacity="0.5">
      <path id="Path_1837" data-name="Path 1837" d="M719.406,524.563s-1.778,3.023.6,3.77a.6.6,0,0,0,.7.009s-.159-.088.055-.374a1.63,1.63,0,0,0,.19-.331.8.8,0,0,0,.04-.5h0A2.781,2.781,0,0,0,719.814,525s-.184-.412-.269-.443l-.044.641a1.06,1.06,0,0,1,.714.316s-.687-.33-.726-.221c-.007.023-.008.343-.008.343a1.747,1.747,0,0,1,1.181.506s-.769-.5-1.183-.385l.027.481a1.837,1.837,0,0,1,1.3.515,2.606,2.606,0,0,0-1.287-.411l.09.469a1.778,1.778,0,0,1,1.2.445s-1.009-.48-1.175-.343a2.625,2.625,0,0,0,.192.525s.608.016.792.292c0,0-.709-.25-.749-.179a2.52,2.52,0,0,0,.572.7,1.79,1.79,0,0,1-.654-.651.987.987,0,0,0,0,.572s-.287-.2-.072-.687a2.279,2.279,0,0,1-.2-.487,2.171,2.171,0,0,0-.3.8.957.957,0,0,1,.27-.927l-.1-.469a3.1,3.1,0,0,0-.443.891,1.21,1.21,0,0,1,.427-1.011l-.032-.47a3.645,3.645,0,0,0-.5.808,1.456,1.456,0,0,1,.5-.944l.016-.317s-.275.35-.343.458-.1.1-.1.1a1.506,1.506,0,0,1,.452-.687A3.832,3.832,0,0,0,719.406,524.563Z" transform="translate(-718.766 -524.56)" fill="#6c63ff"/>
    </g>
    <g id="Group_134" data-name="Group 134" transform="translate(68.205 27.674)" opacity="0.5">
      <path id="Path_1838" data-name="Path 1838" d="M622.279,313.862s-1.777,3.024.6,3.77a.6.6,0,0,0,.7.009s-.159-.088.056-.374a1.63,1.63,0,0,0,.189-.331.792.792,0,0,0,.04-.5h0a2.776,2.776,0,0,0-1.176-2.133s-.184-.411-.269-.442l-.043.64a1.058,1.058,0,0,1,.714.316s-.687-.33-.725-.221c-.008.023-.008.343-.008.343a1.745,1.745,0,0,1,1.18.506s-.769-.5-1.182-.385l.029.481a1.835,1.835,0,0,1,1.3.515,2.618,2.618,0,0,0-1.287-.411l.09.469a1.78,1.78,0,0,1,1.2.446s-1.01-.481-1.176-.343a2.564,2.564,0,0,0,.193.524s.607.016.791.292c0,0-.709-.25-.747-.179a2.481,2.481,0,0,0,.572.7,1.793,1.793,0,0,1-.655-.65.994.994,0,0,0,0,.565s-.287-.2-.072-.693a2.28,2.28,0,0,1-.2-.487,2.172,2.172,0,0,0-.3.8.956.956,0,0,1,.271-.927l-.1-.469a3.074,3.074,0,0,0-.442.891,1.206,1.206,0,0,1,.426-1.011l-.032-.47a3.65,3.65,0,0,0-.5.808,1.452,1.452,0,0,1,.5-.943l.016-.318s-.275.35-.343.458-.1.1-.1.1a1.514,1.514,0,0,1,.458-.687A3.673,3.673,0,0,0,622.279,313.862Z" transform="translate(-621.641 -313.86)" fill="#6c63ff"/>
    </g>
    <g id="Group_135" data-name="Group 135" transform="translate(26.833 4.771)" opacity="0.5">
      <path id="Path_1839" data-name="Path 1839" d="M263.967,113.79s-6.617,4.808-2.237,8.616a1.4,1.4,0,0,0,1.495.674s-.259-.337.468-.749a3.729,3.729,0,0,0,.712-.531,1.843,1.843,0,0,0,.553-1.03h0s1.17-2.191-.525-5.655c0,0-.01-1.052-.165-1.2l-.687,1.33a2.471,2.471,0,0,1,1.234,1.342s-1.169-1.35-1.346-1.145c-.035.04-.334.721-.334.721s1.727.822,2.055,2.182c0,0-1.177-1.795-2.175-1.925l-.388,1.054a4.287,4.287,0,0,1,2.3,2.314s-1.3-1.832-2.37-2.078l-.243,1.089s1.806.8,2.158,2.074c0,0-1.717-1.967-2.2-1.821a5.389,5.389,0,0,0-.077,1.3s1.284.6,1.422,1.362c0,0-1.283-1.193-1.434-1.078a5.775,5.775,0,0,0,.579,2.034,4.185,4.185,0,0,1-.793-2,2.317,2.317,0,0,0-.519,1.215s-.426-.7.489-1.549a5.33,5.33,0,0,1,.032-1.225,5.04,5.04,0,0,0-1.389,1.439s.022-1.012,1.442-1.73l.22-1.1a7.192,7.192,0,0,0-1.774,1.488s.182-1.03,1.852-1.765l.371-1.036a8.654,8.654,0,0,0-1.832,1.259,3.4,3.4,0,0,1,1.946-1.553l.329-.664s-.916.492-1.162.657-.315.114-.315.114a3.521,3.521,0,0,1,1.609-1.05A8.667,8.667,0,0,0,263.967,113.79Z" transform="translate(-260.232 -113.79)" fill="#6c63ff"/>
    </g>
    <g id="Group_136" data-name="Group 136" transform="translate(14.256 19.641)" opacity="0.5">
      <path id="Path_1840" data-name="Path 1840" d="M160.247,244.68s-8.559-3.6-9.681,2.89a1.58,1.58,0,0,0,.229,1.848s.175-.449,1,.015a4.255,4.255,0,0,0,.934.38,2.1,2.1,0,0,0,1.33-.071h0s2.814-.152,5.182-3.835c0,0,1.014-.627,1.066-.863l-1.7.115a2.816,2.816,0,0,1-.572,1.987s.624-1.928.324-1.982c-.061-.011-.9.1-.9.1s.216,2.16-.916,3.277c0,0,1.051-2.2.593-3.238l-1.251.242a4.85,4.85,0,0,1-.9,3.593s1.018-2.335.625-3.521l-1.2.4s.29,2.222-.746,3.32c0,0,.9-2.817.479-3.205a6.271,6.271,0,0,0-1.31.687s.172,1.6-.488,2.181c0,0,.405-1.946.2-2.026a6.552,6.552,0,0,0-1.636,1.757,4.76,4.76,0,0,1,1.478-1.946,2.624,2.624,0,0,0-1.488.209s.434-.825,1.792-.434a5.9,5.9,0,0,1,1.208-.687,5.774,5.774,0,0,0-2.213-.5,2.534,2.534,0,0,1,2.526.383l1.194-.433a8.137,8.137,0,0,0-2.491-.847s1.106-.428,2.8.762l1.225-.253a9.7,9.7,0,0,0-2.3-1.036,3.851,3.851,0,0,1,2.653.979l.838-.07s-1.014-.6-1.321-.743-.293-.239-.293-.239a4,4,0,0,1,1.966.946A9.7,9.7,0,0,0,160.247,244.68Z" transform="translate(-150.363 -243.685)" fill="#6c63ff"/>
    </g>
    <g id="Group_137" data-name="Group 137" transform="translate(10.703 6.908)" opacity="0.5">
      <path id="Path_1841" data-name="Path 1841" d="M127.633,137.1s-3.035-7.014-7.4-3.8a1.3,1.3,0,0,0-.916,1.225s.359-.167.586.58a3.555,3.555,0,0,0,.343.757,1.724,1.724,0,0,0,.831.715h0s1.758,1.513,5.266.674a3.433,3.433,0,0,0,1.125.1l-1.073-.9a2.3,2.3,0,0,1-1.474.852s1.469-.79,1.321-.992c-.03-.041-.588-.451-.588-.451a3.808,3.808,0,0,1-2.4,1.427s1.876-.707,2.2-1.585l-.881-.572a4.056,4.056,0,0,1-2.594,1.63s1.935-.807,2.378-1.737l-.942-.438s-1.094,1.488-2.332,1.544c0,0,2.142-1.158,2.109-1.631a4.975,4.975,0,0,0-1.171-.334s-.809,1.047-1.532,1.018c0,0,1.35-.926,1.275-1.087a5.361,5.361,0,0,0-1.972.114,3.907,3.907,0,0,1,1.986-.314,2.145,2.145,0,0,0-1-.721s.729-.244,1.312.761a4.982,4.982,0,0,1,1.11.279,4.682,4.682,0,0,0-1.03-1.559s.916.229,1.283,1.668l.956.425a6.663,6.663,0,0,0-1-1.922s.9.375,1.231,2.049l.869.548a8.03,8.03,0,0,0-.775-1.927,3.175,3.175,0,0,1,1.019,2.094l.538.435s-.263-.932-.363-1.193-.037-.309-.037-.309a3.291,3.291,0,0,1,.628,1.68A7.859,7.859,0,0,0,127.633,137.1Z" transform="translate(-119.32 -132.456)" fill="#6c63ff"/>
    </g>
    <g id="Group_138" data-name="Group 138" transform="translate(74.659 12.61)" opacity="0.5">
      <path id="Path_1842" data-name="Path 1842" d="M681.523,184.856s-.715-3.434-2.976-2.391a.6.6,0,0,0-.527.466s.177-.042.211.315a1.638,1.638,0,0,0,.081.372.8.8,0,0,0,.308.4h0a2.777,2.777,0,0,0,2.3.79s.413.181.5.146l-.4-.5a1.057,1.057,0,0,1-.741.246s.733-.219.687-.324c-.01-.022-.223-.258-.223-.258a1.746,1.746,0,0,1-1.214.419s.908-.144,1.134-.509l-.343-.338a1.837,1.837,0,0,1-1.31.491,2.611,2.611,0,0,0,1.23-.56l-.382-.286a1.8,1.8,0,0,1-1.192.477s1.07-.323,1.1-.538a2.279,2.279,0,0,0-.5-.259s-.458.4-.782.316c0,0,.687-.291.674-.371a2.468,2.468,0,0,0-.9-.132,1.8,1.8,0,0,1,.921.042.982.982,0,0,0-.383-.417s.35-.042.52.458a2.246,2.246,0,0,1,.473.229,2.2,2.2,0,0,0-.318-.8.958.958,0,0,1,.422.869l.39.279a3.07,3.07,0,0,0-.27-.957,1.205,1.205,0,0,1,.363,1.03l.344.327a3.675,3.675,0,0,0-.17-.938,1.451,1.451,0,0,1,.263,1.03l.2.246s-.031-.443-.052-.572.011-.143.011-.143a1.514,1.514,0,0,1,.127.815A3.835,3.835,0,0,0,681.523,184.856Z" transform="translate(-678.02 -182.268)" fill="#6c63ff"/>
    </g>
    <g id="Group_139" data-name="Group 139" transform="translate(62.338 76.271)" opacity="0.5">
      <path id="Path_1843" data-name="Path 1843" d="M573.894,740.976s-.714-3.434-2.976-2.391a.6.6,0,0,0-.528.466s.177-.042.211.315a1.58,1.58,0,0,0,.082.372.8.8,0,0,0,.307.4h0a2.778,2.778,0,0,0,2.3.79s.413.181.5.146l-.4-.5a1.058,1.058,0,0,1-.742.246s.733-.219.687-.324c-.009-.022-.223-.258-.223-.258a1.747,1.747,0,0,1-1.215.419s.909-.144,1.134-.509l-.343-.344a1.8,1.8,0,0,1-1.305.49,2.611,2.611,0,0,0,1.229-.56l-.382-.286a1.794,1.794,0,0,1-1.191.477s1.07-.322,1.1-.538a2.31,2.31,0,0,0-.5-.259s-.458.4-.783.316c0,0,.687-.291.674-.371a2.465,2.465,0,0,0-.9-.132,1.8,1.8,0,0,1,.923.042.991.991,0,0,0-.384-.417s.349-.042.519.458a2.246,2.246,0,0,1,.474.229,2.2,2.2,0,0,0-.318-.8.956.956,0,0,1,.421.869l.392.279a3.082,3.082,0,0,0-.271-.957,1.2,1.2,0,0,1,.364,1.03l.343.327a3.637,3.637,0,0,0-.171-.938,1.448,1.448,0,0,1,.265,1.03l.2.246s-.032-.443-.053-.572.012-.142.012-.142a1.508,1.508,0,0,1,.127.814A4.3,4.3,0,0,0,573.894,740.976Z" transform="translate(-570.39 -738.388)" fill="#6c63ff"/>
    </g>
  </g>
</svg>
