<svg xmlns="http://www.w3.org/2000/svg" xmlns:xlink="http://www.w3.org/1999/xlink" width="136.996" height="101.891" viewBox="0 0 136.996 101.891"><defs><style>.a{fill:url(#a);}.b{fill:#fff;}.c{fill:#0db2b9;}.d{fill:#bdbdbd;}.e{fill:#e0e0e0;}.f{fill:url(#b);}.g{fill:#6c63ff;opacity:0.1;}</style><linearGradient id="a" x1="0.5" y1="1.198" x2="0.5" y2="-0.168" gradientUnits="objectBoundingBox"><stop offset="0" stop-color="gray" stop-opacity="0.251"/><stop offset="0.535" stop-color="gray" stop-opacity="0.122"/><stop offset="1" stop-color="gray" stop-opacity="0.102"/></linearGradient><linearGradient id="b" x1="0.5" y1="1" x2="0.5" y2="0" xlink:href="#a"/></defs><g transform="translate(6.915 6.911)"><rect class="a" width="108.192" height="66.078" rx="10" transform="translate(-6.915 25.193) rotate(-17.261)"/><rect class="b" width="105.984" height="63.739" rx="10" transform="translate(-5.301 25.411) rotate(-17.261)"/><rect class="c" width="105.984" height="9.141" transform="translate(-2.809 33.432) rotate(-17.261)"/><rect class="d" width="26.928" height="3.953" transform="translate(18.114 72.462) rotate(-17.261)"/><rect class="e" width="46.692" height="3.953" transform="translate(16.135 66.092) rotate(-17.261)"/><rect class="f" width="108.802" height="66.143" rx="10" transform="translate(21.279 28.837)"/><rect class="b" width="105.984" height="63.739" rx="10" transform="translate(22.514 29.512)"/><rect class="e" width="3.088" height="8.77" transform="translate(47.718 60.454)"/><rect class="e" width="3.088" height="8.77" transform="translate(51.671 60.454)"/><rect class="e" width="3.088" height="8.77" transform="translate(55.624 60.454)"/><rect class="e" width="3.088" height="8.77" transform="translate(62.541 60.454)"/><rect class="e" width="3.088" height="8.77" transform="translate(66.494 60.454)"/><rect class="e" width="3.088" height="8.77" transform="translate(70.447 60.454)"/><rect class="e" width="3.088" height="8.77" transform="translate(77.364 60.454)"/><rect class="e" width="3.088" height="8.77" transform="translate(81.317 60.454)"/><rect class="e" width="3.088" height="8.77" transform="translate(85.27 60.454)"/><rect class="e" width="3.088" height="8.77" transform="translate(92.187 60.454)"/><rect class="e" width="3.088" height="8.77" transform="translate(96.14 60.454)"/><rect class="e" width="3.088" height="8.77" transform="translate(100.093 60.454)"/><rect class="c" width="18.413" height="10.097" transform="translate(29.257 46.21)"/><rect class="g" width="11.285" height="11.285" transform="translate(100.829 79.323)"/><rect class="g" width="11.285" height="11.285" transform="translate(106.471 79.323)"/></g></svg>