<svg xmlns="http://www.w3.org/2000/svg" width="155.891" height="122.482" viewBox="0 0 155.891 122.482"><defs><style>.a{fill:#ff6584;}.b{fill:#2f2e41;}.c{fill:#d0cde1;}.d{fill:#3f3d56;}.e{fill:#ffb8b8;}.f{fill:#0db2b9;}.g{opacity:0.1;}</style></defs><rect class="a" width="7.23" height="7.23" transform="translate(131.093 61.907) rotate(150)"/><path class="b" d="M890.817,430.717l-3.775-6.538,6.538-3.775,3.775,6.538Zm-3.338-6.421,3.455,5.985,5.985-3.455-3.455-5.985Z" transform="translate(-763.258 -363.89)"/><circle class="c" cx="3.034" cy="3.034" r="3.034" transform="translate(118.667 78.328)"/><path class="b" d="M871.194,562.388a3.194,3.194,0,1,1,3.194-3.194A3.194,3.194,0,0,1,871.194,562.388Zm0-6.068a2.874,2.874,0,1,0,2.874,2.875A2.875,2.875,0,0,0,871.194,556.319Z" transform="translate(-747.257 -477.832)"/><circle class="c" cx="16.927" cy="16.927" r="16.927" transform="translate(25.071 46.113)"/><path class="d" d="M339.447,475.928l4.164,2.58V461.067l-4.667-2.892a1.81,1.81,0,0,1-.79-1.052h0a1.81,1.81,0,0,1,1.293.239l4.164,2.58V453.18a16,16,0,0,1,.478-3.881,16,16,0,0,1,.478,3.881v11.039l6.143-3.806a.884.884,0,1,1,.5.812l-6.646,4.118V499.67h-.956V479.632l-4.667-2.892a1.811,1.811,0,0,1-.79-1.052h0A1.81,1.81,0,0,1,339.447,475.928Z" transform="translate(-302.022 -388.169)"/><circle class="c" cx="16.927" cy="16.927" r="16.927" transform="translate(0 47.55)"/><path class="d" d="M178.664,484.928l-4.164,2.58V470.067l4.667-2.892a1.811,1.811,0,0,0,.79-1.052h0a1.81,1.81,0,0,0-1.293.239l-4.164,2.58v-6.763a16,16,0,0,0-.478-3.881,16,16,0,0,0-.478,3.881v11.039l-6.143-3.807a3.01,3.01,0,0,0-1.635-.451,3.01,3.01,0,0,0,1.132,1.263l6.646,4.118V508.67h.956V488.632l4.667-2.892a1.811,1.811,0,0,0,.79-1.052h0A1.811,1.811,0,0,0,178.664,484.928Z" transform="translate(-157.163 -395.732)"/><ellipse class="d" cx="47.747" cy="2.331" rx="47.747" ry="2.331" transform="translate(13.893 110.825)"/><ellipse class="d" cx="47.747" cy="2.331" rx="47.747" ry="2.331" transform="translate(56.85 114.489)"/><ellipse class="d" cx="47.747" cy="2.331" rx="47.747" ry="2.331" transform="translate(16.927 117.819)"/><path class="e" d="M462.958,687,462,691.631h3.992L465.513,687Z" transform="translate(-388.223 -577.293)"/><path class="e" d="M374.958,677,374,681.631h3.992L377.513,677Z" transform="translate(-314.276 -568.89)"/><path class="e" d="M528.392,485.639s1.278,5.589,2.555,7.346,4.312,6.867,4.312,6.867.639,6.388,3.034,4.95-1.277-6.068-1.277-6.068l-4.631-10.22L531.426,485Z" transform="translate(-461.881 -418.17)"/><circle class="e" cx="4.337" cy="4.337" r="4.337" transform="translate(69.159 44.437)"/><path class="e" d="M542.78,380.757l-2.076,4.631-4.312-1.118s3.354-3.673,2.874-5.27Z" transform="translate(-468.604 -329.097)"/><path class="b" d="M495.926,407s5.11.16,6.388,1.916,1.916,2.555,1.916,2.555a2.889,2.889,0,0,1,1.916,2.715c.16,2.236.479,5.908.479,5.908s3.833,4.152,4.471,12.137,6.068,31.459,0,31.619-10.38,2.4-9.581-.479,2.076-19.482,2.076-19.482-.958,20.44-4.791,20.281-8.783-2.715-9.9-3.034,8.144-19.961,8.144-19.961l1.118-17.087S490.017,409.715,495.926,407Z" transform="translate(-428.616 -352.626)"/><path class="b" d="M411.5,370.5l.8,10.38h3.513Z" transform="translate(-345.788 -311.335)"/><path class="e" d="M565.392,483.639s1.278,5.589,2.555,7.346,4.312,6.867,4.312,6.867.639,6.388,3.034,4.95-1.277-6.068-1.277-6.068l-4.631-10.22L568.426,483Z" transform="translate(-492.972 -416.489)"/><path class="b" d="M570.715,767.317s-1.118-1.277-1.437-.639-1.757,3.833.319,3.833,11.178-.479,10.061-2.4a2.442,2.442,0,0,0-2.715-1.437h-2.076s-1.494-1.668-1.785-1.073-.77,1.552-.77,1.552A1.226,1.226,0,0,1,570.715,767.317Z" transform="translate(-495.581 -653.857)"/><path class="b" d="M474.013,752.276s-.279-1.674-.886-1.3-3.51,2.335-1.745,3.427,9.758,5.474,9.816,3.256a2.442,2.442,0,0,0-1.553-2.65l-1.765-1.092s-.393-2.2-.953-1.852-1.472.915-1.472.915A1.226,1.226,0,0,1,474.013,752.276Z" transform="translate(-413.503 -641.627)"/><path class="b" d="M550.778,410.119s-1.118,2.236,0,6.228,1.916,7.346,1.916,7.346,2.555-1.6,3.673-1.118-1.768-10.642-1.768-10.642S552.854,408.2,550.778,410.119Z" transform="translate(-480.274 -354.787)"/><path class="b" d="M534.884,338.612s1.546-5.4-4.5-4.472c0,0-4.007-1.384-6.144,3.566l-2.192,5.2.722-.262.207.727,1.039.438.6-.848.054,1.149,8.72,2.232s-3.608-2.949-3.031-7.162l.634.913Z" transform="translate(-456.549 -291.251)"/><rect class="f" width="31.938" height="29.862" transform="translate(110.181 86.804)"/><rect class="d" width="6.707" height="31.632" transform="translate(122.797 85.993)"/><circle class="c" cx="29.144" cy="29.144" r="29.144" transform="translate(0.079 0)"/><path class="d" d="M227.351,274.249l-7.169,4.442V248.662l8.036-4.979a3.117,3.117,0,0,0,1.36-1.811h0a3.117,3.117,0,0,0-2.227.412l-7.169,4.442V235.082a27.552,27.552,0,0,0-.823-6.682,27.552,27.552,0,0,0-.823,6.682v19.006l-10.576-6.554a5.183,5.183,0,0,0-2.815-.777,5.183,5.183,0,0,0,1.948,2.175l11.443,7.091v59.1h1.645v-34.5l8.036-4.979a3.117,3.117,0,0,0,1.36-1.811h0A3.117,3.117,0,0,0,227.351,274.249Z" transform="translate(-190.254 -202.546)"/><path class="d" d="M249.974,789.762a.871.871,0,0,0-.518.185c-.442-1.185-1.125-1.947-1.894-1.947s-1.452.762-1.894,1.947a.87.87,0,0,0-.518-.185c-.873,0-1.58,1.5-1.58,3.348h7.985C251.555,791.261,250.847,789.762,249.974,789.762Z" transform="translate(-222.542 -672.784)"/><path class="d" d="M355.974,736.762a.87.87,0,0,0-.518.185c-.442-1.185-1.125-1.947-1.894-1.947s-1.452.762-1.894,1.947a.871.871,0,0,0-.518-.185c-.873,0-1.58,1.5-1.58,3.348h7.984C357.554,738.261,356.847,736.762,355.974,736.762Z" transform="translate(-311.615 -628.247)"/><path class="d" d="M230.974,750.762a.871.871,0,0,0-.518.185c-.442-1.185-1.125-1.947-1.894-1.947s-1.452.762-1.894,1.947a.87.87,0,0,0-.518-.185c-.873,0-1.58,1.5-1.58,3.348h7.984C232.555,752.261,231.847,750.762,230.974,750.762Z" transform="translate(-206.576 -640.012)"/><path class="d" d="M1004.135,564.637c-.172,2.817-3.977,4.877-3.977,4.877s-3.527-2.507-3.355-5.324,3.977-4.877,3.977-4.877S1004.306,561.82,1004.135,564.637Z" transform="translate(-855.487 -480.616)"/><path class="d" d="M1018.1,609.073c-2.818-.163-4.89-3.962-4.89-3.962s2.5-3.535,5.314-3.372,4.89,3.962,4.89,3.962S1020.917,609.236,1018.1,609.073Z" transform="translate(-869.279 -516.263)"/><path class="g" d="M835.409,546.841v10.425L825.04,543.58h7.9Z" transform="translate(-693.289 -456.776)"/><rect class="f" width="38.326" height="6.547" transform="translate(132.746 73.841) rotate(52.85)"/><rect class="d" width="6.867" height="6.867" transform="translate(142.274 85.756) rotate(52.85)"/><rect class="c" width="7.23" height="7.23" transform="matrix(-0.966, -0.259, 0.259, -0.966, 119.232, 73.753)"/><path class="b" d="M801.619,486.24l-7.292-1.954,1.954-7.292,7.292,1.954Zm-6.9-2.18,6.675,1.789,1.789-6.675-6.675-1.789Z" transform="translate(-685.349 -411.442)"/></svg>