<svg xmlns="http://www.w3.org/2000/svg" xmlns:xlink="http://www.w3.org/1999/xlink" width="166.454" height="131.468" viewBox="0 0 166.454 131.468"><defs><style>.a{fill:#f5f5f5;}.b{fill:none;stroke:#535461;stroke-miterlimit:10;stroke-width:2px;}.c{fill:#6c63ff;}.d{opacity:0.25;}.e,.k{opacity:0.1;}.f{fill:aqua;}.g{fill:url(#a);}.h{fill:#333;}.i{fill:#fdb797;}.j{fill:#252a62;}.l{fill:#f55f44;}.m{fill:#72351c;}.n{fill:url(#b);}.o{fill:url(#c);}.p{fill:url(#d);}.q{fill:#ffc533;}.r{fill:#3ad29f;}.s{fill:#444;}.t{fill:#535461;}.u{fill:#0db2b9;}.v{fill:#fff;opacity:0.5;}</style><linearGradient id="a" x1="0.5" y1="1" x2="0.5" gradientUnits="objectBoundingBox"><stop offset="0" stop-color="gray" stop-opacity="0.251"/><stop offset="0.54" stop-color="gray" stop-opacity="0.122"/><stop offset="1" stop-color="gray" stop-opacity="0.102"/></linearGradient><linearGradient id="b" x1="0.5" y1="1" x2="0.5" y2="0" xlink:href="#a"/><linearGradient id="c" x1="0.501" y1="1" x2="0.501" y2="0.003" xlink:href="#a"/><linearGradient id="d" x1="0.5" y1="1" x2="0.5" y2="0" xlink:href="#a"/></defs><g transform="translate(-0.01 0.004)"><path class="a" d="M183.43,82.342c-2.088,1.087-4.179,2.455-5.242,4.555a13.22,13.22,0,0,0-1.053,5.041l-1.545,20.581c-.343,4.586-.719,9.3-2.722,13.441-3.45,7.134-10.96,11.206-16.6,16.772-9.24,9.123-13.206,24.5-6.267,35.476a23.033,23.033,0,0,0,13.275,9.81,45.338,45.338,0,0,0,9.911,1.18q41.853,1.815,83.764,1.456c3.317-.029,6.726-.086,9.787-1.346,4.229-1.739,7.268-5.568,9.361-9.634s3.434-8.481,5.414-12.6c4.052-8.414,10.646-15.272,16.391-22.626a49.834,49.834,0,0,0,7.912-13.172c2.828-7.668,2.333-16.688-2.086-23.565-1.909-2.972-4.509-5.546-5.809-8.831-1.815-4.593-.8-9.737-.369-14.657s-.041-10.536-3.827-13.707c-2.09-1.75-4.858-2.44-7.555-2.835-12.914-1.889-25.885,1.849-38.691,4.37a324.474,324.474,0,0,1-34.219,4.528C203.086,77.484,192.716,77.508,183.43,82.342Z" transform="translate(-141.115 -67.17)"/><path class="b" d="M326.7,453.043s-5-16.97.938-29.46a26.791,26.791,0,0,0,2.167-16.815,45.073,45.073,0,0,0-2.38-7.9" transform="translate(-288.756 -341.919)"/><path class="c" d="M325.581,334.785c0,2.079-3.766,8.11-3.766,8.11s-3.766-6.03-3.766-8.11a3.766,3.766,0,1,1,7.531,0Z" transform="translate(-283.223 -285.719)"/><path class="c" d="M361.649,391.958c-1.13,1.746-7.569,4.761-7.569,4.761s.117-7.109,1.247-8.855a3.766,3.766,0,1,1,6.322,4.093Z" transform="translate(-313.066 -331.379)"/><path class="c" d="M353.509,500.294c-1.856.936-8.929.29-8.929.29s3.678-6.073,5.538-7.014a3.765,3.765,0,1,1,3.391,6.724Z" transform="translate(-305.198 -420.023)"/><path class="c" d="M333.607,588.382c-1.672,1.236-8.757,1.8-8.757,1.8s2.61-6.614,4.281-7.85a3.765,3.765,0,1,1,4.478,6.055Z" transform="translate(-288.855 -493.263)"/><path class="c" d="M302.492,418.916c1.492,1.449,8.441,2.95,8.441,2.95s-1.7-6.9-3.194-8.352a3.766,3.766,0,1,0-5.247,5.4Z" transform="translate(-269.391 -353.167)"/><path class="c" d="M275.04,517.164c1.856.936,8.929.29,8.929.29s-3.69-6.078-5.546-7.014a3.765,3.765,0,1,0-3.391,6.724Z" transform="translate(-245.875 -433.996)"/><path class="c" d="M268.907,620.442c1.672,1.236,8.757,1.8,8.757,1.8s-2.61-6.614-4.281-7.85a3.765,3.765,0,1,0-4.478,6.055Z" transform="translate(-241.252 -519.819)"/><path class="d" d="M325.581,334.785c0,2.079-3.766,8.11-3.766,8.11s-3.766-6.03-3.766-8.11a3.766,3.766,0,1,1,7.531,0Z" transform="translate(-283.223 -285.719)"/><path class="d" d="M361.649,391.958c-1.13,1.746-7.569,4.761-7.569,4.761s.117-7.109,1.247-8.855a3.766,3.766,0,1,1,6.322,4.093Z" transform="translate(-313.066 -331.379)"/><path class="d" d="M353.509,500.294c-1.856.936-8.929.29-8.929.29s3.678-6.073,5.538-7.014a3.765,3.765,0,1,1,3.391,6.724Z" transform="translate(-305.198 -420.023)"/><path class="d" d="M333.607,588.382c-1.672,1.236-8.757,1.8-8.757,1.8s2.61-6.614,4.281-7.85a3.765,3.765,0,1,1,4.478,6.055Z" transform="translate(-288.855 -493.263)"/><path class="d" d="M302.492,418.916c1.492,1.449,8.441,2.95,8.441,2.95s-1.7-6.9-3.194-8.352a3.766,3.766,0,1,0-5.247,5.4Z" transform="translate(-269.391 -353.167)"/><path class="d" d="M275.04,517.164c1.856.936,8.929.29,8.929.29s-3.69-6.078-5.546-7.014a3.765,3.765,0,1,0-3.391,6.724Z" transform="translate(-245.875 -433.996)"/><path class="d" d="M268.907,620.442c1.672,1.236,8.757,1.8,8.757,1.8s-2.61-6.614-4.281-7.85a3.765,3.765,0,1,0-4.478,6.055Z" transform="translate(-241.252 -519.819)"/><path class="b" d="M885.072,399.912s-5-16.968.932-29.458a26.791,26.791,0,0,0,2.167-16.815,45.073,45.073,0,0,0-2.38-7.9" transform="translate(-751.252 -297.911)"/><path class="c" d="M883.961,281.645c0,2.079-3.766,8.11-3.766,8.11s-3.766-6.03-3.766-8.11a3.766,3.766,0,0,1,7.531,0Z" transform="translate(-745.725 -241.703)"/><path class="c" d="M920.029,338.858c-1.13,1.746-7.569,4.761-7.569,4.761s.117-7.109,1.247-8.855a3.766,3.766,0,0,1,6.322,4.093Z" transform="translate(-775.569 -287.396)"/><path class="c" d="M911.929,446.888c-1.856.936-8.929.29-8.929.29s3.69-6.078,5.546-7.014a3.766,3.766,0,1,1,3.383,6.724Z" transform="translate(-767.733 -375.741)"/><path class="c" d="M891.987,535.232c-1.672,1.236-8.757,1.8-8.757,1.8s2.61-6.614,4.281-7.85a3.765,3.765,0,1,1,4.477,6.055Z" transform="translate(-751.358 -449.24)"/><path class="c" d="M860.9,365.777c1.492,1.449,8.441,2.95,8.441,2.95s-1.7-6.9-3.189-8.357a3.769,3.769,0,1,0-5.252,5.407Z" transform="translate(-731.913 -309.146)"/><path class="c" d="M833.461,464.024c1.856.936,8.929.29,8.929.29s-3.683-6.078-5.538-7.014a3.765,3.765,0,0,0-3.391,6.724Z" transform="translate(-708.419 -389.981)"/><path class="c" d="M827.287,567.3c1.672,1.236,8.757,1.8,8.757,1.8s-2.61-6.614-4.281-7.85a3.765,3.765,0,1,0-4.478,6.055Z" transform="translate(-703.755 -475.803)"/><path class="d" d="M883.961,281.645c0,2.079-3.766,8.11-3.766,8.11s-3.766-6.03-3.766-8.11a3.766,3.766,0,0,1,7.531,0Z" transform="translate(-745.725 -241.703)"/><path class="d" d="M920.029,338.858c-1.13,1.746-7.569,4.761-7.569,4.761s.117-7.109,1.247-8.855a3.766,3.766,0,0,1,6.322,4.093Z" transform="translate(-775.569 -287.396)"/><path class="d" d="M911.929,446.888c-1.856.936-8.929.29-8.929.29s3.69-6.078,5.546-7.014a3.766,3.766,0,1,1,3.383,6.724Z" transform="translate(-767.733 -375.741)"/><path class="d" d="M891.987,535.232c-1.672,1.236-8.757,1.8-8.757,1.8s2.61-6.614,4.281-7.85a3.765,3.765,0,1,1,4.477,6.055Z" transform="translate(-751.358 -449.24)"/><path class="d" d="M860.9,365.777c1.492,1.449,8.441,2.95,8.441,2.95s-1.7-6.9-3.189-8.357a3.769,3.769,0,1,0-5.252,5.407Z" transform="translate(-731.913 -309.146)"/><path class="d" d="M833.461,464.024c1.856.936,8.929.29,8.929.29s-3.683-6.078-5.538-7.014a3.765,3.765,0,0,0-3.391,6.724Z" transform="translate(-708.419 -389.981)"/><path class="d" d="M827.287,567.3c1.672,1.236,8.757,1.8,8.757,1.8s-2.61-6.614-4.281-7.85a3.765,3.765,0,1,0-4.478,6.055Z" transform="translate(-703.755 -475.803)"/><g class="e" transform="translate(0.062 131.127)"><path class="f" d="M115.676,831.2c1.906-.687.234-.127-.1-.017A.249.249,0,0,0,115.676,831.2Z" transform="translate(-115.58 -830.861)"/></g><g class="e" transform="translate(0.01 131.429)"><path class="f" d="M115.331,832.635l-.052-.015v.034Z" transform="translate(-115.28 -832.62)"/></g><path class="g" d="M662.531,281.132a.129.129,0,0,1,.012-.065c.012-.022,0-.012,0-.017a.8.8,0,0,0,0-.129s-.23-.441-.5-1.047h0a8.264,8.264,0,0,1-.8-2.728s-4.013-14.042-6.726-15.576c0,0-2.232-3.975-2.208-6.212a12.647,12.647,0,0,0-.172-2.134c-.4-2.467-1.058-7.191-.453-8.055a8.844,8.844,0,0,0-1.008-9.475l.536-.082s-.029-.036-.077-.106l.077-.012a7.409,7.409,0,0,1-1.181-4.552,19.233,19.233,0,0,1,1.654-7.131q.244-.591.446-1.169a5.878,5.878,0,0,0,1.545-1.113l.055-.057.063-.06a10.024,10.024,0,0,0,2.287-4.164,19.817,19.817,0,0,0,.833-4.315,40.8,40.8,0,0,0,0-4.785,15.114,15.114,0,0,0-.917-5.476,13.222,13.222,0,0,1-.867-2,11.7,11.7,0,0,1-.208-1.465,7.83,7.83,0,0,0-2.656-5.036A6.176,6.176,0,0,0,646.8,192.9a8.906,8.906,0,0,0-2.919,1.585,9.865,9.865,0,0,0-1.078.943c-1.077,1.056-1.889,2.44-1.109,3.894q.086.158.184.309a5.309,5.309,0,0,0,2.5,7.739l.139.244h.015a8.831,8.831,0,0,1,.967,2.4,7.4,7.4,0,0,0-1.374,1.269,24.8,24.8,0,0,0-2.565,3.515,12.529,12.529,0,0,1-1.362,1.915c-.63.745-1.374,2.2-1.374,4.906v.616c-3.326,3.621-16.3.967-16.3.967a5.572,5.572,0,0,0-4.233.556.515.515,0,0,0-.172.788c1.374,1.655,4.753.663,4.753.663s12.154,2.124,13.1,2.831c.642.482,1.777.089,2.436-.211l-.136.153.172-.084-.934,8.4h.014l-.014.118s.216-.019.561-.043l.289.747h-.024l.3.707h0l.246.582c-.733,2.651-3.688,13.565-3.378,16.056,0,0-1.889,4.483-1.179,6.963,0,0-2.6,18.644-4.248,19.588l.232.1c-1.763,1.008-5.6,2.9-8.256,2.019,0,0-1.652.472.945,2.124,0,0,10.62,2.832,12.037,1.889l-.235-4.082.12.043a5.746,5.746,0,0,1,.824-2.687s4.248-11.564,4.013-17.464l3.965-9.581a11.016,11.016,0,0,0,1.345,2.62l1.652,4.248,2.715,3.541s8.5,13.452,7.9,17.464l.2.05c-.8,1.415-2.773,4.315-5.629,4.315,0,0-2.478,2.6,2.124,2.242,0,0,5.781-.354,10.029-2.715Z" transform="translate(-531.681 -171.156)"/><path class="h" d="M656.695,701.33s-5.462,3.642-8.876,2.5c0,0-1.593.455.91,2.048,0,0,10.242,2.732,11.607,1.82l-.343-5.917Z" transform="translate(-555.955 -592.444)"/><path class="h" d="M820.6,698.108S818.442,703,814.8,703c0,0-2.39,2.5,2.048,2.162a26.575,26.575,0,0,0,9.672-2.617l-1.959-5.106Z" transform="translate(-694.145 -589.222)"/><path class="i" d="M623.1,371.993l.859,2.22,5.572-.4-.57-3.755Z" transform="translate(-516.101 -306.522)"/><path class="j" d="M703.939,461.42s-3.755,13.321-3.413,16.046c0,0-1.82,4.324-1.139,6.714,0,0-2.5,17.979-4.1,18.888,0,0,4.636,2.1,4.779,2.048,1.594-.568-.113,0-.113,0a5.594,5.594,0,0,1,.8-2.617s4.1-11.152,3.869-16.841l5.462-13.2Z" transform="translate(-595.688 -393.728)"/><path class="k" d="M703.939,461.42s-3.755,13.321-3.413,16.046c0,0-1.82,4.324-1.139,6.714,0,0-2.5,17.979-4.1,18.888,0,0,4.636,2.1,4.779,2.048,1.594-.568-.113,0-.113,0a5.594,5.594,0,0,1,.8-2.617s4.1-11.152,3.869-16.841l5.462-13.2Z" transform="translate(-595.688 -393.728)"/><path class="j" d="M741.69,447l2.5,5.917s1.935,9.672,3.984,12.289l1.593,4.1,2.619,3.415s8.194,12.972,7.624,16.841c0,0,5.12,1.374,5.007-.343a11.589,11.589,0,0,1-1.252-3.642s-3.868-13.541-6.487-15.021c0,0-2.15-3.834-2.129-5.991a12.19,12.19,0,0,0-.172-2.06c-.383-2.38-1.02-6.934-.436-7.766a8.452,8.452,0,0,0-1.707-9.9Z" transform="translate(-634.121 -379.987)"/><path class="k" d="M815.592,489.231a11.589,11.589,0,0,1-1.252-3.642s-3.869-13.541-6.487-15.021c0,0-2.15-3.834-2.129-5.991a12.192,12.192,0,0,0-.172-2.061c-.383-2.38-1.02-6.933-.436-7.766a8.452,8.452,0,0,0-1.707-9.9l-.659.129a8.466,8.466,0,0,1,1.571,9.772c-.786,1.125.687,9.217.687,9.217-.568,1.935,2.049,6.6,2.049,6.6,2.617,1.48,6.487,15.021,6.487,15.021a11.59,11.59,0,0,0,1.252,3.642c.038.563-.5.792-1.228.845C814.67,490.139,815.643,489.985,815.592,489.231Z" transform="translate(-684.697 -380.003)"/><path class="i" d="M772.17,272.352s2.162,3.3,1.593,4.324l5.575-1.374s-1.48-1.593-1.138-5.462Z" transform="translate(-659.368 -235.044)"/><path class="k" d="M751,297.716s-4.665-1.03-7.624,2.5a23.97,23.97,0,0,0-2.474,3.389,12.092,12.092,0,0,1-1.312,1.846c-.74.874-1.647,2.758-1.221,6.6L737,324.342s3.984-.343,5.007,0,8.194-.8,8.194-.8-2.845-3.413.455-11.379A19.332,19.332,0,0,0,751,297.716Z" transform="translate(-630.236 -258.018)"/><path class="l" d="M751,297.056s-4.665-1.03-7.624,2.5a23.967,23.967,0,0,0-2.474,3.389,12.1,12.1,0,0,1-1.312,1.846c-.74.874-1.647,2.758-1.221,6.6L737,323.682s3.984-.343,5.007,0,8.194-.8,8.194-.8-2.845-3.414.455-11.379A19.332,19.332,0,0,0,751,297.056Z" transform="translate(-630.236 -257.471)"/><path class="k" d="M748.992,359s-4.439,6.377-6.484,7.516l-1.138.568S748.537,359,748.992,359Z" transform="translate(-633.856 -308.895)"/><path class="i" d="M650.527,339.355s2.919-1.149,4.171,2.66a.914.914,0,0,1-.2.9l-6.82,7.359s-1.935,1.138-2.845.455S632.206,348,632.206,348s-3.254.956-4.583-.639a.493.493,0,0,1,.16-.759c.635-.321,1.695-.136,2.945-.29a10.366,10.366,0,0,1,2.885.06c3.9.611,13.1,1.621,14.525-2.127C649.957,339.471,650.527,339.355,650.527,339.355Z" transform="translate(-539.545 -292.488)"/><path class="k" d="M761.24,339.461a3.777,3.777,0,0,1,4.324,2.958v-.228S764.54,338.324,761.24,339.461Z" transform="translate(-650.314 -292.537)"/><path class="k" d="M778.869,271.22l-6.039,2.5s.273.416.6,1a6.03,6.03,0,0,0,2.076.084,4.371,4.371,0,0,0,3.3-1.252A10.788,10.788,0,0,1,778.869,271.22Z" transform="translate(-659.914 -236.187)"/><circle class="i" cx="5.12" cy="5.12" r="5.12" transform="translate(110.186 28.433)"/><path class="k" d="M763.526,217.151c.112.395-.216.761-.453,1.1a4.961,4.961,0,0,0-.3,4.154,2.768,2.768,0,0,0,1.07,1.755,6.224,6.224,0,0,0,1.623.414,3.7,3.7,0,0,1,2.232,1.921,7.154,7.154,0,0,1,.687,2.929,14.819,14.819,0,0,1-2.018,8.347,4.922,4.922,0,0,0,4.181-1.526,9.642,9.642,0,0,0,2.2-4.015,19.117,19.117,0,0,0,.8-4.16,39.444,39.444,0,0,0,0-4.615,14.452,14.452,0,0,0-.884-5.28,12.881,12.881,0,0,1-.836-1.927,11.283,11.283,0,0,1-.2-1.411,7.555,7.555,0,0,0-2.562-4.858,5.972,5.972,0,0,0-5.268-1.224A8.557,8.557,0,0,0,761,210.277c-1.384,1.053-2.972,2.747-2,4.55A4.523,4.523,0,0,0,763.526,217.151Z" transform="translate(-648.212 -184.29)"/><path class="m" d="M764.169,216.515c.112.395-.216.761-.453,1.1a4.961,4.961,0,0,0-.3,4.154,2.768,2.768,0,0,0,1.07,1.755,6.223,6.223,0,0,0,1.622.414,3.7,3.7,0,0,1,2.232,1.921,7.155,7.155,0,0,1,.687,2.929,14.819,14.819,0,0,1-2.021,8.352,4.922,4.922,0,0,0,4.181-1.526,9.64,9.64,0,0,0,2.2-4.014,19.113,19.113,0,0,0,.8-4.16,39.4,39.4,0,0,0,0-4.615,14.453,14.453,0,0,0-.884-5.28,12.893,12.893,0,0,1-.836-1.927,11.272,11.272,0,0,1-.2-1.411,7.556,7.556,0,0,0-2.562-4.858,5.972,5.972,0,0,0-5.268-1.224,8.556,8.556,0,0,0-2.809,1.528c-1.384,1.053-2.972,2.747-2,4.55A4.535,4.535,0,0,0,764.169,216.515Z" transform="translate(-648.742 -183.768)"/><path class="k" d="M790.4,401.11s2.162,0,2.958-1.03" transform="translate(-674.467 -342.921)"/><path class="k" d="M790.4,405.75s2.162,0,2.958-1.03" transform="translate(-674.467 -346.764)"/><path class="k" d="M794.643,334.51s-.344,2.732-1.593,3.984" transform="translate(-676.662 -288.61)"/><g class="e" transform="translate(68.603 114.059)"><path class="n" d="M514.8,731.487v-.028l-.041.014Z" transform="translate(-514.76 -731.46)"/></g><g class="e" transform="translate(67.807 113.818)"><path class="o" d="M510.837,730.323a.2.2,0,0,0,.077-.014C510.65,730.217,509.313,729.777,510.837,730.323Z" transform="translate(-510.119 -730.055)"/></g><path class="p" d="M388.554,232.659a5.856,5.856,0,0,0-4.317-.549s-15.282,3.029-17.208-1.865q-.136-.343-.263-.661a7.116,7.116,0,0,0,.05-.967,6.807,6.807,0,0,0-.084-1.186,4.151,4.151,0,0,0-.647-1.6,10.415,10.415,0,0,1-.926-2.011,7.612,7.612,0,0,0-4.366-4.464,7.259,7.259,0,0,1,1.015-2.651h.015l.143-.24a5.247,5.247,0,0,0,3.379-4.858,5.1,5.1,0,0,0-.874-2.853c1.615-.26,1.063-1.633.063-2.811a7.673,7.673,0,0,0-.62-.649,7.239,7.239,0,0,0-3.542-1.916c-.16-.034-.321-.06-.483-.082a6.7,6.7,0,0,0-5.824.713,3,3,0,0,0-2.861-2,2.92,2.92,0,1,0,0,5.838h.172a6.117,6.117,0,0,0-.172,1.4,6.336,6.336,0,0,0,4.9,6.1l.05.046a1.052,1.052,0,0,1-.015.146l.012.01a6.787,6.787,0,0,1-.8,2.462l-.106-.026a7.25,7.25,0,0,0-3,6.331,14.682,14.682,0,0,0,1.374,6.01,5.5,5.5,0,0,1,.433,2.232,22.01,22.01,0,0,1-2.088,7.675c-.328.737-5.083,12.234-5.083,12.234l.108-.027-.108.261a5.943,5.943,0,0,1,3.1.1,5.081,5.081,0,0,0,3.891-.549,5.079,5.079,0,0,0,.647,1.559c.616.859-.057,5.515-.462,7.952a12.107,12.107,0,0,0-.172,2.109c.022,2.21-2.251,6.135-2.251,6.135-2.768,1.514-6.86,15.378-6.86,15.378a7.969,7.969,0,0,1-.816,2.694h0c-.271.6-.515,1.03-.515,1.03a.768.768,0,0,0,0,.127v.017a.651.651,0,0,0,.012.065l-1.58,3.985c4.332,2.33,10.229,2.68,10.229,2.68,4.693.343,2.167-2.213,2.167-2.213-2.919,0-4.928-2.864-5.74-4.26l.2-.05c-.6-3.961,8.07-17.243,8.07-17.243l2.768-3.5,1.684-4.212a10.8,10.8,0,0,0,1.374-2.586l4.042,9.454c-.24,5.826,4.092,17.243,4.092,17.243a5.465,5.465,0,0,1,.84,2.653l.122-.041-.24,4.03c1.444.932,12.275-1.865,12.275-1.865,2.648-1.631.963-2.1.963-2.1-2.7.872-6.621-1-8.414-1.993l.235-.1c-1.684-.932-4.332-19.339-4.332-19.339.723-2.447-1.2-6.868-1.2-6.868.22-1.7-1.164-7.409-2.28-11.621a23.011,23.011,0,0,0,4.267-.436c-.089-.057-.172-.117-.263-.172.172-.033.263-.053.263-.053-3.719-2.378-5.838-10.411-6.753-14.961a4.805,4.805,0,0,0,.737.515l1.2.582-.137-.149c.671.3,1.829.687,2.485.208.963-.7,13.357-2.8,13.357-2.8s3.434.98,4.847-.654a.5.5,0,0,0-.177-.792Z" transform="translate(-302.953 -178.852)"/><circle class="q" cx="6.145" cy="6.145" r="6.145" transform="translate(49.02 25.416)"/><path class="i" d="M428.759,274.342s-2.162,3.3-1.593,4.324l-5.575-1.374s1.48-1.593,1.138-5.462Z" transform="translate(-368.985 -236.692)"/><path class="k" d="M427.55,273.21l6.03,2.5s-.273.415-.6,1a6.031,6.031,0,0,1-2.076.084,4.371,4.371,0,0,1-3.3-1.252A11.533,11.533,0,0,0,427.55,273.21Z" transform="translate(-373.921 -237.835)"/><circle class="i" cx="5.12" cy="5.12" r="5.12" transform="translate(52.15 28.774)"/><circle class="q" cx="2.845" cy="2.845" r="2.845" transform="translate(46.175 24.506)"/><path class="k" d="M414.022,222.884c-1.281-.022-2.737-.28-3.7.567a4.744,4.744,0,0,0-1.106,2.479c-.343,1.336-1.13,2.8-2.5,3a2.742,2.742,0,0,1-2.266-.895,7.643,7.643,0,0,1-1.338-2.131,5.22,5.22,0,0,1-.687-2.385,5.015,5.015,0,0,1,1.212-2.687,11.183,11.183,0,0,1,1.193-1.408,6.7,6.7,0,0,1,9.9.668C415.8,221.389,416.333,222.924,414.022,222.884Z" transform="translate(-353.115 -191.735)"/><path class="q" d="M413.362,222.224c-1.281-.022-2.737-.28-3.7.567a4.744,4.744,0,0,0-1.106,2.479c-.343,1.336-1.13,2.8-2.5,3a2.742,2.742,0,0,1-2.266-.895,7.643,7.643,0,0,1-1.338-2.131,5.221,5.221,0,0,1-.687-2.385,5.015,5.015,0,0,1,1.212-2.687,11.193,11.193,0,0,1,1.193-1.408,6.7,6.7,0,0,1,9.9.668C415.141,220.729,415.673,222.264,413.362,222.224Z" transform="translate(-352.568 -191.189)"/><path class="h" d="M516.022,703.32s5.462,3.642,8.876,2.5c0,0,1.593.455-.91,2.048,0,0-10.242,2.732-11.607,1.82l.343-5.917Z" transform="translate(-444.185 -594.092)"/><path class="h" d="M355.267,700.1s2.162,4.894,5.8,4.894c0,0,2.39,2.5-2.048,2.162a26.576,26.576,0,0,1-9.672-2.617l1.959-5.107Z" transform="translate(-309.149 -590.87)"/><path class="r" d="M460.214,463.41s3.755,13.314,3.414,16.044c0,0,1.82,4.323,1.138,6.714,0,0,2.5,17.979,4.1,18.888,0,0-4.636,2.1-4.779,2.048-1.594-.568.113,0,.113,0a5.594,5.594,0,0,0-.8-2.617s-4.1-11.152-3.869-16.841l-5.462-13.2Z" transform="translate(-395.887 -395.377)"/><path class="s" d="M460.214,463.41s3.755,13.314,3.414,16.044c0,0,1.82,4.323,1.138,6.714,0,0,2.5,17.979,4.1,18.888,0,0-4.636,2.1-4.779,2.048-1.594-.568.113,0,.113,0a5.594,5.594,0,0,0-.8-2.617s-4.1-11.152-3.869-16.841l-5.462-13.2Z" transform="translate(-395.887 -395.377)"/><path class="s" d="M381.289,448.977l-2.5,5.917s-1.935,9.672-3.984,12.289l-1.593,4.1-2.617,3.414s-8.194,12.972-7.624,16.841c0,0-5.12,1.374-5.007-.343a11.589,11.589,0,0,0,1.252-3.642s3.869-13.541,6.487-15.021c0,0,2.15-3.834,2.129-5.991a12.2,12.2,0,0,1,.172-2.061c.383-2.38,1.02-6.933.436-7.766a8.453,8.453,0,0,1,1.707-9.9Z" transform="translate(-316.28 -381.627)"/><path class="k" d="M357.989,491.211a11.589,11.589,0,0,0,1.252-3.642s3.869-13.541,6.487-15.021c0,0,2.15-3.834,2.129-5.991a12.2,12.2,0,0,1,.172-2.06c.383-2.38,1.02-6.934.436-7.766a8.453,8.453,0,0,1,1.707-9.9l.659.129a8.456,8.456,0,0,0-1.581,9.774c.786,1.116-.687,9.217-.687,9.217.568,1.935-2.048,6.6-2.048,6.6-2.617,1.48-6.487,15.021-6.487,15.021a11.589,11.589,0,0,1-1.252,3.642c-.038.563.5.792,1.228.845C358.906,492.121,357.932,491.966,357.989,491.211Z" transform="translate(-316.302 -381.643)"/><path class="k" d="M384.805,302l4.229,1.04a7.318,7.318,0,0,1,5.151,4.688,10.327,10.327,0,0,0,.874,1.964,4.13,4.13,0,0,1,.611,1.568,7.589,7.589,0,0,1-1.01,4.966s1.925,14.453,6.923,17.753a19.654,19.654,0,0,1-9.154-.266,9.474,9.474,0,0,0-8.465,1.219l-.106.077a4.694,4.694,0,0,1-4.023.774,5.46,5.46,0,0,0-2.936-.094s4.5-11.228,4.808-11.949c1.047-2.436,2.764-7.189,1.563-9.892C381.6,310.086,380.988,304.51,384.805,302Z" transform="translate(-331.968 -261.682)"/><path class="t" d="M384.805,300.71l4.229,1.041a7.318,7.318,0,0,1,5.151,4.688,10.33,10.33,0,0,0,.874,1.964,4.13,4.13,0,0,1,.611,1.568,7.589,7.589,0,0,1-1.01,4.966s1.925,14.453,6.923,17.753a19.655,19.655,0,0,1-9.154-.266,9.474,9.474,0,0,0-8.465,1.219l-.106.077a4.7,4.7,0,0,1-4.023.769,5.46,5.46,0,0,0-2.936-.094s4.5-11.228,4.808-11.949c1.047-2.438,2.764-7.191,1.563-9.9C381.6,308.789,380.988,303.442,384.805,300.71Z" transform="translate(-331.968 -260.613)"/><path class="k" d="M449.76,361s4.439,6.372,6.487,7.51l1.138.568S450.215,361,449.76,361Z" transform="translate(-392.317 -310.551)"/><path class="i" d="M453.6,341.345s-2.919-1.149-4.171,2.66a.914.914,0,0,0,.2.9l6.82,7.361s1.935,1.138,2.845.455,12.631-2.732,12.631-2.732,3.232.949,4.569-.623a.5.5,0,0,0-.146-.776,11.726,11.726,0,0,0-3.386-.462,5.5,5.5,0,0,0-1.439.065c-2.971.527-13.96,2.165-15.529-1.959C454.169,341.459,453.6,341.345,453.6,341.345Z" transform="translate(-392.005 -294.137)"/><path class="k" d="M453.424,341.449a3.777,3.777,0,0,0-4.324,2.959v-.228S450.123,340.31,453.424,341.449Z" transform="translate(-391.771 -294.183)"/><path class="u" d="M567.141,250.381a12.631,12.631,0,1,1-12.631-12.631A12.631,12.631,0,0,1,567.141,250.381Zm-7.212-1.8c.251-1.681-1.03-2.584-2.778-3.187l.565-2.279-1.392-.343-.553,2.217c-.364-.091-.738-.172-1.111-.261l.556-2.232-1.386-.343-.568,2.275c-.3-.069-.6-.137-.884-.208h0l-1.911-.477-.369,1.48s1.03.235,1.006.251a.739.739,0,0,1,.646.805l-.647,2.594a1.142,1.142,0,0,1,.144.046l-.146-.036-.907,3.633a.5.5,0,0,1-.635.33c.014.021-1.008-.251-1.008-.251l-.687,1.587,1.8.45c.343.084.665.172.987.254l-.574,2.3,1.384.343.568-2.279q.551.149,1.1.287l-.567,2.268,1.386.343.573-2.3c2.363.446,4.141.266,4.888-1.87a2.431,2.431,0,0,0-1.274-3.36,2.211,2.211,0,0,0,1.77-2.035Zm-3.166,4.44c-.428,1.717-3.326.79-4.265.558l.761-3.051c.936.235,3.949.7,3.5,2.493Zm.429-4.464c-.391,1.566-2.8.769-3.585.575l.687-2.766c.781.194,3.3.558,2.888,2.191Z" transform="translate(-468.62 -208.464)"/><path class="b" d="M601.81,557.561s-2.706-9.186.515-15.948a14.512,14.512,0,0,0,1.173-9.1,24.424,24.424,0,0,0-1.289-4.272" transform="translate(-517.379 -449.075)"/><path class="c" d="M601.206,493.494c0,1.126-2.038,4.391-2.038,4.391s-2.038-3.263-2.038-4.391a2.039,2.039,0,0,1,4.078,0Z" transform="translate(-514.383 -418.606)"/><path class="c" d="M620.727,524.46c-.611.944-4.1,2.576-4.1,2.576s.063-3.848.675-4.794a2.039,2.039,0,0,1,3.422,2.217Z" transform="translate(-530.535 -443.335)"/><path class="c" d="M616.289,583.1c-1,.515-4.839.156-4.839.156s2-3.29,3-3.8a2.038,2.038,0,0,1,1.835,3.64Z" transform="translate(-526.244 -491.315)"/><path class="c" d="M605.532,630.8c-.9.67-4.742.972-4.742.972s1.413-3.58,2.318-4.25a2.039,2.039,0,0,1,2.424,3.278Z" transform="translate(-517.415 -530.978)"/><path class="c" d="M588.476,538.8c.807.785,4.571,1.6,4.571,1.6s-.922-3.738-1.729-4.521a2.038,2.038,0,1,0-2.842,2.919Z" transform="translate(-506.661 -454.882)"/><path class="c" d="M573.9,592.235c1,.515,4.839.156,4.839.156s-2-3.29-3-3.8a2.038,2.038,0,1,0-1.836,3.64Z" transform="translate(-494.215 -498.885)"/><path class="c" d="M570.523,648.149c.9.67,4.743.972,4.743.972s-1.413-3.58-2.318-4.25a2.039,2.039,0,1,0-2.425,3.278Z" transform="translate(-491.661 -545.349)"/><path class="v" d="M601.206,493.494c0,1.126-2.038,4.391-2.038,4.391s-2.038-3.263-2.038-4.391a2.039,2.039,0,0,1,4.078,0Z" transform="translate(-514.383 -418.606)"/><path class="v" d="M620.727,524.46c-.611.944-4.1,2.576-4.1,2.576s.063-3.848.675-4.794a2.039,2.039,0,0,1,3.422,2.217Z" transform="translate(-530.535 -443.335)"/><path class="v" d="M616.289,583.1c-1,.515-4.839.156-4.839.156s2-3.29,3-3.8a2.038,2.038,0,0,1,1.835,3.64Z" transform="translate(-526.244 -491.315)"/><path class="v" d="M605.532,630.8c-.9.67-4.742.972-4.742.972s1.413-3.58,2.318-4.25a2.039,2.039,0,0,1,2.424,3.278Z" transform="translate(-517.415 -530.978)"/><path class="v" d="M588.476,538.8c.807.785,4.571,1.6,4.571,1.6s-.922-3.738-1.729-4.521a2.038,2.038,0,1,0-2.842,2.919Z" transform="translate(-506.661 -454.882)"/><path class="v" d="M573.9,592.235c1,.515,4.839.156,4.839.156s-2-3.29-3-3.8a2.038,2.038,0,1,0-1.836,3.64Z" transform="translate(-494.215 -498.885)"/><path class="v" d="M570.523,648.149c.9.67,4.743.972,4.743.972s-1.413-3.58-2.318-4.25a2.039,2.039,0,1,0-2.425,3.278Z" transform="translate(-491.661 -545.349)"/></g></svg>