<svg xmlns="http://www.w3.org/2000/svg" width="165.068" height="138.524" viewBox="0 0 165.068 138.524"><defs><style>.a{fill:#0db2b9;}.b{fill:#f2f2f2;}.c{fill:#cfcce0;}.d{fill:#ffb9b9;}.e{fill:#2f2e41;}</style></defs><g transform="translate(0 -0.345)"><circle class="a" cx="2.374" cy="2.374" r="2.374" transform="translate(16.07 72.084)"/><circle class="a" cx="2.374" cy="2.374" r="2.374" transform="translate(26.479 91.624)"/><circle class="a" cx="2.374" cy="2.374" r="2.374" transform="translate(18.444 86.693)"/><path class="a" d="M601.048,710.385H560.641s-.819-12.013,4.027-12.15,4.3,5.324,10.375-2.184,13.446-7.1,14.4-2.662-1.843,7.986,3.276,6.894S605.212,702.058,601.048,710.385Z" transform="translate(-485.219 -576.76)"/><path class="b" d="M667.167,710.071l-.136-.005c.318-7.909,1.975-12.991,3.308-15.861a14.4,14.4,0,0,1,2.857-4.391l.091.1a14.3,14.3,0,0,0-2.829,4.357C669.131,697.131,667.483,702.192,667.167,710.071Z" transform="translate(-572.223 -576.444)"/><path class="b" d="M747.275,760.962l-.131-.038a21.174,21.174,0,0,1,5.331-8.87l.092.1A21.032,21.032,0,0,0,747.275,760.962Z" transform="translate(-637.707 -627.318)"/><path class="b" d="M579.689,747.574l-.135-.019a14.868,14.868,0,0,0-1.337-8.69,11.964,11.964,0,0,0-2.11-3.08l.094-.1a12.114,12.114,0,0,1,2.138,3.118A15,15,0,0,1,579.689,747.574Z" transform="translate(-497.902 -613.94)"/><path class="c" d="M586.893,688.413h-50.25l-.012-.17c-.029-.423-.67-10.412,2.566-13.976a3.544,3.544,0,0,1,2.59-1.243,7.708,7.708,0,0,1,4.5,1.364c2.016,1.2,3.347,1.986,8.188-4,5.244-6.482,10.9-7.876,14.155-7.1a5.049,5.049,0,0,1,3.974,3.886,17.244,17.244,0,0,1,.171,5.022c-.11,1.506-.2,2.695.422,3.234.516.45,1.546.491,3.242.129,3.449-.736,8.262-.106,10.678,3.015,1.3,1.679,2.324,4.732-.179,9.737Zm-49.907-.365h49.681c1.865-3.784,1.923-6.98.167-9.249-2.216-2.863-6.865-3.617-10.313-2.881-1.842.393-2.94.328-3.558-.211-.756-.659-.663-1.928-.546-3.536a16.936,16.936,0,0,0-.163-4.919,4.7,4.7,0,0,0-3.7-3.607c-3.149-.751-8.649.626-13.787,6.975-5.039,6.228-6.557,5.328-8.658,4.082a7.323,7.323,0,0,0-4.308-1.313,3.193,3.193,0,0,0-2.33,1.123C536.56,677.715,536.915,686.7,536.986,688.047Z" transform="translate(-465.579 -554.605)"/><rect class="c" width="72.085" height="0.365" transform="translate(59.104 133.578)"/><path class="c" d="M428.294,569.922a4.882,4.882,0,0,1,.007,1.34c-.012.1-.028.2-.045.3h0a7.933,7.933,0,0,1-1.244,2.934c-.04.057-.063.087-.063.087l-.085-.065a8.193,8.193,0,0,1-1.737-1.907c-.042-.066-.083-.132-.123-.2a5.228,5.228,0,0,1-.7-1.881v-.01c-.011-.071-.02-.142-.027-.213a5.373,5.373,0,0,1,.158-1.855c.019-.075.039-.149.06-.223a8.2,8.2,0,0,1,1.09-2.282c.04-.057.063-.087.063-.087s.03.022.085.065a8.2,8.2,0,0,1,1.7,1.846c.041.063.082.126.121.191a5.587,5.587,0,0,1,.627,1.416c.024.087.046.176.065.265S428.28,569.828,428.294,569.922Z" transform="translate(-373.781 -475.125)"/><path class="c" d="M547.932,629.445a4.882,4.882,0,0,1,.709,1.136c.043.092.081.185.117.277h0a7.934,7.934,0,0,1,.481,3.151c0,.07-.008.107-.008.107l-.107-.011a8.194,8.194,0,0,1-2.48-.712c-.07-.034-.14-.069-.21-.106a5.228,5.228,0,0,1-1.583-1.234l-.006-.007c-.046-.055-.091-.111-.134-.167a5.371,5.371,0,0,1-.839-1.662c-.023-.074-.045-.147-.065-.221a8.194,8.194,0,0,1-.27-2.514c0-.07.007-.107.007-.107s.037,0,.107.011a8.2,8.2,0,0,1,2.413.681c.068.032.136.065.2.1a5.584,5.584,0,0,1,1.276.876c.066.061.132.126.194.192S547.871,629.372,547.932,629.445Z" transform="translate(-471.275 -525.407)"/><path class="d" d="M576.6,404.59l-.917,15.274s-3.055,8.554.916,8.554,1.527-9.165,1.527-9.165l3.666-14.969Z" transform="translate(-496.639 -343.056)"/><path class="d" d="M724.746,394.553l.917,15.274s3.055,8.554-.917,8.554-1.527-9.165-1.527-9.165l-3.666-14.969Z" transform="translate(-615.154 -334.852)"/><path class="e" d="M647.025,748.138l.611,7.637s-2.444,6.11,1.527,6.721l.118.017a3.151,3.151,0,0,0,3.531-3.675l-.594-3.368s.306-6.11-1.527-7.332A3.449,3.449,0,0,0,647.025,748.138Z" transform="translate(-555.762 -623.674)"/><path class="e" d="M677.654,713.766a8.657,8.657,0,0,0-.305,3.666c.306,1.833.611,7.026.611,7.026s0,5.5,2.138,5.5c.764,0,1.411-.662,1.927-1.514a7.752,7.752,0,0,0,.786-6.053l-1.185-4.346v-3.361Z" transform="translate(-580.587 -596.022)"/><path class="e" d="M598.937,407.631s-6.721,8.859-3.055,21.995,3.971,16.8,3.971,16.8l2.138,25.05a8.927,8.927,0,0,0,6.721-.611l-.917-24.133V432.07l1.833,16.191v16.191s4.277,4.277,7.332.305l.611-18.024s1.833-25.05.611-27.494-3.971-11-3.971-11Z" transform="translate(-513.172 -345.791)"/><path class="e" d="M605.132,178.495s-3.107-1.11-5.1,3.329a87.506,87.506,0,0,1-5.1,9.32l1.775.444s.444-3.107,1.553-3.551l-.444,3.994s13.315,4.66,19.306-.444l-.222-1.553s.888.222.888,1.553l.666-.666a11.928,11.928,0,0,0-2.663-3.107c-1.311-1.165-1.761-3.382-1.916-4.768a5.77,5.77,0,0,0-1.328-3.142C611.212,178.367,608.793,176.732,605.132,178.495Z" transform="translate(-513.284 -157.874)"/><circle class="d" cx="5.804" cy="5.804" r="5.804" transform="translate(87.597 23.654)"/><path class="d" d="M642.761,250.381l-1.833,7.332,5.5,15.885,4.277-16.8s-3.971-2.749-3.055-6.415Z" transform="translate(-550.887 -217.257)"/><path class="c" d="M613.974,316.353s-8.859,3.36-10.692-1.833a24.638,24.638,0,0,1-1.528-9.165s-2.749,10.692-7.332,10.692a14.124,14.124,0,0,1-7.026-1.527s3.36-10.692,6.415-12.525l.043-.1a6.189,6.189,0,0,0,.351-3.614,3.1,3.1,0,0,0-.394-.865c-1.222-1.833-2.444-2.444-2.138-7.026l-2.444-8.554,8.428-1.943,4.4,13.857,4.008-13.567,7.3,1.042s.611,11-2.444,14.969a6.594,6.594,0,0,0-1.075,2.086,9.912,9.912,0,0,0-.119,4.879h0a13.5,13.5,0,0,0,.886,2.81Z" transform="translate(-507.131 -241.377)"/><path class="c" d="M719.553,287.456l1.833-.305s.764-.153,2.138.916c1.755,1.365,1.833,19.857,1.833,19.857l-5.8.305Z" transform="translate(-615.154 -247.306)"/><path class="c" d="M586.655,291.055l-1.527-.611s-.611-.305-.916,1.527-1.833,20.773-1.833,20.773l6.415-.305V298.692Z" transform="translate(-503.029 -249.988)"/><path class="e" d="M621.573,202.155s1.775-2.441,3.329-2.885,1.775-2.663,1.775-2.663,3.995,4.438,6.435,4.66.222-5.326.222-5.326l-4.438-1.11-4.216.444-3.329,2.219Z" transform="translate(-534.885 -171.852)"/><circle class="e" cx="1.833" cy="1.833" r="1.833" transform="translate(93.249 56.799)"/><path class="a" d="M819.261,129.486a19.777,19.777,0,1,1,7.058,9.416,6.4,6.4,0,1,1-7.058-9.416Z" transform="translate(-692.668 -96.864)"/><circle class="c" cx="2.289" cy="2.289" r="2.289" transform="translate(135.504 22.903)"/><circle class="c" cx="2.289" cy="2.289" r="2.289" transform="translate(143.313 22.903)"/><circle class="c" cx="2.289" cy="2.289" r="2.289" transform="translate(151.121 22.903)"/><path class="c" d="M807.283,111.783a6.866,6.866,0,0,1-.12-13.269,20.843,20.843,0,1,1,7.666,10.227,6.887,6.887,0,0,1-7.546,3.042ZM832,71.83a20.515,20.515,0,0,0-24.422,26.749l.068.19-.2.048a6.5,6.5,0,1,0,7.171,9.568l.1-.175.164.119A20.515,20.515,0,1,0,832,71.83Z" transform="translate(-682.646 -70.537)"/><path class="c" d="M259.364,532.8a13,13,0,0,1-1.373-5.144c-.314-3.143-.112-8.442,2.636-15.832a31.927,31.927,0,0,0-1.265-25.41l.316-.183a28.042,28.042,0,0,1,2.646,7.5,32.7,32.7,0,0,1-1.354,18.226c-5.2,13.977-1.333,20.594-1.294,20.659Z" transform="translate(-237.789 -410.036)"/><path class="c" d="M243.415,460.844a2.557,2.557,0,1,1,2.557-2.557A2.557,2.557,0,0,1,243.415,460.844Zm0-4.748a2.191,2.191,0,1,0,2.191,2.191A2.191,2.191,0,0,0,243.415,456.1Z" transform="translate(-223.875 -385.108)"/><circle class="c" cx="2.374" cy="2.374" r="2.374" transform="translate(24.653 79.571)"/><path class="c" d="M256.415,540.844a2.557,2.557,0,1,1,2.557-2.557A2.557,2.557,0,0,1,256.415,540.844Zm0-4.748a2.191,2.191,0,1,0,2.191,2.191A2.191,2.191,0,0,0,256.415,536.1Z" transform="translate(-234.501 -450.499)"/><path class="c" d="M290.415,567.844a2.557,2.557,0,1,1,2.557-2.557A2.557,2.557,0,0,1,290.415,567.844Zm0-4.748a2.191,2.191,0,1,0,2.191,2.191A2.191,2.191,0,0,0,290.415,563.1Z" transform="translate(-262.292 -472.568)"/><circle class="a" cx="2.374" cy="2.374" r="2.374" transform="translate(115.411 109.702)"/><path class="c" d="M777.415,666.844a2.557,2.557,0,1,1,2.557-2.557,2.557,2.557,0,0,1-2.557,2.557Zm0-4.748a2.191,2.191,0,1,0,2.191,2.191A2.191,2.191,0,0,0,777.415,662.1Z" transform="translate(-660.36 -553.489)"/><circle class="a" cx="2.374" cy="2.374" r="2.374" transform="translate(47.662 123.033)"/><path class="c" d="M406.415,739.843a2.557,2.557,0,1,1,2.557-2.557A2.557,2.557,0,0,1,406.415,739.843Zm0-4.748a2.191,2.191,0,1,0,2.191,2.191A2.191,2.191,0,0,0,406.415,735.1Z" transform="translate(-357.109 -613.158)"/><circle class="c" cx="2.374" cy="2.374" r="2.374" transform="translate(17.713 98.015)"/><path class="c" d="M272.158,695.957s-2.374-5.844,4.748-10.226Z" transform="translate(-249.149 -573.107)"/><path class="c" d="M215.6,713.572s-1.08-6.214-9.443-6.161Z" transform="translate(-195.514 -590.827)"/><rect class="c" width="38.349" height="0.365" transform="translate(0 122.485)"/></g></svg>