<svg xmlns="http://www.w3.org/2000/svg" xmlns:xlink="http://www.w3.org/1999/xlink" width="147.041" height="106" viewBox="0 0 147.041 106"><defs><style>.a,.b{fill:#2dbdca;}.a,.c,.p{opacity:0.1;}.d{fill:#ffd037;}.e{fill:#a8a8a8;}.f{opacity:0.2;}.g{fill:none;stroke:#535461;stroke-miterlimit:10;stroke-width:2px;}.h{fill:url(#a);}.i{fill:#f8bdc5;}.j{fill:#474463;}.k{fill:#575988;}.l{fill:#ffc1c8;}.m{fill:#fff;opacity:0.3;}.n{fill:#dce6f2;}.o{fill:#794f6a;}</style><linearGradient id="a" x1="0.5" y1="1.001" x2="0.5" gradientUnits="objectBoundingBox"><stop offset="0" stop-color="gray" stop-opacity="0.251"/><stop offset="0.54" stop-color="gray" stop-opacity="0.122"/><stop offset="1" stop-color="gray" stop-opacity="0.102"/></linearGradient></defs><g transform="translate(0.01 0.003)"><path class="a" d="M63.3,484.53c2.327,9.945,7.252,18.541,15.035,22.713,16.178,8.659,52.661,4.192,79.889-.938a62.349,62.349,0,0,0,35.455-20.267Z" transform="translate(-61.72 -426.905)"/><path class="a" d="M230.384,65.375h-14.94a1.291,1.291,0,0,1,0-2.581h2.583a1.292,1.292,0,0,1,0-2.583h-1.844a1.292,1.292,0,0,1,0-2.583h7.8a20.631,20.631,0,0,0-6.083-1.677c-21.262-2.73-28.853-.923-31.531.938a29.776,29.776,0,0,1-10.928,4.79c-13.118,2.706-37.652,5.963-59.888-1.043-11.052-3.485-19.265,2.4-24.189,12.234H232.977a23.076,23.076,0,0,0-1.754-7.806A1.281,1.281,0,0,1,230.384,65.375Z" transform="translate(-86.019 -54.56)"/><path class="a" d="M51.762,329.66a65.821,65.821,0,0,0,.579,17.35l131.168,4.8a61.632,61.632,0,0,0,9.114-13.9Zm51.879,12.376h-2.583a1.291,1.291,0,0,1,0,2.581H86.118a1.291,1.291,0,1,1,0-2.581H88.7a1.292,1.292,0,0,1,0-2.583H86.857a1.292,1.292,0,0,1,0-2.583H101.8a1.292,1.292,0,0,1,0,2.583h1.844a1.292,1.292,0,0,1,0,2.583Z" transform="translate(-51.45 -292.792)"/><path class="a" d="M200.631,191.84l-143.2,3.485A57.136,57.136,0,0,0,54,210.112H198.122a61.258,61.258,0,0,0,2.081-9.426A44.658,44.658,0,0,0,200.631,191.84ZM83.073,203.254H80.49a1.291,1.291,0,1,1,0,2.581H65.55a1.291,1.291,0,1,1,0-2.581h2.583a1.292,1.292,0,0,1,0-2.583H66.289a1.292,1.292,0,0,1,0-2.583h14.94a1.292,1.292,0,0,1,0,2.583h1.844a1.292,1.292,0,0,1,0,2.583Z" transform="translate(-53.666 -173.443)"/><ellipse class="a" cx="46.752" cy="2.53" rx="46.752" ry="2.53" transform="translate(28.779 100.937)"/><path class="b" d="M891.555,687.74s.736.964-.341,2.412-1.963,2.681-1.608,3.588c0,0,1.623-2.7,2.949-2.738S893.007,689.364,891.555,687.74Z" transform="translate(-777.211 -602.88)"/><path class="c" d="M891.844,687.74a1.248,1.248,0,0,1,.15.3c1.289,1.516,1.975,2.93.737,2.965-1.155.033-2.54,2.1-2.871,2.619a1.011,1.011,0,0,0,.039.119s1.623-2.7,2.949-2.738S893.3,689.364,891.844,687.74Z" transform="translate(-777.5 -602.88)"/><path class="d" d="M913.77,695.5c0,.339-.038.614-.084.614s-.086-.275-.086-.614.048-.18.1-.18S913.77,695.158,913.77,695.5Z" transform="translate(-798.058 -609.41)"/><path class="d" d="M914.619,698.414c-.3.162-.556.26-.579.219s.2-.206.5-.369.18-.044.2,0S914.916,698.252,914.619,698.414Z" transform="translate(-798.437 -611.922)"/><path class="b" d="M864.959,687.74s-.736.964.341,2.412,1.962,2.681,1.608,3.588c0,0-1.624-2.7-2.949-2.738S863.505,689.364,864.959,687.74Z" transform="translate(-754.505 -602.88)"/><path class="c" d="M864.94,687.74a1.187,1.187,0,0,0-.15.3c-1.289,1.516-1.977,2.93-.737,2.965,1.154.033,2.547,2.1,2.871,2.619-.011.04-.024.079-.039.119,0,0-1.624-2.7-2.949-2.738S863.486,689.364,864.94,687.74Z" transform="translate(-754.486 -602.88)"/><path class="d" d="M865.43,695.5c0,.339.038.614.084.614s.086-.275.086-.614-.048-.18-.1-.18S865.43,695.158,865.43,695.5Z" transform="translate(-756.344 -609.41)"/><path class="d" d="M860.752,698.414c.3.162.558.26.58.219s-.2-.206-.5-.369-.18-.044-.2,0S860.455,698.252,860.752,698.414Z" transform="translate(-752.137 -611.922)"/><path class="e" d="M867.18,724.4a7.576,7.576,0,0,0,2.681-.505c.622-.441,3.167-.97,3.321-.268s3.093,3.523.769,3.542-5.4-.362-6.019-.738S867.18,724.4,867.18,724.4Z" transform="translate(-757.859 -633.659)"/><path class="f" d="M874,734.112c-2.324.019-5.4-.362-6.019-.739-.472-.288-.659-1.319-.722-1.793h-.068s.134,1.659.749,2.037,3.7.757,6.019.739c.67,0,.9-.244.89-.6C874.754,733.975,874.5,734.108,874,734.112Z" transform="translate(-757.868 -640.844)"/><path class="b" d="M288.479,721.17a1.573,1.573,0,0,0,.515-.776.7.7,0,0,0-.359-.789c-.33-.126-.682.1-.95.334a1.267,1.267,0,0,1-.922.445,1.4,1.4,0,0,0,.434-1.315.552.552,0,0,0-.121-.268c-.184-.2-.515-.113-.734.042a2.738,2.738,0,0,0-.9,2.289,4.305,4.305,0,0,1-.012-.938.969.969,0,0,0-.354-.835,1.072,1.072,0,0,0-.536-.126,1.12,1.12,0,0,0-.877.248.862.862,0,0,0,.035,1.072,3.477,3.477,0,0,0,.906.726,2.011,2.011,0,0,1,.649.618.774.774,0,0,1,.048.111h1.964A5.465,5.465,0,0,0,288.479,721.17Z" transform="translate(-252.404 -629.678)"/><path class="g" d="M199.455,621.121s-1.884-6.394.352-11.1a10.1,10.1,0,0,0,.82-6.338,16.917,16.917,0,0,0-.9-2.973" transform="translate(-178.984 -527.514)"/><path class="b" d="M198.327,569.621a11.252,11.252,0,0,1-1.418,3.057,11.328,11.328,0,0,1-1.419-3.057,1.419,1.419,0,0,1,2.837,0Z" transform="translate(-176.193 -499.401)"/><path class="b" d="M215.732,596.956a11.225,11.225,0,0,1-2.852,1.795,11.241,11.241,0,0,1,.47-3.337,1.419,1.419,0,0,1,2.382,1.543Z" transform="translate(-191.252 -522.395)"/><path class="b" d="M211.638,648.89a11.255,11.255,0,0,1-3.368.109,11.249,11.249,0,0,1,2.091-2.643,1.419,1.419,0,1,1,1.277,2.535Z" transform="translate(-187.26 -566.91)"/><path class="b" d="M202.061,691.139c-.63.466-3.3.67-3.3.67a11.371,11.371,0,0,1,1.608-2.958,1.419,1.419,0,1,1,1.687,2.278Z" transform="translate(-179.025 -603.564)"/><path class="b" d="M187.69,609.508a11.264,11.264,0,0,0,3.18,1.112,11.215,11.215,0,0,0-1.206-3.148,1.419,1.419,0,1,0-1.977,2.036Z" transform="translate(-169.04 -533.001)"/><path class="b" d="M174.524,657.03a11.257,11.257,0,0,0,3.368.109A11.277,11.277,0,0,0,175.8,654.5a1.419,1.419,0,1,0-1.277,2.535Z" transform="translate(-157.361 -573.959)"/><path class="b" d="M172,707.145a11.217,11.217,0,0,0,3.3.67,11.33,11.33,0,0,0-1.608-2.958A1.419,1.419,0,0,0,172,707.136Z" transform="translate(-155.403 -617.497)"/><path class="b" d="M198.327,569.621a11.252,11.252,0,0,1-1.418,3.057,11.328,11.328,0,0,1-1.419-3.057,1.419,1.419,0,0,1,2.837,0Z" transform="translate(-176.193 -499.401)"/><path class="b" d="M215.732,596.956a11.225,11.225,0,0,1-2.852,1.795,11.241,11.241,0,0,1,.47-3.337,1.419,1.419,0,0,1,2.382,1.543Z" transform="translate(-191.252 -522.395)"/><path class="b" d="M211.638,648.89a11.255,11.255,0,0,1-3.368.109,11.249,11.249,0,0,1,2.091-2.643,1.419,1.419,0,1,1,1.277,2.535Z" transform="translate(-187.26 -566.91)"/><path class="b" d="M202.061,691.139c-.63.466-3.3.67-3.3.67a11.371,11.371,0,0,1,1.608-2.958,1.419,1.419,0,1,1,1.687,2.278Z" transform="translate(-179.025 -603.564)"/><path class="b" d="M187.69,609.508a11.264,11.264,0,0,0,3.18,1.112,11.215,11.215,0,0,0-1.206-3.148,1.419,1.419,0,1,0-1.977,2.036Z" transform="translate(-169.04 -533.001)"/><path class="b" d="M174.524,657.03a11.257,11.257,0,0,0,3.368.109A11.277,11.277,0,0,0,175.8,654.5a1.419,1.419,0,1,0-1.277,2.535Z" transform="translate(-157.361 -573.959)"/><path class="b" d="M172,707.145a11.217,11.217,0,0,0,3.3.67,11.33,11.33,0,0,0-1.608-2.958A1.419,1.419,0,0,0,172,707.136Z" transform="translate(-155.403 -617.497)"/><path class="e" d="M171,735.544a8.611,8.611,0,0,0,2.906-1.063c.611-.607,3.364-1.67,3.67-.911s4.128,3.34,1.528,3.8-6.116.607-6.88.3S171,735.544,171,735.544Z" transform="translate(-154.985 -642.34)"/><path class="f" d="M179.107,751.425c-2.6.456-6.116.607-6.88.3-.582-.232-.986-1.34-1.146-1.859l-.082.017s.46,1.821,1.224,2.124,4.281.151,6.88-.3c.751-.134.965-.441.885-.831C179.927,751.131,179.666,751.327,179.107,751.425Z" transform="translate(-154.985 -656.683)"/><path class="h" d="M411.6,152.439a2.568,2.568,0,0,0,.438-2.057s-3.4-8.655-3.773-8.751-1.322-2.278-1.322-2.278-9.056-8.608-9.382-8.608-3.632-2.378-4.056-2.425a5.547,5.547,0,0,1-1.793-.67c-.708-.385-7.878.048-8.161.381a4.362,4.362,0,0,1-1.608.571s-2.689.142-3.067.618-3.159.728-3.159.728-1.368.509.489,1.862h0c-.6.094-1.291.166-2,.217-.177.012-.357.024-.536.033h-.106a1.753,1.753,0,0,0-.659-.886,5.54,5.54,0,0,0-.626-.291,5,5,0,0,1-.927-.637,30.4,30.4,0,0,0-4.385-2.906,2.1,2.1,0,0,0-.781-.294c-.575-.055-1.088.348-1.651.484-.989.237-1.986-.366-3-.375a3.089,3.089,0,0,0-2.815,2.2,3.543,3.543,0,0,1-.517,1.312c-.4.468-1.082.536-1.632.814a2.464,2.464,0,0,0-1.324,2.183v.011a1.264,1.264,0,0,0,.012.213,7.451,7.451,0,0,0,.523,1.647,6.81,6.81,0,0,1,.375,1.729.092.092,0,0,1,0,.019c.008.1.015.2.019.295v.347c0,.512-.017,1.028-.016,1.54v.315a1.8,1.8,0,0,0,.008.206v.072a1.818,1.818,0,0,0,.016.19.337.337,0,0,0,.007.082,1.385,1.385,0,0,0,.023.182l.012.086c.009.06.02.121.031.181l.016.083c.013.064.029.134.046.193.007.023.011.044.016.067q.036.134.08.257a3.777,3.777,0,0,0,2.5,2.358,2.322,2.322,0,0,0,.663.083,1.379,1.379,0,0,0,1.025-.409c.059.067.117.134.178.2a8.032,8.032,0,0,0,13.045-1.742c.141-.031.28-.059.421-.086.244-.046.489-.088.736-.134l.237-.038h0l.094-.016c1.206-.19,2.378-.318,3.217-.4l-3.316.411s-.8,3.861-1.036,4.289.8,1.141.8,1.141.9,1.094.9,1.427,1.037,1.284,1.32,1.807a.8.8,0,0,0,.134.181,1.9,1.9,0,0,0-.571.347c-.655.621-.437,1.709-.737,2.561a4.344,4.344,0,0,1-.958,1.393,1.9,1.9,0,0,0-.338.468,1.151,1.151,0,0,0-.09.359h0a1.772,1.772,0,0,0-.008.206v.024a.779.779,0,0,0,.011.158v.068c.066.56.256,1.1.314,1.662a15.959,15.959,0,0,0,.1,1.67,2.493,2.493,0,0,0,.185.551l-1.919,2.144s-.012.106-.016.28c-1.6,1.328-4.074,3.834-3.191,6.045q.145.363.268.7c-.65.414-.864.906.11,1.4.154.078.3.145.449.205.5,1.468.7,1.876,1.533.795.09-.118.194-.268.308-.43a3.261,3.261,0,0,0,1.862-.57s3.3-.19,4.155.334a5.441,5.441,0,0,0,2.323.315,24.312,24.312,0,0,0,.134,2.871s-.142,4.042.236,4.9a11.259,11.259,0,0,1,.587,2.331s-.634,1.426-.257,2.187-.33,1.855-.33,1.855v2.805l.268-.019c-.02.189-.046.387-.079.576a1.68,1.68,0,0,1-.374.958c-.472.339-.519,2.144-.519,2.144a10.271,10.271,0,0,0-.614,2.569c.141.381-.9,1.141-.659,1.712s.718,4.184,1.138,5.227-.855.761-.855.761l.377,2.71s.378,2.758.1,2.949-1.91,1.569-.791,2.378c.087.063.176.121.268.176a2.9,2.9,0,0,1-.009.375c-.021.213-.075.383-.194.4-.332.048-.993.381-1.133.239s-.938.359-1.742.523l-.111.017-1.044-.268a7.347,7.347,0,0,0-4.718-.174,1.806,1.806,0,0,0-1.124.684,1.479,1.479,0,0,0-.1,1.265c.5,1.681,3.939,2.26,3.939,2.26s1.19.245,2.62.57h-.143a1.577,1.577,0,1,0,.536.1,32.008,32.008,0,0,1,4.113,1.138,12.592,12.592,0,0,0,1.653.5,1.568,1.568,0,0,0,2.919.657c2.189.457,4.3.844,4.3.844l3.521.058h.024a1.568,1.568,0,1,0,.022,0l5.33.087a1.572,1.572,0,1,0,3.034.05l4.7.076.938-1.032a.833.833,0,0,0,.092-.323c.028-.339-.147-.854-1.348-1.072-.088-.016-2.538.023-4.7.059v-.85s-.06-.468-.1-1.019c-.011-.162-.02-.331-.024-.5a1.29,1.29,0,0,0,.4.184c.9.143,2.123-2.473,2.123-2.473a13.622,13.622,0,0,1,.283-2.663c.283-1.189.8-5.184.8-5.184l1.134-4.8s.469-9.8.233-10.178.284-1.047.284-1.047.377-2.092-.189-2.805.33-1.427.33-1.427.236-2.473-.425-3.423a1.139,1.139,0,0,1,.31-1.616l.236-3.852c.99-1,1.886-6.943,1.934-8.227a5.283,5.283,0,0,1,.472-2.093,5.537,5.537,0,0,0,.755-1.665,9.866,9.866,0,0,1,.8-2.044l1.226-4.566a7.112,7.112,0,0,0,.04-4.174C411.707,152.683,411.656,152.559,411.6,152.439Zm-22.156.268c.755.476.519.618.755.9s.047.237-.142.713-.047.334.047.856.048.523.048.523l.236.033-.328,2.207a2.419,2.419,0,0,0-.893,1.712c-.316-.413-.635-.842-.921-1.241a1.83,1.83,0,0,0,.082-.724,15.184,15.184,0,0,1,.449-2.364,5.975,5.975,0,0,0-.076-2.427,3.694,3.694,0,0,0-.315-.862c.306.2.693.445,1.059.676Zm.848,46.6s.6-.4,1.175-.768c.194,1.411.378,2.879.508,4.206-.208-.461-.352-.775-.352-.775a1.6,1.6,0,0,1-.365-.9,5.7,5.7,0,0,0-.966-1.754Zm-3.537-48.882a1.142,1.142,0,0,1,.5.393c-.166-.134-.334-.268-.505-.394Zm-8.633,17.595a16.1,16.1,0,0,1-3.485.082c.41-.7.818-1.414,1.179-2.053a4.356,4.356,0,0,0,.65.117l3.591-3.154a6.184,6.184,0,0,0,4.168-.027l.1.153c.042.067.086.134.134.209l-.09-.146s-1.386.826-1.245,1.206a4.306,4.306,0,0,1-.706,2.349c-.134.255-.251.507-.363.76A36.6,36.6,0,0,0,378.127,168.025Zm6.813,43.939-.02-.377c.228-.05.378-.1.378-.1a14.836,14.836,0,0,0-.236-1.665c-.142-.571-.068-.381.484-.8s0-5.227,0-5.227.268-.334.693.523a3.867,3.867,0,0,0,.993,1.426c.142.047-.567,1,0,1.9a5.468,5.468,0,0,1,.706,1.9s-.377,1.51.189,2.182a.832.832,0,0,0,.268.184v.382a4.676,4.676,0,0,1-.012.511.189.189,0,0,1-.3.118c-.146-.1-1.072.118-1.009.714a4.388,4.388,0,0,1-.74.693L385.047,214Z" transform="translate(-314.541 -117.33)"/><path class="b" d="M490.282,389.544s-.449,3.679,3.112,4.056l.536-2.547-1.122-1.509L491.2,389Z" transform="translate(-431.46 -344.179)"/><path class="c" d="M491.2,389l-.919.543s-.449,3.679,3.112,4.056" transform="translate(-431.46 -344.179)"/><path class="i" d="M473.013,175.443s-2.4.147-4.813.547q-.37.063-.736.134c-.142.027-.281.055-.421.086a9.978,9.978,0,0,0-3.083,1.029c-.8.516-1.072-.874-1.1-2.805-.011-.68.012-1.425.048-2.178.047-.871.115-1.753.188-2.546.159-1.758.343-3.125.343-3.125s.842,0,1.966-.039l.362-.013c.353-.013.726-.032,1.1-.055.178-.009.358-.02.536-.034.713-.051,1.417-.123,2.01-.217a4.39,4.39,0,0,0,1.425-.4C472.117,165.065,473.013,175.443,473.013,175.443Z" transform="translate(-407.729 -150.88)"/><path class="j" d="M609.649,333.72l-.469,3.113s-1.023,1.273-.889,1.981,1.313,31.981,1.313,31.981,2.312,13.207,1.509,14.9-.047,5.661-.047,5.661l4.812-.755,1.608-57.737Z" transform="translate(-533.658 -295.572)"/><path class="c" d="M609.649,333.72l-.469,3.113s-1.023,1.273-.889,1.981,1.313,31.981,1.313,31.981,2.312,13.207,1.509,14.9-.047,5.661-.047,5.661l4.812-.755,1.608-57.737Z" transform="translate(-533.658 -295.572)"/><path class="k" d="M636.858,751.8a4.015,4.015,0,0,0-.1,1.632c.038.546.1,1.009.1,1.009v3.207a44.836,44.836,0,0,1-7.972-3.679c-1.167-.779-1.5-1.5-1.435-2.081a1.7,1.7,0,0,1,1.435-1.362,11.065,11.065,0,0,0,2.857-1.391c.862-.511,1.577-.968,1.577-.968S637.141,751.33,636.858,751.8Z" transform="translate(-550.253 -655.211)"/><path class="c" d="M664.644,751.8a4.013,4.013,0,0,0-.1,1.632c-1.143-.536-4.683-3.97-5.017-4.3.862-.511,1.578-.968,1.578-.968S664.927,751.33,664.644,751.8Z" transform="translate(-578.04 -655.211)"/><path class="j" d="M630.349,315.808l-1.226,4.529a9.826,9.826,0,0,0-.8,2.028,5.508,5.508,0,0,1-.755,1.651,5.225,5.225,0,0,0-.472,2.075c-.047,1.275-.938,7.17-1.934,8.161l-.236,3.821a1.136,1.136,0,0,0-.283,1.608c.655.949.425,3.4.425,3.4s-.9.708-.33,1.415.188,2.784.188,2.784-.519.659-.283,1.037-.233,10.095-.233,10.095l-1.134,4.763s-.52,3.963-.8,5.143a13.287,13.287,0,0,0-.283,2.64s-1.226,2.595-2.123,2.454-5.235-4.388-5.235-4.388l.612-14.341s.519-6.085.189-7.264a70.464,70.464,0,0,1-.566-7.075l-.661-9.292-6.6-10.378s-.478-3.02.889-3.915l.248-1.631.224-1.482,7.831-.85,11.981-3.112a3.863,3.863,0,0,1,1.407,1.992A6.956,6.956,0,0,1,630.349,315.808Z" transform="translate(-533.178 -275.49)"/><path class="l" d="M574.636,358.48s-5.566,6.835-5.33,4.925a6.214,6.214,0,0,0-1.206-3.591c-.35-.551-.639-.911-.639-.911s3.4-6.225,3.585-5.377a6.919,6.919,0,0,0,.958,1.585C573.069,356.584,574.636,358.48,574.636,358.48Z" transform="translate(-498.31 -313.391)"/><path class="m" d="M636.858,781.04v.67a44.834,44.834,0,0,1-7.972-3.679c-1.167-.779-1.5-1.5-1.435-2.081a53,53,0,0,1,5.35,2.978A27.857,27.857,0,0,0,636.858,781.04Z" transform="translate(-550.253 -679.267)"/><circle class="j" cx="1.572" cy="1.572" r="1.572" transform="translate(83.822 101.174)"/><circle class="j" cx="1.572" cy="1.572" r="1.572" transform="translate(67.763 98.966)"/><path class="b" d="M499.255,762.573a.829.829,0,0,1-.093.32l-.938,1.023-13.113-.21-3.526-.058s-7.422-1.351-8.868-1.981a67.479,67.479,0,0,0-7.131-1.783s-3.434-.576-3.938-2.242a1.441,1.441,0,0,1,.1-1.255,1.809,1.809,0,0,1,1.125-.679,7.411,7.411,0,0,1,4.718.174l21.98,5.655.34.087s7.835-.146,7.993-.118C499.108,761.726,499.283,762.237,499.255,762.573Z" transform="translate(-406.599 -661.476)"/><path class="m" d="M499.255,768.925a15.229,15.229,0,0,0-4.211-.181,25.621,25.621,0,0,0-9.938,1.313L481.585,770s-7.422-1.351-8.868-1.981a67.463,67.463,0,0,0-7.131-1.783s-3.434-.576-3.938-2.242a1.441,1.441,0,0,1,.1-1.254c.235.684.686,1.674,1.407,1.951,1.133.435,5.787,1.323,5.787,1.323l9.213,2.256s5.32,1.154,7.39.4a23.781,23.781,0,0,1,4.021-.791l.34.087s7.835-.146,7.993-.118C499.108,768.078,499.283,768.589,499.255,768.925Z" transform="translate(-406.599 -667.828)"/><path class="j" d="M586.173,762.819a4.367,4.367,0,0,1-.074.588,59.68,59.68,0,0,1-7.924-.216,2,2,0,0,1-1.383-.638.98.98,0,0,1-.1-.938,1.484,1.484,0,0,1,.114-.252c.2-.354.513-.6.684-.571.472.1,1.281-.872,1.281-.872-.064-.591.865-.8,1.009-.708a.189.189,0,0,0,.3-.118c.009-.044.012-.257.012-.507,0-.416-.012-.938-.012-.938l5.238.637.208,1c.19.893.456,2.119.57,2.538A3.028,3.028,0,0,1,586.173,762.819Z" transform="translate(-506.24 -663.42)"/><path class="c" d="M587.3,794.3a4.337,4.337,0,0,1-.074.588,59.682,59.682,0,0,1-7.924-.216,2,2,0,0,1-1.383-.638,8.548,8.548,0,0,1,2.161.072C580.879,794.3,585.657,794.3,587.3,794.3Z" transform="translate(-507.368 -694.899)"/><path class="j" d="M502.71,751a.268.268,0,0,1-.114.252c-.659.509-3.824-.044-3.824-.044s-6.465-.4-7.432-1.062a.682.682,0,0,1-.213-.224c-.4-.726,1.053-1.946,1.179-1.946s1.864-.237,1.981-.26c.8-.162,1.608-.661,1.742-.519s.8-.189,1.131-.236c.119-.018.174-.186.194-.4a4.464,4.464,0,0,0-.029-.875l5.164,1.39.046.823.149,2.74.019.336A.123.123,0,0,1,502.71,751Z" transform="translate(-432.147 -653.054)"/><path class="c" d="M499.265,778.585s-6.465-.4-7.432-1.061a.683.683,0,0,1-.213-.224c1.309.107,3.493.288,3.887.389.567.134,3.753.33,3.753.33h3.918l.019.336C503.366,779.3,499.265,778.585,499.265,778.585Z" transform="translate(-432.634 -680.437)"/><circle class="j" cx="1.572" cy="1.572" r="1.572" transform="translate(59.891 98.966)"/><circle class="j" cx="1.572" cy="1.572" r="1.572" transform="translate(76.965 102.23)"/><path class="i" d="M472.2,390.5s-.3.536-.745,1.332c-1.072,1.892-3,5.247-3.83,6.309-1.179,1.509-1.084.1-2.359-3.065-.946-2.351,1.966-5.041,3.524-6.263.536-.425.911-.67.911-.67Z" transform="translate(-409.65 -343.434)"/><path class="l" d="M477.261,432.83s-3.915.33-4.669.566a18.532,18.532,0,0,1-4.289,0c-.28-.094-5.85,1.179-3.3,2.453a3.92,3.92,0,0,0,4.155,0s3.3-.189,4.155.331,3.962.236,3.962.236Z" transform="translate(-409.006 -382.134)"/><path class="c" d="M467.829,177.475a3.911,3.911,0,0,1-.387,3.412A11.042,11.042,0,0,0,463.934,182c-2.123,1.368-.519-10.66-.519-10.66s1.027,0,2.328-.052C465.35,173.089,466.843,174.956,467.829,177.475Z" transform="translate(-407.707 -155.647)"/><path class="i" d="M397.075,163.406a8.042,8.042,0,1,1-.8-3.516A8.042,8.042,0,0,1,397.075,163.406Z" transform="translate(-336.832 -141.847)"/><path class="c" d="M638.3,311.642a1.842,1.842,0,0,1-1.072.744c-1.84.519-14.812,3.632-15.661,3.443-.749-.166-3.964-.629-4.706-.734l.224-1.482,7.831-.85L636.9,309.65A3.87,3.87,0,0,1,638.3,311.642Z" transform="translate(-541.089 -275.464)"/><path class="c" d="M508.985,175.388a45.215,45.215,0,0,0-4.577.509.315.315,0,0,0-.008-.21l3.136-.387s-.458-7.371-2.144-9.138a4.391,4.391,0,0,0,1.425-.4C508.09,165.011,508.985,175.388,508.985,175.388Z" transform="translate(-443.701 -150.825)"/><path class="b" d="M498.011,139.568s2.784-.251,3.16-.722,3.066-.613,3.066-.613a4.4,4.4,0,0,0,1.608-.567c.288-.331,7.452-.755,8.16-.377a5.668,5.668,0,0,0,1.793.661c.425.048,3.726,2.4,4.056,2.4s9.382,8.539,9.382,8.539.938,2.17,1.321,2.264,3.774,8.68,3.774,8.68.472,2.075-1.367,2.595-14.812,3.632-15.661,3.443-4.858-.755-4.858-.755.047,0-.047-.519-.236-.378-.048-.85.378-.425.142-.708,0-.425-.755-.9a9.5,9.5,0,0,1-1.651-1.131c-.043-.141-.708-1.086-1.037-1.133s-9.576-2.642-9.576-2.642l-2.17-.708s-1.037-.708-.8-1.131,1.036-4.255,1.036-4.255l3.317-.409s-.495-7.988-2.352-9.328S498.011,139.568,498.011,139.568Z" transform="translate(-436.83 -126.076)"/><path class="c" d="M496.161,390.5s-.3.536-.745,1.332a2.8,2.8,0,0,0-2.666-3.02c.536-.425.911-.67.911-.67Z" transform="translate(-433.613 -343.434)"/><path class="b" d="M491.812,272.34l.228,1.273s.9,1.086.9,1.415,1.037,1.273,1.322,1.792,1.273.614.9,1.51-2.546,7.736-2.546,7.736l-2.217,2.453s3.679-.331,3.112,4.056l4.765-4.155L502,281.632s-3.632-6.886-3.773-7.452S491.812,272.34,491.812,272.34Z" transform="translate(-431.569 -243.154)"/><path class="c" d="M583.31,274.6a26.332,26.332,0,0,0,3.018-2.359A26.328,26.328,0,0,0,583.31,274.6Z" transform="translate(-512.035 -243.056)"/><path class="c" d="M621,300.41s1.608-.378,1.742-1.226S621,300.41,621,300.41Z" transform="translate(-544.674 -266.223)"/><path class="c" d="M630.82,317.225s2.265-1.122,2.17-1.316S630.82,317.225,630.82,317.225Z" transform="translate(-553.178 -280.868)"/><path class="c" d="M716.675,272.23s-.938.613-.659,1.186S716.675,272.23,716.675,272.23Z" transform="translate(-626.91 -243.059)"/><path class="c" d="M728.063,274.1s-2.673,2.546-2.068,2.595S728.063,274.1,728.063,274.1Z" transform="translate(-635.52 -244.678)"/><path class="c" d="M696.64,568.68a21.6,21.6,0,0,1,3.537.9C700.271,569.812,696.64,568.68,696.64,568.68Z" transform="translate(-610.176 -499.777)"/><path class="c" d="M705.79,585.57s1.839,1.133,1.886,1.462S705.79,585.57,705.79,585.57Z" transform="translate(-618.1 -514.403)"/><path class="c" d="M702.62,604.58s.283,1.273.755,1.462S702.62,604.58,702.62,604.58Z" transform="translate(-615.355 -530.865)"/><path class="c" d="M396.028,159.788a.091.091,0,0,1-.007.042,1.188,1.188,0,0,1-.63,1.013,1,1,0,0,1-.714-.066c-.67-.294-1.267-1-1.982-.828a1.187,1.187,0,0,0-.748.657,3.3,3.3,0,0,0-.268.72,2.574,2.574,0,0,0-.036,1.6,1.627,1.627,0,0,0,.121.236c.19.3.458.563.646.87a.939.939,0,0,1-.07,1.221.736.736,0,0,1-.625.087,3.715,3.715,0,0,1-.763-.338,1.561,1.561,0,0,0-1.522-.115c-.155.1-.28.236-.429.338a1.547,1.547,0,0,1-1.036.216c-.852-.087-1.171-.627-1.823-1.045-.477-.308-1.474-.44-1.758.19-.182.4.088.909-.09,1.319s-.745.536-1.008.917c-.346.5-.024,1.226-.277,1.783a.908.908,0,0,1-.154.236,8.066,8.066,0,0,1,11.406-11.392l.362-.013c.353-.013.726-.032,1.1-.055a3.069,3.069,0,0,1,.208.588A4.905,4.905,0,0,1,396.028,159.788Z" transform="translate(-336.581 -141.786)"/><path class="j" d="M362.188,145.8c-.184.4.087.909-.09,1.317s-.748.536-1.008.917c-.347.5-.025,1.228-.277,1.783-.29.634-1.163.733-1.833.548a3.753,3.753,0,0,1-2.5-2.339c-.454-1.293-.161-2.717-.279-4.082a6.772,6.772,0,0,0-.375-1.714,7.272,7.272,0,0,1-.523-1.634,2.429,2.429,0,0,1,1.311-2.387c.552-.268,1.232-.344,1.634-.8a3.531,3.531,0,0,0,.517-1.3,3.089,3.089,0,0,1,2.815-2.178c1.016.008,2.01.607,3,.371.562-.134,1.072-.536,1.651-.478a2.1,2.1,0,0,1,.781.291,30.452,30.452,0,0,1,4.384,2.882,4.935,4.935,0,0,0,.929.631,5.773,5.773,0,0,1,.626.288,2.018,2.018,0,0,1,.783,1.275,4.867,4.867,0,0,1,.1,1.825,1.215,1.215,0,0,1-.637,1.056,1,1,0,0,1-.716-.068c-.67-.291-1.265-1-1.981-.827-.584.134-.866.8-1.019,1.376a2.559,2.559,0,0,0-.036,1.6,9.285,9.285,0,0,0,.765,1.1c.229.385.295.96-.07,1.221-.4.291-.948-.019-1.388-.249a1.562,1.562,0,0,0-1.521-.117c-.154.1-.279.236-.429.339a1.56,1.56,0,0,1-1.035.214c-.854-.087-1.173-.627-1.823-1.045C363.468,145.3,362.474,145.166,362.188,145.8Z" transform="translate(-314.577 -123.189)"/><path class="c" d="M572.013,355.1c-.036.2-.312.224-.369.42a6.211,6.211,0,0,1-3.536,4.289c-.35-.551-.639-.911-.639-.911s3.4-6.225,3.585-5.377A7.01,7.01,0,0,0,572.013,355.1Z" transform="translate(-498.318 -313.382)"/><path class="l" d="M521.654,315.875a6.2,6.2,0,1,1-1.817-4.409A6.227,6.227,0,0,1,521.654,315.875Z" transform="translate(-447.858 -275.463)"/><path class="c" d="M543.074,747.1l.046.823a3.366,3.366,0,0,1-2.187-.091c-.781-.478-1.935-.6-2.993-1.246a4.463,4.463,0,0,0-.029-.875Z" transform="translate(-472.72 -653.08)"/><path class="c" d="M607.943,759.273c-.036.184-.07.3-.07.3a27.912,27.912,0,0,1-5.361-1c0-.415-.012-.938-.012-.938l5.238.637Z" transform="translate(-528.653 -663.403)"/><path class="k" d="M547.159,583.449c-.283.755-.425.9-.141,1.273s.141,2.359-.31,2.547-2.144,1.32-2.144,1.32a5.732,5.732,0,0,1,.966,1.742,1.579,1.579,0,0,0,.364.9s1.453,3.113,1.742,4.1.555,2.547.555,2.547a3.861,3.861,0,0,0-.157,2.218,3.459,3.459,0,0,1,0,1.981s-5.068-.519-5.629-1.185-.188-2.164-.188-2.164a5.417,5.417,0,0,0-.708-1.887c-.567-.9.134-1.839,0-1.887a3.985,3.985,0,0,1-.993-1.414c-.426-.848-.692-.52-.692-.52s.552,4.765,0,5.189-.627.236-.485.8a14.575,14.575,0,0,1,.236,1.651,4.017,4.017,0,0,1-2.546,0c-.848-.519-2.126-.614-3.247-1.415s.508-2.17.791-2.359-.094-2.925-.094-2.925l-.378-2.688s1.273.283.855-.755-.9-4.622-1.138-5.188.8-1.321.661-1.7a10,10,0,0,1,.612-2.546s.048-1.792.519-2.128a1.663,1.663,0,0,0,.374-.95,11.806,11.806,0,0,0,.146-1.544s10.8-.755,12.546.283c.785.466.73,1.326.4,2.2a17.173,17.173,0,0,1-1.435,2.537C547.254,582.207,547.442,582.694,547.159,583.449Z" transform="translate(-468.809 -506.291)"/><path class="c" d="M565.75,578.946a13.908,13.908,0,0,0-3.416,1.248c-.472.52-2.076-2.924-2.076-2.924s.1,2.589-2.028,1.506c-1.838-.938-4.8-.815-5.57-.764a11.835,11.835,0,0,0,.146-1.544s10.8-.755,12.546.283C566.138,577.217,566.083,578.076,565.75,578.946Z" transform="translate(-485.493 -506.291)"/><path class="n" d="M556.664,378.721s.938-1.133,1.132-.708a6.406,6.406,0,0,0,1.3,1.273s.318.99.876,1.133,4.757,5.8,4.757,5.8l-1.51,3.065-1.226,7.453a3.364,3.364,0,0,1-.28,1.608c-.334.429-1.608.33-1.017.848a4.67,4.67,0,0,1,1.911,3.351,21.924,21.924,0,0,0,1.037,3.726s-4.434,1.133-4.905,1.651S556.664,405,556.664,405s.1,2.588-2.028,1.506-5.755-.752-5.755-.752v-2.788s.708-1.086.331-1.84.257-2.17.257-2.17a11.111,11.111,0,0,0-.588-2.311c-.378-.848-.236-4.858-.236-4.858a17.79,17.79,0,0,1-.026-3.916,11.714,11.714,0,0,1,1.162-3.281,4.249,4.249,0,0,0,.706-2.332c-.141-.378,1.245-1.2,1.245-1.2l.768,1.242.2.743S556.759,380.137,556.664,378.721Z" transform="translate(-481.899 -334.582)"/><path class="l" d="M589.922,432.83s2.642,2.593,2.924,3.018,1.23,2.634,0,3.3-6.031,1.7-6.508,1.347-3.351.4-3.351.4-4.806,1.179-3.769-.755,3.491-1.608,3.491-1.608,3.964-.007,4.388-.4,3.619-1.244,2.9-2.991S589.922,432.83,589.922,432.83Z" transform="translate(-508.369 -382.134)"/><path class="c" d="M566.044,519.41s-6.153,5.33-5.541,5.33S566.044,519.41,566.044,519.41Z" transform="translate(-492.248 -457.11)"/><path class="c" d="M622.234,535.6s-1.955.47-1.577.755S622.234,535.6,622.234,535.6Z" transform="translate(-544.335 -471.131)"/><path class="c" d="M581.29,439.16s2.441.218,2.01.982S581.29,439.16,581.29,439.16Z" transform="translate(-510.286 -387.616)"/><path class="c" d="M568.989,610.09a2.109,2.109,0,0,0,0,1.474c.331.515,0,1.742,0,1.742V617.6s-.046,3.114,1.084,4.2Z" transform="translate(-499.507 -535.637)"/><path class="c" d="M545.83,709.81a8.061,8.061,0,0,1,.755,1.32C546.68,711.484,545.83,709.81,545.83,709.81Z" transform="translate(-479.578 -621.992)"/><path class="c" d="M547.06,694.284a5.8,5.8,0,0,1,1.769-.118C549.065,694.331,547.06,694.284,547.06,694.284Z" transform="translate(-480.644 -608.4)"/><path class="c" d="M542.994,738.49s-.449.047.448.536,2.642,1.108,2.664.9A19.42,19.42,0,0,0,542.994,738.49Z" transform="translate(-477.025 -646.828)"/><path class="c" d="M592.69,703.326c.158,0,2.132-.118,2.018.189S592.69,703.326,592.69,703.326Z" transform="translate(-520.158 -616.358)"/><path class="c" d="M612.7,679.461s.448-.777.613-.448S612.7,679.461,612.7,679.461Z" transform="translate(-537.486 -595.252)"/><path class="c" d="M521.662,315.812a6.2,6.2,0,0,1-.239,1.712.933.933,0,0,1-1.029.063,2.773,2.773,0,0,1-.865-.938,2.136,2.136,0,0,0-.921-.866,1.674,1.674,0,0,0-1.521.316c-.44.316-.791.734-1.206,1.072a1.962,1.962,0,0,1-1.474.528,2.532,2.532,0,0,1-.938-.432,8.42,8.42,0,0,0-1.275-.818c-.441-.17-.8.134-1.224.134-.334.121-.7.4-.63.743a1.149,1.149,0,0,0,.172.359,1.508,1.508,0,0,1-.2,1.661,6.227,6.227,0,1,1,11.348-3.542Z" transform="translate(-447.867 -275.401)"/><path class="o" d="M503.08,300.538c-.334.121-.7.4-.631.744a1.2,1.2,0,0,0,.173.358,1.5,1.5,0,0,1-.67,2.025.594.594,0,0,1-.373.059.66.66,0,0,1-.268-.161,2.481,2.481,0,0,1-.773-1.334,16.054,16.054,0,0,1-.1-1.655c-.059-.551-.248-1.094-.314-1.648a1.529,1.529,0,0,1,.084-.815,1.9,1.9,0,0,1,.338-.464,4.351,4.351,0,0,0,.958-1.38c.3-.847.082-1.926.736-2.547a4.089,4.089,0,0,1,1.1-.57,7.762,7.762,0,0,0,1.012-.642,5.569,5.569,0,0,1,4.129-1.179,5.874,5.874,0,0,1,1.636.67,18.4,18.4,0,0,1,2.68,1.8,4.169,4.169,0,0,1,.938.964,3.342,3.342,0,0,1,.41,1.025,5.875,5.875,0,0,1,.078,2.412,15.588,15.588,0,0,0-.45,2.345,1.516,1.516,0,0,1-.117.788.874.874,0,0,1-1.145.2,2.731,2.731,0,0,1-.863-.938,2.118,2.118,0,0,0-.921-.865,1.674,1.674,0,0,0-1.521.315c-.44.315-.789.734-1.206,1.072a1.955,1.955,0,0,1-1.474.528,2.529,2.529,0,0,1-.938-.43,8.275,8.275,0,0,0-1.273-.818C503.875,300.229,503.5,300.538,503.08,300.538Z" transform="translate(-439.977 -259.535)"/><path class="i" d="M592.17,432.83s-6.933,6.414-5.519,9.622S594.29,440,594.29,440l2.219-5.136Z" transform="translate(-514.764 -382.134)"/><g class="p" transform="translate(60.126 37.444)"><path d="M501.975,349.834a.59.59,0,0,1-.371.059.64.64,0,0,1-.268-.162,2.485,2.485,0,0,1-.775-1.332,16.589,16.589,0,0,1-.1-1.657c-.059-.551-.249-1.092-.314-1.649a.356.356,0,0,0-.007-.083,2.121,2.121,0,0,0,.007.461c.064.555.255,1.091.314,1.649a16.416,16.416,0,0,0,.1,1.655,2.484,2.484,0,0,0,.775,1.334.652.652,0,0,0,.268.161.59.59,0,0,0,.371-.059,1.514,1.514,0,0,0,.826-1.547A1.486,1.486,0,0,1,501.975,349.834Z" transform="translate(-500.13 -343.529)"/><path d="M529.355,334.8a15.432,15.432,0,0,0-.449,2.345,1.5,1.5,0,0,1-.118.788.872.872,0,0,1-1.143.2,2.737,2.737,0,0,1-.865-.938,2.109,2.109,0,0,0-.921-.864,1.673,1.673,0,0,0-1.52.316c-.44.316-.791.733-1.206,1.072a1.963,1.963,0,0,1-1.474.529,2.553,2.553,0,0,1-.938-.432,8.363,8.363,0,0,0-1.273-.818c-.44-.17-.8.134-1.224.134-.334.122-.7.4-.633.745a.545.545,0,0,0,.036.11,1.042,1.042,0,0,1,.6-.477c.418,0,.788-.3,1.224-.134a8.067,8.067,0,0,1,1.273.818,2.491,2.491,0,0,0,.938.43,1.934,1.934,0,0,0,1.474-.528c.413-.342.768-.764,1.206-1.072a1.691,1.691,0,0,1,1.52-.315,2.125,2.125,0,0,1,.921.865,2.849,2.849,0,0,0,.865.938.863.863,0,0,0,1.143-.2,1.6,1.6,0,0,0,.118-.788,14.955,14.955,0,0,1,.449-2.345,5.926,5.926,0,0,0,.086-1.222A5.955,5.955,0,0,1,529.355,334.8Z" transform="translate(-515.245 -333.96)"/></g><path class="c" d="M561.319,171.975s-2.547,4.623.938,6.981,3.821,2.123,3.821,2.123a3.389,3.389,0,0,0,0,.708c.048.142.938.47.938.47a7.628,7.628,0,0,0,2.64,2.5,3.691,3.691,0,0,1,1.84,2.546,1.607,1.607,0,0,0,.8,1.179,5.894,5.894,0,0,1,1.423,2.217v1.51c0,.236.283.938-.33,1.013s-.1,1.486-.1,1.486-.659.8-.519,1.179-.283,1.131-.283,1.131-.519.755-.472.9-.566.661-.425.99-.706.755-.566,1.133-.6.566-.6.566l-2.039,4.718s4.289.938,5.4,3.3l5.407-9.906s3.018-7.4,3.113-7.877a7.4,7.4,0,0,0-.661-2.17l-3.679-6.7-5.519-7.783S568.065,164.853,561.319,171.975Z" transform="translate(-492.215 -153.922)"/><path class="c" d="M580.925,187.266s-6.626,2.325-3.136,4.684,3.821,2.122,3.821,2.122a3.491,3.491,0,0,0,0,.708c.047.141.938.472.938.472a7.637,7.637,0,0,0,2.642,2.5,3.691,3.691,0,0,1,1.84,2.546,1.607,1.607,0,0,0,.8,1.179,5.839,5.839,0,0,1,1.415,2.217V205.2c0,.236.283.938-.331,1.015s-.094,1.486-.094,1.486-.661.8-.519,1.178-.283,1.133-.283,1.133-.519.755-.472.9-.567.661-.425.99-.708.755-.566,1.132-.6.566-.6.566l-2.037,4.716s3.533.182,4.648,2.546l6.153-9.145s3.02-7.4,3.113-7.877a7.5,7.5,0,0,0-.658-2.175l-3.679-6.7-8.393-4.841S587.671,180.142,580.925,187.266Z" transform="translate(-506.375 -167.262)"/><path class="b" d="M564.139,171.978s-2.547,4.623.938,6.981,3.821,2.123,3.821,2.123a3.49,3.49,0,0,0,0,.708c.047.142.938.47.938.47a7.637,7.637,0,0,0,2.642,2.5,3.691,3.691,0,0,1,1.84,2.546,1.607,1.607,0,0,0,.8,1.179,5.886,5.886,0,0,1,1.422,2.217v1.51c0,.236.283.938-.331,1.013s-.094,1.486-.094,1.486-.661.8-.519,1.179-.283,1.131-.283,1.131-.519.755-.472.9-.567.661-.425.99-.708.755-.566,1.133-.6.566-.6.566l-2.037,4.718s4.281.938,5.394,3.3l5.407-9.906s3.02-7.4,3.113-7.877a7.445,7.445,0,0,0-.661-2.17l-3.679-6.7-5.518-7.78S570.884,164.856,564.139,171.978Z" transform="translate(-494.657 -153.925)"/><g class="p" transform="translate(40.714 16.975)"><path d="M356.2,184.63a6.725,6.725,0,0,0-.375-1.716,7.275,7.275,0,0,1-.523-1.634v-.051a2.184,2.184,0,0,0,0,.429,7.341,7.341,0,0,0,.523,1.634,6.714,6.714,0,0,1,.375,1.714c.019.22.027.442.029.67C356.233,185.322,356.229,184.975,356.2,184.63Z" transform="translate(-355.291 -181.23)"/><path d="M366.745,227.324c-.288.633-1.163.733-1.833.547a3.761,3.761,0,0,1-2.5-2.337,5.537,5.537,0,0,1-.268-1.784,6.132,6.132,0,0,0,.268,2.16,3.762,3.762,0,0,0,2.5,2.339c.67.185,1.545.086,1.833-.548a2.045,2.045,0,0,0,.1-.885A1.382,1.382,0,0,1,366.745,227.324Z" transform="translate(-361.223 -218.051)"/><path d="M464.584,181.77a1.212,1.212,0,0,1-.637,1.055,1,1,0,0,1-.714-.067c-.67-.292-1.267-1-1.982-.827-.584.134-.865.795-1.019,1.376a3.392,3.392,0,0,0-.143,1.135,4.438,4.438,0,0,1,.143-.759c.154-.58.434-1.237,1.019-1.376.716-.169,1.307.536,1.982.827a1,1,0,0,0,.714.068,1.212,1.212,0,0,0,.637-1.056,4.877,4.877,0,0,0,.04-.827C464.618,181.47,464.6,181.622,464.584,181.77Z" transform="translate(-446.04 -181.308)"/><path d="M414.251,218.216c-.4.291-.948-.019-1.388-.251a1.562,1.562,0,0,0-1.521-.117c-.154.1-.279.236-.429.339a1.543,1.543,0,0,1-1.035.214c-.854-.087-1.173-.627-1.823-1.045-.477-.307-1.474-.438-1.758.192a1.142,1.142,0,0,0-.055.58.753.753,0,0,1,.055-.2c.285-.631,1.281-.5,1.758-.192.65.418.969.958,1.823,1.045a1.551,1.551,0,0,0,1.035-.216c.15-.1.275-.241.429-.338a1.565,1.565,0,0,1,1.521.117c.441.231.984.536,1.388.249a.743.743,0,0,0,.24-.765A.619.619,0,0,1,414.251,218.216Z" transform="translate(-399.4 -212.293)"/><path d="M398.437,229.024c-.184.421-.748.536-1.008.915a1.624,1.624,0,0,0-.172.985,1.115,1.115,0,0,1,.172-.607c.26-.379.824-.5,1.008-.917a1.166,1.166,0,0,0,.051-.571A.757.757,0,0,1,398.437,229.024Z" transform="translate(-391.63 -222.45)"/></g></g></svg>