<svg xmlns="http://www.w3.org/2000/svg" width="135.016" height="81.332" viewBox="0 0 135.016 81.332"><defs><style>.a{fill:#e6e6e6;}.b{fill:#3f3d56;}.c{fill:#2f2e41;}.d{fill:#a0616a;}.e{fill:#cfcce0;}.f{fill:#fff;}.g{fill:#0db2b9;}</style></defs><g transform="translate(0 0)"><path class="a" d="M164.814,542.461l-.811-3.2a41.526,41.526,0,0,0-4.406-1.58l-.1,1.486-.415-1.637c-1.857-.53-3.12-.764-3.12-.764a39.8,39.8,0,0,0,5.285,11.448l4.17.732-3.239.467a16.8,16.8,0,0,0,1.449,1.536c5.206,4.832,11,7.049,12.95,4.952s-.7-7.714-5.9-12.546A22.117,22.117,0,0,0,165,539.71Z" transform="translate(-155.96 -482.91)"/><path class="a" d="M230.816,498.664l.959-3.157a41.526,41.526,0,0,0-2.954-3.63l-.856,1.219.491-1.616c-1.315-1.414-2.276-2.266-2.276-2.266a39.8,39.8,0,0,0-1.394,12.531l3.191,2.782-3.014-1.275a16.8,16.8,0,0,0,.447,2.063c1.959,6.827,5.776,11.722,8.527,10.933s3.392-6.963,1.434-13.79a22.118,22.118,0,0,0-2.969-6.052Z" transform="translate(-214.252 -442.586)"/><rect class="b" width="135.004" height="0.341" transform="translate(0.012 74.138)"/><path class="c" d="M276.423,430.575s-1.051,12.641-1.277,15.35a19.262,19.262,0,0,1-1.129,4.966,4.67,4.67,0,0,0-.451,1.806V464.21a.671.671,0,0,0-.677.9c.226.9.451,2.483.451,2.483h3.386a.7.7,0,0,1,.451-.9c.677-.226,0-2.032,0-2.032l3.612-13.544,5.418-11.287s3.16,10.158,3.837,11.287c0,0,2.483,12.641,2.934,13.77s.677,1.129.451,1.58a1.008,1.008,0,0,0,0,1.129,30.1,30.1,0,0,0,4.515,0l-1.129-16.027-2.032-19.187-10.384-3.16Z" transform="translate(-255.081 -391.714)"/><path class="c" d="M260.237,658s-1.129-4.063-2.935-.9-1.806,4.289-1.806,4.289-2.935,4.289,1.129,3.838,3.16-2.483,3.16-2.483,1.58-.9,1.58-1.58A16.189,16.189,0,0,0,260.237,658Z" transform="translate(-239.495 -583.93)"/><path class="c" d="M406.364,655.036s1.129-4.063,2.935-.9,1.806,4.289,1.806,4.289,2.935,4.289-1.129,3.837-3.16-2.483-3.16-2.483-1.58-.9-1.58-1.58A16.19,16.19,0,0,1,406.364,655.036Z" transform="translate(-367.337 -581.412)"/><path class="d" d="M336.378,237.686s.451,2.935-.9,3.612,2.935,3.16,4.063,3.16,3.16-2.257,3.16-2.257-1.129-3.386-.9-4.063Z" transform="translate(-307.962 -229.299)"/><circle class="d" cx="4.74" cy="4.74" r="4.74" transform="translate(26.16 1.164)"/><path class="e" d="M313.865,263.794l-5.643-3.419s-3.211,3.645-6.684-.418l-5.957,1.58.9,15.35s-1.354,6.095-.9,7.223-1.129,1.58-.677,1.806,0,1.806,0,1.806,8.8,4.515,18.51,1.129l-.9-2.935a2.369,2.369,0,0,0-.452-2.257,2,2,0,0,0-.226-2.483s.451-2.032-.677-2.935l-.226-3.16.677-1.58Z" transform="translate(-273.71 -248.184)"/><path class="c" d="M328.912,186.218s-.565,1.223,1.7.734c0,0,.848.489.848-.245,0,0,1.13,1.223,1.413.489s.848.245.848.245l.565-1.223.565.734h1.978s.565-4.892-6.217-4.4-3.445,8.24-3.445,8.24.055-1.391.62-.658S328.912,186.218,328.912,186.218Z" transform="translate(-300.438 -182.515)"/><path class="d" d="M409.8,344.589l.226,4.74s.9,8.8-.9,12.641V364s-.451,5.192-2.709,4.966.677-7.449.677-7.449l-.452-9.932-.451-5.643Z" transform="translate(-367.613 -319.949)"/><path class="e" d="M392.419,284.642l2.252-.366a10.994,10.994,0,0,1,3.166,5.783c.677,3.612.9,4.289.9,4.289l-5.418,1.354-2.935-5.643Z" transform="translate(-354.747 -268.806)"/><rect class="f" width="35.623" height="17.696" transform="translate(27.976 13.26)"/><path class="g" d="M351.963,274.012a4.164,4.164,0,0,0-2.438-.466,3.595,3.595,0,0,0,3.993,2.4A4.166,4.166,0,0,0,351.963,274.012Z" transform="translate(-320.097 -259.688)"/><path class="g" d="M354.768,348.571h-5.72a1.287,1.287,0,1,0,0,2.574h5.72a1.287,1.287,0,0,0,0-2.574Z" transform="translate(-318.601 -323.326)"/><path class="g" d="M369.5,259.215h-32.07a2.841,2.841,0,0,0-2.841,2.841v15.625a2.841,2.841,0,0,0,2.841,2.841H369.5a2.841,2.841,0,0,0,2.841-2.841V262.056A2.841,2.841,0,0,0,369.5,259.215Zm-32.863,1.938a3.92,3.92,0,0,1,4.549,2.737l.05.156-.161.029a4.281,4.281,0,0,1-.7.051,4.144,4.144,0,0,1-2.113-.532,4.488,4.488,0,0,1-1.741-2.256l-.05-.156ZM343.6,275.66h-5.72a1.573,1.573,0,0,1,0-3.146h5.72a1.573,1.573,0,1,1,0,3.146Zm26.026-.286a1.721,1.721,0,0,1-1.716,1.716h-4.29a1.721,1.721,0,0,1-1.716-1.716V272.8a1.721,1.721,0,0,1,1.716-1.716h4.29a1.721,1.721,0,0,1,1.716,1.716Z" transform="translate(-307.434 -247.555)"/><path class="g" d="M521.307,362.209h-1.859a.5.5,0,1,0,0,1h1.859a.5.5,0,0,0,0-1Zm0,.715h-1.859a.214.214,0,1,1,0-.429h1.859a.214.214,0,1,1,0,.429Z" transform="translate(-463.761 -334.89)"/><path class="g" d="M543.881,362.209h-1.859a.5.5,0,0,0,0,1h1.859a.5.5,0,0,0,0-1Zm0,.715h-1.859a.214.214,0,1,1,0-.429h1.859a.214.214,0,1,1,0,.429Z" transform="translate(-482.904 -334.89)"/><path class="g" d="M521.307,353.744h-1.859a.5.5,0,1,0,0,1h1.859a.5.5,0,0,0,0-1Zm0,.715h-1.859a.214.214,0,1,1,0-.429h1.859a.214.214,0,1,1,0,.429Z" transform="translate(-463.761 -327.712)"/><path class="g" d="M543.881,353.744h-1.859a.5.5,0,0,0,0,1h1.859a.5.5,0,0,0,0-1Zm0,.715h-1.859a.214.214,0,1,1,0-.429h1.859a.214.214,0,1,1,0,.429Z" transform="translate(-482.904 -327.712)"/><path class="g" d="M521.307,345.279h-1.859a.5.5,0,1,0,0,1h1.859a.5.5,0,0,0,0-1Zm0,.715h-1.859a.215.215,0,1,1,0-.429h1.859a.215.215,0,0,1,0,.429Z" transform="translate(-463.761 -320.534)"/><path class="g" d="M543.881,345.279h-1.859a.5.5,0,0,0,0,1h1.859a.5.5,0,0,0,0-1Zm0,.715h-1.859a.215.215,0,0,1,0-.429h1.859a.215.215,0,0,1,0,.429Z" transform="translate(-482.904 -320.534)"/><path class="d" d="M273.18,295.114s-2.032,8.578.451,8.578,8.352-9.706,8.352-9.706,6.095-3.16,3.612-4.289-5.643,1.806-5.643,1.806l-3.646,5.063-.191-2.58Z" transform="translate(-254.695 -273.183)"/><path class="e" d="M277.249,271.7l-1.354-1.354s-2.709,1.58-2.935,3.16-1.354,6.546-1.354,6.546l4.176.339,1.354-2.032Z" transform="translate(-254.024 -256.997)"/><path class="g" d="M722.837,224.707c-.17-.5-2.3-2.209-1-2.5l1.072,1.429,4.927-4.927.5.5Z" transform="translate(-635.452 -213.211)"/><path class="g" d="M722.837,334.9c-.17-.5-2.3-2.209-1-2.5l1.072,1.429,4.927-4.927.5.5Z" transform="translate(-635.452 -306.652)"/><path class="g" d="M722.837,446.67c-.17-.5-2.3-2.209-1-2.5l1.072,1.429,4.927-4.927.5.5Z" transform="translate(-635.452 -401.427)"/><circle class="b" cx="1.52" cy="1.52" r="1.52" transform="translate(100.788 7.939)"/><rect class="b" width="24.477" height="0.304" transform="translate(108.01 9.308)"/><circle class="b" cx="1.52" cy="1.52" r="1.52" transform="translate(100.788 24.692)"/><rect class="b" width="24.477" height="0.304" transform="translate(108.01 26.06)"/><circle class="b" cx="1.52" cy="1.52" r="1.52" transform="translate(100.788 41.684)"/><rect class="b" width="24.477" height="0.304" transform="translate(108.01 43.053)"/><path class="b" d="M557.642,269.239h-7.6v-7.754h5.169v.3h-4.865v7.145h6.993v-3.5h.3Z" transform="translate(-466.417 -221.731)"/><path class="b" d="M557.642,157.239h-7.6v-7.754h5.169v.3h-4.865v7.146h6.993v-3.5h.3Z" transform="translate(-466.417 -126.759)"/><path class="b" d="M557.642,43.239h-7.6V35.485h5.169v.3h-4.865v7.145h6.993v-3.5h.3Z" transform="translate(-466.417 -30.09)"/></g></svg>