<svg xmlns="http://www.w3.org/2000/svg" width="87.212" height="122.987" viewBox="0 0 87.212 122.987">
  <g id="undraw_contract_uy56" transform="translate(0 0)">
    <path id="Path_2970" data-name="Path 2970" d="M213.083,143.094a8.354,8.354,0,0,0-8.345,8.345v96.136a8.354,8.354,0,0,0,8.345,8.345h70.523a8.354,8.354,0,0,0,8.345-8.345V151.439a8.354,8.354,0,0,0-8.345-8.345Z" transform="translate(-204.739 -132.934)" fill="#3f3d56"/>
    <rect id="Rectangle_296" data-name="Rectangle 296" width="78.534" height="100.972" transform="translate(4.34 16.087)" fill="#fff"/>
    <rect id="Rectangle_297" data-name="Rectangle 297" width="58.001" height="3.81" transform="translate(14.606 34.186)" fill="#ff9500"/>
    <rect id="Rectangle_298" data-name="Rectangle 298" width="58.001" height="3.81" transform="translate(14.606 44.347)" fill="#ff9500"/>
    <rect id="Rectangle_299" data-name="Rectangle 299" width="58.001" height="3.81" transform="translate(14.606 54.507)" fill="#ff9500"/>
    <rect id="Rectangle_300" data-name="Rectangle 300" width="58.001" height="3.81" transform="translate(14.606 64.668)" fill="#ff9500"/>
    <rect id="Rectangle_301" data-name="Rectangle 301" width="58.001" height="3.81" transform="translate(14.606 74.829)" fill="#ff9500"/>
    <rect id="Rectangle_302" data-name="Rectangle 302" width="58.001" height="3.81" transform="translate(14.606 84.989)" fill="#ff9500"/>
    <rect id="Rectangle_303" data-name="Rectangle 303" width="58.001" height="3.81" transform="translate(14.606 95.15)" fill="#ff9500"/>
    <rect id="Rectangle_304" data-name="Rectangle 304" width="58.468" height="75.173" transform="translate(15.91 20.21) rotate(-10.37)" fill="#e6e6e6"/>
    <rect id="Rectangle_305" data-name="Rectangle 305" width="43.181" height="2.837" transform="translate(25.854 32.089) rotate(-10.37)" fill="#ff9500"/>
    <rect id="Rectangle_306" data-name="Rectangle 306" width="43.181" height="2.837" transform="translate(27.216 39.529) rotate(-10.37)" fill="#ff9500"/>
    <rect id="Rectangle_307" data-name="Rectangle 307" width="43.181" height="2.837" transform="translate(28.577 46.97) rotate(-10.37)" fill="#ff9500"/>
    <rect id="Rectangle_308" data-name="Rectangle 308" width="43.181" height="2.837" transform="translate(29.939 54.411) rotate(-10.37)" fill="#ff9500"/>
    <rect id="Rectangle_309" data-name="Rectangle 309" width="43.181" height="2.837" transform="translate(31.301 61.852) rotate(-10.37)" fill="#ff9500"/>
    <rect id="Rectangle_310" data-name="Rectangle 310" width="43.181" height="2.837" transform="translate(32.662 69.294) rotate(-10.37)" fill="#ff9500"/>
    <rect id="Rectangle_311" data-name="Rectangle 311" width="43.181" height="2.837" transform="translate(34.024 76.734) rotate(-10.37)" fill="#ff9500"/>
    <path id="Path_2971" data-name="Path 2971" d="M382.33,90.046h-6.92V88.629a3.875,3.875,0,0,0-3.875-3.875h-7.49a3.875,3.875,0,0,0-3.875,3.875v1.417h-6.92a3.875,3.875,0,0,0-3.875,3.875v10.731h36.832V93.921a3.875,3.875,0,0,0-3.875-3.875Z" transform="translate(-324.183 -84.754)" fill="#3f3d56"/>
    <path id="Path_2972" data-name="Path 2972" d="M438.654,694.653a12.191,12.191,0,0,1,3.679-1.953,3.869,3.869,0,0,1,3.644.669,2.232,2.232,0,0,1,.539,2.822,1.794,1.794,0,0,1-1.188.865,1.432,1.432,0,0,1-1.287-.5,1.313,1.313,0,0,1-.328-1.29,1.689,1.689,0,0,1,1.083-.919,8.017,8.017,0,0,1,1.615-.334l2.245-.307,9.19-1.258,10.235-1.4a.32.32,0,0,0,.222-.391.326.326,0,0,0-.391-.222l-20.365,2.788c-.737.1-1.484.173-2.213.321a3.722,3.722,0,0,0-1.589.66,1.9,1.9,0,0,0-.008,2.947,2.1,2.1,0,0,0,3.024-.226,2.742,2.742,0,0,0,.208-3.36A4.073,4.073,0,0,0,443,691.93a10.823,10.823,0,0,0-4.663,2.175C438,694.334,438.316,694.885,438.654,694.653Z" transform="translate(-397.532 -584.937)" fill="#3f3d56"/>
  </g>
</svg>
