<svg xmlns="http://www.w3.org/2000/svg" width="135.951" height="101.977" viewBox="0 0 135.951 101.977"><defs><style>.a{fill:#e6e6e6;}.b{fill:#2f2e41;}.c{fill:#ffb8b8;}.d{fill:#d0cde1;}.e{fill:#3f3d56;}.f{fill:#fff;}.g{fill:#0db2b9;}</style></defs><g transform="translate(0)"><path class="a" d="M498.562,699.286l-1.541-.444a20.177,20.177,0,0,1-.7-2.166l.724-.026-.789-.227c-.229-.911-.322-1.528-.322-1.528a19.352,19.352,0,0,1,5.48,2.748l.29,2.038.278-1.567a8.171,8.171,0,0,1,.723.728c2.266,2.606,3.253,5.458,2.2,6.371s-3.738-.459-6-3.065a10.753,10.753,0,0,1-1.683-2.813Z" transform="translate(-445.102 -603.562)"/><path class="a" d="M793.268,630.439l.879-3.465a44.972,44.972,0,0,1,4.774-1.713l.111,1.61.45-1.774c2.012-.574,3.38-.828,3.38-.828a43.123,43.123,0,0,1-5.726,12.4l-4.518.794,3.51.506a18.208,18.208,0,0,1-1.57,1.664c-5.641,5.236-11.923,7.638-14.033,5.365s.753-8.359,6.394-13.595a23.961,23.961,0,0,1,6.144-3.951Z" transform="translate(-682.23 -544.573)"/><path class="a" d="M779.428,586.957l-1.039-3.42a44.981,44.981,0,0,1,3.2-3.934l.927,1.321-.532-1.751c1.425-1.532,2.466-2.456,2.466-2.456a43.12,43.12,0,0,1,1.51,13.579l-3.457,3.015,3.266-1.381a18.219,18.219,0,0,1-.484,2.236c-2.122,7.4-6.259,12.7-9.239,11.846s-3.676-7.545-1.554-14.943a23.968,23.968,0,0,1,3.218-6.558Z" transform="translate(-676.746 -504.854)"/><path class="b" d="M534.26,184.415l9.113.226,1.227-10.866H534.26Z" transform="translate(-446.248 -145.148)"/><path class="b" d="M707.268,463.231l3.327,23.063s2.883,8.205,3.1,12.2l.887,5.766-3.992.887-4.213-16.189-5.766-14.636.665,16.854,1.331,13.749-3.992.665-2.439-17.519-2.661-12.862s-2-11.088,1.109-12.2Z" transform="translate(-609.61 -409.878)"/><path class="b" d="M786.36,704.8l.444,5.4s-4.75,2.746-3.226,3.279a7.378,7.378,0,0,0,4.037-.274c.451-.128,1.292-.331,1.928-.482a1.414,1.414,0,0,0,1.095-1.274v-.02c.038-.664-1.46-6.436-1.46-6.436Z" transform="translate(-685.109 -611.839)"/><path class="b" d="M708.555,705.623l-.374,5.161s-5.409,2.01-4.015,2.824a7.379,7.379,0,0,0,4.015.5c.815-.069,2.843-.137,2.843-.137s.375.325.539-.32-.22-6.4-.22-6.4Z" transform="translate(-618.839 -612.524)"/><ellipse class="c" cx="4.213" cy="4.213" rx="4.213" ry="4.213" transform="translate(88.788 26.298)"/><path class="c" d="M560.241,200.025l.887,4.879-3.77,1.774-.887-6.209Z" transform="translate(-464.8 -167.074)"/><path class="c" d="M725.719,472.638l-4.657,3.326s-2,5.1-3.548,4.213,1.774-5.322,1.774-5.322l3.77-3.77Z" transform="translate(-629.834 -416.624)"/><path class="c" d="M686.4,471.086l-.443,2.661s1.109,5.544,2.439,4.435-.444-4.657-.444-4.657l.222-2.218Z" transform="translate(-603.817 -416.624)"/><path class="d" d="M711.363,357.074l.444-1.774,2.661-1.331.887,1.109,2.883.887-3.327,17.741s-11.31.665-11.532-1.109,2.218-6.653,2.218-6.653a12.026,12.026,0,0,1-.443-3.77l.887-5.322,3.548-1.109.81-.98.742,1.2Z" transform="translate(-618.362 -318.801)"/><path class="d" d="M753.625,366.529l.665-.444a2.46,2.46,0,0,1,1.774,2c.443,1.774,0,9.758-1.109,11.31s-4.214,6.209-4.214,6.209l-4.213-2,4.435-5.1,1.109-6.431Z" transform="translate(-654.415 -328.921)"/><path class="d" d="M689.9,371.914l-1.774-.444a3,3,0,0,0-1.552,2c-.443,1.552-2.883,9.314-2.661,9.979s-2,5.1-2,5.1l3.1.222,1.774-4.657,1.774-4.657Z" transform="translate(-600.444 -333.419)"/><path class="b" d="M713.679,299.371a3.014,3.014,0,0,1-1.332-2.6c-.03-1.013.216-2.016.235-3.03a2.347,2.347,0,0,0-.052-.618,2.381,2.381,0,0,0-.34-.7,6.567,6.567,0,0,0-5.28-3.036,2.344,2.344,0,0,0-.893.164c-.219.088-.29.077-.332.345a2.236,2.236,0,0,0-1.534.049,5.192,5.192,0,0,0-1.342.8,6.05,6.05,0,0,0-.678.587,5.069,5.069,0,0,0-1.052,4.521c.105.513-.4,1.008-.818,1.323a3.039,3.039,0,0,0-1.106,1.086,4.707,4.707,0,0,0-.129,1.495,2.557,2.557,0,0,1-1.631,2.148.787.787,0,0,0,.759.267,1.869,1.869,0,0,0,.791-.377,4.7,4.7,0,0,0,1.754-2.6,7.63,7.63,0,0,1,.071,1.706,4.765,4.765,0,0,1-.346,1.864,2.729,2.729,0,0,1-1.257,1.384,1.482,1.482,0,0,0,1.618-.322,3.381,3.381,0,0,0,.931-1.551,7.728,7.728,0,0,0,.372-2.934,4.188,4.188,0,0,1,.526,2.856,4.366,4.366,0,0,1-1.481,2.571,8.507,8.507,0,0,0,3.893-.98,2.2,2.2,0,0,0,.8-.615,2.553,2.553,0,0,0,.187-1.919c-.086-.515.559-1.261.19-1.631a.611.611,0,0,0-.41-.176,3.628,3.628,0,0,1-2.764-1.629,4.2,4.2,0,0,1-.7-2.151,3.915,3.915,0,1,1,7.654,1.162,7.861,7.861,0,0,0-.285,1.327,10.431,10.431,0,0,1-.318,1.543,4.012,4.012,0,0,1-1.627,2.47,2.539,2.539,0,0,0,.967.2,5.943,5.943,0,0,0,3.246-.388A2.872,2.872,0,0,0,713.679,299.371Z" transform="translate(-613.375 -264.858)"/><path class="b" d="M734.608,302.553c-3.153-1.264-6.261-1.533-9.288,0v-2.547a1.659,1.659,0,0,1,1.659-1.659H733.3a1.311,1.311,0,0,1,1.311,1.311Z" transform="translate(-636.7 -272.341)"/><ellipse class="c" cx="0.465" cy="0.744" rx="0.465" ry="0.744" transform="translate(96.463 30.302)"/><rect class="e" width="85.663" height="0.329" transform="translate(50.288 101.648)"/><path class="a" d="M22.507,0H7.5L0,12.994,7.5,25.989h15l7.5-12.994Z" transform="translate(0)"/><path class="f" d="M204.25,172.409h13.32l6.66-11.536-6.66-11.536H204.25l-6.66,11.536Z" transform="translate(-195.906 -147.879)"/><path class="a" d="M22.507,215.04H7.5L0,228.034l7.5,12.994h15l7.5-12.994Z" transform="translate(0 -179.615)"/><path class="f" d="M204.25,387.449h13.32l6.66-11.536-6.66-11.536H204.25l-6.66,11.536Z" transform="translate(-195.906 -327.494)"/><path class="a" d="M22.507,430.08H7.5L0,443.074l7.5,12.994h15l7.5-12.994Z" transform="translate(0 -359.23)"/><path class="f" d="M204.25,602.489h13.32l6.66-11.536-6.66-11.536H204.25l-6.66,11.536Z" transform="translate(-195.906 -507.109)"/><path class="g" d="M246.315,395.932a6.338,6.338,0,1,0,6.338,6.338A6.338,6.338,0,0,0,246.315,395.932Zm0,1.9a1.9,1.9,0,1,1-1.9,1.9A1.9,1.9,0,0,1,246.315,397.833Zm0,9.153a4.617,4.617,0,0,1-3.8-2.029c.03-1.268,2.535-1.965,3.8-1.965s3.772.7,3.8,1.965a4.625,4.625,0,0,1-3.8,2.029Z" transform="translate(-231.31 -353.85)"/><path class="g" d="M248.027,187.073a3.46,3.46,0,1,0-4.892,4.892l5.01,5.01,4.892-4.892a3.543,3.543,0,0,0-5.01-5.01Z" transform="translate(-233.052 -178.502)"/><path class="g" d="M262.51,607.217c0,2.163-3.916,6.91-3.916,6.91s-3.916-4.748-3.916-6.91a3.916,3.916,0,0,1,7.831,0Z" transform="translate(-243.59 -527.058)"/><ellipse class="f" cx="1.538" cy="1.538" rx="1.538" ry="1.538" transform="translate(13.466 78.62)"/><ellipse class="g" cx="1.538" cy="1.538" rx="1.538" ry="1.538" transform="translate(13.326 88.368)"/></g></svg>