<svg xmlns="http://www.w3.org/2000/svg" xmlns:xlink="http://www.w3.org/1999/xlink" width="118.828" height="69" viewBox="0 0 118.828 69"><defs><style>.a,.d{opacity:0.1;}.b{fill:#3f3d56;}.c{fill:#6c63ff;}.e{opacity:0.15;}.f{fill:none;stroke:#3f3d56;stroke-miterlimit:10;stroke-width:4px;}.g{fill:#0db2b9;}.h{fill:url(#a);}.i{fill:#2f2e41;}.j{fill:#fbbebe;}.k{fill:#e8e8f0;}.l{fill:#f86d70;}</style><linearGradient id="a" x1="0.5" y1="1" x2="0.5" y2="-0.001" gradientUnits="objectBoundingBox"><stop offset="0" stop-color="gray" stop-opacity="0.251"/><stop offset="0.54" stop-color="gray" stop-opacity="0.122"/><stop offset="1" stop-color="gray" stop-opacity="0.102"/></linearGradient></defs><g transform="translate(0 -0.043)"><g class="a" transform="translate(76.314 0.043)"><ellipse class="b" cx="2.297" cy="3.006" rx="2.297" ry="3.006" transform="translate(8.756 61.969)"/><path class="b" d="M850.937,577.753a3.621,3.621,0,0,0,.483-1.837c0-1.663-1.028-3.005-2.3-3.005s-2.3,1.345-2.3,3.005a3.621,3.621,0,0,0,.479,1.837,110545.488,110545.488,0,0,1,0,7.347,3.622,3.622,0,0,0-.479,1.837c0,1.663,1.028,3.005,2.3,3.005s2.3-1.345,2.3-3.005a3.621,3.621,0,0,0-.479-1.837,3.76,3.76,0,0,0,0-3.674,3.758,3.758,0,0,0,0-3.673Z" transform="translate(-838.067 -525.636)"/><ellipse class="b" cx="2.297" cy="3.006" rx="2.297" ry="3.006" transform="translate(8.756 43.601)"/><ellipse class="b" cx="2.297" cy="3.006" rx="2.297" ry="3.006" transform="translate(8.756 39.927)"/><path class="c" d="M782.206,135.976a11.071,11.071,0,0,0,.855-1.259l-6.03-.991,6.526.049a11.02,11.02,0,0,0,.208-8.714l-8.756,4.539,8.076-5.932a11,11,0,1,0-18.167,12.308,11.021,11.021,0,0,0-1.254,2.005l7.831,4.069-8.35-2.807a11,11,0,0,0,1.767,10.328,11,11,0,1,0,17.289,0,11,11,0,0,0,0-13.6Z" transform="translate(-762.558 -118.183)"/><path class="d" d="M762.609,353.342a10.948,10.948,0,0,0,2.354,6.8,11,11,0,1,0,17.289,0C783.725,358.27,762.609,352.107,762.609,353.342Z" transform="translate(-762.603 -328.749)"/></g><g class="a" transform="translate(16.291 23.428)"><ellipse class="b" cx="1.397" cy="1.83" rx="1.397" ry="1.83" transform="translate(5.268 37.722)"/><path class="b" d="M238.422,622.858a2.207,2.207,0,0,0,.292-1.119,1.449,1.449,0,1,0-2.8,0,2.207,2.207,0,0,0,.291,1.119,2.293,2.293,0,0,0,0,2.236,2.293,2.293,0,0,0,0,2.236,2.2,2.2,0,0,0-.291,1.118,1.449,1.449,0,1,0,2.8,0,2.2,2.2,0,0,0-.292-1.118,2.287,2.287,0,0,0,0-2.236A2.287,2.287,0,0,0,238.422,622.858Z" transform="translate(-230.646 -591.134)"/><ellipse class="b" cx="1.397" cy="1.83" rx="1.397" ry="1.83" transform="translate(5.268 26.54)"/><ellipse class="b" cx="1.397" cy="1.83" rx="1.397" ry="1.83" transform="translate(5.268 24.304)"/><path class="c" d="M186.634,353.942a6.664,6.664,0,0,1-.52-.766l3.673-.6-3.972.03a6.713,6.713,0,0,1-.128-5.3l5.326,2.766L186.1,346.45a6.7,6.7,0,1,1,11.058,7.492,6.687,6.687,0,0,1,.763,1.219l-4.768,2.478,5.084-1.706a6.7,6.7,0,0,1-1.079,6.288,6.7,6.7,0,1,1-10.525,0,6.7,6.7,0,0,1,0-8.279Z" transform="translate(-185.199 -343.114)"/><path class="d" d="M198.589,486.24a6.669,6.669,0,0,1-1.433,4.14,6.7,6.7,0,1,1-10.525,0C185.734,489.246,198.589,485.489,198.589,486.24Z" transform="translate(-185.199 -471.272)"/></g><g class="a" transform="translate(45.537 10.997)"><ellipse class="b" cx="1.87" cy="2.448" rx="1.87" ry="2.448" transform="translate(7.049 50.508)"/><path class="b" d="M537.651,598.165a2.953,2.953,0,0,0,.39-1.5,1.939,1.939,0,1,0-3.743,0,2.945,2.945,0,0,0,.391,1.5,3.061,3.061,0,0,0,0,2.993,3.059,3.059,0,0,0,0,2.992,2.944,2.944,0,0,0-.391,1.5,1.939,1.939,0,1,0,3.743,0,2.953,2.953,0,0,0-.39-1.5,3.065,3.065,0,0,0,0-2.992A3.067,3.067,0,0,0,537.651,598.165Z" transform="translate(-527.252 -555.684)"/><ellipse class="b" cx="1.87" cy="2.448" rx="1.87" ry="2.448" transform="translate(7.049 35.544)"/><ellipse class="b" cx="1.87" cy="2.448" rx="1.87" ry="2.448" transform="translate(7.049 32.551)"/><path class="c" d="M468.44,238.066a8.933,8.933,0,0,1-.7-1.025l4.914-.807-5.315.04a8.977,8.977,0,0,1-.172-7.1l7.132,3.7-6.578-4.834a8.96,8.96,0,1,1,14.795,10.027,8.974,8.974,0,0,1,1.021,1.634l-6.379,3.314,6.8-2.287a8.964,8.964,0,0,1-1.444,8.414,8.959,8.959,0,1,1-14.085,0,8.963,8.963,0,0,1,0-11.079Z" transform="translate(-466.519 -223.547)"/><path class="d" d="M484.438,415.351a8.921,8.921,0,0,1-1.917,5.539,8.959,8.959,0,1,1-14.085,0C467.235,419.366,484.438,414.344,484.438,415.351Z" transform="translate(-466.519 -395.292)"/></g><path class="b" d="M187.874,729.746c0,.714-5.221,1.367-13.853,1.871-1.57.09-3.252.177-5.036.258q-2.312.1-4.847.2-2.456.087-5.1.162c-5.566.159-11.72.273-18.257.331q-2.38.022-4.823.033-2.545.011-5.148.01c-31.515,0-57.061-1.28-57.061-2.859s25.546-2.859,57.061-2.859c13.568,0,26.028.238,35.821.633l1.071.044h.006C180.045,728.09,187.874,728.877,187.874,729.746Z" transform="translate(-69.046 -663.564)"/><path class="e" d="M187.874,729.746c0,.714-5.221,1.367-13.853,1.871-1.57.09-3.252.177-5.036.258q-2.312.1-4.847.2-2.456.087-5.1.162c-5.566.159-11.72.273-18.257.331q-2.38.022-4.823.033-2.545.011-5.148.01c-31.515,0-57.061-1.28-57.061-2.859s25.546-2.859,57.061-2.859c13.568,0,26.028.238,35.821.633l1.071.044h.006C180.045,728.09,187.874,728.877,187.874,729.746Z" transform="translate(-69.046 -663.564)"/><path class="b" d="M142.624,728.884c0,.6-5.221,1.144-13.853,1.559-1.569.076-3.252.148-5.035.215q-2.313.087-4.847.164-2.456.073-5.1.136c-5.567.133-11.721.229-18.258.276q-2.378.018-4.823.027-2.545.009-5.147.009c-31.515,0-57.062-1.07-57.062-2.391s25.548-2.391,57.062-2.391c13.567,0,26.027.2,35.82.529l1.071.036h.007C134.8,727.5,142.624,728.153,142.624,728.884Z" transform="translate(-28.5 -663.206)"/><path class="b" d="M157.913,499.551l-1.433-4.386,34.307-.375,1.406,4.342Z" transform="translate(-143.175 -455.594)"/><path class="e" d="M157.913,499.551l-1.433-4.386,34.307-.375,1.406,4.342Z" transform="translate(-143.175 -455.594)"/><path class="b" d="M135.913,499.551l-1.433-4.386,34.307-.375,1.406,4.342Z" transform="translate(-123.462 -455.594)"/><path class="b" d="M612.9,227.28a9.808,9.808,0,0,1-8.387-4.224,16.951,16.951,0,0,1-3.066-10.234,17.149,17.149,0,0,1,2.965-10.213,10.588,10.588,0,0,1,16.994.228,17.978,17.978,0,0,1,2.9,10.153,16.991,16.991,0,0,1-3,10.009A9.677,9.677,0,0,1,612.9,227.28Zm.1-3.168a5.642,5.642,0,0,0,5.232-3.051,15.422,15.422,0,0,0,1.732-7.693,17.779,17.779,0,0,0-1.773-8.461,5.8,5.8,0,0,0-5.437-3.3q-6.965,0-6.965,11.066,0,11.437,7.209,11.436Zm1.169,30.335h-5.13l33.588-55.432h5.034Zm29.714.569a9.739,9.739,0,0,1-8.421-4.262,18.915,18.915,0,0,1-.088-20.408,10.548,10.548,0,0,1,16.954.228,18.067,18.067,0,0,1,2.884,10.152,17.094,17.094,0,0,1-2.985,9.991,9.579,9.579,0,0,1-8.346,4.3Zm.06-3.249a5.62,5.62,0,0,0,5.2-3,15.254,15.254,0,0,0,1.721-7.662,18.141,18.141,0,0,0-1.741-8.37,5.74,5.74,0,0,0-5.426-3.385q-7.006,0-7.006,11.066,0,11.352,7.246,11.351Z" transform="translate(-541.885 -190.062)"/><path class="b" d="M612.9,227.28a9.808,9.808,0,0,1-8.387-4.224,16.951,16.951,0,0,1-3.066-10.234,17.149,17.149,0,0,1,2.965-10.213,10.588,10.588,0,0,1,16.994.228,17.978,17.978,0,0,1,2.9,10.153,16.991,16.991,0,0,1-3,10.009A9.677,9.677,0,0,1,612.9,227.28Zm.1-3.168a5.642,5.642,0,0,0,5.232-3.051,15.422,15.422,0,0,0,1.732-7.693,17.779,17.779,0,0,0-1.773-8.461,5.8,5.8,0,0,0-5.437-3.3q-6.965,0-6.965,11.066,0,11.437,7.209,11.436Zm1.169,30.335h-5.13l33.588-55.432h5.034Zm29.714.569a9.739,9.739,0,0,1-8.421-4.262,18.915,18.915,0,0,1-.088-20.408,10.548,10.548,0,0,1,16.954.228,18.067,18.067,0,0,1,2.884,10.152,17.094,17.094,0,0,1-2.985,9.991,9.579,9.579,0,0,1-8.346,4.3Zm.06-3.249a5.62,5.62,0,0,0,5.2-3,15.254,15.254,0,0,0,1.721-7.662,18.141,18.141,0,0,0-1.741-8.37,5.74,5.74,0,0,0-5.426-3.385q-7.006,0-7.006,11.066,0,11.352,7.246,11.351Z" transform="translate(-541.885 -190.062)"/><path class="e" d="M612.9,227.28a9.808,9.808,0,0,1-8.387-4.224,16.951,16.951,0,0,1-3.066-10.234,17.149,17.149,0,0,1,2.965-10.213,10.588,10.588,0,0,1,16.994.228,17.978,17.978,0,0,1,2.9,10.153,16.991,16.991,0,0,1-3,10.009A9.677,9.677,0,0,1,612.9,227.28Zm.1-3.168a5.642,5.642,0,0,0,5.232-3.051,15.422,15.422,0,0,0,1.732-7.693,17.779,17.779,0,0,0-1.773-8.461,5.8,5.8,0,0,0-5.437-3.3q-6.965,0-6.965,11.066,0,11.437,7.209,11.436Zm1.169,30.335h-5.13l33.588-55.432h5.034Zm29.714.569a9.739,9.739,0,0,1-8.421-4.262,18.915,18.915,0,0,1-.088-20.408,10.548,10.548,0,0,1,16.954.228,18.067,18.067,0,0,1,2.884,10.152,17.094,17.094,0,0,1-2.985,9.991,9.579,9.579,0,0,1-8.346,4.3Zm.06-3.249a5.62,5.62,0,0,0,5.2-3,15.254,15.254,0,0,0,1.721-7.662,18.141,18.141,0,0,0-1.741-8.37,5.74,5.74,0,0,0-5.426-3.385q-7.006,0-7.006,11.066,0,11.352,7.246,11.351Z" transform="translate(-541.885 -190.062)"/><path class="b" d="M581.9,227.28a9.808,9.808,0,0,1-8.387-4.224,16.951,16.951,0,0,1-3.066-10.234,17.149,17.149,0,0,1,2.965-10.213,10.588,10.588,0,0,1,16.994.228,17.978,17.978,0,0,1,2.9,10.153,16.99,16.99,0,0,1-3,10.009A9.677,9.677,0,0,1,581.9,227.28Zm.1-3.168a5.642,5.642,0,0,0,5.232-3.051,15.422,15.422,0,0,0,1.732-7.693,17.779,17.779,0,0,0-1.773-8.461,5.8,5.8,0,0,0-5.437-3.3q-6.965,0-6.965,11.066,0,11.437,7.209,11.436Zm1.169,30.335h-5.13l33.588-55.432h5.034Zm29.714.569a9.739,9.739,0,0,1-8.421-4.262,18.915,18.915,0,0,1-.088-20.408,10.548,10.548,0,0,1,16.954.228,18.066,18.066,0,0,1,2.884,10.152,17.094,17.094,0,0,1-2.985,9.991,9.579,9.579,0,0,1-8.346,4.3Zm.06-3.249a5.62,5.62,0,0,0,5.2-3,15.254,15.254,0,0,0,1.721-7.662,18.142,18.142,0,0,0-1.741-8.37,5.742,5.742,0,0,0-5.428-3.385q-7.006,0-7.006,11.066,0,11.352,7.248,11.351Z" transform="translate(-514.108 -190.062)"/><path class="f" d="M105.708,585.728a2.4,2.4,0,0,1,.618-2.476,4.019,4.019,0,0,0,1.227-2.349c-.021-1.3-1.4-2.063-2.5-2.751a12.173,12.173,0,0,1-2.243-1.8,3.293,3.293,0,0,1-.689-.923,3.773,3.773,0,0,1-.208-1.639q.072-2.778.274-5.547" transform="translate(-94.28 -521.408)"/><path class="g" d="M84.461,550.638a2.02,2.02,0,0,1,1.009-1.657l.453.9-.014-1.085a2.048,2.048,0,0,1,.666-.08,2.023,2.023,0,1,1-2.116,1.926Z" transform="translate(-78.641 -503.908)"/><path class="g" d="M117.227,673.6a2.022,2.022,0,1,0-.1-1.629l1.264,1.028L117,672.67A2.017,2.017,0,0,0,117.227,673.6Z" transform="translate(-107.799 -613.169)"/><path class="g" d="M112.248,626.306a2.023,2.023,0,0,0,2.116-1.926,2,2,0,0,0-.175-.922,2.026,2.026,0,0,0-1.3-1.122l.011.832-.458-.907h0a2.023,2.023,0,0,0-.189,4.042Z" transform="translate(-101.821 -569.811)"/><path class="g" d="M64.908,594.891a2.024,2.024,0,1,0-.889-3.786l.358.979-.741-.7a2.017,2.017,0,0,0-.656,1.393,1.975,1.975,0,0,0,.052.557A2.024,2.024,0,0,0,64.908,594.891Z" transform="translate(-59.393 -541.664)"/><path class="d" d="M85.12,560.73c.467.051.92.2,1.389.226a1.509,1.509,0,0,0,1.28-.448,6.177,6.177,0,0,0,.374-.658,1.434,1.434,0,0,1,.509-.479,2.023,2.023,0,1,1-3.782,1.342C84.967,560.716,85.043,560.721,85.12,560.73Z" transform="translate(-79.028 -513.46)"/><path class="d" d="M65.359,604.886A2.025,2.025,0,0,0,67.283,602a1.516,1.516,0,0,0-.406.408,6.649,6.649,0,0,1-.4.668,1.649,1.649,0,0,1-1.341.47c-.488-.022-.96-.161-1.446-.208-.068-.006-.136-.01-.208-.013A2.024,2.024,0,0,0,65.359,604.886Z" transform="translate(-59.843 -551.658)"/><path class="d" d="M112.939,636.639a2.023,2.023,0,0,0,2.116-1.926,2,2,0,0,0-.175-.922,1.629,1.629,0,0,0-.427.416,6.927,6.927,0,0,1-.44.682,1.872,1.872,0,0,1-1.432.5c-.5-.01-.983-.133-1.481-.172A2.024,2.024,0,0,0,112.939,636.639Z" transform="translate(-102.513 -580.143)"/><path class="d" d="M119.18,684.771a2.023,2.023,0,0,0,3.689-1.651,2.038,2.038,0,0,0-.444.4,7.932,7.932,0,0,1-.542.719,2.542,2.542,0,0,1-1.676.588A8.619,8.619,0,0,1,119.18,684.771Z" transform="translate(-109.753 -624.345)"/><path class="h" d="M512.01,602.93a1.615,1.615,0,0,0-.642-1.3,92.544,92.544,0,0,0-2.835-3.258h0a1.593,1.593,0,0,0-.234-.055h-.023l-.041-.005h-.214a1.849,1.849,0,0,0-1.787,1.581c-.577-.133-1.106.039-1.2.4a.494.494,0,0,0,.016.292,1.265,1.265,0,0,0,.847.687l.056.017c.028.008.056.015.084.021h.019a1.456,1.456,0,0,0,.635,1.9.327.327,0,0,0-.037.024.52.52,0,0,0-.125.175,2.532,2.532,0,0,0-.241.581c-.042.174-.049.356-.1.527a4.715,4.715,0,0,0-.366.917c-.012.148.011.321-.094.422a.7.7,0,0,1-.083.061.643.643,0,0,0-.183.191.611.611,0,0,1-.122.168c-.095.072-.251.064-.3.175s.074.24.046.361c-.023.1-.13.142-.208.208a.737.737,0,0,0-.177.336,1.075,1.075,0,0,1-.887-.226,1.667,1.667,0,0,1,.091.332,1.4,1.4,0,0,0-.478-.239,1.527,1.527,0,0,1-.509-.378l.272-.037-1.206-1.83-.356-.073.319.612a.191.191,0,0,0-.1.131.557.557,0,0,0-.012.208,3.842,3.842,0,0,0,.082.488l.093.43a1.116,1.116,0,0,0,.03.12,1.214,1.214,0,0,0-.358.041,3.142,3.142,0,0,0-.741-.176.377.377,0,0,0-.167.008.406.406,0,0,0-.156.127,4.987,4.987,0,0,0-.551.776,26.035,26.035,0,0,1-2.323,3.129c-.559.228-1.123.444-1.687.658l-1.213.463a1.822,1.822,0,0,1-.752.17c-.116-.007-.258-.025-.323.074a.623.623,0,0,0-.074.158c-.043,0-.085.01-.125.012h-.007a1.441,1.441,0,0,0-.291-.535.181.181,0,0,0-.137.1c-.029.054-.047.113-.08.163-.065.1-.179.142-.26.224s-.132.208-.219.287a.871.871,0,0,1-.416.161,2.624,2.624,0,0,0-.646.245,1.1,1.1,0,0,1-.239.11.9.9,0,0,1-.28.009l-.642-.047a.5.5,0,0,0-.172.007.319.319,0,0,0-.208.33.513.513,0,0,0,.2.353,1.351,1.351,0,0,0,.366.19,10.628,10.628,0,0,0,1.721.5v.13a2.918,2.918,0,0,0,1.311.312.2.2,0,0,0,.1-.018.217.217,0,0,0,.082-.129,5.3,5.3,0,0,0,.257-1.259h0a.647.647,0,0,0,.232-.059c.221-.06.441.091.668.116a1.831,1.831,0,0,0,.807-.234c.038-.015.077-.027.115-.04a1.292,1.292,0,0,1-.265.257c-.11.079-.234.137-.342.219a2.271,2.271,0,0,1-.288.224,1.734,1.734,0,0,1-.221.085,1.5,1.5,0,0,0-.312.157.648.648,0,0,0-.216.208.284.284,0,0,0,.193.443.89.89,0,0,0,.263.007c.347-.026.693-.058,1.04-.089a2.9,2.9,0,0,0,.436-.062c.076-.019.151-.044.227-.063a1.834,1.834,0,0,1,.4-.059.329.329,0,0,1,.115.011c.081.026.138.1.22.125a.34.34,0,0,0,.157-.022,3.6,3.6,0,0,1,.771-.082c.113-.006.246-.028.3-.133.064-.13-.044-.276-.086-.416a1.253,1.253,0,0,1-.035-.272,1.7,1.7,0,0,0-.191-.648,1.753,1.753,0,0,1-.142-.3,7.517,7.517,0,0,0,1.418-.719,2.569,2.569,0,0,1,.809-.389,2.172,2.172,0,0,1,1.016.117,22.842,22.842,0,0,1,2.328.812,11.547,11.547,0,0,0,1.1.416,1.712,1.712,0,0,0,.39.38,1.8,1.8,0,0,0,.847.231,11.121,11.121,0,0,0,1.191.045,2.013,2.013,0,0,0,.888-.164,1.03,1.03,0,0,0,.186-.123.737.737,0,0,0,.584-.216,1.414,1.414,0,0,0,.447-.7c.1-.375.022-.813.253-1.12.061-.082.141-.149.2-.232a.623.623,0,0,0,.1-.377l.01-.016a1.4,1.4,0,0,0,.1-.378,2.166,2.166,0,0,1,.1-.3,9.018,9.018,0,0,0,.306-.887,4.868,4.868,0,0,0,.141-.608c.025-.164.039-.33.053-.495a2.984,2.984,0,0,1,.15-.76,6.209,6.209,0,0,0,.344-1.821v-.036a1.219,1.219,0,0,0,1.086-1.231,1.3,1.3,0,0,0-.112-.531A1.648,1.648,0,0,0,512.01,602.93Zm-5.879,7.143c.018.063.038.127.059.19-.1-.095-.19-.192-.287-.286.038.011.077.024.114.037a.687.687,0,0,1,.114.058Zm-.466-.312c-.568-.493-1.225-.875-1.806-1.352.312.157.624.339.936.514q.545.312,1.1.6a.9.9,0,0,1-.229.237Zm.242-1.241.027-.028v.194c-.051-.017-.1-.033-.153-.052a1.294,1.294,0,0,0,.127-.119Zm-5,1.335a4.71,4.71,0,0,0,.606-.864,5.66,5.66,0,0,0,.9,1.007c-.5-.071-1-.126-1.507-.148Z" transform="translate(-441.992 -548.352)"/><path class="i" d="M574.53,545.12l.359.073,1.222,1.8-.54.073Z" transform="translate(-514.801 -488.41)"/><path class="j" d="M519.48,733.49a7.113,7.113,0,0,0,.357.936,8.641,8.641,0,0,0,1.191-.34,3.235,3.235,0,0,0-.247-.336,1.167,1.167,0,0,0-.337-.259.918.918,0,0,0-.409-.006Q519.758,733.5,519.48,733.49Z" transform="translate(-468.437 -669.455)"/><path class="i" d="M494.009,729.579a.748.748,0,0,1-.408-.464,1.507,1.507,0,0,0-.3-.555.182.182,0,0,0-.137.1c-.03.052-.048.111-.082.161-.064.094-.179.139-.261.219s-.133.2-.221.282a.881.881,0,0,1-.416.16,2.636,2.636,0,0,0-.651.241,1.113,1.113,0,0,1-.241.1.915.915,0,0,1-.282.009l-.648-.047a.5.5,0,0,0-.173.008.312.312,0,0,0-.208.324.5.5,0,0,0,.208.348,1.38,1.38,0,0,0,.368.187,11.093,11.093,0,0,0,1.736.5v.128a3.006,3.006,0,0,0,1.321.312.208.208,0,0,0,.1-.018.216.216,0,0,0,.083-.127,5.113,5.113,0,0,0,.269-1.408,1.056,1.056,0,0,0-.027-.362c-.035-.116.085-.068-.027-.113" transform="translate(-442.001 -665.061)"/><path class="i" d="M538.376,710.462c-1.92.116-3.816-.447-5.74-.507a2.872,2.872,0,0,0-.713.046,3.508,3.508,0,0,0-.707.274c-1.03.479-2.1.876-3.162,1.274l-1.223.455a1.9,1.9,0,0,1-.759.167c-.116-.007-.259-.025-.325.073a1.2,1.2,0,0,0,.027,1.058c.043.1.114.224.229.236a.676.676,0,0,0,.234-.059c.222-.059.445.09.674.114a1.879,1.879,0,0,0,.814-.23,7.588,7.588,0,0,1,1.393-.236,6.225,6.225,0,0,0,2.183-.907,2.563,2.563,0,0,1,.815-.383,2.231,2.231,0,0,1,1.024.115,23.614,23.614,0,0,1,2.346.8,10.81,10.81,0,0,0,1.227.447,4.435,4.435,0,0,0,2.749-.16c.312-.122.64-.336.658-.667.01-.189-.136-.356-.234-.52-.063-.1-.126-.208-.194-.307C539.36,711.064,538.959,710.426,538.376,710.462Z" transform="translate(-473.95 -648.385)"/><path class="d" d="M538.376,710.462c-1.92.116-3.816-.447-5.74-.507a2.872,2.872,0,0,0-.713.046,3.508,3.508,0,0,0-.707.274c-1.03.479-2.1.876-3.162,1.274l-1.223.455a1.9,1.9,0,0,1-.759.167c-.116-.007-.259-.025-.325.073a1.2,1.2,0,0,0,.027,1.058c.043.1.114.224.229.236a.676.676,0,0,0,.234-.059c.222-.059.445.09.674.114a1.879,1.879,0,0,0,.814-.23,7.588,7.588,0,0,1,1.393-.236,6.225,6.225,0,0,0,2.183-.907,2.563,2.563,0,0,1,.815-.383,2.231,2.231,0,0,1,1.024.115,23.614,23.614,0,0,1,2.346.8,10.81,10.81,0,0,0,1.227.447,4.435,4.435,0,0,0,2.749-.16c.312-.122.64-.336.658-.667.01-.189-.136-.356-.234-.52-.063-.1-.126-.208-.194-.307C539.36,711.064,538.959,710.426,538.376,710.462Z" transform="translate(-473.95 -648.385)"/><path class="j" d="M554.93,727.743q.451.153.909.283c.172-.282.492-.477.565-.8a.076.076,0,0,0,0-.043.077.077,0,0,0-.034-.031,1.7,1.7,0,0,0-.712-.208c-.2-.012-.287.193-.376.338C555.249,727.341,555.01,727.77,554.93,727.743Z" transform="translate(-500.202 -663.614)"/><path class="i" d="M533.424,728.687a.654.654,0,0,1-.442-.29c-.043-.074-.087-.174-.173-.168s-.114.1-.132.177a5.046,5.046,0,0,1-.248.854,1.6,1.6,0,0,1-.531.7c-.111.077-.235.135-.344.216a2.276,2.276,0,0,1-.291.22,1.638,1.638,0,0,1-.224.083,1.536,1.536,0,0,0-.319.155.649.649,0,0,0-.217.208.28.28,0,0,0,.189.438.941.941,0,0,0,.265.006c.35-.026.7-.057,1.049-.088a2.99,2.99,0,0,0,.44-.06c.077-.019.152-.044.228-.063a1.927,1.927,0,0,1,.4-.058.339.339,0,0,1,.116.011c.081.026.138.1.221.123a.343.343,0,0,0,.158-.021,3.746,3.746,0,0,1,.778-.081c.114-.006.25-.028.3-.131.065-.128-.043-.271-.086-.409a1.283,1.283,0,0,1-.036-.268,1.634,1.634,0,0,0-.192-.637c-.089-.164-.208-.345-.149-.52a.455.455,0,0,0,.059-.178C534.229,728.62,533.582,728.724,533.424,728.687Z" transform="translate(-478.272 -664.764)"/><path class="j" d="M606.531,670.707a1.505,1.505,0,0,1-.765-.76c-.031-.073-.058-.149-.088-.222a1.7,1.7,0,0,0-.457-.634.219.219,0,0,0-.169-.072.181.181,0,0,0-.125.133.545.545,0,0,0-.013.208,3.924,3.924,0,0,0,.083.479l.094.424a.833.833,0,0,0,.058.189.659.659,0,0,0,.156.186c.085.079.172.155.259.229a.919.919,0,0,0,.157.114.962.962,0,0,0,.292.085,2.519,2.519,0,0,1,1.091.416s0-.284-.007-.312a.415.415,0,0,0-.081-.228A1.373,1.373,0,0,0,606.531,670.707Z" transform="translate(-544.983 -611.71)"/><path class="d" d="M606.531,670.707a1.505,1.505,0,0,1-.765-.76c-.031-.073-.058-.149-.088-.222a1.7,1.7,0,0,0-.457-.634.219.219,0,0,0-.169-.072.181.181,0,0,0-.125.133.545.545,0,0,0-.013.208,3.924,3.924,0,0,0,.083.479l.094.424a.833.833,0,0,0,.058.189.659.659,0,0,0,.156.186c.085.079.172.155.259.229a.919.919,0,0,0,.157.114.962.962,0,0,0,.292.085,2.519,2.519,0,0,1,1.091.416s0-.284-.007-.312a.415.415,0,0,0-.081-.228A1.373,1.373,0,0,0,606.531,670.707Z" transform="translate(-544.983 -611.71)"/><ellipse class="i" cx="0.467" cy="0.47" rx="0.467" ry="0.47" transform="translate(64.989 54.814)"/><path class="i" d="M627.446,646.7a.52.52,0,0,0-.369.053.5.5,0,0,0-.126.173,2.451,2.451,0,0,0-.243.572c-.042.172-.049.35-.1.52-.1.312-.341.577-.369.9-.013.146.011.317-.095.416a.617.617,0,0,1-.084.059.638.638,0,0,0-.184.189.6.6,0,0,1-.13.18c-.1.071-.253.063-.3.173s.074.236.046.354c-.023.1-.131.141-.208.208a.72.72,0,0,0-.178.332,1.1,1.1,0,0,1-.893-.224,2.816,2.816,0,0,1,.138,1.022.422.422,0,0,1-.082.312,5.28,5.28,0,0,1,1.1.19.753.753,0,0,0,.478,0,.79.79,0,0,0,.219-.175,1.392,1.392,0,0,0,.452-.7,3.787,3.787,0,0,0,.008-.473,2.711,2.711,0,0,1,.12-.573,6.7,6.7,0,0,0,.208-1.18c.022-.246.234-.444.346-.664a3.282,3.282,0,0,0,.443-1.313C627.652,646.9,627.6,646.718,627.446,646.7Z" transform="translate(-562.279 -591.698)"/><path class="d" d="M627.446,646.7a.52.52,0,0,0-.369.053.5.5,0,0,0-.126.173,2.451,2.451,0,0,0-.243.572c-.042.172-.049.35-.1.52-.1.312-.341.577-.369.9-.013.146.011.317-.095.416a.617.617,0,0,1-.084.059.638.638,0,0,0-.184.189.6.6,0,0,1-.13.18c-.1.071-.253.063-.3.173s.074.236.046.354c-.023.1-.131.141-.208.208a.72.72,0,0,0-.178.332,1.1,1.1,0,0,1-.893-.224,2.816,2.816,0,0,1,.138,1.022.422.422,0,0,1-.082.312,5.28,5.28,0,0,1,1.1.19.753.753,0,0,0,.478,0,.79.79,0,0,0,.219-.175,1.392,1.392,0,0,0,.452-.7,3.787,3.787,0,0,0,.008-.473,2.711,2.711,0,0,1,.12-.573,6.7,6.7,0,0,0,.208-1.18c.022-.246.234-.444.346-.664a3.282,3.282,0,0,0,.443-1.313C627.652,646.9,627.6,646.718,627.446,646.7Z" transform="translate(-562.279 -591.698)"/><path class="i" d="M568.455,684.716a4.307,4.307,0,0,1-1.016-.848c-.618-.58-1.372-.99-2.021-1.533a12.967,12.967,0,0,0-1.287-1.08,3.2,3.2,0,0,0-1.378-.483.383.383,0,0,0-.168.008.4.4,0,0,0-.157.125,4.9,4.9,0,0,0-.556.764,45.349,45.349,0,0,1-2.958,3.867.174.174,0,0,0-.011.235l.2.386c.11.215.287.467.52.424a.577.577,0,0,0,.276-.176l.884-.845.926-.886a7.148,7.148,0,0,0,1.449-1.713,12.833,12.833,0,0,0,1.1,1.233c.128.166.232.35.346.527.184.284.392.55.6.815l1.064,1.357a2.058,2.058,0,0,0,.492.5,1.887,1.887,0,0,0,.855.228,11,11,0,0,0,1.2.044,2.061,2.061,0,0,0,.894-.161.823.823,0,0,0,.485-.72,1.07,1.07,0,0,0-.153-.45A3.549,3.549,0,0,0,568.455,684.716Z" transform="translate(-503.725 -622.235)"/><ellipse class="k" cx="0.359" cy="0.361" rx="0.359" ry="0.361" transform="translate(65.385 55.249)"/><path class="j" d="M655.882,640.347a.686.686,0,0,1,.039.52,2.011,2.011,0,0,1-.231.478,2.381,2.381,0,0,1-.3.428,3.081,3.081,0,0,0,1.58-.454,2.269,2.269,0,0,0,1-.869.461.461,0,0,1-.367-.068,1.372,1.372,0,0,1-.282-.262l-.278-.312a1.251,1.251,0,0,1-.172-.226.624.624,0,0,1-.074-.363,2.08,2.08,0,0,1-.368.306c-.2.13-.416.224-.617.351-.071.046-.228.12-.187.208S655.826,640.247,655.882,640.347Z" transform="translate(-590.218 -585.009)"/><path class="d" d="M655.882,640.347a.686.686,0,0,1,.039.52,2.011,2.011,0,0,1-.231.478,2.381,2.381,0,0,1-.3.428,3.081,3.081,0,0,0,1.58-.454,2.269,2.269,0,0,0,1-.869.461.461,0,0,1-.367-.068,1.372,1.372,0,0,1-.282-.262l-.278-.312a1.251,1.251,0,0,1-.172-.226.624.624,0,0,1-.074-.363,2.08,2.08,0,0,1-.368.306c-.2.13-.416.224-.617.351-.071.046-.228.12-.187.208S655.826,640.247,655.882,640.347Z" transform="translate(-590.218 -585.009)"/><path class="k" d="M641.284,650.052a.469.469,0,0,0,0,.542c.016.02.075.143.1.144a.1.1,0,0,0,.063-.032,4.409,4.409,0,0,0,.351-.416.775.775,0,0,1,.447-.293.978.978,0,0,1,.616.191.588.588,0,0,1,.208.173.567.567,0,0,1,.07.235,11,11,0,0,1,.062,1.493,5.74,5.74,0,0,1-.071,1.074c-.035.183-.088.362-.113.547a3.671,3.671,0,0,0-.022.491v.686a1.738,1.738,0,0,0,.027.375,4.589,4.589,0,0,0,.151.436,2.867,2.867,0,0,1,.1.52l.094.71a.867.867,0,0,1-.084.649c-.06.082-.141.147-.208.228-.234.3-.156.729-.26,1.1a1.39,1.39,0,0,1-.451.691.73.73,0,0,1-.594.208.814.814,0,0,1-.541-.638,2.479,2.479,0,0,0-.278-.832,2.194,2.194,0,0,0-.549-.46.952.952,0,0,1-.428-.557c-.019-.1-.007-.208-.018-.312a.743.743,0,0,0-.459-.6c-.148-.057-.331-.078-.416-.208a1,1,0,0,0,.432-.581,2.986,2.986,0,0,0,.1-.728l.05-.825a2.734,2.734,0,0,1,.194-1.067c.073-.148.163-.287.238-.434a4.808,4.808,0,0,0,.256-.636c.117-.338.236-.677.341-1.019a2.017,2.017,0,0,1,.187-.475C640.989,650.271,641.117,650.083,641.284,650.052Z" transform="translate(-575.612 -594.66)"/><path class="i" d="M642.36,654.2l.218.007.047-.33a.712.712,0,0,1,.046-.192,1.224,1.224,0,0,1,.126-.184,2.388,2.388,0,0,0,.253-1.076,5.348,5.348,0,0,1,.48-1.407l.424-.945a1.361,1.361,0,0,0,.09-.242,1.328,1.328,0,0,0,.026-.28c0-.146.048-.677.051-.823,0-.054-.119-.024-.143-.072-.053-.1-.126.179-.226.241a.553.553,0,0,0-.2.286c-.091.238-.148.489-.233.728a1.5,1.5,0,0,1-.4.643c-.086.077-.187.137-.269.218a1.473,1.473,0,0,0-.3,1.04C642.354,652.038,642.312,654.2,642.36,654.2Z" transform="translate(-578.522 -593.442)"/><path class="i" d="M655.635,646.582a.756.756,0,0,0-.388.534,2.614,2.614,0,0,1-.2.655c-.266.464-.945.6-1.133,1.1a2.013,2.013,0,0,0-.076.52c-.033.359-.152.706-.187,1.065a4.693,4.693,0,0,0,.02.837l.238,2.831a3.743,3.743,0,0,1-.072,1.248,1.2,1.2,0,0,0,.713-.117c.224-.1.427-.241.641-.36a6.516,6.516,0,0,0,1.1-.624.652.652,0,0,0,.149-.163,1.407,1.407,0,0,0,.1-.373,2.1,2.1,0,0,1,.1-.293,8.694,8.694,0,0,0,.312-.873,4.7,4.7,0,0,0,.142-.6c.026-.161.039-.324.054-.487a2.868,2.868,0,0,1,.151-.749,6,6,0,0,0,.346-1.793.9.9,0,0,0-.018-.264,1.419,1.419,0,0,0-.143-.3c-.1-.186-.158-.391-.252-.579a2.818,2.818,0,0,0-.971-1.021C656.071,646.643,655.852,646.5,655.635,646.582Z" transform="translate(-588.652 -591.584)"/><path class="j" d="M602.81,683.033a1.706,1.706,0,0,1-.452-.343c-.059-.07-.1-.148-.168-.216a1.111,1.111,0,0,0-.569-.324,2.744,2.744,0,0,0-.659-.063,1.171,1.171,0,0,0-.438.053.442.442,0,0,0-.291.312.513.513,0,0,0,.221.461,1.07,1.07,0,0,0,.442.215,3.656,3.656,0,0,0,.4.047,5.8,5.8,0,0,1,2.176.9q.908.513,1.851.96a3.707,3.707,0,0,0,.031-.568c0-.141-.01-.358-.145-.441a2.962,2.962,0,0,0-.588-.178,9.336,9.336,0,0,1-1.184-.478C603.219,683.263,603.011,683.152,602.81,683.033Z" transform="translate(-540.79 -623.416)"/><ellipse class="j" cx="1.4" cy="1.409" rx="1.4" ry="1.409" transform="translate(64.056 52.36)"/><path class="i" d="M646.938,660.607a2.274,2.274,0,0,0-.271.506,10.814,10.814,0,0,0-.58,1.04c-.143.392-.138.859-.416,1.167a.4.4,0,0,0-.122.177.874.874,0,0,1-.015.128c-.039.112-.224.117-.258.232-.009.033,0,.07-.017.1-.028.074-.125.084-.19.129-.136.093-.1.307-.208.44a.369.369,0,0,1-.349.123,1.3,1.3,0,0,1-.364-.136.326.326,0,0,0-.13-.041.265.265,0,0,0-.151.051.931.931,0,0,0-.378.8,2.6,2.6,0,0,0,.215.892.376.376,0,0,0,.072.133.312.312,0,0,0,.349.025,1.628,1.628,0,0,1,.34-.152c.216-.039.428.11.648.1a.913.913,0,0,0,.438-.193,2.421,2.421,0,0,0,.59-.5c.1-.126.166-.269.251-.4a4.573,4.573,0,0,1,.354-.472l.808-.989a2.126,2.126,0,0,0,.217-.3,2.2,2.2,0,0,0,.169-.451,3.568,3.568,0,0,0,.167-.8,3.209,3.209,0,0,0-.059-.675,2.344,2.344,0,0,0-.174-.641C647.7,660.523,647.268,660.222,646.938,660.607Z" transform="translate(-579.555 -604.012)"/><path class="l" d="M642.948,605.148a1.577,1.577,0,0,0-.649-1.282,1.871,1.871,0,0,0-1.592-1.825,1.819,1.819,0,0,0-3.584.1c-.582-.131-1.115.039-1.211.4-.1.375.312.814.927.98a1.7,1.7,0,0,0,.594.059,1.824,1.824,0,0,0,1.254.78,1.864,1.864,0,0,0,1.367,1.411,1.559,1.559,0,0,0,.422.584c0,.044-.007.088-.007.134a1.186,1.186,0,1,0,2.37,0,1.248,1.248,0,0,0-.113-.52A1.594,1.594,0,0,0,642.948,605.148Z" transform="translate(-572.751 -550.387)"/><path class="d" d="M636.272,602.534c.1-.359.624-.529,1.211-.4a1.849,1.849,0,0,1,1.8-1.559h.121a1.767,1.767,0,0,0-.52-.077,1.849,1.849,0,0,0-1.8,1.559c-.582-.131-1.115.039-1.211.4-.1.375.312.814.927.98a1.78,1.78,0,0,0,.35.06C636.566,603.328,636.173,602.9,636.272,602.534Z" transform="translate(-572.715 -550.314)"/><path class="d" d="M654.5,632.9a.837.837,0,0,1,.007-.135,1.553,1.553,0,0,1-.422-.583,1.871,1.871,0,0,1-1.367-1.412,1.821,1.821,0,0,1-1.254-.78,1.655,1.655,0,0,1-.349-.009,1.818,1.818,0,0,0,1.208.717,1.864,1.864,0,0,0,1.367,1.411,1.56,1.56,0,0,0,.422.584c0,.044-.007.088-.007.134a1.207,1.207,0,0,0,1.179,1.227A1.225,1.225,0,0,1,654.5,632.9Z" transform="translate(-586.391 -576.729)"/><ellipse class="j" cx="0.216" cy="0.288" rx="0.216" ry="0.288" transform="translate(65.577 53.956) rotate(-37.22)"/></g></svg>