<svg xmlns="http://www.w3.org/2000/svg" width="131.314" height="102.199" viewBox="0 0 131.314 102.199"><defs><style>.a{fill:#3f3d56;}.b{fill:#d0cde1;}.c{fill:#2f2e41;}.d{fill:#a0616a;}.e{opacity:0.15;}.f{opacity:0.1;}.g{fill:#0db2b9;}</style></defs><g transform="translate(0 0)"><path class="a" d="M964.333,666.131a10.76,10.76,0,0,1,6.92-12.834l.184-.069.044.192a10.76,10.76,0,0,1-6.92,12.834l-.185.069Zm6.852-12.434a10.377,10.377,0,0,0-6.555,12.157,10.378,10.378,0,0,0,6.556-12.157Z" transform="translate(-848.638 -571.087)"/><path class="b" d="M970.719,691.063a12.3,12.3,0,0,0-4.7,6.1,10.589,10.589,0,0,0,12.3-7.4A12.3,12.3,0,0,0,970.719,691.063Z" transform="translate(-850.275 -602.191)"/><path class="a" d="M266.706,165.572c-.4,0-.812-.006-1.212-.019l.009-.291c.575.018,1.162.023,1.74.015l0,.291Q266.977,165.572,266.706,165.572ZM269,165.5l-.017-.291c.576-.034,1.159-.082,1.734-.142l.03.289c-.579.061-1.167.109-1.747.143Zm-5.255-.045c-.581-.044-1.168-.1-1.744-.174l.036-.289c.572.07,1.155.128,1.731.172Zm8.741-.32-.044-.288c.572-.087,1.149-.188,1.713-.3l.057.285c-.569.113-1.15.215-1.727.3Zm-12.219-.106c-.574-.1-1.153-.209-1.721-.332l.062-.285c.564.123,1.139.233,1.708.33Zm15.657-.577-.07-.283c.562-.139,1.127-.292,1.679-.456l.083.279c-.557.165-1.126.32-1.692.46Zm-19.082-.167c-.563-.15-1.129-.314-1.683-.49l.088-.278c.55.174,1.112.337,1.67.486Zm22.443-.83-.1-.275c.545-.19,1.093-.394,1.63-.609l.108.27c-.54.216-1.093.423-1.642.614Zm-25.789-.228c-.547-.2-1.1-.418-1.635-.644l.113-.268c.534.225,1.08.44,1.622.639Zm29.04-1.073-.121-.265c.523-.238,1.05-.492,1.564-.755l.132.259c-.518.265-1.048.521-1.576.76Zm3.115-1.592-.144-.253c.5-.286,1-.588,1.489-.9l.156.246c-.49.31-.995.613-1.5.9Zm2.959-1.872-.167-.239c.473-.33.944-.676,1.4-1.028l.177.231c-.461.354-.936.7-1.413,1.036Zm-44.377-.41c-.47-.341-.939-.7-1.4-1.063l.182-.227c.453.361.918.716,1.385,1.055Zm47.154-1.725-.188-.223c.441-.372.879-.759,1.3-1.152l.2.214c-.427.4-.869.786-1.313,1.16Zm-49.895-.464c-.438-.383-.872-.782-1.292-1.185l.2-.21c.417.4.848.8,1.283,1.176Zm52.468-1.916-.207-.2c.406-.412.808-.838,1.194-1.266l.216.195c-.389.432-.794.861-1.2,1.275Zm-55-.511c-.4-.422-.8-.859-1.179-1.3l.22-.191c.378.435.771.868,1.17,1.287Zm57.344-2.093-.225-.185c.367-.447.728-.907,1.074-1.37l.233.174C297.038,150.661,296.674,151.125,296.3,151.575Zm-59.641-.553c-.361-.456-.716-.926-1.055-1.4l.236-.17c.337.468.69.935,1.047,1.388Zm61.741-2.256-.241-.163c.325-.478.643-.97.945-1.463l.248.152C299.052,147.789,298.731,148.284,298.4,148.766Zm-63.787-.587c-.317-.486-.628-.987-.923-1.488l.251-.148c.293.5.6.994.916,1.476Zm65.623-2.4-.255-.141c.28-.506.551-1.025.807-1.544l.261.129c-.258.523-.532,1.046-.814,1.556Zm1.555-3.148-.267-.117c.232-.53.455-1.073.662-1.613l.272.1c-.209.544-.434,1.091-.667,1.625ZM231.349,142c-.223-.536-.437-1.084-.635-1.629l.274-.1c.2.541.409,1.085.63,1.617Zm71.706-2.652-.276-.092c.182-.548.353-1.107.51-1.663l.28.079c-.158.56-.331,1.124-.514,1.676Zm-72.9-.638c-.173-.555-.336-1.122-.484-1.685l.282-.074c.147.559.308,1.122.48,1.672ZM304,135.974l-.284-.066c.13-.561.25-1.134.354-1.7l.286.053C304.255,134.831,304.135,135.408,304,135.974Zm-74.741-.654c-.121-.569-.231-1.148-.327-1.722l.287-.048c.095.57.2,1.145.324,1.709Zm75.375-2.793-.289-.04c.078-.57.144-1.152.2-1.728l.29.026C304.784,131.366,304.717,131.952,304.638,132.527Zm-75.949-.665c-.069-.576-.125-1.163-.168-1.745l.29-.021c.042.577.1,1.16.166,1.732Zm76.266-2.826-.291-.013c.026-.577.039-1.162.039-1.739h.291C304.994,127.866,304.981,128.455,304.955,129.036Zm-76.521-.67c-.01-.357-.015-.721-.015-1.082q0-.336.006-.671l.291.005q-.006.332-.006.666c0,.358.005.72.015,1.074Zm.351-3.486-.291-.018c.036-.582.087-1.169.149-1.746l.289.031c-.062.573-.112,1.156-.148,1.733Zm75.731-1.776c-.058-.574-.138-.854-.223-1.425l.288-.043c.085.576.158,1.015.217,1.594Zm-75.356-1.682-.288-.045c.089-.576.193-1.157.308-1.726l.285.058c-.114.565-.217,1.141-.306,1.712ZM304,119.964c-.111-.568-.236-1.14-.372-1.7l.283-.069c.137.564.263,1.14.375,1.712Zm-74.15-1.951-.282-.071c.141-.564.3-1.133.465-1.69l.279.084C230.144,116.889,229.989,117.454,229.849,118.013Zm73.327-1.429c-.162-.554-.34-1.112-.527-1.658l.275-.095c.189.55.368,1.112.532,1.67Zm-72.325-1.907-.275-.1c.193-.55.4-1.1.621-1.644l.27.109c-.217.536-.424,1.085-.616,1.631Zm71.194-1.382c-.212-.536-.44-1.074-.676-1.6l.266-.12c.238.529.467,1.071.681,1.611Zm-69.887-1.849-.265-.122c.243-.53.5-1.061.769-1.578l.259.133C232.656,110.393,232.4,110.92,232.158,111.446Zm68.462-1.315c-.261-.514-.537-1.029-.821-1.531l.253-.143c.286.506.564,1.025.827,1.543Zm-66.864-1.78-.252-.145c.29-.5.6-1.009.91-1.5l.245.157C234.348,107.349,234.044,107.85,233.756,108.35Zm65.154-1.243c-.308-.49-.63-.978-.957-1.45l.239-.166c.33.476.655.968.965,1.461Zm-63.28-1.692-.238-.168c.336-.476.687-.951,1.043-1.41l.23.178C236.311,104.472,235.963,104.943,235.63,105.415Zm61.3-1.164c-.351-.46-.716-.916-1.086-1.358l.223-.187c.373.445.741.905,1.095,1.368Zm-59.166-1.587-.222-.189c.377-.442.769-.883,1.167-1.309l.213.2C238.527,101.789,238.137,102.226,237.763,102.665Zm56.933-1.078c-.391-.426-.8-.848-1.206-1.254l.205-.207c.412.41.821.835,1.215,1.264Zm-54.559-1.465-.2-.208c.416-.407.847-.81,1.28-1.2l.194.217c-.43.384-.857.784-1.271,1.188Zm52.092-.987c-.429-.389-.871-.772-1.315-1.14l.186-.224c.447.37.893.757,1.325,1.148Zm-49.5-1.329-.184-.226c.45-.367.916-.728,1.383-1.075l.173.234c-.464.344-.926.7-1.373,1.067Zm2.793-2.07-.163-.242c.482-.324.978-.642,1.475-.944l.151.249c-.493.3-.985.615-1.463.937Zm2.968-1.805-.14-.255c.51-.279,1.033-.55,1.554-.8l.128.262C249.516,93.384,249,93.653,248.491,93.93Zm35.139-.675c-.518-.258-1.049-.507-1.577-.741l.118-.266c.533.235,1.068.487,1.59.747ZM251.61,92.4l-.116-.267c.533-.231,1.078-.452,1.62-.658l.1.272C252.68,91.956,252.139,92.175,251.61,92.4Zm28.833-.558c-.539-.209-1.091-.409-1.64-.593l.093-.276c.553.186,1.109.387,1.653.6Zm-25.585-.675-.091-.277c.553-.181,1.118-.352,1.678-.508l.078.281c-.556.154-1.116.324-1.665.5Zm22.283-.433c-.555-.158-1.122-.306-1.683-.438l.067-.283c.566.133,1.137.282,1.7.441Zm-18.932-.5-.065-.284c.567-.13,1.145-.248,1.717-.351l.052.286C259.346,90,258.772,90.113,258.209,90.241Zm15.546-.3c-.567-.106-1.144-.2-1.717-.281l.04-.288c.577.081,1.159.176,1.73.284Zm-12.123-.317-.038-.289c.576-.077,1.163-.142,1.742-.192l.025.29C262.786,89.483,262.2,89.547,261.632,89.623Zm8.679-.167c-.574-.054-1.157-.1-1.735-.124l.014-.291c.582.028,1.17.07,1.748.125Zm-5.214-.135-.012-.291c.535-.022,1.08-.034,1.621-.034h.132v.291h-.131c-.537,0-1.078.011-1.609.034Z" transform="translate(-220.06 -88.996)"/><rect class="a" width="106.711" height="0.291" transform="translate(24.603 94.962)"/><path class="c" d="M635.2,405l1.456,22.565s3.494,8.88,3.348,17.324c0,0-1.31,3.348-.291,3.931s1.6,1.019,1.019,1.456-1.019,1.456-.582,1.747.582.728.437.728h-4.367s.874-2.184-.437-2.766-.582-2.038-.582-2.038l-9.754-28.534-7.716,26.2s1.31.873.291,1.31-1.456-.437-1.019.437a1.355,1.355,0,0,1-.146,1.456c0,.146-4.367-.437-4.367-.437s2.184-1.893,1.165-2.329-1.456-.873-1.165-1.165a27.579,27.579,0,0,0,1.456-3.057s.582-10.482.728-10.919a27.544,27.544,0,0,0,0-3.494c0-1.019-.146-5.1.291-6.114s.873-13.539,3.2-14.995S635.2,405,635.2,405Z" transform="translate(-548.143 -358.99)"/><path class="c" d="M574.5,699.075s2.912,5.969.874,6.7-4.659.146-5.241,1.019-6.988,1.893-7.134-.291,6.988-6.26,6.988-6.26l.929-1.5Z" transform="translate(-505.929 -609.975)"/><path class="c" d="M736.5,729.075s2.912,5.969.873,6.7-4.659.146-5.241,1.019-6.988,1.893-7.133-.291,6.988-6.26,6.988-6.26l.929-1.5Z" transform="translate(-644.345 -635.608)"/><circle class="d" cx="4.804" cy="4.804" r="4.804" transform="translate(73.884 8.957)"/><path class="d" d="M527.125,112.025l-.582,4.222-4.367,3.348-1.165-1.6v-5.532Z" transform="translate(-445.162 -95.716)"/><path class="a" d="M653.689,231.186s4.513.437,6.842-1.165l4.659,27.515s-16.451,1.31-17.179.437v-8.589l2.912-13.976Z" transform="translate(-578.567 -209.49)"/><path class="b" d="M706.162,220.985l1.566,1.316s6.406,1.019,5.969,2.766l-1.747,20.673.582,6.988s-4.95-1.31-8.735,0-.778-28.156-.778-28.156S706.489,221.416,706.162,220.985Z" transform="translate(-624.599 -201.77)"/><path class="b" d="M646.727,231.931s-4.659,3.362-5.241,5.545-2.475,25.186-2.475,25.186.874-.437,1.31.291S647.455,233.082,646.727,231.931Z" transform="translate(-570.878 -211.122)"/><path class="c" d="M676.38,138.209a2.3,2.3,0,0,1-.32-1.62,4.908,4.908,0,0,0,.14-1.46,14.457,14.457,0,0,1,.84-2.12c.42-.76.22-1.08,1.54-1.32s.78-1.96,4.261-.1a1.021,1.021,0,0,0,1.06.4c.72-.14.98.86.98.86s.48-.28.66.12,1.464-.24,1.464,2.46a11.181,11.181,0,0,1-1.461,5.113s.107-4.542-2.273-5-4.941-1.8-5.561-.08A13.118,13.118,0,0,1,676.38,138.209Z" transform="translate(-602.494 -124.657)"/><ellipse class="d" cx="0.47" cy="0.626" rx="0.47" ry="0.626" transform="translate(82.633 13.38)"/><path class="b" d="M588.289,490.836a5.24,5.24,0,0,0-3.069-.587,4.525,4.525,0,0,0,5.026,3.024A5.244,5.244,0,0,0,588.289,490.836Z" transform="translate(-524.918 -431.81)"/><path class="b" d="M591.72,588.87h-7.2a1.62,1.62,0,0,0,0,3.24h7.2a1.62,1.62,0,0,0,0-3.24Z" transform="translate(-522.936 -516.098)"/><path class="b" d="M609.534,471.412H569.167a3.576,3.576,0,0,0-3.576,3.576v19.668a3.576,3.576,0,0,0,3.576,3.576h40.367a3.576,3.576,0,0,0,3.576-3.576V474.988a3.576,3.576,0,0,0-3.576-3.576Zm-41.366,2.439a4.935,4.935,0,0,1,5.726,3.445l.063.2-.2.036a5.389,5.389,0,0,1-.876.064,5.216,5.216,0,0,1-2.659-.67,5.648,5.648,0,0,1-2.191-2.839l-.063-.2Zm8.763,18.26h-7.2a1.98,1.98,0,0,1,0-3.96h7.2a1.98,1.98,0,1,1,0,3.96Zm32.759-.36a2.166,2.166,0,0,1-2.16,2.16h-5.4a2.166,2.166,0,0,1-2.16-2.16v-3.24a2.166,2.166,0,0,1,2.16-2.16h5.4a2.166,2.166,0,0,1,2.16,2.16Z" transform="translate(-508.146 -415.739)"/><path class="b" d="M810.9,606.8h-2.34a.63.63,0,1,0,0,1.26h2.34a.63.63,0,1,0,0-1.26Zm0,.9h-2.34a.27.27,0,1,1,0-.54h2.34a.27.27,0,1,1,0,.54Z" transform="translate(-715.201 -531.416)"/><path class="b" d="M840.569,606.8h-2.34a.63.63,0,1,0,0,1.26h2.34a.63.63,0,0,0,0-1.26Zm0,.9h-2.34a.27.27,0,0,1,0-.54h2.34a.27.27,0,1,1,0,.54Z" transform="translate(-740.554 -531.416)"/><path class="b" d="M810.9,595.67h-2.34a.63.63,0,0,0,0,1.26h2.34a.63.63,0,0,0,0-1.26Zm0,.9h-2.34a.27.27,0,0,1,0-.54h2.34a.27.27,0,0,1,0,.54Z" transform="translate(-715.201 -521.908)"/><path class="b" d="M840.569,595.67h-2.34a.63.63,0,0,0,0,1.26h2.34a.63.63,0,0,0,0-1.26Zm0,.9h-2.34a.27.27,0,0,1,0-.54h2.34a.27.27,0,0,1,0,.54Z" transform="translate(-740.554 -521.908)"/><path class="b" d="M810.9,584.542h-2.34a.63.63,0,1,0,0,1.26h2.34a.63.63,0,1,0,0-1.26Zm0,.9h-2.34a.27.27,0,1,1,0-.54h2.34a.27.27,0,1,1,0,.54Z" transform="translate(-715.201 -512.4)"/><path class="b" d="M840.569,584.542h-2.34a.63.63,0,1,0,0,1.26h2.34a.63.63,0,0,0,0-1.26Zm0,.9h-2.34a.27.27,0,0,1,0-.54h2.34a.27.27,0,1,1,0,.54Z" transform="translate(-740.554 -512.4)"/><path class="d" d="M744.03,435.04l-1.044,3.405s-.267,6.349-3.761,5.475,1.019-8.3,1.019-8.3l1.019-1.6Z" transform="translate(-655.369 -383.792)"/><path class="d" d="M608.03,435.04l-1.044,3.405s-.267,6.349-3.761,5.475,1.019-8.3,1.019-8.3l1.019-1.6Z" transform="translate(-539.168 -383.792)"/><path class="b" d="M757.068,241.842s2.329-.582,3.057,3.348,1.6,15.14,1.6,15.14l-3.494,11.792s-3.494-1.893-4.222-1.6l2.749-10.237-2.313-10.435S756.486,241.842,757.068,241.842Z" transform="translate(-669.136 -219.565)"/><path class="e" d="M580.747,209.393l3.057,10.191-3.057,10.336,1.747-10.336Z" transform="translate(-496.201 -178.909)"/><path class="b" d="M625.252,297.021l-5.241,20.673a20.576,20.576,0,0,1,3.784,1.64Z" transform="translate(-554.644 -266.736)"/><circle class="a" cx="14.558" cy="14.558" r="14.558" transform="translate(1.072 53.12)"/><circle class="f" cx="12.52" cy="12.52" r="12.52" transform="translate(3.11 55.158)"/><path class="g" d="M259.981,517.694v-1.822a4.232,4.232,0,0,1-2.43-.794l.381-1.209a3.884,3.884,0,0,0,2.287.776,1.752,1.752,0,0,0,1.89-1.768c0-.992-.619-1.606-1.795-2.147-1.62-.722-2.62-1.552-2.62-3.121a2.837,2.837,0,0,1,2.4-2.9v-1.822h.985v1.75a3.864,3.864,0,0,1,2.065.631l-.4,1.191a3.509,3.509,0,0,0-2-.614,1.525,1.525,0,0,0-1.683,1.552c0,.938.588,1.407,1.969,2.057,1.636.758,2.462,1.7,2.462,3.3a3.019,3.019,0,0,1-2.509,3.067v1.877Z" transform="translate(-244.951 -442.627)"/><path class="a" d="M202.009,736.783a105.108,105.108,0,0,1-31.009,0v-3.494a116.8,116.8,0,0,0,31.009,0Z" transform="translate(-171 -639.492)"/><path class="a" d="M202.009,699.783a105.112,105.112,0,0,1-31.009,0v-3.494a116.8,116.8,0,0,0,31.009,0Z" transform="translate(-171 -607.878)"/><path class="a" d="M202.009,662.783a105.116,105.116,0,0,1-31.009,0v-3.494a116.8,116.8,0,0,0,31.009,0Z" transform="translate(-171 -576.265)"/></g></svg>