<svg xmlns="http://www.w3.org/2000/svg" width="67.139" height="43.315" viewBox="0 0 67.139 43.315"><defs><style>.a{fill:#2dbdca;}.b{fill:#f2f2f6;}.c{fill:#fff;}.d{fill:#e1e1e6;}</style></defs><path class="a" d="M63.793,0H33.472L0,23.166V42.42H63.793l2.166-1.27V37.127l-1.41-1.34v-3.8l1.41-1.045V24.752l-1.268-1.214v-3.89l1.268-1.083V12.376l-1.268-1.121V7.845l1.268-1.657V2.166A2.166,2.166,0,0,0,63.793,0Z" transform="translate(1.18)"/><path class="b" d="M0,0H33.526V6.188H0Z" transform="translate(33.613 6.188)"/><path class="b" d="M0,0,1.083,6.188H33.569V0Z" transform="translate(33.569 18.564)"/><path class="a" d="M2.166,11.028V0L0,1.127V7.315L.918,8.1v4.065L0,13.5v4.022a2.166,2.166,0,0,0,2.166,2.166H64.973a2.166,2.166,0,0,0,2.166-2.166H8.663a6.5,6.5,0,0,1-6.5-6.5Z" transform="translate(0 23.625)"/><path class="a" d="M33.866,0H1.379L0,2.166,1.379,24.752H33.866Z" transform="translate(0.787)"/><path class="a" d="M2.166,0A2.166,2.166,0,0,0,0,2.166V24.752H2.166Z" transform="translate(0)"/><path class="c" d="M1.088,2.166A1.083,1.083,0,0,1,1.078,0h.011a1.083,1.083,0,1,1,0,2.166Z" transform="translate(3.254 2.662)"/><path class="c" d="M1.088,2.166A1.083,1.083,0,0,1,1.078,0h.011a1.083,1.083,0,1,1,0,2.166Z" transform="translate(3.254 11.325)"/><path class="c" d="M1.088,2.166A1.083,1.083,0,0,1,1.078,0h.011a1.083,1.083,0,1,1,0,2.166Z" transform="translate(3.254 19.988)"/><path class="b" d="M1.088,2.166A1.083,1.083,0,0,1,1.078,0h.011a1.083,1.083,0,1,1,0,2.166Z" transform="translate(3.254 6.994)"/><path class="b" d="M1.088,2.166A1.083,1.083,0,0,1,1.078,0h.011a1.083,1.083,0,1,1,0,2.166Z" transform="translate(3.254 15.657)"/><path class="c" d="M1.088,2.166A1.083,1.083,0,0,1,1.078,0h.011a1.083,1.083,0,1,1,0,2.166Z" transform="translate(29.243 2.662)"/><path class="c" d="M1.088,2.166A1.083,1.083,0,0,1,1.078,0h.011a1.083,1.083,0,1,1,0,2.166Z" transform="translate(29.243 11.325)"/><path class="c" d="M1.088,2.166A1.083,1.083,0,0,1,1.078,0h.011a1.083,1.083,0,1,1,0,2.166Z" transform="translate(29.243 19.988)"/><g transform="translate(9.751 2.662)"><path class="b" d="M1.088,2.166A1.083,1.083,0,0,1,1.078,0h.011a1.083,1.083,0,1,1,0,2.166Z" transform="translate(19.492 4.332)"/><path class="b" d="M1.088,2.166A1.083,1.083,0,0,1,1.078,0h.011a1.083,1.083,0,1,1,0,2.166Z" transform="translate(19.492 12.995)"/><path class="b" d="M1.088,2.166A1.083,1.083,0,0,1,1.078,0h.011a1.083,1.083,0,1,1,0,2.166Z"/><path class="b" d="M1.088,2.166A1.083,1.083,0,0,1,1.078,0h.011a1.083,1.083,0,1,1,0,2.166Z" transform="translate(0 8.663)"/><path class="b" d="M1.088,2.166A1.083,1.083,0,0,1,1.078,0h.011a1.083,1.083,0,1,1,0,2.166Z" transform="translate(0 17.326)"/></g><path class="c" d="M1.088,2.166A1.083,1.083,0,0,1,1.078,0h.011a1.083,1.083,0,1,1,0,2.166Z" transform="translate(9.751 6.994)"/><path class="c" d="M1.088,2.166A1.083,1.083,0,0,1,1.078,0h.011a1.083,1.083,0,1,1,0,2.166Z" transform="translate(9.751 15.657)"/><path class="c" d="M1.088,2.166A1.083,1.083,0,0,1,1.078,0h.011a1.083,1.083,0,1,1,0,2.166Z" transform="translate(6.503 4.828)"/><path class="c" d="M1.088,2.166A1.083,1.083,0,0,1,1.078,0h.011a1.083,1.083,0,1,1,0,2.166Z" transform="translate(6.503 13.491)"/><path class="b" d="M1.088,2.166A1.083,1.083,0,0,1,1.078,0h.011a1.083,1.083,0,1,1,0,2.166Z" transform="translate(6.503 9.16)"/><path class="b" d="M1.088,2.166A1.083,1.083,0,0,1,1.078,0h.011a1.083,1.083,0,1,1,0,2.166Z" transform="translate(6.503 17.823)"/><path class="c" d="M1.088,2.166A1.083,1.083,0,0,1,1.078,0h.011a1.083,1.083,0,1,1,0,2.166Z" transform="translate(16.249 2.662)"/><path class="c" d="M1.088,2.166A1.083,1.083,0,0,1,1.078,0h.011a1.083,1.083,0,1,1,0,2.166Z" transform="translate(16.249 11.325)"/><path class="c" d="M1.088,2.166A1.083,1.083,0,0,1,1.078,0h.011a1.083,1.083,0,1,1,0,2.166Z" transform="translate(16.249 19.988)"/><path class="b" d="M1.088,2.166A1.083,1.083,0,0,1,1.078,0h.011a1.083,1.083,0,1,1,0,2.166Z" transform="translate(16.249 6.994)"/><path class="b" d="M1.088,2.166A1.083,1.083,0,0,1,1.078,0h.011a1.083,1.083,0,1,1,0,2.166Z" transform="translate(16.249 15.657)"/><path class="b" d="M1.088,2.166A1.083,1.083,0,0,1,1.078,0h.011a1.083,1.083,0,1,1,0,2.166Z" transform="translate(13 4.828)"/><path class="b" d="M1.088,2.166A1.083,1.083,0,0,1,1.078,0h.011a1.083,1.083,0,1,1,0,2.166Z" transform="translate(13 13.491)"/><path class="c" d="M1.088,2.166A1.083,1.083,0,0,1,1.078,0h.011a1.083,1.083,0,1,1,0,2.166Z" transform="translate(13 9.16)"/><path class="c" d="M1.088,2.166A1.083,1.083,0,0,1,1.078,0h.011a1.083,1.083,0,1,1,0,2.166Z" transform="translate(13 17.823)"/><path class="b" d="M1.088,2.166A1.083,1.083,0,0,1,1.078,0h.011a1.083,1.083,0,1,1,0,2.166Z" transform="translate(22.735 2.662)"/><path class="b" d="M1.088,2.166A1.083,1.083,0,0,1,1.078,0h.011a1.083,1.083,0,1,1,0,2.166Z" transform="translate(22.735 11.325)"/><path class="b" d="M1.088,2.166A1.083,1.083,0,0,1,1.078,0h.011a1.083,1.083,0,1,1,0,2.166Z" transform="translate(22.735 19.988)"/><path class="c" d="M1.088,2.166A1.083,1.083,0,0,1,1.078,0h.011a1.083,1.083,0,1,1,0,2.166Z" transform="translate(22.735 6.994)"/><path class="c" d="M1.088,2.166A1.083,1.083,0,0,1,1.078,0h.011a1.083,1.083,0,1,1,0,2.166Z" transform="translate(22.735 15.657)"/><path class="c" d="M1.088,2.166A1.083,1.083,0,0,1,1.078,0h.011a1.083,1.083,0,1,1,0,2.166Z" transform="translate(19.487 4.828)"/><path class="c" d="M1.088,2.166A1.083,1.083,0,0,1,1.078,0h.011a1.083,1.083,0,1,1,0,2.166Z" transform="translate(19.487 13.491)"/><path class="b" d="M1.088,2.166A1.083,1.083,0,0,1,1.078,0h.011a1.083,1.083,0,1,1,0,2.166Z" transform="translate(19.487 9.16)"/><path class="b" d="M1.088,2.166A1.083,1.083,0,0,1,1.078,0h.011a1.083,1.083,0,1,1,0,2.166Z" transform="translate(19.487 17.823)"/><path class="b" d="M1.088,2.166A1.083,1.083,0,0,1,1.078,0h.011a1.083,1.083,0,1,1,0,2.166Z" transform="translate(25.995 4.828)"/><path class="b" d="M1.088,2.166A1.083,1.083,0,0,1,1.078,0h.011a1.083,1.083,0,1,1,0,2.166Z" transform="translate(25.995 13.491)"/><path class="c" d="M1.088,2.166A1.083,1.083,0,0,1,1.078,0h.011a1.083,1.083,0,1,1,0,2.166Z" transform="translate(25.995 9.16)"/><path class="c" d="M1.088,2.166A1.083,1.083,0,0,1,1.078,0h.011a1.083,1.083,0,1,1,0,2.166Z" transform="translate(25.995 17.823)"/><path class="b" d="M0,4.4,2.263,6.188H66.745V0H1.772Z" transform="translate(0.393 30.939)"/><path class="d" d="M0,0V6.188H2.657a6.474,6.474,0,0,1-.491-2.475V0H0Z" transform="translate(0 30.939)"/></svg>