<svg xmlns="http://www.w3.org/2000/svg" width="73.264" height="57.846" viewBox="0 0 73.264 57.846"><defs><style>.a{fill:#e5e5e5;}.b{fill:#2dbdca;}</style></defs><g transform="translate(0 -53.873)"><g transform="translate(0 53.873)"><g transform="translate(0 0)"><path class="a" d="M58.091,74.083a20.485,20.485,0,0,0-40.532-3.928h-.2a17.363,17.363,0,1,0,0,34.726H29.489a1.562,1.562,0,0,0,0-3.125H17.363a14.238,14.238,0,1,1,0-28.476c.418,0,.86.022,1.352.069A1.564,1.564,0,0,0,20.409,72a17.36,17.36,0,0,1,34.559,2.365c0,.345-.026.7-.053,1.077l-.012.16a1.563,1.563,0,0,0,1.715,1.665,12.465,12.465,0,0,1,1.246-.063,12.274,12.274,0,1,1,0,24.548H45.114a1.562,1.562,0,0,0,0,3.125H57.865a15.4,15.4,0,0,0,.226-30.8Z" transform="translate(0 -53.873)"/></g></g><g transform="translate(29.377 86.228)"><g transform="translate(0 0)"><path class="b" d="M220.628,285.716l-5.683-5.077a2.578,2.578,0,0,0-3.438,0l-5.683,5.077a1.563,1.563,0,1,0,2.082,2.331l3.758-3.357v19.222a1.562,1.562,0,1,0,3.125,0V284.689l3.758,3.357a1.562,1.562,0,1,0,2.082-2.331Z" transform="translate(-205.302 -279.982)"/></g></g></g></svg>