<svg xmlns="http://www.w3.org/2000/svg" width="122.829" height="97.101" viewBox="0 0 122.829 97.101"><defs><style>.a{fill:#f2f2f2;}.b{fill:none;stroke:#6e6e6e;stroke-miterlimit:10;}.c{fill:#f86b75;}.d{fill:#fad375;}.e{fill:#8bcc55;}.f{fill:#2dbdca;}</style></defs><g transform="translate(-43.852)"><rect class="a" width="75.166" height="49.438" transform="translate(62.513 29.002)"/><rect class="b" width="121.829" height="96.101" transform="translate(44.352 0.5)"/><line class="b" x2="122" transform="translate(44.453 5.5)"/><circle class="c" cx="1.261" cy="1.261" r="1.261" transform="translate(45.613 2.266)"/><circle class="d" cx="1.261" cy="1.261" r="1.261" transform="translate(49.144 2.266)"/><circle class="e" cx="1.261" cy="1.261" r="1.261" transform="translate(52.675 2.266)"/><circle class="b" cx="1.261" cy="1.261" r="1.261" transform="translate(46.117 1.509)"/><circle class="b" cx="1.261" cy="1.261" r="1.261" transform="translate(49.649 1.509)"/><circle class="b" cx="1.261" cy="1.261" r="1.261" transform="translate(53.18 1.509)"/><rect class="b" width="75.166" height="49.438" transform="translate(68.44 23.579)"/><rect class="f" width="13.873" height="3.784" transform="translate(128.472 83.863)"/><rect class="b" width="13.873" height="3.784" transform="translate(129.733 82.854)"/><path class="f" d="M702.971,290.509l-5.8-5.982a1.32,1.32,0,0,0-.97-.39h-.017a1.32,1.32,0,0,0-.97.39l-5.8,5.981a1.281,1.281,0,0,0,0,1.871,1.433,1.433,0,0,0,1.958,0l3.439-3.595v9.269a1.387,1.387,0,0,0,2.772,0v-9.269l3.439,3.595a1.433,1.433,0,0,0,1.958,0,1.281,1.281,0,0,0,0-1.871Z" transform="translate(-596.093 -238.037)"/></g></svg>