<svg xmlns="http://www.w3.org/2000/svg" width="16.457" height="18" viewBox="0 0 16.457 18"><defs><style>.a{fill:#cbccd0;stroke:#c7c7c7;}</style></defs><g transform="translate(-35.572 0.5)"><g transform="translate(36.073)"><path class="a" d="M140.943,9.16h.12a3.585,3.585,0,0,0,2.653-1.074c1.449-1.528,1.208-4.147,1.181-4.4A3.556,3.556,0,0,0,143.072.5a4.409,4.409,0,0,0-2.024-.5h-.064a4.425,4.425,0,0,0-2.024.482,3.561,3.561,0,0,0-1.847,3.207c-.026.25-.267,2.869,1.181,4.4A3.57,3.57,0,0,0,140.943,9.16Zm-2.826-5.383c0-.011,0-.021,0-.028a2.667,2.667,0,0,1,2.86-2.8h.045a2.677,2.677,0,0,1,2.86,2.8.064.064,0,0,0,0,.028c0,.025.267,2.419-.929,3.679a2.55,2.55,0,0,1-1.938.753h-.038a2.542,2.542,0,0,1-1.934-.753C137.857,6.2,138.113,3.8,138.117,3.777Z" transform="translate(-133.281)"/><path class="a" d="M51.527,263.622v-.011c0-.028,0-.056,0-.088a2.724,2.724,0,0,0-1.7-2.848l-.038-.011a11.194,11.194,0,0,1-3.123-1.331.53.53,0,0,0-.707.116.456.456,0,0,0,.124.662,12.083,12.083,0,0,0,3.435,1.468c.877.292.975,1.169,1,1.971a.662.662,0,0,0,0,.088,5.986,5.986,0,0,1-.079,1.088,14.6,14.6,0,0,1-6.633,1.443,14.684,14.684,0,0,1-6.637-1.447,5.667,5.667,0,0,1-.079-1.088c0-.028,0-.056,0-.088.026-.8.124-1.679,1-1.971a12.2,12.2,0,0,0,3.435-1.468.456.456,0,0,0,.124-.662.53.53,0,0,0-.707-.116,11.071,11.071,0,0,1-3.123,1.331l-.038.011a2.728,2.728,0,0,0-1.7,2.848.661.661,0,0,1,0,.088v.011a5.067,5.067,0,0,0,.192,1.595.46.46,0,0,0,.2.222,14.967,14.967,0,0,0,7.345,1.683,15.013,15.013,0,0,0,7.345-1.683.48.48,0,0,0,.2-.222A5.314,5.314,0,0,0,51.527,263.622Z" transform="translate(-36.073 -250.118)"/></g></g></svg>