<svg xmlns="http://www.w3.org/2000/svg" width="16.375" height="19.627" viewBox="0 0 16.375 19.627"><defs><style>.a{fill:#c1c1c1;}</style></defs><g transform="translate(0 0)"><path class="a" d="M91.759,9.455A4.574,4.574,0,0,0,95.1,8.07a4.575,4.575,0,0,0,1.385-3.342A4.575,4.575,0,0,0,95.1,1.385a4.726,4.726,0,0,0-6.685,0,4.574,4.574,0,0,0-1.385,3.342A4.574,4.574,0,0,0,88.417,8.07,4.576,4.576,0,0,0,91.759,9.455ZM89.23,2.2a3.576,3.576,0,0,1,5.058,0,3.418,3.418,0,0,1,1.048,2.529,3.418,3.418,0,0,1-1.048,2.529,3.576,3.576,0,0,1-5.058,0,3.417,3.417,0,0,1-1.048-2.529A3.417,3.417,0,0,1,89.23,2.2Zm0,0" transform="translate(-83.696)"/><path class="a" d="M16.335,252.928a11.676,11.676,0,0,0-.159-1.24,9.772,9.772,0,0,0-.305-1.247,6.16,6.16,0,0,0-.513-1.163,4.383,4.383,0,0,0-.773-1.007,3.408,3.408,0,0,0-1.11-.7,3.837,3.837,0,0,0-1.417-.257,1.439,1.439,0,0,0-.768.326c-.23.15-.5.324-.8.516a4.586,4.586,0,0,1-1.036.456,4.022,4.022,0,0,1-2.533,0,4.572,4.572,0,0,1-1.035-.456c-.3-.19-.567-.364-.8-.516a1.437,1.437,0,0,0-.768-.326,3.832,3.832,0,0,0-1.417.257,3.405,3.405,0,0,0-1.111.7,4.385,4.385,0,0,0-.773,1.007A6.172,6.172,0,0,0,.5,250.441a9.794,9.794,0,0,0-.3,1.247,11.6,11.6,0,0,0-.159,1.241c-.026.375-.039.765-.039,1.159a3.259,3.259,0,0,0,.968,2.466,3.484,3.484,0,0,0,2.494.91h9.451a3.485,3.485,0,0,0,2.494-.91,3.258,3.258,0,0,0,.968-2.466c0-.4-.013-.786-.04-1.159Zm-1.721,2.792a2.346,2.346,0,0,1-1.7.593H3.462a2.346,2.346,0,0,1-1.7-.593,2.128,2.128,0,0,1-.611-1.633c0-.368.012-.731.036-1.079a10.46,10.46,0,0,1,.144-1.117,8.639,8.639,0,0,1,.268-1.1,5.024,5.024,0,0,1,.417-.946,3.25,3.25,0,0,1,.568-.744,2.261,2.261,0,0,1,.739-.459,2.647,2.647,0,0,1,.906-.175c.04.021.112.062.228.138.236.154.509.33.81.522a5.7,5.7,0,0,0,1.3.581,5.171,5.171,0,0,0,3.241,0,5.706,5.706,0,0,0,1.3-.581c.308-.2.573-.368.81-.522.116-.076.188-.117.228-.138a2.649,2.649,0,0,1,.906.175,2.264,2.264,0,0,1,.739.459,3.241,3.241,0,0,1,.568.745,5.007,5.007,0,0,1,.417.945,8.618,8.618,0,0,1,.268,1.1,10.548,10.548,0,0,1,.144,1.117h0c.024.347.037.71.037,1.079a2.128,2.128,0,0,1-.611,1.632Zm0,0" transform="translate(0 -237.835)"/></g></svg>