<svg xmlns="http://www.w3.org/2000/svg" width="44.833" height="53.737" viewBox="0 0 44.833 53.737"><defs><style>.a{opacity:0.2;}.b{fill:#171e43;}</style></defs><g class="a"><path class="b" d="M99.975,25.886a12.524,12.524,0,0,0,9.152-3.792,12.525,12.525,0,0,0,3.792-9.151,12.525,12.525,0,0,0-3.792-9.151,12.94,12.94,0,0,0-18.3,0,12.524,12.524,0,0,0-3.792,9.151,12.524,12.524,0,0,0,3.792,9.152A12.528,12.528,0,0,0,99.975,25.886ZM93.051,6.018a9.79,9.79,0,0,1,13.849,0,9.357,9.357,0,0,1,2.869,6.924,9.357,9.357,0,0,1-2.869,6.925,9.79,9.79,0,0,1-13.849,0,9.355,9.355,0,0,1-2.87-6.925,9.356,9.356,0,0,1,2.87-6.924Zm0,0" transform="translate(-77.897 0)"/><path class="b" d="M44.724,262.68a31.966,31.966,0,0,0-.435-3.4,26.752,26.752,0,0,0-.835-3.414,16.864,16.864,0,0,0-1.4-3.184,12,12,0,0,0-2.116-2.758,9.331,9.331,0,0,0-3.04-1.91,10.507,10.507,0,0,0-3.881-.7,3.939,3.939,0,0,0-2.1.892c-.631.411-1.368.887-2.191,1.413a12.554,12.554,0,0,1-2.835,1.249,11.01,11.01,0,0,1-6.936,0,12.516,12.516,0,0,1-2.833-1.249c-.815-.521-1.553-1-2.193-1.414a3.935,3.935,0,0,0-2.1-.892,10.493,10.493,0,0,0-3.88.7,9.323,9.323,0,0,0-3.04,1.91,12.006,12.006,0,0,0-2.116,2.758,16.9,16.9,0,0,0-1.4,3.184,26.813,26.813,0,0,0-.835,3.414,31.748,31.748,0,0,0-.435,3.4C.036,263.708,0,264.776,0,265.855a8.923,8.923,0,0,0,2.65,6.751A9.539,9.539,0,0,0,9.479,275.1H35.354a9.54,9.54,0,0,0,6.829-2.491,8.92,8.92,0,0,0,2.651-6.751c0-1.083-.037-2.151-.109-3.174Zm-4.713,7.644a6.423,6.423,0,0,1-4.658,1.623H9.479a6.423,6.423,0,0,1-4.658-1.623,5.827,5.827,0,0,1-1.672-4.47c0-1.007.033-2,.1-2.956a28.639,28.639,0,0,1,.394-3.058,23.651,23.651,0,0,1,.734-3.01,13.756,13.756,0,0,1,1.142-2.589A8.9,8.9,0,0,1,7.074,252.2,6.189,6.189,0,0,1,9.1,250.947a7.247,7.247,0,0,1,2.48-.478c.11.059.307.171.625.378.647.422,1.394.9,2.218,1.43a15.6,15.6,0,0,0,3.559,1.59,14.157,14.157,0,0,0,8.873,0,15.622,15.622,0,0,0,3.561-1.592c.844-.54,1.569-1.007,2.217-1.429.318-.207.515-.319.625-.378a7.251,7.251,0,0,1,2.481.478,6.2,6.2,0,0,1,2.022,1.257,8.873,8.873,0,0,1,1.555,2.038,13.71,13.71,0,0,1,1.143,2.588,23.6,23.6,0,0,1,.735,3.01,28.879,28.879,0,0,1,.394,3.059h0c.067.951.1,1.945.1,2.954a5.826,5.826,0,0,1-1.673,4.469Zm0,0" transform="translate(0 -221.359)"/></g></svg>