<svg xmlns="http://www.w3.org/2000/svg" xmlns:xlink="http://www.w3.org/1999/xlink" width="97.613" height="81" viewBox="0 0 97.613 81"><defs><style>.a{fill:#3f3d56;}.b{fill:#fff;}.c{fill:#e6e8ec;}.d{fill:#2dbdca;}.e{fill:url(#a);}.f{fill:#feb9b9;}.g{fill:#2f2e41;}.h{opacity:0.1;}.i{fill:#efefef;}</style><linearGradient id="a" x1="0.505" y1="1.007" x2="0.505" gradientUnits="objectBoundingBox"><stop offset="0" stop-color="gray" stop-opacity="0.251"/><stop offset="0.54" stop-color="gray" stop-opacity="0.122"/><stop offset="1" stop-color="gray" stop-opacity="0.102"/></linearGradient></defs><g transform="translate(-282 -122.601)"><g transform="translate(311.66 122.601)"><rect class="a" width="1.189" height="9.799" rx="0.595" transform="translate(39.134 18.338)"/><rect class="a" width="39.775" height="80.838" rx="4"/><path class="b" d="M496.422,199H491.86v.549a2.6,2.6,0,0,1-2.6,2.6h-14.51a2.6,2.6,0,0,1-2.6-2.6V199h-4.272a3.159,3.159,0,0,0-3.159,3.159v70.314a3.159,3.159,0,0,0,3.159,3.159h28.549a3.159,3.159,0,0,0,3.159-3.159V202.164A3.159,3.159,0,0,0,496.422,199Z" transform="translate(-462.183 -196.894)"/><rect class="c" width="5.554" height="1.127" rx="0.564" transform="translate(16.051 2.414)"/><circle class="c" cx="0.64" cy="0.64" r="0.64" transform="translate(22.445 2.338)"/><circle class="b" cx="7.524" cy="7.524" r="7.524" transform="translate(12.606 33.887)"/><path class="d" d="M540.323,419.667a10.057,10.057,0,1,1-10.057-10.057A10.057,10.057,0,0,1,540.323,419.667ZM529.1,424.99l7.46-7.46a.648.648,0,0,0,0-.918l-.918-.911a.647.647,0,0,0-.917,0l-6.084,6.084-2.841-2.848a.651.651,0,0,0-.918,0l-.918.923a.651.651,0,0,0,0,.918L528.187,425a.648.648,0,0,0,.918,0Z" transform="translate(-510.296 -379.306)"/></g><g transform="translate(285.255 133.215)"><rect class="a" width="0.599" height="2.9" rx="0.3" transform="translate(27.299 5.323)"/><rect class="a" width="0.676" height="5.047" rx="0.338" transform="translate(27.277 10.633)"/><rect class="a" width="0.643" height="5.09" rx="0.321" transform="translate(27.288 17.446)"/><path class="e" d="M377.46,474.88a.111.111,0,0,0,.132.017A.466.466,0,0,1,377.46,474.88Z" transform="translate(-358.139 -443.974)"/><path class="f" d="M368.473,491l-.13.707-.1.541-.182.989-1.766,1.236s-.159-.136-.422-.351a30.77,30.77,0,0,0-3.362-2.461,3.761,3.761,0,0,0-.924-.426Z" transform="translate(-344.181 -458.149)"/><path class="a" d="M356.754,481.177s2.059.353,2.18-.526-1.06-1.355-2.06-1.414-7,.353-7,.353-1.059,1.413,2.766,1.649Z" transform="translate(-333.758 -447.8)"/><rect class="g" width="10.772" height="12.773" transform="translate(16.727 4.359)"/><rect class="h" width="10.772" height="12.773" transform="translate(16.727 4.417)"/><path class="f" d="M221.392,428.331a1.728,1.728,0,0,0-.656.464,26.021,26.021,0,0,0-2.641,3.6c-1.988-2.368.212-4.239,1.15-4.882.228-.156.381-.241.381-.241Z" transform="translate(-217.289 -402.106)"/><path class="f" d="M376.069,288.22s.53,3.708,2.355,4.591-2.355,2.533-2.355,2.533l-5.709-2.121s3.238-1.06,2.59-4.18Z" transform="translate(-351.896 -279.829)"/><path class="f" d="M316.7,473.16l-.129.7-.1.543-.182.989-1.766,1.235s-.159-.135-.422-.35a30.634,30.634,0,0,0-3.363-2.461,3.739,3.739,0,0,0-.924-.426Z" transform="translate(-298.649 -442.461)"/><path class="g" d="M304.588,463.682s1.848.013,1.959-.869-1.007-1.355-1.959-1.414-6.737.381-6.737.381-.821,1.666,2.818,1.9Z" transform="translate(-288.064 -432.115)"/><path class="a" d="M357.807,477.613l-.241-.121-.217-.274-2.848-3.611v.063c-.019.6-.224,5.382-1.824,5.824-1.707.47-3.766.589-4.7-2.59s-2.654-10.124-4.415-10.537l2.62-2.148a15.7,15.7,0,0,1,2.441,3.971c-.026-.121-1.224-5.718-.241-6.708h8.6s1.327,3.779,2.236,5.651a63.461,63.461,0,0,1,2.455,7.216A2.761,2.761,0,0,1,357.807,477.613Z" transform="translate(-328.326 -432.192)"/><path class="h" d="M389.777,410.15c-1.327.785-7.152.466-9.047.338l-.516-.037c-.055,0,.008-.031.008-.031l.053-.534,1.413-3.59,7.563-4.386a6.582,6.582,0,0,0-.192,1.978A45.931,45.931,0,0,0,389.777,410.15Z" transform="translate(-360.542 -379.805)"/><path class="i" d="M389.318,408.708c-1.327.785-7.152.466-9.047.338l-.516-.036-.086-.007.094-.024.466-.121,1-4,7.563-4.385a6.586,6.586,0,0,0-.192,1.978A45.916,45.916,0,0,0,389.318,408.708Z" transform="translate(-360.082 -378.539)"/><path class="h" d="M389.185,402.446c-1.538.355-4.923,1.4-6.223,3.908a6.463,6.463,0,0,1-2.106,2.691l-.516-.036a.3.3,0,0,0,.008-.031l.466-.121,1-4,7.563-4.385A6.615,6.615,0,0,0,389.185,402.446Z" transform="translate(-360.671 -378.539)"/><path class="h" d="M233.882,427.29l1.766,1.059a1.729,1.729,0,0,0-.656.464c-.147-.429-1.071-1.029-1.491-1.285C233.729,427.376,233.882,427.29,233.882,427.29Z" transform="translate(-231.546 -402.124)"/><path class="h" d="M376.851,471.707a.1.1,0,0,1-.121-.017A.418.418,0,0,0,376.851,471.707Z" transform="translate(-357.497 -441.168)"/><path class="d" d="M254.63,258.7a3.5,3.5,0,0,1-2.708-1s-4.7,1.355-6.3,4.415-12.424,9.065-12.424,9.065,1.884,1.059,1.707,1.589l7.123-4.121s2.533-1.824,3.236-2.236,4.592-2.943,5.416,3.943,0,6.063,0,6.063,1.177.413,2.884-2.884,7-4.061,7-4.061l.294-3.472s1.051-2.3.241-3.257a2.051,2.051,0,0,1-.472-1,3.5,3.5,0,0,1,1.874-3.572,16.192,16.192,0,0,0,4-3.414s.059-1.119-1.707-1.649-8.947-3.414-8.947-3.414l-.241,1,5.666,4s-2.825,2.292-5.066,2.236C256.215,256.936,256.631,258.643,254.63,258.7Z" transform="translate(-231.281 -245.956)"/><path class="h" d="M394.266,291.118a11.5,11.5,0,0,1-.326-1.438l-3.119.824a3.42,3.42,0,0,1-.071,1.8A3.355,3.355,0,0,0,394.266,291.118Z" transform="translate(-369.826 -281.113)"/><circle class="f" cx="3.355" cy="3.355" r="3.355" transform="translate(18.494 4.418)"/><path class="h" d="M428.67,507.07s1.942,3.826,1.353,5" transform="translate(-403.172 -472.281)"/><path class="g" d="M346.655,218.685a23.776,23.776,0,0,1,2.732.724,1.356,1.356,0,0,0,.707.027c.356-.11.645-.482,1.014-.472a1.124,1.124,0,0,1,.615.31,7.567,7.567,0,0,1,.844.753c.632.686,1.024,1.61,1.6,2.357s1.4,1.622,2.218,1.28a4.735,4.735,0,0,1-4.27,3.665,10.5,10.5,0,0,0-2.357.121,2.043,2.043,0,0,1-.595.145c-.439,0-.793-.4-1.066-.795-.642-.922-1.15-1.967-1.872-2.808a1.539,1.539,0,0,0-.858-.593,1.588,1.588,0,0,0-.948.267,4.449,4.449,0,0,0-1.387.965,1.92,1.92,0,0,0-.468,1.689,3.94,3.94,0,0,1,.285.946c.007.536-.466.926-.559,1.447a5.43,5.43,0,0,0-.023.659,2.7,2.7,0,0,1-.995,1.748,1.255,1.255,0,0,0-.456.631c-.037.184,0,.379-.024.566a1.027,1.027,0,0,1-.942.759,2.718,2.718,0,0,1-1.414-.168,1.63,1.63,0,0,0,.791-1.729c-.182-.955-1.142-1.642-1.06-2.614a3.028,3.028,0,0,1,.265-.86,7.88,7.88,0,0,0,.454-1.63,2.746,2.746,0,0,0-.028-1.3,4.037,4.037,0,0,0-.586-.988,5.617,5.617,0,0,1-.679-1.391.978.978,0,0,1-.065-.461.951.951,0,0,1,.3-.477,3.886,3.886,0,0,1,1.789-1.282,4.027,4.027,0,0,1,1.016-.039,11.987,11.987,0,0,0,1.765-.075,3.872,3.872,0,0,0,1.707-.362c.381-.292.6-.659,1.065-.844a3.136,3.136,0,0,1,1.488-.17Z" transform="translate(-323.022 -218.66)"/></g><ellipse class="d" cx="4.866" cy="0.823" rx="4.866" ry="0.823" transform="translate(366.354 201.592)"/><path class="d" d="M884.393,824.87a1.417,1.417,0,0,0,.464-.7.625.625,0,0,0-.324-.713c-.3-.114-.616.093-.857.3a1.144,1.144,0,0,1-.834.4,1.268,1.268,0,0,0,.394-1.187.5.5,0,0,0-.11-.242c-.165-.177-.465-.1-.662.039a2.468,2.468,0,0,0-.808,2.066,3.883,3.883,0,0,1-.012-.847.874.874,0,0,0-.319-.754.962.962,0,0,0-.484-.114,1.008,1.008,0,0,0-.791.225.78.78,0,0,0,.031.968,3.084,3.084,0,0,0,.819.656,1.815,1.815,0,0,1,.584.558.506.506,0,0,1,.043.1h1.768a4.97,4.97,0,0,0,1.1-.757Z" transform="translate(-511.16 -623.801)"/><ellipse class="i" cx="3.211" cy="0.543" rx="3.211" ry="0.543" transform="translate(301.848 202.515)"/><path class="i" d="M882.859,824.107a.936.936,0,0,0,.306-.462.412.412,0,0,0-.214-.47c-.2-.075-.407.062-.565.2a.755.755,0,0,1-.55.265.837.837,0,0,0,.26-.783.33.33,0,0,0-.073-.16c-.108-.117-.307-.067-.437.026a1.629,1.629,0,0,0-.534,1.363,2.565,2.565,0,0,1-.008-.559.577.577,0,0,0-.211-.5.634.634,0,0,0-.319-.075.665.665,0,0,0-.522.149.515.515,0,0,0,.021.639,2.025,2.025,0,0,0,.541.433,1.2,1.2,0,0,1,.386.368.336.336,0,0,1,.029.066h1.167a3.278,3.278,0,0,0,.725-.5Z" transform="translate(-576.472 -621.938)"/><ellipse class="i" cx="3.211" cy="0.543" rx="3.211" ry="0.543" transform="translate(283.686 202.515)"/><path class="i" d="M882.859,824.107a.936.936,0,0,0,.306-.462.412.412,0,0,0-.214-.47c-.2-.075-.407.062-.565.2a.755.755,0,0,1-.55.265.837.837,0,0,0,.26-.783.33.33,0,0,0-.073-.16c-.108-.117-.307-.067-.437.026a1.629,1.629,0,0,0-.534,1.363,2.565,2.565,0,0,1-.008-.559.577.577,0,0,0-.211-.5.634.634,0,0,0-.319-.075.665.665,0,0,0-.522.149.515.515,0,0,0,.021.639,2.025,2.025,0,0,0,.541.433,1.2,1.2,0,0,1,.386.368.336.336,0,0,1,.029.066h1.167a3.278,3.278,0,0,0,.725-.5Z" transform="translate(-594.634 -621.938)"/><rect class="g" width="97.613" height="0.197" transform="translate(282 203.291)"/><path class="d" d="M779.426,156.834s-10.19-.615-8.99,6.525a1.735,1.735,0,0,0,.905,1.835s.018-.529,1.046-.349a4.78,4.78,0,0,0,1.107.053,2.307,2.307,0,0,0,1.353-.553h0s2.865-1.184,3.978-5.865c0,0,.824-1.021.791-1.284l-1.72.735a3.066,3.066,0,0,1,.121,2.271s-.056-2.227-.386-2.178c-.067.01-.893.43-.893.43s1.011,2.16.248,3.731c0,0,.289-2.662-.564-3.575l-1.21.707s1.181,2.232.38,4.053c0,0,.206-2.793-.635-3.881l-1.1.856s1.11,2.2.433,3.71c0,0-.088-3.251-.671-3.5a6.742,6.742,0,0,0-1.106,1.193s.76,1.6.288,2.44c0,0-.289-2.166-.526-2.178a7.192,7.192,0,0,0-1.055,2.42,5.215,5.215,0,0,1,.824-2.556,2.883,2.883,0,0,0-1.464.757s.149-1.014,1.7-1.1a6.655,6.655,0,0,1,1-1.155,6.267,6.267,0,0,0-2.477.286,2.782,2.782,0,0,1,2.761-.522l1.083-.885a8.962,8.962,0,0,0-2.892.029s.991-.847,3.184-.23l1.179-.7a10.812,10.812,0,0,0-2.763-.242,4.237,4.237,0,0,1,3.109.05l.847-.379s-1.268-.249-1.64-.289-.391-.142-.391-.142a4.4,4.4,0,0,1,2.383.265A10.726,10.726,0,0,0,779.426,156.834Z" transform="translate(-404.577 -28.768)"/><path class="a" d="M729.247,130.651s-4.6-.277-4.061,2.949a.786.786,0,0,0,.409.829s.008-.242.473-.159a2.119,2.119,0,0,0,.5.024,1.036,1.036,0,0,0,.611-.252h0a3.654,3.654,0,0,0,1.8-2.65s.371-.461.357-.58l-.777.332a1.4,1.4,0,0,1,.057,1.026s-.025-1.006-.174-.983c-.03,0-.4.195-.4.195a2.294,2.294,0,0,1,.113,1.686s.131-1.2-.255-1.616l-.547.324a2.414,2.414,0,0,1,.172,1.831,3.431,3.431,0,0,0-.287-1.754l-.495.387a2.366,2.366,0,0,1,.2,1.676s-.041-1.469-.3-1.581a3.038,3.038,0,0,0-.5.54s.344.726.131,1.1c0,0-.131-.979-.242-.984a3.26,3.26,0,0,0-.477,1.089,2.363,2.363,0,0,1,.373-1.155,1.3,1.3,0,0,0-.662.343s.068-.459.769-.5a3.31,3.31,0,0,1,.453-.523,2.835,2.835,0,0,0-1.12.13,1.257,1.257,0,0,1,1.247-.236l.484-.4a4.159,4.159,0,0,0-1.308.013,1.591,1.591,0,0,1,1.439-.1l.533-.318a4.866,4.866,0,0,0-1.249-.108,1.919,1.919,0,0,1,1.405.022l.381-.171s-.573-.113-.742-.131-.177-.064-.177-.064a1.984,1.984,0,0,1,1.077.121A4.977,4.977,0,0,0,729.247,130.651Z" transform="translate(-368.361 -6.366)"/><path class="a" d="M729.247,130.651s-4.6-.277-4.061,2.949a.786.786,0,0,0,.409.829s.008-.242.473-.159a2.119,2.119,0,0,0,.5.024,1.036,1.036,0,0,0,.611-.252h0a3.654,3.654,0,0,0,1.8-2.65s.371-.461.357-.58l-.777.332a1.4,1.4,0,0,1,.057,1.026s-.025-1.006-.174-.983c-.03,0-.4.195-.4.195a2.294,2.294,0,0,1,.113,1.686s.131-1.2-.255-1.616l-.547.324a2.414,2.414,0,0,1,.172,1.831,3.431,3.431,0,0,0-.287-1.754l-.495.387a2.366,2.366,0,0,1,.2,1.676s-.041-1.469-.3-1.581a3.038,3.038,0,0,0-.5.54s.344.726.131,1.1c0,0-.131-.979-.242-.984a3.26,3.26,0,0,0-.477,1.089,2.363,2.363,0,0,1,.373-1.155,1.3,1.3,0,0,0-.662.343s.068-.459.769-.5a3.31,3.31,0,0,1,.453-.523,2.835,2.835,0,0,0-1.12.13,1.257,1.257,0,0,1,1.247-.236l.484-.4a4.159,4.159,0,0,0-1.308.013,1.591,1.591,0,0,1,1.439-.1l.533-.318a4.866,4.866,0,0,0-1.249-.108,1.919,1.919,0,0,1,1.405.022l.381-.171s-.573-.113-.742-.131-.177-.064-.177-.064a1.984,1.984,0,0,1,1.077.121A4.977,4.977,0,0,0,729.247,130.651Z" transform="translate(-439.28 42.89)"/></g></svg>