<svg xmlns="http://www.w3.org/2000/svg" width="65.586" height="65.586" viewBox="0 0 65.586 65.586"><defs><style>.a{fill:#2dbdca;}</style></defs><path class="a" d="M32.793,0A32.793,32.793,0,1,0,65.586,32.793,32.775,32.775,0,0,0,32.793,0Zm0,63.024A30.231,30.231,0,1,1,63.024,32.793,30.215,30.215,0,0,1,32.793,63.024Z"/><path class="a" d="M118.5,154.322l-4.41,2.338v-.427A4.238,4.238,0,0,0,109.854,152H83.733a4.238,4.238,0,0,0-4.233,4.233v18.178a4.238,4.238,0,0,0,4.233,4.233h26.121a4.238,4.238,0,0,0,4.233-4.233v-.427l4.41,2.338a4.237,4.237,0,0,0,6.222-3.744V158.066A4.237,4.237,0,0,0,118.5,154.322Zm-6.972,20.089a1.673,1.673,0,0,1-1.671,1.671H83.733a1.673,1.673,0,0,1-1.671-1.671V156.233a1.673,1.673,0,0,1,1.671-1.671h26.121a1.673,1.673,0,0,1,1.671,1.671Zm10.632-1.833a1.673,1.673,0,0,1-2.46,1.48l-5.61-2.974V159.56l5.61-2.974a1.673,1.673,0,0,1,2.46,1.48Z" transform="translate(-69.316 -132.529)"/><path class="a" d="M176.583,194h-7.3a1.281,1.281,0,1,0,0,2.562h7.3a1.281,1.281,0,1,0,0-2.562Z" transform="translate(-146.479 -169.149)"/><path class="a" d="M129.281,194a1.281,1.281,0,1,0,0,2.562h0a1.281,1.281,0,0,0,0-2.562Z" transform="translate(-111.603 -169.149)"/></svg>