<svg xmlns="http://www.w3.org/2000/svg" width="27.735" height="21.572" viewBox="0 0 27.735 21.572"><defs><style>.a{fill:#0353a5;}.b{fill:#fff;}</style></defs><g transform="translate(0 0)"><g transform="translate(0 0)"><path class="a" d="M53.736,79.422V96.372a2.312,2.312,0,0,1-2.311,2.311H28.312A2.312,2.312,0,0,1,26,96.372V79.422a2.312,2.312,0,0,1,2.311-2.311H51.425A2.312,2.312,0,0,1,53.736,79.422Z" transform="translate(-26.001 -77.111)"/><g transform="translate(1.541 6.794)"><path class="b" d="M337.888,192.111h-1.5a.952.952,0,0,0-1.011.621l-2.875,6.862h2.032s.332-.924.4-1.122h2.485c.058.265.231,1.122.231,1.122h1.791Zm-2.388,4.83c.159-.428.77-2.095.77-2.095s.159-.438.255-.718l.135.645s.366,1.791.448,2.167H335.5Z" transform="translate(-315.565 -191.971)"/><path class="b" d="M58.355,192.111l-1.892,5.1-.207-1.035-.674-3.438a.805.805,0,0,0-.876-.631H51.59l-.034.149a7.643,7.643,0,0,1,2.032.823l1.724,6.5h2.046l3.043-7.473H58.355Z" transform="translate(-51.556 -191.971)"/><path class="b" d="M192.361,192.111l-1.209,7.483h1.931l1.213-7.483Z" transform="translate(-182.735 -191.971)"/><path class="b" d="M247.127,192.934c-.679-.342-1.093-.573-1.093-.925.01-.318.351-.645,1.112-.645a3.319,3.319,0,0,1,1.44.284l.173.082.265-1.618a4.807,4.807,0,0,0-1.733-.318c-1.912,0-3.255,1.021-3.265,2.475-.014,1.074.963,1.671,1.695,2.032s1,.607,1,.929c-.01.5-.607.732-1.16.732a3.858,3.858,0,0,1-1.815-.4l-.255-.121-.27,1.68a5.907,5.907,0,0,0,2.157.4c2.032,0,3.356-1,3.371-2.552C248.76,194.118,248.24,193.468,247.127,192.934Z" transform="translate(-231.666 -189.794)"/></g></g></g></svg>