<svg xmlns="http://www.w3.org/2000/svg" width="16.959" height="20.021" viewBox="0 0 16.959 20.021">
  <g id="Group_3560" data-name="Group 3560" transform="translate(-81.475 -213.3)">
    <path id="Path_3057" data-name="Path 3057" d="M88.5,234.915l.352-2.2-.774-.023H84.4l2.555-16.223a.129.129,0,0,1,.07-.117.333.333,0,0,1,.141-.047h6.213c2.063,0,3.493.422,4.22,1.266a3.048,3.048,0,0,1,.68,1.266,4.4,4.4,0,0,1,0,1.758v.492l.352.188A2.3,2.3,0,0,1,99.9,223.1a5.624,5.624,0,0,1-.07,1.852,6.587,6.587,0,0,1-.774,2.11,4.45,4.45,0,0,1-1.219,1.336,4.624,4.624,0,0,1-1.618.727,7.863,7.863,0,0,1-2.04.234h-.492a1.372,1.372,0,0,0-.938.352,1.476,1.476,0,0,0-.492.891l-.047.188-.61,3.868-.023.141a.122.122,0,0,1-.047.094.086.086,0,0,1-.07.023Z" transform="translate(-2.24 -2.297)" fill="#253d80"/>
    <path id="Path_3058" data-name="Path 3058" d="M110.038,235c-.023.117-.047.234-.07.375-.821,4.2-3.634,5.65-7.2,5.65h-1.829a.882.882,0,0,0-.867.75l-.938,5.931-.258,1.688a.463.463,0,0,0,.469.539h3.235a.8.8,0,0,0,.774-.656l.023-.164.61-3.868.047-.211a.782.782,0,0,1,.774-.656h.492c3.142,0,5.58-1.266,6.306-4.947a4.194,4.194,0,0,0-.656-3.728,3.4,3.4,0,0,0-.914-.7" transform="translate(-13.319 -16.613)" fill="#189bd7"/>
    <path id="Path_3059" data-name="Path 3059" d="M113.1,232.681a1.986,1.986,0,0,0-.4-.094c-.141-.023-.281-.047-.4-.07a11.392,11.392,0,0,0-1.618-.117h-4.876a.749.749,0,0,0-.328.07.734.734,0,0,0-.422.586l-1.032,6.564-.023.188a.9.9,0,0,1,.867-.75H106.7c3.587,0,6.377-1.454,7.2-5.65.023-.117.047-.234.07-.375a2.955,2.955,0,0,0-.68-.281.266.266,0,0,0-.188-.07" transform="translate(-17.245 -14.622)" fill="#242f65"/>
    <path id="Path_3060" data-name="Path 3060" d="M87.81,218.411a.847.847,0,0,1,.422-.586.749.749,0,0,1,.328-.07h4.876a11.4,11.4,0,0,1,1.618.117c.141.023.281.047.4.07.141.023.258.07.4.094a.552.552,0,0,0,.188.047,3.461,3.461,0,0,1,.68.281,3.982,3.982,0,0,0-.844-3.564c-.938-1.055-2.6-1.5-4.736-1.5H84.927a.865.865,0,0,0-.867.75L81.48,230.461a.52.52,0,0,0,.516.61h3.821l.961-6.119Z" fill="#253d80"/>
  </g>
</svg>
