<svg xmlns="http://www.w3.org/2000/svg" width="39.933" height="12.955" viewBox="0 0 39.933 12.955"><defs><style>.a{fill:#004c9b;}.b{fill:#f99410;}</style></defs><g transform="translate(-11.227 -51.518)"><g transform="translate(11.227 51.518)"><path class="a" d="M56.46,64.7H53.2l2.037-12.516H58.5Z" transform="translate(-39.149 -51.963)"/><path class="a" d="M22.539,52.187,19.432,60.8l-.367-1.854h0l-1.1-5.628a1.4,1.4,0,0,0-1.546-1.127H11.287l-.06.212a12.173,12.173,0,0,1,3.408,1.431L17.466,64.7h3.4l5.184-12.516Z" transform="translate(-11.227 -51.963)"/><path class="a" d="M104.481,64.7h2.992l-2.609-12.516h-2.62a1.5,1.5,0,0,0-1.5.933L95.881,64.7h3.4l.68-1.859H104.1ZM100.9,60.276l1.712-4.684.963,4.684Z" transform="translate(-67.54 -51.963)"/><path class="a" d="M78.209,54.752l.465-2.688a9.4,9.4,0,0,0-2.931-.546c-1.617,0-5.457.707-5.457,4.143,0,3.234,4.507,3.274,4.507,4.972s-4.042,1.394-5.376.323l-.485,2.81a9.127,9.127,0,0,0,3.678.707c2.223,0,5.578-1.152,5.578-4.285,0-3.254-4.547-3.557-4.547-4.972S76.815,53.983,78.209,54.752Z" transform="translate(-49.613 -51.518)"/></g><path class="b" d="M19.065,58.942l-1.1-5.628a1.4,1.4,0,0,0-1.546-1.127H11.287l-.06.212a12.633,12.633,0,0,1,4.836,2.428A9.761,9.761,0,0,1,19.065,58.942Z" transform="translate(0 -0.445)"/></g></svg>