<svg xmlns="http://www.w3.org/2000/svg" width="22.6" height="22.554" viewBox="0 0 22.6 22.554">
  <g id="wallet_outline" transform="translate(0.3 -0.2)" fill="#5d6174" stroke-linecap="round">
    <path d="M 18.92917060852051 22.60416412353516 L 1.833330035209656 22.60416412353516 C 0.7397199869155884 22.60416412353516 -0.1500000059604645 21.71444320678711 -0.1500000059604645 20.6208324432373 L -0.1500000059604645 6.962503433227539 C -0.1500000059604645 5.86888313293457 0.7397199869155884 4.97916316986084 1.833330035209656 4.97916316986084 L 2.829169988632202 4.97916316986084 L 2.829169988632202 1.966663241386414 C 2.829169988632202 1.075233221054077 3.554399967193604 0.3500032126903534 4.44582986831665 0.3500032126903534 L 10.63333034515381 0.3500032126903534 C 11.52476024627686 0.3500032126903534 12.25 1.075233221054077 12.25 1.966663241386414 L 12.25 3.983333110809326 C 12.25 4.268223285675049 12.01821994781494 4.500003337860107 11.73332977294922 4.500003337860107 C 11.4484395980835 4.500003337860107 11.21667003631592 4.268223285675049 11.21667003631592 3.983333110809326 L 11.21667003631592 1.966663241386414 C 11.21667003631592 1.645013213157654 10.95497989654541 1.383333206176758 10.63333034515381 1.383333206176758 L 4.44582986831665 1.383333206176758 C 4.124179840087891 1.383333206176758 3.862499952316284 1.645013213157654 3.862499952316284 1.966663241386414 L 3.862499952316284 4.97916316986084 L 5.166669845581055 4.97916316986084 L 5.166669845581055 2.241663217544556 C 5.166669845581055 1.956773161888123 5.398439884185791 1.725003242492676 5.683330059051514 1.725003242492676 C 5.968220233917236 1.725003242492676 6.199999809265137 1.956773161888123 6.199999809265137 2.241663217544556 L 6.199999809265137 4.97916316986084 L 7.137499809265137 4.97916316986084 L 7.137499809265137 2.241663217544556 C 7.137499809265137 1.956773161888123 7.369279861450195 1.725003242492676 7.654170036315918 1.725003242492676 C 7.939060211181641 1.725003242492676 8.170829772949219 1.956773161888123 8.170829772949219 2.241663217544556 L 8.170829772949219 4.97916316986084 L 15.45608997344971 4.97916316986084 C 15.23570251464844 4.403450965881348 15.24526309967041 3.759770154953003 15.48418426513672 3.191118240356445 L 13.03717994689941 2.486693143844604 C 12.90454959869385 2.448493242263794 12.7947301864624 2.360953092575073 12.72795009613037 2.240203142166138 C 12.6611499786377 2.119423151016235 12.64540004730225 1.979863166809082 12.68360042572021 1.847233176231384 C 12.74687957763672 1.627163171768188 12.95096969604492 1.473413228988647 13.17986965179443 1.473413228988647 C 13.22813034057617 1.473413228988647 13.27626991271973 1.480223178863525 13.32297039031982 1.493663191795349 L 17.48332023620605 2.691283226013184 C 17.89860916137695 2.810863256454468 18.24233055114746 3.084733247756958 18.45117950439453 3.462463140487671 C 18.6600399017334 3.840193271636963 18.70919990539551 4.276893138885498 18.58962059020996 4.69213342666626 L 18.50701522827148 4.97916316986084 L 18.92917060852051 4.97916316986084 C 20.02277946472168 4.97916316986084 20.91250038146973 5.86888313293457 20.91250038146973 6.962503433227539 L 20.91250038146973 11.21181011199951 C 21.62634658813477 11.38498020172119 22.14999961853027 12.03893280029297 22.14999961853027 12.78333282470703 L 22.14999961853027 14.80000305175781 C 22.14999961853027 15.69143295288086 21.42519950866699 16.41666412353516 20.53429985046387 16.41666412353516 L 17.00415992736816 16.41666412353516 C 16.11273002624512 16.41666412353516 15.38749980926514 15.69143295288086 15.38749980926514 14.80000305175781 L 15.38749980926514 12.78333282470703 C 15.38749980926514 11.89190292358398 16.11273002624512 11.16666316986084 17.00415992736816 11.16666316986084 L 19.87916946411133 11.16666316986084 L 19.87916946411133 6.962503433227539 C 19.87916946411133 6.43867301940918 19.45299911499023 6.012503147125244 18.92917060852051 6.012503147125244 L 1.833330035209656 6.012503147125244 C 1.309499979019165 6.012503147125244 0.8833299875259399 6.43867301940918 0.8833299875259399 6.962503433227539 L 0.8833299875259399 20.6208324432373 C 0.8833299875259399 21.14466285705566 1.309499979019165 21.57083320617676 1.833330035209656 21.57083320617676 L 18.92917060852051 21.57083320617676 C 19.45299911499023 21.57083320617676 19.87916946411133 21.14466285705566 19.87916946411133 20.6208324432373 L 19.87916946411133 17.93958282470703 C 19.87916946411133 17.65469360351563 20.11094093322754 17.42291259765625 20.39583015441895 17.42291259765625 C 20.68071937561035 17.42291259765625 20.91250038146973 17.65469360351563 20.91250038146973 17.93958282470703 L 20.91250038146973 20.6208324432373 C 20.91250038146973 21.71444320678711 20.02277946472168 22.60416412353516 18.92917060852051 22.60416412353516 Z M 17.00415992736816 12.2000036239624 C 16.68251991271973 12.2000036239624 16.42083930969238 12.46168327331543 16.42083930969238 12.78333282470703 L 16.42083930969238 14.80000305175781 C 16.42083930969238 15.12165355682373 16.68251991271973 15.38333320617676 17.00415992736816 15.38333320617676 L 20.5333309173584 15.38333320617676 C 20.85498046875 15.38333320617676 21.11667060852051 15.12165355682373 21.11667060852051 14.80000305175781 L 21.11667060852051 12.78333282470703 C 21.11667060852051 12.46168327331543 20.85498046875 12.2000036239624 20.5333309173584 12.2000036239624 L 17.00415992736816 12.2000036239624 Z M 16.63352012634277 4.97916316986084 L 17.43172454833984 4.97916316986084 L 17.59664916992188 4.40626335144043 C 17.68557929992676 4.097193241119385 17.50650024414063 3.773343324661255 17.19746971130371 3.684353113174438 L 16.4892406463623 3.480483055114746 C 16.23281288146973 3.961745262145996 16.28842353820801 4.555724620819092 16.63352012634277 4.97916316986084 Z M 18.01250076293945 14.30833339691162 L 17.46249961853027 14.30833339691162 C 17.17761039733887 14.30833339691162 16.94582939147949 14.07655334472656 16.94582939147949 13.79166316986084 C 16.94582939147949 13.50677299499512 17.17761039733887 13.27500343322754 17.46249961853027 13.27500343322754 L 18.01250076293945 13.27500343322754 C 18.29738998413086 13.27500343322754 18.5291690826416 13.50677299499512 18.5291690826416 13.79166316986084 C 18.5291690826416 14.07655334472656 18.29738998413086 14.30833339691162 18.01250076293945 14.30833339691162 Z" stroke="none"/>
    <path d="M 4.445829391479492 0.5000038146972656 C 3.637100219726563 0.5000038146972656 2.979169845581055 1.157932281494141 2.979169845581055 1.966663360595703 L 2.979169845581055 5.12916374206543 L 1.833330154418945 5.12916374206543 C 0.8224296569824219 5.12916374206543 0 5.951602935791016 0 6.962503433227539 L 0 20.6208324432373 C 0 21.63173294067383 0.8224296569824219 22.45416259765625 1.833330154418945 22.45416259765625 L 18.92917060852051 22.45416259765625 C 19.9400691986084 22.45416259765625 20.76250076293945 21.63173294067383 20.76250076293945 20.6208324432373 L 20.76250076293945 17.93958282470703 C 20.76250076293945 17.73709297180176 20.59832954406738 17.57291412353516 20.39583015441895 17.57291412353516 C 20.19334030151367 17.57291412353516 20.02917098999023 17.73709297180176 20.02917098999023 17.93958282470703 L 20.02917098999023 20.6208324432373 C 20.02917098999023 21.22734260559082 19.53568077087402 21.72083282470703 18.92917060852051 21.72083282470703 L 1.833330154418945 21.72083282470703 C 1.22681999206543 21.72083282470703 0.7333297729492188 21.22734260559082 0.7333297729492188 20.6208324432373 L 0.7333297729492188 6.962503433227539 C 0.7333297729492188 6.355983734130859 1.22681999206543 5.862503051757813 1.833330154418945 5.862503051757813 L 18.92917060852051 5.862503051757813 C 19.53568077087402 5.862503051757813 20.02917098999023 6.355983734130859 20.02917098999023 6.962503433227539 L 20.02917098999023 11.31666278839111 L 17.00415992736816 11.31666278839111 C 16.1954402923584 11.31666278839111 15.53750038146973 11.9746036529541 15.53750038146973 12.78333282470703 L 15.53750038146973 14.80000305175781 C 15.53750038146973 15.60873317718506 16.1954402923584 16.26666259765625 17.00415992736816 16.26666259765625 L 20.53429985046387 16.26666259765625 C 21.33949089050293 16.26666259765625 22 15.61092376708984 22 14.80000305175781 L 22 12.78333282470703 C 22 12.05256366729736 21.46273994445801 11.44504356384277 20.76250076293945 11.33468341827393 L 20.76250076293945 6.962503433227539 C 20.76250076293945 5.951602935791016 19.9400691986084 5.12916374206543 18.92917060852051 5.12916374206543 L 18.30776023864746 5.12916374206543 L 18.44548034667969 4.650623321533203 C 18.6697998046875 3.871683120727539 18.22085952758789 3.059743881225586 17.44182968139648 2.835433959960938 L 13.28149032592773 1.637813568115234 C 13.24760723114014 1.628063201904297 13.21345138549805 1.623414993286133 13.17987442016602 1.6234130859375 C 13.02056217193604 1.623407363891602 12.87395858764648 1.728019714355469 12.82773971557617 1.888753890991211 C 12.77169036865234 2.083362579345703 12.88407039642334 2.286493301391602 13.07868003845215 2.34254264831543 L 15.69410991668701 3.095453262329102 C 15.37058067321777 3.725753784179688 15.35874938964844 4.47755241394043 15.68599987030029 5.12916374206543 L 8.020830154418945 5.12916374206543 L 8.020830154418945 2.241662979125977 C 8.020830154418945 2.039173126220703 7.856659889221191 1.875003814697266 7.654170036315918 1.875003814697266 C 7.451669692993164 1.875003814697266 7.287500381469727 2.039173126220703 7.287500381469727 2.241662979125977 L 7.287500381469727 5.12916374206543 L 6.050000190734863 5.12916374206543 L 6.050000190734863 2.241662979125977 C 6.050000190734863 2.039173126220703 5.885829925537109 1.875003814697266 5.683330535888672 1.875003814697266 C 5.480840682983398 1.875003814697266 5.316669464111328 2.039173126220703 5.316669464111328 2.241662979125977 L 5.316669464111328 5.12916374206543 L 3.712499618530273 5.12916374206543 L 3.712499618530273 1.966663360595703 C 3.712499618530273 1.562322616577148 4.04149055480957 1.233333587646484 4.445829391479492 1.233333587646484 L 10.63333034515381 1.233333587646484 C 11.03767967224121 1.233333587646484 11.36666965484619 1.562322616577148 11.36666965484619 1.966663360595703 L 11.36666965484619 3.983333587646484 C 11.36666965484619 4.185823440551758 11.53083992004395 4.349992752075195 11.73332977294922 4.349992752075195 C 11.93581962585449 4.349992752075195 12.10000038146973 4.185823440551758 12.10000038146973 3.983333587646484 L 12.10000038146973 1.966663360595703 C 12.10000038146973 1.157932281494141 11.44206047058105 0.5000038146972656 10.63333034515381 0.5000038146972656 L 4.445829391479492 0.5000038146972656 M 17.54463958740234 5.12916374206543 L 16.56452941894531 5.12916374206543 C 16.10153007507324 4.61418342590332 16.05862998962402 3.865262985229492 16.41888046264648 3.304132461547852 L 17.23896980285645 3.540212631225586 C 17.62850952148438 3.652372360229492 17.85285949707031 4.058273315429688 17.74079895019531 4.447763442993164 L 17.54463958740234 5.12916374206543 M 20.53332901000977 15.53333282470703 L 17.00415992736816 15.53333282470703 C 16.59981918334961 15.53333282470703 16.27083969116211 15.20433330535889 16.27083969116211 14.80000305175781 L 16.27083969116211 12.78333282470703 C 16.27083969116211 12.37899303436279 16.59981918334961 12.05000305175781 17.00415992736816 12.05000305175781 L 20.53332901000977 12.05000305175781 C 20.93767929077148 12.05000305175781 21.26667022705078 12.37899303436279 21.26667022705078 12.78333282470703 L 21.26667022705078 14.80000305175781 C 21.26667022705078 15.20433330535889 20.93767929077148 15.53333282470703 20.53332901000977 15.53333282470703 M 17.46249961853027 13.42500305175781 C 17.260009765625 13.42500305175781 17.09582901000977 13.58917331695557 17.09582901000977 13.79166316986084 C 17.09582901000977 13.99415302276611 17.260009765625 14.15833282470703 17.46249961853027 14.15833282470703 L 18.01250076293945 14.15833282470703 C 18.21499061584473 14.15833282470703 18.37916946411133 13.99415302276611 18.37916946411133 13.79166316986084 C 18.37916946411133 13.58917331695557 18.21499061584473 13.42500305175781 18.01250076293945 13.42500305175781 L 17.46249961853027 13.42500305175781 M 4.445829391479492 0.2000026702880859 L 10.63333034515381 0.2000026702880859 C 11.6074800491333 0.2000026702880859 12.39999961853027 0.992523193359375 12.39999961853027 1.966663360595703 L 12.39999961853027 3.983333587646484 C 12.39999961853027 4.350933074951172 12.10093021392822 4.649993896484375 11.73332977294922 4.649993896484375 C 11.36573028564453 4.649993896484375 11.06667041778564 4.350933074951172 11.06667041778564 3.983333587646484 L 11.06667041778564 1.966663360595703 C 11.06667041778564 1.727724075317383 10.87226963043213 1.533332824707031 10.63333034515381 1.533332824707031 L 4.445829391479492 1.533332824707031 C 4.206890106201172 1.533332824707031 4.012500762939453 1.727724075317383 4.012500762939453 1.966663360595703 L 4.012500762939453 4.82916259765625 L 5.016670227050781 4.82916259765625 L 5.016670227050781 2.241662979125977 C 5.016670227050781 1.874063491821289 5.315729141235352 1.575002670288086 5.683330535888672 1.575002670288086 C 6.050930023193359 1.575002670288086 6.350000381469727 1.874063491821289 6.350000381469727 2.241662979125977 L 6.350000381469727 4.82916259765625 L 6.987500190734863 4.82916259765625 L 6.987500190734863 2.241662979125977 C 6.987500190734863 1.874063491821289 7.286569595336914 1.575002670288086 7.654170036315918 1.575002670288086 C 8.021769523620605 1.575002670288086 8.320830345153809 1.874063491821289 8.320830345153809 2.241662979125977 L 8.320830345153809 4.82916259765625 L 15.2478084564209 4.82916259765625 C 15.10256767272949 4.325775146484375 15.11540412902832 3.786354064941406 15.28597259521484 3.290142059326172 L 12.99569034576416 2.630832672119141 C 12.64237976074219 2.529073715209961 12.43772983551025 2.158943176269531 12.53946018218994 1.805723190307617 C 12.62110996246338 1.521793365478516 12.88446044921875 1.323413848876953 13.17984962463379 1.323413848876953 C 13.24215984344482 1.323413848876953 13.30428028106689 1.332193374633789 13.36445999145508 1.349514007568359 L 17.52482032775879 2.547143936157227 C 17.97861099243164 2.677803039550781 18.35420989990234 2.977092742919922 18.58245086669922 3.389883041381836 C 18.81069946289063 3.80267333984375 18.86442947387695 4.279903411865234 18.73376083374023 4.733642578125 L 18.70627212524414 4.82916259765625 L 18.92917060852051 4.82916259765625 C 20.10548973083496 4.82916259765625 21.0625 5.786172866821289 21.0625 6.962503433227539 L 21.0625 11.09809494018555 C 21.78324699401855 11.32662582397461 22.29999923706055 12.01037693023682 22.29999923706055 12.78333282470703 L 22.29999923706055 14.80000305175781 C 22.29999923706055 15.77414321899414 21.50790977478027 16.56666374206543 20.53429985046387 16.56666374206543 L 17.00415992736816 16.56666374206543 C 16.03001976013184 16.56666374206543 15.23750019073486 15.77414321899414 15.23750019073486 14.80000305175781 L 15.23750019073486 12.78333282470703 C 15.23750019073486 11.80918312072754 16.03001976013184 11.01666355133057 17.00415992736816 11.01666355133057 L 19.72916984558105 11.01666355133057 L 19.72916984558105 6.962503433227539 C 19.72916984558105 6.521383285522461 19.37029075622559 6.162502288818359 18.92917060852051 6.162502288818359 L 1.833330154418945 6.162502288818359 C 1.392210006713867 6.162502288818359 1.033330917358398 6.521383285522461 1.033330917358398 6.962503433227539 L 1.033330917358398 20.6208324432373 C 1.033330917358398 21.06195259094238 1.392210006713867 21.42083358764648 1.833330154418945 21.42083358764648 L 18.92917060852051 21.42083358764648 C 19.37029075622559 21.42083358764648 19.72916984558105 21.06195259094238 19.72916984558105 20.6208324432373 L 19.72916984558105 17.93958282470703 C 19.72916984558105 17.57198333740234 20.02823066711426 17.27291297912598 20.39583015441895 17.27291297912598 C 20.76342964172363 17.27291297912598 21.0625 17.57198333740234 21.0625 17.93958282470703 L 21.0625 20.6208324432373 C 21.0625 21.79715347290039 20.10548973083496 22.75416374206543 18.92917060852051 22.75416374206543 L 1.833330154418945 22.75416374206543 C 0.6570091247558594 22.75416374206543 -0.2999992370605469 21.79715347290039 -0.2999992370605469 20.6208324432373 L -0.2999992370605469 6.962503433227539 C -0.2999992370605469 5.786172866821289 0.6570091247558594 4.82916259765625 1.833330154418945 4.82916259765625 L 2.679170608520508 4.82916259765625 L 2.679170608520508 1.966663360595703 C 2.679170608520508 0.992523193359375 3.471689224243164 0.2000026702880859 4.445829391479492 0.2000026702880859 Z M 17.31882286071777 4.82916259765625 L 17.45251083374023 4.364772796630859 C 17.5185604095459 4.13519287109375 17.38554000854492 3.894603729248047 17.15596008300781 3.828502655029297 L 16.57037353515625 3.65992546081543 C 16.41214942932129 4.044946670532227 16.46220779418945 4.489776611328125 16.70737838745117 4.82916259765625 L 17.31882286071777 4.82916259765625 Z M 20.53332901000977 15.23333358764648 C 20.77227020263672 15.23333358764648 20.96667098999023 15.03894329071045 20.96667098999023 14.80000305175781 L 20.96667098999023 12.78333282470703 C 20.96667098999023 12.54439353942871 20.77227020263672 12.35000324249268 20.53332901000977 12.35000324249268 L 17.00415992736816 12.35000324249268 C 16.76523017883301 12.35000324249268 16.57083892822266 12.54439353942871 16.57083892822266 12.78333282470703 L 16.57083892822266 14.80000305175781 C 16.57083892822266 15.03894329071045 16.76523017883301 15.23333358764648 17.00415992736816 15.23333358764648 L 20.53332901000977 15.23333358764648 Z M 17.46249961853027 13.12500286102295 L 18.01250076293945 13.12500286102295 C 18.38010025024414 13.12500286102295 18.67917060852051 13.42406368255615 18.67917060852051 13.79166316986084 C 18.67917060852051 14.15926361083984 18.38010025024414 14.45833301544189 18.01250076293945 14.45833301544189 L 17.46249961853027 14.45833301544189 C 17.09490013122559 14.45833301544189 16.79582977294922 14.15926361083984 16.79582977294922 13.79166316986084 C 16.79582977294922 13.42406368255615 17.09490013122559 13.12500286102295 17.46249961853027 13.12500286102295 Z" stroke="none" fill="#5d6174"/>
  </g>
</svg>
