<svg xmlns="http://www.w3.org/2000/svg" width="60" height="60" viewBox="0 0 60 60"><defs><style>.a{fill:#2dbdca;}</style></defs><path class="a" d="M30,0A30,30,0,1,0,60,30,29.983,29.983,0,0,0,30,0Zm0,55.313A25.313,25.313,0,1,1,55.313,30,25.3,25.3,0,0,1,30,55.313Z"/><g transform="translate(27.656 15.103)"><path class="a" d="M238.344,128.877A2.344,2.344,0,0,0,236,131.221v15.093a2.344,2.344,0,0,0,4.688,0V131.221A2.344,2.344,0,0,0,238.344,128.877Z" transform="translate(-236 -128.877)"/></g><g transform="translate(26.836 37.753)"><circle class="a" cx="3.164" cy="3.164" r="3.164"/></g></svg>