<svg xmlns="http://www.w3.org/2000/svg" width="95.751" height="86.795" viewBox="0 0 95.751 86.795"><defs><style>.a{fill:#2c314a;}.b{fill:#f6bb68;}.c{fill:#ff9500;}.d{fill:#fff;}</style></defs><g transform="translate(0 -23.946)"><path class="a" d="M218.267,31.183l33.426,57.9a14.447,14.447,0,0,1-12.519,21.662H205.749l-11.56-43.4,11.56-43.4A14.44,14.44,0,0,1,218.267,31.183Z" transform="translate(-157.873)"/><path class="a" d="M35.357,31.183,1.931,89.079a14.447,14.447,0,0,0,12.519,21.662H47.876V23.946A14.44,14.44,0,0,0,35.357,31.183Z"/><path class="b" d="M298.02,117.116l-33.426-57.9a8.7,8.7,0,0,0-7.265-4.342l28.589,75.231h4.589a8.668,8.668,0,0,0,7.514-12.993Z" transform="translate(-209.205 -25.147)"/><path class="c" d="M108.32,117.091a9.733,9.733,0,0,1,1,4.323c0,4.78-3.354,8.67-7.479,8.67H39.576a8.668,8.668,0,0,1-7.514-12.993L65.488,59.2A8.706,8.706,0,0,1,73,54.847q.124,0,.249.006A7.433,7.433,0,0,1,79.483,59.2Z" transform="translate(-25.126 -25.122)"/><path class="d" d="M256,354.131v9.633a4.816,4.816,0,1,0,0-9.633Z" transform="translate(-208.124 -268.436)"/><path class="d" d="M235.062,354.131c.532,0,.963,2.156.963,4.817s-.432,4.817-.963,4.817a4.817,4.817,0,0,1,0-9.633Z" transform="translate(-187.186 -268.436)"/><path class="d" d="M256,132.646v35.642a4.817,4.817,0,0,0,4.817-4.817V137.463A4.816,4.816,0,0,0,256,132.646Z" transform="translate(-208.124 -88.372)"/><path class="d" d="M235.062,132.646c.532,0,.963,2.156.963,4.817v26.009c0,2.659-.432,4.817-.963,4.817a4.817,4.817,0,0,1-4.817-4.817V137.463A4.816,4.816,0,0,1,235.062,132.646Z" transform="translate(-187.186 -88.372)"/></g></svg>