<svg xmlns="http://www.w3.org/2000/svg" xmlns:xlink="http://www.w3.org/1999/xlink" width="1920" height="1080" viewBox="0 0 1920 1080"><defs><style>.a{fill:#fff;}.b{clip-path:url(#a);}.c{opacity:0.5;}.d{fill:#5a5d63;}.e,.g{fill:#f3872e;}.e,.f{opacity:0.35;}.f{fill:#2dbdca;}</style><clipPath id="a"><rect class="a" width="1920" height="1080"/></clipPath></defs><g class="b"><g transform="translate(-648.875 93.554)"><g class="c" transform="translate(821.234 635.761)"><path class="d" d="M444.107,61.218a3.281,3.281,0,1,1-3.234-2.73A3.014,3.014,0,0,1,444.107,61.218Z" transform="translate(-437.638 -58.488)"/><path class="d" d="M459.413,61.218a3.282,3.282,0,1,1-3.236-2.73A3.016,3.016,0,0,1,459.413,61.218Z" transform="translate(-425.07 -58.488)"/><path class="d" d="M474.719,61.218a3.282,3.282,0,1,1-3.234-2.73A3.014,3.014,0,0,1,474.719,61.218Z" transform="translate(-412.502 -58.488)"/><path class="d" d="M444.107,76.523a3.281,3.281,0,1,1-3.234-2.73A3.014,3.014,0,0,1,444.107,76.523Z" transform="translate(-437.638 -50.266)"/><path class="d" d="M459.413,76.523a3.282,3.282,0,1,1-3.236-2.73A3.016,3.016,0,0,1,459.413,76.523Z" transform="translate(-425.07 -50.266)"/><path class="d" d="M474.719,76.523a3.282,3.282,0,1,1-3.234-2.73A3.014,3.014,0,0,1,474.719,76.523Z" transform="translate(-412.502 -50.266)"/><path class="d" d="M444.107,91.828a3.281,3.281,0,1,1-3.234-2.73A3.015,3.015,0,0,1,444.107,91.828Z" transform="translate(-437.638 -42.045)"/><path class="d" d="M459.413,91.828a3.282,3.282,0,1,1-3.236-2.73A3.017,3.017,0,0,1,459.413,91.828Z" transform="translate(-425.07 -42.045)"/><path class="d" d="M474.719,91.828a3.282,3.282,0,1,1-3.234-2.73A3.015,3.015,0,0,1,474.719,91.828Z" transform="translate(-412.502 -42.045)"/></g><g class="c" transform="translate(2243.234 132.761)"><path class="d" d="M444.107,61.218a3.281,3.281,0,1,1-3.234-2.73A3.014,3.014,0,0,1,444.107,61.218Z" transform="translate(-437.638 -58.488)"/><path class="d" d="M459.413,61.218a3.282,3.282,0,1,1-3.236-2.73A3.016,3.016,0,0,1,459.413,61.218Z" transform="translate(-425.07 -58.488)"/><path class="d" d="M474.719,61.218a3.282,3.282,0,1,1-3.234-2.73A3.014,3.014,0,0,1,474.719,61.218Z" transform="translate(-412.502 -58.488)"/><path class="d" d="M444.107,76.523a3.281,3.281,0,1,1-3.234-2.73A3.014,3.014,0,0,1,444.107,76.523Z" transform="translate(-437.638 -50.266)"/><path class="d" d="M459.413,76.523a3.282,3.282,0,1,1-3.236-2.73A3.016,3.016,0,0,1,459.413,76.523Z" transform="translate(-425.07 -50.266)"/><path class="d" d="M474.719,76.523a3.282,3.282,0,1,1-3.234-2.73A3.014,3.014,0,0,1,474.719,76.523Z" transform="translate(-412.502 -50.266)"/><path class="d" d="M444.107,91.828a3.281,3.281,0,1,1-3.234-2.73A3.015,3.015,0,0,1,444.107,91.828Z" transform="translate(-437.638 -42.045)"/><path class="d" d="M459.413,91.828a3.282,3.282,0,1,1-3.236-2.73A3.017,3.017,0,0,1,459.413,91.828Z" transform="translate(-425.07 -42.045)"/><path class="d" d="M474.719,91.828a3.282,3.282,0,1,1-3.234-2.73A3.015,3.015,0,0,1,474.719,91.828Z" transform="translate(-412.502 -42.045)"/></g></g><path class="e" d="M67,0l67,117H0Z" transform="translate(43.262 445.476) rotate(99)"/><circle class="f" cx="83.5" cy="83.5" r="83.5" transform="translate(0 1027)"/><circle class="f" cx="83.5" cy="83.5" r="83.5" transform="translate(1798 -83)"/><circle class="g" cx="18.5" cy="18.5" r="18.5" transform="translate(65 47)"/><circle class="g" cx="7.5" cy="7.5" r="7.5" transform="translate(28 24)"/><path class="e" d="M85,0l85,147H0Z" transform="translate(1798 933)"/><path class="e" d="M67,0l67,117H0Z" transform="translate(1280.261 -83.524) rotate(99)"/><path class="f" d="M67,0l67,117H0Z" transform="translate(1105.273 1128.663) rotate(150)"/><circle class="g" cx="18.5" cy="18.5" r="18.5" transform="translate(1818 113)"/></g></svg>