<svg xmlns="http://www.w3.org/2000/svg" xmlns:xlink="http://www.w3.org/1999/xlink" width="1920" height="830" viewBox="0 0 1920 830">
  <defs>
    <clipPath id="clip-path">
      <rect id="Rectangle_18" data-name="Rectangle 18" width="1920" height="830" transform="translate(4169 -4003)" fill="none"/>
    </clipPath>
    <clipPath id="clip-path-2">
      <rect id="Rectangle_17" data-name="Rectangle 17" width="1920" height="1080" fill="#fff"/>
    </clipPath>
  </defs>
  <g id="webbg_top" transform="translate(-4169 4003)" clip-path="url(#clip-path)">
    <g id="webBgtest" transform="translate(4169 -4003)" clip-path="url(#clip-path-2)">
      <g id="Group_104" data-name="Group 104" transform="translate(172.312 226.306)">
        <g id="Group_102" data-name="Group 102" transform="translate(0 503)" opacity="0.5">
          <path id="Path_494" data-name="Path 494" d="M444.107,61.218a3.281,3.281,0,1,1-3.234-2.73,3.014,3.014,0,0,1,3.234,2.73Z" transform="translate(-437.591 -58.479)" fill="#5a5d63"/>
          <path id="Path_495" data-name="Path 495" d="M459.413,61.218a3.282,3.282,0,1,1-3.236-2.73A3.016,3.016,0,0,1,459.413,61.218Z" transform="translate(-425.023 -58.479)" fill="#5a5d63"/>
          <path id="Path_496" data-name="Path 496" d="M474.719,61.218a3.282,3.282,0,1,1-3.234-2.73A3.014,3.014,0,0,1,474.719,61.218Z" transform="translate(-412.455 -58.479)" fill="#5a5d63"/>
          <path id="Path_497" data-name="Path 497" d="M444.107,76.523a3.281,3.281,0,1,1-3.234-2.73,3.014,3.014,0,0,1,3.234,2.73Z" transform="translate(-437.591 -50.257)" fill="#5a5d63"/>
          <path id="Path_498" data-name="Path 498" d="M459.413,76.523a3.282,3.282,0,1,1-3.236-2.73A3.016,3.016,0,0,1,459.413,76.523Z" transform="translate(-425.023 -50.257)" fill="#5a5d63"/>
          <path id="Path_499" data-name="Path 499" d="M474.719,76.523a3.282,3.282,0,1,1-3.234-2.73A3.014,3.014,0,0,1,474.719,76.523Z" transform="translate(-412.455 -50.257)" fill="#5a5d63"/>
          <path id="Path_500" data-name="Path 500" d="M444.107,91.828a3.281,3.281,0,1,1-3.234-2.73,3.015,3.015,0,0,1,3.234,2.73Z" transform="translate(-437.591 -42.036)" fill="#5a5d63"/>
          <path id="Path_501" data-name="Path 501" d="M459.413,91.828a3.282,3.282,0,1,1-3.236-2.73,3.017,3.017,0,0,1,3.236,2.73Z" transform="translate(-425.023 -42.036)" fill="#5a5d63"/>
          <path id="Path_502" data-name="Path 502" d="M474.719,91.828a3.282,3.282,0,1,1-3.234-2.73,3.015,3.015,0,0,1,3.234,2.73Z" transform="translate(-412.455 -42.036)" fill="#5a5d63"/>
        </g>
        <g id="Group_103" data-name="Group 103" transform="translate(1422 0)" opacity="0.5">
          <path id="Path_503" data-name="Path 503" d="M444.107,61.218a3.281,3.281,0,1,1-3.234-2.73,3.014,3.014,0,0,1,3.234,2.73Z" transform="translate(-437.591 -58.479)" fill="#5a5d63"/>
          <path id="Path_504" data-name="Path 504" d="M459.413,61.218a3.282,3.282,0,1,1-3.236-2.73A3.016,3.016,0,0,1,459.413,61.218Z" transform="translate(-425.023 -58.479)" fill="#5a5d63"/>
          <path id="Path_505" data-name="Path 505" d="M474.719,61.218a3.282,3.282,0,1,1-3.234-2.73A3.014,3.014,0,0,1,474.719,61.218Z" transform="translate(-412.455 -58.479)" fill="#5a5d63"/>
          <path id="Path_506" data-name="Path 506" d="M444.107,76.523a3.281,3.281,0,1,1-3.234-2.73,3.014,3.014,0,0,1,3.234,2.73Z" transform="translate(-437.591 -50.257)" fill="#5a5d63"/>
          <path id="Path_507" data-name="Path 507" d="M459.413,76.523a3.282,3.282,0,1,1-3.236-2.73A3.016,3.016,0,0,1,459.413,76.523Z" transform="translate(-425.023 -50.257)" fill="#5a5d63"/>
          <path id="Path_508" data-name="Path 508" d="M474.719,76.523a3.282,3.282,0,1,1-3.234-2.73A3.014,3.014,0,0,1,474.719,76.523Z" transform="translate(-412.455 -50.257)" fill="#5a5d63"/>
          <path id="Path_509" data-name="Path 509" d="M444.107,91.828a3.281,3.281,0,1,1-3.234-2.73,3.015,3.015,0,0,1,3.234,2.73Z" transform="translate(-437.591 -42.036)" fill="#5a5d63"/>
          <path id="Path_510" data-name="Path 510" d="M459.413,91.828a3.282,3.282,0,1,1-3.236-2.73,3.017,3.017,0,0,1,3.236,2.73Z" transform="translate(-425.023 -42.036)" fill="#5a5d63"/>
          <path id="Path_511" data-name="Path 511" d="M474.719,91.828a3.282,3.282,0,1,1-3.234-2.73,3.015,3.015,0,0,1,3.234,2.73Z" transform="translate(-412.455 -42.036)" fill="#5a5d63"/>
        </g>
      </g>
      <path id="Path_512" data-name="Path 512" d="M67,0l67,117H0Z" transform="translate(43.262 445.476) rotate(99)" fill="#f3872e" opacity="0.35"/>
      <circle id="Ellipse_82" data-name="Ellipse 82" cx="83.5" cy="83.5" r="83.5" transform="translate(0 1027)" fill="#2dbdca" opacity="0.35"/>
      <path id="Path_516" data-name="Path 516" d="M83.5,0A83.5,83.5,0,1,1,0,83.5,83.5,83.5,0,0,1,83.5,0Z" transform="translate(1798 -83)" fill="#2dbdca" opacity="0.35"/>
      <circle id="Ellipse_84" data-name="Ellipse 84" cx="18.5" cy="18.5" r="18.5" transform="translate(65 47)" fill="#f3872e"/>
      <circle id="Ellipse_85" data-name="Ellipse 85" cx="7.5" cy="7.5" r="7.5" transform="translate(28 24)" fill="#f3872e"/>
      <path id="Path_513" data-name="Path 513" d="M85,0l85,147H0Z" transform="translate(1798 933)" fill="#f3872e" opacity="0.35"/>
      <path id="Path_514" data-name="Path 514" d="M67,0l67,117H0Z" transform="translate(1280.261 -83.524) rotate(99)" fill="#f3872e" opacity="0.35"/>
      <path id="Path_515" data-name="Path 515" d="M67,0l67,117H0Z" transform="translate(1105.273 1128.663) rotate(150)" fill="#2dbdca" opacity="0.35"/>
      <circle id="Ellipse_86" data-name="Ellipse 86" cx="18.5" cy="18.5" r="18.5" transform="translate(1818 113)" fill="#f3872e"/>
    </g>
  </g>
</svg>
