<svg xmlns="http://www.w3.org/2000/svg" xmlns:xlink="http://www.w3.org/1999/xlink" width="1320" height="800" viewBox="0 0 1320 800">
  <defs>
    <clipPath id="clip-path">
      <rect id="Rectangle_1" data-name="Rectangle 1" width="1320" height="800" fill="#fff"/>
    </clipPath>
  </defs>
  <g id="webBg" clip-path="url(#clip-path)">
    <g id="Group_3" data-name="Group 3" transform="translate(118.465 167.634)">
      <g id="Group_1" data-name="Group 1" transform="translate(0 372.593)" opacity="0.5">
        <path id="Path_1" data-name="Path 1" d="M442.071,60.508a2.5,2.5,0,0,1-1.1,2.518,2.128,2.128,0,0,1-2.574-.253,2.554,2.554,0,0,1-.663-2.692,2.27,2.27,0,0,1,2.119-1.6,2.124,2.124,0,0,1,2.223,2.022Z" transform="translate(-437.591 -58.479)" fill="#5a5d63"/>
        <path id="Path_2" data-name="Path 2" d="M457.376,60.508a2.5,2.5,0,0,1-1.1,2.519,2.128,2.128,0,0,1-2.575-.252,2.555,2.555,0,0,1-.664-2.692,2.271,2.271,0,0,1,2.119-1.6,2.126,2.126,0,0,1,2.225,2.022Z" transform="translate(-433.734 -58.479)" fill="#5a5d63"/>
        <path id="Path_3" data-name="Path 3" d="M472.682,60.508a2.5,2.5,0,0,1-1.1,2.519A2.128,2.128,0,0,1,469,62.774a2.555,2.555,0,0,1-.664-2.693,2.271,2.271,0,0,1,2.12-1.6,2.124,2.124,0,0,1,2.223,2.022Z" transform="translate(-429.876 -58.479)" fill="#5a5d63"/>
        <path id="Path_4" data-name="Path 4" d="M442.071,75.813a2.5,2.5,0,0,1-1.1,2.518,2.128,2.128,0,0,1-2.574-.253,2.554,2.554,0,0,1-.663-2.692,2.27,2.27,0,0,1,2.119-1.6,2.124,2.124,0,0,1,2.223,2.022Z" transform="translate(-437.591 -56.356)" fill="#5a5d63"/>
        <path id="Path_5" data-name="Path 5" d="M457.376,75.813a2.5,2.5,0,0,1-1.1,2.519,2.128,2.128,0,0,1-2.575-.252,2.555,2.555,0,0,1-.664-2.692,2.271,2.271,0,0,1,2.119-1.6,2.126,2.126,0,0,1,2.225,2.022Z" transform="translate(-433.734 -56.356)" fill="#5a5d63"/>
        <path id="Path_6" data-name="Path 6" d="M472.682,75.813a2.5,2.5,0,0,1-1.1,2.519A2.128,2.128,0,0,1,469,78.079a2.555,2.555,0,0,1-.664-2.693,2.271,2.271,0,0,1,2.12-1.6,2.124,2.124,0,0,1,2.223,2.022Z" transform="translate(-429.876 -56.356)" fill="#5a5d63"/>
        <path id="Path_7" data-name="Path 7" d="M442.071,91.118a2.5,2.5,0,0,1-1.1,2.518,2.128,2.128,0,0,1-2.574-.253,2.554,2.554,0,0,1-.663-2.692,2.27,2.27,0,0,1,2.119-1.6,2.125,2.125,0,0,1,2.223,2.022Z" transform="translate(-437.591 -54.235)" fill="#5a5d63"/>
        <path id="Path_8" data-name="Path 8" d="M457.376,91.118a2.5,2.5,0,0,1-1.1,2.519,2.128,2.128,0,0,1-2.575-.252,2.555,2.555,0,0,1-.664-2.692,2.271,2.271,0,0,1,2.119-1.6,2.126,2.126,0,0,1,2.225,2.022Z" transform="translate(-433.734 -54.235)" fill="#5a5d63"/>
        <path id="Path_9" data-name="Path 9" d="M472.682,91.118a2.5,2.5,0,0,1-1.1,2.519A2.128,2.128,0,0,1,469,93.384a2.555,2.555,0,0,1-.664-2.693,2.271,2.271,0,0,1,2.12-1.6,2.125,2.125,0,0,1,2.223,2.022Z" transform="translate(-429.876 -54.235)" fill="#5a5d63"/>
      </g>
      <g id="Group_2" data-name="Group 2" transform="translate(977.625 0)" opacity="0.5">
        <path id="Path_10" data-name="Path 10" d="M442.071,60.508a2.5,2.5,0,0,1-1.1,2.518,2.128,2.128,0,0,1-2.574-.253,2.554,2.554,0,0,1-.663-2.692,2.27,2.27,0,0,1,2.119-1.6,2.124,2.124,0,0,1,2.223,2.022Z" transform="translate(-437.591 -58.479)" fill="#5a5d63"/>
        <path id="Path_11" data-name="Path 11" d="M457.376,60.508a2.5,2.5,0,0,1-1.1,2.519,2.128,2.128,0,0,1-2.575-.252,2.555,2.555,0,0,1-.664-2.692,2.271,2.271,0,0,1,2.119-1.6,2.126,2.126,0,0,1,2.225,2.022Z" transform="translate(-433.734 -58.479)" fill="#5a5d63"/>
        <path id="Path_12" data-name="Path 12" d="M472.682,60.508a2.5,2.5,0,0,1-1.1,2.519A2.128,2.128,0,0,1,469,62.774a2.555,2.555,0,0,1-.664-2.693,2.271,2.271,0,0,1,2.12-1.6,2.124,2.124,0,0,1,2.223,2.022Z" transform="translate(-429.876 -58.479)" fill="#5a5d63"/>
        <path id="Path_13" data-name="Path 13" d="M442.071,75.813a2.5,2.5,0,0,1-1.1,2.518,2.128,2.128,0,0,1-2.574-.253,2.554,2.554,0,0,1-.663-2.692,2.27,2.27,0,0,1,2.119-1.6,2.124,2.124,0,0,1,2.223,2.022Z" transform="translate(-437.591 -56.356)" fill="#5a5d63"/>
        <path id="Path_14" data-name="Path 14" d="M457.376,75.813a2.5,2.5,0,0,1-1.1,2.519,2.128,2.128,0,0,1-2.575-.252,2.555,2.555,0,0,1-.664-2.692,2.271,2.271,0,0,1,2.119-1.6,2.126,2.126,0,0,1,2.225,2.022Z" transform="translate(-433.734 -56.356)" fill="#5a5d63"/>
        <path id="Path_15" data-name="Path 15" d="M472.682,75.813a2.5,2.5,0,0,1-1.1,2.519A2.128,2.128,0,0,1,469,78.079a2.555,2.555,0,0,1-.664-2.693,2.271,2.271,0,0,1,2.12-1.6,2.124,2.124,0,0,1,2.223,2.022Z" transform="translate(-429.876 -56.356)" fill="#5a5d63"/>
        <path id="Path_16" data-name="Path 16" d="M442.071,91.118a2.5,2.5,0,0,1-1.1,2.518,2.128,2.128,0,0,1-2.574-.253,2.554,2.554,0,0,1-.663-2.692,2.27,2.27,0,0,1,2.119-1.6,2.125,2.125,0,0,1,2.223,2.022Z" transform="translate(-437.591 -54.235)" fill="#5a5d63"/>
        <path id="Path_17" data-name="Path 17" d="M457.376,91.118a2.5,2.5,0,0,1-1.1,2.519,2.128,2.128,0,0,1-2.575-.252,2.555,2.555,0,0,1-.664-2.692,2.271,2.271,0,0,1,2.119-1.6,2.126,2.126,0,0,1,2.225,2.022Z" transform="translate(-433.734 -54.235)" fill="#5a5d63"/>
        <path id="Path_18" data-name="Path 18" d="M472.682,91.118a2.5,2.5,0,0,1-1.1,2.519A2.128,2.128,0,0,1,469,93.384a2.555,2.555,0,0,1-.664-2.693,2.271,2.271,0,0,1,2.12-1.6,2.125,2.125,0,0,1,2.223,2.022Z" transform="translate(-429.876 -54.235)" fill="#5a5d63"/>
      </g>
    </g>
    <path id="Path_19" data-name="Path 19" d="M49.542-.551l48.58,80.039L-.962,80.59Z" transform="translate(29.743 329.982) rotate(99)" fill="#f3872e" opacity="0.35"/>
    <ellipse id="Ellipse_1" data-name="Ellipse 1" cx="57.5" cy="61.5" rx="57.5" ry="61.5" transform="translate(0 761)" fill="#2dbdca" opacity="0.35"/>
    <ellipse id="Ellipse_2" data-name="Ellipse 2" cx="57.5" cy="61.5" rx="57.5" ry="61.5" transform="translate(1236 -61)" fill="#2dbdca" opacity="0.35"/>
    <ellipse id="Ellipse_3" data-name="Ellipse 3" cx="12.5" cy="13.5" rx="12.5" ry="13.5" transform="translate(45 35)" fill="#f3872e"/>
    <circle id="Ellipse_4" data-name="Ellipse 4" cx="5.5" cy="5.5" r="5.5" transform="translate(19 18)" fill="#f3872e"/>
    <path id="Path_20" data-name="Path 20" d="M58.438,0l58.438,108.889H0Z" transform="translate(1236.125 691.111)" fill="#f3872e" opacity="0.35"/>
    <path id="Path_21" data-name="Path 21" d="M49.542-.551l48.58,80.039L-.962,80.59Z" transform="translate(880.179 -61.87) rotate(99)" fill="#f3872e" opacity="0.35"/>
    <path id="Path_22" data-name="Path 22" d="M46.954-1.545,91.211,82.02-2.7,85.109Z" transform="translate(759.875 836.047) rotate(150)" fill="#2dbdca" opacity="0.35"/>
    <ellipse id="Ellipse_5" data-name="Ellipse 5" cx="12.5" cy="13.5" rx="12.5" ry="13.5" transform="translate(1250 84)" fill="#f3872e"/>
  </g>
</svg>
