<svg xmlns="http://www.w3.org/2000/svg" xmlns:xlink="http://www.w3.org/1999/xlink" width="1920" height="235" viewBox="0 0 1920 235">
  <defs>
    <clipPath id="clip-path">
      <rect id="Rectangle_20" data-name="Rectangle 20" width="1920" height="235" transform="translate(6479 -3139)" fill="none"/>
    </clipPath>
    <clipPath id="clip-path-2">
      <rect id="Rectangle_19" data-name="Rectangle 19" width="1920" height="1080" fill="#fff"/>
    </clipPath>
  </defs>
  <g id="webbg_bottom" transform="translate(-6479 3139)" clip-path="url(#clip-path)">
    <g id="webBgtest" transform="translate(6479 -3984)" clip-path="url(#clip-path-2)">
      <g id="Group_107" data-name="Group 107" transform="translate(172.312 226.306)">
        <g id="Group_105" data-name="Group 105" transform="translate(0 503)" opacity="0.5">
          <path id="Path_517" data-name="Path 517" d="M444.107,61.218a3.281,3.281,0,1,1-3.234-2.73,3.014,3.014,0,0,1,3.234,2.73Z" transform="translate(-437.591 -58.479)" fill="#5a5d63"/>
          <path id="Path_518" data-name="Path 518" d="M459.413,61.218a3.282,3.282,0,1,1-3.236-2.73A3.016,3.016,0,0,1,459.413,61.218Z" transform="translate(-425.023 -58.479)" fill="#5a5d63"/>
          <path id="Path_519" data-name="Path 519" d="M474.719,61.218a3.282,3.282,0,1,1-3.234-2.73A3.014,3.014,0,0,1,474.719,61.218Z" transform="translate(-412.455 -58.479)" fill="#5a5d63"/>
          <path id="Path_520" data-name="Path 520" d="M444.107,76.523a3.281,3.281,0,1,1-3.234-2.73,3.014,3.014,0,0,1,3.234,2.73Z" transform="translate(-437.591 -50.257)" fill="#5a5d63"/>
          <path id="Path_521" data-name="Path 521" d="M459.413,76.523a3.282,3.282,0,1,1-3.236-2.73A3.016,3.016,0,0,1,459.413,76.523Z" transform="translate(-425.023 -50.257)" fill="#5a5d63"/>
          <path id="Path_522" data-name="Path 522" d="M474.719,76.523a3.282,3.282,0,1,1-3.234-2.73A3.014,3.014,0,0,1,474.719,76.523Z" transform="translate(-412.455 -50.257)" fill="#5a5d63"/>
          <path id="Path_523" data-name="Path 523" d="M444.107,91.828a3.281,3.281,0,1,1-3.234-2.73,3.015,3.015,0,0,1,3.234,2.73Z" transform="translate(-437.591 -42.036)" fill="#5a5d63"/>
          <path id="Path_524" data-name="Path 524" d="M459.413,91.828a3.282,3.282,0,1,1-3.236-2.73,3.017,3.017,0,0,1,3.236,2.73Z" transform="translate(-425.023 -42.036)" fill="#5a5d63"/>
          <path id="Path_525" data-name="Path 525" d="M474.719,91.828a3.282,3.282,0,1,1-3.234-2.73,3.015,3.015,0,0,1,3.234,2.73Z" transform="translate(-412.455 -42.036)" fill="#5a5d63"/>
        </g>
        <g id="Group_106" data-name="Group 106" transform="translate(1422 0)" opacity="0.5">
          <path id="Path_526" data-name="Path 526" d="M444.107,61.218a3.281,3.281,0,1,1-3.234-2.73,3.014,3.014,0,0,1,3.234,2.73Z" transform="translate(-437.591 -58.479)" fill="#5a5d63"/>
          <path id="Path_527" data-name="Path 527" d="M459.413,61.218a3.282,3.282,0,1,1-3.236-2.73A3.016,3.016,0,0,1,459.413,61.218Z" transform="translate(-425.023 -58.479)" fill="#5a5d63"/>
          <path id="Path_528" data-name="Path 528" d="M474.719,61.218a3.282,3.282,0,1,1-3.234-2.73A3.014,3.014,0,0,1,474.719,61.218Z" transform="translate(-412.455 -58.479)" fill="#5a5d63"/>
          <path id="Path_529" data-name="Path 529" d="M444.107,76.523a3.281,3.281,0,1,1-3.234-2.73,3.014,3.014,0,0,1,3.234,2.73Z" transform="translate(-437.591 -50.257)" fill="#5a5d63"/>
          <path id="Path_530" data-name="Path 530" d="M459.413,76.523a3.282,3.282,0,1,1-3.236-2.73A3.016,3.016,0,0,1,459.413,76.523Z" transform="translate(-425.023 -50.257)" fill="#5a5d63"/>
          <path id="Path_531" data-name="Path 531" d="M474.719,76.523a3.282,3.282,0,1,1-3.234-2.73A3.014,3.014,0,0,1,474.719,76.523Z" transform="translate(-412.455 -50.257)" fill="#5a5d63"/>
          <path id="Path_532" data-name="Path 532" d="M444.107,91.828a3.281,3.281,0,1,1-3.234-2.73,3.015,3.015,0,0,1,3.234,2.73Z" transform="translate(-437.591 -42.036)" fill="#5a5d63"/>
          <path id="Path_533" data-name="Path 533" d="M459.413,91.828a3.282,3.282,0,1,1-3.236-2.73,3.017,3.017,0,0,1,3.236,2.73Z" transform="translate(-425.023 -42.036)" fill="#5a5d63"/>
          <path id="Path_534" data-name="Path 534" d="M474.719,91.828a3.282,3.282,0,1,1-3.234-2.73,3.015,3.015,0,0,1,3.234,2.73Z" transform="translate(-412.455 -42.036)" fill="#5a5d63"/>
        </g>
      </g>
      <path id="Path_535" data-name="Path 535" d="M67,0l67,117H0Z" transform="translate(43.262 445.476) rotate(99)" fill="#f3872e" opacity="0.35"/>
      <circle id="Ellipse_87" data-name="Ellipse 87" cx="83.5" cy="83.5" r="83.5" transform="translate(0 1027)" fill="#2dbdca" opacity="0.35"/>
      <path id="Path_536" data-name="Path 536" d="M83.5,0A83.5,83.5,0,1,1,0,83.5,83.5,83.5,0,0,1,83.5,0Z" transform="translate(1798 -83)" fill="#2dbdca" opacity="0.35"/>
      <circle id="Ellipse_88" data-name="Ellipse 88" cx="18.5" cy="18.5" r="18.5" transform="translate(65 47)" fill="#f3872e"/>
      <circle id="Ellipse_89" data-name="Ellipse 89" cx="7.5" cy="7.5" r="7.5" transform="translate(28 24)" fill="#f3872e"/>
      <path id="Path_537" data-name="Path 537" d="M85,0l85,147H0Z" transform="translate(1798 933)" fill="#f3872e" opacity="0.35"/>
      <path id="Path_538" data-name="Path 538" d="M67,0l67,117H0Z" transform="translate(1280.261 -83.524) rotate(99)" fill="#f3872e" opacity="0.35"/>
      <path id="Path_539" data-name="Path 539" d="M67,0l67,117H0Z" transform="translate(1105.273 1128.663) rotate(150)" fill="#2dbdca" opacity="0.35"/>
      <circle id="Ellipse_90" data-name="Ellipse 90" cx="18.5" cy="18.5" r="18.5" transform="translate(1818 113)" fill="#f3872e"/>
    </g>
  </g>
</svg>
