<svg xmlns="http://www.w3.org/2000/svg" xmlns:xlink="http://www.w3.org/1999/xlink" width="352.989" height="262.156" viewBox="0 0 352.989 262.156"><defs><style>.a{fill:#d5e7f7;}.ai,.b{fill:#fff;}.c{fill:#2dbdca;opacity:0.38;}.d{fill:#ff9500;opacity:0.46;}.e{fill:#3b9e92;}.f,.p{fill:#7daac6;}.g{fill:#e8f2f9;}.h{fill:#def4f9;}.i{fill:#444;}.j{fill:#8f8f8f;}.k{mix-blend-mode:luminosity;}.af,.ah,.k,.o,.p,.r{isolation:isolate;}.l{fill:url(#a);}.m{fill:url(#b);}.n{fill:url(#c);}.o{mix-blend-mode:overlay;fill:url(#d);}.p{opacity:0.21;}.af,.ah,.p,.r{mix-blend-mode:multiply;}.q{fill:#eaeaea;}.r,.u{fill:#d1d1d1;}.s{fill:#b0b0b0;}.t{fill:#2c2c2c;}.v{fill:#a04f39;}.w{fill:#e1836c;}.x{fill:#cc7256;}.y{fill:#161818;}.z{fill:#474747;}.aa{fill:#ffe57f;}.ab{fill:#fc9e80;}.ac{fill:#d87837;}.ad{fill:#8e4418;}.ad,.af{opacity:0.3;}.ae{fill:#d32f2f;}.af,.ah{fill:#b5b5b5;}.ag{fill:#b2ff59;}.ah,.ai{opacity:0.5;}.aj{fill:#fff9c4;}.ak{fill:#ffc400;}.al{filter:url(#e);}</style><linearGradient id="a" y1="0.5" x2="1" y2="0.5" gradientUnits="objectBoundingBox"><stop offset="0" stop-color="#1a2a5b"/><stop offset="1" stop-color="#2dbdca"/></linearGradient><linearGradient id="b" x1="0.908" y1="0.797" x2="0.068" y2="-0.027" gradientUnits="objectBoundingBox"><stop offset="0" stop-color="#1b7b84"/><stop offset="1" stop-color="#2dbdca"/></linearGradient><linearGradient id="c" x1="0.874" y1="0.757" x2="0.266" y2="0.158" gradientUnits="objectBoundingBox"><stop offset="0" stop-color="#eb7448"/><stop offset="1" stop-color="#430d0d"/></linearGradient><linearGradient id="d" x1="0.5" y1="0.972" x2="0.5" y2="0.26" gradientUnits="objectBoundingBox"><stop offset="0" stop-color="#fff" stop-opacity="0"/><stop offset="1" stop-color="#fff"/></linearGradient><filter id="e" x="195.852" y="34.164" width="29.97" height="29.97" filterUnits="userSpaceOnUse"><feOffset dx="7" dy="7" input="SourceAlpha"/><feGaussianBlur stdDeviation="2.5" result="f"/><feFlood flood-color="#9b1010" flood-opacity="0.451"/><feComposite operator="in" in2="f"/><feComposite in="SourceGraphic"/></filter></defs><g transform="translate(10 39.285)"><g transform="translate(-10 -17.452)"><g transform="translate(4.372 65.026)"><rect class="a" width="28.018" height="38.467" rx="5.413" transform="translate(0 3.648)"/><rect class="b" width="35.264" height="24.815" transform="translate(26.416 5.25) rotate(90)"/><rect class="b" width="31.307" height="20.345" transform="translate(24.181 6.031) rotate(90)"/><path class="a" d="M10.231,2.054a2.974,2.974,0,0,0-5.657,0H0v5.1H14.806v-5.1Z" transform="translate(6.606)"/><g transform="translate(6.433 18.176)"><rect class="a" width="15.152" height="0.54"/><rect class="a" width="15.152" height="0.54" transform="translate(0 2.796)"/><rect class="a" width="15.152" height="0.54" transform="translate(0 5.591)"/><rect class="a" width="15.152" height="0.54" transform="translate(0 8.387)"/><rect class="a" width="15.152" height="0.54" transform="translate(0 11.183)"/><rect class="a" width="7.426" height="0.54" transform="translate(4.302 13.978)"/></g><rect class="a" width="5.728" height="5.728" transform="translate(6.707 10.275)"/></g><path class="a" d="M421.692,210.764c-1.779-1.287-4.29-.312-6.085.952-2.339,1.647-6.735,7.145-7.518,8.134q-3.434,1.651-6.74,3.557a19.265,19.265,0,0,0,3.305-8.613c.1-.785.043-1.765-.667-2.113-.913-.447-1.835.591-2.271,1.509a21.3,21.3,0,0,0-2.013,10.192q-3.54,2.128-6.922,4.5c-1.157.816-2.293,1.658-3.421,2.512a25.277,25.277,0,0,0,3.838-7.623,5.551,5.551,0,0,0,.317-2.49,1.984,1.984,0,0,0-3.642-1.006,5.813,5.813,0,0,0-1,2.17,33.88,33.88,0,0,0-1.328,9.964s-7.325,6.45-11.094,10.092a29.236,29.236,0,0,0,3.754-14.083,4.12,4.12,0,0,0-.294-1.847,1.555,1.555,0,0,0-1.5-.94c-.751.1-1.2.871-1.5,1.566a28.415,28.415,0,0,0-1.829,16.636c-.594.588-1.189,1.178-1.774,1.774-2.682,2.732-5.267,5.555-7.782,8.437a32.787,32.787,0,0,0,3.844-14.194c.042-1.187-.265-2.728-1.44-2.9-.966-.143-1.719.8-2.169,1.67-2.821,5.428-2.676,11.848-2.422,17.968q-3.509,4.14-6.849,8.415-2.491,3.18-4.907,6.411a40.718,40.718,0,0,0,2.232-20.72c-.209-1.332-.745-2.928-2.075-3.168-1.218-.214-2.27.912-2.762,2.045-1.113,2.554-.741,5.478-.347,8.236q1.055,7.368,2.109,14.727c-3.225,4.322-6.38,8.693-9.521,13.067l1.614,1.142c2.924-4.193,5.857-8.377,8.846-12.515A104.616,104.616,0,0,0,372.371,272a10.055,10.055,0,0,0,4.614-1.863c1.269-1.092,1.939-3.07,1.059-4.5-.952-1.532-3.093-1.716-4.892-1.588a34.545,34.545,0,0,0-20.4,8.706q2.477-3.4,5.02-6.757,2.764-3.631,5.637-7.175c2.962.141,13.2.58,17.651.118a7.132,7.132,0,0,0,2.871-.74,2.639,2.639,0,0,0,1.425-2.436,2.6,2.6,0,0,0-1.614-1.958,6.537,6.537,0,0,0-2.607-.412c-5.929-.035-11.606.809-16.452,3.876,3.057-3.7,6.22-7.311,9.533-10.782.529-.554,1.067-1.1,1.6-1.65a37.729,37.729,0,0,0,13.176,2.4c1.053,0,2.266-.123,2.866-.989a2.278,2.278,0,0,0-.426-2.77,5.305,5.305,0,0,0-2.708-1.279,17.3,17.3,0,0,0-12.051,1.764,144.81,144.81,0,0,1,11.355-10.285,26.579,26.579,0,0,0,9.9,3.263c1.408.169,3.3-.126,3.509-1.528.182-1.194-1.078-2.077-2.208-2.5a15.358,15.358,0,0,0-9.912-.266q1.965-1.552,3.989-3.028,3.437-2.5,7.062-4.727c1.266.888,4.909,3.424,6.759,4.471.977.553,2.255,1.092,3.137.4a1.886,1.886,0,0,0,.345-2.3,4.182,4.182,0,0,0-1.85-1.65,14.221,14.221,0,0,0-7.534-1.446c2.479-1.494,5.018-2.889,7.616-4.165A15.684,15.684,0,0,0,418.9,218.9a7.7,7.7,0,0,0,3.738-3.447A3.9,3.9,0,0,0,421.692,210.764Z" transform="translate(-70.036 -129.441)"/><path class="a" d="M53.058.152c-1.9-.645-3.826.879-5.052,2.464-1.6,2.064-3.958,8.039-4.375,9.112q-2.553,2.362-4.925,4.911a17.584,17.584,0,0,0,.573-8.4c-.127-.711-.437-1.551-1.149-1.664-.916-.146-1.442,1.008-1.576,1.926a19.438,19.438,0,0,0,.979,9.431q-2.517,2.807-4.829,5.787c-.79,1.021-1.555,2.061-2.309,3.109a23.07,23.07,0,0,0,1.3-7.679A5.075,5.075,0,0,0,31.3,16.89a2.021,2.021,0,0,0-1.818-1.2,2.029,2.029,0,0,0-1.629,1.3,5.294,5.294,0,0,0-.291,2.162A30.923,30.923,0,0,0,29.081,28.2s-4.659,7.592-6.97,11.78a26.686,26.686,0,0,0-.5-13.292,3.769,3.769,0,0,0-.752-1.532,1.42,1.42,0,0,0-1.557-.419c-.629.288-.813,1.082-.89,1.769a25.931,25.931,0,0,0,2.868,15c-.361.673-.722,1.346-1.072,2.024-1.605,3.1-3.1,6.258-4.525,9.447a29.918,29.918,0,0,0-.455-13.413c-.282-1.047-.963-2.309-2.035-2.145-.881.135-1.284,1.162-1.444,2.039-1,5.491.845,11.052,2.708,16.324q-1.95,4.554-3.717,9.178Q9.418,68.4,8.177,71.871A37.169,37.169,0,0,0,4.565,53.2c-.539-1.106-1.435-2.354-2.659-2.207C.785,51.132.17,52.4.045,53.516c-.285,2.527.823,4.977,1.907,7.278q2.9,6.143,5.791,12.279c-1.654,4.636-3.233,9.3-4.8,13.953l1.714.563c1.425-4.442,2.861-8.878,4.358-13.29a95.468,95.468,0,0,0,17.448-7.5,9.179,9.179,0,0,0,3.525-2.863,3.363,3.363,0,0,0-.283-4.206c-1.242-1.081-3.158-.668-4.694-.073A31.529,31.529,0,0,0,9.555,72.723q1.249-3.634,2.566-7.241,1.437-3.909,2.992-7.771c2.621-.671,11.672-3.036,15.428-4.633a6.508,6.508,0,0,0,2.306-1.415,2.409,2.409,0,0,0,.59-2.507A2.373,2.373,0,0,0,31.5,47.88a5.959,5.959,0,0,0-2.384.34c-5.181,1.56-9.907,3.819-13.312,7.8,1.674-4.048,3.465-8.046,5.423-11.963.313-.626.636-1.247.957-1.869a34.447,34.447,0,0,0,12.138-1.437c.919-.282,1.943-.715,2.234-1.632a2.077,2.077,0,0,0-1.115-2.3,4.831,4.831,0,0,0-2.705-.39A15.786,15.786,0,0,0,22.7,41.2a132.171,132.171,0,0,1,7.146-12.018,24.262,24.262,0,0,0,9.51.19c1.273-.23,2.841-.994,2.651-2.274-.161-1.09-1.5-1.523-2.6-1.592a14.021,14.021,0,0,0-8.717,2.427q1.3-1.88,2.666-3.712,2.329-3.1,4.892-6.018c1.342.435,5.2,1.67,7.1,2.087,1,.22,2.259.347,2.843-.494a1.721,1.721,0,0,0-.315-2.1,3.82,3.82,0,0,0-2.057-.943,12.977,12.977,0,0,0-6.959.76q2.643-2.952,5.526-5.676A14.311,14.311,0,0,0,52.806,8a7.021,7.021,0,0,0,2.336-4.009A3.561,3.561,0,0,0,53.058.152Z" transform="matrix(0.951, -0.309, 0.309, 0.951, 235.273, 59.003)"/><path class="a" d="M433.117,169.715a2.387,2.387,0,1,1-2.387-2.387A2.387,2.387,0,0,1,433.117,169.715Z" transform="translate(-105.35 -137.977)"/><path class="a" d="M431.591,99.888a3.826,3.826,0,1,1-3.826-3.826A3.826,3.826,0,0,1,431.591,99.888Z" transform="translate(-87.816 -42.448)"/><path class="a" d="M423.816,307.667a3.408,3.408,0,1,1-3.409-3.409A3.409,3.409,0,0,1,423.816,307.667Z" transform="translate(-93.628 -257.41)"/><circle class="a" cx="1.394" cy="1.394" r="1.394" transform="translate(323.571 73.986)"/><path class="c" d="M251.644,148.527c-.389-6.272-1.049-12.324-1.853-18.2a323.6,323.6,0,0,0-6.334-33.034,276.985,276.985,0,0,0-9.314-30.451c-4.1-16.467-10.458-31.111-19.872-41.333a38.376,38.376,0,0,0-7.965-6.548c-.752-.763-1.489-1.476-2.2-2.129a47.041,47.041,0,0,0-7.467-5.766c-.7-.414-1.774-1.067-2.846-1.706a7.9,7.9,0,0,1-1.307-.982l-.006-.006c-.216-.2-.456-.419-.738-.645l-.958-.695-1.149-.8-1.386-.8C184.326,3.149,177.8.828,169.152.19a77.772,77.772,0,0,0-14.332.327,120.134,120.134,0,0,0-16.665,3.127,195.706,195.706,0,0,0-38.23,14.85A283.279,283.279,0,0,0,67.513,37.725C41.444,50.509,18.809,66.255,6.2,81.588c-3.242,3.942-2.839,8.861.422,14.433l-.029.044C5.151,98.3,3.741,100.587,2.452,103l-.487.9-.244.452c-.091.18-.206.431-.305.644a11.536,11.536,0,0,0-.564,1.378l-.244.718c-.074.244-.131.5-.194.748a14.744,14.744,0,0,0-.165,6.172,17.736,17.736,0,0,0,1.938,5.312,25.926,25.926,0,0,0,2.862,4.131,43.534,43.534,0,0,0,6.616,6.2,96.587,96.587,0,0,0,14.442,8.94,245.25,245.25,0,0,0,30.976,12.94c10.647,3.711,21.562,7,32.679,9.991,11.328,3.047,22.592,5.708,33.75,8.057,51.54,22.2,101.668,36.3,108.379,24.946,1.481-2.5,3.06-7.984,4.463-15.543a40.78,40.78,0,0,0,4.429-1.267,22.182,22.182,0,0,0,5.249-2.607A14.233,14.233,0,0,0,248.7,172.7a11.349,11.349,0,0,0,2.014-3.6l.255-.906c.086-.3.126-.53.182-.789l.152-.758.113-.711c.081-.483.127-.928.18-1.382s.09-.892.127-1.33c.136-1.746.2-3.427.21-5.073C251.964,154.854,251.83,151.668,251.644,148.527ZM60.917,140.484a240.716,240.716,0,0,1-29.557-12.14,86.649,86.649,0,0,1-12.768-7.728,32.725,32.725,0,0,1-4.923-4.48,10.088,10.088,0,0,1-2.387-4.195,3.492,3.492,0,0,1,.007-1.5c.015-.062.018-.124.038-.187s.048-.128.069-.193a2.056,2.056,0,0,1,.158-.4c.035-.077.046-.122.1-.228l.208-.4.416-.792c.527-1.019,1.089-2.025,1.67-3.022,11.409,11.667,31.59,25.068,55.236,38.007Q65.016,141.893,60.917,140.484Zm59.01-122.739a183.094,183.094,0,0,1,20.041-7.784,125.73,125.73,0,0,1,15.635-3.9A81.014,81.014,0,0,1,169,4.763,51.906,51.906,0,0,1,187.265,7.59l1.429.5,1.222.506,1.059.415.862.375.008,0a5.513,5.513,0,0,1,1.444.879c.907.771,1.8,1.541,2.335,2.08.687.694,1.529,1.552,2.488,2.572C178.265,7.311,149.539,9.615,119.927,17.745Zm121.888,140.21c-.038,1.481-.13,2.943-.268,4.346-.036.349-.069.7-.119,1.03s-.087.676-.147.975l-.081.465-.094.41a3.559,3.559,0,0,1-.093.374l-.047.152-.025.093a2.206,2.206,0,0,1-.156.225,4.7,4.7,0,0,1-.657.53,10.6,10.6,0,0,1-2.008.986,322.87,322.87,0,0,0,2.426-34.522c.551,5.228.985,10.575,1.2,16C241.853,151.992,241.91,155,241.816,157.954Z" transform="translate(29.149 10.645) rotate(3)"/><path class="d" d="M39.061,329.143H34.794v-4.267H31.381v4.267H27.115v3.413h4.267v4.267h3.413v-4.267h4.267Z" transform="translate(-27.115 -174.267)"/><path class="d" d="M459.6,344.133h-4.267v-4.267h-3.413v4.267h-4.267v3.413h4.267v4.267h3.413v-4.267H459.6Z" transform="translate(-160.571 -179.024)"/><path class="d" d="M82.058,111.994H74.317v-7.741H68.124v7.741H60.383v6.193h7.741v7.741h6.193v-7.741h7.741Z" transform="translate(-37.672 -104.253)"/><path class="d" d="M67.77,422.116H60.029v-7.741H53.836v7.741H46.1v6.193h7.741v7.741h6.193v-7.741H67.77Z" transform="translate(-33.138 -202.669)"/><path class="e" d="M276.773,415.5l-.857,2.344-5.576-2.04a2.74,2.74,0,1,0-1.883,5.147l5.575,2.04-.857,2.344,2.851,1.043.857-2.344,19.74,7.222a2.738,2.738,0,0,0,2.783-.545l4,1.462a1.272,1.272,0,0,0,.874-2.39l-4-1.462a2.739,2.739,0,0,0-1.774-2.212l-19.74-7.222.857-2.344Z" transform="translate(-103.133 -203.025)"/><path class="e" d="M202.031,114.81l-.268-2.481,5.9-.638a2.74,2.74,0,0,0-.589-5.449l-5.9.638L200.9,104.4l-3.018.326.268,2.481-20.9,2.26a2.74,2.74,0,0,0-2.254,1.72l-4.23.457a1.272,1.272,0,1,0,.273,2.53l4.23-.457a2.738,2.738,0,0,0,2.569,1.2l20.9-2.26.268,2.481Z" transform="translate(-72.344 -104.3)"/><path class="d" d="M442.3,106.823c-4.327-3.277-8.212,1.272-8.212,1.272s-3.884-4.55-8.212-1.272a7.457,7.457,0,0,0-2.245,9.032c2.584,5.7,10.456,9.567,10.456,9.567s7.872-3.867,10.456-9.567A7.457,7.457,0,0,0,442.3,106.823Z" transform="translate(-152.733 -104.692)"/></g><g transform="translate(-3.178 -39.285)"><g transform="translate(0 0)"><path class="a" d="M38.945,337.4c1.692-1.63,4.5-.974,6.588.1,2.724,1.395,8.206,6.559,9.184,7.489q3.885,1.234,7.673,2.756a20.6,20.6,0,0,1-4.793-8.628c-.22-.816-.31-1.863.39-2.338.9-.611,2.032.351,2.632,1.258a22.784,22.784,0,0,1,3.661,10.495q4.069,1.724,8.008,3.734c1.348.69,2.678,1.413,4,2.148a27.048,27.048,0,0,1-5.21-7.5,5.95,5.95,0,0,1-.709-2.59,2.122,2.122,0,0,1,3.707-1.612,6.194,6.194,0,0,1,1.386,2.148,36.258,36.258,0,0,1,2.9,10.355s8.727,5.734,13.266,9.026a31.28,31.28,0,0,1-6.089-14.355,4.424,4.424,0,0,1,.034-2,1.666,1.666,0,0,1,1.444-1.22c.811-.008,1.4.743,1.826,1.434a30.4,30.4,0,0,1,4.433,17.348c.718.534,1.436,1.069,2.146,1.614,3.25,2.492,6.412,5.093,9.508,7.77a35.076,35.076,0,0,1-6.2-14.459c-.223-1.251-.129-2.93,1.09-3.289,1-.3,1.942.594,2.549,1.444,3.8,5.326,4.612,12.148,5.261,18.67q4.338,3.859,8.518,7.887,3.115,2.994,6.16,6.055a43.573,43.573,0,0,1-5.473-21.614c.022-1.442.351-3.213,1.723-3.667,1.258-.409,2.542.625,3.232,1.752,1.561,2.54,1.607,5.692,1.6,8.673q-.012,7.963-.026,15.916c4.065,4.095,8.063,8.252,12.047,12.413l-1.538,1.453c-3.726-4-7.46-8-11.247-11.931a111.888,111.888,0,0,1-22.252.734,10.746,10.746,0,0,1-5.167-1.281c-1.509-.967-2.515-2.961-1.8-4.6.779-1.765,3.018-2.282,4.944-2.416a36.963,36.963,0,0,1,22.913,6.163q-3.135-3.234-6.331-6.405-3.471-3.432-7.047-6.754c-3.117.594-13.9,2.6-18.68,2.772a7.645,7.645,0,0,1-3.153-.353,2.825,2.825,0,0,1-1.876-2.366,2.784,2.784,0,0,1,1.417-2.317,7.009,7.009,0,0,1,2.7-.827c6.275-.926,12.416-.884,18.01,1.639-3.794-3.461-7.686-6.811-11.716-9.992-.644-.508-1.3-1.006-1.947-1.506a40.36,40.36,0,0,1-13.6,4.523c-1.115.16-2.419.209-3.184-.618a2.436,2.436,0,0,1,.036-3,5.671,5.671,0,0,1,2.677-1.762,18.5,18.5,0,0,1,13.03.061,154.786,154.786,0,0,0-13.571-9.191,28.428,28.428,0,0,1-10,4.94c-1.466.391-3.51.361-3.947-1.092-.372-1.237.83-2.362,1.964-2.984a16.43,16.43,0,0,1,10.459-1.769q-2.314-1.349-4.679-2.61-4.015-2.128-8.19-3.947c-1.207,1.13-4.687,4.363-6.489,5.75-.951.732-2.224,1.494-3.263.893a2.017,2.017,0,0,1-.711-2.381,4.48,4.48,0,0,1,1.712-2.026,15.216,15.216,0,0,1,7.764-2.661c-2.851-1.21-5.749-2.307-8.693-3.269a16.781,16.781,0,0,1-10.848.126,8.234,8.234,0,0,1-4.477-3.091A4.173,4.173,0,0,1,38.945,337.4Z" transform="translate(-37.92 -152.885)"/><g transform="translate(244.426 220.319)"><rect class="a" width="40.941" height="28.995" transform="translate(0 3.594)"/><rect class="f" width="40.509" height="1.032" transform="translate(0 11.565)"/><path class="f" d="M371.838,320.646h-.824v-1.707a1.067,1.067,0,0,0-1.066-1.066h-8.611a1.067,1.067,0,0,0-1.066,1.066v1.707h-.824v-1.707a1.892,1.892,0,0,1,1.89-1.89h8.611a1.892,1.892,0,0,1,1.89,1.89Z" transform="translate(-345.173 -317.049)"/><g transform="translate(16.221 16.793)"><circle class="g" cx="4.034" cy="4.034" r="4.034"/><path class="f" d="M376.187,378.4h-1.419v-1.419h-.893V378.4h-1.419v.893h1.419v1.419h.893V379.3h1.419Z" transform="translate(-370.288 -374.817)"/></g></g><path class="h" d="M234.736,301.167l.135,4.133-.142-4.133Z" transform="translate(-101.518 -141.493)"/><path class="a" d="M92.421,316.2a1.766,1.766,0,1,1-1.765-1.766A1.766,1.766,0,0,1,92.421,316.2Z" transform="translate(-54.391 -145.781)"/><path class="a" d="M71.517,271.232a2.959,2.959,0,1,1-2.959-2.959A2.959,2.959,0,0,1,71.517,271.232Z" transform="translate(-46.864 -130.863)"/><path class="a" d="M245.236,86.068a2.943,2.943,0,1,1-2.944-2.944A2.944,2.944,0,0,1,245.236,86.068Z" transform="translate(-103.011 -71.033)"/><path class="a" d="M429.888,270.518a1.656,1.656,0,1,1-1.656-1.656A1.656,1.656,0,0,1,429.888,270.518Z" transform="translate(-163.513 -131.054)"/><circle class="a" cx="2.789" cy="2.789" r="2.789" transform="translate(214.109 247.731)"/><circle class="a" cx="1.863" cy="1.863" r="1.863" transform="translate(222.475)"/><circle class="a" cx="1.394" cy="1.394" r="1.394" transform="translate(17.046 40.442)"/><g transform="translate(76.158 20.706)"><g transform="translate(0 7.811)"><path class="i" d="M277.772,107.392H174.785a11.3,11.3,0,0,0-11.3,11.3V325.062a11.3,11.3,0,0,0,11.3,11.3H277.772a11.3,11.3,0,0,0,11.3-11.3V118.7A11.3,11.3,0,0,0,277.772,107.392Z" transform="translate(-154.652 -107.392)"/><path class="j" d="M264.728,107.392H161.742a11.3,11.3,0,0,0-11.3,11.3V325.062a11.3,11.3,0,0,0,11.3,11.3H264.728a11.3,11.3,0,0,0,11.3-11.3V118.7A11.3,11.3,0,0,0,264.728,107.392Z" transform="translate(-150.437 -107.392)"/><path class="a" d="M274.35,326.6a8.086,8.086,0,0,1-8.085,8.086H163.279a8.109,8.109,0,0,1-8.086-8.086V120.233a8.085,8.085,0,0,1,8.086-8.086h17.987a7.84,7.84,0,0,1,6.887,4.094l1.668,3.066a5.486,5.486,0,0,0,4.818,2.864H234.91a5.485,5.485,0,0,0,4.819-2.866l1.662-3.06a7.842,7.842,0,0,1,6.89-4.1h17.984a8.085,8.085,0,0,1,8.085,8.086Z" transform="translate(-151.974 -108.929)"/></g><g class="k" transform="translate(99.03)"><path class="l" d="M298.709,72.138l-19.658,9.209s-1.918,26.338,19.723,35.359c22.8-7.4,24.607-35.878,24.607-35.878Z" transform="translate(-276.814 -72.138)"/><path class="m" d="M295,72.138l-21.828,9.209s.188,26.27,21.828,35.29c21.64-9.021,21.828-35.29,21.828-35.29Z" transform="translate(-273.172 -72.138)"/><path class="n" d="M301.337,119.263c-7.2-3.441-12.412-9.506-15.519-18.054a46.764,46.764,0,0,1-2.493-10.891l18.011-7.6,18.011,7.6a46.788,46.788,0,0,1-2.493,10.891C313.749,109.757,308.533,115.823,301.337,119.263Z" transform="translate(-279.509 -78.742)"/><path class="o" d="M287.368,93.134a43.429,43.429,0,0,0,1.228,6.611,33.712,33.712,0,0,0,30.345.659,43.416,43.416,0,0,0,1.41-7.27L303.86,86.177Z" transform="translate(-282.032 -80.9)"/><g class="al" transform="matrix(1, 0, 0, 1, -182.01, -20.71)"><path class="b" d="M326.3,115.1h-5.829v-5.829h-3.312V115.1H311.33v3.312h5.829v5.829h3.312V118.41H326.3Z" transform="translate(-114.98 -74.61)"/></g></g><g transform="translate(51.504 37.475)"><path class="p" d="M297.4,339.224V207.683l-56.464-56.464L226.531,278.954l29.832,68.356h32.955A8.086,8.086,0,0,0,297.4,339.224Z" transform="translate(-226.531 -151.219)"/></g></g></g><g transform="translate(52.18 59.8)"><g transform="translate(17.36)"><g transform="translate(0 103.073)"><path class="b" d="M296.808,340.449h21.726c-.282-1.931-.713-4.393-1.263-7.25-1.445-7.555-3.713-17.865-6.232-28.389-4.93-20.612-10.832-42.025-13.436-45.08-5.072-5.953-19.717-10.9-19.717-10.9l-1.861,26.807c2.161,2.583,4.522,7.834,6.862,14.324C288.911,306.673,294.793,331.6,296.808,340.449Z" transform="translate(-182.692 -248.83)"/><path class="b" d="M189.022,340.449c.651-2.852,1.7-7.367,3.033-12.756,4.386-17.792,11.817-44.963,17.745-52.051l-1.852-26.812s-9.322,3.155-15.671,7.454a19.733,19.733,0,0,0-4.045,3.449c-4.149,4.864-16.7,56.406-20.319,76.948-.251,1.41-.46,2.674-.621,3.768Z" transform="translate(-167.293 -248.829)"/></g><g transform="translate(22.248)"><g transform="translate(4.839 93.013)"><g transform="translate(3.686 10.172)"><g transform="translate(0 0.188)"><path class="b" d="M206.4,311.362c7.845,9.978,11.516,7.483,12.38,15.382.186,1.69-1.266,6.493-3.7,13.754h49.722c-.369-1.1-.722-2.162-1.043-3.148-.029-.083-.054-.171-.079-.254-1.755-5.367-2.736-8.938-2.582-10.352.869-7.9,4.54-5.4,12.38-15.382s-.773-31.6-1.962-35.754,4.1-25.331,4.1-25.331l-2.195-.566-.146-.038-1.924-.494s-14.834,14.937-31.41,19.985c-16.575-5.047-31.409-19.985-31.409-19.985l-1.788.462-2,.515-.474.121s5.284,21.174,4.1,25.331S198.562,301.385,206.4,311.362Z" transform="translate(-203.144 -249.18)"/><g transform="translate(0 21.713)"><path class="q" d="M218.784,330.743c.185,1.69-1.267,6.493-3.7,13.754h3c2.571-4.748,4.562-9.868,3.411-15.013-1.651-7.375-9.134-11.978-12.235-18.866-2.9-6.448-1.565-13.464.043-20.556a22.1,22.1,0,0,0-.749-12.58l-.025-.068a7.894,7.894,0,0,1-.167,2.194c-1.185,4.158-9.8,25.776-1.962,35.754S217.918,322.844,218.784,330.743Z" transform="translate(-203.144 -274.892)"/><path class="q" d="M280.119,274.868a17.024,17.024,0,0,0-1.7,10.941,59.861,59.861,0,0,1,.671,15.055c-.8,8.913-4.569,17.7-11.171,23.743-1.085.993-2.307,2.016-2.627,3.451a6.019,6.019,0,0,0,.9,3.937,35.981,35.981,0,0,0,6.278,8.684c-1.755-5.367-2.736-8.938-2.582-10.352.869-7.9,4.54-5.4,12.38-15.382s-.773-31.6-1.962-35.754a14.908,14.908,0,0,1,.022-4.715Z" transform="translate(-211.934 -274.476)"/></g><path class="r" d="M266.879,320.827c-.283,1.119-3.312,2.924-4.312,3.528a14.447,14.447,0,0,1-11.777,1.367c-2.912-.943-5.622-2.843-8.681-2.776-3.417.074-6.243,2.563-9.425,3.81a13.768,13.768,0,0,1-15.077-3.764,12.669,12.669,0,0,0,15.12,8.1c2.888-.8,5.5-2.6,8.488-2.879,5.455-.515,10.718,4.132,16,2.674C261.319,329.753,266.88,324.764,266.879,320.827Z" transform="translate(-205.192 -259.327)"/><g transform="translate(30.249 43.606)"><g transform="translate(6.693)"><path class="s" d="M247.287,347.693V299.98l-1.106.071v47.641Z" transform="translate(-246.18 -299.98)"/></g><path class="s" d="M242.009,335.894a1.813,1.813,0,1,1-1.813-1.812A1.812,1.812,0,0,1,242.009,335.894Z" transform="translate(-238.383 -304.81)"/></g></g><g transform="translate(14.294)"><path class="t" d="M234.349,305.287a7.352,7.352,0,0,0-6.889-3.579c-1.512-7.591-2.93-14.866-2.767-22.659a86.643,86.643,0,0,1,3.75-22.557c.3-1.033-1.269-1.3-1.609-.334-4.953,14.087-6.09,31.721-1.149,46.015a7.8,7.8,0,0,0-3.174,2.524c-4.077,5.344-2.885,13.118-.809,18.985.907,2.563,4.628,14.535,9.228,9.294.889-1.014-.494-2.575-1.458-1.565-1.79,1.876-4.123-4.758-4.359-5.335a43.99,43.99,0,0,1-2.27-6.75c-.97-4.215-1.525-12.858,3.694-14.73,5.633-2.02,7.889,6.418,9.294,10.387a87.377,87.377,0,0,1,3.3,12.2l-1.361.391c-1.627.469-1.077,3.057.555,2.583l2.615-.76a1.351,1.351,0,0,0,1.011-1.566C240.555,320.436,238.573,311.655,234.349,305.287Z" transform="translate(-219.796 -249.895)"/><path class="t" d="M275.884,295.113a10.692,10.692,0,0,0-7.949-8.518,53.12,53.12,0,0,0-1.372-37.122c-.43-1.047-2.022-.33-1.6.714a51.011,51.011,0,0,1,.7,36.089,10.695,10.695,0,1,0,10.225,8.837Z" transform="translate(-224.733 -248.961)"/><g transform="translate(35.038 42.426)"><path class="u" d="M271.691,303a5.58,5.58,0,1,1-6.463-4.528A5.58,5.58,0,0,1,271.691,303Z" transform="translate(-260.614 -298.387)"/><path class="b" d="M266.013,308.719a3.075,3.075,0,0,0,2.525-.591c-1.637-.675-3.259-2.052-3.2-3.821.044-1.379.756-2.953-1.135-3.174-1.32-.155-1.952.876-2.182,1.978A5.013,5.013,0,0,0,266.013,308.719Z" transform="translate(-260.802 -298.773)"/></g></g></g><path class="u" d="M226.279,238.168s-5.855-2.767-27.43,9.911l41.181,44.334Z" transform="translate(-198.849 -237.224)"/><path class="u" d="M257.277,237.11s20.434,6.171,28.331,10.855L246.825,292.3Z" transform="translate(-205.644 -237.11)"/></g><path class="v" d="M248.047,233.583a21.521,21.521,0,0,1-13.339-2.117c.255-5.321.237-11.746.237-11.746l17.967.222a92.157,92.157,0,0,0,.136,11.043A9.962,9.962,0,0,1,248.047,233.583Z" transform="translate(-199.088 -141.634)"/><g transform="translate(65.637 49.546)"><path class="w" d="M269.678,205.521c3.479-.348,6.012-2.968,7.368-5.162a11.174,11.174,0,0,0,.733-1.388c.994-2.288,1.28-10.221-1.279-12.065-1.793-1.289-3.1.582-3.719,1.821v0a8.389,8.389,0,0,0-.405.938Z" transform="translate(-269.678 -186.471)"/><path class="x" d="M269.678,205.645c3.479-.348,6.012-2.968,7.368-5.162.117-.223.22-.437.307-.639.993-2.288,1.279-10.221-1.28-12.063-1.452-1.047-2.584-.017-3.292,1.07v0a8.39,8.39,0,0,0-.405.938Z" transform="translate(-269.678 -186.594)"/><path class="w" d="M277.755,194.084a4.266,4.266,0,0,1-.118,1.922c-.7,2.663-2.793,4.694-4.8,6.58a8.2,8.2,0,0,0,.7-4.169c-.043-.494-.127-.985-.13-1.481C273.4,194.939,277,190.333,277.755,194.084Z" transform="translate(-270.126 -187.347)"/><g transform="translate(1.706 5.269)"><path class="v" d="M271.665,203.337l.114-.082c.073-.056.19-.13.324-.245a5.132,5.132,0,0,0,.989-1.135,5.752,5.752,0,0,0,.814-2.114,5.514,5.514,0,0,0-.252-2.8,2.772,2.772,0,0,0-.146-.349l-.04-.085c-.009-.021,0-.008-.005-.01v0h0l.006-.015.033-.076.068-.151c.046-.1.092-.2.14-.3a12.425,12.425,0,0,1,.6-1.1c.21-.341.429-.654.644-.94a6.585,6.585,0,0,1,.634-.749,1.281,1.281,0,0,1,.65-.364.841.841,0,0,1,.552.116.6.6,0,0,1,.245.283.621.621,0,0,1,.036.134.419.419,0,0,0-.006-.143.656.656,0,0,0-.207-.362.974.974,0,0,0-.633-.252,1.5,1.5,0,0,0-.86.312,5.9,5.9,0,0,0-.781.711,9.573,9.573,0,0,0-1.483,2.04c-.055.1-.108.205-.161.31l-.077.16-.1.225-.07.159c.018.052.046.1.069.157l.1.227a2.3,2.3,0,0,1,.125.3,5.808,5.808,0,0,1,.324,2.474,6.28,6.28,0,0,1-.531,2.019,5.81,5.81,0,0,1-.757,1.227c-.106.136-.2.229-.264.3Z" transform="translate(-271.665 -192.609)"/></g></g><path class="w" d="M265.378,183.464s-.629,15.423-4.719,21.146c-3.426,4.791-8.285,12.423-16.059,15.022a7.412,7.412,0,0,1-4.688,0c-7.773-2.6-12.633-10.232-16.059-15.022-4.089-5.723-4.718-21.146-4.718-21.146-.033-1.026-.042-2.015-.027-2.973v-.03c.465-29.2,23.15-27.6,23.15-27.6s22.346.207,23.1,29.086C265.372,182.447,265.378,182.949,265.378,183.464Z" transform="translate(-196.878 -132.163)"/><path class="x" d="M265.357,181.949c-.132,2.467-1,15.568-4.7,20.741-3.426,4.791-8.285,12.424-16.058,15.023a7.412,7.412,0,0,1-4.688,0c-7.773-2.6-12.633-10.232-16.059-15.023-4.089-5.722-4.718-21.146-4.718-21.146-.012-.355-.021-.706-.027-1.053v-.03c.465-29.2,23.15-27.6,23.15-27.6S264.6,153.07,265.357,181.949Z" transform="translate(-196.879 -132.163)"/><path class="w" d="M244.473,204.659a3.247,3.247,0,0,1,2.768,1.837.612.612,0,0,1,.073.418c-.06.209-.3.3-.506.365a10.965,10.965,0,0,1-4.555.322C239.512,207.214,243.119,204.611,244.473,204.659Z" transform="translate(-200.015 -139.501)"/><g transform="translate(42.808 56.263)"><path class="v" d="M243.278,205.436s.006-.167.028-.458c.013-.146.027-.324.036-.53s.033-.436.039-.693.028-.531.033-.828.013-.611.023-.939c.005-.659,0-1.375-.006-2.126s-.04-1.466-.069-2.125c-.021-.328-.03-.643-.056-.937s-.041-.573-.064-.827-.045-.485-.064-.69-.037-.383-.054-.528c-.033-.291-.045-.458-.045-.458s.094.134.254.385c.082.124.177.28.275.466s.216.4.321.642.226.512.326.809.2.618.292.96a10.013,10.013,0,0,1,.08,4.567c-.079.345-.157.67-.258.969s-.2.573-.3.82-.206.464-.3.653-.18.348-.258.476C243.367,205.3,243.278,205.436,243.278,205.436Z" transform="translate(-243.082 -194.296)"/></g><g transform="translate(23.677 48.658)"><g transform="translate(0 1.831)"><g transform="translate(6.516 0.135)"><path class="y" d="M234.817,191.867c0,2.286-1.44,4.14-3.215,4.14s-3.216-1.854-3.216-4.14,1.44-4.14,3.216-4.14S234.817,189.58,234.817,191.867Z" transform="translate(-228.385 -187.727)"/></g><path class="y" d="M234.471,190.405a5.963,5.963,0,0,0-4.518-2.833c-1.579-.053-3.056.738-4.586,1.145l-.025.007a4.8,4.8,0,0,1-4.493-1.109l-.049-.045c-.185,1.779,4.094,5.084,4.094,5.084,1.109-2.157,3.938-2.721,6.208-2.073a7.925,7.925,0,0,1,4.914,4.906C235.6,193.641,235.516,191.959,234.471,190.405Z" transform="translate(-220.794 -187.57)"/><path class="b" d="M226.312,190.573l-.7,3.344,5.6-.628Z" transform="translate(-221.477 -187.995)"/></g><g transform="translate(28.628 1.831)"><g transform="translate(2.274 0.135)"><path class="y" d="M256.794,191.867c0,2.286,1.44,4.14,3.216,4.14s3.215-1.854,3.215-4.14-1.439-4.14-3.215-4.14S256.794,189.58,256.794,191.867Z" transform="translate(-256.794 -187.727)"/></g><path class="y" d="M255.69,190.405a5.96,5.96,0,0,1,4.518-2.833c1.579-.053,3.056.738,4.587,1.145l.024.007a4.8,4.8,0,0,0,4.494-1.109l.048-.045c.186,1.779-4.094,5.084-4.094,5.084-1.11-2.157-3.938-2.721-6.209-2.073a7.923,7.923,0,0,0-4.913,4.906C254.56,193.641,254.645,191.959,255.69,190.405Z" transform="translate(-254.145 -187.57)"/><path class="b" d="M265.438,190.573l.7,3.344-5.6-.628Z" transform="translate(-255.051 -187.995)"/></g><g transform="translate(4.233)"><path class="v" d="M236.3,190.282l-.064-.114c-.044-.074-.1-.187-.184-.324a7.673,7.673,0,0,0-.788-1.09,7.6,7.6,0,0,0-7.824-2.42,7.709,7.709,0,0,0-1.267.456c-.148.063-.256.127-.333.163l-.117.058.1-.084c.067-.052.16-.14.294-.233a6.147,6.147,0,0,1,1.205-.694,6.56,6.56,0,0,1,8.228,2.544,6.131,6.131,0,0,1,.6,1.254c.057.152.085.277.111.358Z" transform="translate(-225.725 -185.437)"/></g></g><g transform="translate(52.236 48.658)"><path class="v" d="M254.066,190.282l.064-.114c.044-.074.1-.187.183-.324a7.731,7.731,0,0,1,9.879-3.054c.148.063.256.127.334.163l.117.058-.1-.084c-.067-.052-.16-.14-.294-.233a6.145,6.145,0,0,0-1.205-.694,6.563,6.563,0,0,0-8.228,2.544,6.167,6.167,0,0,0-.6,1.254c-.057.152-.085.277-.111.358Z" transform="translate(-254.066 -185.437)"/></g><g transform="translate(21.397 58.413)"><path class="w" d="M229.22,201.787c-.379,1.011-3.156.906-6.2-.234s-5.213-2.887-4.834-3.9,3.156-.906,6.2.234S229.6,200.775,229.22,201.787Z" transform="translate(-218.139 -196.823)"/><path class="w" d="M272.19,197.433c.415,1-1.683,2.82-4.688,4.071s-5.777,1.458-6.192.46,1.683-2.821,4.688-4.071S271.775,196.435,272.19,197.433Z" transform="translate(-224.245 -196.801)"/></g><g transform="translate(38.188 68.362)"><path class="v" d="M255.952,208.391l-.082.188a4.115,4.115,0,0,1-.292.518,6.6,6.6,0,0,1-1.54,1.582,18.021,18.021,0,0,1-2.754,1.7,16.053,16.053,0,0,1-3.757,1.345,13.591,13.591,0,0,1-4.016.277,12.225,12.225,0,0,1-3.2-.7,10.464,10.464,0,0,1-1.96-.963c-.218-.135-.378-.251-.487-.33l-.164-.121.2.054c.129.037.316.092.561.15a16.242,16.242,0,0,0,2.057.373,20.148,20.148,0,0,0,6.646-.422,37.509,37.509,0,0,0,6.436-2.1,8,8,0,0,0,1.783-1.024,5.357,5.357,0,0,0,.431-.379Z" transform="translate(-237.7 -208.391)"/></g><g transform="translate(45.54 74.358)"><path class="v" d="M250.985,215.377l-.094.195a2.95,2.95,0,0,1-.324.5,3.515,3.515,0,0,1-3.547,1.233,2.958,2.958,0,0,1-.561-.187l-.194-.094s.31-.049.761-.149a15.5,15.5,0,0,0,1.664-.485,15.318,15.318,0,0,0,1.605-.652C250.711,215.531,250.985,215.377,250.985,215.377Z" transform="translate(-246.265 -215.377)"/></g><g transform="translate(24.175 37.961)"><g transform="translate(0 1.27)"><path class="t" d="M235.6,182.131l-.485-.606c-.312-.385-.769-.932-1.361-1.547a14.127,14.127,0,0,0-2.211-1.874,9.586,9.586,0,0,0-3.021-1.365,6.815,6.815,0,0,0-3.169-.083,5.854,5.854,0,0,0-2.4,1.208,5.283,5.283,0,0,0-1.24,1.511c-.055.108-.1.205-.145.289s-.066.161-.092.221l-.077.187s-.005-.07-.014-.2c0-.067-.011-.151-.009-.249l.018-.342a4.8,4.8,0,0,1,.746-2.106,5.889,5.889,0,0,1,2.63-2.22,6.75,6.75,0,0,1,4.27-.284,8.132,8.132,0,0,1,3.644,2.041,9.872,9.872,0,0,1,1.943,2.652,11.576,11.576,0,0,1,.786,2.007c.068.244.117.433.145.562S235.6,182.131,235.6,182.131Z" transform="translate(-221.375 -174.455)"/></g><g transform="translate(26.463)"><path class="t" d="M265.564,178.061l-.107-.174c-.035-.056-.074-.127-.128-.206s-.118-.167-.189-.269a6.048,6.048,0,0,0-1.442-1.372,6.269,6.269,0,0,0-2.55-1,6.686,6.686,0,0,0-3.179.346,7.985,7.985,0,0,0-2.8,1.7,9.732,9.732,0,0,0-1.764,2.251,12.1,12.1,0,0,0-.857,1.864c-.082.233-.147.419-.185.546l-.063.195-.028-.2c-.021-.133-.039-.33-.054-.587a8.247,8.247,0,0,1,.191-2.193,8.045,8.045,0,0,1,1.412-3.064,7.423,7.423,0,0,1,3.446-2.521,6.727,6.727,0,0,1,4.326-.079,6.177,6.177,0,0,1,2.843,1.973,5.285,5.285,0,0,1,1.01,2c.027.127.05.24.07.337s.023.183.031.25Z" transform="translate(-252.204 -172.975)"/></g></g><path class="y" d="M274.279,162.415a54.143,54.143,0,0,1-4.58,7.454,2.254,2.254,0,0,1,.653,4.441,4.688,4.688,0,0,1,1.581,2.931,1.233,1.233,0,0,0-1.108.533,1.125,1.125,0,0,0-.227.635,4.6,4.6,0,0,1,3.4,3.783c.1,1.8-1.808,3.583-3.486,2.92a27.163,27.163,0,0,1,1.006,4.534c-1.28.612-2.819.041-4.117-.533-.241-1.724-.213-3.769-.454-5.494a5.126,5.126,0,0,0-.988-2.827,2.615,2.615,0,0,0-3.115-.519c-.992.547-1.478,2.568-1.618,3.694.488-3.918-.829-7.093-.379-10.25a2.225,2.225,0,0,0-.177-1.655c-.264-.352-.728-.5-1.034-.821-1.108-1.155.436-3.546-.834-4.524a6.951,6.951,0,0,0-1.062-.5c-1.33-.714-1.219-2.628-.923-4.107-.755-.2-1.506-.408-2.262-.608.357-1.265.361-3.129-.936-3.333-.338-.051-.691.046-1.034-.009-1.107-.185-1.3-1.687-1.209-2.809a3.193,3.193,0,0,1-4.58-2.355,3.451,3.451,0,0,1-3.718.923,3.031,3.031,0,0,1-.71-.39,6.478,6.478,0,0,1-1.038,2.263,4.022,4.022,0,0,1-2.421-2.221,6.582,6.582,0,0,1-2.327,2.87c-1.094.607-2.763.342-3.2-.83-.361,2.633-.894,5.554-3.037,7.125a5.152,5.152,0,0,1-6.508-.533,13.8,13.8,0,0,1-.756,5.665c-.769,1.756-2.522,3.24-4.436,3.054a3.6,3.6,0,0,1-1.892,4.441c2.143,2.379.761,6.125-.713,8.966.913-.408,1.845.626,2.077,1.6s.18,2.086.843,2.832a5.235,5.235,0,0,0,2.462,1.113c.871.282,1.8.968,1.7,1.877-.051.445-.348.834-.371,1.284-.042.825.806,1.367,1.474,1.864,1.817,1.358,2.591,4.121,2.531,6.388-.1,3.385-2.054,6.87-5.257,7.96s-7.343-1.08-7.594-4.455a2.864,2.864,0,1,1-5.331-2.058,10.813,10.813,0,0,1-4.311-.742c.139-.246.282-.492.427-.737.5-.885,1.02-1.771,1.53-2.656.278-.487.556-1.108.24-1.572a1.517,1.517,0,0,0-1.088-.492q-3.776-.583-7.552-1.163a1.6,1.6,0,0,1-.946-.367,1.4,1.4,0,0,1-.227-1.163c.515-3.44,4.238-5.244,6.583-7.812a1.269,1.269,0,0,0,.413-.76c.06-1.312-2.67-.464-3.19-1.67q.543-1.55,1.089-3.1c-2.415-1.4-5.827-1.168-7.509-3.4a5.211,5.211,0,0,1-.107-5.433,15.362,15.362,0,0,1,3.806-4.242,4.4,4.4,0,0,1,2.633-1.377,4.633,4.633,0,0,1-1.724-3.834,2.961,2.961,0,0,1,2.322-2.346,10.961,10.961,0,0,1,5.072-16.851,2.927,2.927,0,0,0,1.659-1c.6-1.01-.324-2.494.4-3.412,1.168.343,2.341.682,3.509,1.025a3.929,3.929,0,0,1,4.669-3.352,9.226,9.226,0,0,0,2.476.672c1.914-.074,2.665-2.443,3.885-3.922a6.534,6.534,0,0,1,7.209-1.557,9.037,9.037,0,0,1,1.348.644,8.934,8.934,0,0,1,.849-1.191,6.09,6.09,0,0,1,2.735-1.956c3.273-1.033,6.374,1.822,8.628,4.414a2.1,2.1,0,0,1,2.341-.853,2.718,2.718,0,0,1,4.646.506c2.011-1.724,4.158-3.514,6.763-3.991s5.758.913,6.216,3.523c.413,2.332-1.2,5.3.64,6.8.338.278.751.446,1.089.723,1.646,1.355.477,3.992-.77,5.717a4.141,4.141,0,0,1,4.478,3.639c.181,2.364-1.7,4.358-2.336,6.643a12.588,12.588,0,0,1,5.145-.4,4.318,4.318,0,0,1,3.574,3.31A5.981,5.981,0,0,1,274.279,162.415Z" transform="translate(-193.211 -128.75)"/><path class="t" d="M274.279,162.415a54.143,54.143,0,0,1-4.58,7.454,2.254,2.254,0,0,1,.653,4.441,4.688,4.688,0,0,1,1.581,2.931,1.233,1.233,0,0,0-1.108.533,12.246,12.246,0,0,1-5.73-1.168,2.331,2.331,0,0,1,1.914-3.014c-.56-.213-1.122-.421-1.682-.634a11.733,11.733,0,0,1,1.581-6.676c-1.006.867-2.7.093-3.246-1.117a7.033,7.033,0,0,1-.106-3.922,5.666,5.666,0,0,0-.38-3.881c-1.914,1.1-4.478-.352-5.363-2.378s-.575-4.339-.251-6.523c-1.7,2.118-5.86.774-6-1.937a3.649,3.649,0,0,1-5.716.037c-.714,1.794-4.075,1.039-3.949-.89a3.369,3.369,0,0,1-4.868,1.641c-1.108-.751-2.188-2.272-3.384-1.669a3.27,3.27,0,0,0-1.052,1.275,4.793,4.793,0,0,1-5.6,1.794c-.746-.3-1.58-.784-2.285-.4a2.159,2.159,0,0,0-.821,1.21q-.975,2.573-1.948,5.141l-7.5-1.974c-1.382,2.586-.57,5.734-.686,8.659s-2.282,6.407-5.118,5.688c1.187,1.4,2.429,2.934,2.555,4.761s-1.506,3.858-3.273,3.375c3.153,1.549,3.639,6.652.83,8.767a3.45,3.45,0,0,1,2.73,3.426c-.042.973-.51,1.943-.3,2.893.292,1.312,1.678,2,2.772,2.777s2.031,2.346,1.169,3.374a6.71,6.71,0,0,1-4.163.542c1.956,4.112-1.948,3.667-5.155,4.145-.375.055-.746.106-1.117.157.5-.885,1.02-1.771,1.53-2.656.278-.487.556-1.108.24-1.572a1.517,1.517,0,0,0-1.088-.492q-3.776-.583-7.552-1.163a1.6,1.6,0,0,1-.946-.367,1.4,1.4,0,0,1-.227-1.163c.515-3.44,4.238-5.244,6.583-7.812a1.269,1.269,0,0,0,.413-.76c.06-1.312-2.67-.464-3.19-1.67q.543-1.55,1.089-3.1c-2.132-1.238-5.043-1.2-6.852-2.716a4.033,4.033,0,0,1-.658-.682,5.211,5.211,0,0,1-.107-5.433,15.362,15.362,0,0,1,3.806-4.242,4.4,4.4,0,0,1,2.633-1.377,4.633,4.633,0,0,1-1.724-3.834,2.961,2.961,0,0,1,2.322-2.346,10.961,10.961,0,0,1,5.072-16.851,2.927,2.927,0,0,0,1.659-1c.6-1.01-.324-2.494.4-3.412,1.168.343,2.341.682,3.509,1.025a3.929,3.929,0,0,1,4.669-3.352,9.226,9.226,0,0,0,2.476.672c1.914-.074,2.665-2.443,3.885-3.922a6.534,6.534,0,0,1,7.209-1.557,9.037,9.037,0,0,1,1.348.644,8.934,8.934,0,0,1,.849-1.191,6.09,6.09,0,0,1,2.735-1.956c3.273-1.033,6.374,1.822,8.628,4.414a2.1,2.1,0,0,1,2.341-.853,2.718,2.718,0,0,1,4.646.506c2.011-1.724,4.158-3.514,6.763-3.991s5.758.913,6.216,3.523c.413,2.332-1.2,5.3.64,6.8.338.278.751.446,1.089.723,1.646,1.355.477,3.992-.77,5.717a4.141,4.141,0,0,1,4.478,3.639,5.2,5.2,0,0,1-.361,2.211c-.547,1.479-1.543,2.888-1.974,4.432a12.588,12.588,0,0,1,5.145-.4,4.318,4.318,0,0,1,3.574,3.31A5.981,5.981,0,0,1,274.279,162.415Z" transform="translate(-193.211 -128.75)"/><path class="z" d="M268.442,151.655a29.609,29.609,0,0,1-4.353,1.525c.881-.811.413-2.318-.394-3.2s-1.91-1.562-2.364-2.67c-.621-1.52-.084-3.806-1.6-4.44-1-.417-2.2.333-3.2-.079-1.479-.6-1.159-2.976-2.383-4.006-1.956-1.636-4.858,1.776-7.255.9-1.757-.645-2.337-3.329-4.2-3.509-1.688-.162-2.735,1.9-4.357,2.4-2.327.713-5.29-1.882-7.005-.158-.361.367-.57.876-.954,1.215-1.118.987-2.815.112-4.288-.112a4.683,4.683,0,0,0-4.979,3.074,6.291,6.291,0,0,1-.871,2.337c-.728.834-2,.844-3.1.737a15.677,15.677,0,0,0-5.363-.028c-1.739.44-3.389,1.887-3.375,3.681a7.434,7.434,0,0,1,.06,2.1c-.348,1.191-1.817,1.576-2.744,2.4-1.813,1.6-1.317,4.482-.755,6.828s.8,5.341-1.229,6.657c-1.112.728-2.893.983-3.032,2.3-.088.886.728,1.656.714,2.546-.033,2.22-4.084,2.173-5.382,3.388a8.7,8.7,0,0,0-1.349,2.258,4.033,4.033,0,0,1-.658-.682,5.211,5.211,0,0,1-.107-5.433,15.362,15.362,0,0,1,3.806-4.242,4.4,4.4,0,0,1,2.633-1.377,4.633,4.633,0,0,1-1.724-3.834,2.961,2.961,0,0,1,2.322-2.346,10.961,10.961,0,0,1,5.072-16.851,2.927,2.927,0,0,0,1.659-1c.6-1.01-.324-2.494.4-3.412,1.168.343,2.341.682,3.509,1.025a3.929,3.929,0,0,1,4.669-3.352,9.226,9.226,0,0,0,2.476.672c1.914-.074,2.665-2.443,3.885-3.922a6.534,6.534,0,0,1,7.209-1.557,9.037,9.037,0,0,1,1.348.644,8.934,8.934,0,0,1,.849-1.191,6.09,6.09,0,0,1,2.735-1.956c3.273-1.033,6.374,1.822,8.628,4.414a2.1,2.1,0,0,1,2.341-.853,2.718,2.718,0,0,1,4.646.506c2.011-1.724,4.158-3.514,6.763-3.991s5.758.913,6.216,3.523c.413,2.332-1.2,5.3.64,6.8.338.278.751.446,1.089.723,1.646,1.355.477,3.992-.77,5.717a4.141,4.141,0,0,1,4.478,3.639A5.2,5.2,0,0,1,268.442,151.655Z" transform="translate(-193.211 -128.75)"/><g transform="translate(32.27 89.352)"><path class="x" d="M255.009,236.506h0a2.262,2.262,0,0,1-2.337-2.021l-.175-1.641a9.97,9.97,0,0,1-5,2.6,21.521,21.521,0,0,1-13.339-2.117c-.015.3-.03.6-.045.889a3.439,3.439,0,0,1-3.3,3.236h0s1.016,4.794,2.533,11.555c3.184,14.23,8.556,37.2,11.218,42.69,0,0,5.888-23.259,8.828-40.393C254.458,245.106,255.137,239.711,255.009,236.506Z" transform="translate(-230.805 -232.844)"/><path class="aa" d="M253.8,253.968c-2.941,17.135-8.828,40.393-8.828,40.393-2.662-5.494-8.034-28.46-11.218-42.69a18.707,18.707,0,0,0,5.458,2.676c4.593,1.338,9.508.558,14.216-.307C253.552,254.018,253.681,254,253.8,253.968Z" transform="translate(-231.223 -235.51)"/></g></g><g transform="translate(0 110.527)"><path class="q" d="M177.125,341.678a25.735,25.735,0,0,1-.835-8.258c0-.08.008-.167.008-.246.008-.287.023-.573.039-.851.008-.485.032-.969.064-1.462a137.491,137.491,0,0,1,2.94-21.059c2.861-13.637,7.1-26.939,10.132-40.528.676-3.06,2.289-7.685,2.805-11.761a19.733,19.733,0,0,0-4.045,3.449c-4.149,4.864-16.7,56.406-20.319,76.948-.251,1.41-.46,2.674-.621,3.768Z" transform="translate(-167.293 -257.513)"/></g></g><g transform="translate(0 107.212)"><path class="x" d="M173.939,304.489c.125-.256.251-.5.378-.752.056-.217.112-.427.167-.644.148-.574.285-1.151.4-1.727.008-.008,0-.011,0-.019a43.665,43.665,0,0,0,.791-10.842c-.239-5.126-1.3-9.218-2.3-10.581-1.894-2.583-6.809-15.4-7.616-14.537a5.54,5.54,0,0,0-.924,5.4c.909,2.143,4.127,10.311,2.714,12.247s-12.373-12.675-12.97-15.773c-.534-2.761-5.974-13.781-7.251-13.608-.162.021-.253.221-.264.622-.109,3.675,5.543,26.647,5.543,26.647s5.048,8.276,8.987,15.507l0,0c.4.747.8,1.482,1.179,2.2.168.314.328.621.484.924.19.37.372.725.549,1.077.734,1.448,1.347,2.746,1.765,3.785l6.071.051Z" transform="translate(-147.069 -253.652)"/><path class="ab" d="M167.54,316.446l-.332-6.809,10.128,1.385a60.2,60.2,0,0,1,1.921,8.358Z" transform="translate(-149.921 -261.581)"/><path class="aa" d="M162.679,313.141l-2.252-6.836,20.671-1.417-1.6,8.948Z" transform="translate(-148.961 -260.908)"/><path class="b" d="M159.546,312.027,163.5,349.24h22.939l-4.433-38.334-18.054.9Z" transform="translate(-148.836 -261.76)"/><path class="q" d="M164.682,311.81c4.844,6.48,7.513,14.411,9.3,22.334,1.12,5,1.943,10.059,2.91,15.1H187.17l-4.433-38.333Z" transform="translate(-149.564 -261.76)"/></g><g transform="translate(108.006 129.794)"><g transform="translate(0)"><path class="u" d="M311.626,288.22l.6-2.428a3.929,3.929,0,0,1,4.757-2.875l4.991,1.231a3.93,3.93,0,0,1,2.875,4.756l-.6,2.428,2.637.651.827-3.353a5.6,5.6,0,0,0-4.094-6.773l-7.029-1.734a5.6,5.6,0,0,0-6.773,4.094l-.827,3.352Z" transform="translate(-278.007 -279.959)"/><path class="ac" d="M338.376,293.135l-12.785,51.854H272.9l1.952-7.927,13.86-56.178,45.233,11.16Z" transform="translate(-272.895 -280.09)"/></g><path class="ad" d="M338.376,294.976,325.592,346.83h-52.7l1.952-7.927c10.618,1.238,48.028,2.089,59.093-45.018Z" transform="translate(-272.895 -281.931)"/></g></g></g><g transform="translate(86.316 2.667)"><path class="b" d="M119.607,138.935a8.048,8.048,0,0,0,3.112-6.236c-.069-5.016-5.449-9.009-12.018-8.919s-11.837,4.229-11.768,9.245,5.449,9.008,12.018,8.918a14.89,14.89,0,0,0,5.384-1.064l6.541,3.2Z" transform="translate(-98.933 -123.779)"/><g transform="translate(4.993 5.039)"><rect class="t" width="13.956" height="0.727"/><rect class="t" width="13.956" height="0.727" transform="translate(0 3.201)"/><rect class="t" width="13.956" height="0.727" transform="translate(0 6.402)"/></g></g><g transform="translate(23.259 36.241) rotate(-39)"><path class="b" d="M4.047,39.294,24.237,1.8a3.43,3.43,0,0,1,4.7-1.361,3.5,3.5,0,0,1,1.284,4.714L10.085,42.546A5.794,5.794,0,0,1,7.81,44.857L5.617,46.083,2.189,52.45A1.173,1.173,0,0,1,.543,52.9a1.215,1.215,0,0,1-.39-1.615l3.4-6.311-.08-1.115-.1-1.391A5.8,5.8,0,0,1,4.047,39.294Z"/><path class="q" d="M0,8.974,3.862,1.8a3.43,3.43,0,0,1,4.7-1.36A3.5,3.5,0,0,1,9.847,5.154L6.039,12.226Z" transform="translate(20.375 0.001)"/><path class="q" d="M4.047.092,4.1,0l6.039,3.251-.051.093A5.794,5.794,0,0,1,7.81,5.655L5.617,6.882,2.189,13.249A1.173,1.173,0,0,1,.543,13.7a1.215,1.215,0,0,1-.39-1.615l3.4-6.311L3.37,3.264A5.8,5.8,0,0,1,4.047.092Z" transform="translate(0 39.201)"/><rect class="ae" width="0.78" height="41.858" transform="matrix(-0.88, -0.474, 0.474, -0.88, 3.135, 49.041)"/><path class="t" d="M.154,4.688,2.679,0,4.744,1.112,2.189,5.857A1.174,1.174,0,0,1,.543,6.3,1.216,1.216,0,0,1,.154,4.688Z" transform="translate(0.001 46.594)"/><g transform="translate(6.01 14.439)"><rect class="t" width="1.678" height="0.704" transform="matrix(-0.88, -0.474, 0.474, -0.88, 1.477, 22.005)"/><rect class="t" width="1.678" height="0.704" transform="translate(3.325 18.573) rotate(-151.697)"/><rect class="t" width="1.678" height="0.704" transform="matrix(-0.88, -0.474, 0.474, -0.88, 5.173, 15.142)"/><rect class="t" width="1.678" height="0.704" transform="matrix(-0.88, -0.474, 0.474, -0.88, 7.021, 11.71)"/><rect class="t" width="1.678" height="0.704" transform="matrix(-0.88, -0.474, 0.474, -0.88, 8.869, 8.278)"/><rect class="t" width="1.678" height="0.704" transform="translate(10.717 4.847) rotate(-151.697)"/><rect class="t" width="1.678" height="0.704" transform="matrix(-0.88, -0.474, 0.474, -0.88, 12.565, 1.415)"/></g><path class="af" d="M19.262,11.039,24.237,1.8a3.43,3.43,0,0,1,4.7-1.361,3.5,3.5,0,0,1,1.284,4.714L10.085,42.546A5.794,5.794,0,0,1,7.81,44.857L5.617,46.083,2.189,52.45A1.173,1.173,0,0,1,.543,52.9a1.215,1.215,0,0,1-.39-1.615l3.4-6.311-.08-1.115a11.577,11.577,0,0,0,5.434-2.9,30.772,30.772,0,0,0,5.372-7.427,57.15,57.15,0,0,0,4.664-9.347A19.739,19.739,0,0,0,20.015,13.9C19.828,12.94,19.546,11.992,19.262,11.039Z"/></g><g transform="translate(232.185 -29.505)"><path class="b" d="M408.274,155.427l12.577,5.25a5.111,5.111,0,0,0,3.938-9.434l-12.578-5.249a5.111,5.111,0,0,0-3.937,9.433Z" transform="translate(-405.131 -145.598)"/><path class="ag" d="M408.274,155.427l6.289,2.625,3.937-9.433-6.289-2.625a5.111,5.111,0,0,0-3.937,9.433Z" transform="translate(-405.131 -145.598)"/><path class="ah" d="M408.274,156.59l12.577,5.25a5.111,5.111,0,0,0,6.685-2.748,5,5,0,0,0,.229-.682,5.109,5.109,0,0,1-6.361,2.106l-12.577-5.249a5.11,5.11,0,0,1-2.976-6,4.914,4.914,0,0,0-.324.642,5.112,5.112,0,0,0,2.748,6.685Z" transform="translate(-405.131 -146.761)"/><path class="ai" d="M424.625,151.813,413.2,147.044c-2.366-.988-4.977-.132-5.829,1.912a3.418,3.418,0,0,0-.173.537,4.474,4.474,0,0,1,5.569-1.411l11.427,4.769a5.019,5.019,0,0,1,2.577,2.349,3.815,3.815,0,0,1,.337,2.6,3.386,3.386,0,0,0,.261-.5,3.74,3.74,0,0,0-.164-3.14A5.01,5.01,0,0,0,424.625,151.813Z" transform="translate(-405.786 -145.927)"/></g><g transform="translate(231.797 -10.719)"><path class="aa" d="M410.964,193.173l13.188-3.442a5.111,5.111,0,0,0-2.582-9.89l-13.187,3.442a5.111,5.111,0,0,0,2.581,9.89Z" transform="translate(-404.562 -179.674)"/><path class="ae" d="M410.964,194.05l6.594-1.721-2.581-9.89-6.594,1.721a5.111,5.111,0,0,0,2.581,9.89Z" transform="translate(-404.562 -180.551)"/><path class="ah" d="M410.98,194.633l13.188-3.442a5.111,5.111,0,0,0,3.654-6.235,4.9,4.9,0,0,0-.231-.681,5.109,5.109,0,0,1-3.785,5.529l-13.187,3.442a5.11,5.11,0,0,1-6-2.974,5.006,5.006,0,0,0,.131.707,5.113,5.113,0,0,0,6.235,3.654Z" transform="translate(-404.578 -181.134)"/><path class="ai" d="M421.5,180.845l-11.981,3.127c-2.481.647-4.039,2.909-3.48,5.052a3.439,3.439,0,0,0,.188.532,4.474,4.474,0,0,1,3.576-4.5l11.981-3.127a5.02,5.02,0,0,1,3.473.308,3.811,3.811,0,0,1,1.845,1.867,3.368,3.368,0,0,0-.1-.556,3.745,3.745,0,0,0-2.032-2.4A5.016,5.016,0,0,0,421.5,180.845Z" transform="translate(-404.993 -179.99)"/></g><g transform="translate(28.03 205.159)"><path class="aj" d="M103.406,431.578a8.853,8.853,0,0,0-11.143,1.778l14.971,8.836A8.852,8.852,0,0,0,103.406,431.578Z" transform="translate(-90.052 -430.349)"/><path class="ak" d="M89.551,438.926a8.847,8.847,0,0,0,14.975,8.839Z" transform="translate(-89.024 -433.071)"/><path class="aa" d="M106.062,443.612a8.954,8.954,0,0,0,.389-.929l-.928-.547a7.791,7.791,0,0,0-13.115-7.741l-.928-.548a8.88,8.88,0,0,0-.625.79c-.129.179-.248.365-.362.557h0c-.113.193-.218.386-.31.582a8.7,8.7,0,0,0-.386.918l.927.547a7.791,7.791,0,0,0,13.121,7.744l.928.547a8.684,8.684,0,0,0,.617-.782c.127-.175.246-.36.359-.552h0C105.862,444,105.967,443.811,106.062,443.612Z" transform="translate(-89.269 -430.839)"/><path class="ak" d="M105.928,445.472c-.113.193-.232.378-.36.554l-15.206-8.975c.092-.2.2-.39.311-.583s.233-.378.362-.557l15.207,8.976C106.146,445.086,106.042,445.28,105.928,445.472Z" transform="translate(-89.449 -432.114)"/></g><g transform="translate(45.211 192.032)"><path class="aj" d="M118.279,411.784a7.079,7.079,0,0,0-3.87,8.152l12.6-5.872A7.079,7.079,0,0,0,118.279,411.784Z" transform="translate(-114.193 -411.12)"/><path class="ak" d="M116.144,424.818a7.076,7.076,0,0,0,12.607-5.874Z" transform="translate(-114.812 -413.603)"/><path class="aa" d="M127.548,415.133a6.988,6.988,0,0,0-.436-.677l-.781.364a6.231,6.231,0,0,0-11.04,5.145l-.781.364a7.077,7.077,0,0,0,.238.769c.059.167.128.328.2.491h0c.075.162.156.318.243.468a7.062,7.062,0,0,0,.431.67l.781-.364a6.231,6.231,0,0,0,11.045-5.147l.781-.364a7.135,7.135,0,0,0-.237-.761c-.058-.162-.126-.324-.2-.487h0C127.717,415.442,127.637,415.285,127.548,415.133Z" transform="translate(-114.293 -411.512)"/><path class="ak" d="M127.9,416.9c.076.162.144.324.2.487l-12.8,5.965c-.087-.15-.168-.306-.244-.469s-.144-.324-.2-.491l12.8-5.964C127.748,416.577,127.828,416.733,127.9,416.9Z" transform="translate(-114.404 -412.803)"/></g></g></svg>