<svg xmlns="http://www.w3.org/2000/svg" width="31.285" height="47.81" viewBox="0 0 31.285 47.81"><defs><style>.a{fill:#2dbdca;}</style></defs><g transform="translate(0 0)"><path class="a" d="M6.134,40.665A17.562,17.562,0,0,0,4.79,47.013a.8.8,0,0,0,.8.8H29.492a.8.8,0,0,0,.786-.928c-.065-.4-1.649-9.753-4.854-16.161a12.341,12.341,0,0,1-1.092-5.169,49.183,49.183,0,0,0,5.1.741l.06,0a.8.8,0,0,0,.773-.6c1.284-5.132,1.051-12.239.9-16.941-.041-1.251-.08-2.336-.08-3.155a6.056,6.056,0,0,0-1.708-4.207A4.31,4.31,0,0,0,26.265,0H16.876a2.375,2.375,0,0,0-2.045,1.156,14.541,14.541,0,0,1-4.212,4.575,7.368,7.368,0,0,1-1.342.7,4.709,4.709,0,0,0-2.991,4.644A5.614,5.614,0,0,0,8.109,15.02a4.368,4.368,0,0,0-.488.208,3.594,3.594,0,0,0-1.937,2.417A12.638,12.638,0,0,0,.009,28.686C.009,35.3,3.2,38.823,6.134,40.665ZM16.193,1.981a.8.8,0,0,1,.683-.387h3.8c-.166,1.543-.877,4.781-3.931,4.781a20.687,20.687,0,0,1-3.871-.367,17.69,17.69,0,0,0,3.321-4.026ZM7.878,11.022A3.108,3.108,0,0,1,9.863,7.914a8.925,8.925,0,0,0,1.306-.663,22.049,22.049,0,0,0,5.578.717c3.977,0,5.312-3.806,5.538-6.375h1.427a42.466,42.466,0,0,0-.76,16.057,27.641,27.641,0,0,0-3.736-.46,14.146,14.146,0,0,1-3.014-.417c-.669-.223-1.355-.5-2.011-.776a18.344,18.344,0,0,0-3.217-1.1,4.308,4.308,0,0,1-3.1-3.872Zm.456,5.628a3.393,3.393,0,0,1,2.2-.222.846.846,0,0,0,.2.041,17.929,17.929,0,0,1,2.845,1c.685.282,1.394.575,2.116.815a15.03,15.03,0,0,0,3.4.493c2.27.17,4.845.362,6.733,1.779a.8.8,0,1,0,.956-1.275,8.435,8.435,0,0,0-2.131-1.134,40.28,40.28,0,0,1,.692-16.556h.921a2.789,2.789,0,0,1,1.973.909,4.542,4.542,0,0,1,1.254,3.075c0,.851.036,1.955.08,3.226.144,4.408.359,10.968-.694,15.832-2.414-.27-10.811-1.448-18.04-5.366A7.036,7.036,0,0,0,7.37,17.61a2.05,2.05,0,0,1,.964-.956ZM6.372,19.124h.012A5.351,5.351,0,0,1,9.8,20.484a.822.822,0,0,0,.182.136,49.359,49.359,0,0,0,12.733,4.6,14.129,14.129,0,0,0,1.275,6.215c2.528,5.049,4.055,12.247,4.542,14.784H6.425A15.932,15.932,0,0,1,7.54,41.435a18.378,18.378,0,0,0,7.884,1.713,19.892,19.892,0,0,0,2.207-.123.8.8,0,0,0-.177-1.584,16.953,16.953,0,0,1-9.9-1.784C4.839,38.144,1.6,35.014,1.6,28.686a11.006,11.006,0,0,1,4.769-9.562Z" transform="translate(0 0)"/><path class="a" d="M4.419,9.75c.453.378.934.78,1.44,1.214a.8.8,0,0,0,1.036,0c.506-.433.987-.836,1.44-1.214C11,7.53,12.752,6.064,12.752,3.791A3.653,3.653,0,0,0,9.166,0,3.83,3.83,0,0,0,6.377,1.2,3.83,3.83,0,0,0,3.588,0,3.653,3.653,0,0,0,0,3.791C0,6.064,1.756,7.53,4.419,9.75Zm-.83-8.156A2.464,2.464,0,0,1,5.667,2.878a.8.8,0,0,0,.706.434h0a.8.8,0,0,0,.709-.434,2.463,2.463,0,0,1,2.08-1.284,2.057,2.057,0,0,1,1.992,2.2c0,1.527-1.446,2.735-3.843,4.736-.3.251-.614.512-.938.786-.324-.274-.637-.535-.938-.786-2.4-2-3.843-3.209-3.843-4.736a2.057,2.057,0,0,1,1.992-2.2Z" transform="translate(3.991 25.499)"/></g></svg>