<svg xmlns="http://www.w3.org/2000/svg" width="106.047" height="101.796" viewBox="0 0 106.047 101.796"><defs><style>.a{fill:#2dbdca;}</style></defs><g transform="translate(0 -10.262)"><g transform="translate(0 10.262)"><path class="a" d="M105.842,66.058A41.805,41.805,0,0,0,73.334,29.4V24.138a7.042,7.042,0,0,0-1.7-13.876H56.721a7.042,7.042,0,0,0-1.7,13.876v5.277a41.589,41.589,0,0,0-20.4,11.22,42.04,42.04,0,0,0-3.517,3.991c-.052,0-.1-.008-.157-.008H16.19a2.071,2.071,0,1,0,0,4.143h12.1a41.522,41.522,0,0,0-3.675,7.961H2.071a2.071,2.071,0,0,0,0,4.143H23.443a42.114,42.114,0,0,0-1.028,7.961H13.256a2.071,2.071,0,0,0,0,4.143h9.225a42.052,42.052,0,0,0,1.293,7.961H10.356a2.071,2.071,0,1,0,0,4.143H25.1a41.834,41.834,0,0,0,34.977,26.784q2.052.2,4.105.2a41.94,41.94,0,0,0,22.833-6.748,2.071,2.071,0,1,0-2.261-3.471,37.7,37.7,0,1,1,11.1-11.117,2.071,2.071,0,1,0,3.474,2.256A41.973,41.973,0,0,0,105.842,66.058ZM53.822,17.3a2.9,2.9,0,0,1,2.9-2.9H71.634a2.9,2.9,0,1,1,0,5.8H56.721A2.9,2.9,0,0,1,53.822,17.3Zm5.342,11.4V24.347H69.192V28.7A42.2,42.2,0,0,0,59.164,28.7Z" transform="translate(0 -10.262)"/><path class="a" d="M437.841,425.5a2.072,2.072,0,1,0,1.464.607A2.083,2.083,0,0,0,437.841,425.5Z" transform="translate(-345.511 -339.493)"/><path class="a" d="M187,144.609a32.131,32.131,0,1,0,32.131,32.131A32.168,32.168,0,0,0,187,144.609Zm0,60.12a27.989,27.989,0,1,1,27.989-27.989A28.02,28.02,0,0,1,187,204.729Z" transform="translate(-122.794 -116.782)"/><path class="a" d="M281.109,220.018,270.85,230.277a6.42,6.42,0,0,0-5.686,0l-4.591-4.591a2.071,2.071,0,0,0-2.929,2.929l4.591,4.591a6.436,6.436,0,1,0,11.545,0l9.958-9.958h0l.3-.3a2.071,2.071,0,0,0-2.929-2.929Zm-13.1,18.325a2.294,2.294,0,1,1,2.294-2.294A2.3,2.3,0,0,1,268.007,238.343Z" transform="translate(-203.797 -176.091)"/><path class="a" d="M401.645,289.86h-1.919a2.071,2.071,0,1,0,0,4.143h1.919a2.071,2.071,0,1,0,0-4.143Z" transform="translate(-315.29 -231.948)"/><path class="a" d="M197.072,289.616h-1.919a2.071,2.071,0,0,0,0,4.143h1.919a2.071,2.071,0,0,0,0-4.143Z" transform="translate(-153.09 -231.754)"/><path class="a" d="M302.194,188.88a2.071,2.071,0,0,0,2.071-2.071V184.89a2.071,2.071,0,1,0-4.143,0v1.919A2.071,2.071,0,0,0,302.194,188.88Z" transform="translate(-237.96 -147.078)"/><path class="a" d="M301.95,387.393a2.071,2.071,0,0,0-2.071,2.071v1.919a2.071,2.071,0,1,0,4.143,0v-1.919A2.071,2.071,0,0,0,301.95,387.393Z" transform="translate(-237.766 -309.279)"/><path class="a" d="M2.071,351.44a2.071,2.071,0,1,0,1.464,3.536,2.071,2.071,0,0,0-1.464-3.536Z" transform="translate(0 -280.773)"/></g></g></svg>