<svg xmlns="http://www.w3.org/2000/svg" width="41.563" height="46.48" viewBox="0 0 41.563 46.48"><defs><style>.a{fill:#2dbdca;}</style></defs><g transform="translate(-0.5 0.001)"><path class="a" d="M41.6,34.548l-1.647-2.6a.908.908,0,1,0-1.534.972l1.647,2.6a1.172,1.172,0,0,1-1.949,1.3l-7.1-10.1-2.815-6.714v-.789a.908.908,0,0,0-1.816,0v12.1H16.168v-12.1a.908.908,0,0,0-1.816,0v.8l-2.81,6.705-7.1,10.1a1.172,1.172,0,0,1-1.949-1.3L8.8,25.563a.9.9,0,0,0,.094-.2l2.7-8.023a6.931,6.931,0,0,1,6.575-4.726h6.225a6.93,6.93,0,0,1,6.575,4.726l2.7,8.023a.9.9,0,0,0,.094.2l1.233,1.946a.908.908,0,1,0,1.534-.972l-1.174-1.853L32.69,16.765a8.744,8.744,0,0,0-7.291-5.9A5.694,5.694,0,0,0,27,6.9V5.714a5.714,5.714,0,0,0-11.429,0V6.9a5.692,5.692,0,0,0,1.6,3.957,8.745,8.745,0,0,0-7.292,5.9L7.21,24.684.96,34.548A2.987,2.987,0,0,0,3.022,39.1v0a5.464,5.464,0,0,0,6.54,7.19l11.72-3.155L33,46.291a5.465,5.465,0,0,0,6.54-7.19v0A2.987,2.987,0,0,0,41.6,34.548ZM17.383,5.714a3.9,3.9,0,0,1,7.8,0V6.9a3.9,3.9,0,1,1-7.8,0Zm12,21.8a.9.9,0,0,0,.095.171l5.12,7.282-6.393-3.26v-7Zm-16.3.171a.894.894,0,0,0,.094-.171l1.174-2.8v7L7.963,34.971ZM37.806,42.382a3.653,3.653,0,0,1-4.332,2.157l-9.184-2.472a3.131,3.131,0,0,0,1.194-2.457c0-.034,0-.068,0-.1l5.675,1.34a.908.908,0,0,0,.417-1.767l-6.789-1.6a.909.909,0,0,0-.162-.022,3.173,3.173,0,0,0-.325-.3,3.111,3.111,0,0,0-2.659-.591L10.99,39.081a.908.908,0,1,0,.417,1.767l10.648-2.515a1.311,1.311,0,0,1,.642,2.542l-1.616.435-.056.015L9.089,44.538a3.649,3.649,0,0,1-2.606-6.775l9.077-4.628H27l9.077,4.628a3.63,3.63,0,0,1,1.726,4.618Zm0,0"/><path class="a" d="M396.967,317.93a.908.908,0,0,0,1.284,0l.034-.033A.908.908,0,0,0,397,316.612l-.034.034a.908.908,0,0,0,0,1.284Zm0,0" transform="translate(-360.234 -287.629)"/></g></svg>